<svg version="1.1" id="Layer_1" xmlns="http://www.w3.org/2000/svg" xmlns:xlink="http://www.w3.org/1999/xlink" x="0px" y="0px"
	 width="100%" viewBox="0 0 344 344" enable-background="new 0 0 344 344" xml:space="preserve">
<path fill="#FFFFFF" opacity="1.000000" stroke="none" 
	d="
M233.000000,345.000000 
	C155.333344,345.000000 78.166695,345.000000 1.000031,345.000000 
	C1.000021,230.333374 1.000021,115.666733 1.000010,1.000077 
	C115.666618,1.000051 230.333237,1.000051 344.999878,1.000026 
	C344.999939,115.666595 344.999939,230.333191 344.999969,344.999878 
	C307.833344,345.000000 270.666656,345.000000 233.000000,345.000000 
M55.083786,71.818634 
	C54.396275,75.889297 53.118790,79.958664 53.109909,84.030807 
	C52.980671,143.322784 53.013844,202.615143 53.046646,261.907410 
	C53.048019,264.388184 53.139790,266.931458 53.671387,269.339233 
	C57.056076,284.669525 70.840591,294.437927 86.645477,292.848816 
	C101.329971,291.372406 112.973778,278.434967 112.993126,263.104340 
	C113.068359,203.479065 113.038475,143.853638 113.018280,84.228271 
	C113.013062,68.817871 103.785995,56.930195 89.424423,53.656773 
	C75.577278,50.500610 62.250408,57.333458 55.083786,71.818634 
M243.234680,230.301056 
	C253.439789,238.465378 264.681396,240.319336 276.384399,234.437561 
	C288.056549,228.571320 293.101776,218.536667 293.044403,205.434402 
	C292.868469,165.270935 292.989899,125.106216 292.958069,84.942009 
	C292.955963,82.288620 292.953674,79.569679 292.415863,76.993011 
	C289.172272,61.452232 275.119476,51.448246 259.169403,53.163322 
	C244.478546,54.743004 233.026337,67.690880 232.999466,83.101768 
	C232.927963,124.099159 233.041946,165.096954 232.920471,206.094116 
	C232.892624,215.489716 235.979279,223.340576 243.234680,230.301056 
M142.972717,148.623383 
	C142.973022,168.092438 142.925491,187.561646 142.987915,207.030502 
	C143.043472,224.352509 156.288498,237.823593 173.079819,237.775742 
	C189.876251,237.727875 202.961197,224.277969 203.013672,206.873032 
	C203.072372,187.404190 203.065613,167.934937 203.015320,148.466049 
	C202.970413,131.079285 190.355835,117.928452 173.646652,117.731117 
	C156.346878,117.526810 143.561523,130.005035 142.972717,148.623383 
z"/>
<path fill="#33C5FE" opacity="1.000000" stroke="none" 
	d="
M55.236305,71.462936 
	C62.250408,57.333458 75.577278,50.500610 89.424423,53.656773 
	C103.785995,56.930195 113.013062,68.817871 113.018280,84.228271 
	C113.038475,143.853638 113.068359,203.479065 112.993126,263.104340 
	C112.973778,278.434967 101.329971,291.372406 86.645477,292.848816 
	C70.840591,294.437927 57.056076,284.669525 53.671387,269.339233 
	C53.139790,266.931458 53.048019,264.388184 53.046646,261.907410 
	C53.013844,202.615143 52.980671,143.322784 53.109909,84.030807 
	C53.118790,79.958664 54.396275,75.889297 55.236305,71.462936 
M55.000305,119.500000 
	C55.000305,107.437141 55.000305,95.374275 55.000305,83.311417 
	C54.764091,83.316338 54.527882,83.321259 54.291668,83.326187 
	C54.291668,143.175873 54.291668,203.025574 54.291668,262.875244 
	C54.527882,262.875366 54.764091,262.875458 55.000305,262.875549 
	C55.000305,215.417038 55.000305,167.958511 55.000305,119.500000 
z"/>
<path fill="#33C5FE" opacity="1.000000" stroke="none" 
	d="
M242.965927,230.064056 
	C235.979279,223.340576 232.892624,215.489716 232.920471,206.094116 
	C233.041946,165.096954 232.927963,124.099159 232.999466,83.101768 
	C233.026337,67.690880 244.478546,54.743004 259.169403,53.163322 
	C275.119476,51.448246 289.172272,61.452232 292.415863,76.993011 
	C292.953674,79.569679 292.955963,82.288620 292.958069,84.942009 
	C292.989899,125.106216 292.868469,165.270935 293.044403,205.434402 
	C293.101776,218.536667 288.056549,228.571320 276.384399,234.437561 
	C264.681396,240.319336 253.439789,238.465378 242.965927,230.064056 
M291.000000,90.580917 
	C291.000000,129.650757 291.000000,168.720612 291.000000,207.790451 
	C291.223572,207.789078 291.447144,207.787704 291.670715,207.786346 
	C291.670715,165.932632 291.670715,124.078926 291.670715,82.225212 
	C291.447144,82.221405 291.223572,82.217590 291.000000,82.213783 
	C291.000000,84.681221 291.000000,87.148666 291.000000,90.580917 
z"/>
<path fill="#33C5FE" opacity="1.000000" stroke="none" 
	d="
M142.973724,148.144806 
	C143.561523,130.005035 156.346878,117.526810 173.646652,117.731117 
	C190.355835,117.928452 202.970413,131.079285 203.015320,148.466049 
	C203.065613,167.934937 203.072372,187.404190 203.013672,206.873032 
	C202.961197,224.277969 189.876251,237.727875 173.079819,237.775742 
	C156.288498,237.823593 143.043472,224.352509 142.987915,207.030502 
	C142.925491,187.561646 142.973022,168.092438 142.973724,148.144806 
z"/>
<path fill="#27C1FE" opacity="1.000000" stroke="none" 
	d="
M55.000305,120.000000 
	C55.000305,167.958511 55.000305,215.417038 55.000305,262.875549 
	C54.764091,262.875458 54.527882,262.875366 54.291668,262.875244 
	C54.291668,203.025574 54.291668,143.175873 54.291668,83.326187 
	C54.527882,83.321259 54.764091,83.316338 55.000305,83.311417 
	C55.000305,95.374275 55.000305,107.437141 55.000305,120.000000 
z"/>
<path fill="#27C1FE" opacity="1.000000" stroke="none" 
	d="
M291.000000,90.098511 
	C291.000000,87.148666 291.000000,84.681221 291.000000,82.213783 
	C291.223572,82.217590 291.447144,82.221405 291.670715,82.225212 
	C291.670715,124.078926 291.670715,165.932632 291.670715,207.786346 
	C291.447144,207.787704 291.223572,207.789078 291.000000,207.790451 
	C291.000000,168.720612 291.000000,129.650757 291.000000,90.098511 
z"/>
</svg>