<svg version="1.1" id="Layer_1" xmlns="http://www.w3.org/2000/svg" xmlns:xlink="http://www.w3.org/1999/xlink" x="0px" y="0px"
	 width="100%" viewBox="0 0 215 210" enable-background="new 0 0 215 210" xml:space="preserve">
<path fill="#FFFFFE" opacity="1.000000" stroke="none" 
	d="
M142.000000,211.000000 
	C94.666672,211.000000 47.833340,211.000000 1.000006,211.000000 
	C1.000004,141.000000 1.000004,71.000015 1.000002,1.000016 
	C72.666656,1.000010 144.333313,1.000010 215.999969,1.000005 
	C215.999985,70.999985 215.999985,140.999969 216.000000,210.999969 
	C191.500000,211.000000 167.000000,211.000000 142.000000,211.000000 
M110.092201,116.612907 
	C110.379929,117.569267 110.649323,118.531593 110.958099,119.481110 
	C116.802704,137.453812 128.837616,149.058151 147.332382,152.876678 
	C166.278168,156.788330 182.250198,150.655563 194.541290,135.786621 
	C201.496338,127.372841 204.965744,117.486961 204.877136,105.993843 
	C203.307098,105.993843 202.173920,105.993507 201.040726,105.993881 
	C175.210754,106.002426 149.380753,106.024612 123.550850,105.986069 
	C121.994682,105.983749 120.439247,105.497360 119.578102,104.895172 
	C120.533104,104.603233 121.485840,104.303642 122.443436,104.020462 
	C153.574066,94.814468 166.965698,58.445404 148.932770,31.475527 
	C139.621918,17.550327 126.269524,10.616399 108.922447,9.970098 
	C108.922447,39.282299 108.922447,68.067024 108.266838,96.568787 
	C107.794434,94.975716 107.386833,93.360016 106.839752,91.793022 
	C100.274475,72.988136 87.256485,61.334152 67.528709,58.586483 
	C48.217518,55.896835 32.580616,63.236038 21.306696,79.148399 
	C15.748988,86.992729 12.893759,95.862724 13.177965,105.820114 
	C14.491966,105.898140 15.302990,105.988426 16.114006,105.988342 
	C42.248371,105.985786 68.382759,105.960533 94.517044,105.999428 
	C96.077560,106.001755 97.637314,106.507149 98.481567,107.093819 
	C97.526573,107.382301 96.573792,107.678375 95.616249,107.958153 
	C76.632866,113.504776 62.957291,130.017136 61.178726,149.542053 
	C59.394135,169.133133 69.769478,187.996552 87.330406,196.814880 
	C94.025421,200.176804 101.087799,202.169098 109.001534,201.806808 
	C109.001534,200.358978 109.001740,199.382385 109.001511,198.405792 
	C108.995590,172.447983 108.975533,146.490143 109.018890,120.532433 
	C109.021469,118.984291 109.531860,117.437004 110.092201,116.612907 
z"/>
<path fill="#EB4637" opacity="1.000000" stroke="none" 
	d="
M108.922440,96.851746 
	C108.922447,68.067024 108.922447,39.282299 108.922447,9.970098 
	C126.269524,10.616399 139.621918,17.550327 148.932770,31.475527 
	C166.965698,58.445404 153.574066,94.814468 122.443436,104.020462 
	C121.485840,104.303642 120.533104,104.603233 118.869453,105.241058 
	C115.178604,105.833008 112.196396,106.079071 109.128914,106.165558 
	C109.043633,106.005974 108.852295,105.698822 108.897141,105.324348 
	C108.935478,102.250496 108.928963,99.551125 108.922440,96.851746 
z"/>
<path fill="#03AD49" opacity="1.000000" stroke="none" 
	d="
M109.805954,115.889320 
	C109.531860,117.437004 109.021469,118.984291 109.018890,120.532433 
	C108.975533,146.490143 108.995590,172.447983 109.001511,198.405792 
	C109.001740,199.382385 109.001534,200.358978 109.001534,201.806808 
	C101.087799,202.169098 94.025421,200.176804 87.330406,196.814880 
	C69.769478,187.996552 59.394135,169.133133 61.178726,149.542053 
	C62.957291,130.017136 76.632866,113.504776 95.616249,107.958153 
	C96.573792,107.678375 97.526573,107.382301 99.233307,106.980049 
	C102.940788,106.477127 105.896545,106.087975 108.852295,105.698822 
	C108.852295,105.698822 109.043633,106.005974 109.068466,106.575607 
	C109.330849,110.059937 109.568405,112.974632 109.805954,115.889320 
z"/>
<path fill="#FFBA03" opacity="1.000000" stroke="none" 
	d="
M108.897141,105.324348 
	C105.896545,106.087975 102.940788,106.477127 99.591232,106.822365 
	C97.637314,106.507149 96.077560,106.001755 94.517044,105.999428 
	C68.382759,105.960533 42.248371,105.985786 16.114006,105.988342 
	C15.302990,105.988426 14.491966,105.898140 13.177965,105.820114 
	C12.893759,95.862724 15.748988,86.992729 21.306696,79.148399 
	C32.580616,63.236038 48.217518,55.896835 67.528709,58.586483 
	C87.256485,61.334152 100.274475,72.988136 106.839752,91.793022 
	C107.386833,93.360016 107.794434,94.975716 108.594635,96.710266 
	C108.928963,99.551125 108.935478,102.250496 108.897141,105.324348 
z"/>
<path fill="#0367DB" opacity="1.000000" stroke="none" 
	d="
M109.949081,116.251114 
	C109.568405,112.974632 109.330849,110.059937 109.153748,106.735191 
	C112.196396,106.079071 115.178604,105.833008 118.522141,105.411583 
	C120.439247,105.497360 121.994682,105.983749 123.550850,105.986069 
	C149.380753,106.024612 175.210754,106.002426 201.040726,105.993881 
	C202.173920,105.993507 203.307098,105.993843 204.877136,105.993843 
	C204.965744,117.486961 201.496338,127.372841 194.541290,135.786621 
	C182.250198,150.655563 166.278168,156.788330 147.332382,152.876678 
	C128.837616,149.058151 116.802704,137.453812 110.958099,119.481110 
	C110.649323,118.531593 110.379929,117.569267 109.949081,116.251114 
z"/>
</svg>