<?xml version="1.0" ?><!DOCTYPE svg  PUBLIC '-//W3C//DTD SVG 1.1//EN'  'http://www.w3.org/Graphics/SVG/1.1/DTD/svg11.dtd'><svg enable-background="new 0 0 66 66" id="Layer_1" version="1.1" viewBox="0 0 66 66" xml:space="preserve" xmlns="http://www.w3.org/2000/svg" xmlns:xlink="http://www.w3.org/1999/xlink"><g><g><path d="M25.1,40c4.1,0,8.2-1.3,11.5-3.8c1.2,1.7,2.4,3.3,3.6,4.7c0.7,0.8,0.7,2.1,0,2.9c-3.7,4.3-7.9,11.3-9,13.2h-1.3    c-0.6,0-1,0.4-1,1v4c0,1.7,1.3,3,3,3h25.6c1.7,0,3-1.3,3-3v-4c0-0.6-0.4-1-1-1H58c-1.1-1.9-5.4-9-9-13.2c-0.7-0.8-0.7-2.1,0-2.9    c3.7-4.3,7.9-11.3,9-13.2h1.3c0.6,0,1-0.4,1-1v-3c0-2.2-1.8-4-4-4H44.6C44.1,9.1,35.4,1,25.1,1C14.5,1,5.6,9.6,5.6,20.5    C5.6,31.2,14.3,40,25.1,40z M58.4,62c0,0.6-0.4,1-1,1H31.8c-0.6,0-1-0.4-1-1v-3c6.4,0,21.1,0,27.6,0V62z M47.5,39.6    c-1.4,1.6-1.4,4,0,5.5c3,3.5,6.6,9.2,8.2,11.9H33.5c1.6-2.7,5.2-8.4,8.2-11.9c1.4-1.6,1.4-4,0-5.5c-3-3.5-6.6-9.2-8.2-11.9h22.2    C54.1,30.4,50.5,36.1,47.5,39.6z M58.4,23.7v2c-6.9,0-20.7,0-27.6,0v-2c0-1.1,0.9-2,2-2h23.6C57.5,21.7,58.4,22.6,58.4,23.7z     M32.8,19.7c-2.2,0-4,1.8-4,4v3c0,0.6,0.4,1,1,1h1.3c0.7,1.1,2.3,3.9,4.3,6.9c-2.7,2-6,3.2-9.4,3.4v-1c0-0.6-0.4-1-1-1    c-0.6,0-1,0.4-1,1v0.9c-4.1-0.2-7.8-1.9-10.6-4.4l0.7-0.7c0.4-0.4,0.4-1,0-1.4c-0.4-0.4-1-0.4-1.4,0l-0.7,0.7    c-2.6-2.9-4.2-6.5-4.4-10.6h0.9c0.6,0,1-0.4,1-1c0-0.6-0.4-1-1-1H7.7c0.2-4.1,1.9-7.8,4.4-10.6l0.7,0.7c0.4,0.4,1,0.4,1.4,0    c0.4-0.4,0.4-1,0-1.4l-0.7-0.7c2.9-2.6,6.5-4.2,10.6-4.4V4c0,0.6,0.4,1,1,1c0.6,0,1-0.4,1-1V3.1c4.1,0.2,7.8,1.9,10.6,4.4    l-0.7,0.7c-0.4,0.4-0.4,1,0,1.4c0.4,0.4,1,0.4,1.4,0l0.7-0.7c2.6,2.9,4.2,6.7,4.4,10.8H32.8z"/></g><g><path d="M41.1,51v2c0,0.6,0.4,1,1,1c0.6,0,1-0.4,1-1v-2c0-0.6-0.4-1-1-1C41.5,50,41.1,50.4,41.1,51z"/></g><g><path d="M47.1,54c0.6,0,1-0.4,1-1v-2c0-0.6-0.4-1-1-1c-0.6,0-1,0.4-1,1v2C46.1,53.5,46.5,54,47.1,54z"/></g><g><path d="M44.6,35.9c0.6,0,1-0.4,1-1v-2c0-0.6-0.4-1-1-1c-0.6,0-1,0.4-1,1v2C43.6,35.4,44,35.9,44.6,35.9z"/></g><g><path d="M25.1,8c-0.6,0-1,0.4-1,1v10.8l-11,4.7c-0.5,0.2-0.7,0.8-0.5,1.3c0.2,0.4,0.5,0.6,0.9,0.6c0.1,0,0.3,0,0.4-0.1l11.7-5    c0.4-0.2,0.6-0.5,0.6-0.9V9C26.1,8.4,25.7,8,25.1,8z"/></g></g></svg>