<svg version="1.1" id="Layer_1" xmlns="http://www.w3.org/2000/svg" xmlns:xlink="http://www.w3.org/1999/xlink" x="0px" y="0px"
	 width="100%" viewBox="0 0 229 220" enable-background="new 0 0 229 220" xml:space="preserve">
<path fill="#FFFFFF" opacity="1.000000" stroke="none" 
	d="
M0.999999,209.000000 
	C1.000000,143.979111 1.000000,78.958206 1.456684,13.384236 
	C3.742500,12.819736 5.572278,12.771236 7.400654,12.803147 
	C16.581203,12.963374 19.368639,14.990668 22.144676,23.794889 
	C23.540474,28.221659 24.696402,32.723751 25.980581,37.186089 
	C29.555445,49.608231 32.678257,62.185928 36.865231,74.398560 
	C40.336811,84.524529 48.155087,90.459000 58.970291,91.067101 
	C71.232712,91.756561 83.538048,91.682610 96.089218,91.951385 
	C96.530190,91.963608 96.706657,91.965012 96.862839,92.230316 
	C96.886009,92.665237 96.929466,92.836250 96.899826,93.470856 
	C96.877708,105.621277 96.928680,117.308113 96.916359,129.249908 
	C96.871422,129.679031 96.889763,129.853195 96.645607,130.029617 
	C96.208191,130.037720 96.033279,130.043579 95.401657,130.072845 
	C88.620789,130.097244 82.296150,130.050385 75.972641,130.115082 
	C71.320389,130.162674 66.667015,130.295547 62.018669,130.495758 
	C46.147324,131.179459 37.857468,140.558945 33.985802,155.004242 
	C30.462847,168.148453 27.033142,181.319809 23.317167,194.409592 
	C19.367498,208.322556 17.340157,209.674622 2.970429,209.258759 
	C2.311674,209.239700 1.656722,209.089264 0.999999,209.000000 
z"/>
<path fill="#FFFFFF" opacity="1.000000" stroke="none" 
	d="
M230.000000,13.000000 
	C230.000000,78.020897 230.000000,143.041794 229.547531,208.640991 
	C213.300644,209.510635 211.103058,207.839417 207.036102,192.440811 
	C206.993713,192.280350 206.991913,192.108932 206.947296,191.949310 
	C203.012253,177.872284 199.350006,163.711197 195.050598,149.746277 
	C191.606155,138.558380 183.912430,131.527740 171.913391,130.825378 
	C159.961258,130.125732 147.961609,130.238159 135.756241,130.000763 
	C135.529694,130.006989 135.076736,130.022964 135.039429,129.553711 
	C135.030762,116.714447 135.059402,104.344444 135.312286,91.983467 
	C135.536530,91.992500 135.985199,92.004715 136.454803,91.990501 
	C145.754913,91.965851 154.585526,91.972916 163.415909,91.932465 
	C165.578278,91.922562 167.742432,91.795975 169.901535,91.657204 
	C185.382187,90.662193 193.200058,81.167892 196.970245,67.204948 
	C200.565048,53.891590 204.022980,40.539585 207.779251,27.272003 
	C211.492340,14.156973 214.001678,12.442749 227.527573,12.736487 
	C228.353226,12.754417 229.175934,12.909000 230.000000,13.000000 
z"/>
<path fill="#FEFEFF" opacity="1.000000" stroke="none" 
	d="
M135.985199,92.004715 
	C135.985199,92.004715 135.536530,91.992500 134.836761,91.963760 
	C122.085861,91.980072 110.034729,92.025116 97.711197,92.015442 
	C97.253571,91.962624 97.068344,91.964516 96.883125,91.966408 
	C96.706657,91.965012 96.530190,91.963608 95.952805,91.662567 
	C89.137894,86.905434 86.262054,80.146660 84.206871,73.080338 
	C79.018311,55.240459 74.169365,37.302116 69.059799,19.438850 
	C65.912727,8.436522 58.607853,2.411992 47.031883,1.605767 
	C47.016544,1.404121 47.000000,1.000000 47.000000,1.000000 
	C92.354225,1.000000 137.708450,1.000000 183.522797,1.205003 
	C183.982910,1.410007 183.939148,1.818030 183.529922,1.867512 
	C171.844040,2.519708 164.972473,8.619722 162.018814,19.235270 
	C157.876755,34.121933 153.930969,49.063366 149.929825,63.989040 
	C147.172684,74.274223 144.408356,84.544724 135.985199,92.004715 
z"/>
<path fill="#FFFFFF" opacity="1.000000" stroke="none" 
	d="
M135.076736,130.022964 
	C135.076736,130.022964 135.529694,130.006989 135.812256,130.337799 
	C141.892410,135.126389 145.002747,141.307373 146.911423,148.120743 
	C151.869293,165.818710 156.462250,183.621567 161.617554,201.260742 
	C165.727310,215.322464 171.462250,219.475174 185.962189,220.384064 
	C185.984802,220.588654 186.000000,221.000000 186.000000,221.000000 
	C139.645767,221.000000 93.291542,221.000000 46.489292,220.807739 
	C46.041267,220.615463 46.074543,220.230179 46.491932,220.170715 
	C57.519413,219.745728 64.763809,214.715485 68.335396,204.622421 
	C69.273819,201.970535 70.295189,199.336624 71.036163,196.628159 
	C74.795227,182.887787 78.419624,169.110474 82.200737,155.376251 
	C84.807526,145.907501 87.756088,136.576126 95.858368,130.049438 
	C96.033279,130.043579 96.208191,130.037720 96.916336,130.030243 
	C97.625946,129.990463 97.802322,129.952316 98.444962,129.977814 
	C110.966408,130.035294 123.021568,130.029129 135.076736,130.022964 
z"/>
<path fill="#7957FF" opacity="1.000000" stroke="none" 
	d="
M95.401657,130.072845 
	C87.756088,136.576126 84.807526,145.907501 82.200737,155.376251 
	C78.419624,169.110474 74.795227,182.887787 71.036163,196.628159 
	C70.295189,199.336624 69.273819,201.970535 68.335396,204.622421 
	C64.763809,214.715485 57.519413,219.745728 46.023285,220.094086 
	C30.424829,220.051270 15.712415,220.025635 1.000000,220.000000 
	C1.000000,216.638718 1.000000,213.277420 0.999999,209.458069 
	C1.656722,209.089264 2.311674,209.239700 2.970429,209.258759 
	C17.340157,209.674622 19.367498,208.322556 23.317167,194.409592 
	C27.033142,181.319809 30.462847,168.148453 33.985802,155.004242 
	C37.857468,140.558945 46.147324,131.179459 62.018669,130.495758 
	C66.667015,130.295547 71.320389,130.162674 75.972641,130.115082 
	C82.296150,130.050385 88.620789,130.097244 95.401657,130.072845 
z"/>
<path fill="#7957FF" opacity="1.000000" stroke="none" 
	d="
M47.047222,1.807414 
	C58.607853,2.411992 65.912727,8.436522 69.059799,19.438850 
	C74.169365,37.302116 79.018311,55.240459 84.206871,73.080338 
	C86.262054,80.146660 89.137894,86.905434 95.688316,91.651749 
	C83.538048,91.682610 71.232712,91.756561 58.970291,91.067101 
	C48.155087,90.459000 40.336811,84.524529 36.865231,74.398560 
	C32.678257,62.185928 29.555445,49.608231 25.980581,37.186089 
	C24.696402,32.723751 23.540474,28.221659 22.144676,23.794889 
	C19.368639,14.990668 16.581203,12.963374 7.400654,12.803147 
	C5.572278,12.771236 3.742500,12.819736 1.456684,12.915579 
	C1.000000,9.638713 1.000000,6.277425 1.468582,2.448280 
	C16.973850,1.922753 32.010536,1.865084 47.047222,1.807414 
z"/>
<path fill="#7957FF" opacity="1.000000" stroke="none" 
	d="
M185.939560,220.179489 
	C171.462250,219.475174 165.727310,215.322464 161.617554,201.260742 
	C156.462250,183.621567 151.869293,165.818710 146.911423,148.120743 
	C145.002747,141.307373 141.892410,135.126389 136.038818,130.331573 
	C147.961609,130.238159 159.961258,130.125732 171.913391,130.825378 
	C183.912430,131.527740 191.606155,138.558380 195.050598,149.746277 
	C199.350006,163.711197 203.012253,177.872284 206.947296,191.949310 
	C206.991913,192.108932 206.993713,192.280350 207.036102,192.440811 
	C211.103058,207.839417 213.300644,209.510635 229.547531,209.109650 
	C230.000000,212.361282 230.000000,215.722580 229.531403,219.550232 
	C214.688385,220.070908 200.313965,220.125198 185.939560,220.179489 
z"/>
<path fill="#7957FF" opacity="1.000000" stroke="none" 
	d="
M136.454803,91.990501 
	C144.408356,84.544724 147.172684,74.274223 149.929825,63.989040 
	C153.930969,49.063366 157.876755,34.121933 162.018814,19.235270 
	C164.972473,8.619722 171.844040,2.519708 183.999146,1.931338 
	C199.598053,2.007560 214.318497,2.069439 229.146118,2.328093 
	C229.450378,2.764666 229.699280,2.923043 230.000000,3.000000 
	C230.000000,6.030593 230.000000,9.061187 230.000000,12.545890 
	C229.175934,12.909000 228.353226,12.754417 227.527573,12.736487 
	C214.001678,12.442749 211.492340,14.156973 207.779251,27.272003 
	C204.022980,40.539585 200.565048,53.891590 196.970245,67.204948 
	C193.200058,81.167892 185.382187,90.662193 169.901535,91.657204 
	C167.742432,91.795975 165.578278,91.922562 163.415909,91.932465 
	C154.585526,91.972916 145.754913,91.965851 136.454803,91.990501 
z"/>
<path fill="#E2DCFF" opacity="1.000000" stroke="none" 
	d="
M47.031883,1.605767 
	C32.010536,1.865084 16.973850,1.922753 1.468582,1.990211 
	C1.987460,1.666667 2.973634,1.047483 3.962575,1.043031 
	C17.995724,0.979856 32.029251,1.000000 46.531342,1.000000 
	C47.000000,1.000000 47.016544,1.404121 47.031883,1.605767 
z"/>
<path fill="#D9D2FF" opacity="1.000000" stroke="none" 
	d="
M229.038956,2.131318 
	C214.318497,2.069439 199.598053,2.007560 184.408371,1.881856 
	C183.939148,1.818030 183.982910,1.410007 183.991455,1.205003 
	C199.333328,1.000000 214.666672,1.000000 229.756836,1.511631 
	C229.513672,2.023262 229.038956,2.131318 229.038956,2.131318 
z"/>
<path fill="#DAD3FF" opacity="1.000000" stroke="none" 
	d="
M1.000000,220.500000 
	C15.712415,220.025635 30.424829,220.051270 45.605896,220.153534 
	C46.074543,220.230179 46.041267,220.615463 46.020634,220.807739 
	C31.000000,221.000000 16.000000,221.000000 1.000000,220.500000 
z"/>
<path fill="#D9D3FF" opacity="1.000000" stroke="none" 
	d="
M185.962189,220.384064 
	C200.313965,220.125198 214.688385,220.070908 229.531403,220.008301 
	C229.013107,220.333328 228.027573,220.952133 227.039093,220.956879 
	C213.672089,221.021103 200.304642,221.000000 186.468658,221.000000 
	C186.000000,221.000000 185.984802,220.588654 185.962189,220.384064 
z"/>
<path fill="#6F4AFF" opacity="1.000000" stroke="none" 
	d="
M229.146118,2.328093 
	C229.038956,2.131318 229.513672,2.023262 229.756836,2.011631 
	C230.000000,2.000000 230.000000,2.500000 230.000000,2.750000 
	C229.699280,2.923043 229.450378,2.764666 229.146118,2.328093 
z"/>
<path fill="#7856FF" opacity="1.000000" stroke="none" 
	d="
M135.039429,129.553711 
	C123.021568,130.029129 110.966408,130.035294 98.337234,129.768356 
	C97.556847,129.242676 97.295647,129.075897 96.979645,128.994949 
	C96.928680,117.308113 96.877708,105.621277 97.119408,93.375778 
	C97.694313,92.638313 97.884819,92.389336 97.983597,92.070160 
	C110.034729,92.025116 122.085861,91.980072 134.612518,91.954727 
	C135.059402,104.344444 135.030762,116.714447 135.039429,129.553711 
z"/>
<path fill="#6E48FF" opacity="1.000000" stroke="none" 
	d="
M96.916359,129.249908 
	C97.295647,129.075897 97.556847,129.242676 97.870964,129.704712 
	C97.802322,129.952316 97.625946,129.990463 97.178841,130.027985 
	C96.889763,129.853195 96.871422,129.679031 96.916359,129.249908 
z"/>
<path fill="#6E48FF" opacity="1.000000" stroke="none" 
	d="
M97.711197,92.015442 
	C97.884819,92.389336 97.694313,92.638313 97.192505,92.912186 
	C96.929466,92.836250 96.886009,92.665237 96.862839,92.230316 
	C97.068344,91.964516 97.253571,91.962624 97.711197,92.015442 
z"/>
</svg>