<?xml version="1.0" encoding="UTF-8"?>
<svg version="1.1" viewBox="0 0 880 880" width="220" height="220" xmlns="http://www.w3.org/2000/svg">
<path transform="translate(0)" d="m0 0h880v880h-880z" fill="#FDCA20"/>
<path transform="translate(295,390)" d="m0 0h14l1 1v28l-1 6 9-7 11-3 15 2 8 4 8 9 4 10 1 6v8l-4 12-6 8-7 6-9 3h-15l-10-5-5-3-1 7h-15v-91z" fill="#040202"/>
<path transform="translate(231,372)" d="m0 0 5 1 6 5 2 4v7l-5 6-12 6-47 19-41 17-37 15-15 6h-8l-5-4-3-5v-8l5-6 15-7 49-20 54-22 28-11z" fill="#040202"/>
<path transform="translate(231,420)" d="m0 0 5 1 7 6 1 3v7l-5 6-10 5-30 12-46 19-27 11-37 15-2 1h-6l-7-4-3-5v-8l5-6 12-6 35-14 41-17 55-22z" fill="#040202"/>
<path transform="translate(479,415)" d="m0 0h8l11 4 5 4v2h2v-7l1-1h14l1 5v60l-12 1-3-1-1-8-11 8-6 2h-11l-10-3-6-4-7-8-4-10v-19l4-9 6-8 10-6z" fill="#040202"/>
<path transform="translate(562,416)" d="m0 0h10l9 3 5 8 7-6 6-4 3-1h12l10 3 5 4 4 6 3 12v41h-15l-1-38-2-7-5-4-2-1h-8l-6 5-3 6-1 39h-15l-1-39-3-6-7-6-7 1-7 6-2 3-1 41h-16v-64l1-1h13l2 2 2 4 7-6z" fill="#040202"/>
<path transform="translate(402,415)" d="m0 0h11l13 4 8 7 4 6 3 9v14l-29 1h-22l2 5 5 5 5 2h14l7-3 5-1 5 4 3 6-6 5-12 4-10 1-15-3-9-6-7-8-3-7-1-5v-13l5-12 7-8 10-5z" fill="#040202"/>
<path transform="translate(684,414)" d="m0 0 16 4 9 6 4 5 4 10 1 14-1 2-35 1-16-1 3 6 5 5 5 2h15l7-4 7 2 5 6-2 4-9 5-7 2h-19l-10-4-9-7-5-8-2-7v-15l3-9 6-8 7-6 13-4z" fill="#040202"/>
<path transform="translate(171,347)" d="m0 0h8l5 4 3 6v6l-6 7-25 11-35 14-33 13-7 1-6-3-4-7v-7l5-6 17-8 37-15 38-15z" fill="#040202"/>
<path transform="translate(229,470)" d="m0 0h6l7 6 2 5-1 7-8 7-55 22-37 15-8-1-6-7-1-2 1-9 7-6 36-15 48-19z" fill="#040202"/>
<path transform="translate(759,415)" d="m0 0h9l11 4 2 4-6 10-4 1-4-2h-10l-6 4-3 3-1 3-1 39-1 1h-15l-1-1v-62l2-2h13l2 5 4-2 6-4z" fill="#040202"/>
<path transform="translate(481,429)" d="m0 0 9 1 6 3 6 7 2 6-1 11-6 8-7 4-7 1-9-3-7-8-2-5v-9l4-8 7-6z" fill="#FDCA20"/>
<path transform="translate(325,430)" d="m0 0h8l9 4 6 9v13l-7 9-8 4h-7l-8-4-6-7-2-5v-7l4-8 5-5z" fill="#FDCA20"/>
<path transform="translate(221,373)" d="m0 0h4v2l-26 10-115 47-9 5-3 1 1-6 5-3 8-4 6-2 5-2 20-10 10-3 9-4 13-4h5v-2l10-2 19-8v-2l5-3 6-4 7-1v2l9-3z" fill="#FED51F"/>
<path transform="translate(171,345)" d="m0 0h7v1l-7 2-31 12-37 15-21 9-10 4v-5l11-7 8-4h2v-2l20-7 10-5 16-6 10-2 1 2 10-3z" fill="#FED61F"/>
<path transform="translate(217,420)" d="m0 0 5 2v2l-31 12-68 28-37 15-14 7-1-5 5-3 14-4 10-5 4-3 5-3 8-3 10-4 13-5 9-4h5l4-2h2l2-3 10-2 9-3 15-6 10-5h3l1-3 7-1z" fill="#FED41F"/>
<path transform="translate(402,429)" d="m0 0h13l6 4 4 4 1 4-1 1h-36l2-4 9-8z" fill="#FDCA21"/>
<path transform="translate(679,429)" d="m0 0h12l9 6 2 3v4h-36l2-4 7-7z" fill="#FDCA21"/>
<path transform="translate(795,464)" d="m0 0 6 1 4 4 1 7-4 6-2 1h-7l-5-5-1-8 4-4z" fill="#040202"/>
<path transform="translate(376,430)" d="m0 0 1 4-3 8v13l3 10 4 8v2l4 2-4 1-6-5-1-5h-2l-5-10 1-16 4-6z" fill="#FED41F"/>
<path transform="translate(216,470)" d="m0 0 1 2h3v2l-38 15h-5l2-2 17-7h2v-2l5-1 3-2 3-3 6-1z" fill="#FED31F"/>
<path transform="translate(173,488)" d="m0 0 2 1v3l-37 15-3 2-4-1 4-3 21-9 2-3 3 1 9-4h3z" fill="#FED31F"/>
<path transform="translate(581,416)" d="m0 0 5 2h6l5-2v3l-7 5-4 4-6-9z" fill="#FED31F"/>
<path transform="translate(315,456)" d="m0 0 3 1 1 5 3-1 3 1 1 3-2 2-6-2-4-4z" fill="#FED51F"/>
<path transform="translate(466,446)" d="m0 0h1v7l3 1h-2l2 6h4l2 6-4-1-5-6-1-2z" fill="#FED41F"/>
<path transform="translate(157,527)" d="m0 0 2 1-4 3-7 3-2 2h-5l-1-2 9-4h2v-2z" fill="#FED71F"/>
<path transform="translate(94,502)" d="m0 0h6l-4 6-9 2h-4v-2l7-2 4-2z" fill="#FED71F"/>
<path transform="translate(668,416)" d="m0 0 4 1-10 6-6 7-3 1 2-5 9-8z" fill="#FED21F"/>
<path transform="translate(121,521)" d="m0 0 4 2 1 1 2-1 4 6v3l-11-6z" fill="#FFD81F"/>
<path transform="translate(171,345)" d="m0 0h7v1l-7 2-16 6h-2v-2l14-6z" fill="#FED31F"/>
<path transform="translate(374,468)" d="m0 0 4 1 3 4v2l4 2-4 1-6-5z" fill="#FED71F"/>
<path transform="translate(320,414)" d="m0 0 4 1v2l-9 4-4 1 5-7 4 1z" fill="#FED41F"/>
<path transform="translate(398,414)" d="m0 0h4v2l-12 4-5 1 2-3z" fill="#FED21F"/>
<path transform="translate(488,464)" d="m0 0 6 1v2l-4 2h-6l1-3z" fill="#FED41F"/>
<path transform="translate(312,444)" d="m0 0h1v12h-2l-1-3v-7h2z" fill="#FED31F"/>
</svg>
