<svg id="svg" version="1.1" xmlns="http://www.w3.org/2000/svg" xmlns:xlink="http://www.w3.org/1999/xlink" width="400" height="400" viewBox="0, 0, 400,400"><g id="svgg"><path id="path0" d="M158.478 44.222 C 157.874 44.907,116.864 44.920,115.445 44.236 C 114.871 43.960,114.736 44.007,114.879 44.436 C 115.231 45.492,159.200 45.459,159.200 44.403 C 159.200 43.457,159.161 43.447,158.478 44.222 M164.683 45.994 C 165.070 47.477,164.512 48.226,163.621 47.419 C 161.992 45.945,160.273 45.831,137.855 45.707 C 118.874 45.603,115.745 45.669,114.693 46.193 C 114.024 46.527,113.333 46.800,113.157 46.800 C 112.355 46.800,110.632 49.123,110.348 50.588 C 109.939 52.695,109.939 347.305,110.348 349.412 C 110.644 350.940,112.365 353.200,113.232 353.200 C 114.266 353.200,115.611 354.505,115.150 355.060 C 114.511 355.830,114.961 356.156,115.939 355.632 C 116.995 355.068,158.295 355.028,159.774 355.590 C 160.455 355.849,160.800 355.845,160.800 355.577 C 160.800 355.356,160.406 355.028,159.925 354.850 C 159.148 354.563,159.258 354.455,160.893 353.898 C 163.033 353.169,163.182 353.249,163.254 355.167 C 163.296 356.271,163.351 356.370,163.493 355.600 C 163.761 354.144,165.598 352.424,166.900 352.411 C 167.505 352.405,168.000 352.220,168.000 352.000 C 168.000 351.780,167.381 351.600,166.624 351.600 C 164.884 351.600,164.594 351.135,165.589 349.942 C 166.235 349.167,166.376 349.121,166.387 349.686 C 166.394 350.063,166.805 350.588,167.300 350.851 C 168.099 351.277,168.142 351.260,167.681 350.702 C 167.107 350.006,166.937 253.296,167.509 252.738 C 168.221 252.044,170.161 252.210,170.578 253.000 C 170.810 253.440,172.125 254.944,173.500 256.343 C 174.875 257.741,176.000 259.034,176.000 259.216 C 176.000 259.397,176.360 259.660,176.800 259.800 C 177.240 259.940,177.600 260.300,177.600 260.600 C 177.600 260.900,177.960 261.260,178.399 261.400 C 178.839 261.539,179.308 262.091,179.442 262.627 C 179.577 263.162,179.937 263.600,180.243 263.600 C 180.550 263.600,180.800 263.874,180.800 264.210 C 180.800 264.545,181.266 264.997,181.835 265.213 C 182.773 265.570,182.849 265.758,182.644 267.221 C 182.504 268.225,182.566 268.744,182.809 268.594 C 183.024 268.461,183.200 268.543,183.200 268.776 C 183.200 269.009,183.335 269.179,183.500 269.153 C 184.547 268.987,184.883 269.218,184.415 269.782 C 183.820 270.499,184.197 271.200,185.177 271.200 C 185.578 271.200,186.001 271.560,186.116 272.000 C 186.231 272.440,186.599 272.800,186.935 272.800 C 187.270 272.800,187.602 273.205,187.672 273.700 C 187.742 274.195,188.010 274.600,188.267 274.600 C 188.865 274.600,189.400 275.135,189.400 275.733 C 189.400 275.990,189.805 276.258,190.300 276.328 C 190.878 276.410,191.200 276.732,191.200 277.228 C 191.200 277.724,191.476 278.000,191.972 278.000 C 192.468 278.000,192.790 278.322,192.872 278.900 C 192.954 279.478,193.322 279.846,193.900 279.928 C 194.478 280.010,194.800 280.332,194.800 280.828 C 194.800 281.324,195.076 281.600,195.573 281.600 C 195.998 281.600,196.457 281.951,196.594 282.380 C 196.730 282.808,197.192 283.270,197.620 283.406 C 198.049 283.543,198.400 284.002,198.400 284.427 C 198.400 285.353,199.018 285.452,199.353 284.579 C 199.488 284.227,199.422 284.063,199.200 284.200 C 198.976 284.338,198.914 284.169,199.054 283.803 C 199.273 283.232,199.373 283.240,199.998 283.882 C 200.383 284.277,200.601 284.766,200.483 284.968 C 200.365 285.170,200.563 285.223,200.922 285.085 C 201.281 284.948,201.681 285.007,201.811 285.217 C 201.941 285.428,202.337 285.600,202.691 285.600 C 203.046 285.600,204.250 286.547,205.368 287.704 C 206.486 288.861,208.030 290.375,208.800 291.067 C 209.570 291.760,210.380 292.525,210.600 292.766 C 210.929 293.127,217.264 299.471,219.115 301.293 C 222.226 304.356,238.709 320.885,239.044 321.279 C 239.288 321.565,240.098 322.368,240.844 323.063 C 241.590 323.758,243.797 325.954,245.749 327.943 L 249.299 331.560 248.149 331.815 C 246.259 332.234,246.136 332.335,247.473 332.368 C 248.367 332.391,248.820 332.632,248.994 333.180 C 249.130 333.608,249.592 334.070,250.020 334.206 C 250.449 334.343,250.800 334.700,250.800 335.000 C 250.800 335.300,251.160 335.660,251.600 335.800 C 252.040 335.940,252.400 336.205,252.400 336.390 C 252.400 336.575,254.380 338.731,256.800 341.182 C 259.220 343.633,261.200 345.747,261.200 345.879 C 261.200 346.012,262.010 346.885,263.000 347.820 C 263.990 348.756,264.800 349.712,264.800 349.946 C 264.800 350.180,265.160 350.565,265.600 350.800 C 266.040 351.035,266.400 351.492,266.400 351.814 C 266.400 352.136,266.648 352.400,266.951 352.400 C 267.254 352.400,267.726 352.670,268.000 353.000 C 268.274 353.330,268.832 353.600,269.241 353.600 C 269.727 353.600,270.069 353.982,270.227 354.700 C 270.643 356.585,270.736 356.649,270.768 355.072 C 270.811 353.000,272.522 353.000,272.723 355.072 C 272.830 356.178,272.988 356.335,273.923 356.272 C 274.761 356.216,275.028 356.399,275.127 357.100 C 275.291 358.250,277.200 358.416,277.200 357.280 C 277.200 356.089,277.966 355.607,279.145 356.055 L 280.188 356.452 279.345 355.526 C 278.381 354.467,278.511 353.600,279.633 353.600 C 280.242 353.600,280.412 353.909,280.460 355.100 C 280.506 356.257,280.557 356.355,280.684 355.529 C 280.876 354.273,281.424 353.746,282.800 353.493 C 283.537 353.357,283.406 353.295,282.300 353.254 C 280.993 353.207,279.902 352.000,281.166 352.000 C 281.368 352.000,282.133 351.362,282.866 350.582 C 288.400 344.701,302.965 330.364,303.517 330.255 C 303.892 330.181,304.515 329.984,304.900 329.817 C 305.285 329.651,305.864 329.616,306.187 329.740 C 306.510 329.864,306.898 329.765,307.049 329.521 C 307.228 329.231,307.139 329.191,306.794 329.404 C 306.409 329.642,306.334 329.549,306.519 329.066 C 306.665 328.686,306.580 328.400,306.321 328.400 C 306.071 328.400,305.995 328.272,306.152 328.115 C 306.309 327.958,307.194 327.823,308.119 327.815 C 309.552 327.802,309.819 327.667,309.928 326.900 C 310.011 326.316,310.331 326.000,310.840 326.000 C 311.892 326.000,312.230 324.973,311.439 324.182 C 310.257 323.000,310.837 321.854,312.800 321.493 C 313.578 321.350,313.485 321.297,312.382 321.254 L 310.963 321.200 310.982 317.687 L 311.000 314.173 301.051 304.187 L 291.102 294.200 292.651 293.957 C 293.520 293.820,293.790 293.689,293.264 293.657 C 292.354 293.602,282.400 283.980,282.400 283.156 C 282.400 282.960,282.113 282.800,281.763 282.800 C 281.412 282.800,281.033 282.446,280.919 282.013 C 280.806 281.581,280.382 281.121,279.977 280.993 C 279.572 280.864,279.130 280.408,278.994 279.980 C 278.857 279.551,278.483 279.200,278.160 279.200 C 277.838 279.200,277.464 278.912,277.329 278.560 C 277.194 278.208,274.320 275.154,270.942 271.774 C 267.564 268.393,264.800 265.550,264.800 265.456 C 264.800 265.066,262.445 262.800,262.040 262.800 C 261.798 262.800,261.600 262.606,261.600 262.370 C 261.600 262.133,260.340 260.719,258.800 259.227 C 257.260 257.735,256.000 256.309,256.000 256.057 C 256.000 255.806,255.773 255.600,255.496 255.600 C 255.219 255.600,254.768 255.240,254.493 254.800 C 254.218 254.360,253.725 254.000,253.397 254.000 C 253.068 254.000,252.800 253.726,252.800 253.391 C 252.800 253.057,252.350 252.578,251.800 252.327 C 251.250 252.077,250.800 251.643,250.800 251.363 C 250.800 251.083,250.458 250.745,250.040 250.613 C 249.622 250.480,249.168 249.928,249.032 249.386 C 248.896 248.844,248.518 248.400,248.192 248.400 C 247.867 248.400,247.600 248.040,247.600 247.600 C 247.600 247.063,247.333 246.800,246.790 246.800 C 246.294 246.800,245.833 246.412,245.600 245.800 C 245.391 245.250,244.945 244.800,244.610 244.800 C 244.274 244.800,244.000 244.513,244.000 244.163 C 244.000 243.812,243.637 243.430,243.193 243.314 C 242.512 243.136,242.403 242.821,242.493 241.292 C 242.582 239.793,242.473 239.463,241.863 239.371 C 240.942 239.232,240.767 239.057,240.632 238.137 C 240.572 237.731,240.316 237.378,240.062 237.350 C 239.808 237.322,239.420 237.278,239.200 237.250 C 238.980 237.222,238.800 236.913,238.800 236.563 C 238.800 236.212,238.440 235.831,238.000 235.716 C 237.560 235.601,237.200 235.253,237.200 234.943 C 237.200 234.634,236.749 234.209,236.197 233.999 C 235.645 233.789,235.217 233.479,235.244 233.309 C 235.389 232.419,235.119 232.000,234.400 232.000 C 233.935 232.000,233.600 231.733,233.600 231.363 C 233.600 231.012,233.240 230.631,232.800 230.516 C 232.360 230.401,232.000 229.971,232.000 229.561 C 232.000 229.099,231.619 228.720,231.000 228.564 C 230.450 228.426,230.000 228.046,230.000 227.719 C 230.000 227.392,229.640 227.031,229.200 226.916 C 228.760 226.801,228.400 226.397,228.400 226.018 C 228.400 225.639,227.949 225.123,227.398 224.872 C 226.846 224.620,226.441 224.191,226.498 223.917 C 226.554 223.643,226.206 223.359,225.725 223.285 C 225.183 223.202,224.802 222.817,224.725 222.275 C 224.656 221.794,224.375 221.378,224.100 221.350 C 222.936 221.234,222.802 221.185,222.847 220.900 C 222.954 220.225,222.782 219.603,222.500 219.647 C 221.595 219.790,221.200 219.505,221.200 218.711 L 221.200 217.822 220.577 218.711 C 220.235 219.200,219.757 219.600,219.515 219.600 C 219.274 219.600,219.414 219.195,219.827 218.700 C 220.241 218.205,220.323 218.025,220.009 218.300 C 219.354 218.875,218.646 218.973,218.974 218.443 C 219.095 218.246,218.746 217.973,218.197 217.835 C 217.649 217.697,217.200 217.408,217.200 217.192 C 217.200 216.738,217.739 216.673,218.145 217.078 C 218.783 217.716,219.498 217.497,219.296 216.725 C 219.168 216.233,218.847 216.005,218.445 216.119 C 216.835 216.577,216.635 216.564,216.618 216.000 C 216.608 215.670,216.330 215.392,216.000 215.382 C 215.436 215.365,215.423 215.165,215.881 213.555 C 215.995 213.153,215.767 212.832,215.275 212.704 C 214.467 212.492,214.345 212.955,214.951 213.927 C 215.132 214.216,215.162 214.571,215.018 214.715 C 214.559 215.175,214.012 213.851,214.006 212.263 C 214.001 211.064,213.823 210.679,213.200 210.516 C 212.291 210.278,212.138 209.115,212.929 208.459 C 213.306 208.146,227.027 207.988,260.347 207.910 L 307.235 207.800 307.461 208.699 C 307.585 209.194,307.583 209.869,307.456 210.199 C 307.301 210.603,307.473 210.800,307.979 210.800 C 308.394 210.800,308.824 210.575,308.935 210.300 C 309.090 209.915,309.144 209.921,309.168 210.324 C 309.186 210.612,309.380 210.736,309.600 210.600 C 310.206 210.225,310.078 208.563,309.400 208.000 C 308.431 207.196,308.669 206.048,309.867 205.747 C 310.684 205.542,311.099 205.682,311.632 206.341 C 312.497 207.408,313.600 207.081,313.600 205.757 C 313.600 205.009,313.387 204.800,312.624 204.800 C 311.130 204.800,311.174 205.529,311.084 179.613 L 311.000 155.200 312.400 155.166 L 313.800 155.131 312.627 154.781 C 311.210 154.357,309.634 152.537,309.614 151.300 C 309.606 150.805,309.420 150.400,309.200 150.400 C 308.980 150.400,308.800 151.049,308.800 151.843 C 308.800 152.994,308.672 153.237,308.167 153.043 C 307.819 152.909,307.459 152.800,307.367 152.800 C 307.275 152.800,307.200 152.530,307.200 152.200 C 307.200 151.870,307.361 151.600,307.557 151.600 C 307.754 151.600,308.010 151.350,308.128 151.044 C 308.284 150.636,308.004 150.503,307.070 150.544 C 305.934 150.594,305.802 150.484,305.816 149.500 L 305.832 148.400 237.910 148.400 C 187.151 148.400,169.802 148.517,169.248 148.863 C 167.065 150.226,167.181 153.148,167.295 99.811 C 167.393 53.984,167.356 50.800,166.723 50.800 C 164.617 50.800,164.618 48.413,166.724 48.368 C 168.250 48.336,168.176 48.241,166.300 47.827 C 165.400 47.629,165.200 47.368,165.200 46.392 C 165.200 45.737,165.037 45.200,164.837 45.200 C 164.638 45.200,164.568 45.557,164.683 45.994 M276.723 278.430 C 276.645 278.666,276.409 278.860,276.200 278.860 C 275.991 278.860,275.755 278.666,275.677 278.430 C 275.598 278.194,275.833 278.000,276.200 278.000 C 276.567 278.000,276.802 278.194,276.723 278.430 M278.268 280.665 C 278.150 280.783,277.842 280.750,277.584 280.590 C 277.236 280.375,277.255 280.213,277.657 279.963 C 278.191 279.631,278.708 280.226,278.268 280.665 M280.146 282.198 C 280.019 282.526,279.755 282.696,279.558 282.574 C 278.993 282.225,279.140 281.600,279.787 281.600 C 280.144 281.600,280.285 281.835,280.146 282.198 M282.000 283.800 C 282.000 284.130,281.831 284.400,281.624 284.400 C 281.119 284.400,280.758 283.775,281.078 283.456 C 281.528 283.005,282.000 283.181,282.000 283.800 M200.000 286.100 C 200.000 286.265,200.315 286.403,200.700 286.406 C 201.298 286.411,201.313 286.469,200.800 286.800 C 200.423 287.044,200.381 287.190,200.686 287.194 C 200.953 287.197,201.354 286.859,201.577 286.443 C 201.926 285.790,201.845 285.694,200.991 285.743 C 200.446 285.774,200.000 285.935,200.000 286.100 M285.600 287.400 C 285.600 287.730,285.431 288.000,285.224 288.000 C 284.719 288.000,284.358 287.375,284.678 287.056 C 285.128 286.605,285.600 286.781,285.600 287.400 M287.200 289.449 C 287.200 289.980,287.091 290.008,286.600 289.600 C 286.270 289.326,286.000 289.034,286.000 288.951 C 286.000 288.868,286.270 288.800,286.600 288.800 C 286.930 288.800,287.200 289.092,287.200 289.449 M289.123 290.830 C 289.045 291.067,288.809 291.260,288.600 291.260 C 288.391 291.260,288.156 291.067,288.077 290.830 C 287.998 290.594,288.233 290.400,288.600 290.400 C 288.967 290.400,289.202 290.594,289.123 290.830 M305.145 331.067 C 304.809 331.471,304.847 331.600,305.302 331.600 C 305.632 331.600,306.101 331.360,306.345 331.067 C 306.680 330.663,306.642 330.533,306.187 330.533 C 305.857 330.533,305.388 330.773,305.145 331.067 M250.400 333.000 C 250.808 333.491,250.780 333.600,250.249 333.600 C 249.892 333.600,249.600 333.330,249.600 333.000 C 249.600 332.670,249.668 332.400,249.751 332.400 C 249.834 332.400,250.126 332.670,250.400 333.000 M254.000 336.600 C 254.000 336.930,253.820 337.200,253.600 337.200 C 253.380 337.200,253.200 336.930,253.200 336.600 C 253.200 336.270,253.380 336.000,253.600 336.000 C 253.820 336.000,254.000 336.270,254.000 336.600 M256.000 338.400 C 256.000 338.620,255.730 338.800,255.400 338.800 C 255.070 338.800,254.800 338.620,254.800 338.400 C 254.800 338.180,255.070 338.000,255.400 338.000 C 255.730 338.000,256.000 338.180,256.000 338.400 M257.600 340.200 C 257.600 340.530,257.420 340.800,257.200 340.800 C 256.980 340.800,256.800 340.530,256.800 340.200 C 256.800 339.870,256.980 339.600,257.200 339.600 C 257.420 339.600,257.600 339.870,257.600 340.200 " stroke="none" fill="#34a434" fill-rule="evenodd"></path><path id="path1" d="M114.967 41.967 C 114.293 42.641,114.953 43.521,116.300 43.743 C 118.240 44.064,157.734 44.077,158.567 43.757 C 159.193 43.517,159.479 42.005,158.900 41.995 C 151.955 41.874,115.083 41.850,114.967 41.967 M166.000 46.153 C 166.000 46.853,166.267 47.158,167.002 47.298 C 167.897 47.469,167.995 47.367,167.917 46.345 C 167.800 44.813,166.000 44.634,166.000 46.153 M311.867 152.267 C 311.186 152.947,311.631 154.000,312.600 154.000 C 313.400 154.000,313.600 153.800,313.600 153.000 C 313.600 152.031,312.547 151.586,311.867 152.267 M169.286 253.138 C 169.003 253.318,168.888 253.764,169.029 254.132 C 169.414 255.136,170.000 254.935,170.000 253.800 C 170.000 252.683,170.001 252.685,169.286 253.138 M272.800 272.200 C 272.800 272.933,273.013 273.200,273.600 273.200 C 274.133 273.200,274.400 273.467,274.400 274.000 C 274.400 274.545,274.667 274.800,275.237 274.800 C 275.725 274.800,276.158 275.119,276.274 275.563 C 276.384 275.983,276.817 276.416,277.237 276.526 C 277.681 276.642,278.000 277.075,278.000 277.563 C 278.000 278.046,278.258 278.400,278.610 278.400 C 278.945 278.400,279.382 278.825,279.579 279.345 C 279.777 279.865,280.312 280.388,280.769 280.508 C 281.226 280.627,281.600 281.012,281.600 281.363 C 281.600 281.713,281.874 282.000,282.210 282.000 C 282.545 282.000,282.991 282.450,283.200 283.000 C 283.409 283.550,283.855 284.000,284.190 284.000 C 284.526 284.000,284.800 284.331,284.800 284.736 C 284.800 285.140,285.250 285.677,285.800 285.927 C 286.350 286.178,286.800 286.636,286.800 286.945 C 286.800 287.254,287.160 287.601,287.600 287.716 C 288.040 287.831,288.400 288.191,288.400 288.516 C 288.400 288.841,288.760 289.201,289.200 289.316 C 289.640 289.431,290.000 289.816,290.000 290.172 C 290.000 290.528,290.450 290.991,291.000 291.200 C 291.550 291.409,292.000 291.855,292.000 292.190 C 292.000 293.013,293.841 292.991,294.159 292.164 C 294.486 291.310,294.119 290.800,293.176 290.800 C 292.615 290.800,292.400 290.523,292.400 289.800 C 292.400 289.067,292.187 288.800,291.600 288.800 C 291.067 288.800,290.800 288.533,290.800 288.000 C 290.800 287.413,290.533 287.200,289.800 287.200 C 289.000 287.200,288.800 287.000,288.800 286.200 C 288.800 285.467,288.587 285.200,288.000 285.200 C 287.467 285.200,287.200 284.933,287.200 284.400 C 287.200 283.819,286.933 283.600,286.228 283.600 C 285.524 283.600,285.220 283.351,285.128 282.700 C 285.047 282.130,284.743 281.820,284.300 281.856 C 283.813 281.894,283.600 281.620,283.600 280.956 C 283.600 280.203,283.388 280.000,282.600 280.000 C 281.867 280.000,281.600 279.787,281.600 279.200 C 281.600 278.667,281.333 278.400,280.800 278.400 C 280.213 278.400,280.000 278.133,280.000 277.400 C 280.000 276.612,279.797 276.400,279.044 276.400 C 278.380 276.400,278.106 276.187,278.144 275.700 C 278.180 275.257,277.870 274.953,277.300 274.872 C 276.515 274.761,276.187 274.148,276.353 273.100 C 276.379 272.935,276.265 272.821,276.100 272.847 C 275.216 272.987,274.800 272.716,274.800 272.000 C 274.800 271.413,274.533 271.200,273.800 271.200 C 273.000 271.200,272.800 271.400,272.800 272.200 M311.672 323.300 C 311.868 324.681,313.600 324.796,313.600 323.428 C 313.600 322.591,313.409 322.400,312.572 322.400 C 311.735 322.400,311.568 322.567,311.672 323.300 M246.400 334.000 C 246.400 334.933,246.578 335.200,247.200 335.200 C 247.733 335.200,248.000 335.467,248.000 336.000 C 248.000 336.592,248.267 336.800,249.024 336.800 C 249.599 336.800,249.940 336.974,249.802 337.197 C 249.536 337.626,250.104 338.894,250.536 338.836 C 251.377 338.722,251.600 338.882,251.600 339.600 C 251.600 340.133,251.867 340.400,252.400 340.400 C 253.118 340.400,253.278 340.623,253.164 341.464 C 253.106 341.896,254.374 342.464,254.803 342.198 C 255.168 341.972,255.378 342.525,255.236 343.334 C 255.204 343.518,255.526 343.760,255.952 343.871 C 256.378 343.983,256.816 344.417,256.926 344.837 C 257.202 345.895,258.800 345.864,258.800 344.800 C 258.800 344.267,258.533 344.000,258.000 344.000 C 257.413 344.000,257.200 343.733,257.200 343.000 C 257.200 342.279,256.985 342.000,256.428 342.000 C 255.932 342.000,255.610 341.678,255.528 341.100 C 255.446 340.522,255.078 340.154,254.500 340.072 C 253.922 339.990,253.600 339.668,253.600 339.172 C 253.600 338.747,253.326 338.400,252.990 338.400 C 252.655 338.400,252.209 337.950,252.000 337.400 C 251.791 336.850,251.345 336.400,251.010 336.400 C 250.674 336.400,250.400 336.151,250.400 335.846 C 250.400 335.541,249.950 334.997,249.400 334.637 C 248.850 334.276,248.400 333.716,248.400 333.391 C 248.400 333.027,248.015 332.800,247.400 332.800 C 246.556 332.800,246.400 332.987,246.400 334.000 M167.744 348.601 C 167.332 349.674,167.957 351.200,168.808 351.200 C 169.465 351.200,169.600 350.928,169.600 349.600 C 169.600 347.921,168.278 347.210,167.744 348.601 M268.300 354.276 C 267.159 354.574,267.376 356.400,268.553 356.400 C 269.504 356.400,270.042 355.511,269.702 354.500 C 269.527 353.982,269.464 353.972,268.300 354.276 M164.400 355.400 C 164.400 356.553,165.749 356.832,166.159 355.764 C 166.486 354.910,166.119 354.400,165.176 354.400 C 164.615 354.400,164.400 354.677,164.400 355.400 M281.334 355.027 C 281.202 355.372,281.279 355.839,281.504 356.064 C 282.169 356.729,283.390 356.265,283.528 355.296 C 283.682 354.212,281.738 353.974,281.334 355.027 M136.473 356.300 C 114.939 356.406,114.746 356.414,114.873 357.214 C 115.068 358.451,160.526 358.508,160.721 357.271 C 160.837 356.536,159.625 355.869,158.600 356.102 C 158.380 356.152,148.423 356.241,136.473 356.300 " stroke="none" fill="#74bf74" fill-rule="evenodd"></path><path id="path2" d="M126.300 41.900 C 132.075 41.962,141.525 41.962,147.300 41.900 C 153.075 41.837,148.350 41.786,136.800 41.786 C 125.250 41.786,120.525 41.837,126.300 41.900 M115.726 44.286 C 116.649 44.799,156.867 45.056,158.167 44.557 C 159.890 43.896,157.183 43.800,136.826 43.800 C 119.375 43.800,115.032 43.900,115.726 44.286 M165.200 46.357 C 165.200 47.540,165.776 48.000,167.256 48.000 C 167.691 48.000,167.936 47.820,167.800 47.600 C 167.664 47.380,167.203 47.200,166.776 47.200 C 166.215 47.200,166.000 46.923,166.000 46.200 C 166.000 45.650,165.820 45.200,165.600 45.200 C 165.380 45.200,165.200 45.721,165.200 46.357 M167.398 51.700 C 167.278 52.195,167.230 74.290,167.290 100.800 L 167.400 149.000 168.400 149.000 L 169.400 149.000 169.502 99.900 L 169.603 50.800 168.609 50.800 C 167.909 50.800,167.551 51.066,167.398 51.700 M305.867 148.667 C 305.453 149.081,305.552 150.323,306.023 150.614 C 306.927 151.173,308.400 150.416,308.400 149.392 C 308.400 148.414,306.627 147.906,305.867 148.667 M309.600 151.338 C 309.600 152.489,311.721 154.800,312.777 154.800 C 313.230 154.800,313.600 154.620,313.600 154.400 C 313.600 154.180,313.139 154.000,312.575 154.000 C 311.593 154.000,311.562 153.928,311.812 152.262 C 312.071 150.535,312.064 150.524,310.836 150.489 C 309.817 150.460,309.600 150.609,309.600 151.338 M238.188 236.020 C 238.040 236.258,238.028 236.561,238.160 236.693 C 238.292 236.825,238.413 236.678,238.428 236.367 C 238.445 236.032,238.597 236.128,238.800 236.600 C 239.080 237.252,239.149 237.275,239.172 236.724 C 239.206 235.894,238.554 235.428,238.188 236.020 M242.680 241.053 C 242.124 241.609,242.389 243.200,243.037 243.200 C 243.388 243.200,243.769 243.560,243.884 244.000 C 243.999 244.440,244.347 244.800,244.657 244.800 C 244.966 244.800,245.391 245.250,245.600 245.800 C 245.833 246.412,246.294 246.800,246.790 246.800 C 247.333 246.800,247.600 247.063,247.600 247.600 C 247.600 248.040,247.867 248.400,248.192 248.400 C 248.518 248.400,248.896 248.844,249.032 249.386 C 249.168 249.928,249.622 250.480,250.040 250.613 C 250.458 250.745,250.800 251.083,250.800 251.363 C 250.800 251.643,251.250 252.077,251.800 252.327 C 252.350 252.578,252.800 253.057,252.800 253.391 C 252.800 253.726,253.068 254.000,253.397 254.000 C 253.725 254.000,254.218 254.360,254.493 254.800 C 254.768 255.240,255.219 255.600,255.496 255.600 C 255.773 255.600,256.000 255.806,256.000 256.057 C 256.000 256.309,257.260 257.735,258.800 259.227 C 260.340 260.719,261.600 262.133,261.600 262.370 C 261.600 262.606,261.798 262.800,262.040 262.800 C 262.445 262.800,264.800 265.066,264.800 265.456 C 264.800 265.550,267.564 268.393,270.942 271.774 C 274.320 275.154,277.194 278.208,277.329 278.560 C 277.464 278.912,277.838 279.200,278.160 279.200 C 278.483 279.200,278.857 279.551,278.994 279.980 C 279.130 280.408,279.572 280.864,279.977 280.993 C 280.382 281.121,280.806 281.581,280.919 282.013 C 281.033 282.446,281.412 282.800,281.763 282.800 C 282.113 282.800,282.400 282.960,282.400 283.156 C 282.400 283.352,284.605 285.752,287.300 288.490 C 292.504 293.778,294.433 294.966,294.368 292.845 C 294.351 292.270,294.246 292.025,294.135 292.300 C 293.841 293.029,292.000 292.935,292.000 292.190 C 292.000 291.855,291.575 291.418,291.055 291.221 C 290.535 291.023,290.012 290.488,289.892 290.031 C 289.773 289.574,289.409 289.200,289.084 289.200 C 288.759 289.200,288.399 288.840,288.284 288.400 C 288.169 287.960,287.788 287.600,287.437 287.600 C 287.087 287.600,286.800 287.326,286.800 286.991 C 286.800 286.657,286.350 286.178,285.800 285.927 C 285.250 285.677,284.800 285.140,284.800 284.736 C 284.800 284.331,284.526 284.000,284.190 284.000 C 283.855 284.000,283.409 283.550,283.200 283.000 C 282.991 282.450,282.545 282.000,282.210 282.000 C 281.874 282.000,281.600 281.726,281.600 281.390 C 281.600 281.055,281.150 280.609,280.600 280.400 C 280.050 280.191,279.600 279.728,279.600 279.372 C 279.600 279.016,279.240 278.631,278.800 278.516 C 278.340 278.396,278.000 277.970,278.000 277.516 C 278.000 277.074,277.663 276.637,277.237 276.526 C 276.817 276.416,276.384 275.983,276.274 275.563 C 276.158 275.119,275.725 274.800,275.237 274.800 C 274.667 274.800,274.400 274.545,274.400 274.000 C 274.400 273.467,274.133 273.200,273.600 273.200 C 272.918 273.200,272.800 272.933,272.800 271.390 C 272.800 269.826,272.664 269.528,271.797 269.199 C 271.245 268.989,270.840 268.593,270.897 268.318 C 270.954 268.044,270.595 267.757,270.100 267.682 C 269.546 267.597,269.200 267.264,269.200 266.816 C 269.200 266.381,268.815 265.990,268.248 265.848 C 267.724 265.716,267.201 265.247,267.085 264.804 C 266.970 264.362,266.588 264.000,266.237 264.000 C 265.867 264.000,265.600 263.665,265.600 263.200 C 265.600 262.667,265.333 262.400,264.800 262.400 C 264.290 262.400,264.000 262.133,264.000 261.664 C 264.000 261.260,263.550 260.723,263.000 260.473 C 262.450 260.222,262.000 259.743,262.000 259.409 C 262.000 259.067,261.649 258.800,261.200 258.800 C 260.655 258.800,260.400 258.533,260.400 257.963 C 260.400 257.466,260.080 257.041,259.613 256.919 C 259.181 256.806,258.718 256.373,258.586 255.957 C 258.454 255.541,257.998 255.200,257.573 255.200 C 257.076 255.200,256.800 254.924,256.800 254.427 C 256.800 254.002,256.459 253.546,256.043 253.414 C 255.627 253.282,255.194 252.819,255.081 252.387 C 254.959 251.920,254.534 251.600,254.037 251.600 C 253.467 251.600,253.200 251.345,253.200 250.800 C 253.200 250.351,252.933 250.000,252.591 250.000 C 252.257 250.000,251.778 249.550,251.527 249.000 C 251.277 248.450,250.740 248.000,250.336 248.000 C 249.676 248.000,249.416 247.568,249.553 246.700 C 249.579 246.535,249.465 246.421,249.300 246.447 C 248.413 246.587,248.000 246.315,248.000 245.590 C 248.000 245.094,247.612 244.633,247.000 244.400 C 246.450 244.191,246.000 243.745,246.000 243.410 C 246.000 243.074,245.653 242.800,245.228 242.800 C 244.733 242.800,244.410 242.478,244.328 241.904 C 244.201 241.017,243.222 240.511,242.680 241.053 M168.600 252.288 C 168.160 252.392,167.669 252.600,167.509 252.750 C 167.109 253.124,167.084 350.044,167.484 350.444 C 167.661 350.621,167.804 350.188,167.803 349.483 C 167.801 348.456,167.980 348.174,168.700 348.072 L 169.600 347.944 169.654 301.472 C 169.684 275.912,169.787 255.405,169.882 255.900 C 169.991 256.463,170.345 256.800,170.828 256.800 C 171.253 256.800,171.600 256.971,171.600 257.179 C 171.600 257.388,172.050 258.044,172.600 258.638 C 173.150 259.231,173.600 259.871,173.600 260.058 C 173.600 260.246,173.960 260.400,174.400 260.400 C 174.933 260.400,175.200 260.667,175.200 261.200 C 175.200 261.718,175.467 262.000,175.957 262.000 C 176.430 262.000,176.807 262.374,176.964 263.000 C 177.126 263.646,177.496 264.000,178.008 264.000 C 178.533 264.000,178.800 264.269,178.800 264.800 C 178.800 265.324,179.067 265.600,179.572 265.600 C 180.060 265.600,180.391 265.921,180.472 266.473 C 180.551 267.014,180.988 267.449,181.619 267.617 C 183.135 268.020,183.310 265.774,181.807 265.203 C 181.253 264.992,180.800 264.545,180.800 264.210 C 180.800 263.874,180.550 263.600,180.243 263.600 C 179.937 263.600,179.577 263.162,179.442 262.627 C 179.308 262.091,178.839 261.539,178.399 261.400 C 177.960 261.260,177.600 260.900,177.600 260.600 C 177.600 260.300,177.240 259.940,176.800 259.800 C 176.360 259.660,176.000 259.397,176.000 259.216 C 176.000 259.034,174.875 257.741,173.500 256.343 C 172.125 254.944,170.820 253.454,170.600 253.032 C 170.148 252.163,169.749 252.015,168.600 252.288 M170.000 253.800 C 170.000 254.935,169.414 255.136,169.029 254.132 C 168.888 253.764,169.003 253.318,169.286 253.138 C 170.001 252.685,170.000 252.683,170.000 253.800 M311.216 322.181 C 310.951 322.500,310.851 323.130,310.994 323.581 C 311.363 324.744,311.927 324.599,311.698 323.400 C 311.533 322.539,311.653 322.400,312.553 322.400 C 313.129 322.400,313.600 322.220,313.600 322.000 C 313.600 321.386,311.760 321.526,311.216 322.181 M247.300 332.687 C 247.905 332.778,248.400 333.107,248.400 333.417 C 248.400 333.728,248.850 334.276,249.400 334.637 C 249.950 334.997,250.400 335.541,250.400 335.846 C 250.400 336.151,250.674 336.400,251.010 336.400 C 251.345 336.400,251.791 336.850,252.000 337.400 C 252.209 337.950,252.655 338.400,252.990 338.400 C 253.326 338.400,253.600 338.747,253.600 339.172 C 253.600 339.668,253.922 339.990,254.500 340.072 C 255.078 340.154,255.446 340.522,255.528 341.100 C 255.610 341.678,255.932 342.000,256.428 342.000 C 256.985 342.000,257.200 342.279,257.200 343.000 C 257.200 343.733,257.413 344.000,258.000 344.000 C 258.647 344.000,258.800 344.267,258.800 345.397 C 258.800 346.360,259.048 346.948,259.600 347.293 C 260.040 347.568,260.400 348.109,260.400 348.496 C 260.400 348.980,260.712 349.200,261.400 349.200 C 262.200 349.200,262.400 349.400,262.400 350.200 C 262.400 350.913,262.616 351.200,263.153 351.200 C 263.574 351.200,264.000 351.559,264.119 352.011 C 264.236 352.458,264.565 352.773,264.851 352.711 C 265.137 352.650,265.554 353.002,265.777 353.492 C 266.301 354.644,266.953 354.874,268.270 354.373 C 269.481 353.913,270.030 354.399,269.704 355.644 C 269.596 356.060,269.708 356.400,269.953 356.400 C 270.438 356.400,270.546 355.247,270.157 354.233 C 270.024 353.885,269.596 353.600,269.206 353.600 C 268.817 353.600,268.274 353.330,268.000 353.000 C 267.726 352.670,267.254 352.400,266.951 352.400 C 266.648 352.400,266.400 352.136,266.400 351.814 C 266.400 351.492,266.040 351.035,265.600 350.800 C 265.160 350.565,264.800 350.180,264.800 349.946 C 264.800 349.712,263.990 348.756,263.000 347.820 C 262.010 346.885,261.200 346.012,261.200 345.879 C 261.200 345.747,259.220 343.633,256.800 341.182 C 254.380 338.731,252.400 336.575,252.400 336.390 C 252.400 336.205,252.040 335.940,251.600 335.800 C 251.160 335.660,250.800 335.300,250.800 335.000 C 250.800 334.700,250.449 334.343,250.020 334.206 C 249.592 334.070,249.130 333.608,248.994 333.180 C 248.810 332.602,248.415 332.416,247.473 332.460 C 246.264 332.517,246.255 332.528,247.300 332.687 M164.700 353.544 C 163.629 354.637,163.197 356.400,164.000 356.400 C 164.220 356.400,164.400 355.947,164.400 355.393 C 164.400 354.458,164.522 354.393,166.100 354.493 C 167.688 354.593,167.808 354.528,167.927 353.500 C 168.105 351.949,166.239 351.974,164.700 353.544 M281.280 354.080 C 280.737 354.623,280.624 356.400,281.132 356.400 C 281.314 356.400,281.449 355.995,281.432 355.500 C 281.407 354.806,281.652 354.571,282.500 354.473 C 283.105 354.404,283.600 354.179,283.600 353.973 C 283.600 353.434,281.846 353.514,281.280 354.080 M115.600 355.802 C 114.715 356.320,117.253 356.385,137.750 356.364 C 155.478 356.345,160.790 356.230,160.430 355.870 C 159.654 355.093,116.922 355.029,115.600 355.802 M277.649 356.111 C 277.402 356.358,277.200 356.884,277.200 357.280 C 277.200 357.781,276.896 358.000,276.200 358.000 C 275.477 358.000,275.200 357.785,275.200 357.224 C 275.200 356.245,274.621 355.876,273.596 356.201 C 271.605 356.833,273.443 358.400,276.176 358.400 C 278.787 358.400,280.051 357.958,279.921 357.089 C 279.774 356.116,278.286 355.474,277.649 356.111 M126.700 358.300 C 132.695 358.362,142.505 358.362,148.500 358.300 C 154.495 358.238,149.590 358.187,137.600 358.187 C 125.610 358.187,120.705 358.238,126.700 358.300 " stroke="none" fill="#5cb45c" fill-rule="evenodd"></path><path id="path3" d="M114.281 44.696 C 114.118 45.508,113.719 46.035,113.124 46.224 C 111.649 46.692,110.078 48.036,109.824 49.047 C 109.683 49.608,109.187 50.088,108.594 50.237 L 107.600 50.487 107.600 200.000 L 107.600 349.513 108.594 349.763 C 109.187 349.912,109.683 350.392,109.824 350.953 C 110.078 351.964,111.649 353.308,113.124 353.776 C 113.707 353.961,114.118 354.490,114.270 355.251 L 114.508 356.438 114.992 355.519 C 115.495 354.566,114.528 353.231,113.318 353.209 C 112.369 353.191,110.656 351.002,110.348 349.412 C 109.939 347.305,109.939 52.695,110.348 50.588 C 110.632 49.123,112.355 46.800,113.157 46.800 C 113.333 46.800,114.024 46.527,114.693 46.193 C 115.745 45.669,118.874 45.603,137.855 45.707 C 160.111 45.830,161.999 45.952,163.562 47.365 C 164.391 48.116,164.800 47.833,164.800 46.509 C 164.800 45.669,164.652 45.575,163.595 45.742 C 162.324 45.942,161.200 45.205,161.200 44.171 C 161.200 43.829,160.800 43.600,160.200 43.600 C 159.467 43.600,159.200 43.813,159.200 44.400 C 159.200 45.190,158.933 45.200,137.187 45.200 L 115.174 45.200 114.852 44.328 C 114.552 43.519,114.511 43.546,114.281 44.696 M165.040 48.735 C 164.926 48.919,165.106 49.459,165.439 49.935 C 166.139 50.934,168.000 51.126,168.000 50.200 C 168.000 49.831,167.625 49.600,167.024 49.600 C 165.522 49.600,165.417 48.873,166.892 48.690 L 168.200 48.528 166.724 48.464 C 165.912 48.429,165.154 48.551,165.040 48.735 M307.900 151.186 C 307.028 152.212,307.017 152.644,307.857 152.967 C 308.743 153.306,308.879 153.096,308.728 151.619 C 308.601 150.372,308.594 150.369,307.900 151.186 M311.084 179.613 C 311.174 205.529,311.130 204.800,312.624 204.800 C 313.865 204.800,313.928 203.719,312.700 203.482 L 311.800 203.309 312.700 203.254 L 313.600 203.200 313.600 179.775 L 313.600 156.350 312.700 156.475 C 312.047 156.566,311.815 156.408,311.856 155.900 C 311.886 155.515,311.706 155.200,311.456 155.200 C 311.119 155.200,311.022 161.570,311.084 179.613 M309.300 205.865 C 308.672 206.118,308.646 207.458,309.262 207.838 C 309.554 208.019,309.615 207.948,309.427 207.644 C 308.941 206.857,309.960 205.950,310.816 206.408 C 311.869 206.972,312.173 206.891,311.600 206.200 C 311.105 205.603,310.255 205.480,309.300 205.865 M259.439 207.900 C 211.749 208.007,212.400 207.983,212.400 209.649 C 212.400 210.379,213.679 210.400,258.963 210.400 C 304.179 210.400,305.519 210.378,305.330 209.655 C 305.210 209.197,305.393 208.812,305.804 208.654 C 306.745 208.293,307.276 208.732,306.989 209.634 C 306.853 210.062,306.934 210.400,307.173 210.400 C 307.641 210.400,307.740 209.231,307.357 208.233 C 307.220 207.876,306.740 207.643,306.257 207.698 C 305.786 207.752,284.718 207.843,259.439 207.900 M214.006 213.185 C 214.015 214.035,214.696 215.037,215.035 214.698 C 215.189 214.545,215.098 214.160,214.835 213.842 C 214.452 213.381,214.501 213.182,215.078 212.854 C 215.728 212.485,215.711 212.450,214.900 212.507 C 214.381 212.544,214.003 212.831,214.006 213.185 M215.121 213.658 C 215.400 214.020,215.577 214.552,215.514 214.840 C 215.451 215.128,215.670 215.372,216.000 215.382 C 216.330 215.392,216.608 215.670,216.618 216.000 C 216.628 216.330,216.872 216.549,217.160 216.486 C 217.448 216.423,217.980 216.600,218.342 216.879 C 218.949 217.347,218.950 217.325,218.361 216.593 C 218.009 216.157,217.610 215.485,217.473 215.100 C 217.337 214.715,217.009 214.400,216.744 214.400 C 216.479 214.400,215.892 214.085,215.438 213.700 C 214.761 213.125,214.704 213.117,215.121 213.658 M219.030 217.067 C 218.835 217.575,218.663 217.623,218.307 217.267 C 217.737 216.697,217.200 216.661,217.200 217.192 C 217.200 217.408,217.649 217.697,218.197 217.835 C 218.746 217.973,219.095 218.246,218.974 218.443 C 218.852 218.639,218.933 218.800,219.153 218.800 C 219.739 218.800,220.077 218.095,219.624 217.815 C 219.410 217.683,219.336 217.310,219.460 216.987 C 219.584 216.664,219.596 216.400,219.486 216.400 C 219.376 216.400,219.170 216.700,219.030 217.067 M219.802 218.798 C 219.403 219.239,219.262 219.600,219.489 219.600 C 219.992 219.600,220.990 218.457,220.721 218.188 C 220.615 218.082,220.202 218.356,219.802 218.798 M275.677 278.430 C 275.755 278.666,275.991 278.860,276.200 278.860 C 276.409 278.860,276.645 278.666,276.723 278.430 C 276.802 278.194,276.567 278.000,276.200 278.000 C 275.833 278.000,275.598 278.194,275.677 278.430 M277.657 279.963 C 277.255 280.213,277.236 280.375,277.584 280.590 C 278.133 280.929,278.545 280.629,278.342 280.038 C 278.258 279.796,277.976 279.765,277.657 279.963 M279.200 281.976 C 279.200 282.647,279.909 282.813,280.146 282.198 C 280.285 281.835,280.144 281.600,279.787 281.600 C 279.464 281.600,279.200 281.769,279.200 281.976 M199.063 283.779 C 198.743 284.615,200.353 286.069,201.275 285.776 C 201.791 285.612,201.932 285.712,201.772 286.130 C 201.640 286.473,201.189 286.646,200.674 286.551 C 200.077 286.442,200.149 286.530,200.900 286.829 C 201.505 287.070,202.000 287.539,202.000 287.871 C 202.000 288.203,202.360 288.569,202.800 288.684 C 203.240 288.799,203.600 289.041,203.600 289.222 C 203.600 289.732,205.964 292.193,206.512 292.254 C 206.780 292.283,207.458 292.328,208.018 292.354 C 208.930 292.395,209.038 292.567,209.046 293.994 C 209.058 296.014,209.834 296.532,211.991 295.957 C 212.359 295.859,212.633 296.138,212.718 296.700 C 212.806 297.275,213.134 297.600,213.628 297.600 C 214.053 297.600,214.400 297.857,214.400 298.172 C 214.400 298.487,214.805 298.802,215.300 298.872 C 215.944 298.964,216.236 299.312,216.327 300.100 C 216.416 300.877,216.680 301.200,217.227 301.200 C 217.652 301.200,218.000 301.470,218.000 301.800 C 218.000 302.136,218.357 302.400,218.810 302.400 C 219.293 302.400,219.765 302.781,219.979 303.345 C 220.177 303.865,220.712 304.388,221.169 304.508 C 221.626 304.627,222.000 305.012,222.000 305.363 C 222.000 305.713,222.274 306.000,222.610 306.000 C 222.945 306.000,223.391 306.450,223.600 307.000 C 223.809 307.550,224.272 308.000,224.628 308.000 C 224.984 308.000,225.369 308.360,225.484 308.800 C 225.599 309.240,225.947 309.600,226.257 309.600 C 226.566 309.600,226.982 310.025,227.179 310.545 C 227.377 311.065,227.912 311.588,228.369 311.708 C 228.826 311.827,229.200 312.191,229.200 312.516 C 229.200 312.841,229.560 313.201,230.000 313.316 C 230.440 313.431,230.800 313.812,230.800 314.163 C 230.800 314.513,231.074 314.800,231.410 314.800 C 231.745 314.800,232.182 315.225,232.379 315.745 C 232.577 316.265,233.112 316.788,233.569 316.908 C 234.026 317.027,234.400 317.391,234.400 317.716 C 234.400 318.041,234.760 318.401,235.200 318.516 C 235.640 318.631,236.000 319.016,236.000 319.372 C 236.000 319.728,236.450 320.191,237.000 320.400 C 237.612 320.633,238.000 321.094,238.000 321.590 C 238.000 322.036,238.249 322.400,238.553 322.400 C 238.858 322.400,239.197 322.745,239.307 323.166 C 239.418 323.589,239.932 323.992,240.454 324.066 C 241.078 324.154,241.443 324.506,241.528 325.100 C 241.598 325.595,241.913 326.000,242.228 326.000 C 242.718 326.000,243.021 327.045,242.842 328.117 C 242.812 328.292,243.151 328.240,243.594 328.003 C 244.395 327.575,244.486 327.650,244.561 328.800 C 244.582 329.130,245.005 329.458,245.500 329.528 C 246.309 329.643,246.649 330.422,246.447 331.700 C 246.390 332.064,247.688 332.094,248.586 331.750 C 249.204 331.513,245.725 327.609,240.844 323.063 C 240.098 322.368,239.288 321.565,239.044 321.279 C 238.709 320.885,222.226 304.356,219.115 301.293 C 217.264 299.471,210.929 293.127,210.600 292.766 C 210.380 292.525,209.570 291.760,208.800 291.067 C 208.030 290.375,206.486 288.861,205.368 287.704 C 204.250 286.547,203.046 285.600,202.691 285.600 C 202.337 285.600,201.941 285.428,201.811 285.217 C 201.681 285.007,201.281 284.948,200.922 285.085 C 200.563 285.223,200.365 285.170,200.483 284.968 C 200.601 284.766,200.383 284.277,199.998 283.882 C 199.389 283.257,199.269 283.244,199.063 283.779 M281.078 283.456 C 280.758 283.775,281.119 284.400,281.624 284.400 C 281.831 284.400,282.000 284.130,282.000 283.800 C 282.000 283.181,281.528 283.005,281.078 283.456 M284.678 287.056 C 284.358 287.375,284.719 288.000,285.224 288.000 C 285.431 288.000,285.600 287.730,285.600 287.400 C 285.600 286.781,285.128 286.605,284.678 287.056 M286.000 288.951 C 286.000 289.034,286.270 289.326,286.600 289.600 C 287.091 290.008,287.200 289.980,287.200 289.449 C 287.200 289.092,286.930 288.800,286.600 288.800 C 286.270 288.800,286.000 288.868,286.000 288.951 M288.077 290.830 C 288.156 291.067,288.391 291.260,288.600 291.260 C 288.809 291.260,289.045 291.067,289.123 290.830 C 289.202 290.594,288.967 290.400,288.600 290.400 C 288.233 290.400,287.998 290.594,288.077 290.830 M291.200 294.145 C 291.200 294.225,295.655 298.764,301.100 304.232 L 311.000 314.173 310.982 317.687 C 310.969 320.137,311.107 321.200,311.437 321.200 C 311.698 321.200,311.886 320.885,311.856 320.500 C 311.820 320.057,312.130 319.753,312.700 319.672 C 313.977 319.491,314.100 314.800,312.828 314.800 C 312.333 314.800,312.010 314.478,311.928 313.904 C 311.856 313.398,311.321 312.778,310.700 312.482 C 310.057 312.175,309.600 311.633,309.600 311.178 C 309.600 310.750,309.330 310.400,309.000 310.400 C 308.670 310.400,308.400 310.126,308.400 309.790 C 308.400 309.455,307.975 309.018,307.455 308.821 C 306.935 308.623,306.412 308.088,306.292 307.631 C 306.173 307.174,305.767 306.800,305.391 306.800 C 304.895 306.800,304.755 306.550,304.881 305.890 C 305.026 305.132,304.882 304.981,304.027 304.990 C 303.186 304.998,303.002 304.814,303.010 303.973 C 303.019 303.118,302.868 302.974,302.110 303.119 C 301.462 303.243,301.200 303.104,301.200 302.637 C 301.200 302.276,300.750 301.809,300.200 301.600 C 299.650 301.391,299.200 300.928,299.200 300.572 C 299.200 300.216,298.857 299.835,298.437 299.726 C 298.017 299.616,297.584 299.183,297.474 298.763 C 297.365 298.343,297.009 298.000,296.684 298.000 C 296.359 298.000,295.996 297.627,295.876 297.170 C 295.757 296.714,295.286 296.243,294.830 296.124 C 294.373 296.004,294.000 295.653,294.000 295.343 C 294.000 295.034,293.538 294.605,292.974 294.390 C 291.919 293.989,291.200 293.890,291.200 294.145 M237.149 323.078 C 237.399 323.560,237.795 324.073,238.029 324.218 C 238.825 324.710,238.645 324.202,237.668 323.200 C 236.785 322.294,236.736 322.283,237.149 323.078 M306.400 328.000 C 306.021 328.245,305.979 328.390,306.287 328.394 C 306.556 328.397,306.671 328.670,306.545 329.000 C 306.418 329.330,306.004 329.600,305.624 329.600 C 305.244 329.600,304.809 329.725,304.656 329.877 C 304.504 330.029,304.031 330.207,303.606 330.272 C 302.989 330.366,288.984 344.081,282.866 350.582 C 282.133 351.362,281.368 352.000,281.166 352.000 C 280.965 352.000,280.800 352.270,280.800 352.600 C 280.800 353.032,281.219 353.191,282.300 353.168 C 283.125 353.151,283.584 353.049,283.321 352.942 C 282.628 352.660,283.491 350.922,284.449 350.671 C 284.862 350.563,285.200 350.188,285.200 349.837 C 285.200 349.487,285.470 349.200,285.800 349.200 C 286.130 349.200,286.400 348.876,286.400 348.480 C 286.400 348.084,286.616 347.544,286.880 347.280 C 287.144 347.016,287.684 346.800,288.080 346.800 C 288.476 346.800,288.800 346.530,288.800 346.200 C 288.800 345.870,289.070 345.600,289.400 345.600 C 289.730 345.600,290.000 345.324,290.000 344.987 C 290.000 344.301,292.542 341.600,293.187 341.600 C 293.414 341.600,293.600 341.414,293.600 341.187 C 293.600 340.542,296.301 338.000,296.987 338.000 C 297.324 338.000,297.600 337.730,297.600 337.400 C 297.600 337.070,297.870 336.800,298.200 336.800 C 298.530 336.800,298.800 336.476,298.800 336.080 C 298.800 334.684,300.881 333.707,301.315 334.900 C 301.737 336.058,303.005 334.557,302.883 333.046 C 302.779 331.763,302.871 331.600,303.703 331.600 C 304.218 331.600,304.865 331.375,305.140 331.100 C 305.415 330.825,305.856 330.600,306.120 330.600 C 306.384 330.600,306.602 330.330,306.604 330.000 C 306.607 329.618,306.919 329.443,307.463 329.518 C 308.078 329.603,308.301 329.435,308.259 328.918 C 308.162 327.736,307.395 327.357,306.400 328.000 M249.600 333.000 C 249.600 333.330,249.892 333.600,250.249 333.600 C 250.780 333.600,250.808 333.491,250.400 333.000 C 250.126 332.670,249.834 332.400,249.751 332.400 C 249.668 332.400,249.600 332.670,249.600 333.000 M253.200 336.600 C 253.200 336.930,253.380 337.200,253.600 337.200 C 253.820 337.200,254.000 336.930,254.000 336.600 C 254.000 336.270,253.820 336.000,253.600 336.000 C 253.380 336.000,253.200 336.270,253.200 336.600 M254.800 338.400 C 254.800 338.620,255.070 338.800,255.400 338.800 C 255.730 338.800,256.000 338.620,256.000 338.400 C 256.000 338.180,255.730 338.000,255.400 338.000 C 255.070 338.000,254.800 338.180,254.800 338.400 M256.800 340.200 C 256.800 340.530,256.980 340.800,257.200 340.800 C 257.420 340.800,257.600 340.530,257.600 340.200 C 257.600 339.870,257.420 339.600,257.200 339.600 C 256.980 339.600,256.800 339.870,256.800 340.200 M165.439 350.065 C 164.640 351.207,164.949 351.600,166.647 351.600 C 167.417 351.600,167.951 351.444,167.833 351.254 C 167.715 351.063,167.138 350.999,166.550 351.112 C 165.803 351.254,165.568 351.176,165.768 350.851 C 165.926 350.596,166.206 350.480,166.390 350.594 C 166.575 350.708,166.631 350.441,166.516 350.001 C 166.254 348.998,166.184 349.003,165.439 350.065 M160.818 353.915 C 159.221 354.458,159.128 354.556,159.918 354.848 C 160.403 355.027,160.800 355.450,160.800 355.787 C 160.800 356.124,160.980 356.400,161.200 356.400 C 161.420 356.400,161.600 355.969,161.600 355.443 C 161.600 353.905,162.722 353.801,162.912 355.322 C 163.069 356.573,163.073 356.569,163.136 355.124 C 163.216 353.272,163.014 353.167,160.818 353.915 M270.800 353.929 C 270.800 354.141,271.070 354.418,271.400 354.545 C 271.730 354.671,272.000 355.141,272.000 355.587 C 272.000 356.034,272.191 356.400,272.425 356.400 C 273.335 356.400,272.645 353.806,271.700 353.672 C 271.205 353.602,270.800 353.718,270.800 353.929 M278.672 354.157 C 278.554 354.464,278.895 355.125,279.429 355.627 L 280.400 356.539 280.400 355.070 C 280.400 353.543,279.159 352.887,278.672 354.157 " stroke="none" fill="#29a424" fill-rule="evenodd"></path><path id="path4" d="M111.128 44.500 C 111.044 45.091,110.725 45.400,110.200 45.400 C 109.667 45.400,109.400 45.667,109.400 46.200 C 109.400 46.725,109.091 47.044,108.500 47.128 C 107.419 47.281,107.105 50.400,108.171 50.400 C 108.874 50.400,110.000 49.321,110.000 48.647 C 110.000 48.117,112.106 46.400,112.755 46.400 C 113.414 46.400,114.400 45.183,114.400 44.371 C 114.400 43.131,111.305 43.253,111.128 44.500 M161.200 44.171 C 161.200 45.018,162.286 45.950,163.094 45.796 C 163.482 45.722,163.935 45.647,164.100 45.631 C 165.456 45.492,164.244 43.600,162.800 43.600 C 161.680 43.600,161.200 43.771,161.200 44.171 M165.800 49.200 C 165.936 49.420,166.487 49.600,167.024 49.600 C 167.561 49.600,168.000 49.420,168.000 49.200 C 168.000 48.980,167.449 48.800,166.776 48.800 C 166.063 48.800,165.656 48.967,165.800 49.200 M311.800 155.600 C 311.664 155.820,311.654 156.163,311.777 156.362 C 312.107 156.897,313.600 156.398,313.600 155.753 C 313.600 155.120,312.172 154.998,311.800 155.600 M309.603 206.597 C 308.914 207.427,309.793 208.800,311.014 208.800 C 311.781 208.800,312.000 208.592,312.000 207.864 C 312.000 206.659,310.298 205.759,309.603 206.597 M305.642 208.766 C 305.335 208.960,305.194 209.407,305.329 209.760 C 305.554 210.344,301.592 210.400,259.625 210.400 L 213.675 210.400 213.921 211.300 C 214.122 212.032,214.195 212.069,214.313 211.500 C 214.451 210.838,216.985 210.800,260.748 210.800 L 307.037 210.800 307.019 209.733 C 306.998 208.565,306.506 208.219,305.642 208.766 M207.182 293.177 C 207.553 294.574,208.980 294.784,209.055 293.453 C 209.099 292.677,208.886 292.445,208.011 292.316 C 207.002 292.168,206.933 292.240,207.182 293.177 M293.100 294.412 C 293.595 294.611,294.000 295.029,294.000 295.340 C 294.000 295.652,294.373 296.004,294.830 296.124 C 295.286 296.243,295.753 296.697,295.867 297.133 C 295.981 297.569,296.417 298.016,296.837 298.126 C 297.257 298.235,297.600 298.612,297.600 298.963 C 297.600 299.313,297.874 299.600,298.210 299.600 C 298.545 299.600,298.982 300.025,299.179 300.545 C 299.377 301.065,299.912 301.588,300.369 301.708 C 300.826 301.827,301.200 302.224,301.200 302.590 C 301.200 303.671,302.896 303.185,303.066 302.056 C 303.176 301.324,303.064 301.167,302.567 301.357 C 302.152 301.517,301.484 301.144,300.678 300.302 C 299.471 299.041,299.357 298.857,299.250 298.000 C 299.223 297.780,298.756 297.600,298.213 297.600 C 297.482 297.600,297.287 297.437,297.465 296.976 C 297.623 296.564,297.427 296.280,296.889 296.139 C 296.441 296.022,295.978 295.559,295.861 295.111 C 295.720 294.573,295.436 294.377,295.024 294.535 C 294.681 294.667,294.400 294.601,294.400 294.387 C 294.400 294.174,293.905 294.011,293.300 294.025 C 292.243 294.050,292.235 294.065,293.100 294.412 M211.491 296.053 C 210.547 296.582,210.618 297.600,211.600 297.600 C 212.040 297.600,212.400 297.793,212.400 298.029 C 212.400 298.264,212.657 298.714,212.971 299.029 C 213.286 299.343,213.736 299.600,213.971 299.600 C 214.207 299.600,214.400 299.960,214.400 300.400 C 214.400 300.844,214.667 301.200,215.000 301.200 C 215.705 301.200,217.240 302.627,216.900 302.967 C 216.772 303.095,216.856 303.200,217.087 303.200 C 217.318 303.200,217.601 303.560,217.716 304.000 C 217.841 304.479,218.262 304.800,218.763 304.800 C 219.395 304.800,219.600 305.051,219.600 305.825 C 219.600 306.659,219.768 306.827,220.500 306.725 C 221.232 306.623,221.377 306.768,221.275 307.500 C 221.173 308.232,221.341 308.400,222.175 308.400 C 222.949 308.400,223.200 308.605,223.200 309.237 C 223.200 309.738,223.521 310.159,224.000 310.284 C 224.443 310.400,224.800 310.830,224.800 311.247 C 224.800 311.661,224.935 311.979,225.100 311.953 C 226.179 311.782,226.800 312.092,226.800 312.800 C 226.800 313.333,227.067 313.600,227.600 313.600 C 228.308 313.600,228.618 314.221,228.447 315.300 C 228.421 315.465,228.535 315.579,228.700 315.553 C 229.779 315.382,230.400 315.692,230.400 316.400 C 230.400 316.933,230.667 317.200,231.200 317.200 C 231.908 317.200,232.218 317.821,232.047 318.900 C 232.021 319.065,232.339 319.200,232.753 319.200 C 233.170 319.200,233.600 319.557,233.716 320.000 C 233.841 320.479,234.262 320.800,234.763 320.800 C 235.395 320.800,235.600 321.051,235.600 321.825 C 235.600 322.659,235.768 322.827,236.500 322.725 C 237.223 322.625,237.382 322.775,237.306 323.494 C 237.231 324.204,237.396 324.369,238.104 324.294 C 238.773 324.224,239.031 324.438,239.133 325.146 C 239.207 325.668,239.612 326.183,240.034 326.293 C 240.455 326.403,240.800 326.663,240.800 326.870 C 240.800 327.078,240.961 327.148,241.158 327.026 C 241.355 326.904,241.619 327.074,241.746 327.402 C 242.147 328.447,243.110 328.111,242.898 327.000 C 242.793 326.450,242.470 326.000,242.181 326.000 C 241.892 326.000,241.598 325.595,241.528 325.100 C 241.443 324.506,241.078 324.154,240.454 324.066 C 239.932 323.992,239.418 323.589,239.307 323.166 C 239.197 322.745,238.858 322.400,238.553 322.400 C 238.249 322.400,238.000 322.036,238.000 321.590 C 238.000 321.107,237.619 320.635,237.055 320.421 C 236.535 320.223,236.012 319.688,235.892 319.231 C 235.773 318.774,235.388 318.400,235.037 318.400 C 234.687 318.400,234.400 318.126,234.400 317.790 C 234.400 317.455,233.975 317.018,233.455 316.821 C 232.935 316.623,232.412 316.088,232.292 315.631 C 232.173 315.174,231.788 314.800,231.437 314.800 C 231.087 314.800,230.800 314.513,230.800 314.163 C 230.800 313.812,230.440 313.431,230.000 313.316 C 229.560 313.201,229.200 312.853,229.200 312.543 C 229.200 312.234,228.775 311.818,228.255 311.621 C 227.735 311.423,227.212 310.888,227.092 310.431 C 226.973 309.974,226.609 309.600,226.284 309.600 C 225.959 309.600,225.599 309.240,225.484 308.800 C 225.369 308.360,224.984 308.000,224.628 308.000 C 224.272 308.000,223.809 307.550,223.600 307.000 C 223.391 306.450,222.945 306.000,222.610 306.000 C 222.274 306.000,222.000 305.726,222.000 305.390 C 222.000 305.055,221.575 304.618,221.055 304.421 C 220.535 304.223,220.012 303.688,219.892 303.231 C 219.759 302.723,219.349 302.400,218.837 302.400 C 218.360 302.400,218.000 302.142,218.000 301.800 C 218.000 301.470,217.652 301.200,217.227 301.200 C 216.680 301.200,216.416 300.877,216.327 300.100 C 216.236 299.312,215.944 298.964,215.300 298.872 C 214.805 298.802,214.400 298.487,214.400 298.172 C 214.400 297.857,214.040 297.600,213.600 297.600 C 213.075 297.600,212.800 297.333,212.800 296.824 C 212.800 295.826,212.360 295.567,211.491 296.053 M302.872 304.100 C 302.954 304.678,303.322 305.046,303.900 305.128 C 304.889 305.268,305.118 304.478,304.320 303.680 C 303.522 302.882,302.732 303.111,302.872 304.100 M304.980 305.153 C 304.542 305.591,304.858 306.800,305.410 306.800 C 305.745 306.800,306.191 307.250,306.400 307.800 C 306.609 308.350,307.072 308.800,307.428 308.800 C 307.784 308.800,308.169 309.160,308.284 309.600 C 308.399 310.040,308.742 310.400,309.047 310.400 C 309.351 310.400,309.600 310.750,309.600 311.178 C 309.600 311.633,310.057 312.175,310.700 312.482 C 311.321 312.778,311.856 313.398,311.928 313.904 C 312.008 314.466,312.334 314.800,312.801 314.800 C 313.825 314.800,313.802 312.378,312.775 312.109 C 312.389 312.008,311.984 311.583,311.874 311.163 C 311.765 310.743,311.388 310.400,311.037 310.400 C 310.667 310.400,310.400 310.065,310.400 309.600 C 310.400 309.160,310.220 308.778,310.000 308.750 C 309.143 308.643,308.959 308.529,307.698 307.322 C 306.890 306.548,306.486 305.842,306.632 305.460 C 306.853 304.886,305.499 304.634,304.980 305.153 M311.800 320.000 C 311.431 320.598,311.945 321.200,312.824 321.200 C 313.333 321.200,313.600 320.925,313.600 320.400 C 313.600 319.552,312.261 319.254,311.800 320.000 M243.491 328.053 C 242.547 328.582,242.618 329.600,243.600 329.600 C 244.040 329.600,244.400 329.793,244.400 330.029 C 244.400 330.644,245.444 331.600,246.116 331.600 C 247.074 331.600,246.461 329.665,245.458 329.522 C 244.913 329.445,244.640 329.156,244.711 328.730 C 244.856 327.851,244.352 327.571,243.491 328.053 M302.800 332.400 C 302.800 333.373,304.197 333.506,304.557 332.567 C 304.915 331.634,304.889 331.600,303.800 331.600 C 303.067 331.600,302.800 331.813,302.800 332.400 M299.280 334.880 C 299.016 335.144,298.800 335.684,298.800 336.080 C 298.800 336.476,298.530 336.800,298.200 336.800 C 297.870 336.800,297.600 337.070,297.600 337.400 C 297.600 337.730,297.324 338.000,296.987 338.000 C 296.301 338.000,293.600 340.542,293.600 341.187 C 293.600 341.414,293.414 341.600,293.187 341.600 C 292.542 341.600,290.000 344.301,290.000 344.987 C 290.000 345.324,289.730 345.600,289.400 345.600 C 289.070 345.600,288.800 345.870,288.800 346.200 C 288.800 346.530,288.476 346.800,288.080 346.800 C 287.684 346.800,287.144 347.016,286.880 347.280 C 286.616 347.544,286.400 348.084,286.400 348.480 C 286.400 348.876,286.151 349.200,285.847 349.200 C 285.542 349.200,285.199 349.560,285.084 350.000 C 284.969 350.440,284.617 350.800,284.302 350.800 C 283.986 350.800,283.523 351.250,283.273 351.800 C 282.905 352.607,282.925 352.800,283.376 352.800 C 284.456 352.800,285.200 352.307,285.200 351.592 C 285.200 351.072,285.462 350.899,286.138 350.973 C 286.909 351.058,287.058 350.909,286.973 350.138 C 286.897 349.441,287.070 349.200,287.645 349.200 C 288.099 349.200,288.574 348.794,288.793 348.220 C 289.061 347.514,289.400 347.285,290.004 347.401 C 290.681 347.531,290.794 347.412,290.594 346.781 C 290.407 346.192,290.598 345.905,291.373 345.610 C 291.938 345.395,292.400 344.965,292.400 344.653 C 292.400 344.342,292.850 343.974,293.400 343.836 C 293.950 343.698,294.400 343.318,294.400 342.992 C 294.400 342.667,294.667 342.400,294.992 342.400 C 295.318 342.400,295.698 341.950,295.836 341.400 C 295.974 340.850,296.342 340.400,296.653 340.400 C 296.965 340.400,297.395 339.938,297.610 339.373 C 297.905 338.598,298.192 338.407,298.781 338.594 C 299.412 338.794,299.531 338.681,299.401 338.004 C 299.285 337.400,299.514 337.061,300.220 336.793 C 300.903 336.533,301.200 336.114,301.200 335.410 C 301.200 334.306,300.145 334.015,299.280 334.880 M107.600 351.172 C 107.600 352.498,107.741 352.764,108.500 352.872 C 109.091 352.956,109.400 353.275,109.400 353.800 C 109.400 354.333,109.667 354.600,110.200 354.600 C 110.725 354.600,111.044 354.909,111.128 355.500 C 111.305 356.747,114.400 356.869,114.400 355.629 C 114.400 354.817,113.414 353.600,112.755 353.600 C 112.106 353.600,110.000 351.883,110.000 351.353 C 110.000 350.679,108.874 349.600,108.171 349.600 C 107.773 349.600,107.600 350.076,107.600 351.172 M162.100 354.265 C 161.378 354.556,161.464 356.400,162.200 356.400 C 162.600 356.400,162.800 356.000,162.800 355.200 C 162.800 354.540,162.755 354.014,162.700 354.032 C 162.645 354.049,162.375 354.154,162.100 354.265 M270.800 355.367 C 270.800 356.039,271.019 356.400,271.428 356.400 C 271.845 356.400,272.013 356.108,271.928 355.531 C 271.739 354.251,270.800 354.114,270.800 355.367 " stroke="none" fill="#18a018" fill-rule="evenodd"></path></g></svg>