<svg version="1.1" id="Layer_1" xmlns="http://www.w3.org/2000/svg" xmlns:xlink="http://www.w3.org/1999/xlink" x="0px" y="0px"
	 width="100%" viewBox="0 0 512 512" enable-background="new 0 0 512 512" xml:space="preserve">
<path fill="#EA1B15" opacity="1.000000" stroke="none" 
	d="
M239.000000,513.000000 
	C159.352646,513.000000 80.205292,513.000000 1.028970,513.000000 
	C1.028970,342.394287 1.028970,171.788574 1.028970,1.091425 
	C171.564041,1.091425 342.128143,1.091425 512.846130,1.091425 
	C512.846130,171.666565 512.846130,342.333252 512.846130,513.000000 
	C421.788544,513.000000 330.644257,513.000000 239.000000,513.000000 
M359.830109,209.002014 
	C366.161438,209.001907 372.494598,208.908630 378.823395,209.034805 
	C382.967194,209.117401 385.026031,207.431747 385.018860,203.166306 
	C384.980591,180.338959 384.985718,157.511490 385.014404,134.684113 
	C385.019409,130.717575 383.187958,128.960968 379.210907,128.973984 
	C356.384125,129.048737 333.557037,129.073822 310.730133,129.042953 
	C306.712494,129.037521 304.952728,130.876907 304.984833,134.808838 
	C305.037872,141.306702 304.968903,147.805511 305.007141,154.303604 
	C305.039581,159.813583 306.209930,160.961227 311.793396,160.994202 
	C317.679199,161.028976 323.565399,161.001999 329.451416,161.001999 
	C329.667969,161.455475 329.884521,161.908951 330.101074,162.362442 
	C328.903320,163.237549 327.590942,163.992050 326.524689,165.005524 
	C304.554443,185.887924 282.621307,206.809326 260.662598,227.703873 
	C217.589417,268.689667 174.493179,309.651276 131.483841,350.703918 
	C130.212860,351.917053 129.164062,354.016235 129.108688,355.737579 
	C128.857056,363.560791 129.043365,371.397034 128.980484,379.227814 
	C128.948746,383.178802 130.740326,385.022156 134.718185,385.017639 
	C162.877518,384.985687 191.036926,384.979492 219.196228,385.023682 
	C223.510742,385.030457 225.109344,382.915375 225.031952,378.811920 
	C224.915726,372.649048 225.015961,366.482330 224.998138,360.317291 
	C224.979858,353.993744 224.032028,353.012543 217.844971,353.003479 
	C205.348236,352.985138 192.851456,353.006622 180.354721,352.985718 
	C178.970367,352.983398 177.586288,352.812469 175.467514,352.670532 
	C234.824936,296.193665 293.572937,240.296616 352.998413,183.754959 
	C352.998413,190.939026 353.081696,196.933182 352.969818,202.923691 
	C352.891968,207.092072 354.662201,209.195480 359.830109,209.002014 
M272.422119,131.429840 
	C270.571899,130.619659 268.723816,129.107773 266.871155,129.102173 
	C223.066940,128.969589 179.262192,129.024658 135.457672,128.960022 
	C131.050797,128.953522 129.036407,130.732986 129.046432,135.172592 
	C129.097229,157.657745 129.108932,180.143188 129.038223,202.628220 
	C129.023315,207.368973 131.229187,209.171738 135.803223,209.041245 
	C141.627991,208.875046 147.461105,209.008728 153.290604,208.999100 
	C160.249619,208.987610 160.994400,208.244247 160.998718,201.256866 
	C161.006912,187.979523 161.001083,174.702179 161.001083,161.001083 
	C173.388870,161.001083 185.336426,161.008713 197.283966,160.999435 
	C220.268387,160.981583 243.252853,160.967728 266.237213,160.920944 
	C271.861603,160.909500 272.985016,159.799866 272.985077,154.199783 
	C272.985168,146.875854 272.870941,139.551941 272.422119,131.429840 
M283.500000,385.001068 
	C314.967621,385.001068 346.435211,385.007721 377.902832,384.994995 
	C383.696991,384.992645 384.977112,383.884247 384.985443,378.613312 
	C385.021240,355.970032 384.954437,333.326447 385.041046,310.683441 
	C385.057434,306.407135 383.187469,304.632019 379.037018,304.680389 
	C372.378143,304.758057 365.716034,304.790131 359.058411,304.670135 
	C354.513733,304.588226 352.910339,306.762604 352.954529,311.117279 
	C353.081146,323.603149 353.007324,336.091095 352.987427,348.578217 
	C352.985138,350.003540 352.825134,351.428589 352.729431,352.998932 
	C350.483124,352.998932 348.662262,352.998932 346.841431,352.998932 
	C319.369720,352.998932 291.898010,352.993286 264.426300,353.003082 
	C257.923584,353.005402 257.014374,353.945160 257.001526,360.554901 
	C256.989563,366.715179 257.074677,372.876801 256.973358,379.035431 
	C256.903839,383.259064 258.829071,385.095703 263.020538,385.028229 
	C269.512146,384.923737 276.006714,385.000916 283.500000,385.001068 
z"/>
<path fill="#FFFEFE" opacity="1.000000" stroke="none" 
	d="
M359.372253,209.001770 
	C354.662201,209.195480 352.891968,207.092072 352.969818,202.923691 
	C353.081696,196.933182 352.998413,190.939026 352.998413,183.754959 
	C293.572937,240.296616 234.824936,296.193665 175.467514,352.670532 
	C177.586288,352.812469 178.970367,352.983398 180.354721,352.985718 
	C192.851456,353.006622 205.348236,352.985138 217.844971,353.003479 
	C224.032028,353.012543 224.979858,353.993744 224.998138,360.317291 
	C225.015961,366.482330 224.915726,372.649048 225.031952,378.811920 
	C225.109344,382.915375 223.510742,385.030457 219.196228,385.023682 
	C191.036926,384.979492 162.877518,384.985687 134.718185,385.017639 
	C130.740326,385.022156 128.948746,383.178802 128.980484,379.227814 
	C129.043365,371.397034 128.857056,363.560791 129.108688,355.737579 
	C129.164062,354.016235 130.212860,351.917053 131.483841,350.703918 
	C174.493179,309.651276 217.589417,268.689667 260.662598,227.703873 
	C282.621307,206.809326 304.554443,185.887924 326.524689,165.005524 
	C327.590942,163.992050 328.903320,163.237549 330.101074,162.362442 
	C329.884521,161.908951 329.667969,161.455475 329.451416,161.001999 
	C323.565399,161.001999 317.679199,161.028976 311.793396,160.994202 
	C306.209930,160.961227 305.039581,159.813583 305.007141,154.303604 
	C304.968903,147.805511 305.037872,141.306702 304.984833,134.808838 
	C304.952728,130.876907 306.712494,129.037521 310.730133,129.042953 
	C333.557037,129.073822 356.384125,129.048737 379.210907,128.973984 
	C383.187958,128.960968 385.019409,130.717575 385.014404,134.684113 
	C384.985718,157.511490 384.980591,180.338959 385.018860,203.166306 
	C385.026031,207.431747 382.967194,209.117401 378.823395,209.034805 
	C372.494598,208.908630 366.161438,209.001907 359.372253,209.001770 
z"/>
<path fill="#FFFEFE" opacity="1.000000" stroke="none" 
	d="
M272.614014,131.828918 
	C272.870941,139.551941 272.985168,146.875854 272.985077,154.199783 
	C272.985016,159.799866 271.861603,160.909500 266.237213,160.920944 
	C243.252853,160.967728 220.268387,160.981583 197.283966,160.999435 
	C185.336426,161.008713 173.388870,161.001083 161.001083,161.001083 
	C161.001083,174.702179 161.006912,187.979523 160.998718,201.256866 
	C160.994400,208.244247 160.249619,208.987610 153.290604,208.999100 
	C147.461105,209.008728 141.627991,208.875046 135.803223,209.041245 
	C131.229187,209.171738 129.023315,207.368973 129.038223,202.628220 
	C129.108932,180.143188 129.097229,157.657745 129.046432,135.172592 
	C129.036407,130.732986 131.050797,128.953522 135.457672,128.960022 
	C179.262192,129.024658 223.066940,128.969589 266.871155,129.102173 
	C268.723816,129.107773 270.571899,130.619659 272.614014,131.828918 
z"/>
<path fill="#FFFEFE" opacity="1.000000" stroke="none" 
	d="
M283.000000,385.001068 
	C276.006714,385.000916 269.512146,384.923737 263.020538,385.028229 
	C258.829071,385.095703 256.903839,383.259064 256.973358,379.035431 
	C257.074677,372.876801 256.989563,366.715179 257.001526,360.554901 
	C257.014374,353.945160 257.923584,353.005402 264.426300,353.003082 
	C291.898010,352.993286 319.369720,352.998932 346.841431,352.998932 
	C348.662262,352.998932 350.483124,352.998932 352.729431,352.998932 
	C352.825134,351.428589 352.985138,350.003540 352.987427,348.578217 
	C353.007324,336.091095 353.081146,323.603149 352.954529,311.117279 
	C352.910339,306.762604 354.513733,304.588226 359.058411,304.670135 
	C365.716034,304.790131 372.378143,304.758057 379.037018,304.680389 
	C383.187469,304.632019 385.057434,306.407135 385.041046,310.683441 
	C384.954437,333.326447 385.021240,355.970032 384.985443,378.613312 
	C384.977112,383.884247 383.696991,384.992645 377.902832,384.994995 
	C346.435211,385.007721 314.967621,385.001068 283.000000,385.001068 
z"/>
</svg>