<svg id="svg" version="1.1" xmlns="http://www.w3.org/2000/svg" xmlns:xlink="http://www.w3.org/1999/xlink" width="400" height="400" viewBox="0, 0, 400,400"><g id="svgg"><path id="path0" d="M163.200 48.815 C 162.650 48.973,161.390 49.329,160.400 49.606 C 157.127 50.520,156.237 50.791,151.980 52.173 C 148.130 53.422,145.538 54.336,143.400 55.196 C 107.589 69.611,79.052 95.465,61.717 129.200 C 59.078 134.337,57.189 138.450,55.196 143.400 C 53.953 146.489,51.470 153.864,50.415 157.600 C 50.136 158.590,49.760 159.850,49.581 160.400 C 48.601 163.402,46.876 171.723,45.973 177.800 C 44.709 186.307,44.419 191.032,44.499 201.800 L 44.582 213.000 44.800 201.400 C 44.942 193.837,45.056 191.749,45.126 195.400 C 45.262 202.410,45.911 212.915,46.438 216.600 C 46.658 218.140,46.936 220.452,47.056 221.737 C 47.256 223.870,47.348 224.055,48.117 223.854 C 48.580 223.733,49.148 223.782,49.379 223.963 C 50.210 224.612,53.145 224.748,53.633 224.160 C 54.232 223.439,54.785 223.454,56.350 224.235 C 57.289 224.703,57.909 224.771,58.712 224.493 C 61.045 223.684,61.417 224.462,59.631 226.416 C 56.027 230.358,58.348 228.560,64.100 222.952 C 75.264 212.070,90.168 197.405,90.464 197.012 C 90.626 196.797,90.900 196.777,91.078 196.966 C 91.255 197.155,91.140 197.402,90.821 197.514 C 90.503 197.627,88.433 199.593,86.221 201.883 C 75.224 213.270,49.511 238.792,49.218 238.611 C 49.035 238.498,48.785 237.729,48.663 236.903 C 48.541 236.076,48.244 234.410,48.005 233.200 C 46.580 226.014,46.005 221.986,45.748 217.400 C 45.636 215.420,45.357 213.620,45.126 213.400 C 44.249 212.564,45.751 224.738,47.617 233.600 C 47.872 234.810,48.221 236.489,48.393 237.332 C 48.564 238.175,48.869 239.029,49.070 239.230 C 49.291 239.451,62.968 226.041,83.618 205.357 C 102.418 186.526,118.430 170.621,119.200 170.013 C 124.652 165.705,134.160 164.103,141.000 166.339 C 146.688 168.198,147.819 169.149,165.800 187.202 C 183.101 204.571,187.600 208.698,187.600 207.200 C 187.600 206.980,187.375 206.797,187.100 206.793 C 185.993 206.777,163.201 184.666,163.738 184.129 C 163.867 184.000,168.344 188.224,173.686 193.517 C 184.217 203.949,185.198 204.860,186.761 205.664 C 187.332 205.958,187.890 206.289,188.000 206.400 C 188.110 206.511,188.740 206.847,189.400 207.147 C 190.060 207.448,190.913 207.852,191.295 208.047 C 191.677 208.241,192.442 208.400,192.995 208.400 C 193.548 208.400,194.000 208.580,194.000 208.800 C 194.000 209.044,195.859 209.200,198.776 209.200 C 201.529 209.200,203.658 209.031,203.800 208.800 C 203.936 208.580,204.667 208.400,205.424 208.400 C 206.181 208.400,206.800 208.220,206.800 208.000 C 206.800 207.780,207.250 207.600,207.800 207.600 C 208.350 207.600,208.800 207.420,208.800 207.200 C 208.800 206.980,209.160 206.800,209.600 206.800 C 210.040 206.800,210.400 206.620,210.400 206.400 C 210.400 206.180,210.578 206.000,210.795 206.000 C 211.395 206.000,212.600 204.971,217.087 200.629 C 219.344 198.444,221.314 196.781,221.465 196.931 C 221.615 197.082,219.817 199.108,217.469 201.433 C 215.121 203.759,213.200 205.782,213.200 205.930 C 213.200 206.078,230.570 188.829,251.800 167.600 C 273.030 146.371,290.400 128.877,290.400 128.725 C 290.400 128.573,288.105 128.531,285.300 128.632 C 278.242 128.885,269.478 129.450,271.324 129.532 C 273.234 129.617,272.900 130.400,270.954 130.400 C 270.184 130.400,268.710 130.585,267.677 130.811 C 266.645 131.038,264.990 131.389,264.000 131.592 C 260.005 132.412,254.450 133.728,251.917 134.454 C 250.383 134.894,248.756 135.119,248.117 134.980 C 247.362 134.814,247.173 134.857,247.534 135.112 C 248.285 135.642,247.324 135.978,245.775 135.727 C 244.867 135.581,244.736 135.634,245.200 135.963 C 245.661 136.289,245.383 136.391,244.000 136.400 C 242.689 136.409,242.363 136.518,242.800 136.800 C 243.245 137.088,243.007 137.189,241.876 137.194 C 240.887 137.198,240.447 137.352,240.620 137.633 C 240.782 137.894,240.593 138.022,240.144 137.956 C 239.416 137.849,238.200 138.129,236.600 138.772 C 236.160 138.948,235.350 139.274,234.800 139.496 C 232.893 140.264,230.170 141.521,224.236 144.372 C 217.346 147.682,217.558 147.683,216.829 144.348 C 216.523 142.947,216.140 141.440,215.978 141.000 C 215.816 140.560,215.458 139.390,215.183 138.400 C 208.600 114.716,193.722 84.612,180.095 67.400 C 179.921 67.180,179.342 66.370,178.808 65.600 C 178.275 64.830,177.722 64.110,177.579 64.000 C 177.437 63.890,176.618 62.874,175.760 61.741 C 173.401 58.628,165.483 49.363,164.800 48.918 C 164.470 48.703,163.750 48.656,163.200 48.815 M265.300 130.276 C 265.685 130.376,266.315 130.376,266.700 130.276 C 267.085 130.175,266.770 130.093,266.000 130.093 C 265.230 130.093,264.915 130.175,265.300 130.276 M280.600 208.869 C 212.541 276.933,213.304 276.200,208.645 278.034 C 207.080 278.649,206.194 279.164,206.676 279.177 C 207.158 279.189,207.664 279.020,207.800 278.800 C 208.530 277.620,209.589 278.396,209.027 279.700 C 208.719 280.415,208.203 281.630,207.880 282.400 C 207.557 283.170,206.424 285.870,205.361 288.400 C 203.033 293.940,196.630 306.881,194.404 310.545 C 193.522 311.997,192.800 313.369,192.800 313.593 C 192.800 313.817,192.620 314.000,192.400 314.000 C 192.180 314.000,192.000 314.183,192.000 314.406 C 192.000 315.043,183.737 327.665,180.482 332.000 C 179.738 332.990,178.741 334.326,178.265 334.969 C 175.312 338.958,168.629 346.951,165.140 350.667 L 163.200 352.733 166.700 353.547 C 189.425 358.834,217.928 358.310,241.047 352.181 C 244.954 351.146,255.051 347.935,256.600 347.236 C 257.040 347.037,258.210 346.573,259.200 346.204 C 265.795 343.749,277.985 337.518,284.600 333.220 C 286.140 332.220,287.694 331.221,288.053 331.001 C 300.085 323.616,319.025 305.522,327.201 293.600 C 327.729 292.830,328.275 292.110,328.413 292.000 C 330.294 290.504,340.452 272.766,343.760 265.200 C 346.741 258.382,347.459 256.513,349.663 249.833 C 360.552 216.839,359.874 174.128,348.025 146.600 C 347.836 146.160,347.461 145.215,347.192 144.500 C 346.923 143.785,346.590 143.214,346.451 143.231 C 346.313 143.249,316.680 172.785,280.600 208.869 M222.287 180.700 C 222.195 181.305,222.120 180.810,222.120 179.600 C 222.120 178.390,222.195 177.895,222.287 178.500 C 222.378 179.105,222.378 180.095,222.287 180.700 M45.890 185.693 C 45.801 186.412,45.726 185.920,45.724 184.600 C 45.722 183.280,45.795 182.692,45.886 183.293 C 45.977 183.894,45.979 184.974,45.890 185.693 M223.631 194.800 C 223.854 194.800,223.567 195.269,222.994 195.842 C 222.421 196.416,221.833 196.766,221.687 196.621 C 221.542 196.475,221.688 196.192,222.012 195.992 C 222.371 195.769,222.613 194.960,222.633 193.914 C 222.760 187.432,222.971 185.792,223.099 190.300 C 223.175 192.987,223.389 194.800,223.631 194.800 M93.780 194.638 C 92.549 195.868,91.444 196.777,91.324 196.657 C 91.058 196.391,95.100 192.400,95.635 192.400 C 95.845 192.400,95.010 193.407,93.780 194.638 M192.000 209.600 C 192.788 210.109,193.715 210.109,193.400 209.600 C 193.264 209.380,192.758 209.203,192.276 209.206 C 191.564 209.211,191.512 209.285,192.000 209.600 M204.600 209.600 C 204.305 210.078,205.089 210.078,206.200 209.600 C 206.914 209.293,206.885 209.253,205.924 209.228 C 205.332 209.213,204.736 209.380,204.600 209.600 M195.400 210.400 C 196.060 210.568,197.680 210.705,199.000 210.705 C 200.320 210.705,201.940 210.568,202.600 210.400 C 203.347 210.210,201.989 210.095,199.000 210.095 C 196.011 210.095,194.653 210.210,195.400 210.400 M129.307 235.149 C 128.377 235.315,127.483 235.583,127.322 235.744 C 127.162 235.905,127.833 235.893,128.815 235.718 C 131.055 235.319,136.368 235.307,139.000 235.695 C 140.570 235.927,140.785 235.900,140.000 235.569 C 138.727 235.033,131.533 234.750,129.307 235.149 M125.200 236.400 C 124.667 236.745,124.667 236.788,125.200 236.788 C 125.530 236.788,126.070 236.613,126.400 236.400 C 126.933 236.055,126.933 236.012,126.400 236.012 C 126.070 236.012,125.530 236.187,125.200 236.400 M143.200 236.971 C 143.200 237.247,145.714 238.420,145.902 238.231 C 145.997 238.136,145.527 237.776,144.857 237.429 C 143.609 236.784,143.200 236.671,143.200 236.971 M114.690 244.441 L 108.564 250.600 114.182 245.158 C 117.272 242.165,120.159 239.523,120.597 239.288 C 121.035 239.053,121.263 238.730,121.105 238.571 C 120.946 238.412,118.059 241.054,114.690 244.441 M149.600 240.911 C 149.600 241.308,158.819 250.515,159.018 250.316 C 159.103 250.230,157.019 248.012,154.386 245.386 C 151.754 242.761,149.600 240.747,149.600 240.911 M162.202 254.002 C 162.602 254.444,163.011 254.722,163.112 254.621 C 163.328 254.405,162.188 253.200,161.767 253.200 C 161.607 253.200,161.803 253.561,162.202 254.002 M166.000 257.310 C 166.000 257.707,176.019 267.714,176.218 267.516 C 176.303 267.431,174.039 265.032,171.186 262.186 C 168.334 259.340,166.000 257.146,166.000 257.310 M96.192 262.900 L 92.600 266.600 96.300 263.008 C 98.335 261.033,100.000 259.368,100.000 259.308 C 100.000 259.018,99.528 259.464,96.192 262.900 M180.800 272.229 C 180.800 272.476,181.190 272.856,183.018 274.395 C 183.789 275.043,183.650 274.800,182.619 273.695 C 181.030 271.992,180.800 271.807,180.800 272.229 M188.639 277.973 C 189.696 278.951,194.168 280.026,197.847 280.186 L 201.800 280.357 197.951 279.983 C 195.834 279.777,192.792 279.165,191.190 278.623 C 189.589 278.082,188.441 277.789,188.639 277.973 M203.400 279.600 L 201.800 279.886 203.200 279.937 C 203.970 279.965,204.870 279.813,205.200 279.600 C 205.855 279.177,205.762 279.177,203.400 279.600 M71.002 287.598 C 70.603 288.039,70.407 288.400,70.567 288.400 C 70.988 288.400,72.128 287.195,71.912 286.979 C 71.811 286.878,71.402 287.156,71.002 287.598 M53.014 305.586 C 49.507 309.098,46.719 312.023,46.819 312.086 C 46.919 312.149,49.874 309.275,53.386 305.700 C 56.899 302.125,59.687 299.200,59.582 299.200 C 59.477 299.200,56.521 302.074,53.014 305.586 M80.100 308.327 C 78.505 309.980,77.254 311.388,77.321 311.455 C 77.388 311.522,78.779 310.232,80.412 308.588 C 83.725 305.252,83.743 305.244,85.174 306.500 L 86.200 307.400 85.230 306.300 C 83.861 304.746,83.365 304.942,80.100 308.327 M94.400 315.712 C 94.400 315.816,95.607 316.959,97.082 318.251 C 98.557 319.543,99.637 320.394,99.483 320.141 C 99.139 319.576,94.400 315.447,94.400 315.712 M60.100 317.091 C 60.925 317.178,62.275 317.178,63.100 317.091 C 63.925 317.005,63.250 316.934,61.600 316.934 C 59.950 316.934,59.275 317.005,60.100 317.091 M118.769 334.291 C 119.303 334.681,120.653 335.499,121.769 336.109 C 122.886 336.720,123.364 336.900,122.831 336.509 C 122.297 336.119,120.947 335.301,119.831 334.691 C 118.714 334.080,118.236 333.900,118.769 334.291 M124.400 337.622 C 125.433 338.326,128.000 339.625,128.000 339.442 C 128.000 339.233,124.405 337.197,124.050 337.206 C 123.912 337.209,124.070 337.396,124.400 337.622 M154.000 350.382 C 154.330 350.605,154.945 350.791,155.367 350.794 C 156.390 350.802,156.071 350.573,154.600 350.244 C 153.724 350.048,153.562 350.085,154.000 350.382 M156.800 351.182 C 157.130 351.405,157.745 351.591,158.167 351.594 C 159.190 351.602,158.871 351.373,157.400 351.044 C 156.524 350.848,156.362 350.885,156.800 351.182 M159.600 351.952 C 159.930 352.138,160.830 352.402,161.600 352.538 C 162.443 352.688,162.761 352.652,162.400 352.448 C 162.070 352.262,161.170 351.998,160.400 351.862 C 159.557 351.712,159.239 351.748,159.600 351.952 " stroke="none" fill="#24c7bb" fill-rule="evenodd"></path><path id="path1" d="M222.120 179.600 C 222.120 180.810,222.195 181.305,222.287 180.700 C 222.378 180.095,222.378 179.105,222.287 178.500 C 222.195 177.895,222.120 178.390,222.120 179.600 M45.724 184.600 C 45.726 185.920,45.801 186.412,45.890 185.693 C 45.979 184.974,45.977 183.894,45.886 183.293 C 45.795 182.692,45.722 183.280,45.724 184.600 M163.600 184.231 C 163.600 185.127,186.152 206.779,187.100 206.793 C 187.375 206.797,187.601 206.935,187.603 207.100 C 187.607 207.459,189.544 208.400,190.280 208.400 C 190.566 208.400,190.800 208.580,190.800 208.800 C 190.800 209.020,191.329 209.200,191.976 209.200 C 192.623 209.200,193.264 209.380,193.400 209.600 C 193.545 209.834,195.863 210.000,199.000 210.000 C 202.137 210.000,204.455 209.834,204.600 209.600 C 204.736 209.380,205.366 209.200,206.000 209.200 C 206.634 209.200,207.264 209.020,207.400 208.800 C 207.536 208.580,207.997 208.400,208.424 208.400 C 208.851 208.400,209.200 208.220,209.200 208.000 C 209.200 207.780,209.560 207.600,210.000 207.600 C 210.440 207.600,210.800 207.420,210.800 207.200 C 210.800 206.980,211.070 206.800,211.400 206.800 C 211.730 206.800,212.000 206.620,212.000 206.400 C 212.000 206.180,212.206 206.000,212.458 206.000 C 212.710 206.000,215.422 203.480,218.484 200.400 C 221.546 197.320,223.860 194.800,223.626 194.800 C 223.350 194.800,223.200 193.226,223.200 190.333 C 223.200 184.562,222.852 184.882,222.724 190.771 L 222.626 195.297 218.086 199.748 C 215.589 202.197,213.108 204.467,212.573 204.793 C 212.038 205.119,211.600 205.524,211.600 205.693 C 211.600 205.862,211.330 206.000,211.000 206.000 C 210.670 206.000,210.400 206.180,210.400 206.400 C 210.400 206.620,210.040 206.800,209.600 206.800 C 209.160 206.800,208.800 206.980,208.800 207.200 C 208.800 207.420,208.350 207.600,207.800 207.600 C 207.250 207.600,206.800 207.780,206.800 208.000 C 206.800 208.220,206.181 208.400,205.424 208.400 C 204.667 208.400,203.936 208.580,203.800 208.800 C 203.658 209.031,201.529 209.200,198.776 209.200 C 195.859 209.200,194.000 209.044,194.000 208.800 C 194.000 208.580,193.548 208.400,192.995 208.400 C 192.442 208.400,191.677 208.241,191.295 208.047 C 190.913 207.852,190.060 207.448,189.400 207.147 C 188.740 206.847,188.110 206.511,188.000 206.400 C 187.890 206.289,187.332 205.958,186.761 205.664 C 185.198 204.861,184.216 203.948,173.740 193.570 C 164.771 184.685,163.600 183.606,163.600 184.231 M44.886 201.420 C 44.836 208.187,44.956 213.199,45.173 213.420 C 45.378 213.629,45.636 215.420,45.748 217.400 C 46.005 221.986,46.580 226.014,48.005 233.200 C 48.244 234.410,48.541 236.076,48.663 236.903 C 48.785 237.729,49.035 238.498,49.218 238.611 C 49.493 238.781,65.304 223.129,86.279 201.923 C 88.522 199.656,91.636 196.585,93.200 195.100 C 94.763 193.615,95.843 192.400,95.599 192.400 C 95.356 192.400,89.632 197.845,82.878 204.499 C 76.125 211.153,68.087 219.028,65.017 221.999 C 61.946 224.970,59.111 227.743,58.717 228.161 C 58.322 228.580,58.000 228.760,58.000 228.561 C 58.000 228.362,58.734 227.397,59.631 226.416 C 61.417 224.462,61.045 223.684,58.712 224.493 C 57.909 224.771,57.289 224.703,56.350 224.235 C 54.785 223.454,54.232 223.439,53.633 224.160 C 53.145 224.748,50.210 224.612,49.379 223.963 C 49.148 223.782,48.580 223.733,48.117 223.854 C 47.348 224.055,47.256 223.870,47.056 221.737 C 46.936 220.452,46.658 218.140,46.438 216.600 C 45.991 213.469,45.256 201.428,45.084 194.400 C 45.022 191.870,44.933 195.029,44.886 201.420 M129.200 235.638 C 126.759 236.114,121.863 238.060,121.200 238.818 C 121.090 238.944,120.550 239.353,120.000 239.728 C 118.857 240.507,47.200 311.614,47.201 311.968 C 47.202 312.429,50.712 314.404,53.427 315.472 C 58.930 317.637,67.703 316.966,73.045 313.973 C 73.730 313.589,74.719 313.033,75.244 312.738 C 75.768 312.442,77.809 310.625,79.779 308.700 C 81.749 306.775,83.528 305.200,83.733 305.200 C 83.937 305.200,86.479 307.585,89.381 310.500 C 94.503 315.644,97.849 318.703,102.400 322.401 C 103.610 323.384,104.690 324.290,104.800 324.414 C 104.910 324.537,105.630 325.071,106.400 325.600 C 107.170 326.129,107.890 326.676,108.000 326.816 C 108.331 327.238,117.608 333.350,120.400 334.986 C 124.823 337.577,125.661 338.038,130.350 340.455 C 132.852 341.745,135.147 342.800,135.450 342.800 C 135.752 342.800,136.000 342.980,136.000 343.200 C 136.000 343.420,136.272 343.600,136.605 343.600 C 136.938 343.600,137.523 343.760,137.905 343.956 C 141.874 345.991,150.646 349.155,157.400 350.986 C 159.600 351.582,161.798 352.227,162.283 352.419 C 163.034 352.715,163.461 352.455,165.124 350.684 C 168.627 346.954,175.304 338.968,178.265 334.969 C 178.741 334.326,179.738 332.990,180.482 332.000 C 183.737 327.665,192.000 315.043,192.000 314.406 C 192.000 314.183,192.180 314.000,192.400 314.000 C 192.620 314.000,192.800 313.817,192.800 313.593 C 192.800 313.369,193.522 311.997,194.404 310.545 C 196.630 306.881,203.033 293.940,205.361 288.400 C 206.424 285.870,207.557 283.170,207.880 282.400 C 208.203 281.630,208.719 280.415,209.027 279.700 C 209.638 278.282,209.204 277.976,207.695 278.761 C 203.003 281.200,193.170 280.616,187.762 277.579 C 183.674 275.282,184.830 276.346,165.599 257.200 C 156.428 248.070,148.401 240.185,147.762 239.679 C 143.336 236.170,135.370 234.436,129.200 235.638 " stroke="none" fill="#04a190" fill-rule="evenodd"></path><path id="path2" d="M190.377 44.399 C 183.791 44.890,176.166 45.917,170.600 47.063 C 167.960 47.606,165.284 48.035,164.653 48.016 C 163.006 47.965,155.246 50.148,146.843 53.028 C 146.536 53.133,146.363 53.297,146.458 53.392 C 146.554 53.487,148.694 52.868,151.216 52.016 C 156.249 50.315,163.187 48.400,164.314 48.400 C 164.708 48.400,165.710 49.213,166.541 50.207 C 167.380 51.211,168.246 51.895,168.488 51.746 C 168.731 51.595,168.810 51.660,168.667 51.891 C 168.339 52.423,169.941 54.484,170.442 54.174 C 170.650 54.046,170.770 54.179,170.710 54.470 C 170.649 54.762,170.819 54.957,171.086 54.905 C 171.386 54.846,171.474 55.063,171.316 55.474 C 171.126 55.970,171.226 56.076,171.710 55.890 C 172.135 55.727,172.292 55.815,172.166 56.146 C 172.059 56.423,172.369 56.999,172.855 57.425 C 173.392 57.897,173.602 57.965,173.392 57.600 C 173.091 57.077,173.136 57.073,173.742 57.565 C 174.289 58.009,174.327 58.200,173.919 58.459 C 173.446 58.758,173.755 58.965,174.500 58.847 C 174.665 58.821,174.755 59.025,174.700 59.300 C 174.645 59.575,174.838 59.751,175.130 59.690 C 175.424 59.629,175.540 59.774,175.391 60.015 C 175.044 60.576,176.375 62.062,176.921 61.725 C 177.171 61.571,177.240 61.719,177.095 62.097 C 176.851 62.734,178.070 64.197,178.492 63.774 C 178.618 63.649,178.693 63.874,178.660 64.273 C 178.626 64.686,178.829 64.952,179.130 64.890 C 179.424 64.829,179.540 64.974,179.391 65.215 C 179.087 65.706,180.343 67.283,180.808 66.995 C 180.974 66.892,181.085 67.122,181.055 67.504 C 181.025 67.889,181.237 68.151,181.530 68.090 C 181.821 68.030,181.955 68.149,181.828 68.355 C 181.435 68.991,185.562 74.615,186.325 74.483 C 186.851 74.392,186.880 74.448,186.458 74.733 C 185.788 75.186,187.019 77.359,187.706 76.935 C 187.945 76.787,188.005 76.869,187.845 77.127 C 187.522 77.649,188.735 79.687,189.199 79.401 C 189.370 79.295,189.485 79.522,189.455 79.904 C 189.425 80.287,189.604 80.562,189.853 80.516 C 190.102 80.469,190.282 80.739,190.253 81.116 C 190.224 81.492,190.434 81.752,190.719 81.694 C 191.020 81.632,191.188 81.884,191.119 82.294 C 191.048 82.715,191.217 82.955,191.537 82.888 C 191.833 82.826,191.993 83.006,191.892 83.288 C 191.579 84.166,192.813 86.217,193.258 85.558 C 193.535 85.149,193.604 85.267,193.518 86.000 C 193.439 86.668,193.578 86.963,193.937 86.888 C 194.233 86.826,194.393 87.006,194.294 87.288 C 193.973 88.191,196.013 91.813,196.476 91.162 C 196.787 90.724,196.824 90.760,196.641 91.325 C 196.296 92.388,197.555 94.693,198.078 93.958 C 198.390 93.520,198.427 93.551,198.250 94.100 C 197.914 95.145,198.399 96.225,198.893 95.534 C 199.181 95.132,199.221 95.171,199.054 95.689 C 198.785 96.531,204.532 108.521,205.002 108.096 C 205.181 107.933,205.209 108.009,205.063 108.264 C 204.694 108.909,205.192 110.052,205.704 109.736 C 205.950 109.584,206.005 109.669,205.836 109.942 C 205.378 110.682,205.992 112.243,206.470 111.553 C 206.742 111.159,206.780 111.258,206.600 111.896 C 206.277 113.048,206.746 113.903,207.285 113.143 C 207.561 112.753,207.611 112.864,207.462 113.539 C 207.174 114.841,207.575 115.859,208.090 115.134 C 208.358 114.757,208.408 114.876,208.262 115.539 C 207.974 116.841,208.375 117.859,208.890 117.134 C 209.158 116.757,209.208 116.876,209.062 117.539 C 208.774 118.841,209.175 119.859,209.690 119.134 C 209.959 118.755,210.010 118.868,209.866 119.522 C 209.557 120.926,210.826 124.406,211.274 123.383 C 211.554 122.742,211.581 122.781,211.418 123.600 C 211.300 124.197,212.089 127.258,213.377 131.200 C 214.563 134.830,216.027 139.690,216.629 142.000 C 217.836 146.633,218.099 147.147,218.916 146.469 C 223.898 142.335,249.878 132.414,262.484 129.831 C 270.178 128.255,291.200 127.135,291.200 128.301 C 291.200 128.466,275.817 143.984,257.016 162.784 C 238.215 181.584,222.879 197.013,222.937 197.070 C 223.032 197.165,250.241 169.927,315.704 104.201 C 329.071 90.781,339.925 79.583,339.824 79.318 C 339.540 78.578,332.465 75.322,330.080 74.834 C 322.278 73.237,313.281 75.755,307.850 81.055 C 305.091 83.747,305.757 83.919,299.734 78.961 C 270.072 54.545,228.895 41.531,190.377 44.399 M119.172 66.518 C 113.438 69.978,110.816 71.739,110.807 72.134 C 110.803 72.318,111.655 71.843,112.700 71.078 C 113.745 70.313,116.565 68.498,118.967 67.044 C 121.369 65.589,123.424 64.310,123.534 64.200 C 124.112 63.621,122.939 64.244,119.172 66.518 M105.454 75.833 C 103.837 77.255,104.307 77.368,105.985 75.961 C 106.747 75.322,107.197 74.806,106.985 74.813 C 106.773 74.820,106.084 75.279,105.454 75.833 M97.480 82.429 C 95.769 83.953,94.492 85.200,94.643 85.200 C 94.794 85.200,95.746 84.432,96.759 83.494 C 97.771 82.555,99.122 81.383,99.761 80.888 C 100.400 80.393,100.848 79.914,100.757 79.824 C 100.666 79.733,99.192 80.905,97.480 82.429 M82.330 97.559 C 80.861 99.227,79.734 100.667,79.824 100.757 C 79.915 100.848,80.393 100.400,80.888 99.761 C 81.383 99.122,82.582 97.742,83.554 96.694 C 84.526 95.645,85.249 94.728,85.161 94.656 C 85.072 94.584,83.798 95.890,82.330 97.559 M71.269 111.639 C 70.510 112.854,70.966 113.016,71.755 111.812 C 72.120 111.256,72.278 110.800,72.105 110.800 C 71.933 110.800,71.557 111.178,71.269 111.639 M69.616 114.118 C 68.280 116.243,67.534 117.600,67.701 117.600 C 67.956 117.600,70.458 113.525,70.300 113.367 C 70.228 113.295,69.920 113.633,69.616 114.118 M66.314 119.500 C 65.119 121.308,63.912 123.600,64.156 123.600 C 64.252 123.600,64.761 122.835,65.286 121.900 C 65.811 120.965,66.567 119.705,66.966 119.100 C 67.365 118.495,67.605 118.000,67.499 118.000 C 67.393 118.000,66.860 118.675,66.314 119.500 M346.922 143.114 C 347.295 143.526,347.600 144.104,347.600 144.398 C 347.600 144.693,347.706 144.827,347.837 144.697 C 348.237 144.296,347.607 142.888,346.907 142.620 C 346.302 142.388,346.304 142.430,346.922 143.114 M279.993 208.603 C 243.798 244.794,214.321 274.359,214.487 274.302 C 214.797 274.197,346.000 143.119,346.000 142.914 C 346.000 142.621,341.897 146.704,279.993 208.603 M348.111 145.600 C 348.228 145.930,349.001 148.224,349.830 150.698 C 350.659 153.172,351.408 155.125,351.495 155.038 C 351.724 154.809,348.753 145.874,348.290 145.400 C 348.033 145.137,347.972 145.205,348.111 145.600 M52.216 149.300 C 52.129 149.575,51.685 150.892,51.229 152.227 C 50.773 153.561,50.411 154.911,50.425 155.227 C 50.439 155.542,50.815 154.720,51.260 153.400 C 52.497 149.735,52.761 148.800,52.560 148.800 C 52.458 148.800,52.304 149.025,52.216 149.300 M351.656 156.000 C 351.656 156.330,351.811 156.960,352.000 157.400 C 352.217 157.904,352.344 157.978,352.344 157.600 C 352.344 157.270,352.189 156.640,352.000 156.200 C 351.783 155.696,351.656 155.622,351.656 156.000 M49.437 158.132 C 49.087 159.337,48.814 160.565,48.831 160.862 C 48.847 161.158,49.203 160.241,49.621 158.823 C 50.038 157.406,50.311 156.178,50.227 156.094 C 50.143 156.010,49.787 156.927,49.437 158.132 M352.456 158.800 C 352.456 159.130,352.611 159.760,352.800 160.200 C 353.017 160.704,353.144 160.778,353.144 160.400 C 353.144 160.070,352.989 159.440,352.800 159.000 C 352.583 158.496,352.456 158.422,352.456 158.800 M353.256 162.000 C 353.256 162.330,353.411 162.960,353.600 163.400 C 353.817 163.904,353.944 163.978,353.944 163.600 C 353.944 163.270,353.789 162.640,353.600 162.200 C 353.383 161.696,353.256 161.622,353.256 162.000 M47.822 164.222 C 47.672 165.025,47.628 165.762,47.726 165.860 C 47.824 165.957,48.027 165.381,48.178 164.578 C 48.328 163.775,48.372 163.038,48.274 162.940 C 48.176 162.843,47.973 163.419,47.822 164.222 M354.068 165.200 C 354.088 166.239,354.718 167.946,354.732 167.000 C 354.738 166.560,354.589 165.840,354.400 165.400 C 354.189 164.910,354.061 164.832,354.068 165.200 M132.112 165.895 C 133.164 165.977,134.784 165.976,135.712 165.892 C 136.640 165.808,135.780 165.741,133.800 165.742 C 131.820 165.743,131.060 165.812,132.112 165.895 M126.400 166.754 C 124.113 167.494,120.800 169.069,120.800 169.416 C 120.800 169.526,121.565 169.219,122.500 168.732 C 123.435 168.246,125.550 167.442,127.200 166.946 C 128.850 166.449,129.840 166.043,129.400 166.043 C 128.960 166.043,127.610 166.363,126.400 166.754 M47.022 167.822 C 46.872 168.625,46.828 169.362,46.926 169.460 C 47.024 169.557,47.227 168.981,47.378 168.178 C 47.528 167.375,47.572 166.638,47.474 166.540 C 47.376 166.443,47.173 167.019,47.022 167.822 M141.200 167.119 C 142.410 167.530,144.165 168.259,145.100 168.741 C 146.035 169.222,146.800 169.513,146.800 169.387 C 146.800 168.985,141.854 166.828,140.400 166.596 C 139.426 166.440,139.669 166.599,141.200 167.119 M354.846 169.200 C 354.865 169.530,355.024 170.250,355.200 170.800 L 355.520 171.800 355.554 170.800 C 355.573 170.250,355.413 169.530,355.200 169.200 C 354.855 168.667,354.816 168.667,354.846 169.200 M147.200 169.725 C 147.200 169.824,147.861 170.409,148.668 171.025 C 149.476 171.641,150.011 171.941,149.856 171.691 C 149.540 171.179,147.200 169.447,147.200 169.725 M84.390 205.019 C 65.366 224.060,49.717 239.765,49.616 239.919 C 49.515 240.074,65.130 224.540,84.316 205.401 C 103.502 186.261,119.200 170.556,119.200 170.501 C 119.200 170.207,116.337 173.046,84.390 205.019 M46.200 172.000 C 46.048 172.691,46.007 173.341,46.109 173.442 C 46.211 173.544,46.409 173.053,46.550 172.350 C 46.883 170.683,46.560 170.360,46.200 172.000 M355.646 173.400 C 355.715 175.031,356.315 176.387,356.354 175.000 C 356.373 174.340,356.213 173.530,356.000 173.200 C 355.681 172.706,355.618 172.741,355.646 173.400 M45.476 176.010 C 45.330 176.555,45.227 177.450,45.246 178.000 C 45.271 178.718,45.384 178.557,45.649 177.427 C 46.055 175.695,45.900 174.425,45.476 176.010 M356.451 178.200 C 356.448 178.640,356.595 179.720,356.777 180.600 L 357.108 182.200 357.126 180.600 C 357.136 179.720,356.989 178.640,356.800 178.200 L 356.456 177.400 356.451 178.200 M44.669 181.556 C 44.521 182.295,44.421 183.463,44.447 184.150 C 44.479 185.012,44.605 184.725,44.855 183.223 C 45.253 180.821,45.097 179.417,44.669 181.556 M164.200 186.400 C 167.054 189.260,169.478 191.600,169.588 191.600 C 169.698 191.600,167.454 189.260,164.600 186.400 C 161.746 183.540,159.322 181.200,159.212 181.200 C 159.102 181.200,161.346 183.540,164.200 186.400 M357.471 187.600 C 357.602 189.690,357.774 191.475,357.854 191.567 C 358.172 191.930,357.921 185.348,357.589 184.600 C 357.369 184.107,357.324 185.257,357.471 187.600 M43.853 189.636 C 43.714 190.331,43.626 192.633,43.659 194.750 L 43.717 198.600 44.034 193.609 C 44.357 188.523,44.305 187.376,43.853 189.636 M358.158 200.600 C 358.158 203.680,358.221 204.887,358.297 203.282 C 358.373 201.678,358.373 199.158,358.296 197.682 C 358.219 196.207,358.157 197.520,358.158 200.600 M179.000 201.200 C 181.412 203.620,183.476 205.600,183.586 205.600 C 183.696 205.600,181.812 203.620,179.400 201.200 C 176.988 198.780,174.924 196.800,174.814 196.800 C 174.704 196.800,176.588 198.780,179.000 201.200 M43.647 207.833 C 43.673 210.015,43.829 212.340,43.992 213.000 C 44.156 213.660,44.200 211.950,44.090 209.200 C 43.848 203.161,43.582 202.339,43.647 207.833 M357.676 211.400 C 357.630 212.280,357.500 213.990,357.386 215.200 C 357.219 216.983,357.260 217.215,357.606 216.422 C 357.840 215.884,357.970 214.174,357.895 212.622 C 357.820 211.070,357.722 210.520,357.676 211.400 M193.815 210.824 C 193.943 211.031,194.697 211.200,195.490 211.200 C 197.261 211.200,197.100 210.990,195.091 210.680 C 194.191 210.541,193.676 210.599,193.815 210.824 M202.400 210.800 L 201.000 211.095 202.400 211.141 C 203.170 211.167,204.070 211.013,204.400 210.800 C 205.127 210.330,204.633 210.330,202.400 210.800 M44.440 218.433 C 44.462 219.185,44.630 220.250,44.813 220.800 C 45.029 221.446,45.066 221.020,44.919 219.600 C 44.659 217.083,44.381 216.407,44.440 218.433 M356.667 221.147 C 356.498 222.327,356.447 223.381,356.554 223.488 C 356.849 223.782,357.290 221.036,357.122 219.952 C 357.032 219.370,356.855 219.834,356.667 221.147 M45.228 224.433 C 45.244 224.965,45.419 225.760,45.619 226.200 C 45.871 226.758,45.907 226.515,45.738 225.400 C 45.455 223.543,45.187 223.036,45.228 224.433 M356.064 225.250 C 356.029 225.607,355.898 226.507,355.773 227.250 C 355.588 228.355,355.629 228.471,355.998 227.891 C 356.246 227.502,356.377 226.602,356.289 225.891 C 356.200 225.181,356.099 224.893,356.064 225.250 M46.068 229.200 C 46.062 229.750,46.211 230.560,46.400 231.000 L 46.744 231.800 46.732 231.000 C 46.726 230.560,46.576 229.750,46.400 229.200 L 46.080 228.200 46.068 229.200 M355.022 231.022 C 354.872 231.825,354.838 232.572,354.948 232.682 C 355.058 232.792,355.272 232.225,355.422 231.422 C 355.573 230.619,355.606 229.873,355.496 229.763 C 355.386 229.653,355.173 230.219,355.022 231.022 M46.868 233.200 C 46.888 234.239,47.518 235.946,47.532 235.000 C 47.538 234.560,47.389 233.840,47.200 233.400 C 46.989 232.910,46.861 232.832,46.868 233.200 M354.449 234.000 C 354.416 234.330,354.289 235.050,354.167 235.600 C 353.975 236.464,354.007 236.503,354.399 235.888 C 354.648 235.497,354.775 234.777,354.681 234.288 C 354.586 233.800,354.482 233.670,354.449 234.000 M129.676 234.340 C 129.168 234.483,131.024 234.600,133.800 234.600 C 136.576 234.600,138.432 234.483,137.924 234.340 C 137.416 234.197,135.560 234.080,133.800 234.080 C 132.040 234.080,130.184 234.197,129.676 234.340 M126.400 235.218 C 125.962 235.515,126.124 235.552,127.000 235.356 C 128.471 235.027,128.790 234.798,127.767 234.806 C 127.345 234.809,126.730 234.995,126.400 235.218 M139.233 234.944 C 139.325 235.023,139.940 235.208,140.600 235.356 C 141.476 235.552,141.638 235.515,141.200 235.218 C 140.660 234.853,138.832 234.598,139.233 234.944 M123.412 236.424 C 122.538 236.860,121.638 237.405,121.412 237.637 C 121.064 237.992,125.081 236.161,125.567 235.743 C 126.037 235.339,124.810 235.727,123.412 236.424 M47.813 237.800 C 47.969 238.680,48.241 239.557,48.417 239.748 C 48.593 239.940,48.561 239.315,48.346 238.360 C 47.845 236.127,47.440 235.703,47.813 237.800 M353.429 238.229 C 353.281 238.815,353.251 239.384,353.361 239.494 C 353.471 239.604,353.681 239.215,353.829 238.629 C 353.976 238.042,354.006 237.473,353.896 237.363 C 353.786 237.253,353.576 237.642,353.429 238.229 M352.629 241.429 C 352.481 242.015,352.438 242.572,352.532 242.666 C 352.627 242.760,352.824 242.358,352.971 241.771 C 353.119 241.185,353.162 240.628,353.068 240.534 C 352.973 240.440,352.776 240.842,352.629 241.429 M351.829 244.229 C 351.681 244.815,351.638 245.372,351.732 245.466 C 351.827 245.560,352.024 245.158,352.171 244.571 C 352.319 243.985,352.362 243.428,352.268 243.334 C 352.173 243.240,351.976 243.642,351.829 244.229 M154.000 244.567 C 154.000 244.988,155.205 246.128,155.421 245.912 C 155.522 245.811,155.244 245.402,154.802 245.002 C 154.361 244.603,154.000 244.407,154.000 244.567 M351.029 247.029 C 350.881 247.615,350.838 248.172,350.932 248.266 C 351.027 248.360,351.224 247.958,351.371 247.371 C 351.519 246.785,351.562 246.228,351.468 246.134 C 351.373 246.040,351.176 246.442,351.029 247.029 M103.791 254.100 L 100.600 257.400 103.988 254.200 C 105.852 252.440,107.457 250.955,107.555 250.900 C 107.653 250.845,107.564 250.800,107.357 250.800 C 107.150 250.800,105.545 252.285,103.791 254.100 M349.244 252.444 C 348.998 253.151,348.866 253.800,348.952 253.885 C 349.038 253.971,349.309 253.462,349.556 252.756 C 349.802 252.049,349.934 251.400,349.848 251.315 C 349.762 251.229,349.491 251.738,349.244 252.444 M347.926 256.114 C 347.576 257.041,346.897 258.790,346.416 260.000 C 345.936 261.210,345.708 262.020,345.910 261.800 C 346.419 261.246,348.942 254.808,348.732 254.599 C 348.639 254.505,348.276 255.187,347.926 256.114 M170.400 260.943 C 170.400 261.356,172.412 263.322,172.620 263.113 C 172.714 263.019,172.254 262.426,171.596 261.796 C 170.938 261.166,170.400 260.782,170.400 260.943 M86.993 270.900 L 82.600 275.400 87.100 271.007 C 91.280 266.926,91.782 266.400,91.493 266.400 C 91.434 266.400,89.409 268.425,86.993 270.900 M212.229 275.409 C 211.805 275.729,211.538 276.071,211.635 276.169 C 211.732 276.266,212.259 276.002,212.806 275.582 C 213.353 275.161,213.620 274.820,213.400 274.822 C 213.180 274.824,212.653 275.088,212.229 275.409 M78.386 279.500 L 76.200 281.800 78.500 279.614 C 79.765 278.411,80.800 277.376,80.800 277.314 C 80.800 277.017,80.418 277.363,78.386 279.500 M205.600 278.400 C 205.067 278.745,205.067 278.788,205.600 278.788 C 205.930 278.788,206.470 278.613,206.800 278.400 C 207.333 278.055,207.333 278.012,206.800 278.012 C 206.470 278.012,205.930 278.187,205.600 278.400 M194.800 279.180 C 195.799 279.520,198.282 279.732,197.967 279.451 C 197.875 279.369,196.900 279.199,195.800 279.072 C 194.451 278.916,194.126 278.951,194.800 279.180 M201.400 279.200 L 200.200 279.505 201.400 279.513 C 202.060 279.517,203.050 279.376,203.600 279.200 L 204.600 278.880 203.600 278.887 C 203.050 278.891,202.060 279.032,201.400 279.200 M336.708 279.700 C 336.387 280.195,335.907 281.050,335.640 281.600 C 334.960 283.003,336.194 281.506,337.041 279.900 C 337.739 278.574,337.523 278.444,336.708 279.700 M61.004 296.788 C 45.653 312.129,45.648 312.135,46.441 312.625 C 46.763 312.824,46.819 312.755,46.610 312.416 C 46.396 312.071,51.080 307.122,61.246 296.954 C 69.468 288.729,76.107 282.000,75.998 282.001 C 75.889 282.002,69.142 288.656,61.004 296.788 M333.594 284.900 C 332.893 286.055,332.580 286.730,332.898 286.400 C 333.618 285.654,335.337 282.800,335.067 282.800 C 334.958 282.800,334.295 283.745,333.594 284.900 M329.315 291.300 C 327.421 293.776,326.758 294.799,327.053 294.793 C 327.382 294.786,330.177 290.800,329.852 290.800 C 329.767 290.800,329.526 291.025,329.315 291.300 M325.944 295.900 C 324.675 297.432,324.219 298.142,324.681 297.865 C 325.193 297.558,326.969 295.200,326.689 295.200 C 326.598 295.200,326.263 295.515,325.944 295.900 M321.375 301.700 L 320.200 303.000 321.500 301.825 C 322.215 301.179,322.800 300.594,322.800 300.525 C 322.800 300.216,322.470 300.488,321.375 301.700 M318.400 305.026 C 316.914 306.932,306.724 317.093,304.450 318.938 C 303.707 319.540,303.196 320.130,303.314 320.248 C 303.432 320.366,306.920 317.110,311.064 313.013 C 318.457 305.705,320.789 303.185,320.130 303.215 C 319.949 303.223,319.170 304.038,318.400 305.026 M80.591 308.900 L 77.400 312.200 80.409 309.300 C 83.841 305.993,83.743 306.029,85.378 307.499 C 86.435 308.450,86.413 308.395,85.222 307.099 C 84.463 306.275,83.829 305.600,83.812 305.600 C 83.795 305.600,82.345 307.085,80.591 308.900 M86.800 309.153 C 86.800 309.521,92.348 315.000,92.496 314.778 C 92.562 314.680,91.307 313.314,89.708 311.742 C 88.108 310.170,86.800 309.005,86.800 309.153 M51.200 315.433 C 51.200 315.732,54.166 316.827,54.669 316.714 C 54.947 316.651,54.280 316.302,53.187 315.939 C 52.094 315.575,51.200 315.347,51.200 315.433 M69.200 316.241 C 67.770 316.770,67.211 317.092,67.957 316.957 C 69.451 316.686,72.000 315.702,72.000 315.395 C 72.000 315.288,71.955 315.218,71.900 315.240 C 71.845 315.262,70.630 315.712,69.200 316.241 M92.841 315.300 C 92.937 315.355,93.912 316.210,95.007 317.200 L 97.000 319.000 95.217 317.100 C 94.236 316.055,93.261 315.200,93.050 315.200 C 92.839 315.200,92.745 315.245,92.841 315.300 M57.900 317.482 C 58.395 317.578,59.205 317.578,59.700 317.482 C 60.195 317.387,59.790 317.309,58.800 317.309 C 57.810 317.309,57.405 317.387,57.900 317.482 M63.900 317.482 C 64.395 317.578,65.205 317.578,65.700 317.482 C 66.195 317.387,65.790 317.309,64.800 317.309 C 63.810 317.309,63.405 317.387,63.900 317.482 M97.800 319.564 C 98.636 320.529,101.600 322.983,101.600 322.710 C 101.600 322.623,100.565 321.672,99.300 320.597 C 98.035 319.521,97.360 319.056,97.800 319.564 M300.800 322.049 C 299.719 323.026,299.479 323.358,300.200 322.881 C 301.306 322.149,303.137 320.384,302.762 320.412 C 302.673 320.419,301.790 321.155,300.800 322.049 M294.711 326.729 C 293.672 327.514,292.896 328.229,292.985 328.318 C 293.074 328.407,293.924 327.879,294.873 327.144 C 295.823 326.409,296.675 325.761,296.767 325.704 C 296.858 325.647,296.858 325.533,296.767 325.451 C 296.675 325.369,295.750 325.944,294.711 326.729 M106.000 326.300 C 106.000 326.469,106.360 326.832,106.800 327.107 C 107.240 327.382,107.600 327.469,107.600 327.300 C 107.600 327.131,107.240 326.768,106.800 326.493 C 106.360 326.218,106.000 326.131,106.000 326.300 M290.100 330.040 C 287.775 331.686,287.942 331.948,290.300 330.354 C 292.646 328.769,292.613 328.796,292.167 328.818 C 291.965 328.828,291.035 329.378,290.100 330.040 M112.807 331.336 C 115.528 333.164,116.400 333.690,116.400 333.503 C 116.400 333.250,112.095 330.400,111.713 330.400 C 111.549 330.400,112.041 330.821,112.807 331.336 M284.400 333.810 C 282.530 335.014,281.145 335.999,281.322 335.999 C 281.698 336.000,288.000 332.001,288.000 331.761 C 288.000 331.497,287.934 331.534,284.400 333.810 M117.000 333.890 C 117.220 334.100,118.120 334.676,119.000 335.170 C 119.880 335.665,120.240 335.770,119.800 335.404 C 118.906 334.661,116.372 333.291,117.000 333.890 M278.300 337.429 C 276.805 338.240,276.896 338.578,278.400 337.800 C 279.060 337.459,279.600 337.094,279.600 336.990 C 279.600 336.732,279.557 336.747,278.300 337.429 M262.600 345.239 C 261.280 345.887,260.470 346.343,260.800 346.252 C 262.023 345.917,265.012 344.669,265.380 344.340 C 266.093 343.702,265.032 344.045,262.600 345.239 M142.000 346.614 C 142.000 346.893,144.906 348.031,145.291 347.903 C 145.482 347.839,144.820 347.484,143.819 347.113 C 142.819 346.742,142.000 346.517,142.000 346.614 M255.104 348.105 C 252.741 349.005,250.876 349.810,250.960 349.894 C 251.044 349.977,252.822 349.406,254.912 348.623 C 257.001 347.840,258.900 347.200,259.132 347.200 C 259.363 347.200,259.664 347.020,259.800 346.800 C 260.162 346.214,259.822 346.308,255.104 348.105 M148.400 349.133 C 148.730 349.336,149.450 349.624,150.000 349.771 C 150.695 349.957,150.817 349.925,150.400 349.667 C 150.070 349.464,149.350 349.176,148.800 349.029 C 148.105 348.843,147.983 348.875,148.400 349.133 M152.400 350.600 C 153.170 350.897,154.070 351.139,154.400 351.139 C 154.730 351.139,154.370 350.897,153.600 350.600 C 152.830 350.303,151.930 350.061,151.600 350.061 C 151.270 350.061,151.630 350.303,152.400 350.600 M246.200 351.200 C 245.696 351.417,245.622 351.544,246.000 351.544 C 246.330 351.544,246.960 351.389,247.400 351.200 C 247.904 350.983,247.978 350.856,247.600 350.856 C 247.270 350.856,246.640 351.011,246.200 351.200 M157.000 352.000 C 157.440 352.189,158.070 352.344,158.400 352.344 C 158.778 352.344,158.704 352.217,158.200 352.000 C 157.760 351.811,157.130 351.656,156.800 351.656 C 156.422 351.656,156.496 351.783,157.000 352.000 M243.400 352.000 C 242.896 352.217,242.822 352.344,243.200 352.344 C 243.530 352.344,244.160 352.189,244.600 352.000 C 245.104 351.783,245.178 351.656,244.800 351.656 C 244.470 351.656,243.840 351.811,243.400 352.000 M159.233 352.544 C 159.325 352.623,159.940 352.808,160.600 352.956 C 161.476 353.152,161.638 353.115,161.200 352.818 C 160.660 352.453,158.832 352.198,159.233 352.544 M240.200 352.800 L 239.400 353.144 240.200 353.144 C 240.640 353.144,241.360 352.989,241.800 352.800 L 242.600 352.456 241.800 352.456 C 241.360 352.456,240.640 352.611,240.200 352.800 M163.200 353.600 C 163.750 353.776,164.560 353.926,165.000 353.932 L 165.800 353.944 165.000 353.600 C 164.560 353.411,163.750 353.262,163.200 353.268 L 162.200 353.280 163.200 353.600 M237.200 353.600 C 236.396 353.857,236.357 353.923,237.000 353.932 C 237.440 353.938,238.160 353.789,238.600 353.600 C 239.619 353.162,238.568 353.162,237.200 353.600 M166.800 354.400 C 167.130 354.613,167.850 354.773,168.400 354.754 L 169.400 354.720 168.400 354.400 C 166.858 353.906,166.036 353.906,166.800 354.400 M233.600 354.400 L 232.600 354.720 233.600 354.754 C 234.150 354.773,234.870 354.613,235.200 354.400 C 235.964 353.906,235.142 353.906,233.600 354.400 M170.800 355.179 C 171.130 355.404,171.925 355.591,172.567 355.594 C 174.104 355.602,173.784 355.370,171.800 355.038 C 170.654 354.846,170.370 354.886,170.800 355.179 M229.600 355.200 L 228.600 355.520 229.600 355.554 C 230.150 355.573,230.870 355.413,231.200 355.200 C 231.964 354.706,231.142 354.706,229.600 355.200 M175.200 356.000 C 175.530 356.213,176.430 356.369,177.200 356.347 L 178.600 356.305 177.400 356.000 C 175.524 355.523,174.461 355.523,175.200 356.000 M224.600 356.000 L 223.400 356.305 224.800 356.347 C 225.570 356.369,226.470 356.213,226.800 356.000 C 227.539 355.523,226.476 355.523,224.600 356.000 M180.600 356.779 C 181.356 357.124,185.121 357.369,184.767 357.050 C 184.675 356.968,183.520 356.791,182.200 356.657 C 180.616 356.496,180.072 356.538,180.600 356.779 M218.600 356.800 L 217.000 357.086 218.800 357.115 C 219.790 357.131,220.960 356.989,221.400 356.800 C 222.424 356.360,221.057 356.360,218.600 356.800 M188.000 357.614 C 188.979 357.914,201.495 358.142,201.167 357.854 C 201.075 357.774,197.850 357.618,194.000 357.508 C 190.150 357.398,187.450 357.446,188.000 357.614 M206.800 357.600 L 202.200 357.840 207.600 357.880 C 210.570 357.902,213.450 357.776,214.000 357.600 C 215.175 357.224,213.999 357.224,206.800 357.600 " stroke="none" fill="#cbf4ec" fill-rule="evenodd"></path><path id="path3" d="M162.200 48.800 C 161.696 49.017,161.622 49.144,162.000 49.144 C 162.330 49.144,162.960 48.989,163.400 48.800 C 163.904 48.583,163.978 48.456,163.600 48.456 C 163.270 48.456,162.640 48.611,162.200 48.800 M164.804 48.913 C 165.538 49.504,174.177 59.617,175.699 61.665 C 176.298 62.471,177.022 63.371,177.307 63.665 C 177.593 63.959,178.262 64.830,178.794 65.600 C 179.326 66.370,179.863 67.090,179.986 67.200 C 180.110 67.310,180.918 68.442,181.782 69.714 C 182.646 70.987,183.626 72.247,183.961 72.514 C 185.494 73.739,174.330 58.907,171.079 55.400 C 170.671 54.960,169.138 53.205,167.673 51.500 C 166.207 49.795,164.827 48.406,164.604 48.413 C 164.382 48.420,164.472 48.645,164.804 48.913 M159.000 49.600 L 158.200 49.944 159.000 49.966 C 159.440 49.978,160.070 49.813,160.400 49.600 C 161.195 49.086,160.196 49.086,159.000 49.600 M156.200 50.400 L 155.400 50.744 156.200 50.766 C 156.640 50.778,157.270 50.613,157.600 50.400 C 158.395 49.886,157.396 49.886,156.200 50.400 M153.600 51.200 C 153.067 51.545,153.067 51.588,153.600 51.588 C 153.930 51.588,154.470 51.413,154.800 51.200 C 155.333 50.855,155.333 50.812,154.800 50.812 C 154.470 50.812,153.930 50.987,153.600 51.200 M151.200 52.000 C 150.667 52.345,150.667 52.388,151.200 52.388 C 151.530 52.388,152.070 52.213,152.400 52.000 C 152.933 51.655,152.933 51.612,152.400 51.612 C 152.070 51.612,151.530 51.787,151.200 52.000 M148.800 52.800 C 148.267 53.145,148.267 53.188,148.800 53.188 C 149.130 53.188,149.670 53.013,150.000 52.800 C 150.533 52.455,150.533 52.412,150.000 52.412 C 149.670 52.412,149.130 52.587,148.800 52.800 M145.600 54.000 C 144.610 54.415,144.070 54.752,144.400 54.748 C 145.072 54.740,148.428 53.263,147.800 53.252 C 147.580 53.248,146.590 53.585,145.600 54.000 M139.200 56.556 C 135.797 57.983,130.800 60.413,130.800 60.642 C 130.800 60.755,130.935 60.776,131.100 60.689 C 132.459 59.971,137.958 57.455,139.311 56.932 C 140.240 56.573,141.171 56.127,141.380 55.940 C 141.928 55.450,141.656 55.527,139.200 56.556 M125.931 62.935 C 122.820 64.676,122.458 65.173,125.400 63.664 C 128.135 62.261,129.179 61.600,128.600 61.639 C 128.380 61.654,127.179 62.237,125.931 62.935 M120.900 65.826 C 119.012 66.958,118.577 67.549,120.300 66.641 C 121.509 66.003,123.116 64.831,122.800 64.817 C 122.690 64.812,121.835 65.266,120.900 65.826 M113.943 70.238 C 111.444 71.910,109.130 73.552,108.800 73.888 C 108.228 74.471,117.790 68.272,118.580 67.548 C 119.657 66.562,118.023 67.510,113.943 70.238 M106.200 75.844 L 104.600 77.276 106.300 76.004 C 107.763 74.910,108.291 74.383,107.900 74.406 C 107.845 74.409,107.080 75.056,106.200 75.844 M103.576 77.713 C 101.283 79.503,100.697 80.030,100.839 80.173 C 100.928 80.262,101.811 79.634,102.800 78.779 C 104.465 77.341,105.007 76.595,103.576 77.713 M187.844 78.500 C 188.005 78.775,188.622 79.720,189.215 80.600 C 191.270 83.648,197.458 94.625,200.200 100.089 C 201.716 103.108,203.022 105.512,203.102 105.431 C 203.731 104.802,188.701 78.000,187.720 78.000 C 187.628 78.000,187.684 78.225,187.844 78.500 M99.000 81.467 C 96.298 83.812,94.347 85.680,94.470 85.803 C 94.541 85.875,95.950 84.694,97.600 83.178 C 100.485 80.529,101.477 79.317,99.000 81.467 M89.787 90.013 C 87.602 92.206,85.912 94.000,86.031 94.000 C 86.322 94.000,94.020 86.287,93.874 86.141 C 93.811 86.078,91.972 87.820,89.787 90.013 M84.496 95.525 C 83.999 96.116,82.848 97.500,81.938 98.600 L 80.284 100.600 82.014 98.800 C 85.378 95.301,86.153 94.400,85.778 94.425 C 85.570 94.439,84.993 94.934,84.496 95.525 M79.398 101.359 C 79.179 101.666,78.583 102.476,78.073 103.159 C 76.671 105.035,77.302 104.646,78.979 102.600 C 79.790 101.610,80.306 100.800,80.125 100.800 C 79.944 100.800,79.617 101.051,79.398 101.359 M75.600 106.400 C 74.903 107.280,74.423 108.000,74.533 108.000 C 74.643 108.000,75.303 107.280,76.000 106.400 C 76.697 105.520,77.177 104.800,77.067 104.800 C 76.957 104.800,76.297 105.520,75.600 106.400 M204.054 107.800 C 204.046 108.020,204.555 109.280,205.185 110.600 C 205.816 111.920,206.338 112.820,206.346 112.600 C 206.354 112.380,205.845 111.120,205.215 109.800 C 204.584 108.480,204.062 107.580,204.054 107.800 M71.503 112.100 C 68.827 115.972,66.780 119.283,67.484 118.600 C 68.079 118.023,74.450 108.400,74.238 108.400 C 74.140 108.400,72.909 110.065,71.503 112.100 M206.400 113.287 C 206.400 113.423,206.773 114.404,207.230 115.467 C 209.200 120.056,213.645 132.871,215.184 138.400 C 215.915 141.027,216.460 142.142,216.162 140.400 C 215.402 135.968,206.400 110.965,206.400 113.287 M66.308 120.100 C 65.987 120.595,65.507 121.450,65.240 122.000 C 64.560 123.403,65.794 121.906,66.641 120.300 C 67.339 118.974,67.123 118.844,66.308 120.100 M63.468 125.100 C 62.404 126.875,61.590 128.524,61.716 128.649 C 61.801 128.734,62.361 127.903,62.960 126.802 C 63.819 125.224,64.241 123.809,63.468 125.100 M271.000 128.442 C 261.839 129.759,255.527 131.246,247.000 134.095 C 238.530 136.925,221.256 144.528,218.951 146.441 C 218.148 147.107,217.776 146.619,217.232 144.187 C 216.955 142.950,216.642 142.025,216.535 142.132 C 216.206 142.461,217.374 146.890,217.836 147.069 C 218.076 147.161,220.956 145.947,224.236 144.372 C 230.395 141.413,233.217 140.114,234.600 139.603 C 235.040 139.440,235.850 139.114,236.400 138.879 C 238.084 138.157,239.365 137.842,240.144 137.956 C 240.593 138.022,240.782 137.894,240.620 137.633 C 240.447 137.352,240.887 137.198,241.876 137.194 C 243.007 137.189,243.245 137.088,242.800 136.800 C 242.363 136.518,242.689 136.409,244.000 136.400 C 245.383 136.391,245.661 136.289,245.200 135.963 C 244.736 135.634,244.867 135.581,245.775 135.727 C 247.324 135.978,248.285 135.642,247.534 135.112 C 247.173 134.857,247.362 134.814,248.117 134.980 C 248.756 135.119,250.383 134.894,251.917 134.454 C 254.450 133.728,260.005 132.412,264.000 131.592 C 264.990 131.389,266.645 131.038,267.677 130.811 C 268.710 130.585,270.184 130.400,270.954 130.400 C 272.900 130.400,273.234 129.617,271.324 129.532 C 269.478 129.450,278.242 128.885,285.300 128.632 C 288.105 128.531,290.400 128.574,290.400 128.729 C 290.400 128.883,272.895 146.491,251.500 167.857 C 208.360 210.939,210.973 208.610,204.000 210.191 C 201.705 210.711,201.633 210.753,203.384 210.553 C 206.065 210.246,209.039 209.086,211.858 207.246 C 213.956 205.877,290.754 129.480,291.133 128.385 C 291.300 127.904,274.407 127.952,271.000 128.442 M266.700 130.276 C 266.315 130.376,265.685 130.376,265.300 130.276 C 264.915 130.175,265.230 130.093,266.000 130.093 C 266.770 130.093,267.085 130.175,266.700 130.276 M58.377 135.100 C 56.722 138.658,55.451 141.901,55.907 141.400 C 56.108 141.180,56.513 140.370,56.807 139.600 C 57.102 138.830,57.817 137.203,58.396 135.984 C 59.682 133.280,60.028 132.400,59.804 132.400 C 59.710 132.400,59.068 133.615,58.377 135.100 M345.560 143.487 C 345.045 144.143,345.059 144.154,345.730 143.626 C 346.585 142.954,347.049 143.404,347.463 145.308 C 347.595 145.918,347.879 146.525,348.095 146.658 C 348.524 146.924,348.211 145.632,347.457 144.030 C 346.865 142.773,346.257 142.599,345.560 143.487 M53.877 145.877 C 53.500 146.893,53.258 147.791,53.338 147.872 C 53.419 147.952,53.800 147.193,54.185 146.185 C 54.570 145.176,54.812 144.279,54.723 144.190 C 54.635 144.101,54.254 144.860,53.877 145.877 M348.400 147.414 C 348.400 148.015,350.539 153.994,350.698 153.836 C 350.901 153.632,348.836 147.200,348.567 147.200 C 348.475 147.200,348.400 147.296,348.400 147.414 M334.986 154.014 C 331.479 157.526,328.744 160.400,328.908 160.400 C 329.304 160.400,341.714 147.981,341.516 147.783 C 341.431 147.698,338.493 150.502,334.986 154.014 M52.600 149.200 C 52.450 149.673,52.417 150.150,52.527 150.260 C 52.637 150.370,52.850 150.073,53.000 149.600 C 53.150 149.127,53.183 148.650,53.073 148.540 C 52.963 148.430,52.750 148.727,52.600 149.200 M51.800 151.600 C 51.650 152.073,51.617 152.550,51.727 152.660 C 51.837 152.770,52.050 152.473,52.200 152.000 C 52.350 151.527,52.383 151.050,52.273 150.940 C 52.163 150.830,51.950 151.127,51.800 151.600 M51.000 154.000 C 50.850 154.473,50.817 154.950,50.927 155.060 C 51.037 155.170,51.250 154.873,51.400 154.400 C 51.550 153.927,51.583 153.450,51.473 153.340 C 51.363 153.230,51.150 153.527,51.000 154.000 M350.964 155.300 C 357.490 178.133,359.341 202.991,356.005 223.000 C 355.584 225.523,355.487 227.047,355.765 226.767 C 356.037 226.493,356.814 220.599,357.421 214.200 C 358.550 202.296,357.978 186.733,355.988 175.200 C 354.517 166.671,351.530 154.400,350.925 154.400 C 350.805 154.400,350.822 154.805,350.964 155.300 M50.229 156.629 C 50.081 157.215,50.051 157.784,50.161 157.894 C 50.271 158.004,50.481 157.615,50.629 157.029 C 50.776 156.442,50.806 155.873,50.696 155.763 C 50.586 155.653,50.376 156.042,50.229 156.629 M49.429 159.429 C 49.281 160.015,49.251 160.584,49.361 160.694 C 49.471 160.804,49.681 160.415,49.829 159.829 C 49.976 159.242,50.006 158.673,49.896 158.563 C 49.786 158.453,49.576 158.842,49.429 159.429 M270.800 218.154 C 218.039 270.871,213.190 275.608,210.800 276.773 C 209.370 277.470,208.650 277.924,209.200 277.782 C 212.325 276.976,215.475 273.954,270.497 218.981 C 325.623 163.903,328.711 160.799,328.370 160.801 C 328.276 160.802,302.370 186.611,270.800 218.154 M48.600 162.400 C 48.448 163.091,48.414 163.747,48.524 163.857 C 48.634 163.967,48.848 163.491,49.000 162.800 C 49.152 162.109,49.186 161.453,49.076 161.343 C 48.966 161.233,48.752 161.709,48.600 162.400 M47.822 165.822 C 47.672 166.625,47.628 167.362,47.726 167.460 C 47.824 167.557,48.027 166.981,48.178 166.178 C 48.328 165.375,48.372 164.638,48.274 164.540 C 48.176 164.443,47.973 165.019,47.822 165.822 M132.291 165.489 C 133.001 165.577,134.261 165.579,135.091 165.492 C 135.921 165.405,135.340 165.333,133.800 165.331 C 132.260 165.329,131.581 165.400,132.291 165.489 M127.800 166.019 C 127.242 166.271,127.485 166.307,128.600 166.138 C 129.480 166.004,130.275 165.828,130.367 165.747 C 130.710 165.444,128.568 165.671,127.800 166.019 M138.000 166.000 C 138.550 166.176,139.360 166.326,139.800 166.332 L 140.600 166.344 139.800 166.000 C 139.360 165.811,138.550 165.662,138.000 165.668 L 137.000 165.680 138.000 166.000 M122.200 168.072 C 119.426 169.522,118.516 170.401,83.604 205.372 C 52.544 236.482,49.358 239.559,48.868 238.912 C 48.356 238.237,48.335 238.240,48.464 238.967 C 48.539 239.389,48.782 239.794,49.004 239.868 C 49.226 239.942,64.886 224.509,83.804 205.572 C 102.722 186.635,118.716 170.767,119.347 170.310 C 119.977 169.853,121.417 168.970,122.547 168.347 C 124.905 167.046,124.609 166.812,122.200 168.072 M143.233 167.349 C 143.645 167.717,146.000 168.800,146.000 168.621 C 146.000 168.390,143.782 167.200,143.353 167.200 C 143.196 167.200,143.142 167.267,143.233 167.349 M47.022 169.422 C 46.872 170.225,46.838 170.972,46.948 171.082 C 47.058 171.192,47.272 170.625,47.422 169.822 C 47.573 169.019,47.606 168.273,47.496 168.163 C 47.386 168.053,47.173 168.619,47.022 169.422 M146.400 168.902 C 146.906 169.433,150.435 172.000,150.658 172.000 C 151.000 172.000,147.999 169.628,147.000 169.108 C 146.560 168.879,146.290 168.786,146.400 168.902 M46.182 173.782 C 46.029 174.802,45.994 175.727,46.104 175.837 C 46.214 175.947,46.429 175.202,46.582 174.182 C 46.735 173.161,46.770 172.237,46.660 172.127 C 46.550 172.017,46.335 172.761,46.182 173.782 M168.000 189.722 C 181.429 203.082,185.856 207.252,187.400 207.994 C 188.500 208.523,189.535 209.021,189.700 209.102 C 189.865 209.182,190.000 209.155,190.000 209.042 C 190.000 208.930,189.325 208.525,188.500 208.143 C 185.586 206.794,182.439 203.904,166.812 188.233 C 158.128 179.525,150.928 172.402,150.812 172.405 C 150.695 172.408,158.430 180.201,168.000 189.722 M45.385 178.985 C 45.230 180.223,45.193 181.327,45.303 181.437 C 45.413 181.547,45.630 180.623,45.785 179.385 C 45.939 178.146,45.976 177.043,45.866 176.933 C 45.756 176.823,45.539 177.746,45.385 178.985 M44.593 185.338 C 44.438 186.987,44.393 188.575,44.493 188.868 C 44.592 189.161,44.806 187.899,44.967 186.064 C 45.129 184.229,45.174 182.641,45.068 182.534 C 44.961 182.428,44.747 183.689,44.593 185.338 M43.894 196.900 C 43.769 200.035,43.803 204.580,43.970 207.000 C 44.227 210.734,44.282 209.872,44.336 201.300 C 44.407 190.020,44.236 188.316,43.894 196.900 M191.481 209.751 C 192.185 210.078,193.625 210.443,194.681 210.562 L 196.600 210.778 194.400 210.222 C 193.190 209.916,191.750 209.551,191.200 209.411 C 190.483 209.228,190.563 209.325,191.481 209.751 M197.907 211.090 C 198.626 211.179,199.706 211.177,200.307 211.086 C 200.908 210.995,200.320 210.922,199.000 210.924 C 197.680 210.926,197.188 211.001,197.907 211.090 M44.430 214.633 C 44.446 215.715,44.613 217.410,44.802 218.400 C 45.048 219.697,45.082 219.193,44.924 216.600 C 44.684 212.682,44.382 211.479,44.430 214.633 M45.293 222.000 C 45.295 223.765,45.891 226.388,45.930 224.800 C 45.943 224.250,45.805 223.080,45.623 222.200 L 45.292 220.600 45.293 222.000 M46.080 227.200 C 46.080 227.750,46.224 228.650,46.400 229.200 L 46.720 230.200 46.720 229.200 C 46.720 228.650,46.576 227.750,46.400 227.200 L 46.080 226.200 46.080 227.200 M355.018 229.018 C 354.865 230.039,354.830 230.963,354.940 231.073 C 355.050 231.183,355.265 230.439,355.418 229.418 C 355.571 228.398,355.606 227.473,355.496 227.363 C 355.386 227.253,355.171 227.998,355.018 229.018 M46.868 231.600 C 46.862 232.150,47.011 232.960,47.200 233.400 L 47.544 234.200 47.532 233.400 C 47.526 232.960,47.376 232.150,47.200 231.600 L 46.880 230.600 46.868 231.600 M353.071 237.916 C 352.230 241.372,350.556 247.080,349.352 250.600 C 346.941 257.650,346.458 259.317,347.443 257.200 C 349.696 252.353,355.203 233.371,354.741 232.040 C 354.664 231.816,353.912 234.460,353.071 237.916 M129.423 234.747 C 128.775 234.886,130.745 235.000,133.800 235.000 C 136.855 235.000,138.825 234.886,138.177 234.747 C 137.530 234.608,135.560 234.495,133.800 234.495 C 132.040 234.495,130.070 234.608,129.423 234.747 M47.656 235.400 C 47.656 235.840,47.811 236.560,48.000 237.000 L 48.344 237.800 48.344 237.000 C 48.344 236.560,48.189 235.840,48.000 235.400 L 47.656 234.600 47.656 235.400 M125.400 236.017 C 124.520 236.455,124.160 236.701,124.600 236.563 C 125.040 236.426,125.985 236.144,126.700 235.938 C 127.415 235.731,128.000 235.481,128.000 235.381 C 128.000 234.994,126.931 235.255,125.400 236.017 M140.200 235.600 C 140.640 235.789,141.270 235.944,141.600 235.944 C 141.978 235.944,141.904 235.817,141.400 235.600 C 140.960 235.411,140.330 235.256,140.000 235.256 C 139.622 235.256,139.696 235.383,140.200 235.600 M142.400 236.181 C 142.400 236.281,143.165 236.704,144.100 237.120 C 145.035 237.537,146.657 238.536,147.703 239.339 C 149.871 241.003,150.671 241.313,148.857 239.787 C 146.641 237.922,142.400 235.554,142.400 236.181 M119.731 239.059 C 117.145 241.013,46.357 311.672,46.514 312.142 C 46.667 312.600,51.586 315.602,52.173 315.595 C 52.408 315.593,51.591 315.008,50.358 314.295 C 49.125 313.583,47.775 312.781,47.358 312.514 C 46.670 312.073,48.188 310.454,63.800 294.974 C 73.260 285.594,89.820 269.150,100.600 258.431 C 111.380 247.712,120.650 238.649,121.200 238.292 C 121.750 237.934,122.079 237.633,121.931 237.621 C 121.782 237.609,120.792 238.256,119.731 239.059 M159.200 250.206 C 159.200 250.474,165.591 256.827,166.614 257.575 C 167.046 257.891,165.603 256.316,163.408 254.075 C 159.453 250.039,159.200 249.806,159.200 250.206 M345.186 261.845 C 344.283 264.234,342.542 267.958,340.064 272.800 C 338.656 275.550,337.692 277.620,337.922 277.400 C 338.982 276.385,346.210 261.277,345.821 260.888 C 345.712 260.779,345.426 261.209,345.186 261.845 M176.012 267.000 C 178.848 270.858,188.596 278.737,189.462 277.871 C 189.565 277.768,188.604 277.177,187.325 276.558 C 185.717 275.779,183.524 274.010,180.212 270.816 C 177.579 268.277,175.689 266.560,176.012 267.000 M190.400 278.400 C 190.730 278.613,191.270 278.788,191.600 278.788 C 192.133 278.788,192.133 278.745,191.600 278.400 C 191.270 278.187,190.730 278.012,190.400 278.012 C 189.867 278.012,189.867 278.055,190.400 278.400 M336.586 279.300 L 335.952 280.600 336.767 279.600 C 337.552 278.637,337.808 278.000,337.410 278.000 C 337.306 278.000,336.935 278.585,336.586 279.300 M193.000 279.200 C 193.440 279.389,194.250 279.538,194.800 279.532 L 195.800 279.520 194.800 279.200 C 194.250 279.024,193.440 278.874,193.000 278.868 L 192.200 278.856 193.000 279.200 M203.600 279.200 L 202.600 279.520 203.600 279.532 C 204.150 279.538,204.960 279.389,205.400 279.200 L 206.200 278.856 205.400 278.868 C 204.960 278.874,204.150 279.024,203.600 279.200 M197.700 279.891 C 198.525 279.978,199.875 279.978,200.700 279.891 C 201.525 279.805,200.850 279.734,199.200 279.734 C 197.550 279.734,196.875 279.805,197.700 279.891 M334.156 283.300 C 333.330 284.675,331.781 287.105,330.715 288.700 C 329.648 290.295,328.877 291.600,329.001 291.600 C 329.227 291.600,334.666 283.383,335.553 281.700 C 336.547 279.816,335.593 280.909,334.156 283.300 M327.470 293.190 C 327.083 293.844,325.158 296.364,323.191 298.790 C 321.224 301.215,319.746 303.191,319.907 303.180 C 320.068 303.169,320.920 302.255,321.800 301.150 C 322.680 300.044,323.580 298.928,323.800 298.670 C 324.020 298.411,325.001 297.120,325.980 295.800 C 326.960 294.480,328.022 293.085,328.342 292.700 C 328.662 292.315,328.755 292.000,328.548 292.000 C 328.342 292.000,327.856 292.535,327.470 293.190 M312.800 310.347 C 304.384 318.904,294.994 326.740,288.053 331.001 C 287.694 331.221,286.140 332.222,284.600 333.226 C 283.060 334.230,280.576 335.736,279.079 336.572 C 277.583 337.408,276.437 338.170,276.533 338.266 C 277.333 339.066,295.030 326.937,303.453 319.816 C 307.908 316.050,320.363 303.509,319.540 303.619 C 319.463 303.629,316.430 306.657,312.800 310.347 M80.589 308.427 C 79.055 309.982,76.675 311.987,75.300 312.883 C 72.433 314.750,72.013 315.285,74.480 313.926 C 75.958 313.111,84.134 305.651,83.589 305.614 C 83.473 305.606,82.123 306.872,80.589 308.427 M85.195 307.000 C 87.752 309.934,95.356 317.256,99.000 320.295 C 100.980 321.946,103.050 323.683,103.600 324.156 C 104.925 325.294,107.566 327.089,106.800 326.331 C 106.470 326.004,104.220 324.141,101.800 322.190 C 99.380 320.239,94.340 315.663,90.600 312.022 C 86.860 308.380,84.428 306.121,85.195 307.000 M53.200 316.000 C 53.530 316.213,54.070 316.388,54.400 316.388 C 54.933 316.388,54.933 316.345,54.400 316.000 C 54.070 315.787,53.530 315.612,53.200 315.612 C 52.667 315.612,52.667 315.655,53.200 316.000 M56.000 316.800 C 56.550 316.976,57.450 317.117,58.000 317.113 C 58.898 317.106,58.878 317.074,57.800 316.800 C 56.108 316.369,54.656 316.369,56.000 316.800 M65.400 316.800 L 64.200 317.105 65.400 317.125 C 66.060 317.135,66.960 316.989,67.400 316.800 L 68.200 316.456 67.400 316.475 C 66.960 316.486,66.060 316.632,65.400 316.800 M61.105 317.483 C 61.602 317.579,62.322 317.575,62.705 317.475 C 63.087 317.375,62.680 317.296,61.800 317.301 C 60.920 317.305,60.607 317.387,61.105 317.483 M107.609 327.136 C 107.614 327.281,109.819 328.867,112.509 330.661 C 117.471 333.969,118.948 334.866,118.200 334.117 C 117.447 333.363,107.600 326.873,107.609 327.136 M120.800 335.967 C 121.763 336.752,122.400 337.008,122.400 336.610 C 122.400 336.506,121.815 336.135,121.100 335.786 L 119.800 335.152 120.800 335.967 M123.600 337.567 C 124.563 338.352,125.200 338.608,125.200 338.210 C 125.200 338.106,124.615 337.735,123.900 337.386 L 122.600 336.752 123.600 337.567 M270.263 341.204 C 267.217 342.713,264.173 344.140,263.498 344.376 C 262.823 344.611,262.380 344.913,262.514 345.047 C 262.772 345.306,276.000 339.007,276.000 338.625 C 276.000 338.334,276.575 338.075,270.263 341.204 M127.200 339.399 C 127.200 339.665,134.449 343.285,134.626 343.107 C 134.704 343.029,133.066 342.119,130.984 341.085 C 128.903 340.051,127.200 339.292,127.200 339.399 M135.200 343.391 C 135.200 343.682,138.912 345.222,139.117 345.016 C 139.224 344.910,138.836 344.637,138.255 344.411 C 137.675 344.185,136.750 343.824,136.200 343.610 C 135.650 343.395,135.200 343.297,135.200 343.391 M140.400 345.766 C 140.950 346.060,141.850 346.412,142.400 346.549 C 142.950 346.686,142.680 346.452,141.800 346.029 C 139.990 345.158,138.868 344.948,140.400 345.766 M259.800 346.029 C 258.920 346.452,258.650 346.686,259.200 346.549 C 260.333 346.267,262.412 345.225,261.800 345.246 C 261.580 345.253,260.680 345.606,259.800 346.029 M146.600 348.183 C 148.610 349.051,149.908 349.250,148.200 348.429 C 147.320 348.006,146.330 347.661,146.000 347.662 C 145.670 347.664,145.940 347.898,146.600 348.183 M250.689 349.215 C 248.318 350.041,245.183 351.041,243.722 351.436 C 242.261 351.832,241.264 352.221,241.507 352.302 C 242.203 352.534,255.290 348.443,255.944 347.789 C 256.376 347.358,254.757 347.797,250.689 349.215 M150.400 349.600 C 150.730 349.813,151.270 349.988,151.600 349.988 C 152.133 349.988,152.133 349.945,151.600 349.600 C 151.270 349.387,150.730 349.212,150.400 349.212 C 149.867 349.212,149.867 349.255,150.400 349.600 M155.400 351.200 C 156.596 351.714,157.595 351.714,156.800 351.200 C 156.470 350.987,155.840 350.822,155.400 350.834 L 154.600 350.856 155.400 351.200 M158.200 352.000 C 159.396 352.514,160.395 352.514,159.600 352.000 C 159.270 351.787,158.640 351.622,158.200 351.634 L 157.400 351.656 158.200 352.000 M161.200 352.779 C 161.530 353.004,162.196 353.191,162.680 353.194 C 163.165 353.197,164.605 353.473,165.880 353.806 C 176.715 356.635,194.172 358.146,208.600 357.505 C 214.842 357.227,225.162 356.171,225.564 355.769 C 225.842 355.492,224.979 355.567,219.665 356.281 C 213.191 357.151,190.436 357.277,184.000 356.479 C 178.396 355.784,170.933 354.533,167.000 353.630 C 162.319 352.555,160.473 352.284,161.200 352.779 M239.108 352.626 C 238.983 352.750,235.938 353.456,232.341 354.195 C 228.743 354.935,226.248 355.553,226.796 355.570 C 227.951 355.605,236.876 353.779,239.331 353.005 C 240.320 352.693,240.660 352.463,240.167 352.440 C 239.708 352.418,239.232 352.502,239.108 352.626 " stroke="none" fill="#94dcd4" fill-rule="evenodd"></path></g></svg>
