<svg xmlns="http://www.w3.org/2000/svg" xmlns:xlink="http://www.w3.org/1999/xlink" data-name="Layer 1" viewBox="125 125 250 250">
 <path fill="#ff5a00" d="M321.58 321.58c-13.68 13.67-40.42 21.81-71.56 21.81s-57.91-8.14-71.55-21.81-21.86-40.42-21.86-71.58 8.19-57.87 21.86-71.55 40.42-21.86 71.55-21.86 57.88 8.18 71.56 21.86 21.81 40.42 21.81 71.55-8.18 57.9-21.81 71.58zM375 250a125 125 0 1 0-125 125 125 125 0 0 0 125-125z">
 </path>
 <path fill="#ff5a00" d="M274.12 232.52v34.19a7.1 7.1 0 0 1-7.08 7.12h-34.23a7.09 7.09 0 0 1-7.08-7.12v-34.19a7.09 7.09 0 0 1 7.08-7.12H267a7.1 7.1 0 0 1 7.12 7.12z">
 </path>
 <path fill="#ff5a00" d="M308.52 191c-9.69-9.69-32.69-16-58.61-16s-48.92 6.27-58.61 16-15.95 32.72-15.95 58.65 6.22 49 15.95 58.65 32.69 16 58.61 16 48.92-6.27 58.61-16 16-32.73 16-58.65-6.27-49-16-58.65zm-22.64 94.38c-2 2-8.18 8.18-36.14 8.18s-34.15-6.14-36.14-8.18-8.18-8.18-8.18-36.14 6.14-34.11 8.18-36.14 8.14-8.14 36.14-8.14 34.11 6.1 36.14 8.14 8.14 8.18 8.14 36.14-6.14 34.08-8.14 36.11z">
 </path>
</svg>