<?xml version="1.0" encoding="UTF-8" standalone="no"?>
<svg
   xmlns:dc="http://purl.org/dc/elements/1.1/"
   xmlns:cc="http://creativecommons.org/ns#"
   xmlns:rdf="http://www.w3.org/1999/02/22-rdf-syntax-ns#"
   xmlns:svg="http://www.w3.org/2000/svg"
   xmlns="http://www.w3.org/2000/svg"
   xmlns:sodipodi="http://sodipodi.sourceforge.net/DTD/sodipodi-0.dtd"
   xmlns:inkscape="http://www.inkscape.org/namespaces/inkscape"
   inkscape:version="1.0 (4035a4fb49, 2020-05-01)"
   height="356.89999"
   width="394"
   sodipodi:docname="Infobip.svg"
   xml:space="preserve"
   viewBox="0 0 394 356.89999"
   y="0px"
   x="0px"
   id="Layer_1"
   version="1.1"><metadata
   id="metadata60"><rdf:RDF><cc:Work
       rdf:about=""><dc:format>image/svg+xml</dc:format><dc:type
         rdf:resource="http://purl.org/dc/dcmitype/StillImage" /><dc:title></dc:title></cc:Work></rdf:RDF></metadata><defs
   id="defs58" /><sodipodi:namedview
   inkscape:current-layer="Layer_1"
   inkscape:window-maximized="1"
   inkscape:window-y="-8"
   inkscape:window-x="-8"
   inkscape:cy="178.45"
   inkscape:cx="197"
   inkscape:zoom="1.3792146"
   fit-margin-bottom="0"
   fit-margin-right="0"
   fit-margin-left="0"
   fit-margin-top="0"
   showgrid="false"
   id="namedview56"
   inkscape:window-height="1017"
   inkscape:window-width="1920"
   inkscape:pageshadow="2"
   inkscape:pageopacity="0"
   guidetolerance="10"
   gridtolerance="10"
   objecttolerance="10"
   borderopacity="1"
   bordercolor="#666666"
   pagecolor="#ffffff" />
<style
   id="style2"
   type="text/css">
	.st0{fill:#36393B;}
	.st1{fill:#FF5A00;}
</style>
<g
   transform="translate(-103,-121.55)"
   id="Infobip_Logo_Vertical_RGB_1_">
	<g
   id="g52">
		<g
   id="g32">
			<path
   id="path4"
   d="m 175.07,391.69 c -8.09,0 -14.61,2.67 -19.55,8.01 l -2.66,-6.56 h -16.9 v 60.1 h 21.33 v -32.23 c 0,-7.08 4.31,-11.79 10.75,-11.92 5.3,-0.11 9.61,4.31 9.61,9.61 v 34.53 h 21.33 v -38 c 0,-6.92 -2.17,-12.51 -6.64,-16.88 -4.48,-4.48 -10.15,-6.66 -17.27,-6.66 z"
   class="st0" />
			<g
   id="g10">
				<rect
   id="rect6"
   height="21.33"
   width="21.33"
   class="st0"
   y="366"
   x="103" />
				<rect
   id="rect8"
   height="60.099998"
   width="21.33"
   class="st0"
   y="393.14001"
   x="103" />
			</g>
			<g
   id="g14">
				<path
   id="path12"
   d="m 489.13,400.54 c -5.23,-5.93 -11.89,-8.83 -20.02,-8.83 -7.3,0 -13.23,2.3 -17.85,7.01 l -2.68,-5.58 h -16.96 v 85.31 h 21.33 v -29.49 c 4.75,3.76 10.07,5.71 16.16,5.71 8.13,0 14.79,-2.93 20.02,-8.73 5.2,-5.96 7.87,-13.48 7.87,-22.7 0,-9.35 -2.68,-16.87 -7.87,-22.7 z m -25.35,37.69 c -6.46,0 -10.83,-4.86 -10.83,-11.54 v -6.33 c 0,-6.81 4.38,-11.66 10.83,-11.66 6.93,0 11.92,6.07 11.92,14.83 0,8.63 -4.99,14.7 -11.92,14.7 z"
   class="st0" />
			</g>
			<g
   id="g20">
				<path
   id="path16"
   d="m 409.53,365.27 c -6.93,0 -12.16,5.11 -12.16,12.28 0,6.93 5.23,12.16 12.16,12.16 7.3,0 12.28,-5.23 12.28,-12.16 0.01,-7.17 -4.98,-12.28 -12.28,-12.28 z"
   class="st0" />
				<rect
   id="rect18"
   height="60.099998"
   width="21.33"
   class="st0"
   y="393.14001"
   x="398.66" />
			</g>
			<g
   id="g24">
				<path
   id="path22"
   d="m 309.56,400.77 c -6.33,-5.94 -14.61,-8.85 -24.67,-8.85 -10.1,0 -18.25,2.91 -24.7,8.85 -6.46,5.98 -9.62,13.52 -9.62,22.75 0,9.24 3.16,16.78 9.62,22.75 6.46,5.82 14.61,8.76 24.7,8.76 10.07,0 18.34,-2.94 24.67,-8.76 6.46,-5.98 9.62,-13.52 9.62,-22.75 0,-9.36 -3.17,-16.9 -9.62,-22.75 z m -24.67,37.72 c -7.32,0 -12.43,-6.2 -12.43,-14.96 0,-8.88 5.11,-15.08 12.43,-15.08 7.29,0 12.53,6.2 12.53,15.08 -0.01,8.76 -5.25,14.96 -12.53,14.96 z"
   class="st0" />
			</g>
			<path
   id="path26"
   d="m 242.23,383.29 c 1.94,0 4.24,0.24 7.03,0.73 l 2.66,-15.81 c -4.97,-1.34 -9.93,-1.95 -14.9,-1.95 -6.66,0 -12.12,1.95 -16.36,5.84 -4.12,3.89 -6.18,9 -6.18,15.45 v 5.6 h -10.66 v 16.48 h 10.66 v 43.62 h 21.33 v -43.62 h 11.63 V 393.15 H 235.8 v -3.4 c 0,-4.03 2.55,-6.46 6.43,-6.46 z"
   class="st0" />
			<g
   id="g30">
				<path
   id="path28"
   d="m 383.38,400.64 c -5.19,-5.92 -11.87,-8.82 -19.99,-8.82 -6.18,0 -11.49,1.91 -16.11,5.67 v -29.55 h -21.33 v 85.31 h 16.97 l 2.67,-5.57 c 4.58,4.71 10.54,7.04 17.79,7.04 8.12,0 14.8,-2.93 19.99,-8.72 5.22,-5.95 7.89,-13.47 7.89,-22.67 0.01,-9.35 -2.66,-16.86 -7.88,-22.69 z m -26.23,37.59 c -6.46,0 -10.83,-4.86 -10.83,-11.54 v -6.33 c 0,-6.81 4.38,-11.66 10.83,-11.66 6.9,0 11.89,6.07 11.89,14.83 0,8.63 -4.99,14.7 -11.89,14.7 z"
   class="st0" />
			</g>
		</g>
		<g
   id="g50">
			<g
   id="g40">
				<path
   id="path34"
   d="m 319.17,206.77 v 26.69 c 0,3.08 -2.48,5.56 -5.53,5.56 H 286.9 c -3.05,0 -5.53,-2.48 -5.53,-5.56 v -26.69 c 0,-3.08 2.48,-5.56 5.53,-5.56 h 26.74 c 3.05,0 5.53,2.47 5.53,5.56 z"
   class="st1" />
				<path
   id="path36"
   d="m 346.09,173.64 c -7.61,-7.61 -25.69,-12.53 -46.05,-12.53 -20.36,0 -38.41,4.92 -46.02,12.53 -7.64,7.61 -12.53,25.69 -12.53,46.05 0,20.36 4.89,38.45 12.53,46.05 7.61,7.61 25.66,12.53 46.02,12.53 20.36,0 38.45,-4.92 46.05,-12.53 3.8,-3.8 6.93,-10.23 9.11,-18.25 2.21,-8.02 3.42,-17.64 3.42,-27.8 -0.01,-20.35 -4.93,-38.44 -12.53,-46.05 z m -17.8,74.12 c -1.6,1.6 -6.42,6.42 -28.38,6.42 -21.99,0 -26.81,-4.83 -28.38,-6.42 -1.6,-1.6 -6.42,-6.42 -6.42,-28.38 0,-21.96 4.83,-26.78 6.42,-28.38 1.57,-1.6 6.39,-6.39 28.38,-6.39 21.96,0 26.78,4.79 28.38,6.39 1.57,1.6 6.39,6.42 6.39,28.38 0,21.96 -4.83,26.78 -6.39,28.38 z"
   class="st1" />
				<path
   id="path38"
   d="m 319.17,206.77 v 26.69 c 0,3.08 -2.48,5.56 -5.53,5.56 H 286.9 c -3.05,0 -5.53,-2.48 -5.53,-5.56 v -26.69 c 0,-3.08 2.48,-5.56 5.53,-5.56 h 26.74 c 3.05,0 5.53,2.47 5.53,5.56 z"
   class="st1" />
			</g>
			<path
   id="path42"
   d="m 319.17,206.77 v 26.69 c 0,3.08 -2.48,5.56 -5.53,5.56 H 286.9 c -3.05,0 -5.53,-2.48 -5.53,-5.56 v -26.69 c 0,-3.08 2.48,-5.56 5.53,-5.56 h 26.74 c 3.05,0 5.53,2.47 5.53,5.56 z"
   class="st1" />
			<path
   id="path44"
   d="m 319.17,206.77 v 26.69 c 0,3.08 -2.48,5.56 -5.53,5.56 H 286.9 c -3.05,0 -5.53,-2.48 -5.53,-5.56 v -26.69 c 0,-3.08 2.48,-5.56 5.53,-5.56 h 26.74 c 3.05,0 5.53,2.47 5.53,5.56 z"
   class="st1" />
			<path
   id="path46"
   d="m 346.09,173.64 c -7.61,-7.61 -25.69,-12.53 -46.05,-12.53 -20.36,0 -38.41,4.92 -46.02,12.53 -7.64,7.61 -12.53,25.69 -12.53,46.05 0,20.36 4.89,38.45 12.53,46.05 7.61,7.61 25.66,12.53 46.02,12.53 20.36,0 38.45,-4.92 46.05,-12.53 3.8,-3.8 6.93,-10.23 9.11,-18.25 2.21,-8.02 3.42,-17.64 3.42,-27.8 -0.01,-20.35 -4.93,-38.44 -12.53,-46.05 z m -17.8,74.12 c -1.6,1.6 -6.42,6.42 -28.38,6.42 -21.99,0 -26.81,-4.83 -28.38,-6.42 -1.6,-1.6 -6.42,-6.42 -6.42,-28.38 0,-21.96 4.83,-26.78 6.42,-28.38 1.57,-1.6 6.39,-6.39 28.38,-6.39 21.96,0 26.78,4.79 28.38,6.39 1.57,1.6 6.39,6.42 6.39,28.38 0,21.96 -4.83,26.78 -6.39,28.38 z"
   class="st1" />
			<path
   id="path48"
   d="m 300.04,121.55 c -54.2,0 -98.14,43.94 -98.14,98.14 0,53.75 43.21,97.41 96.8,98.14 54.9,0.73 100.22,-44.61 99.49,-99.52 -0.75,-53.55 -44.4,-96.76 -98.15,-96.76 z m 56.27,154.65 c -10.74,10.74 -31.73,17.13 -56.18,17.13 -24.45,0 -45.48,-6.39 -56.18,-17.13 -10.74,-10.74 -17.16,-31.73 -17.16,-56.18 0,-24.45 6.42,-45.44 17.16,-56.18 10.71,-10.74 31.73,-17.16 56.18,-17.16 24.45,0 45.45,6.42 56.18,17.16 10.71,10.74 17.13,31.73 17.13,56.18 0,24.44 -6.42,45.44 -17.13,56.18 z"
   class="st1" />
		</g>
	</g>
</g>
</svg>
