<svg id="svg" version="1.1" xmlns="http://www.w3.org/2000/svg" xmlns:xlink="http://www.w3.org/1999/xlink" width="400" height="400" viewBox="0, 0, 400,400"><g id="svgg"><path id="path0" d="M274.197 99.195 C 274.337 99.422,274.177 99.489,273.821 99.353 C 273.418 99.198,273.200 99.341,273.200 99.757 C 273.200 100.777,275.413 100.625,275.490 99.600 C 275.532 99.047,275.304 98.800,274.752 98.800 C 274.312 98.800,274.063 98.978,274.197 99.195 M287.600 124.485 C 287.600 125.475,289.013 125.419,289.088 124.427 C 289.128 123.892,288.908 123.672,288.373 123.712 C 287.919 123.746,287.600 124.065,287.600 124.485 M293.475 132.658 C 292.928 133.206,293.217 134.000,293.965 134.000 C 294.456 134.000,294.694 133.758,294.630 133.322 C 294.520 132.578,293.908 132.226,293.475 132.658 M300.131 143.000 C 300.274 144.294,302.000 145.081,302.000 143.851 C 302.000 143.108,301.206 142.547,301.186 143.276 C 301.178 143.564,300.908 143.350,300.585 142.800 L 299.998 141.800 300.131 143.000 M306.800 157.982 C 306.800 158.588,307.060 158.800,307.800 158.800 C 308.350 158.800,308.797 158.665,308.794 158.500 C 308.769 157.288,306.800 156.777,306.800 157.982 M319.600 177.235 C 319.600 177.722,319.878 178.000,320.365 178.000 C 321.316 178.000,321.228 176.710,320.267 176.569 C 319.843 176.506,319.600 176.749,319.600 177.235 M324.400 186.200 C 324.400 187.251,325.263 187.528,326.365 186.830 C 326.845 186.526,326.834 186.377,326.293 185.836 C 325.319 184.862,324.400 185.039,324.400 186.200 M331.485 199.848 C 330.801 200.533,331.189 203.272,332.000 203.484 C 332.597 203.640,332.800 204.030,332.800 205.018 C 332.800 205.747,333.061 206.604,333.380 206.923 C 335.438 208.981,335.597 233.682,333.562 235.149 C 333.074 235.500,332.800 236.179,332.800 237.035 C 332.800 237.962,332.555 238.503,332.000 238.800 C 331.430 239.105,331.200 239.638,331.200 240.652 C 331.200 241.436,330.855 242.560,330.434 243.152 C 330.013 243.743,329.541 244.910,329.384 245.745 C 329.227 246.581,328.852 247.359,328.550 247.475 C 328.247 247.591,327.451 248.836,326.780 250.243 C 326.095 251.677,325.300 252.800,324.970 252.800 C 324.645 252.800,324.209 253.250,324.000 253.800 C 323.791 254.350,323.345 254.800,323.010 254.800 C 322.674 254.800,322.400 255.146,322.400 255.568 C 322.400 256.586,318.957 260.000,317.931 260.000 C 317.462 260.000,317.038 260.334,316.916 260.800 C 316.801 261.240,316.464 261.600,316.167 261.600 C 315.871 261.600,315.448 261.936,315.228 262.347 C 315.008 262.758,314.298 263.200,313.650 263.330 C 312.544 263.551,309.600 266.118,309.600 266.861 C 309.600 267.048,308.880 267.200,308.000 267.200 C 306.904 267.200,306.400 267.374,306.400 267.753 C 306.400 268.331,305.228 268.785,303.716 268.795 C 303.229 268.798,302.509 269.140,302.116 269.554 C 301.722 269.969,300.633 270.436,299.695 270.590 C 298.698 270.755,297.833 271.164,297.614 271.574 C 297.310 272.142,296.485 272.324,293.319 272.521 C 291.163 272.656,287.646 272.990,285.501 273.264 C 282.453 273.653,281.312 273.657,280.273 273.281 C 278.445 272.620,275.067 272.678,273.338 273.400 C 272.082 273.925,264.002 274.000,208.941 274.000 L 145.980 274.000 145.600 275.000 C 145.391 275.550,145.037 276.000,144.815 276.000 C 144.592 276.000,144.294 276.720,144.154 277.600 C 144.003 278.541,143.678 279.200,143.363 279.200 C 143.069 279.200,142.613 279.605,142.351 280.100 C 142.088 280.595,141.542 281.235,141.137 281.523 C 140.731 281.810,140.400 282.227,140.400 282.448 C 140.400 282.670,139.950 283.835,139.400 285.037 C 138.850 286.240,138.400 287.377,138.400 287.565 C 138.400 287.753,138.040 288.001,137.600 288.116 C 137.140 288.236,136.800 288.662,136.800 289.116 C 136.800 289.570,136.460 289.996,136.000 290.116 C 135.389 290.276,135.200 290.662,135.200 291.748 C 135.200 292.762,134.970 293.295,134.400 293.600 C 133.844 293.897,133.600 294.438,133.600 295.368 C 133.600 296.338,133.337 296.880,132.649 297.331 C 132.078 297.705,131.591 298.524,131.431 299.377 C 131.279 300.183,130.927 300.800,130.617 300.800 C 130.293 300.800,129.963 301.436,129.807 302.361 C 129.626 303.430,129.300 303.985,128.771 304.123 C 128.338 304.237,128.000 304.671,128.000 305.116 C 128.000 305.570,127.660 305.996,127.200 306.116 C 126.674 306.254,126.400 306.662,126.400 307.309 C 126.400 307.850,126.051 308.736,125.625 309.278 C 125.198 309.820,124.725 310.758,124.573 311.364 C 124.421 311.969,124.036 312.565,123.718 312.687 C 123.399 312.809,122.977 313.335,122.779 313.855 C 122.582 314.375,122.156 314.800,121.834 314.800 C 121.447 314.800,121.158 315.410,120.979 316.600 C 120.813 317.704,120.502 318.400,120.173 318.400 C 119.868 318.400,119.518 319.049,119.362 319.900 C 119.177 320.909,118.583 321.870,117.546 322.836 C 116.649 323.673,115.899 324.805,115.750 325.550 C 115.609 326.253,115.158 327.008,114.747 327.228 C 114.276 327.480,114.000 328.065,114.000 328.811 C 114.000 329.566,113.707 330.175,113.190 330.497 C 112.707 330.797,112.280 331.620,112.133 332.534 C 111.998 333.378,111.641 334.163,111.341 334.278 C 111.041 334.393,110.683 335.188,110.547 336.044 C 110.360 337.209,110.110 337.600,109.549 337.600 C 109.137 337.600,108.800 337.842,108.800 338.138 C 108.800 338.434,108.458 338.986,108.040 339.364 C 107.621 339.743,107.171 340.631,107.038 341.339 C 106.905 342.046,106.432 342.937,105.987 343.318 C 105.542 343.699,105.070 344.549,104.939 345.206 C 104.807 345.863,104.448 346.400,104.140 346.400 C 103.832 346.400,103.418 346.825,103.221 347.345 C 103.023 347.865,102.577 348.400,102.231 348.533 C 101.817 348.692,101.600 349.274,101.600 350.225 C 101.600 351.309,101.410 351.725,100.846 351.872 C 100.332 352.007,100.011 352.569,99.841 353.635 C 99.703 354.496,99.389 355.200,99.143 355.200 C 98.615 355.200,96.000 357.887,96.000 358.428 C 96.000 358.633,95.733 358.800,95.408 358.800 C 95.082 358.800,94.707 359.233,94.574 359.762 C 94.441 360.291,93.987 360.815,93.566 360.925 C 93.145 361.035,92.800 361.391,92.800 361.716 C 92.800 362.041,92.440 362.401,92.000 362.516 C 91.560 362.631,91.200 363.012,91.200 363.363 C 91.200 363.713,91.047 364.000,90.859 364.000 C 90.562 364.000,89.669 364.730,87.170 367.016 C 86.824 367.333,85.985 367.703,85.306 367.839 C 84.565 367.987,83.992 368.389,83.873 368.843 C 83.743 369.341,83.319 369.600,82.634 369.600 C 82.061 369.600,81.284 369.960,80.907 370.400 C 80.426 370.962,79.727 371.200,78.558 371.200 C 77.252 371.200,76.850 371.366,76.692 371.969 C 76.546 372.529,75.990 372.812,74.646 373.014 C 73.631 373.166,72.800 373.454,72.800 373.654 C 72.800 374.157,71.410 374.685,68.700 375.211 C 66.849 375.570,66.400 375.807,66.400 376.428 C 66.400 377.189,68.389 377.200,207.000 377.200 C 347.333 377.200,347.600 377.198,347.600 376.400 C 347.600 375.641,347.867 375.600,352.800 375.600 C 357.685 375.600,358.000 375.553,358.000 374.822 C 358.000 374.177,358.326 374.023,359.900 373.922 C 361.640 373.810,361.811 373.707,361.927 372.700 C 362.041 371.708,362.207 371.600,363.627 371.600 C 364.933 371.600,365.200 371.464,365.200 370.800 C 365.200 370.107,365.467 370.000,367.200 370.000 C 368.933 370.000,369.200 369.893,369.200 369.200 C 369.200 368.533,369.467 368.400,370.800 368.400 C 372.133 368.400,372.400 368.267,372.400 367.600 C 372.400 367.067,372.667 366.800,373.200 366.800 C 373.736 366.800,374.000 366.533,374.000 365.992 C 374.000 365.352,374.204 365.221,374.987 365.363 C 375.845 365.519,376.008 365.363,376.232 364.171 C 376.417 363.184,376.701 362.800,377.245 362.800 C 377.733 362.800,378.000 362.518,378.000 362.000 C 378.000 361.467,378.267 361.200,378.800 361.200 C 379.333 361.200,379.600 360.933,379.600 360.400 C 379.600 359.867,379.867 359.600,380.400 359.600 C 380.933 359.600,381.200 359.333,381.200 358.800 C 381.200 358.267,381.467 358.000,382.000 358.000 C 382.533 358.000,382.800 357.733,382.800 357.200 C 382.800 356.739,383.067 356.400,383.429 356.400 C 384.471 356.400,385.200 355.341,385.200 353.829 C 385.200 352.667,385.349 352.400,386.000 352.400 C 386.517 352.400,386.800 352.133,386.800 351.647 C 386.800 351.230,387.157 350.800,387.600 350.684 C 388.213 350.524,388.400 350.138,388.400 349.037 C 388.400 347.867,388.548 347.600,389.200 347.600 C 389.817 347.600,390.000 347.333,390.000 346.433 C 390.000 345.792,390.225 345.176,390.500 345.065 C 390.900 344.904,390.900 344.857,390.500 344.832 C 389.577 344.773,389.871 342.000,390.800 342.000 C 391.524 342.000,391.600 341.733,391.600 339.200 L 391.600 336.400 392.778 336.400 C 394.168 336.400,394.462 334.681,393.873 330.000 C 393.692 328.570,393.653 323.080,393.784 317.800 C 394.024 308.144,393.838 304.875,393.121 306.155 C 392.284 307.652,391.600 306.863,391.600 304.400 C 391.600 302.267,391.511 302.000,390.800 302.000 C 390.076 302.000,390.000 301.733,390.000 299.200 C 390.000 296.667,389.924 296.400,389.200 296.400 C 388.667 296.400,388.400 296.133,388.400 295.600 C 388.400 295.067,388.133 294.800,387.600 294.800 C 386.920 294.800,386.800 294.533,386.800 293.027 C 386.800 291.605,386.641 291.204,386.000 291.000 C 385.560 290.860,385.200 290.584,385.200 290.386 C 385.200 290.187,385.472 290.129,385.805 290.257 C 386.236 290.423,386.339 290.306,386.163 289.847 C 386.027 289.494,385.778 289.290,385.608 289.395 C 385.439 289.500,385.176 288.824,385.025 287.893 C 384.780 286.389,384.691 286.278,384.231 286.900 C 383.535 287.838,382.800 287.787,382.800 286.800 C 382.800 286.267,382.533 286.000,382.000 286.000 C 381.307 286.000,381.200 285.733,381.200 284.000 C 381.200 282.267,381.093 282.000,380.400 282.000 C 379.733 282.000,379.600 281.733,379.600 280.400 C 379.600 279.067,379.467 278.800,378.800 278.800 C 377.885 278.800,377.777 278.387,378.500 277.651 C 378.775 277.372,378.820 277.177,378.600 277.219 C 376.856 277.550,376.444 277.203,376.322 275.300 C 376.210 273.560,376.107 273.389,375.100 273.273 C 374.038 273.151,374.000 273.065,374.000 270.773 C 374.000 268.667,373.910 268.400,373.200 268.400 C 372.622 268.400,372.400 268.133,372.400 267.437 C 372.400 266.672,372.236 266.518,371.600 266.684 C 370.877 266.873,370.800 266.696,370.800 264.847 C 370.800 263.067,370.696 262.800,370.000 262.800 C 369.467 262.800,369.200 262.533,369.200 262.000 C 369.200 261.378,368.933 261.200,368.000 261.200 C 366.844 261.200,366.800 261.133,366.800 259.400 C 366.800 257.884,366.677 257.600,366.022 257.600 C 365.377 257.600,365.223 257.274,365.122 255.700 C 365.022 254.148,364.872 253.822,364.300 253.918 C 363.823 253.998,363.600 253.774,363.600 253.218 C 363.600 252.674,363.339 252.400,362.822 252.400 C 362.177 252.400,362.023 252.074,361.922 250.500 C 361.824 248.977,361.661 248.611,361.100 248.656 C 360.290 248.720,360.121 247.379,360.900 247.065 C 361.300 246.904,361.300 246.857,360.900 246.832 C 360.625 246.814,360.400 246.296,360.400 245.680 C 360.400 244.163,359.728 243.600,357.920 243.600 L 356.400 243.600 356.400 241.800 C 356.400 240.267,356.281 240.000,355.600 240.000 C 354.919 240.000,354.800 239.733,354.800 238.200 C 354.800 236.667,354.681 236.400,354.000 236.400 C 353.467 236.400,353.200 236.133,353.200 235.600 C 353.200 235.067,352.933 234.800,352.400 234.800 C 351.705 234.800,351.600 234.533,351.600 232.768 L 351.600 230.736 350.400 231.000 C 349.203 231.263,349.200 231.259,349.200 229.432 C 349.200 227.867,349.084 227.600,348.400 227.600 C 347.719 227.600,347.600 227.333,347.600 225.800 C 347.600 224.281,347.478 224.000,346.819 224.000 C 346.141 224.000,346.023 223.672,345.919 221.500 L 345.800 219.000 344.099 218.877 L 342.398 218.754 342.643 217.219 C 342.877 215.757,342.830 215.670,341.663 215.414 C 340.473 215.153,340.433 215.070,340.318 212.672 L 340.200 210.200 338.700 210.076 C 337.242 209.955,337.200 209.908,337.200 208.376 C 337.200 207.067,337.065 206.800,336.400 206.800 C 335.544 206.800,335.485 206.617,335.592 204.300 C 335.650 203.040,335.532 202.800,334.855 202.800 C 334.212 202.800,334.023 202.496,333.924 201.300 C 333.802 199.825,332.364 198.969,331.485 199.848 " stroke="none" fill="#fbbb04" fill-rule="evenodd"></path><path id="path1" d="M248.254 57.004 C 247.946 57.806,248.386 60.047,248.998 60.800 C 249.266 61.130,249.678 62.120,249.914 63.000 C 250.150 63.880,250.641 65.410,251.006 66.400 C 251.809 68.578,251.760 85.831,250.948 86.839 C 250.700 87.148,250.204 88.420,249.847 89.667 C 249.489 90.914,248.992 92.003,248.742 92.086 C 248.493 92.169,248.145 93.295,247.969 94.589 C 247.772 96.041,247.411 97.074,247.025 97.290 C 246.642 97.504,246.400 98.187,246.400 99.051 C 246.400 100.191,246.053 100.810,244.600 102.263 C 243.610 103.253,242.800 104.401,242.800 104.814 C 242.800 105.227,242.350 106.228,241.800 107.038 C 241.250 107.849,240.800 108.826,240.800 109.209 C 240.800 109.593,240.467 109.994,240.060 110.100 C 239.557 110.232,239.237 110.810,239.062 111.903 C 238.920 112.788,238.533 113.617,238.202 113.744 C 237.871 113.871,237.600 114.326,237.600 114.755 C 237.600 115.886,237.183 116.797,236.657 116.817 C 236.122 116.837,234.816 118.804,234.011 120.800 C 233.701 121.570,233.219 122.340,232.940 122.511 C 232.661 122.682,232.312 123.461,232.166 124.243 C 232.019 125.024,231.638 125.764,231.319 125.886 C 231.000 126.009,230.577 126.535,230.379 127.055 C 230.182 127.575,229.745 128.000,229.410 128.000 C 228.984 128.000,228.800 128.407,228.800 129.351 C 228.800 130.094,228.549 130.910,228.243 131.164 C 227.937 131.419,227.452 132.206,227.166 132.913 C 226.880 133.621,225.955 134.880,225.110 135.711 C 224.230 136.578,223.471 137.773,223.330 138.511 C 223.195 139.220,222.751 140.122,222.342 140.516 C 221.934 140.909,221.600 141.667,221.600 142.200 C 221.600 142.733,221.255 143.491,220.832 143.884 C 220.410 144.278,219.937 145.110,219.781 145.732 C 219.625 146.355,219.268 146.953,218.988 147.060 C 218.708 147.167,218.364 147.868,218.223 148.616 C 218.067 149.452,217.280 150.694,216.184 151.838 C 215.111 152.958,214.400 154.073,214.400 154.636 C 214.400 155.162,214.050 155.759,213.600 156.000 C 213.030 156.305,212.800 156.838,212.800 157.852 C 212.800 158.938,212.611 159.324,212.000 159.484 C 211.560 159.599,211.200 159.877,211.200 160.101 C 211.200 160.325,210.750 160.925,210.200 161.435 C 209.650 161.945,209.200 162.798,209.200 163.332 C 209.200 163.865,208.942 164.517,208.626 164.779 C 208.310 165.041,207.938 165.774,207.798 166.407 C 207.566 167.465,206.101 169.682,204.609 171.234 C 204.274 171.582,204.000 172.161,204.000 172.519 C 204.000 172.878,203.640 173.365,203.200 173.600 C 202.694 173.871,202.400 174.438,202.400 175.142 C 202.400 175.820,201.920 176.793,201.175 177.628 C 199.729 179.246,199.988 182.332,201.676 183.609 C 202.573 184.287,204.000 187.018,204.000 188.055 C 204.000 188.938,204.221 189.333,204.800 189.484 C 205.240 189.599,205.600 190.013,205.600 190.404 C 205.600 190.795,205.847 191.209,206.150 191.325 C 206.452 191.441,207.468 193.081,208.407 194.968 C 209.347 196.856,210.236 198.400,210.383 198.400 C 210.530 198.400,210.898 199.030,211.200 199.800 C 211.502 200.570,211.986 201.200,212.275 201.200 C 212.564 201.200,212.800 201.553,212.800 201.984 C 212.800 202.416,213.139 203.091,213.553 203.484 C 213.968 203.878,214.431 204.830,214.583 205.600 C 215.061 208.019,215.220 208.353,216.020 208.606 C 216.449 208.743,216.800 209.100,216.800 209.400 C 216.800 209.700,217.160 210.060,217.600 210.200 C 218.094 210.357,218.400 210.805,218.400 211.373 C 218.400 211.879,218.734 212.721,219.142 213.246 C 219.550 213.771,220.005 214.855,220.152 215.656 C 220.332 216.633,220.680 217.180,221.210 217.318 C 221.679 217.441,222.000 217.865,222.000 218.363 C 222.000 218.823,222.250 219.200,222.555 219.200 C 222.878 219.200,223.226 219.811,223.384 220.655 C 223.637 222.006,225.013 224.428,225.700 224.733 C 225.865 224.807,226.000 225.102,226.000 225.391 C 226.000 225.679,226.270 226.018,226.600 226.145 C 226.930 226.271,227.200 226.701,227.200 227.099 C 227.200 227.497,227.560 228.130,228.000 228.507 C 228.440 228.884,228.802 229.689,228.805 230.296 C 228.814 232.100,229.226 233.114,230.037 233.326 C 230.457 233.435,230.800 233.791,230.800 234.116 C 230.800 234.441,231.160 234.801,231.600 234.916 C 232.040 235.031,232.400 235.445,232.400 235.837 C 232.400 236.228,232.775 236.948,233.234 237.436 C 233.693 237.924,234.234 239.063,234.437 239.965 C 234.671 241.007,235.313 242.086,236.196 242.918 C 236.960 243.639,237.699 244.796,237.838 245.489 C 237.976 246.182,238.323 246.838,238.607 246.947 C 238.892 247.057,239.243 247.683,239.387 248.340 C 239.531 248.996,239.885 249.624,240.173 249.734 C 240.461 249.845,240.823 250.436,240.976 251.047 C 241.130 251.659,241.648 252.538,242.128 253.000 C 242.607 253.462,243.900 254.864,245.000 256.114 C 246.100 257.365,247.225 258.391,247.500 258.394 C 247.775 258.397,248.000 258.687,248.000 259.037 C 248.000 259.388,248.360 259.769,248.800 259.884 C 249.240 259.999,249.600 260.347,249.600 260.657 C 249.600 260.966,250.155 261.331,250.834 261.467 C 251.513 261.603,252.156 261.942,252.263 262.220 C 252.370 262.499,252.991 262.948,253.644 263.218 C 254.297 263.489,255.010 264.045,255.229 264.455 C 255.449 264.865,255.885 265.200,256.200 265.200 C 256.515 265.200,256.959 265.549,257.187 265.976 C 257.460 266.487,258.223 266.844,259.421 267.024 C 260.421 267.174,261.475 267.532,261.762 267.819 C 262.050 268.107,262.955 268.468,263.774 268.622 C 264.594 268.775,265.358 269.146,265.473 269.446 C 265.588 269.746,266.421 270.190,267.325 270.434 C 268.228 270.677,269.155 271.106,269.384 271.387 C 270.000 272.144,273.188 272.800,276.249 272.800 C 277.731 272.800,279.542 273.016,280.273 273.281 C 281.312 273.657,282.453 273.653,285.501 273.264 C 287.646 272.990,291.163 272.656,293.319 272.521 C 296.485 272.324,297.310 272.142,297.614 271.574 C 297.833 271.164,298.698 270.755,299.695 270.590 C 300.633 270.436,301.722 269.969,302.116 269.554 C 302.509 269.140,303.229 268.798,303.716 268.795 C 305.228 268.785,306.400 268.331,306.400 267.753 C 306.400 267.374,306.904 267.200,308.000 267.200 C 308.880 267.200,309.600 267.048,309.600 266.861 C 309.600 266.118,312.544 263.551,313.650 263.330 C 314.298 263.200,315.008 262.758,315.228 262.347 C 315.448 261.936,315.871 261.600,316.167 261.600 C 316.464 261.600,316.801 261.240,316.916 260.800 C 317.038 260.334,317.462 260.000,317.931 260.000 C 318.957 260.000,322.400 256.586,322.400 255.568 C 322.400 255.146,322.674 254.800,323.010 254.800 C 323.345 254.800,323.791 254.350,324.000 253.800 C 324.209 253.250,324.645 252.800,324.970 252.800 C 325.300 252.800,326.095 251.677,326.780 250.243 C 327.451 248.836,328.247 247.591,328.550 247.475 C 328.852 247.359,329.227 246.581,329.384 245.745 C 329.541 244.910,330.013 243.743,330.434 243.152 C 330.855 242.560,331.200 241.436,331.200 240.652 C 331.200 239.638,331.430 239.105,332.000 238.800 C 332.555 238.503,332.800 237.962,332.800 237.035 C 332.800 236.179,333.074 235.500,333.562 235.149 C 335.597 233.682,335.438 208.981,333.380 206.923 C 333.061 206.604,332.800 205.747,332.800 205.018 C 332.800 204.002,332.601 203.641,331.946 203.470 C 331.139 203.259,331.108 203.088,331.376 200.369 C 331.649 197.590,331.631 197.499,330.830 197.708 C 330.073 197.906,330.000 197.751,330.000 195.963 C 330.000 194.267,329.891 194.000,329.200 194.000 C 328.533 194.000,328.400 193.733,328.400 192.400 C 328.400 190.968,328.297 190.800,327.419 190.800 C 326.476 190.800,326.447 190.721,326.675 188.799 L 326.912 186.798 325.656 187.049 C 324.503 187.279,324.400 187.214,324.400 186.250 C 324.400 185.467,324.197 185.200,323.600 185.200 C 322.933 185.200,322.800 184.933,322.800 183.600 C 322.800 182.267,322.667 182.000,322.000 182.000 C 321.307 182.000,321.200 181.733,321.200 180.000 C 321.200 178.267,321.093 178.000,320.400 178.000 C 319.670 178.000,319.297 176.721,319.553 175.100 C 319.579 174.935,319.465 174.821,319.300 174.847 C 318.487 174.976,318.075 174.729,317.884 174.000 C 317.743 173.459,317.338 173.200,316.637 173.200 C 315.659 173.200,315.600 173.086,315.600 171.200 C 315.600 169.467,315.493 169.200,314.800 169.200 C 314.148 169.200,314.000 168.933,314.000 167.763 C 314.000 166.662,313.813 166.276,313.200 166.116 C 312.757 166.000,312.400 165.570,312.400 165.153 C 312.400 164.678,312.118 164.400,311.633 164.400 C 310.707 164.400,310.521 163.939,310.729 162.156 C 310.880 160.863,311.693 160.316,312.137 161.210 C 312.249 161.436,312.294 161.391,312.239 161.110 C 312.179 160.807,311.386 160.551,310.287 160.479 C 308.491 160.361,308.447 160.328,308.818 159.353 C 309.320 158.033,309.302 157.200,308.773 157.200 C 308.528 157.200,308.454 157.541,308.600 158.000 C 308.809 158.658,308.672 158.800,307.827 158.800 C 306.838 158.800,306.800 158.710,306.800 156.400 C 306.800 154.267,306.711 154.000,306.000 154.000 C 305.404 154.000,305.200 153.733,305.200 152.953 C 305.200 152.103,305.350 151.946,306.001 152.116 C 306.454 152.235,306.699 152.160,306.565 151.944 C 306.435 151.734,306.030 151.591,305.665 151.627 C 303.822 151.808,303.600 151.633,303.600 150.000 C 303.600 148.580,303.493 148.400,302.645 148.400 C 301.755 148.400,301.698 148.270,301.812 146.500 C 301.920 144.833,301.828 144.573,301.067 144.380 C 300.363 144.202,300.208 143.882,300.241 142.680 C 300.278 141.310,300.196 141.200,299.141 141.200 C 298.267 141.200,298.000 141.013,298.000 140.400 C 298.000 139.867,297.733 139.600,297.200 139.600 C 296.519 139.600,296.400 139.333,296.400 137.800 C 296.400 136.080,297.174 135.275,297.737 136.410 C 297.849 136.636,297.890 136.591,297.828 136.310 C 297.756 135.983,297.193 135.842,296.258 135.917 C 294.932 136.024,294.800 135.942,294.800 135.017 C 294.800 134.256,294.592 134.000,293.975 134.000 C 293.429 134.000,293.174 133.763,293.221 133.300 C 293.432 131.224,293.222 130.800,291.982 130.800 C 290.606 130.800,290.564 128.374,291.921 127.300 C 292.300 127.000,292.362 126.800,292.076 126.800 C 291.814 126.800,291.600 126.541,291.600 126.224 C 291.600 125.907,291.421 125.536,291.201 125.401 C 290.940 125.239,290.943 125.523,291.209 126.223 C 291.554 127.132,291.520 127.255,290.975 127.046 C 290.623 126.911,290.079 126.800,289.767 126.800 C 289.455 126.800,289.200 126.440,289.200 126.000 C 289.200 125.473,288.933 125.200,288.419 125.200 C 287.741 125.200,287.623 124.872,287.519 122.700 C 287.419 120.605,287.287 120.209,286.700 120.256 C 286.205 120.295,286.000 120.018,286.000 119.309 C 286.000 118.503,286.157 118.348,286.801 118.516 C 287.241 118.631,287.500 118.562,287.377 118.363 C 287.254 118.163,286.893 118.000,286.576 118.000 C 286.056 118.000,285.824 117.516,285.953 116.700 C 285.979 116.535,285.865 116.421,285.700 116.447 C 284.816 116.587,284.400 116.316,284.400 115.600 C 284.400 115.160,284.265 114.821,284.100 114.847 C 282.464 115.106,281.567 112.593,282.842 111.318 C 283.164 110.996,282.893 110.929,281.842 111.071 C 280.412 111.264,279.970 110.322,280.353 107.900 C 280.379 107.735,280.265 107.621,280.100 107.647 C 279.216 107.787,278.800 107.516,278.800 106.800 C 278.800 106.267,278.533 106.000,278.000 106.000 C 277.057 106.000,276.787 102.639,277.700 102.257 C 277.975 102.142,277.570 102.082,276.800 102.124 C 275.625 102.188,275.380 102.055,275.272 101.300 C 275.180 100.649,274.876 100.400,274.172 100.400 C 273.546 100.400,273.200 100.171,273.200 99.757 C 273.200 99.319,273.423 99.192,273.900 99.358 C 274.567 99.590,274.567 99.576,273.900 99.057 C 273.461 98.715,273.200 97.968,273.200 97.056 C 273.200 95.867,273.053 95.600,272.400 95.600 C 271.813 95.600,271.600 95.333,271.600 94.600 C 271.600 93.556,272.569 93.193,272.935 94.100 C 273.087 94.476,273.145 94.467,273.168 94.063 C 273.186 93.767,272.857 93.435,272.437 93.326 C 272.017 93.216,271.584 92.783,271.474 92.363 C 271.365 91.943,270.988 91.600,270.637 91.600 C 270.267 91.600,270.000 91.265,270.000 90.800 C 270.000 90.267,269.733 90.000,269.200 90.000 C 268.535 90.000,268.400 89.733,268.400 88.423 C 268.400 87.066,268.289 86.867,267.608 86.999 C 266.899 87.135,266.820 86.941,266.860 85.161 C 266.909 83.013,266.577 82.274,265.984 83.212 C 265.732 83.610,265.610 83.639,265.606 83.300 C 265.603 83.025,265.330 82.800,265.000 82.800 C 264.667 82.800,264.400 82.444,264.400 82.000 C 264.400 81.467,264.133 81.200,263.600 81.200 C 262.919 81.200,262.800 80.933,262.800 79.400 C 262.800 77.867,262.681 77.600,262.000 77.600 C 261.270 77.600,260.875 76.061,261.153 74.300 C 261.179 74.135,261.065 74.021,260.900 74.047 C 259.801 74.221,259.597 73.865,259.554 71.700 C 259.528 70.435,259.425 69.715,259.324 70.100 C 259.116 70.898,258.024 71.058,257.954 70.300 C 257.928 70.025,257.921 69.125,257.938 68.300 C 257.967 66.897,257.892 66.800,256.784 66.800 C 255.867 66.800,255.600 66.620,255.600 66.000 C 255.600 65.467,255.333 65.200,254.800 65.200 C 254.158 65.200,254.000 64.933,254.000 63.847 C 254.000 62.830,253.801 62.441,253.200 62.284 C 252.428 62.082,252.143 60.890,252.337 58.673 C 252.385 58.118,252.210 58.006,251.600 58.200 C 250.942 58.409,250.800 58.272,250.800 57.427 C 250.800 56.235,248.684 55.884,248.254 57.004 M25.062 266.731 C 24.698 267.134,24.411 267.719,24.425 268.031 C 24.439 268.344,24.615 268.191,24.816 267.691 C 25.017 267.190,25.590 266.617,26.091 266.416 C 26.676 266.181,26.773 266.042,26.362 266.025 C 26.011 266.011,25.426 266.329,25.062 266.731 " stroke="none" fill="#fb1d7b" fill-rule="evenodd"></path><path id="path2" d="M198.700 182.301 C 198.315 182.388,198.000 182.696,198.000 182.987 C 198.000 183.277,197.730 183.618,197.400 183.745 C 197.070 183.871,196.800 184.334,196.800 184.773 C 196.800 185.213,196.440 185.765,196.000 186.000 C 195.480 186.278,195.200 186.838,195.200 187.598 C 195.200 188.242,194.855 189.091,194.432 189.484 C 194.010 189.878,193.537 190.740,193.380 191.400 C 193.093 192.610,191.680 194.794,190.331 196.116 C 189.929 196.509,189.600 197.184,189.600 197.616 C 189.600 198.047,189.338 198.400,189.018 198.400 C 188.661 198.400,188.331 198.979,188.164 199.900 C 188.014 200.725,187.642 201.670,187.337 202.000 C 185.902 203.551,184.399 205.773,184.391 206.355 C 184.386 206.710,184.030 207.450,183.600 208.000 C 183.170 208.550,182.814 209.215,182.809 209.477 C 182.804 209.740,182.441 210.206,182.003 210.513 C 181.564 210.820,181.091 211.647,180.950 212.350 C 180.809 213.053,180.379 213.797,179.994 214.003 C 179.608 214.210,179.174 215.013,179.028 215.789 C 178.870 216.636,178.531 217.200,178.182 217.200 C 177.862 217.200,177.600 217.494,177.600 217.854 C 177.600 218.214,177.150 218.925,176.600 219.435 C 175.963 220.025,175.600 220.796,175.600 221.557 C 175.600 222.215,175.400 222.877,175.155 223.028 C 174.910 223.179,174.361 224.090,173.936 225.052 C 173.511 226.013,173.011 226.800,172.825 226.800 C 172.639 226.800,172.375 227.245,172.239 227.788 C 172.102 228.332,171.633 228.968,171.195 229.203 C 170.675 229.481,170.400 230.040,170.400 230.818 C 170.400 231.513,170.067 232.293,169.600 232.693 C 169.160 233.070,168.800 233.634,168.800 233.947 C 168.800 234.260,168.426 234.895,167.969 235.358 C 166.261 237.088,164.882 239.240,164.634 240.560 C 164.493 241.310,164.113 242.024,163.789 242.149 C 163.465 242.273,163.200 242.720,163.200 243.141 C 163.200 243.570,162.849 243.999,162.400 244.116 C 161.875 244.253,161.600 244.662,161.600 245.304 C 161.600 245.843,161.150 246.769,160.600 247.362 C 160.050 247.956,159.600 248.629,159.600 248.859 C 159.600 249.089,159.262 249.754,158.850 250.338 C 158.437 250.922,157.972 251.986,157.817 252.703 C 157.662 253.420,157.190 254.191,156.767 254.417 C 156.345 254.643,156.000 255.248,156.000 255.760 C 156.000 256.273,155.640 257.150,155.200 257.709 C 154.760 258.269,154.400 259.004,154.400 259.343 C 154.400 259.683,154.156 260.104,153.858 260.280 C 153.561 260.456,153.082 261.050,152.795 261.600 C 152.508 262.150,151.942 262.835,151.537 263.123 C 151.131 263.410,150.800 263.913,150.800 264.241 C 150.800 265.083,148.998 268.367,148.227 268.931 C 147.872 269.190,147.472 270.077,147.339 270.901 L 147.095 272.400 207.148 272.400 C 266.013 272.400,267.200 272.385,267.200 271.635 C 267.200 271.058,266.817 270.806,265.639 270.607 C 264.570 270.426,264.015 270.100,263.877 269.571 C 263.708 268.926,263.311 268.800,261.452 268.800 C 259.638 268.800,259.149 268.653,258.800 268.000 C 258.565 267.560,258.013 267.200,257.573 267.200 C 257.134 267.200,256.678 266.946,256.559 266.637 C 256.440 266.327,255.813 265.854,255.167 265.586 C 254.520 265.318,253.228 264.402,252.295 263.549 C 251.363 262.697,250.015 261.889,249.300 261.755 C 248.378 261.582,248.000 261.291,248.000 260.755 C 248.000 260.267,247.718 260.000,247.200 260.000 C 246.667 260.000,246.400 259.733,246.400 259.200 C 246.400 258.760,246.199 258.400,245.953 258.400 C 245.530 258.400,243.682 256.578,241.700 254.208 C 241.205 253.616,240.800 252.770,240.800 252.329 C 240.800 251.875,240.468 251.438,240.038 251.326 C 239.558 251.200,239.183 250.636,239.027 249.802 C 238.890 249.073,238.513 248.376,238.189 248.251 C 237.865 248.127,237.598 247.614,237.595 247.113 C 237.585 245.525,237.137 244.434,236.400 244.200 C 236.008 244.075,235.594 243.619,235.481 243.187 C 235.367 242.754,234.990 242.400,234.642 242.400 C 234.212 242.400,233.927 241.882,233.751 240.785 C 233.596 239.812,233.197 239.012,232.747 238.771 C 232.238 238.499,232.000 237.929,232.000 236.986 C 232.000 236.011,231.819 235.600,231.390 235.600 C 231.055 235.600,230.609 235.150,230.400 234.600 C 230.191 234.050,229.754 233.600,229.428 233.600 C 229.060 233.600,228.731 233.032,228.557 232.100 C 228.404 231.275,227.946 230.365,227.539 230.077 C 227.133 229.790,226.800 229.106,226.800 228.558 C 226.800 228.009,226.351 227.146,225.800 226.635 C 225.250 226.125,224.800 225.504,224.800 225.254 C 224.800 225.004,224.538 224.800,224.219 224.800 C 223.895 224.800,223.467 224.182,223.252 223.405 C 223.041 222.638,222.582 221.725,222.234 221.377 C 221.885 221.028,221.600 220.109,221.600 219.334 C 221.600 218.274,221.407 217.875,220.820 217.721 C 219.904 217.482,218.000 214.048,218.000 212.636 C 218.000 211.691,217.086 210.400,216.418 210.400 C 216.239 210.400,215.999 210.040,215.884 209.600 C 215.769 209.160,215.388 208.800,215.037 208.800 C 214.577 208.800,214.400 208.416,214.400 207.414 C 214.400 206.438,214.164 205.902,213.600 205.600 C 213.044 205.303,212.800 204.762,212.800 203.832 C 212.800 202.844,212.537 202.320,211.800 201.837 C 211.250 201.476,210.800 200.937,210.800 200.637 C 210.800 200.338,210.465 200.006,210.056 199.899 C 209.648 199.792,209.186 199.200,209.032 198.584 C 208.877 197.967,208.402 197.020,207.975 196.478 C 207.549 195.936,207.200 194.960,207.200 194.309 C 207.200 193.462,206.973 193.066,206.400 192.916 C 205.957 192.800,205.600 192.370,205.600 191.953 C 205.600 191.481,205.318 191.200,204.845 191.200 C 204.302 191.200,204.017 190.817,203.834 189.840 C 203.694 189.092,203.328 188.272,203.021 188.017 C 202.714 187.762,202.344 186.852,202.199 185.994 C 202.023 184.954,201.679 184.352,201.168 184.190 C 200.745 184.056,200.400 183.710,200.400 183.422 C 200.400 182.687,199.531 182.114,198.700 182.301 M16.528 361.795 C 16.575 362.262,16.938 362.625,17.405 362.672 C 17.981 362.732,18.014 362.699,17.525 362.552 C 17.153 362.442,16.758 362.047,16.648 361.675 C 16.501 361.186,16.468 361.219,16.528 361.795 " stroke="none" fill="#08c8e2" fill-rule="evenodd"></path><path id="path3" d="M184.665 23.374 C 184.544 23.690,184.660 24.036,184.922 24.143 C 185.185 24.249,184.275 24.351,182.900 24.368 C 180.677 24.396,180.400 24.489,180.400 25.200 C 180.400 25.967,179.069 26.243,176.057 26.100 C 175.661 26.082,175.634 26.194,175.957 26.517 C 176.201 26.761,176.400 27.284,176.400 27.680 C 176.400 28.678,174.136 28.696,173.876 27.700 C 173.702 27.033,173.691 27.033,173.646 27.700 C 173.615 28.168,173.268 28.400,172.600 28.400 C 171.867 28.400,171.600 28.613,171.600 29.200 C 171.600 29.733,171.333 30.000,170.800 30.000 C 170.267 30.000,170.000 30.267,170.000 30.800 C 170.000 31.426,169.718 31.610,168.700 31.646 C 166.377 31.729,166.199 31.791,166.256 32.500 C 166.294 32.987,166.020 33.200,165.356 33.200 C 164.667 33.200,164.400 33.423,164.400 34.000 C 164.400 34.533,164.133 34.800,163.600 34.800 C 162.978 34.800,162.800 35.067,162.800 36.000 C 162.800 37.067,162.667 37.200,161.600 37.200 C 160.624 37.200,160.399 37.368,160.394 38.100 C 160.389 38.828,160.314 38.885,160.000 38.400 C 159.742 38.000,159.610 37.967,159.606 38.300 C 159.603 38.575,159.240 38.800,158.800 38.800 C 158.360 38.800,158.000 38.991,158.000 39.224 C 158.000 39.457,158.180 39.536,158.400 39.400 C 158.633 39.256,158.800 39.663,158.800 40.376 C 158.800 41.049,158.845 41.735,158.900 41.900 C 158.955 42.065,158.595 42.258,158.100 42.328 C 157.522 42.410,157.200 42.732,157.200 43.228 C 157.200 43.733,156.924 44.000,156.400 44.000 C 155.752 44.000,155.600 44.267,155.600 45.400 C 155.600 46.804,154.726 47.385,154.245 46.300 C 154.096 45.964,154.035 45.997,154.059 46.400 C 154.244 49.497,153.960 51.117,153.200 51.316 C 152.732 51.438,152.400 51.862,152.400 52.335 C 152.400 52.870,152.095 53.188,151.500 53.272 C 150.756 53.378,150.579 53.688,150.479 55.059 C 150.388 56.307,150.165 56.768,149.579 56.921 C 149.133 57.038,148.800 57.469,148.800 57.930 C 148.800 59.140,148.378 60.000,147.784 60.000 C 147.492 60.000,147.196 60.495,147.127 61.100 C 147.036 61.888,146.744 62.236,146.100 62.328 C 145.341 62.436,145.200 62.702,145.200 64.028 C 145.200 65.333,145.064 65.600,144.400 65.600 C 143.860 65.600,143.600 65.867,143.600 66.421 C 143.600 66.970,143.210 67.378,142.423 67.652 C 141.366 68.020,141.289 68.159,141.675 69.006 C 142.223 70.207,141.848 71.200,140.848 71.200 C 140.252 71.200,140.007 71.575,139.800 72.800 C 139.591 74.040,139.351 74.400,138.734 74.400 C 138.089 74.400,137.952 74.645,138.010 75.700 C 138.120 77.703,138.044 78.000,137.428 78.000 C 137.113 78.000,136.798 78.405,136.728 78.900 C 136.629 79.596,136.297 79.829,135.264 79.928 C 134.035 80.046,133.949 80.142,134.195 81.121 C 134.645 82.914,134.628 82.977,133.676 83.122 C 132.545 83.293,132.195 84.070,132.768 85.140 C 133.323 86.178,132.921 87.200,131.957 87.200 C 131.357 87.200,131.200 87.493,131.200 88.613 C 131.200 89.593,130.986 90.104,130.500 90.283 C 129.592 90.618,129.214 91.196,129.206 92.257 C 129.203 92.729,128.943 93.213,128.629 93.334 C 128.315 93.454,128.000 94.058,127.929 94.676 C 127.836 95.488,127.550 95.836,126.900 95.928 C 126.195 96.028,125.946 96.396,125.749 97.628 C 125.536 98.963,125.350 99.200,124.514 99.200 C 123.593 99.200,123.546 99.299,123.791 100.747 C 124.015 102.072,123.939 102.323,123.260 102.500 C 122.812 102.617,122.410 103.119,122.334 103.654 C 122.246 104.278,121.894 104.643,121.300 104.728 C 120.541 104.836,120.400 105.102,120.400 106.428 C 120.400 107.656,120.247 108.001,119.700 108.006 C 118.478 108.017,117.730 108.690,118.303 109.263 C 119.055 110.015,118.898 111.249,118.022 111.478 C 117.595 111.590,117.190 112.061,117.122 112.524 C 117.048 113.039,116.611 113.460,116.000 113.606 C 115.124 113.815,115.016 114.027,115.131 115.322 C 115.252 116.686,115.181 116.800,114.207 116.800 C 113.180 116.800,113.159 116.850,113.425 118.625 C 113.671 120.267,113.613 120.472,112.846 120.672 C 112.221 120.835,111.927 121.318,111.740 122.484 C 111.503 123.968,111.408 124.063,110.326 123.904 C 109.386 123.766,109.218 123.854,109.439 124.367 C 110.090 125.872,110.098 127.200,109.456 127.200 C 109.106 127.200,108.541 127.740,108.200 128.400 C 107.815 129.145,107.267 129.600,106.755 129.600 C 106.014 129.600,105.957 129.763,106.200 131.200 C 106.460 132.738,106.429 132.800,105.391 132.800 C 104.377 132.800,104.327 132.884,104.570 134.178 C 104.778 135.291,104.680 135.636,104.060 135.968 C 103.638 136.194,103.173 136.853,103.028 137.432 C 102.802 138.330,102.589 138.460,101.582 138.312 C 100.641 138.174,100.400 138.287,100.400 138.869 C 100.400 139.271,100.580 139.600,100.800 139.600 C 101.020 139.600,101.200 140.050,101.200 140.600 C 101.200 141.443,101.013 141.600,100.008 141.600 C 98.825 141.600,98.817 141.614,99.062 143.400 C 99.258 144.831,99.188 145.200,98.719 145.200 C 98.394 145.200,97.920 145.658,97.665 146.218 C 97.379 146.845,96.932 147.190,96.501 147.118 C 95.920 147.020,95.800 147.307,95.800 148.800 C 95.800 150.370,95.683 150.617,94.887 150.729 C 94.080 150.844,94.004 151.016,94.231 152.223 C 94.457 153.427,94.367 153.632,93.469 153.974 C 92.664 154.280,92.424 154.679,92.325 155.880 C 92.216 157.204,92.058 157.416,91.100 157.527 C 90.056 157.647,90.012 157.735,90.251 159.227 C 90.458 160.525,90.387 160.800,89.841 160.800 C 89.478 160.800,89.009 161.250,88.800 161.800 C 88.560 162.431,88.108 162.800,87.576 162.800 C 86.828 162.800,86.747 162.994,86.866 164.500 C 86.986 166.021,86.902 166.214,86.072 166.331 C 85.306 166.440,85.156 166.685,85.213 167.731 C 85.319 169.703,85.254 169.892,84.400 170.116 C 83.960 170.231,83.600 170.612,83.600 170.963 C 83.600 171.407,83.229 171.600,82.375 171.600 L 81.151 171.600 81.421 173.400 C 81.684 175.156,81.664 175.200,80.610 175.200 C 79.568 175.200,79.539 175.258,79.805 176.827 C 80.047 178.263,79.981 178.480,79.240 178.674 C 78.778 178.794,78.400 179.147,78.400 179.457 C 78.400 179.766,77.950 180.191,77.400 180.400 C 76.538 180.728,76.400 181.028,76.400 182.580 C 76.400 184.367,76.391 184.378,75.200 184.140 C 73.880 183.876,73.679 184.297,74.497 185.607 C 75.170 186.685,74.537 187.622,72.764 188.171 C 71.405 188.592,71.042 189.206,71.764 189.867 C 71.980 190.064,71.995 189.971,71.802 189.638 C 71.588 189.269,71.628 189.170,71.921 189.351 C 72.387 189.639,72.136 190.800,71.608 190.800 C 71.440 190.800,71.187 191.520,71.046 192.400 C 70.893 193.359,70.572 194.000,70.245 194.000 C 69.945 194.000,69.588 194.560,69.451 195.246 C 69.226 196.371,69.083 196.474,67.971 196.310 C 66.873 196.149,66.769 196.219,67.008 196.965 C 67.840 199.567,67.760 200.000,66.445 200.000 C 65.217 200.000,64.705 200.847,65.600 201.400 C 66.221 201.784,66.071 203.200,65.409 203.200 C 65.084 203.200,64.524 203.650,64.163 204.200 C 63.803 204.750,63.145 205.200,62.702 205.200 C 62.001 205.200,61.926 205.387,62.126 206.623 C 62.418 208.421,62.123 209.200,61.150 209.200 C 60.540 209.200,60.434 209.397,60.628 210.171 C 61.017 211.718,60.485 212.800,59.338 212.800 C 58.586 212.800,58.216 213.104,57.878 214.000 C 57.628 214.660,57.284 215.200,57.112 215.200 C 56.941 215.200,56.800 215.740,56.800 216.400 C 56.800 217.411,56.644 217.600,55.808 217.600 C 54.862 217.600,54.827 217.684,55.062 219.400 C 55.290 221.064,55.242 221.200,54.426 221.200 C 52.797 221.200,51.600 223.339,51.600 226.251 C 51.600 227.170,51.386 227.563,50.800 227.716 C 50.321 227.841,50.000 228.262,50.000 228.763 C 50.000 229.424,49.751 229.600,48.813 229.600 C 47.636 229.600,47.626 229.619,47.713 231.700 C 47.790 233.571,47.712 233.798,46.997 233.779 C 46.305 233.760,46.214 233.969,46.339 235.279 C 46.453 236.477,46.346 236.800,45.832 236.800 C 45.474 236.800,45.009 237.250,44.800 237.800 C 44.567 238.412,44.106 238.800,43.610 238.800 C 42.902 238.800,42.800 239.058,42.800 240.850 L 42.800 242.900 41.600 242.660 C 40.701 242.480,40.400 242.568,40.400 243.010 C 40.400 243.334,40.592 243.600,40.827 243.600 C 41.876 243.600,40.999 245.800,39.900 245.927 C 39.283 245.998,38.800 246.299,38.800 246.614 C 38.800 246.969,38.560 247.083,38.145 246.924 C 37.692 246.750,37.554 246.846,37.695 247.236 C 37.808 247.546,38.102 247.755,38.350 247.700 C 38.597 247.645,38.800 247.780,38.800 248.000 C 38.800 248.220,38.530 248.400,38.200 248.400 C 37.813 248.400,37.598 248.791,37.595 249.500 C 37.586 251.188,37.163 252.400,36.581 252.400 C 36.292 252.400,35.998 252.805,35.928 253.300 C 35.843 253.894,35.478 254.246,34.852 254.334 C 33.990 254.456,33.923 254.615,34.120 256.080 C 34.304 257.450,34.217 257.723,33.544 257.899 C 33.096 258.016,32.481 258.780,32.132 259.653 C 31.792 260.504,31.263 261.200,30.957 261.200 C 30.630 261.200,30.400 261.612,30.400 262.200 C 30.400 263.012,30.203 263.200,29.355 263.200 C 28.342 263.200,28.318 263.257,28.579 265.000 C 28.826 266.644,28.777 266.800,28.015 266.800 C 27.407 266.800,27.115 267.127,26.940 268.000 C 26.755 268.926,26.485 269.200,25.758 269.200 C 24.614 269.200,24.077 270.773,24.731 272.208 C 25.098 273.013,25.045 273.195,24.382 273.406 C 23.923 273.551,23.598 274.015,23.595 274.527 C 23.585 276.107,23.138 277.123,22.363 277.326 C 21.919 277.442,21.600 277.875,21.600 278.363 C 21.600 278.989,21.348 279.200,20.600 279.200 C 19.640 279.200,19.384 279.674,19.571 281.105 C 19.608 281.383,19.374 281.712,19.052 281.835 C 18.708 281.968,18.355 282.871,18.196 284.030 C 17.979 285.606,17.773 286.000,17.162 286.000 C 16.616 286.000,16.400 286.283,16.400 287.000 C 16.400 287.844,16.213 288.000,15.200 288.000 C 13.931 288.000,13.665 288.626,14.372 289.948 C 14.793 290.734,14.505 291.346,13.551 291.697 C 13.193 291.829,12.780 292.581,12.632 293.368 C 12.368 294.775,11.472 295.308,11.065 294.300 C 10.954 294.025,10.849 294.745,10.832 295.900 C 10.804 297.723,10.694 298.000,10.000 298.000 C 9.378 298.000,9.200 298.267,9.200 299.200 C 9.200 300.354,8.578 300.710,7.050 300.431 C 6.691 300.365,6.869 301.658,7.391 302.900 C 7.635 303.480,7.472 303.600,6.443 303.600 C 5.266 303.600,5.200 303.682,5.200 305.153 C 5.200 306.370,5.027 306.752,4.400 306.916 C 3.677 307.105,3.600 307.462,3.600 310.598 C 3.600 313.718,3.508 314.146,2.700 314.801 C 2.205 315.203,1.931 315.662,2.090 315.823 C 2.250 315.983,2.661 315.881,3.003 315.597 C 3.564 315.132,3.623 316.051,3.600 324.840 C 3.555 341.664,3.490 340.400,4.400 340.400 C 5.078 340.400,5.200 340.667,5.200 342.145 C 5.200 343.817,5.244 343.881,6.263 343.686 L 7.326 343.483 7.076 345.874 C 6.812 348.405,7.147 349.200,8.480 349.200 C 8.974 349.200,9.200 349.502,9.200 350.163 C 9.200 350.928,9.364 351.082,10.000 350.916 C 10.895 350.682,11.167 351.785,10.300 352.135 C 9.900 352.296,9.900 352.343,10.300 352.368 C 10.575 352.386,10.800 352.760,10.800 353.200 C 10.800 353.733,11.067 354.000,11.600 354.000 C 12.192 354.000,12.400 354.267,12.400 355.024 C 12.400 355.604,12.227 355.940,12.000 355.800 C 11.780 355.664,11.600 355.743,11.600 355.976 C 11.600 356.209,11.780 356.400,12.000 356.400 C 12.220 356.400,12.400 356.676,12.400 357.013 C 12.400 357.349,12.688 357.736,13.040 357.871 C 13.864 358.187,15.413 359.736,15.729 360.560 C 15.865 360.913,16.428 361.200,16.987 361.200 C 17.733 361.200,18.000 361.411,18.000 362.000 C 18.000 362.524,18.267 362.800,18.773 362.800 C 19.320 362.800,19.584 363.123,19.673 363.900 C 19.764 364.691,19.997 364.967,20.500 364.882 C 20.971 364.803,21.200 365.025,21.200 365.559 C 21.200 366.571,21.717 366.880,23.413 366.880 C 24.161 366.880,24.758 366.997,24.739 367.140 C 24.521 368.804,24.844 369.605,25.574 369.214 C 26.528 368.703,26.800 368.694,26.800 369.171 C 26.800 369.375,26.485 369.624,26.100 369.724 C 25.715 369.825,26.075 369.928,26.900 369.954 C 27.918 369.985,28.400 370.185,28.400 370.576 C 28.400 370.893,28.584 371.267,28.810 371.406 C 29.035 371.545,29.194 371.511,29.163 371.330 C 29.033 370.582,29.224 370.000,29.600 370.000 C 29.820 370.000,30.000 370.360,30.000 370.800 C 30.000 371.492,30.267 371.600,31.973 371.600 C 33.829 371.600,33.954 371.666,34.073 372.700 C 34.183 373.649,34.401 373.817,35.659 373.922 C 36.707 374.009,37.175 374.263,37.322 374.822 C 37.510 375.543,37.910 375.600,42.780 375.600 C 47.563 375.600,48.025 375.663,47.918 376.300 C 47.811 376.936,48.337 377.010,53.700 377.111 C 59.234 377.215,59.600 377.175,59.600 376.474 C 59.600 375.469,61.709 374.869,66.413 374.535 C 69.240 374.334,70.305 374.095,70.864 373.536 C 71.269 373.131,72.133 372.800,72.784 372.800 C 73.436 372.800,74.291 372.456,74.684 372.035 C 75.078 371.615,76.063 371.147,76.872 370.996 C 77.682 370.845,78.438 370.479,78.551 370.183 C 78.665 369.887,79.442 369.518,80.279 369.364 C 81.116 369.210,82.309 368.661,82.931 368.142 C 83.553 367.624,84.323 367.200,84.643 367.200 C 84.963 367.200,85.327 366.935,85.451 366.611 C 85.576 366.287,86.313 365.902,87.090 365.757 C 87.990 365.588,88.574 365.220,88.698 364.746 C 88.806 364.336,89.097 363.995,89.347 363.989 C 89.596 363.983,90.504 363.173,91.365 362.189 C 92.226 361.205,93.142 360.400,93.402 360.400 C 93.661 360.400,94.084 359.699,94.340 358.841 C 94.597 357.984,95.076 357.180,95.404 357.054 C 95.732 356.928,96.000 356.540,96.000 356.192 C 96.000 355.843,96.514 355.379,97.143 355.160 C 97.771 354.941,98.466 354.365,98.687 353.881 C 98.908 353.396,99.381 352.325,99.738 351.500 C 100.095 350.675,100.547 350.000,100.744 350.000 C 100.940 350.000,101.207 349.463,101.339 348.806 C 101.470 348.149,101.943 347.299,102.389 346.917 C 102.835 346.535,103.200 345.923,103.200 345.558 C 103.200 345.192,103.560 344.799,104.000 344.684 C 104.533 344.545,104.800 344.138,104.800 343.466 C 104.800 342.911,105.064 342.193,105.386 341.871 C 105.709 341.548,106.270 340.540,106.634 339.631 C 106.998 338.721,107.635 337.796,108.048 337.574 C 108.462 337.353,108.800 336.908,108.800 336.586 C 108.800 336.264,109.050 336.000,109.355 336.000 C 109.705 336.000,110.008 335.338,110.179 334.200 C 110.341 333.117,110.658 332.400,110.975 332.400 C 111.264 332.400,111.608 331.860,111.740 331.200 C 111.872 330.540,112.234 330.000,112.543 330.000 C 113.157 330.000,113.586 328.822,113.595 327.114 C 113.598 326.441,113.904 325.865,114.400 325.600 C 114.840 325.365,115.200 324.882,115.200 324.528 C 115.200 323.765,117.582 321.210,118.300 321.204 C 118.575 321.202,118.800 320.773,118.800 320.250 C 118.800 318.468,119.299 316.800,119.832 316.800 C 120.124 316.800,120.479 316.185,120.620 315.434 C 120.761 314.683,121.309 313.661,121.838 313.164 C 122.367 312.667,122.800 312.022,122.800 311.730 C 122.800 311.439,123.046 311.200,123.348 311.200 C 123.656 311.200,123.988 310.631,124.106 309.899 C 124.356 308.360,126.328 305.200,127.039 305.200 C 127.313 305.200,127.655 304.659,127.801 303.997 C 127.946 303.335,128.410 302.609,128.833 302.383 C 129.347 302.107,129.600 301.544,129.600 300.675 C 129.600 299.873,129.905 299.116,130.400 298.693 C 130.840 298.316,131.200 297.748,131.200 297.431 C 131.200 297.114,131.560 296.740,132.000 296.600 C 132.566 296.420,132.800 295.995,132.800 295.147 C 132.800 293.895,133.349 292.594,134.263 291.680 C 134.558 291.384,134.800 290.828,134.800 290.444 C 134.800 290.059,135.250 289.353,135.800 288.875 C 136.350 288.397,136.800 287.740,136.800 287.417 C 136.800 287.093,137.160 286.635,137.600 286.400 C 138.147 286.107,138.400 285.562,138.400 284.675 C 138.400 283.873,138.705 283.116,139.200 282.693 C 139.640 282.316,140.005 281.781,140.011 281.504 C 140.017 281.227,140.557 280.475,141.211 279.833 C 141.865 279.192,142.400 278.427,142.400 278.133 C 142.400 277.840,142.659 277.600,142.975 277.600 C 143.351 277.600,143.645 276.974,143.821 275.800 C 143.972 274.792,144.307 274.000,144.581 274.000 C 144.851 274.000,145.277 273.550,145.527 273.000 C 145.778 272.450,146.237 272.000,146.547 272.000 C 146.876 272.000,147.222 271.409,147.378 270.579 C 147.524 269.797,147.893 269.062,148.198 268.946 C 148.824 268.705,150.800 265.124,150.800 264.230 C 150.800 263.908,151.131 263.410,151.537 263.123 C 151.942 262.835,152.508 262.150,152.795 261.600 C 153.082 261.050,153.561 260.456,153.858 260.280 C 154.156 260.104,154.400 259.683,154.400 259.343 C 154.400 259.004,154.760 258.269,155.200 257.709 C 155.640 257.150,156.000 256.273,156.000 255.760 C 156.000 255.248,156.345 254.643,156.767 254.417 C 157.190 254.191,157.662 253.420,157.817 252.703 C 157.972 251.986,158.437 250.922,158.850 250.338 C 159.262 249.754,159.600 249.089,159.600 248.859 C 159.600 248.629,160.050 247.956,160.600 247.362 C 161.150 246.769,161.600 245.843,161.600 245.304 C 161.600 244.662,161.875 244.253,162.400 244.116 C 162.849 243.999,163.200 243.570,163.200 243.141 C 163.200 242.720,163.465 242.273,163.789 242.149 C 164.113 242.024,164.493 241.310,164.634 240.560 C 164.882 239.240,166.261 237.088,167.969 235.358 C 168.426 234.895,168.800 234.260,168.800 233.947 C 168.800 233.634,169.160 233.070,169.600 232.693 C 170.067 232.293,170.400 231.513,170.400 230.818 C 170.400 230.040,170.675 229.481,171.195 229.203 C 171.633 228.968,172.102 228.332,172.239 227.788 C 172.375 227.245,172.639 226.800,172.825 226.800 C 173.011 226.800,173.511 226.013,173.936 225.052 C 174.361 224.090,174.910 223.179,175.155 223.028 C 175.400 222.877,175.600 222.215,175.600 221.557 C 175.600 220.796,175.963 220.025,176.600 219.435 C 177.150 218.925,177.600 218.214,177.600 217.854 C 177.600 217.494,177.862 217.200,178.182 217.200 C 178.531 217.200,178.870 216.636,179.028 215.789 C 179.174 215.013,179.608 214.210,179.994 214.003 C 180.379 213.797,180.809 213.053,180.950 212.350 C 181.091 211.647,181.564 210.820,182.003 210.513 C 182.441 210.206,182.804 209.740,182.809 209.477 C 182.814 209.215,183.170 208.550,183.600 208.000 C 184.030 207.450,184.386 206.710,184.391 206.355 C 184.399 205.773,185.902 203.551,187.337 202.000 C 187.642 201.670,188.014 200.725,188.164 199.900 C 188.331 198.979,188.661 198.400,189.018 198.400 C 189.338 198.400,189.600 198.047,189.600 197.616 C 189.600 197.184,189.929 196.509,190.331 196.116 C 191.680 194.794,193.093 192.610,193.380 191.400 C 193.537 190.740,194.010 189.878,194.432 189.484 C 194.855 189.091,195.200 188.242,195.200 187.598 C 195.200 186.838,195.480 186.278,196.000 186.000 C 196.440 185.765,196.800 185.213,196.800 184.773 C 196.800 184.334,197.070 183.871,197.400 183.745 C 197.730 183.618,198.000 183.264,198.000 182.957 C 198.000 182.651,198.231 182.400,198.513 182.400 C 198.795 182.400,199.260 181.605,199.547 180.634 C 199.834 179.662,200.593 178.280,201.234 177.562 C 201.930 176.782,202.400 175.807,202.400 175.142 C 202.400 174.438,202.694 173.871,203.200 173.600 C 203.640 173.365,204.000 172.878,204.000 172.519 C 204.000 172.161,204.274 171.582,204.609 171.234 C 206.101 169.682,207.566 167.465,207.798 166.407 C 207.938 165.774,208.310 165.041,208.626 164.779 C 208.942 164.517,209.200 163.865,209.200 163.332 C 209.200 162.798,209.650 161.945,210.200 161.435 C 210.750 160.925,211.200 160.325,211.200 160.101 C 211.200 159.877,211.560 159.599,212.000 159.484 C 212.611 159.324,212.800 158.938,212.800 157.852 C 212.800 156.838,213.030 156.305,213.600 156.000 C 214.050 155.759,214.400 155.162,214.400 154.636 C 214.400 154.073,215.111 152.958,216.184 151.838 C 217.280 150.694,218.067 149.452,218.223 148.616 C 218.364 147.868,218.708 147.167,218.988 147.060 C 219.268 146.953,219.625 146.355,219.781 145.732 C 219.937 145.110,220.410 144.278,220.832 143.884 C 221.255 143.491,221.600 142.733,221.600 142.200 C 221.600 141.667,221.934 140.909,222.342 140.516 C 222.751 140.122,223.195 139.220,223.330 138.511 C 223.471 137.773,224.230 136.578,225.110 135.711 C 225.955 134.880,226.880 133.621,227.166 132.913 C 227.452 132.206,227.937 131.419,228.243 131.164 C 228.549 130.910,228.800 130.094,228.800 129.351 C 228.800 128.407,228.984 128.000,229.410 128.000 C 229.745 128.000,230.182 127.575,230.379 127.055 C 230.577 126.535,231.000 126.009,231.319 125.886 C 231.638 125.764,232.019 125.024,232.166 124.243 C 232.312 123.461,232.661 122.682,232.940 122.511 C 233.219 122.340,233.701 121.570,234.011 120.800 C 234.816 118.804,236.122 116.837,236.657 116.817 C 237.183 116.797,237.600 115.886,237.600 114.755 C 237.600 114.326,237.871 113.871,238.202 113.744 C 238.533 113.617,238.920 112.788,239.062 111.903 C 239.237 110.810,239.557 110.232,240.060 110.100 C 240.467 109.994,240.800 109.593,240.800 109.209 C 240.800 108.826,241.250 107.849,241.800 107.038 C 242.350 106.228,242.800 105.227,242.800 104.814 C 242.800 104.401,243.610 103.253,244.600 102.263 C 246.053 100.810,246.400 100.191,246.400 99.051 C 246.400 98.187,246.642 97.504,247.025 97.290 C 247.411 97.074,247.772 96.041,247.969 94.589 C 248.145 93.295,248.493 92.169,248.742 92.086 C 248.992 92.003,249.489 90.914,249.847 89.667 C 250.204 88.420,250.700 87.148,250.948 86.839 C 251.760 85.831,251.809 68.578,251.006 66.400 C 250.641 65.410,250.150 63.880,249.914 63.000 C 249.678 62.120,249.220 61.092,248.895 60.716 C 247.983 59.659,247.721 56.400,248.548 56.400 C 248.907 56.400,249.200 56.134,249.200 55.809 C 249.200 55.318,249.024 55.297,248.171 55.686 C 246.868 56.280,246.415 55.679,246.406 53.347 C 246.401 52.006,246.241 51.652,245.560 51.474 C 244.822 51.281,244.753 51.061,244.990 49.659 C 245.236 48.200,245.180 48.052,244.330 47.932 C 243.722 47.846,243.356 47.488,243.272 46.900 C 243.188 46.305,242.870 46.000,242.334 46.000 C 241.610 46.000,241.538 45.788,241.661 44.033 C 241.738 42.951,241.710 42.072,241.600 42.080 C 240.761 42.141,240.400 41.897,240.400 41.269 C 240.400 40.685,240.160 40.574,239.200 40.715 C 238.128 40.872,238.000 40.779,238.000 39.845 C 238.000 39.067,237.796 38.800,237.200 38.800 C 236.667 38.800,236.400 38.533,236.400 38.000 C 236.400 37.467,236.133 37.200,235.600 37.200 C 234.962 37.200,234.790 36.917,234.750 35.800 C 234.653 33.080,235.046 33.370,231.300 33.261 C 229.487 33.208,229.200 33.091,229.200 32.400 C 229.200 31.867,228.933 31.600,228.400 31.600 C 227.867 31.600,227.600 31.333,227.600 30.800 C 227.600 30.267,227.333 30.000,226.800 30.000 C 226.267 30.000,226.000 29.733,226.000 29.200 C 226.000 28.476,225.733 28.400,223.200 28.400 C 220.667 28.400,220.400 28.324,220.400 27.600 C 220.400 27.160,220.659 26.800,220.976 26.800 C 221.293 26.800,221.649 26.645,221.766 26.455 C 221.883 26.265,221.579 26.140,221.090 26.177 C 219.810 26.274,218.600 25.793,218.600 25.187 C 218.600 24.530,217.783 24.441,211.526 24.414 C 206.820 24.395,206.433 24.335,206.199 23.597 C 205.800 22.340,192.400 22.359,192.400 23.616 C 192.400 24.381,192.181 24.427,188.900 24.356 C 186.975 24.315,185.633 24.200,185.917 24.102 C 186.314 23.964,186.325 23.792,185.968 23.361 C 185.373 22.644,184.944 22.649,184.665 23.374 " stroke="none" fill="#8c54f3" fill-rule="evenodd"></path><path id="path4" d="M184.080 23.280 C 183.351 24.009,183.503 24.403,184.500 24.368 C 184.995 24.351,185.185 24.249,184.922 24.143 C 184.660 24.036,184.544 23.690,184.665 23.374 C 184.934 22.674,184.720 22.640,184.080 23.280 M186.164 23.450 C 186.269 23.724,186.140 24.023,185.878 24.115 C 185.615 24.206,186.975 24.315,188.900 24.356 C 192.157 24.426,192.400 24.376,192.400 23.633 C 192.400 22.895,192.152 22.838,189.186 22.892 C 186.802 22.936,186.022 23.080,186.164 23.450 M206.006 23.128 C 206.038 24.540,213.000 25.009,213.000 23.600 C 213.000 23.118,212.313 22.986,209.500 22.928 C 207.575 22.889,206.003 22.979,206.006 23.128 M175.200 26.551 C 175.200 27.316,174.555 27.419,174.264 26.700 C 174.009 26.072,173.201 27.093,173.234 28.000 C 173.249 28.396,173.373 28.327,173.600 27.800 C 173.894 27.116,173.948 27.101,173.972 27.700 C 174.014 28.741,176.400 28.690,176.400 27.649 C 176.400 27.236,176.130 26.674,175.800 26.400 C 175.309 25.992,175.200 26.020,175.200 26.551 M221.451 26.483 C 221.559 26.657,221.367 26.800,221.024 26.800 C 220.667 26.800,220.400 27.142,220.400 27.600 C 220.400 28.293,220.667 28.400,222.400 28.400 C 224.568 28.400,224.980 27.849,223.689 26.680 C 222.983 26.042,221.075 25.874,221.451 26.483 M227.600 30.800 C 227.600 31.333,227.867 31.600,228.400 31.600 C 228.920 31.600,229.200 31.867,229.200 32.363 C 229.200 33.002,229.549 33.148,231.350 33.263 C 232.943 33.364,233.450 33.271,233.308 32.902 C 233.202 32.629,232.955 32.504,232.758 32.626 C 232.561 32.748,232.394 32.522,232.387 32.124 C 232.375 31.437,232.347 31.436,231.843 32.100 C 231.191 32.959,230.800 32.996,230.800 32.200 C 230.800 31.867,230.444 31.600,230.000 31.600 C 229.467 31.600,229.200 31.333,229.200 30.800 C 229.200 30.267,228.933 30.000,228.400 30.000 C 227.867 30.000,227.600 30.267,227.600 30.800 M166.487 32.391 C 166.991 33.197,167.600 33.474,167.600 32.896 C 167.600 32.729,167.236 32.365,166.791 32.087 C 166.041 31.619,166.019 31.641,166.487 32.391 M159.348 37.792 C 159.212 38.145,159.213 38.547,159.351 38.684 C 159.488 38.821,159.603 38.678,159.606 38.367 C 159.611 37.900,159.681 37.906,160.000 38.400 C 160.334 38.917,160.389 38.907,160.394 38.324 C 160.402 37.390,159.649 37.007,159.348 37.792 M236.400 38.000 C 236.400 38.533,236.667 38.800,237.200 38.800 C 237.792 38.800,238.000 39.067,238.000 39.827 C 238.000 41.230,240.173 41.126,240.244 39.719 C 240.269 39.234,240.179 38.850,240.044 38.866 C 238.730 39.021,238.000 38.712,238.000 38.000 C 238.000 37.467,237.733 37.200,237.200 37.200 C 236.667 37.200,236.400 37.467,236.400 38.000 M157.492 39.042 C 156.985 39.548,157.176 40.400,157.796 40.400 C 158.295 40.400,158.280 40.531,157.707 41.200 C 157.330 41.640,156.702 42.000,156.311 42.000 C 155.819 42.000,155.600 42.308,155.600 43.000 C 155.600 43.652,155.376 44.000,154.957 44.000 C 154.541 44.000,154.398 44.218,154.553 44.621 C 154.684 44.963,154.620 45.136,154.410 45.006 C 154.197 44.875,154.067 45.277,154.115 45.922 C 154.245 47.680,155.600 47.161,155.600 45.353 C 155.600 44.267,155.758 44.000,156.400 44.000 C 156.924 44.000,157.200 43.733,157.200 43.228 C 157.200 42.732,157.522 42.410,158.100 42.328 C 158.595 42.258,158.955 42.065,158.900 41.900 C 158.845 41.735,158.800 41.049,158.800 40.376 C 158.800 39.703,158.635 39.255,158.434 39.379 C 158.233 39.503,158.004 39.413,157.926 39.177 C 157.847 38.942,157.652 38.881,157.492 39.042 M241.539 44.077 C 241.650 45.625,241.820 46.000,242.411 46.000 C 242.867 46.000,243.193 46.340,243.272 46.900 C 243.451 48.157,245.200 48.420,245.200 47.190 C 245.200 46.662,244.889 46.244,244.400 46.116 C 243.773 45.952,243.600 45.570,243.600 44.353 C 243.600 43.324,243.431 42.834,243.100 42.900 C 242.825 42.955,242.641 42.786,242.692 42.525 C 242.742 42.265,242.472 42.074,242.092 42.102 C 241.518 42.145,241.424 42.482,241.539 44.077 M152.350 47.800 C 152.322 47.910,152.278 48.165,152.250 48.367 C 152.222 48.568,152.065 48.868,151.900 49.033 C 151.735 49.198,151.600 49.663,151.600 50.067 C 151.600 50.533,151.309 50.800,150.800 50.800 C 150.210 50.800,150.000 51.067,150.000 51.818 C 150.000 52.565,149.814 52.804,149.300 52.718 C 148.728 52.622,148.578 52.948,148.478 54.500 C 148.377 56.074,148.223 56.400,147.578 56.400 C 146.937 56.400,146.800 56.682,146.800 58.000 C 146.800 59.333,146.667 59.600,146.000 59.600 C 145.382 59.600,145.200 59.867,145.200 60.773 C 145.200 61.756,145.021 61.967,144.100 62.073 C 143.167 62.181,142.980 62.411,142.868 63.585 C 142.793 64.381,142.410 65.198,141.968 65.507 C 141.321 65.960,140.835 68.000,141.374 68.000 C 142.311 68.000,143.600 67.079,143.600 66.410 C 143.600 65.867,143.863 65.600,144.400 65.600 C 145.064 65.600,145.200 65.333,145.200 64.028 C 145.200 62.702,145.341 62.436,146.100 62.328 C 146.744 62.236,147.036 61.888,147.127 61.100 C 147.196 60.495,147.492 60.000,147.784 60.000 C 148.378 60.000,148.800 59.140,148.800 57.930 C 148.800 57.469,149.133 57.038,149.579 56.921 C 150.165 56.768,150.388 56.307,150.479 55.059 C 150.579 53.688,150.756 53.378,151.500 53.272 C 152.095 53.188,152.400 52.870,152.400 52.335 C 152.400 51.862,152.732 51.438,153.200 51.316 C 153.847 51.147,154.000 50.770,154.000 49.353 C 154.000 47.835,152.657 46.571,152.350 47.800 M245.067 49.467 C 244.501 50.032,244.832 51.283,245.600 51.484 C 246.223 51.647,246.400 52.030,246.400 53.214 C 246.400 55.915,247.211 56.731,248.558 55.385 C 249.267 54.676,249.168 51.033,248.438 50.950 C 248.197 50.923,247.730 50.877,247.400 50.850 C 247.070 50.823,246.800 50.440,246.800 50.000 C 246.800 49.220,245.663 48.870,245.067 49.467 M252.472 60.862 C 252.559 61.768,252.832 62.237,253.326 62.331 C 253.933 62.446,254.027 62.249,253.900 61.135 C 253.682 59.223,252.289 58.957,252.472 60.862 M139.867 68.667 C 139.720 68.813,139.600 69.353,139.600 69.867 C 139.600 70.533,139.371 70.800,138.800 70.800 C 138.119 70.800,138.000 71.067,138.000 72.600 C 138.000 75.097,139.386 75.251,139.800 72.800 C 140.002 71.606,140.258 71.200,140.812 71.200 C 141.786 71.200,142.132 70.581,141.830 69.377 C 141.597 68.448,140.487 68.047,139.867 68.667 M257.912 69.100 C 257.664 70.055,257.960 70.800,258.587 70.800 C 259.323 70.800,259.580 69.471,258.956 68.888 C 258.265 68.242,258.127 68.270,257.912 69.100 M136.400 76.373 C 136.400 76.920,136.077 77.184,135.300 77.273 C 133.439 77.488,133.412 80.106,135.273 79.927 C 136.297 79.829,136.629 79.594,136.728 78.900 C 136.798 78.405,137.098 78.000,137.394 78.000 C 138.038 78.000,138.338 77.265,138.088 76.300 C 137.835 75.324,136.400 75.387,136.400 76.373 M261.200 76.600 C 261.200 77.333,261.413 77.600,262.000 77.600 C 262.681 77.600,262.800 77.867,262.800 79.400 C 262.800 80.947,262.915 81.200,263.618 81.200 C 264.726 81.200,264.671 77.596,263.559 77.305 C 263.182 77.207,262.784 76.783,262.674 76.363 C 262.373 75.211,261.200 75.399,261.200 76.600 M132.400 82.365 C 132.400 83.455,134.365 83.785,134.392 82.700 C 134.426 81.362,134.319 81.200,133.400 81.200 C 132.562 81.200,132.400 81.389,132.400 82.365 M130.800 85.153 C 130.800 85.570,130.443 86.000,130.000 86.116 C 129.346 86.287,129.200 86.662,129.200 88.163 C 129.200 89.733,129.084 90.000,128.400 90.000 C 127.733 90.000,127.600 90.267,127.600 91.600 C 127.600 93.055,127.506 93.200,126.563 93.200 C 125.878 93.200,125.457 93.460,125.326 93.963 C 125.216 94.383,124.783 94.816,124.363 94.926 C 123.078 95.262,123.249 99.200,124.549 99.200 C 125.344 99.200,125.539 98.945,125.749 97.628 C 125.946 96.396,126.195 96.028,126.900 95.928 C 127.550 95.836,127.836 95.488,127.929 94.676 C 128.000 94.058,128.315 93.454,128.629 93.334 C 128.943 93.213,129.203 92.729,129.206 92.257 C 129.214 91.196,129.592 90.618,130.500 90.283 C 130.986 90.104,131.200 89.593,131.200 88.613 C 131.200 87.493,131.357 87.200,131.957 87.200 C 132.910 87.200,133.325 86.181,132.784 85.171 C 132.243 84.159,130.800 84.146,130.800 85.153 M267.043 84.691 C 266.525 85.208,266.805 87.067,267.400 87.067 C 267.730 87.067,268.014 86.962,268.031 86.833 C 268.047 86.705,268.115 86.329,268.181 85.998 C 268.314 85.330,267.424 84.309,267.043 84.691 M271.600 94.600 C 271.600 95.333,271.813 95.600,272.400 95.600 C 273.237 95.600,273.363 95.290,272.957 94.233 C 272.569 93.221,271.600 93.483,271.600 94.600 M122.000 101.126 C 122.000 101.570,121.655 101.997,121.200 102.116 C 119.955 102.441,120.050 104.905,121.300 104.728 C 121.894 104.643,122.246 104.278,122.334 103.654 C 122.409 103.121,122.812 102.617,123.255 102.502 C 124.362 102.212,124.087 100.641,122.900 100.472 C 122.230 100.377,122.000 100.544,122.000 101.126 M275.268 101.268 C 275.356 101.889,275.667 102.200,276.200 102.200 C 277.391 102.200,277.272 100.639,276.068 100.468 C 275.292 100.358,275.158 100.492,275.268 101.268 M278.000 102.357 C 278.000 102.627,277.820 102.736,277.600 102.600 C 277.356 102.449,277.200 103.063,277.200 104.176 C 277.200 105.732,277.317 106.000,277.999 106.000 C 278.694 106.000,278.783 105.770,278.686 104.220 C 278.588 102.660,278.000 101.063,278.000 102.357 M118.000 107.243 C 118.000 108.212,118.139 108.432,118.633 108.243 C 118.981 108.109,119.521 108.000,119.833 108.000 C 120.171 108.000,120.400 107.597,120.400 107.000 C 120.400 106.156,120.213 106.000,119.200 106.000 C 118.124 106.000,118.000 106.129,118.000 107.243 M116.400 109.973 C 116.400 110.533,116.142 110.800,115.600 110.800 C 115.024 110.800,114.800 111.067,114.800 111.753 C 114.800 112.370,114.518 112.781,114.000 112.916 C 112.627 113.275,112.837 116.800,114.231 116.800 C 115.177 116.800,115.252 116.678,115.131 115.322 C 115.016 114.027,115.124 113.815,116.000 113.606 C 116.611 113.460,117.048 113.039,117.122 112.524 C 117.190 112.061,117.609 111.586,118.054 111.470 C 119.331 111.136,118.902 109.435,117.500 109.273 C 116.614 109.171,116.400 109.308,116.400 109.973 M280.400 110.206 C 280.400 111.078,280.560 111.200,281.600 111.121 C 282.956 111.018,282.950 111.027,282.386 109.974 C 281.760 108.805,280.400 108.964,280.400 110.206 M282.850 111.310 C 282.152 112.008,282.272 114.800,283.000 114.800 C 284.070 114.800,284.200 114.622,284.200 113.152 C 284.200 111.494,283.551 110.609,282.850 111.310 M111.600 118.772 C 111.600 119.308,111.342 119.600,110.868 119.600 C 108.996 119.600,108.595 123.707,110.445 123.921 C 111.382 124.030,111.517 123.879,111.743 122.469 C 111.924 121.332,112.225 120.834,112.827 120.677 C 114.031 120.362,113.767 118.252,112.500 118.072 C 111.815 117.975,111.600 118.142,111.600 118.772 M286.000 119.314 C 286.000 119.962,286.233 120.229,286.800 120.229 C 287.762 120.229,287.892 118.998,286.967 118.643 C 286.040 118.287,286.000 118.315,286.000 119.314 M109.206 124.653 C 109.203 124.903,108.840 125.201,108.400 125.316 C 107.960 125.431,107.600 125.812,107.600 126.163 C 107.600 126.533,107.265 126.800,106.800 126.800 C 106.152 126.800,106.000 127.067,106.000 128.200 C 106.000 130.039,107.292 130.157,108.200 128.400 C 108.541 127.740,109.086 127.200,109.410 127.200 C 110.081 127.200,110.198 125.725,109.600 124.800 C 109.387 124.470,109.209 124.404,109.206 124.653 M289.200 125.950 C 289.200 126.458,289.575 126.775,290.362 126.932 C 291.481 127.156,291.511 127.220,291.171 128.682 C 290.676 130.817,290.669 130.800,292.000 130.800 C 293.324 130.800,293.844 128.622,292.631 128.157 C 292.318 128.036,291.769 127.322,291.412 126.569 C 290.693 125.054,289.200 124.636,289.200 125.950 M104.400 131.772 C 104.400 132.609,104.591 132.800,105.428 132.800 C 106.265 132.800,106.432 132.633,106.328 131.900 C 106.132 130.519,104.400 130.404,104.400 131.772 M102.800 134.773 C 102.800 135.320,102.477 135.584,101.700 135.673 C 100.773 135.780,100.600 135.988,100.600 137.000 C 100.600 138.599,102.558 139.024,103.008 137.523 C 103.161 137.015,103.654 136.308,104.105 135.951 C 105.089 135.172,104.794 134.000,103.613 134.000 C 103.076 134.000,102.800 134.263,102.800 134.773 M294.800 135.000 C 294.800 135.733,295.013 136.000,295.600 136.000 C 296.281 136.000,296.400 136.267,296.400 137.800 C 296.400 139.333,296.519 139.600,297.200 139.600 C 297.817 139.600,298.000 139.333,298.000 138.433 C 298.000 136.862,297.631 136.000,296.957 136.000 C 296.630 136.000,296.400 135.588,296.400 135.000 C 296.400 134.267,296.187 134.000,295.600 134.000 C 295.013 134.000,294.800 134.267,294.800 135.000 M98.800 140.600 C 98.800 141.444,98.987 141.600,100.000 141.600 C 101.013 141.600,101.200 141.444,101.200 140.600 C 101.200 139.756,101.013 139.600,100.000 139.600 C 98.987 139.600,98.800 139.756,98.800 140.600 M97.200 143.553 C 97.200 143.970,96.843 144.400,96.400 144.516 C 95.921 144.641,95.600 145.062,95.600 145.563 C 95.600 146.023,95.349 146.400,95.043 146.400 C 94.321 146.400,94.000 147.279,94.000 149.261 C 94.000 150.686,94.096 150.842,94.900 150.728 C 95.681 150.617,95.800 150.362,95.800 148.800 C 95.800 147.307,95.920 147.020,96.501 147.118 C 96.932 147.190,97.379 146.845,97.665 146.218 C 97.920 145.658,98.370 145.200,98.664 145.200 C 98.993 145.200,99.200 144.736,99.200 144.000 C 99.200 142.987,99.044 142.800,98.200 142.800 C 97.487 142.800,97.200 143.016,97.200 143.553 M301.982 144.471 C 301.566 147.496,301.719 148.400,302.649 148.400 C 303.896 148.400,303.944 144.714,302.700 144.476 C 302.315 144.402,301.992 144.400,301.982 144.471 M303.600 150.753 C 303.600 151.170,303.957 151.600,304.400 151.716 C 304.941 151.857,305.200 152.262,305.200 152.963 C 305.200 153.722,305.408 154.000,305.975 154.000 C 306.979 154.000,306.923 152.357,305.910 152.092 C 305.481 151.980,305.200 151.530,305.200 150.953 C 305.200 150.267,304.976 150.000,304.400 150.000 C 303.883 150.000,303.600 150.267,303.600 150.753 M91.953 151.873 C 91.927 152.053,91.928 152.339,91.956 152.509 C 91.983 152.679,91.555 152.989,91.003 153.199 C 89.388 153.813,89.476 157.713,91.100 157.527 C 92.058 157.416,92.216 157.204,92.325 155.880 C 92.424 154.686,92.665 154.279,93.453 153.980 C 94.873 153.440,94.629 151.849,93.100 151.673 C 92.495 151.604,91.979 151.694,91.953 151.873 M88.400 159.600 C 88.400 160.133,88.133 160.400,87.600 160.400 C 86.978 160.400,86.800 160.667,86.800 161.600 C 86.800 163.160,88.229 163.302,88.800 161.800 C 89.009 161.250,89.455 160.800,89.790 160.800 C 90.174 160.800,90.400 160.429,90.400 159.800 C 90.400 159.000,90.200 158.800,89.400 158.800 C 88.667 158.800,88.400 159.013,88.400 159.600 M308.690 159.579 C 308.509 160.271,308.662 160.400,309.667 160.400 C 310.586 160.400,310.828 160.240,310.725 159.700 C 310.527 158.661,308.954 158.567,308.690 159.579 M310.729 162.156 C 310.521 163.939,310.707 164.400,311.633 164.400 C 312.579 164.400,312.717 162.259,311.829 161.371 C 311.015 160.558,310.907 160.636,310.729 162.156 M85.200 165.000 C 85.200 166.119,85.356 166.400,85.976 166.400 C 86.979 166.400,87.174 166.046,86.917 164.698 C 86.584 162.955,85.200 163.199,85.200 165.000 M82.916 168.400 C 82.800 168.843,82.370 169.200,81.953 169.200 C 81.383 169.200,81.200 169.491,81.200 170.400 C 81.200 171.467,81.333 171.600,82.400 171.600 C 83.211 171.600,83.600 171.401,83.600 170.987 C 83.600 170.651,83.915 170.259,84.300 170.117 C 85.249 169.767,85.540 169.256,85.304 168.356 C 85.028 167.299,83.195 167.333,82.916 168.400 M315.600 171.155 C 315.600 173.023,315.653 173.117,316.808 173.286 C 317.959 173.455,318.012 173.401,317.926 172.132 C 317.877 171.399,317.683 170.800,317.495 170.800 C 317.307 170.800,317.276 170.600,317.428 170.355 C 317.718 169.886,316.944 169.216,316.100 169.206 C 315.767 169.202,315.600 169.854,315.600 171.155 M80.080 172.880 C 79.175 173.785,79.492 175.200,80.600 175.200 C 81.625 175.200,81.894 174.431,81.357 173.033 C 81.067 172.276,80.725 172.235,80.080 172.880 M78.000 177.172 C 78.000 177.733,77.742 178.000,77.200 178.000 C 76.667 178.000,76.400 178.267,76.400 178.800 C 76.400 179.240,76.143 179.600,75.829 179.600 C 74.788 179.600,74.000 180.820,74.000 182.429 C 74.000 183.518,74.174 184.000,74.567 184.000 C 74.879 184.000,75.419 184.109,75.767 184.243 C 76.288 184.443,76.400 184.158,76.400 182.633 C 76.400 181.025,76.532 180.730,77.400 180.400 C 77.950 180.191,78.400 179.766,78.400 179.457 C 78.400 179.147,78.774 178.795,79.232 178.676 C 80.397 178.371,80.137 176.648,78.900 176.472 C 78.215 176.375,78.000 176.542,78.000 177.172 M321.200 179.971 C 321.200 181.759,321.299 182.000,322.031 182.000 C 323.159 182.000,323.029 178.294,321.893 178.075 C 321.309 177.962,321.200 178.261,321.200 179.971 M199.393 180.823 C 199.228 181.343,199.367 181.922,199.764 182.360 C 200.114 182.747,200.400 183.262,200.400 183.505 C 200.400 183.747,200.745 184.056,201.168 184.190 C 201.679 184.352,202.023 184.954,202.199 185.994 C 202.344 186.852,202.714 187.762,203.021 188.017 C 203.328 188.272,203.694 189.092,203.834 189.840 C 204.017 190.817,204.302 191.200,204.845 191.200 C 205.318 191.200,205.600 191.481,205.600 191.953 C 205.600 192.370,205.957 192.800,206.400 192.916 C 206.973 193.066,207.200 193.462,207.200 194.309 C 207.200 194.960,207.549 195.936,207.975 196.478 C 208.402 197.020,208.877 197.967,209.032 198.584 C 209.186 199.200,209.631 199.788,210.019 199.889 C 210.408 199.991,210.811 200.399,210.915 200.797 C 211.176 201.795,212.800 202.671,212.800 201.814 C 212.800 201.476,212.564 201.200,212.275 201.200 C 211.986 201.200,211.502 200.570,211.200 199.800 C 210.898 199.030,210.530 198.400,210.383 198.400 C 210.236 198.400,209.347 196.856,208.407 194.968 C 207.468 193.081,206.452 191.441,206.150 191.325 C 205.847 191.209,205.600 190.795,205.600 190.404 C 205.600 190.013,205.240 189.599,204.800 189.484 C 204.221 189.333,204.000 188.938,204.000 188.055 C 204.000 187.018,202.573 184.287,201.676 183.609 C 201.197 183.247,200.400 181.635,200.400 181.029 C 200.400 180.072,199.678 179.925,199.393 180.823 M322.800 184.400 C 322.800 184.933,323.067 185.200,323.600 185.200 C 324.133 185.200,324.400 184.933,324.400 184.400 C 324.400 183.867,324.133 183.600,323.600 183.600 C 323.067 183.600,322.800 183.867,322.800 184.400 M72.684 185.450 C 72.039 186.094,72.388 188.000,73.151 188.000 C 74.819 188.000,75.394 185.515,73.779 185.283 C 73.333 185.219,72.839 185.294,72.684 185.450 M70.100 188.831 C 69.306 189.134,69.200 189.454,69.200 191.561 C 69.200 193.866,69.163 193.951,68.100 194.073 C 66.496 194.258,66.502 196.142,68.107 196.327 C 69.057 196.436,69.243 196.284,69.455 195.227 C 69.590 194.552,69.945 194.000,70.245 194.000 C 70.572 194.000,70.893 193.359,71.046 192.400 C 71.187 191.520,71.440 190.800,71.608 190.800 C 72.267 190.800,72.310 189.644,71.673 189.082 C 71.204 188.668,70.728 188.592,70.100 188.831 M326.645 189.328 C 326.279 190.692,326.335 190.800,327.406 190.800 C 328.262 190.800,328.400 190.633,328.327 189.679 C 328.222 188.301,326.989 188.043,326.645 189.328 M330.000 195.933 C 330.000 197.745,330.074 197.906,330.820 197.711 C 331.919 197.423,331.815 194.286,330.700 194.074 C 330.109 193.962,330.000 194.252,330.000 195.933 M65.680 197.680 C 64.686 198.674,65.098 200.000,66.400 200.000 C 67.316 200.000,67.600 199.819,67.600 199.233 C 67.600 197.397,66.695 196.665,65.680 197.680 M63.724 201.968 C 63.601 202.439,63.180 202.800,62.753 202.800 C 62.183 202.800,62.000 203.091,62.000 204.000 C 62.000 205.532,63.217 205.644,64.163 204.200 C 64.524 203.650,65.097 203.200,65.437 203.200 C 65.850 203.200,66.013 202.900,65.928 202.300 C 65.752 201.063,64.029 200.803,63.724 201.968 M212.800 203.970 C 212.800 204.762,213.073 205.318,213.600 205.600 C 214.164 205.902,214.400 206.438,214.400 207.414 C 214.400 208.416,214.577 208.800,215.037 208.800 C 215.388 208.800,215.763 209.138,215.871 209.551 C 215.979 209.964,216.503 210.501,217.034 210.743 C 217.747 211.068,218.000 211.501,218.000 212.399 C 218.000 214.004,219.833 217.463,220.820 217.721 C 221.407 217.875,221.600 218.274,221.600 219.334 C 221.600 220.109,221.885 221.028,222.234 221.377 C 222.582 221.725,223.041 222.638,223.252 223.405 C 223.467 224.182,223.895 224.800,224.219 224.800 C 224.538 224.800,224.800 225.049,224.800 225.354 C 224.800 225.659,225.250 226.203,225.800 226.563 C 226.489 227.015,226.800 227.582,226.800 228.387 C 226.800 229.084,227.109 229.771,227.566 230.091 C 227.987 230.386,228.457 231.296,228.610 232.114 C 228.783 233.035,229.114 233.600,229.482 233.600 C 229.808 233.600,230.165 233.943,230.274 234.363 C 230.384 234.783,230.817 235.216,231.237 235.326 C 231.807 235.475,232.000 235.885,232.000 236.948 C 232.000 237.940,232.232 238.496,232.764 238.781 C 233.220 239.025,233.634 239.820,233.792 240.756 C 233.974 241.830,234.299 242.385,234.829 242.523 C 235.253 242.634,235.600 243.012,235.600 243.363 C 235.600 243.713,235.864 244.000,236.186 244.000 C 236.963 244.000,237.600 245.254,237.600 246.786 C 237.600 247.508,237.846 248.119,238.189 248.251 C 238.513 248.376,238.893 249.090,239.034 249.839 C 239.217 250.816,239.502 251.200,240.045 251.200 C 240.577 251.200,240.800 251.486,240.800 252.166 C 240.800 252.697,241.205 253.616,241.700 254.208 C 243.682 256.578,245.530 258.400,245.953 258.400 C 246.199 258.400,246.400 258.760,246.400 259.200 C 246.400 259.733,246.667 260.000,247.200 260.000 C 247.718 260.000,248.000 260.267,248.000 260.755 C 248.000 261.311,248.394 261.585,249.486 261.790 C 250.304 261.943,251.214 262.413,251.509 262.834 C 251.804 263.255,252.293 263.600,252.596 263.600 C 252.898 263.600,253.249 263.924,253.375 264.320 C 253.500 264.716,254.215 265.262,254.963 265.532 C 255.712 265.803,256.425 266.289,256.549 266.612 C 256.673 266.935,257.134 267.200,257.573 267.200 C 258.013 267.200,258.565 267.560,258.800 268.000 C 259.149 268.653,259.638 268.800,261.452 268.800 C 263.311 268.800,263.708 268.926,263.877 269.571 C 264.015 270.100,264.570 270.426,265.639 270.607 C 266.822 270.806,267.200 271.057,267.200 271.640 C 267.200 272.397,266.146 272.410,206.500 272.395 C 145.925 272.380,145.800 272.381,145.439 273.190 C 145.240 273.635,144.856 274.000,144.584 274.000 C 144.306 274.000,143.973 274.785,143.821 275.800 C 143.645 276.974,143.351 277.600,142.975 277.600 C 142.659 277.600,142.400 277.840,142.400 278.133 C 142.400 278.427,141.865 279.192,141.211 279.833 C 140.557 280.475,140.017 281.227,140.011 281.504 C 140.005 281.781,139.640 282.316,139.200 282.693 C 138.705 283.116,138.400 283.873,138.400 284.675 C 138.400 285.562,138.147 286.107,137.600 286.400 C 137.160 286.635,136.800 287.093,136.800 287.417 C 136.800 287.740,136.350 288.397,135.800 288.875 C 135.250 289.353,134.800 290.059,134.800 290.444 C 134.800 290.828,134.558 291.384,134.263 291.680 C 133.349 292.594,132.800 293.895,132.800 295.147 C 132.800 295.995,132.566 296.420,132.000 296.600 C 131.560 296.740,131.200 297.114,131.200 297.431 C 131.200 297.748,130.840 298.316,130.400 298.693 C 129.905 299.116,129.600 299.873,129.600 300.675 C 129.600 301.544,129.347 302.107,128.833 302.383 C 128.410 302.609,127.946 303.335,127.801 303.997 C 127.655 304.659,127.313 305.200,127.039 305.200 C 126.328 305.200,124.356 308.360,124.106 309.899 C 123.988 310.631,123.656 311.200,123.348 311.200 C 123.046 311.200,122.800 311.439,122.800 311.730 C 122.800 312.022,122.367 312.667,121.838 313.164 C 121.309 313.661,120.761 314.683,120.620 315.434 C 120.479 316.185,120.124 316.800,119.832 316.800 C 119.299 316.800,118.800 318.468,118.800 320.250 C 118.800 320.773,118.575 321.202,118.300 321.204 C 117.582 321.210,115.200 323.765,115.200 324.528 C 115.200 324.882,114.840 325.365,114.400 325.600 C 113.904 325.865,113.598 326.441,113.595 327.114 C 113.586 328.822,113.157 330.000,112.543 330.000 C 112.234 330.000,111.872 330.540,111.740 331.200 C 111.608 331.860,111.264 332.400,110.975 332.400 C 110.658 332.400,110.341 333.117,110.179 334.200 C 110.008 335.338,109.705 336.000,109.355 336.000 C 109.050 336.000,108.800 336.264,108.800 336.586 C 108.800 336.908,108.462 337.353,108.048 337.574 C 107.635 337.796,106.998 338.721,106.634 339.631 C 106.270 340.540,105.709 341.548,105.386 341.871 C 105.064 342.193,104.800 342.911,104.800 343.466 C 104.800 344.138,104.533 344.545,104.000 344.684 C 103.560 344.799,103.200 345.192,103.200 345.558 C 103.200 345.923,102.835 346.535,102.389 346.917 C 101.943 347.299,101.470 348.149,101.339 348.806 C 101.207 349.463,100.940 350.000,100.744 350.000 C 100.547 350.000,100.095 350.675,99.738 351.500 C 99.381 352.325,98.908 353.396,98.687 353.881 C 98.466 354.365,97.771 354.941,97.143 355.160 C 96.514 355.379,96.000 355.843,96.000 356.192 C 96.000 356.540,95.732 356.928,95.404 357.054 C 95.076 357.180,94.597 357.984,94.340 358.841 C 94.084 359.699,93.661 360.400,93.402 360.400 C 93.142 360.400,92.226 361.205,91.365 362.189 C 90.504 363.173,89.596 363.983,89.347 363.989 C 89.097 363.995,88.806 364.336,88.698 364.746 C 88.574 365.220,87.990 365.588,87.090 365.757 C 86.313 365.902,85.576 366.287,85.451 366.611 C 85.327 366.935,84.963 367.200,84.643 367.200 C 84.323 367.200,83.553 367.624,82.931 368.142 C 82.309 368.661,81.116 369.210,80.279 369.364 C 79.442 369.518,78.665 369.887,78.551 370.183 C 78.438 370.479,77.682 370.845,76.872 370.996 C 76.063 371.147,75.078 371.615,74.684 372.035 C 74.291 372.456,73.436 372.800,72.784 372.800 C 72.133 372.800,71.269 373.131,70.864 373.536 C 70.305 374.095,69.240 374.334,66.413 374.535 C 61.730 374.867,59.600 375.470,59.600 376.463 C 59.600 377.121,59.964 377.200,63.000 377.200 C 66.092 377.200,66.400 377.130,66.400 376.428 C 66.400 375.807,66.849 375.570,68.700 375.211 C 71.410 374.685,72.800 374.157,72.800 373.654 C 72.800 373.454,73.631 373.166,74.646 373.014 C 75.990 372.812,76.546 372.529,76.692 371.969 C 76.850 371.366,77.252 371.200,78.558 371.200 C 79.727 371.200,80.426 370.962,80.907 370.400 C 81.284 369.960,82.061 369.600,82.634 369.600 C 83.319 369.600,83.743 369.341,83.873 368.843 C 83.992 368.389,84.565 367.987,85.306 367.839 C 85.985 367.703,86.824 367.333,87.170 367.016 C 89.669 364.730,90.562 364.000,90.859 364.000 C 91.047 364.000,91.200 363.713,91.200 363.363 C 91.200 363.012,91.560 362.631,92.000 362.516 C 92.440 362.401,92.800 362.041,92.800 361.716 C 92.800 361.391,93.145 361.035,93.566 360.925 C 93.987 360.815,94.441 360.291,94.574 359.762 C 94.707 359.233,95.082 358.800,95.408 358.800 C 95.733 358.800,96.000 358.633,96.000 358.428 C 96.000 357.887,98.615 355.200,99.143 355.200 C 99.389 355.200,99.703 354.496,99.841 353.635 C 100.011 352.569,100.332 352.007,100.846 351.872 C 101.410 351.725,101.600 351.309,101.600 350.225 C 101.600 349.274,101.817 348.692,102.231 348.533 C 102.577 348.400,103.023 347.865,103.221 347.345 C 103.418 346.825,103.832 346.400,104.140 346.400 C 104.448 346.400,104.807 345.863,104.939 345.206 C 105.070 344.549,105.542 343.699,105.987 343.318 C 106.432 342.937,106.905 342.046,107.038 341.339 C 107.171 340.631,107.621 339.743,108.040 339.364 C 108.458 338.986,108.800 338.434,108.800 338.138 C 108.800 337.842,109.137 337.600,109.549 337.600 C 110.110 337.600,110.360 337.209,110.547 336.044 C 110.683 335.188,111.041 334.393,111.341 334.278 C 111.641 334.163,111.998 333.378,112.133 332.534 C 112.280 331.620,112.707 330.797,113.190 330.497 C 113.707 330.175,114.000 329.566,114.000 328.811 C 114.000 328.065,114.276 327.480,114.747 327.228 C 115.158 327.008,115.609 326.253,115.750 325.550 C 115.899 324.805,116.649 323.673,117.546 322.836 C 118.583 321.870,119.177 320.909,119.362 319.900 C 119.518 319.049,119.868 318.400,120.173 318.400 C 120.502 318.400,120.813 317.704,120.979 316.600 C 121.158 315.410,121.447 314.800,121.834 314.800 C 122.156 314.800,122.582 314.375,122.779 313.855 C 122.977 313.335,123.399 312.809,123.718 312.687 C 124.036 312.565,124.421 311.969,124.573 311.364 C 124.725 310.758,125.198 309.820,125.625 309.278 C 126.051 308.736,126.400 307.850,126.400 307.309 C 126.400 306.662,126.674 306.254,127.200 306.116 C 127.660 305.996,128.000 305.570,128.000 305.116 C 128.000 304.671,128.338 304.237,128.771 304.123 C 129.300 303.985,129.626 303.430,129.807 302.361 C 129.963 301.436,130.293 300.800,130.617 300.800 C 130.927 300.800,131.279 300.183,131.431 299.377 C 131.591 298.524,132.078 297.705,132.649 297.331 C 133.337 296.880,133.600 296.338,133.600 295.368 C 133.600 294.438,133.844 293.897,134.400 293.600 C 134.970 293.295,135.200 292.762,135.200 291.748 C 135.200 290.662,135.389 290.276,136.000 290.116 C 136.460 289.996,136.800 289.570,136.800 289.116 C 136.800 288.662,137.140 288.236,137.600 288.116 C 138.040 288.001,138.400 287.753,138.400 287.565 C 138.400 287.377,138.850 286.240,139.400 285.037 C 139.950 283.835,140.400 282.670,140.400 282.448 C 140.400 282.227,140.731 281.810,141.137 281.523 C 141.542 281.235,142.088 280.595,142.351 280.100 C 142.613 279.605,143.069 279.200,143.363 279.200 C 143.678 279.200,144.003 278.541,144.154 277.600 C 144.294 276.720,144.592 276.000,144.815 276.000 C 145.037 276.000,145.391 275.550,145.600 275.000 L 145.980 274.000 208.944 274.000 C 260.795 274.000,272.134 273.905,273.188 273.462 L 274.468 272.924 271.997 272.399 C 270.639 272.111,269.441 271.652,269.336 271.378 C 269.231 271.105,268.368 270.685,267.418 270.446 C 266.467 270.207,265.594 269.761,265.477 269.456 C 265.360 269.151,264.594 268.775,263.774 268.622 C 262.955 268.468,262.050 268.107,261.762 267.819 C 261.475 267.532,260.421 267.174,259.421 267.024 C 258.223 266.844,257.460 266.487,257.187 265.976 C 256.959 265.549,256.515 265.200,256.200 265.200 C 255.885 265.200,255.449 264.865,255.229 264.455 C 255.010 264.045,254.297 263.489,253.644 263.218 C 252.991 262.948,252.370 262.499,252.263 262.220 C 252.156 261.942,251.513 261.603,250.834 261.467 C 250.103 261.321,249.600 260.972,249.600 260.610 C 249.600 260.274,249.313 260.000,248.963 260.000 C 248.612 260.000,248.231 259.640,248.116 259.200 C 248.001 258.760,247.703 258.397,247.453 258.394 C 247.204 258.391,246.100 257.365,245.000 256.114 C 243.900 254.864,242.607 253.462,242.128 253.000 C 241.648 252.538,241.130 251.659,240.976 251.047 C 240.823 250.436,240.461 249.845,240.173 249.734 C 239.885 249.624,239.531 248.996,239.387 248.340 C 239.243 247.683,238.892 247.057,238.607 246.947 C 238.323 246.838,237.976 246.182,237.838 245.489 C 237.699 244.796,236.960 243.639,236.196 242.918 C 235.313 242.086,234.671 241.007,234.437 239.965 C 234.234 239.063,233.693 237.924,233.234 237.436 C 232.775 236.948,232.400 236.228,232.400 235.837 C 232.400 235.445,232.057 235.035,231.637 234.926 C 231.217 234.816,230.784 234.383,230.674 233.963 C 230.565 233.543,230.209 233.200,229.884 233.200 C 229.243 233.200,228.814 232.044,228.805 230.296 C 228.802 229.689,228.440 228.884,228.000 228.507 C 227.560 228.130,227.200 227.497,227.200 227.099 C 227.200 226.701,226.930 226.271,226.600 226.145 C 226.270 226.018,226.000 225.679,226.000 225.391 C 226.000 225.102,225.865 224.807,225.700 224.733 C 225.013 224.428,223.637 222.006,223.384 220.655 C 223.226 219.811,222.878 219.200,222.555 219.200 C 222.250 219.200,222.000 218.823,222.000 218.363 C 222.000 217.865,221.679 217.441,221.210 217.318 C 220.680 217.180,220.332 216.633,220.152 215.656 C 220.005 214.855,219.550 213.771,219.142 213.246 C 218.734 212.721,218.400 211.879,218.400 211.373 C 218.400 210.805,218.094 210.357,217.600 210.200 C 217.160 210.060,216.800 209.700,216.800 209.400 C 216.800 209.100,216.449 208.743,216.020 208.606 C 215.220 208.353,215.061 208.019,214.583 205.600 C 214.180 203.558,212.800 202.297,212.800 203.970 M335.534 204.375 C 335.341 206.394,335.492 206.800,336.433 206.800 C 337.335 206.800,337.366 206.519,336.703 204.394 C 336.074 202.379,335.725 202.374,335.534 204.375 M60.400 207.600 C 60.400 208.903,60.540 209.200,61.157 209.200 C 62.073 209.200,62.485 208.280,62.156 206.968 C 61.722 205.237,60.400 205.712,60.400 207.600 M337.200 209.200 C 337.200 209.733,337.467 210.000,338.000 210.000 C 338.533 210.000,338.800 209.733,338.800 209.200 C 338.800 208.667,338.533 208.400,338.000 208.400 C 337.467 208.400,337.200 208.667,337.200 209.200 M58.363 210.100 C 58.343 210.155,58.238 210.829,58.130 211.597 C 57.924 213.062,57.402 213.652,56.588 213.340 C 55.750 213.018,54.937 214.259,54.870 215.961 C 54.811 217.458,54.892 217.600,55.803 217.600 C 56.644 217.600,56.800 217.412,56.800 216.400 C 56.800 215.740,56.941 215.200,57.112 215.200 C 57.284 215.200,57.628 214.660,57.878 214.000 C 58.213 213.111,58.588 212.800,59.322 212.800 C 60.330 212.800,60.800 212.153,60.800 210.767 C 60.800 210.131,58.575 209.522,58.363 210.100 M340.400 214.153 C 340.400 214.800,340.684 215.181,341.283 215.337 C 342.432 215.638,342.683 215.345,342.091 214.397 C 341.683 213.743,341.709 213.667,342.271 213.883 C 342.714 214.053,342.836 213.982,342.642 213.668 C 342.074 212.749,340.400 213.112,340.400 214.153 M342.667 217.467 C 342.059 218.074,342.459 218.800,343.400 218.800 C 344.492 218.800,344.666 218.426,343.920 217.680 C 343.376 217.136,343.052 217.081,342.667 217.467 M53.200 220.000 C 53.200 221.013,53.356 221.200,54.200 221.200 C 55.044 221.200,55.200 221.013,55.200 220.000 C 55.200 218.987,55.044 218.800,54.200 218.800 C 53.356 218.800,53.200 218.987,53.200 220.000 M49.739 223.484 C 49.382 224.339,49.212 225.518,49.336 226.281 C 49.529 227.471,49.454 227.600,48.575 227.600 C 47.802 227.600,47.600 227.807,47.600 228.600 C 47.600 229.444,47.787 229.600,48.800 229.600 C 49.751 229.600,50.000 229.426,50.000 228.763 C 50.000 228.281,50.318 227.842,50.747 227.730 C 51.315 227.581,51.548 227.038,51.714 225.467 C 51.835 224.330,52.043 223.125,52.176 222.788 C 52.780 221.262,50.382 221.946,49.739 223.484 M346.000 223.000 C 346.000 223.711,346.217 224.000,346.750 224.000 C 347.283 224.000,347.500 223.711,347.500 223.000 C 347.500 222.289,347.283 222.000,346.750 222.000 C 346.217 222.000,346.000 222.289,346.000 223.000 M349.200 229.447 C 349.200 231.166,349.262 231.277,350.100 231.052 C 350.595 230.919,351.149 230.808,351.332 230.805 C 351.795 230.798,351.199 228.265,350.650 227.906 C 349.588 227.213,349.200 227.625,349.200 229.447 M46.006 232.268 C 46.116 234.620,46.058 234.800,45.200 234.800 C 44.667 234.800,44.400 235.067,44.400 235.600 C 44.400 236.133,44.133 236.400,43.600 236.400 C 43.004 236.400,42.800 236.667,42.800 237.447 C 42.800 238.290,42.647 238.453,42.015 238.288 C 40.642 237.929,39.629 241.664,40.883 242.460 C 42.254 243.329,42.800 242.856,42.800 240.800 C 42.800 239.059,42.905 238.800,43.610 238.800 C 44.106 238.800,44.567 238.412,44.800 237.800 C 45.009 237.250,45.455 236.800,45.790 236.800 C 46.216 236.800,46.400 236.393,46.400 235.447 C 46.400 234.415,46.597 234.042,47.228 233.877 C 48.478 233.550,48.179 231.054,46.867 230.868 C 46.019 230.748,45.941 230.876,46.006 232.268 M351.600 233.600 C 351.600 234.549,351.774 234.800,352.433 234.800 C 352.958 234.800,353.180 234.615,353.034 234.300 C 352.905 234.025,352.689 233.485,352.554 233.100 C 352.162 231.991,351.600 232.286,351.600 233.600 M354.800 238.171 C 354.800 239.750,354.912 240.000,355.623 240.000 C 356.742 240.000,356.626 236.688,355.500 236.474 C 354.916 236.363,354.800 236.645,354.800 238.171 M356.400 242.800 C 356.400 243.333,356.667 243.600,357.200 243.600 C 357.733 243.600,358.000 243.333,358.000 242.800 C 358.000 242.267,357.733 242.000,357.200 242.000 C 356.667 242.000,356.400 242.267,356.400 242.800 M39.067 243.867 C 38.262 244.671,38.821 246.051,39.900 245.927 C 41.434 245.750,41.798 243.600,40.293 243.600 C 39.765 243.600,39.213 243.720,39.067 243.867 M35.867 247.067 C 35.720 247.213,35.600 248.473,35.600 249.867 C 35.600 252.133,35.516 252.400,34.800 252.400 C 34.208 252.400,34.000 252.667,34.000 253.428 C 34.000 254.796,35.732 254.681,35.928 253.300 C 35.998 252.805,36.292 252.400,36.581 252.400 C 37.163 252.400,37.586 251.188,37.595 249.500 C 37.598 248.791,37.813 248.400,38.200 248.400 C 38.530 248.400,38.800 248.209,38.800 247.976 C 38.800 247.743,38.619 247.665,38.397 247.802 C 38.176 247.939,37.886 247.769,37.754 247.425 C 37.512 246.794,36.359 246.575,35.867 247.067 M360.900 247.065 C 360.107 247.385,360.306 248.629,361.150 248.629 C 361.665 248.629,361.900 248.342,361.900 247.714 C 361.900 246.783,361.784 246.708,360.900 247.065 M363.600 253.375 C 363.600 253.704,363.943 253.924,364.400 253.890 C 365.358 253.818,365.445 253.380,364.567 253.043 C 363.677 252.701,363.600 252.728,363.600 253.375 M31.600 256.304 C 31.600 256.691,31.240 257.232,30.800 257.507 C 30.224 257.867,30.000 258.440,30.000 259.557 C 30.000 260.770,29.826 261.152,29.200 261.316 C 27.970 261.638,28.135 263.200,29.400 263.200 C 30.200 263.200,30.400 263.000,30.400 262.200 C 30.400 261.612,30.630 261.200,30.957 261.200 C 31.263 261.200,31.801 260.480,32.153 259.600 C 32.505 258.720,33.054 258.000,33.373 258.000 C 34.161 258.000,34.406 257.508,34.134 256.469 C 33.839 255.341,31.600 255.195,31.600 256.304 M365.200 256.800 C 365.200 257.333,365.467 257.600,366.000 257.600 C 366.812 257.600,366.929 256.842,366.200 256.306 C 365.521 255.807,365.200 255.966,365.200 256.800 M370.000 261.600 C 370.000 261.846,369.820 261.936,369.600 261.800 C 369.380 261.664,369.200 261.833,369.200 262.176 C 369.200 262.533,369.542 262.800,370.000 262.800 C 370.828 262.800,371.104 261.835,370.400 261.400 C 370.180 261.264,370.000 261.354,370.000 261.600 M26.800 265.400 C 26.800 265.983,26.570 266.400,26.249 266.400 C 25.439 266.400,24.832 267.296,24.598 268.838 C 24.485 269.587,24.499 269.975,24.629 269.700 C 24.760 269.425,25.279 269.200,25.783 269.200 C 26.482 269.200,26.757 268.914,26.940 268.000 C 27.112 267.141,27.410 266.800,27.990 266.800 C 28.808 266.800,29.003 266.193,28.557 265.033 C 28.148 263.968,26.800 264.249,26.800 265.400 M370.800 265.600 C 370.800 266.411,370.999 266.800,371.413 266.800 C 372.303 266.800,372.577 265.720,371.867 265.010 C 370.994 264.137,370.800 264.244,370.800 265.600 M21.612 272.185 C 21.370 272.477,21.200 272.870,21.233 273.058 C 21.580 274.987,21.134 277.200,20.400 277.200 C 19.813 277.200,19.600 277.467,19.600 278.200 C 19.600 279.000,19.800 279.200,20.600 279.200 C 21.348 279.200,21.600 278.989,21.600 278.363 C 21.600 277.875,21.919 277.442,22.363 277.326 C 23.138 277.123,23.585 276.107,23.595 274.527 C 23.598 274.008,23.925 273.551,24.400 273.400 C 25.023 273.202,25.115 272.989,24.818 272.435 C 24.362 271.583,22.249 271.418,21.612 272.185 M374.000 272.355 C 374.000 272.886,374.352 273.161,375.190 273.284 C 376.143 273.424,376.293 273.353,375.941 272.929 C 375.619 272.541,375.628 272.400,375.975 272.400 C 376.235 272.400,376.336 272.220,376.200 272.000 C 375.739 271.255,374.000 271.535,374.000 272.355 M378.106 278.047 C 378.068 278.554,378.313 278.800,378.854 278.800 C 379.388 278.800,379.615 278.577,379.529 278.138 C 379.347 277.202,378.176 277.128,378.106 278.047 M16.274 281.343 C 15.885 281.937,15.691 282.985,15.757 284.146 C 15.853 285.850,15.786 286.000,14.931 286.000 C 14.205 286.000,14.000 286.220,14.000 287.000 C 14.000 287.844,14.187 288.000,15.200 288.000 C 16.213 288.000,16.400 287.844,16.400 287.000 C 16.400 286.287,16.616 286.000,17.155 286.000 C 17.747 286.000,17.970 285.596,18.192 284.117 C 18.347 283.081,18.755 282.029,19.098 281.778 C 19.949 281.156,19.505 280.593,18.078 280.485 C 17.214 280.419,16.728 280.650,16.274 281.343 M379.600 281.235 C 379.600 281.742,379.879 282.000,380.429 282.000 C 380.987 282.000,381.216 281.783,381.129 281.338 C 380.941 280.374,379.600 280.284,379.600 281.235 M383.500 286.303 C 382.672 286.487,382.549 287.600,383.357 287.600 C 383.664 287.600,384.028 287.304,384.167 286.943 C 384.468 286.157,384.409 286.101,383.500 286.303 M12.400 290.000 C 12.400 290.533,12.133 290.800,11.600 290.800 C 10.956 290.800,10.800 291.067,10.800 292.167 C 10.800 295.003,12.159 295.894,12.632 293.368 C 12.780 292.581,13.193 291.829,13.551 291.697 C 14.514 291.343,14.792 290.732,14.358 289.922 C 13.821 288.918,12.400 288.975,12.400 290.000 M385.200 290.343 C 385.200 290.754,386.412 291.322,386.692 291.042 C 386.789 290.944,386.493 290.664,386.034 290.418 C 385.575 290.173,385.200 290.139,385.200 290.343 M9.282 297.100 C 9.371 297.628,9.081 297.831,8.100 297.925 C 6.871 298.044,6.184 299.650,7.009 300.476 C 7.688 301.155,9.200 300.242,9.200 299.153 C 9.200 298.267,9.385 298.000,10.000 298.000 C 10.533 298.000,10.800 297.733,10.800 297.200 C 10.800 296.661,10.533 296.400,9.982 296.400 C 9.426 296.400,9.202 296.623,9.282 297.100 M390.000 300.800 C 390.000 301.719,390.181 302.000,390.773 302.000 C 391.373 302.000,391.539 301.731,391.512 300.800 C 391.487 299.912,391.286 299.600,390.739 299.600 C 390.185 299.600,390.000 299.900,390.000 300.800 M5.467 302.267 C 4.792 302.941,5.274 303.600,6.443 303.600 C 7.412 303.600,7.632 303.461,7.443 302.967 C 7.309 302.619,7.200 302.259,7.200 302.167 C 7.200 301.894,5.756 301.977,5.467 302.267 M391.600 306.029 C 391.600 307.054,392.924 306.938,393.125 305.895 C 393.217 305.415,393.002 305.200,392.429 305.200 C 391.857 305.200,391.600 305.457,391.600 306.029 M2.000 313.776 C 2.000 314.533,2.208 315.281,2.462 315.438 C 2.749 315.616,2.815 315.548,2.636 315.259 C 2.476 314.999,2.625 314.689,2.975 314.554 C 3.931 314.187,3.786 312.400,2.800 312.400 C 2.155 312.400,2.000 312.667,2.000 313.776 M393.908 313.900 C 393.200 319.823,393.771 332.393,394.764 332.722 C 395.151 332.851,395.249 332.704,395.076 332.255 C 394.938 331.895,394.972 331.600,395.151 331.600 C 395.330 331.600,395.513 327.820,395.558 323.200 C 395.620 316.710,395.525 314.800,395.139 314.800 C 394.751 314.800,394.747 314.693,395.120 314.320 C 395.872 313.568,395.704 312.400,394.844 312.400 C 394.268 312.400,394.045 312.759,393.908 313.900 M2.740 315.747 C 1.796 316.438,1.675 333.332,2.608 334.265 C 3.558 335.215,3.624 334.502,3.508 324.524 C 3.409 316.002,3.347 315.302,2.740 315.747 M391.600 337.227 C 391.600 337.892,391.814 338.028,392.697 337.927 C 394.332 337.738,394.449 336.400,392.829 336.400 C 391.853 336.400,391.600 336.570,391.600 337.227 M390.000 343.400 C 390.000 344.170,390.075 344.800,390.167 344.800 C 390.259 344.800,390.619 344.909,390.967 345.043 C 391.481 345.240,391.600 344.976,391.600 343.643 C 391.600 342.267,391.470 342.000,390.800 342.000 C 390.152 342.000,390.000 342.267,390.000 343.400 M5.467 343.867 C 4.971 344.362,5.172 346.806,5.700 346.700 C 5.975 346.645,6.155 346.825,6.100 347.100 C 5.955 347.825,6.670 347.714,6.957 346.967 C 7.773 344.842,6.707 342.626,5.467 343.867 M9.400 351.200 C 9.264 351.420,9.259 351.772,9.389 351.983 C 9.718 352.515,10.800 352.035,10.800 351.357 C 10.800 350.718,9.770 350.602,9.400 351.200 M385.200 353.200 C 385.200 354.107,385.615 354.225,386.320 353.520 C 387.025 352.815,386.907 352.400,386.000 352.400 C 385.467 352.400,385.200 352.667,385.200 353.200 M10.800 354.976 C 10.800 355.513,10.980 356.064,11.200 356.200 C 11.420 356.336,11.600 356.246,11.600 356.000 C 11.600 355.754,11.780 355.664,12.000 355.800 C 12.227 355.940,12.400 355.604,12.400 355.024 C 12.400 354.267,12.192 354.000,11.600 354.000 C 11.018 354.000,10.800 354.267,10.800 354.976 M379.600 360.400 C 379.600 360.933,379.333 361.200,378.800 361.200 C 378.267 361.200,378.000 361.467,378.000 362.000 C 378.000 362.533,378.267 362.800,378.800 362.800 C 379.333 362.800,379.600 362.533,379.600 362.000 C 379.600 361.467,379.867 361.200,380.400 361.200 C 380.933 361.200,381.200 360.933,381.200 360.400 C 381.200 359.867,380.933 359.600,380.400 359.600 C 379.867 359.600,379.600 359.867,379.600 360.400 M16.028 361.633 C 16.013 361.982,16.100 362.367,16.223 362.490 C 16.624 362.891,18.000 362.321,18.000 361.753 C 18.000 360.937,16.805 361.079,16.772 361.900 C 16.748 362.499,16.694 362.484,16.400 361.800 C 16.147 361.212,16.049 361.168,16.028 361.633 M374.000 366.003 C 374.000 366.855,374.633 367.020,375.588 366.416 C 376.273 365.983,375.918 365.498,374.790 365.326 C 374.227 365.240,374.000 365.434,374.000 366.003 M22.910 367.604 C 22.937 367.955,23.358 368.272,23.854 368.313 C 24.518 368.368,24.734 368.185,24.690 367.605 C 24.649 367.057,24.366 366.845,23.747 366.896 C 23.213 366.940,22.881 367.221,22.910 367.604 M25.626 369.369 C 25.239 369.835,25.302 369.898,25.977 369.722 C 26.430 369.604,26.800 369.348,26.800 369.153 C 26.800 368.614,26.154 368.732,25.626 369.369 M28.944 370.718 C 28.574 371.311,28.627 371.447,29.248 371.494 C 29.745 371.531,30.000 371.287,30.000 370.775 C 30.000 369.804,29.530 369.779,28.944 370.718 M365.200 370.800 C 365.200 371.333,365.467 371.600,366.000 371.600 C 366.533 371.600,366.800 371.333,366.800 370.800 C 366.800 370.267,366.533 370.000,366.000 370.000 C 365.467 370.000,365.200 370.267,365.200 370.800 M40.400 376.024 C 40.400 376.257,40.580 376.336,40.800 376.200 C 41.020 376.064,41.200 376.233,41.200 376.576 C 41.200 377.654,47.809 377.480,47.890 376.400 C 47.946 375.652,47.704 375.600,44.175 375.600 C 41.785 375.600,40.400 375.755,40.400 376.024 M347.600 376.403 C 347.600 377.145,347.847 377.203,350.786 377.160 C 352.936 377.129,353.943 376.965,353.886 376.657 C 353.839 376.406,354.025 376.245,354.300 376.300 C 354.575 376.355,354.800 376.220,354.800 376.000 C 354.800 375.763,353.333 375.600,351.200 375.600 C 347.862 375.600,347.600 375.658,347.600 376.403 " stroke="none" fill="#a28f8d" fill-rule="evenodd"></path></g></svg>