<svg xmlns="http://www.w3.org/2000/svg" version="1.0" preserveAspectRatio="xMidYMid meet" viewBox="184 209.46 638.83 631.4">

<g transform="translate(0.000000,1024.000000) scale(0.100000,-0.100000)" fill="#FF5733" stroke="none">
<path d="M4775 8139 c-485 -45 -974 -207 -1406 -466 -260 -156 -455 -310 -666 -526 -577 -592 -861 -1311 -863 -2178 0 -346 44 -633 151 -965 132 -414 385 -840 691 -1164 383 -405 913 -728 1454 -885 236 -68 533 -114 789 -122 540 -16 1046 90 1512 317 371 180 615 350 873 609 422 423 714 954 841 1531 59 268 70 361 76 610 8 346 -19 582 -101 906 -176 696 -658 1363 -1286 1779 -457 304 -908 475 -1424 541 -148 18 -505 26 -641 13z m603 -693 c336 -50 684 -162 999 -319 572 -288 958 -617 1266 -1082 111 -167 249 -464 274 -585 l6 -30 -94 0 -94 0 -71 148 c-344 708 -975 1224 -1698 1388 -589 134 -1179 45 -1552 -233 l-89 -66 -66 73 -66 72 -53 -27 c-29 -15 -99 -55 -156 -90 -414 -253 -722 -620 -882 -1050 -156 -416 -161 -927 -15 -1365 182 -546 639 -1021 1198 -1243 115 -46 374 -113 490 -126 115 -14 376 -14 485 -1 224 28 480 104 685 204 560 274 941 748 1067 1331 18 84 22 133 22 300 1 278 -19 351 -149 545 -71 107 -189 231 -290 307 -67 50 -264 173 -277 173 -4 0 20 -51 53 -114 133 -254 189 -470 189 -731 0 -328 -102 -630 -304 -899 -229 -305 -560 -504 -964 -580 -253 -48 -569 -19 -810 74 -630 242 -1025 864 -972 1527 30 384 195 735 467 994 276 264 637 424 1008 449 77 5 160 15 185 22 77 21 404 15 540 -10 414 -75 781 -264 1070 -552 286 -284 491 -652 564 -1010 96 -470 -13 -1060 -276 -1498 -148 -247 -384 -490 -634 -654 -385 -253 -771 -381 -1259 -418 -407 -31 -894 63 -1271 244 -549 265 -1004 727 -1242 1262 -97 218 -170 469 -204 709 -20 137 -16 529 6 695 93 698 503 1342 1111 1748 162 108 438 242 621 301 216 70 438 116 644 135 92 8 438 -4 538 -18z"/>
</g>
</svg>