<?xml version="1.0" encoding="UTF-8"?>
<svg version="1.1" xmlns="http://www.w3.org/2000/svg" width="256" height="256">
<path d="M0 0 C3.23626734 0.00315024 6.47160933 -0.02033151 9.70776367 -0.0456543 C42.24094919 -0.1468239 69.65011443 8.38185861 93.44799805 31.31567383 C113.83370263 52.55488617 120.65892616 78.50627817 120.34643555 107.22583008 C119.62766451 134.21532662 105.65612166 156.73255021 87.0534668 175.33520508 C64.94778009 195.95166657 36.4146838 200.69164699 7.49780273 200.63134766 C4.34282646 200.62819365 1.18879626 200.65170215 -1.96606445 200.67700195 C-34.592115 200.78077875 -61.390839 192.23435147 -85.17700195 169.37817383 C-105.70422661 148.23674875 -112.51290246 122.12253176 -112.20043945 93.40551758 C-111.51475038 67.65823219 -98.57011867 44.72986688 -80.5246582 26.94848633 C-57.65916008 5.49176297 -30.25840389 -0.06145918 0 0 Z M-74.92700195 40.31567383 C-75.6230957 41.00016602 -76.31918945 41.6846582 -77.03637695 42.38989258 C-92.48913138 58.59132697 -99.46835962 80.7247795 -99.35083008 102.75317383 C-98.68660818 126.23431553 -87.88906794 148.34416582 -71.0090332 164.53833008 C-63.87219176 170.6307557 -56.2002189 175.44329162 -47.73950195 179.44067383 C-46.76787109 179.90183594 -46.76787109 179.90183594 -45.77661133 180.37231445 C-44.18935822 181.08886521 -42.56029393 181.71137693 -40.92700195 182.31567383 C-40.26700195 181.98567383 -39.60700195 181.65567383 -38.92700195 181.31567383 C-39.77262695 180.62602539 -40.61825195 179.93637695 -41.48950195 179.22583008 C-62.77664671 161.68248175 -76.76656106 139.16333229 -79.92700195 111.31567383 C-81.27140363 90.56045004 -77.72877436 71.77844761 -64.15039062 55.45947266 C-51.7686657 41.51293803 -34.19778294 33.33737483 -15.6574707 32.09692383 C2.92040169 31.59650976 18.62648536 36.79967402 33.07299805 48.31567383 C33.73170898 48.80938477 34.39041992 49.3030957 35.0690918 49.81176758 C47.45082003 59.54617752 54.50015589 76.13613683 56.76049805 91.37817383 C58.29649007 110.73167332 53.80116777 128.50689741 41.44799805 143.78051758 C39.41306065 146.05247893 37.25840502 148.18933191 35.07299805 150.31567383 C34.05762953 151.63734116 33.0547977 152.96888237 32.07299805 154.31567383 C46.97416828 150.63078575 59.00004892 142.91882634 67.5065918 130.01098633 C76.96440351 113.73694623 77.8120457 96.37861629 73.32299805 78.44067383 C71.45111341 72.08700089 69.13274459 66.1859179 66.07299805 60.31567383 C65.5934668 59.36305664 65.11393555 58.41043945 64.61987305 57.42895508 C53.98874682 37.68912118 35.40189999 23.77236563 14.2019043 17.03442383 C-18.16367697 7.61612431 -51.22969121 16.65979195 -74.92700195 40.31567383 Z M47.07299805 18.31567383 C50.19013682 21.53671723 53.43645167 24.50250197 56.82299805 27.44067383 C74.82491535 43.68240366 86.73230502 67.1646647 88.20581055 91.51000977 C89.20700565 112.20971849 84.99614625 130.86711236 70.94799805 146.69067383 C58.30868562 160.09842802 41.1975974 167.25296672 22.9597168 168.53442383 C5.54552846 169.04472971 -10.24846432 163.99840271 -23.92700195 153.31567383 C-24.61407227 152.80520508 -25.30114258 152.29473633 -26.0090332 151.76879883 C-39.98697193 140.63055969 -46.55215627 123.5471123 -48.92700195 106.31567383 C-50.68154366 87.28009803 -44.07646111 69.90583626 -32.28637695 55.28051758 C-29.64152521 52.13474694 -26.84931256 49.20669631 -23.92700195 46.31567383 C-38.46955396 49.46748168 -50.49815814 57.21773371 -58.80200195 69.75317383 C-69.02668737 87.05093574 -69.45826012 104.14292587 -64.92700195 123.31567383 C-58.95924281 144.4979398 -45.22958063 163.58498948 -25.98950195 174.62817383 C-3.90204331 186.79097706 19.58729931 190.53360992 44.05249023 183.79174805 C57.77936498 179.70818526 69.47763125 172.96377273 80.07299805 163.31567383 C80.7278418 162.73043945 81.38268555 162.14520508 82.05737305 161.54223633 C96.90823949 147.54562326 106.51755351 125.50479725 107.27612305 105.22192383 C107.74599102 78.92418685 98.81942287 57.01882574 80.88549805 37.75317383 C73.43701298 30.60733601 58.09859768 18.31567383 47.07299805 18.31567383 Z M-15.92700195 57.31567383 C-16.82032227 57.92282227 -16.82032227 57.92282227 -17.73168945 58.54223633 C-27.26859307 65.70590125 -34.07115879 78.73816214 -35.92700195 90.31567383 C-37.47717216 107.00383877 -34.943446 120.57630368 -24.92700195 134.31567383 C-24.4887207 134.94989258 -24.05043945 135.58411133 -23.59887695 136.23754883 C-17.72895676 143.94623921 -7.32705533 151.04669543 2.07299805 153.31567383 C12.07344924 153.50436159 20.88586913 146.21528194 27.7878418 139.66333008 C38.23553499 128.92988801 44.50801353 116.20508749 44.38549805 101.06567383 C44.3798584 100.32623535 44.37421875 99.58679688 44.3684082 98.82495117 C44.01370299 82.631429 37.35726607 70.63988617 26.07299805 59.31567383 C25.51999023 58.73946289 24.96698242 58.16325195 24.3972168 57.56958008 C10.39226779 44.19016229 -1.71102822 46.9815527 -15.92700195 57.31567383 Z " fill="#FC5100" transform="translate(123.927001953125,27.684326171875)"/>
</svg>
