<svg id="svg" version="1.1" xmlns="http://www.w3.org/2000/svg" xmlns:xlink="http://www.w3.org/1999/xlink" width="400" height="419.04761904761904" viewBox="0, 0, 400,419.04761904761904"><g id="svgg"><path id="path0" d="M78.761 20.014 C 13.733 27.615,-13.545 107.809,33.455 153.211 C 71.213 189.684,133.412 179.306,157.310 132.545 C 185.305 77.768,139.995 12.856,78.761 20.014 M297.320 43.600 C 297.320 44.810,297.395 45.305,297.487 44.700 C 297.578 44.095,297.578 43.105,297.487 42.500 C 297.395 41.895,297.320 42.390,297.320 43.600 M248.305 56.683 C 248.802 56.779,249.522 56.775,249.905 56.675 C 250.287 56.575,249.880 56.496,249.000 56.501 C 248.120 56.505,247.807 56.587,248.305 56.683 M369.700 56.676 C 370.085 56.776,370.715 56.776,371.100 56.676 C 371.485 56.575,371.170 56.493,370.400 56.493 C 369.630 56.493,369.315 56.575,369.700 56.676 M258.000 94.600 C 258.746 95.370,259.447 96.000,259.557 96.000 C 259.667 96.000,259.146 95.370,258.400 94.600 C 257.654 93.830,256.953 93.200,256.843 93.200 C 256.733 93.200,257.254 93.830,258.000 94.600 M297.314 103.400 C 297.317 104.500,297.395 104.903,297.487 104.295 C 297.579 103.686,297.577 102.786,297.482 102.295 C 297.387 101.803,297.311 102.300,297.314 103.400 M370.100 116.676 C 370.485 116.776,371.115 116.776,371.500 116.676 C 371.885 116.575,371.570 116.493,370.800 116.493 C 370.030 116.493,369.715 116.575,370.100 116.676 M256.800 153.325 C 256.800 153.394,257.385 153.979,258.100 154.625 L 259.400 155.800 258.225 154.500 C 257.130 153.288,256.800 153.016,256.800 153.325 M297.309 163.600 C 297.309 164.590,297.387 164.995,297.482 164.500 C 297.578 164.005,297.578 163.195,297.482 162.700 C 297.387 162.205,297.309 162.610,297.309 163.600 M230.054 229.735 C 229.574 230.313,229.364 387.320,229.841 388.562 C 230.064 389.143,237.248 389.200,310.244 389.200 L 390.402 389.200 390.301 309.300 L 390.200 229.400 310.350 229.299 C 243.916 229.215,230.425 229.288,230.054 229.735 M357.600 273.440 C 357.870 273.710,357.977 277.205,357.907 283.427 L 357.800 293.000 310.100 293.102 L 262.400 293.203 262.400 283.222 L 262.400 273.240 264.700 273.120 C 271.428 272.769,357.224 273.064,357.600 273.440 M357.907 335.373 C 357.976 341.478,357.867 345.093,357.608 345.352 C 357.177 345.783,273.707 346.097,266.300 345.697 L 262.400 345.486 262.400 335.541 L 262.400 325.597 310.100 325.698 L 357.800 325.800 357.907 335.373 " stroke="none" fill="#44bb9c" fill-rule="evenodd"></path><path id="path1" d="M84.000 243.865 C 75.273 244.721,74.413 244.852,68.636 246.217 C 30.273 255.277,4.239 294.389,10.589 333.423 C 20.088 391.810,87.166 419.333,134.363 384.208 C 178.492 351.366,175.424 283.871,128.505 255.345 C 115.307 247.320,96.980 242.593,84.000 243.865 M113.800 323.600 L 113.800 349.400 87.700 349.503 L 61.600 349.606 61.600 323.870 C 61.600 309.715,61.721 298.012,61.870 297.864 C 62.018 297.716,73.763 297.641,87.970 297.697 L 113.800 297.800 113.800 323.600 " stroke="none" fill="#db247b" fill-rule="evenodd"></path><path id="path2" d="M245.800 31.149 C 239.160 32.885,234.994 39.506,236.365 46.144 C 239.484 61.243,261.811 59.016,261.797 43.608 C 261.790 35.334,253.749 29.071,245.800 31.149 M306.600 31.333 C 293.705 35.583,294.977 54.376,308.293 56.346 C 320.672 58.178,328.147 43.326,319.300 34.478 C 316.176 31.355,310.671 29.991,306.600 31.333 M366.099 31.528 C 359.328 33.945,355.728 42.372,358.692 48.868 C 363.745 59.943,380.021 58.552,383.034 46.789 C 385.551 36.965,375.709 28.097,366.099 31.528 M245.597 91.174 C 239.407 93.057,235.436 98.942,236.167 105.154 C 237.761 118.724,257.019 120.604,261.200 107.598 C 264.285 98.005,255.061 88.295,245.597 91.174 M305.400 91.794 C 300.248 93.886,297.387 98.522,297.665 104.327 C 298.462 120.946,323.000 120.215,323.000 103.572 C 323.000 94.300,314.022 88.292,305.400 91.794 M366.400 91.439 C 353.214 96.140,355.705 115.504,369.600 116.313 C 376.291 116.703,381.424 113.072,383.027 106.817 C 385.512 97.116,375.765 88.101,366.400 91.439 M164.881 109.315 C 160.398 140.318,135.377 166.877,104.557 173.345 C 61.173 182.449,19.883 155.449,11.052 112.200 L 10.072 107.400 10.090 209.600 C 10.101 265.810,10.184 311.350,10.275 310.800 C 21.019 246.164,98.536 221.128,143.837 267.663 C 155.334 279.473,161.641 292.193,165.127 310.600 C 165.370 311.883,165.522 275.588,165.553 209.300 C 165.579 152.485,165.546 106.000,165.480 106.000 C 165.414 106.000,165.145 107.492,164.881 109.315 M244.650 151.599 C 231.139 156.876,234.525 176.444,248.949 176.444 C 260.632 176.444,266.295 162.469,257.849 154.482 C 254.193 151.024,249.017 149.894,244.650 151.599 M305.743 151.633 C 296.228 155.292,294.602 168.512,302.958 174.271 C 311.173 179.932,322.300 174.574,323.103 164.571 C 323.849 155.279,314.459 148.281,305.743 151.633 M365.400 151.964 C 352.539 158.197,356.603 176.492,370.838 176.447 C 378.776 176.422,384.687 169.260,383.238 161.422 C 381.726 153.241,372.671 148.440,365.400 151.964 " stroke="none" fill="#1c2c5c" fill-rule="evenodd"></path><path id="path3" d="M0.000 209.400 L 0.000 418.800 200.000 418.800 L 400.000 418.800 400.000 209.400 L 400.000 0.000 200.000 0.000 L 0.000 0.000 0.000 209.400 M97.630 19.788 C 107.745 21.216,114.100 23.123,122.605 27.286 C 144.891 38.193,161.587 61.022,165.107 85.400 C 166.204 92.995,166.174 326.731,165.075 333.400 C 155.175 393.497,86.648 420.140,38.600 382.572 C 24.163 371.283,14.914 355.566,10.490 334.800 C 9.534 330.310,9.239 96.078,10.179 87.360 C 14.699 45.429,55.564 13.853,97.630 19.788 M255.049 31.710 C 266.347 37.509,263.627 55.043,251.157 56.806 C 237.975 58.669,230.228 42.662,240.041 33.839 C 244.069 30.217,250.393 29.320,255.049 31.710 M315.478 31.375 C 328.795 37.575,324.790 56.967,310.207 56.900 C 297.200 56.840,292.033 40.070,302.750 32.697 C 306.501 30.116,311.629 29.583,315.478 31.375 M376.524 31.745 C 389.157 37.926,384.489 56.946,370.354 56.884 C 355.245 56.818,352.346 35.498,366.800 30.751 C 368.935 30.050,374.148 30.583,376.524 31.745 M254.740 91.559 C 267.441 98.111,263.048 116.905,248.800 116.974 C 235.701 117.037,230.746 99.258,241.930 92.323 C 245.386 90.179,251.373 89.823,254.740 91.559 M315.478 91.375 C 328.686 97.525,324.846 116.873,310.400 116.957 C 300.609 117.013,294.104 106.921,298.213 98.050 C 301.213 91.576,309.242 88.472,315.478 91.375 M376.217 91.608 C 382.415 94.608,385.516 101.995,383.177 108.190 C 377.903 122.165,357.439 118.539,357.434 103.628 C 357.432 93.761,367.437 87.358,376.217 91.608 M253.101 151.008 C 261.205 153.414,264.778 163.166,260.323 170.716 C 256.007 178.029,244.532 179.154,239.092 172.799 C 230.141 162.342,239.940 147.099,253.101 151.008 M315.732 151.527 C 328.670 157.263,324.752 176.794,310.632 176.952 C 297.423 177.100,291.927 160.143,302.767 152.685 C 306.296 150.257,311.766 149.768,315.732 151.527 M376.586 151.776 C 382.746 154.790,385.667 163.021,382.768 169.200 C 377.429 180.580,360.845 179.209,357.751 167.131 C 354.896 155.989,366.260 146.724,376.586 151.776 M390.412 229.500 C 390.557 238.099,390.341 389.392,390.183 389.550 C 389.886 389.847,245.907 389.992,236.700 389.705 L 229.600 389.483 229.600 309.141 L 229.600 228.800 310.000 228.800 C 386.300 228.800,390.401 228.836,390.412 229.500 M262.892 273.534 C 262.501 273.783,262.409 275.998,262.492 283.228 L 262.600 292.600 310.000 292.600 L 357.400 292.600 357.508 283.228 C 357.591 275.998,357.499 273.783,357.108 273.534 C 356.444 273.113,263.556 273.113,262.892 273.534 M64.300 297.920 L 62.000 298.040 62.000 323.820 L 62.000 349.600 87.803 349.600 L 113.606 349.600 113.503 323.700 L 113.400 297.800 90.000 297.800 C 77.130 297.800,65.565 297.854,64.300 297.920 M262.667 326.267 C 262.520 326.413,262.400 330.710,262.400 335.815 L 262.400 345.097 266.300 345.310 C 269.555 345.488,346.383 345.443,354.900 345.259 L 357.600 345.200 357.600 335.600 L 357.600 326.000 310.267 326.000 C 284.233 326.000,262.813 326.120,262.667 326.267 " stroke="none" fill="#f3f3f3" fill-rule="evenodd"></path><path id="path4" d="M81.800 19.401 C 82.020 19.476,85.710 19.607,90.000 19.692 C 94.290 19.776,96.990 19.713,96.000 19.552 C 94.249 19.267,81.001 19.126,81.800 19.401 M78.505 19.887 C 79.114 19.979,80.014 19.977,80.505 19.882 C 80.997 19.787,80.500 19.711,79.400 19.714 C 78.300 19.717,77.897 19.795,78.505 19.887 M71.704 20.627 C 46.784 26.088,22.954 45.790,15.412 67.167 C 14.377 70.099,14.999 69.417,16.376 66.108 C 25.644 43.844,47.846 25.862,71.800 21.217 C 77.505 20.111,77.568 20.093,75.800 20.087 C 74.920 20.083,73.077 20.327,71.704 20.627 M99.000 20.288 C 102.098 20.723,109.351 22.482,112.569 23.579 C 116.819 25.028,117.621 24.945,113.637 23.469 C 109.105 21.789,101.005 19.928,98.800 20.060 C 97.942 20.111,97.970 20.144,99.000 20.288 M122.010 27.510 C 140.486 36.695,153.979 51.731,161.041 71.000 C 162.389 74.679,162.833 75.235,161.838 72.000 C 156.181 53.600,139.519 35.064,120.931 26.492 C 115.322 23.905,115.949 24.497,122.010 27.510 M244.143 31.209 C 241.824 32.128,238.861 34.560,237.625 36.559 C 236.331 38.653,236.660 38.748,238.032 36.676 C 245.034 26.106,260.674 30.329,262.026 43.154 L 262.347 46.200 262.237 43.158 C 261.909 34.045,252.565 27.874,244.143 31.209 M305.981 30.943 C 301.795 32.440,297.204 37.711,297.222 41.000 C 297.224 41.440,297.550 40.864,297.945 39.720 C 300.481 32.379,308.196 28.843,315.300 31.765 C 318.178 32.948,318.311 32.694,315.500 31.386 C 313.098 30.267,308.472 30.052,305.981 30.943 M366.800 30.774 C 362.572 32.065,357.568 37.318,357.630 40.400 C 357.636 40.730,357.998 40.074,358.433 38.943 C 360.272 34.159,364.404 31.242,369.974 30.794 L 373.400 30.518 370.600 30.493 C 369.060 30.480,367.350 30.606,366.800 30.774 M375.252 31.562 C 377.631 32.492,379.690 34.073,381.201 36.127 C 381.860 37.024,382.400 37.562,382.400 37.322 C 382.400 35.720,376.008 30.759,374.021 30.819 C 373.680 30.829,374.234 31.163,375.252 31.562 M319.458 34.400 C 322.692 37.910,324.030 43.519,322.704 48.000 C 322.480 48.756,322.549 48.708,322.986 47.800 C 324.774 44.087,323.096 37.448,319.547 34.200 L 317.800 32.601 319.458 34.400 M382.572 38.475 C 382.673 38.846,382.966 39.926,383.222 40.875 C 384.347 45.033,382.634 50.230,379.080 53.442 C 377.936 54.476,377.360 55.128,377.800 54.891 C 382.573 52.326,385.402 43.916,383.078 39.200 C 382.699 38.430,382.471 38.104,382.572 38.475 M235.982 40.460 C 234.601 45.565,237.408 52.566,241.767 54.887 C 242.225 55.131,241.589 54.405,240.353 53.273 C 236.837 50.055,235.180 44.830,236.343 40.622 C 236.582 39.755,236.705 38.972,236.615 38.882 C 236.526 38.793,236.241 39.502,235.982 40.460 M357.324 43.800 C 357.326 45.120,357.401 45.612,357.490 44.893 C 357.579 44.174,357.577 43.094,357.486 42.493 C 357.395 41.892,357.322 42.480,357.324 43.800 M296.840 43.633 C 296.862 44.605,297.025 45.850,297.202 46.400 C 297.395 47.000,297.437 46.360,297.306 44.800 C 297.051 41.762,296.782 41.089,296.840 43.633 M261.103 48.328 C 259.791 52.023,256.375 55.087,252.367 56.165 C 250.647 56.627,250.452 56.753,251.421 56.774 C 255.104 56.853,262.831 49.494,261.924 46.772 C 261.853 46.558,261.483 47.258,261.103 48.328 M297.607 47.713 C 297.538 50.709,304.479 56.852,307.844 56.773 C 308.792 56.751,308.671 56.657,307.172 56.253 C 303.321 55.215,300.823 53.221,298.821 49.589 C 298.157 48.385,297.611 47.541,297.607 47.713 M358.018 48.116 C 357.858 50.972,364.755 56.834,368.200 56.770 C 369.142 56.752,368.947 56.625,367.292 56.180 C 363.515 55.163,360.641 52.852,358.861 49.400 C 358.407 48.520,358.027 47.942,358.018 48.116 M320.990 51.072 C 320.603 51.662,319.637 52.765,318.844 53.524 C 317.417 54.887,317.415 54.893,318.684 54.036 C 319.817 53.270,320.829 52.107,321.758 50.500 C 322.312 49.542,321.687 50.008,320.990 51.072 M315.600 55.490 C 314.830 55.833,313.660 56.250,313.000 56.416 C 311.902 56.692,311.885 56.721,312.800 56.750 C 313.791 56.782,317.200 55.441,317.200 55.020 C 317.200 54.757,317.324 54.720,315.600 55.490 M242.974 55.557 C 243.275 56.045,246.649 56.923,247.270 56.675 C 247.572 56.554,247.435 56.450,246.950 56.432 C 246.483 56.414,245.351 56.135,244.434 55.812 C 243.518 55.489,242.860 55.374,242.974 55.557 M375.497 55.633 C 375.111 55.858,374.031 56.193,373.097 56.377 C 371.689 56.655,371.604 56.718,372.600 56.746 C 373.661 56.775,377.605 55.295,376.600 55.245 C 376.380 55.233,375.884 55.408,375.497 55.633 M13.644 72.055 C 13.180 73.430,12.813 74.745,12.830 74.978 C 12.846 75.210,13.295 74.154,13.827 72.630 C 14.359 71.107,14.726 69.792,14.641 69.708 C 14.557 69.624,14.109 70.680,13.644 72.055 M163.027 77.000 C 163.159 77.660,163.609 79.820,164.027 81.800 C 164.445 83.780,164.815 85.940,164.848 86.600 C 164.894 87.514,164.950 87.591,165.079 86.922 C 165.306 85.757,164.194 79.420,163.410 77.400 C 162.938 76.186,162.846 76.089,163.027 77.000 M11.233 80.350 C 10.775 82.302,10.415 84.597,10.434 85.450 C 10.456 86.465,10.718 85.620,11.194 83.000 C 11.593 80.800,12.048 78.505,12.203 77.900 C 12.359 77.295,12.392 76.800,12.277 76.800 C 12.161 76.800,11.692 78.397,11.233 80.350 M10.101 88.600 C 10.105 89.480,10.187 89.793,10.283 89.295 C 10.379 88.798,10.375 88.078,10.275 87.695 C 10.175 87.313,10.096 87.720,10.101 88.600 M165.301 89.800 C 165.305 90.680,165.387 90.993,165.483 90.495 C 165.579 89.998,165.575 89.278,165.475 88.895 C 165.375 88.513,165.296 88.920,165.301 89.800 M249.400 90.756 C 256.642 91.407,261.103 95.649,262.017 102.757 L 262.357 105.400 262.225 102.698 C 261.886 95.814,256.633 90.765,249.600 90.565 L 246.200 90.469 249.400 90.756 M305.981 90.943 C 304.423 91.500,301.017 93.726,300.539 94.499 C 300.372 94.768,301.154 94.315,302.275 93.491 C 306.269 90.560,311.436 89.893,315.500 91.786 C 316.655 92.323,317.600 92.673,317.600 92.563 C 317.600 90.982,309.162 89.805,305.981 90.943 M365.951 91.025 C 364.935 91.338,363.856 91.891,363.555 92.255 C 363.148 92.745,363.469 92.678,364.803 91.994 C 366.035 91.363,367.669 90.986,370.000 90.795 L 373.400 90.518 370.600 90.487 C 369.060 90.470,366.968 90.712,365.951 91.025 M9.720 92.800 C 9.720 94.010,9.795 94.505,9.887 93.900 C 9.978 93.295,9.978 92.305,9.887 91.700 C 9.795 91.095,9.720 91.590,9.720 92.800 M243.345 91.569 C 241.599 92.362,238.618 94.845,237.979 96.040 C 237.770 96.429,238.551 95.797,239.714 94.634 C 241.096 93.252,242.584 92.230,244.014 91.681 C 245.216 91.219,245.930 90.836,245.600 90.830 C 245.270 90.823,244.255 91.156,243.345 91.569 M374.000 91.084 C 374.330 91.205,375.185 91.541,375.900 91.832 C 376.615 92.122,377.200 92.269,377.200 92.159 C 377.200 91.874,374.526 90.794,373.913 90.832 C 373.580 90.852,373.611 90.941,374.000 91.084 M379.263 94.100 C 380.239 95.035,381.348 96.250,381.728 96.800 C 382.415 97.795,382.415 97.794,381.835 96.570 C 381.295 95.430,378.321 92.400,377.743 92.400 C 377.603 92.400,378.287 93.165,379.263 94.100 M319.786 94.800 C 320.864 96.010,321.827 97.090,321.927 97.200 C 322.027 97.310,321.918 97.040,321.686 96.600 C 321.453 96.160,320.490 95.080,319.545 94.200 C 317.851 92.623,317.855 92.631,319.786 94.800 M360.905 94.500 C 359.289 96.153,357.605 99.186,357.630 100.400 C 357.636 100.730,358.001 100.064,358.441 98.921 C 358.881 97.777,360.058 95.932,361.057 94.821 C 363.270 92.360,363.181 92.172,360.905 94.500 M165.797 210.000 C 165.797 274.350,165.844 300.675,165.900 268.500 C 165.956 236.325,165.956 183.675,165.900 151.500 C 165.844 119.325,165.797 145.650,165.797 210.000 M298.381 97.716 C 297.588 99.409,297.091 101.183,296.989 102.676 L 296.832 105.000 297.211 102.600 C 297.420 101.280,298.122 99.124,298.772 97.810 C 299.421 96.495,299.877 95.343,299.783 95.250 C 299.690 95.157,299.059 96.267,298.381 97.716 M236.309 99.100 C 232.211 108.668,244.029 120.675,253.200 116.262 C 253.970 115.891,254.240 115.695,253.800 115.826 C 242.969 119.045,233.443 110.224,236.561 99.864 C 237.181 97.805,237.043 97.387,236.309 99.100 M322.716 99.400 C 322.872 100.060,323.000 101.950,323.000 103.600 C 323.000 105.250,322.872 107.140,322.716 107.800 L 322.433 109.000 322.998 107.800 C 323.329 107.099,323.564 105.353,323.564 103.600 C 323.564 101.847,323.329 100.101,322.998 99.400 L 322.433 98.200 322.716 99.400 M383.116 100.000 C 385.365 111.079,376.643 119.051,365.800 115.826 C 365.360 115.695,365.630 115.891,366.400 116.262 C 375.262 120.527,386.681 109.728,383.385 100.200 C 382.863 98.692,382.848 98.681,383.116 100.000 M9.797 208.600 C 9.797 268.220,9.843 292.550,9.900 262.668 C 9.957 232.785,9.957 184.005,9.900 154.268 C 9.843 124.530,9.797 148.980,9.797 208.600 M357.314 103.400 C 357.317 104.500,357.395 104.903,357.487 104.295 C 357.579 103.686,357.577 102.786,357.482 102.295 C 357.387 101.803,357.311 102.300,357.314 103.400 M261.646 106.621 C 261.554 108.253,259.494 111.621,257.469 113.452 C 256.331 114.480,255.771 115.126,256.225 114.887 C 258.606 113.633,262.305 108.128,261.873 106.483 C 261.730 105.942,261.683 105.971,261.646 106.621 M297.600 107.552 C 297.600 109.365,301.166 113.969,303.400 115.042 L 304.600 115.618 303.609 114.909 C 301.192 113.178,299.955 111.785,298.819 109.511 C 298.148 108.170,297.600 107.288,297.600 107.552 M358.000 108.153 C 358.000 108.582,359.190 110.800,359.421 110.800 C 359.531 110.800,359.323 110.215,358.959 109.500 C 358.217 108.040,358.000 107.736,358.000 108.153 M320.986 111.077 C 317.912 115.769,311.620 117.687,305.400 115.827 C 304.960 115.696,305.230 115.893,306.000 116.266 C 310.754 118.565,318.978 115.699,321.581 110.835 C 322.220 109.641,321.821 109.803,320.986 111.077 M360.129 112.020 C 360.491 112.581,361.285 113.403,361.894 113.846 C 363.007 114.656,364.372 115.493,364.000 115.137 C 361.409 112.656,359.601 111.201,360.129 112.020 M247.900 150.689 C 248.615 150.778,249.785 150.778,250.500 150.689 C 251.215 150.601,250.630 150.528,249.200 150.528 C 247.770 150.528,247.185 150.601,247.900 150.689 M309.100 150.689 C 309.815 150.778,310.985 150.778,311.700 150.689 C 312.415 150.601,311.830 150.528,310.400 150.528 C 308.970 150.528,308.385 150.601,309.100 150.689 M369.100 150.689 C 369.815 150.778,370.985 150.778,371.700 150.689 C 372.415 150.601,371.830 150.528,370.400 150.528 C 368.970 150.528,368.385 150.601,369.100 150.689 M243.000 151.743 C 241.900 152.258,240.235 153.512,239.300 154.530 C 236.895 157.150,237.186 157.260,239.703 154.682 C 241.123 153.227,242.518 152.255,244.003 151.685 C 245.211 151.221,245.930 150.834,245.600 150.825 C 245.270 150.815,244.100 151.229,243.000 151.743 M253.200 151.268 C 253.750 151.528,254.817 152.103,255.571 152.547 C 256.325 152.990,256.808 153.137,256.645 152.874 C 256.292 152.301,254.590 151.400,253.200 151.049 L 252.200 150.796 253.200 151.268 M304.400 151.691 C 300.889 153.427,297.143 158.406,297.244 161.200 C 297.271 161.949,297.369 161.822,297.635 160.694 C 298.548 156.819,301.090 153.786,304.958 151.956 C 306.301 151.321,307.130 150.801,306.800 150.801 C 306.470 150.801,305.390 151.201,304.400 151.691 M375.397 151.653 C 389.311 157.294,383.562 179.012,368.823 176.487 C 365.583 175.932,365.137 176.164,368.216 176.803 C 380.678 179.390,388.905 164.088,380.220 154.475 C 378.766 152.865,375.227 150.780,374.021 150.822 C 373.680 150.834,374.299 151.208,375.397 151.653 M316.200 152.061 C 321.645 154.871,324.272 161.217,322.716 167.800 L 322.433 169.000 322.998 167.800 C 325.565 162.355,320.002 150.937,314.920 151.218 C 314.744 151.227,315.320 151.607,316.200 152.061 M364.586 151.581 C 364.138 151.762,363.520 152.214,363.212 152.585 C 362.798 153.084,363.063 153.025,364.226 152.358 C 366.421 151.099,366.571 150.776,364.586 151.581 M258.504 154.746 C 260.510 157.159,261.622 159.702,262.020 162.783 L 262.357 165.400 262.225 162.698 C 262.065 159.444,260.736 156.446,258.543 154.395 L 257.053 153.000 258.504 154.746 M360.703 154.700 C 359.256 156.188,357.606 159.247,357.630 160.400 C 357.636 160.730,357.998 160.074,358.433 158.943 C 358.868 157.811,359.954 156.056,360.846 155.043 C 362.802 152.820,362.721 152.626,360.703 154.700 M235.982 160.460 C 233.407 169.978,242.447 179.079,252.036 176.622 C 253.442 176.262,254.773 175.787,254.993 175.567 C 255.212 175.348,254.584 175.471,253.596 175.842 C 243.990 179.450,233.663 170.327,236.348 160.604 C 236.585 159.747,236.705 158.972,236.615 158.882 C 236.526 158.793,236.241 159.502,235.982 160.460 M357.320 163.600 C 357.320 164.810,357.395 165.305,357.487 164.700 C 357.578 164.095,357.578 163.105,357.487 162.500 C 357.395 161.895,357.320 162.390,357.320 163.600 M261.623 166.600 C 261.601 167.040,261.232 168.172,260.804 169.116 C 260.375 170.060,260.185 170.733,260.381 170.612 C 260.941 170.265,262.109 166.917,261.875 166.329 C 261.747 166.011,261.647 166.118,261.623 166.600 M297.604 167.513 C 297.585 170.021,302.269 175.076,305.712 176.264 C 311.552 178.278,319.179 175.726,321.443 171.000 L 322.018 169.800 321.320 170.800 C 315.465 179.190,302.857 178.301,298.630 169.200 C 298.068 167.990,297.606 167.231,297.604 167.513 M358.236 168.800 C 358.853 171.162,363.614 176.000,365.322 176.000 C 365.561 176.000,364.956 175.483,363.978 174.852 C 361.782 173.434,359.956 171.500,358.831 169.400 C 358.311 168.429,358.077 168.193,358.236 168.800 M257.600 173.292 C 255.391 175.363,255.487 175.505,257.895 173.725 C 258.937 172.954,260.387 171.152,259.914 171.215 C 259.851 171.224,258.810 172.158,257.600 173.292 M229.600 229.449 C 229.600 229.950,229.724 229.995,230.143 229.647 C 230.543 229.315,251.746 229.223,310.543 229.298 C 354.465 229.354,390.400 229.265,390.400 229.100 C 390.400 228.935,354.220 228.800,310.000 228.800 C 236.103 228.800,229.600 228.852,229.600 229.449 M269.116 273.097 C 270.499 273.175,272.659 273.174,273.916 273.095 C 275.172 273.016,274.040 272.952,271.400 272.953 C 268.760 272.953,267.732 273.018,269.116 273.097 M287.900 273.096 C 289.275 273.174,291.525 273.174,292.900 273.096 C 294.275 273.018,293.150 272.954,290.400 272.954 C 287.650 272.954,286.525 273.018,287.900 273.096 M307.100 273.096 C 308.475 273.174,310.725 273.174,312.100 273.096 C 313.475 273.018,312.350 272.954,309.600 272.954 C 306.850 272.954,305.725 273.018,307.100 273.096 M326.316 273.097 C 327.699 273.175,329.859 273.174,331.116 273.095 C 332.372 273.016,331.240 272.952,328.600 272.953 C 325.960 272.953,324.932 273.018,326.316 273.097 M345.100 273.096 C 346.475 273.174,348.725 273.174,350.100 273.096 C 351.475 273.018,350.350 272.954,347.600 272.954 C 344.850 272.954,343.725 273.018,345.100 273.096 M357.108 273.498 C 357.498 273.774,357.590 276.012,357.508 283.228 L 357.400 292.600 309.900 292.600 C 283.775 292.600,262.400 292.736,262.400 292.902 C 262.400 293.068,283.865 293.158,310.100 293.102 L 357.800 293.000 357.800 283.233 C 357.800 274.891,357.712 273.443,357.200 273.303 C 356.748 273.180,356.725 273.228,357.108 273.498 M61.784 298.100 C 61.679 298.375,61.641 310.120,61.699 324.200 L 61.806 349.800 61.903 323.920 L 62.000 298.040 64.300 297.896 L 66.600 297.751 64.287 297.676 C 62.746 297.625,61.911 297.767,61.784 298.100 M78.716 297.897 C 80.099 297.975,82.259 297.974,83.516 297.895 C 84.772 297.816,83.640 297.752,81.000 297.753 C 78.360 297.753,77.332 297.818,78.716 297.897 M97.500 297.896 C 98.875 297.974,101.125 297.974,102.500 297.896 C 103.875 297.818,102.750 297.754,100.000 297.754 C 97.250 297.754,96.125 297.818,97.500 297.896 M113.600 323.520 L 113.800 349.400 113.903 323.823 C 113.960 309.756,113.870 298.110,113.703 297.943 C 113.536 297.776,113.490 309.286,113.600 323.520 M262.400 325.898 C 262.400 326.064,283.820 326.154,310.000 326.097 L 357.600 325.994 357.600 335.597 L 357.600 345.200 355.100 345.228 C 353.725 345.244,352.240 345.400,351.800 345.576 C 351.016 345.888,356.489 345.700,357.507 345.379 C 357.902 345.255,357.991 343.075,357.907 335.510 L 357.800 325.800 310.100 325.698 C 283.865 325.642,262.400 325.732,262.400 325.898 M263.507 345.490 C 264.226 345.579,265.306 345.577,265.907 345.486 C 266.508 345.395,265.920 345.322,264.600 345.324 C 263.280 345.326,262.788 345.401,263.507 345.490 M278.716 345.497 C 280.099 345.575,282.259 345.574,283.516 345.495 C 284.772 345.416,283.640 345.352,281.000 345.353 C 278.360 345.353,277.332 345.418,278.716 345.497 M294.696 345.535 C 294.310 345.688,296.020 345.758,298.496 345.691 C 304.968 345.516,305.774 345.325,300.200 345.288 C 297.560 345.271,295.083 345.381,294.696 345.535 M316.716 345.497 C 318.099 345.575,320.259 345.574,321.516 345.495 C 322.772 345.416,321.640 345.352,319.000 345.353 C 316.360 345.353,315.332 345.418,316.716 345.497 M332.696 345.535 C 332.310 345.688,334.020 345.758,336.496 345.691 C 342.968 345.516,343.774 345.325,338.200 345.288 C 335.560 345.271,333.083 345.381,332.696 345.535 M268.500 345.891 C 269.325 345.978,270.675 345.978,271.500 345.891 C 272.325 345.805,271.650 345.734,270.000 345.734 C 268.350 345.734,267.675 345.805,268.500 345.891 M273.905 345.883 C 274.402 345.979,275.122 345.975,275.505 345.875 C 275.887 345.775,275.480 345.696,274.600 345.701 C 273.720 345.705,273.407 345.787,273.905 345.883 M287.300 345.891 C 288.125 345.978,289.475 345.978,290.300 345.891 C 291.125 345.805,290.450 345.734,288.800 345.734 C 287.150 345.734,286.475 345.805,287.300 345.891 M306.691 345.889 C 307.401 345.977,308.661 345.979,309.491 345.892 C 310.321 345.805,309.740 345.733,308.200 345.731 C 306.660 345.729,305.981 345.800,306.691 345.889 M311.905 345.883 C 312.402 345.979,313.122 345.975,313.505 345.875 C 313.887 345.775,313.480 345.696,312.600 345.701 C 311.720 345.705,311.407 345.787,311.905 345.883 M325.300 345.891 C 326.125 345.978,327.475 345.978,328.300 345.891 C 329.125 345.805,328.450 345.734,326.800 345.734 C 325.150 345.734,324.475 345.805,325.300 345.891 M344.691 345.889 C 345.401 345.977,346.661 345.979,347.491 345.892 C 348.321 345.805,347.740 345.733,346.200 345.731 C 344.660 345.729,343.981 345.800,344.691 345.889 M158.672 354.219 C 157.732 356.189,157.864 356.524,158.847 354.662 C 159.293 353.816,159.587 353.054,159.501 352.967 C 159.414 352.881,159.041 353.444,158.672 354.219 M156.678 358.205 C 156.312 358.972,156.095 359.600,156.196 359.600 C 156.470 359.600,157.684 357.151,157.501 356.968 C 157.414 356.881,157.044 357.438,156.678 358.205 M32.200 376.800 C 34.612 379.220,36.676 381.200,36.786 381.200 C 36.896 381.200,35.012 379.220,32.600 376.800 C 30.188 374.380,28.124 372.400,28.014 372.400 C 27.904 372.400,29.788 374.380,32.200 376.800 M142.386 377.500 L 140.200 379.800 142.500 377.614 C 144.637 375.582,144.983 375.200,144.686 375.200 C 144.624 375.200,143.589 376.235,142.386 377.500 M229.632 388.841 C 229.604 389.399,230.526 389.512,236.700 389.705 C 247.085 390.029,389.906 389.828,390.245 389.488 C 390.404 389.330,354.428 389.200,310.300 389.200 C 246.488 389.200,230.025 389.098,229.865 388.700 C 229.735 388.377,229.652 388.428,229.632 388.841 M86.100 399.896 C 87.365 399.975,89.435 399.975,90.700 399.896 C 91.965 399.816,90.930 399.751,88.400 399.751 C 85.870 399.751,84.835 399.816,86.100 399.896 " stroke="none" fill="#9bb0be" fill-rule="evenodd"></path></g></svg>