<svg version="1.1" id="Layer_1" xmlns="http://www.w3.org/2000/svg" xmlns:xlink="http://www.w3.org/1999/xlink" x="0px" y="0px"
	 width="100%" viewBox="0 0 204 192" enable-background="new 0 0 204 192" xml:space="preserve">
<path fill="#FFFEFD" opacity="1.000000" stroke="none" 
	d="
M121.000000,193.000000 
	C80.691826,193.000000 40.883652,193.000000 1.037740,193.000000 
	C1.037740,129.065598 1.037740,65.131180 1.037740,1.098377 
	C68.891335,1.098377 136.782867,1.098377 204.837189,1.098377 
	C204.837189,64.999664 204.837189,128.999802 204.837189,193.000000 
	C177.131454,193.000000 149.315735,193.000000 121.000000,193.000000 
M21.131220,71.923157 
	C18.209949,71.793053 15.288677,71.662941 12.046260,71.518532 
	C12.046260,83.216606 12.038459,94.427994 12.086653,105.639145 
	C12.087997,105.952110 12.688548,106.262505 13.826213,106.809151 
	C15.234513,106.774689 16.642813,106.740234 18.493187,106.902161 
	C18.493187,106.902161 18.956537,106.763229 19.744291,107.062546 
	C40.552071,109.554420 58.332405,118.156708 72.497551,133.692734 
	C86.632729,149.195892 93.335342,167.784256 94.036827,188.701752 
	C105.867691,188.701752 117.269165,188.701752 129.035263,188.701752 
	C129.035263,186.786011 129.143082,185.152206 129.019562,183.536087 
	C125.504066,137.539185 103.172821,103.936012 62.148067,82.990891 
	C49.622662,76.596062 36.122154,72.940933 21.131220,71.923157 
M12.497003,46.750008 
	C18.634253,47.192966 24.798555,47.403656 30.904564,48.114830 
	C91.645706,55.189434 142.924408,103.675217 153.272049,163.922989 
	C154.669083,172.057007 155.234970,180.333755 156.185333,188.541229 
	C168.546753,188.541229 180.760757,188.541229 193.214844,188.541229 
	C193.214844,186.174591 193.276367,184.183411 193.205688,182.196930 
	C191.954697,147.039444 181.814850,114.565239 161.867889,85.676964 
	C126.956108,35.115833 78.509583,8.135166 16.982874,5.079086 
	C15.392002,5.000066 13.762572,5.697285 12.005782,6.955738 
	C12.074374,19.954430 12.142966,32.953121 12.497003,46.750008 
M29.545561,142.683716 
	C17.623371,146.448135 10.556438,156.838089 12.038603,168.422791 
	C13.470735,179.616455 23.193092,188.649841 34.471394,188.900452 
	C43.917965,189.110336 51.265606,185.080292 55.905212,176.772446 
	C60.671467,168.237793 60.100170,159.711197 54.441864,151.852936 
	C48.539074,143.655136 40.339314,140.564651 29.545561,142.683716 
z"/>
<path fill="#FF6703" opacity="1.000000" stroke="none" 
	d="
M12.151125,6.032496 
	C13.762572,5.697285 15.392002,5.000066 16.982874,5.079086 
	C78.509583,8.135166 126.956108,35.115833 161.867889,85.676964 
	C181.814850,114.565239 191.954697,147.039444 193.205688,182.196930 
	C193.276367,184.183411 193.214844,186.174591 193.214844,188.541229 
	C180.760757,188.541229 168.546753,188.541229 156.185333,188.541229 
	C155.234970,180.333755 154.669083,172.057007 153.272049,163.922989 
	C142.924408,103.675217 91.645706,55.189434 30.904564,48.114830 
	C24.798555,47.403656 18.634253,47.192966 12.605686,46.027454 
	C12.809867,33.617699 12.935072,21.930569 12.961881,10.243209 
	C12.965098,8.840265 12.434370,7.436097 12.151125,6.032496 
z"/>
<path fill="#FF6703" opacity="1.000000" stroke="none" 
	d="
M18.051113,106.705772 
	C16.642813,106.740234 15.234513,106.774689 13.413380,106.252304 
	C13.000546,94.939095 13.000546,84.182739 13.000546,73.624069 
	C16.536188,73.029564 19.254198,72.572548 21.972210,72.115524 
	C36.122154,72.940933 49.622662,76.596062 62.148067,82.990891 
	C103.172821,103.936012 125.504066,137.539185 129.019562,183.536087 
	C129.143082,185.152206 129.035263,186.786011 129.035263,188.701752 
	C117.269165,188.701752 105.867691,188.701752 94.036827,188.701752 
	C93.335342,167.784256 86.632729,149.195892 72.497551,133.692734 
	C58.332405,118.156708 40.552071,109.554420 19.263735,106.791565 
	C18.498121,106.339081 18.254101,106.400810 18.051113,106.705772 
z"/>
<path fill="#FF6704" opacity="1.000000" stroke="none" 
	d="
M29.947264,142.564865 
	C40.339314,140.564651 48.539074,143.655136 54.441864,151.852936 
	C60.100170,159.711197 60.671467,168.237793 55.905212,176.772446 
	C51.265606,185.080292 43.917965,189.110336 34.471394,188.900452 
	C23.193092,188.649841 13.470735,179.616455 12.038603,168.422791 
	C10.556438,156.838089 17.623371,146.448135 29.947264,142.564865 
z"/>
<path fill="#FF5303" opacity="1.000000" stroke="none" 
	d="
M21.551716,72.019341 
	C19.254198,72.572548 16.536188,73.029564 13.000546,73.624069 
	C13.000546,84.182739 13.000546,94.939095 13.005117,106.134773 
	C12.688548,106.262505 12.087997,105.952110 12.086653,105.639145 
	C12.038459,94.427994 12.046260,83.216606 12.046260,71.518532 
	C15.288677,71.662941 18.209949,71.793053 21.551716,72.019341 
z"/>
<path fill="#FF4F00" opacity="1.000000" stroke="none" 
	d="
M12.078453,6.494117 
	C12.434370,7.436097 12.965098,8.840265 12.961881,10.243209 
	C12.935072,21.930569 12.809867,33.617699 12.462964,45.628357 
	C12.142966,32.953121 12.074374,19.954430 12.078453,6.494117 
z"/>
<path fill="#FF5303" opacity="1.000000" stroke="none" 
	d="
M18.272150,106.803970 
	C18.254101,106.400810 18.498121,106.339081 18.869858,106.641907 
	C18.956537,106.763229 18.493187,106.902161 18.272150,106.803970 
z"/>
</svg>