<svg xmlns="http://www.w3.org/2000/svg" width="48" height="48" fill="none" viewBox="0 0 48 48" id="outlook"><path fill="#0A2767" d="M47.9999 25.4418C48.0026 25.0665 47.8086 24.7172 47.4887 24.5209H47.4831L47.463 24.5097L30.8305 14.6642C30.7586 14.6156 30.6841 14.5713 30.6072 14.5313C29.965 14.2 29.2021 14.2 28.5599 14.5313C28.483 14.5713 28.4085 14.6156 28.3367 14.6642L11.7042 24.5097L11.6841 24.5209C11.1757 24.837 11.0199 25.5054 11.336 26.0137C11.4292 26.1635 11.5574 26.2883 11.7097 26.3773L28.3423 36.2228C28.4144 36.2709 28.4889 36.3153 28.5656 36.3557C29.2078 36.687 29.9706 36.687 30.6128 36.3557C30.6895 36.3153 30.764 36.271 30.8361 36.2228L47.4686 26.3773C47.8009 26.1835 48.0037 25.8265 47.9999 25.4418Z"></path><path fill="#0364B8" d="M13.6431 18.8681H24.5581V28.8733H13.6431V18.8681ZM45.7674 8.69767V4.12092C45.7936 2.97663 44.8879 2.02742 43.7436 2H15.4192C14.2749 2.02742 13.3691 2.97663 13.3953 4.12092V8.69767L30.1395 13.1628L45.7674 8.69767Z"></path><path fill="#0078D4" d="M13.3953 8.69763H24.5581V18.7441H13.3953V8.69763Z"></path><path fill="#28A8EA" d="M35.7209 8.69763H24.5581V18.7441L35.7209 28.7906H45.7674V18.7441L35.7209 8.69763Z"></path><path fill="#0078D4" d="M24.5581 18.7441H35.7209V28.7906H24.5581V18.7441Z"></path><path fill="#0364B8" d="M24.5581 28.7906H35.7209V38.8372H24.5581V28.7906Z"></path><path fill="#14447D" d="M13.6431 28.8733H24.5581V37.9687H13.6431V28.8733Z"></path><path fill="#0078D4" d="M35.7209 28.7906H45.7674V38.8372H35.7209V28.7906Z"></path><path fill="url(#paint0_linear_147648_937)" d="M47.4887 26.3159L47.4675 26.3271L30.8349 35.6815C30.7624 35.7262 30.6887 35.7686 30.6117 35.8065C30.3292 35.9411 30.0224 36.017 29.7097 36.0298L28.8011 35.4984C28.7243 35.4599 28.6497 35.417 28.5778 35.3701L11.722 25.75H11.7142L11.1628 25.4419V44.3784C11.1714 45.6419 12.2022 46.6592 13.4656 46.6512H45.7328C45.7518 46.6512 45.7685 46.6423 45.7886 46.6423C46.0554 46.6252 46.3185 46.5703 46.57 46.4793C46.6786 46.4333 46.7835 46.3788 46.8837 46.3163C46.9584 46.2739 47.0868 46.1813 47.0868 46.1813C47.6586 45.7581 47.9971 45.0898 47.9999 44.3785V25.4419C47.9996 25.8041 47.8042 26.1381 47.4887 26.3159Z"></path><path fill="#0A2767" d="M47.1069 25.367V26.5279L29.7153 38.5023L11.7098 25.7577C11.7098 25.7515 11.7047 25.7465 11.6986 25.7465L10.0465 24.7531V23.9158L10.7274 23.9047L12.1674 24.7307L12.2009 24.7419L12.3237 24.82C12.3237 24.82 29.2464 34.4758 29.2911 34.4981L29.9385 34.8777C29.9944 34.8553 30.0502 34.833 30.1171 34.8107C30.1506 34.7884 46.9171 25.3558 46.9171 25.3558L47.1069 25.367Z" opacity=".5"></path><path fill="#1490DF" d="M47.4887 26.3159L47.4675 26.3282L30.8349 35.6826C30.7624 35.7273 30.6887 35.7697 30.6117 35.8076C29.9657 36.1232 29.2104 36.1232 28.5644 35.8076C28.4879 35.7698 28.4134 35.728 28.3411 35.6826L11.7086 26.3282L11.6886 26.3159C11.3674 26.1418 11.1661 25.8072 11.1628 25.4419V44.3784C11.1708 45.6416 12.2013 46.6592 13.4645 46.6512C13.4645 46.6512 13.4645 46.6512 13.4646 46.6512H45.6982C46.9614 46.6592 47.9919 45.6417 48 44.3785C48 44.3785 48 44.3785 48 44.3784V25.4419C47.9996 25.8041 47.8042 26.1381 47.4887 26.3159Z"></path><path fill="#000" d="M31.0772 35.5442L30.8283 35.6837C30.7561 35.7297 30.6816 35.7718 30.605 35.8099C30.3307 35.9445 30.0325 36.0234 29.7276 36.042L36.0558 43.5256L47.0947 46.1857C47.3972 45.9572 47.6378 45.6567 47.7946 45.3116L31.0772 35.5442Z" opacity=".1"></path><path fill="#000" d="M32.2046 34.9102L30.8283 35.6837C30.7561 35.7297 30.6816 35.7718 30.605 35.8099C30.3307 35.9445 30.0325 36.0234 29.7276 36.042L32.6924 44.2166L47.098 46.1823C47.6655 45.7562 47.9996 45.0881 47.9999 44.3784V44.1339L32.2046 34.9102Z" opacity=".05"></path><path fill="#28A8EA" d="M13.4958 46.6512H45.6948C46.1903 46.6537 46.6735 46.4972 47.0734 46.2047L28.8 35.5007C28.7232 35.4622 28.6486 35.4193 28.5767 35.3723L11.7209 25.7522H11.7131L11.1628 25.4419V44.3137C11.1615 45.6034 12.2061 46.6499 13.4958 46.6512C13.4958 46.6512 13.4958 46.6512 13.4958 46.6512Z"></path><path fill="#000" d="M26.7907 12.9764V36.7867C26.7887 37.6215 26.2811 38.3718 25.507 38.6843C25.2671 38.7874 25.0089 38.8406 24.7479 38.8406H11.1628V12.0466H13.3953V10.9303H24.7479C25.8756 10.9346 26.7882 11.8487 26.7907 12.9764Z" opacity=".1"></path><path fill="#000" d="M25.6744 14.0926V37.9028C25.6772 38.1725 25.62 38.4394 25.507 38.6842C25.1969 39.4483 24.4562 39.9496 23.6316 39.9534H11.1628V12.0465H23.6316C23.9555 12.0432 24.2747 12.124 24.5581 12.2809C25.2424 12.6257 25.6741 13.3264 25.6744 14.0926Z" opacity=".2"></path><path fill="#000" d="M25.6744 14.0926V35.6703C25.669 36.7975 24.7588 37.7111 23.6316 37.7209H11.1628V12.0465H23.6316C23.9555 12.0432 24.2747 12.124 24.5581 12.2809C25.2424 12.6257 25.6741 13.3264 25.6744 14.0926Z" opacity=".2"></path><path fill="#000" d="M24.5581 14.0926V35.6703C24.5569 36.7993 23.6443 37.7154 22.5153 37.7209H11.1628V12.0465H22.5153C23.6441 12.0471 24.5587 12.9627 24.5581 14.0915C24.5581 14.0919 24.5581 14.0923 24.5581 14.0926Z" opacity=".2"></path><path fill="url(#paint1_linear_147648_937)" d="M2.04613 12.0465H22.512C23.642 12.0465 24.5581 12.9626 24.5581 14.0926V34.5585C24.5581 35.6885 23.642 36.6046 22.512 36.6046H2.04613C0.916073 36.6046 0 35.6885 0 34.5585V14.0926C0 12.9626 0.916099 12.0465 2.04613 12.0465Z"></path><path fill="#fff" d="M6.39515 20.6285C6.89945 19.5541 7.71345 18.6549 8.73265 18.0466C9.86134 17.4004 11.1465 17.0782 12.4465 17.1156C13.6514 17.0895 14.8404 17.3949 15.8835 17.9986C16.8643 18.5834 17.6542 19.4404 18.1574 20.4655C18.7054 21.5951 18.9785 22.8382 18.9544 24.0934C18.981 25.4053 18.7 26.7051 18.1339 27.8888C17.6188 28.9505 16.8038 29.838 15.7898 30.4417C14.7064 31.0639 13.4733 31.3773 12.2244 31.3481C10.9937 31.3778 9.77853 31.0689 8.71144 30.4551C7.72218 29.8694 6.92237 29.0115 6.40744 27.9836C5.85622 26.8704 5.57987 25.6413 5.6015 24.3993C5.57853 23.0986 5.84985 21.8096 6.39515 20.6285ZM8.88668 26.6899C9.15556 27.3692 9.61153 27.9583 10.2017 28.3889C10.8027 28.809 11.5225 29.0257 12.2556 29.0073C13.0363 29.0382 13.8059 28.814 14.448 28.3688C15.0306 27.9395 15.4746 27.3488 15.725 26.6698C16.0049 25.9115 16.143 25.1082 16.1324 24.2999C16.1411 23.484 16.0112 22.6725 15.7484 21.9C15.5163 21.2025 15.0866 20.5874 14.5116 20.1295C13.8856 19.6632 13.1181 19.4267 12.3382 19.4598C11.5892 19.4404 10.8533 19.6588 10.2363 20.0838C9.63614 20.5162 9.17152 21.1105 8.89672 21.7972C8.28712 23.3714 8.28395 25.1158 8.88778 26.6921L8.88668 26.6899Z"></path><path fill="#50D9FF" d="M35.7209 8.69763H45.7674V18.7441H35.7209V8.69763Z"></path><defs><linearGradient id="paint0_linear_147648_937" x1="29.581" x2="29.581" y1="25.442" y2="46.651" gradientUnits="userSpaceOnUse"><stop stop-color="#35B8F1"></stop><stop offset="1" stop-color="#28A8EA"></stop></linearGradient><linearGradient id="paint1_linear_147648_937" x1="4.266" x2="20.292" y1="10.448" y2="38.203" gradientUnits="userSpaceOnUse"><stop stop-color="#1784D9"></stop><stop offset=".5" stop-color="#107AD5"></stop><stop offset="1" stop-color="#0A63C9"></stop></linearGradient></defs></svg>