<svg id="svg" version="1.1" xmlns="http://www.w3.org/2000/svg" xmlns:xlink="http://www.w3.org/1999/xlink" width="400" height="400" viewBox="0, 0, 400,400"><g id="svgg"><path id="path0" d="M125.792 99.682 C 125.684 99.967,125.641 142.320,125.697 193.800 L 125.800 287.400 142.298 287.504 L 158.795 287.609 158.898 254.904 L 159.000 222.200 179.796 222.200 L 200.592 222.200 223.264 254.353 C 235.733 272.038,246.183 286.755,246.486 287.057 C 246.941 287.512,250.388 287.590,266.367 287.504 L 285.698 287.400 260.604 252.306 C 246.802 233.004,235.599 216.978,235.709 216.693 C 235.818 216.408,237.280 215.754,238.958 215.239 C 259.938 208.802,275.233 191.651,278.812 170.549 C 285.250 132.593,265.239 106.771,224.218 100.104 C 218.755 99.216,126.120 98.819,125.792 99.682 M217.221 130.158 C 234.830 133.017,244.318 141.913,245.993 157.136 C 247.516 170.978,241.216 182.290,228.693 188.200 C 220.078 192.266,217.156 192.562,185.400 192.583 L 159.000 192.600 158.897 161.600 C 158.840 144.550,158.879 130.375,158.984 130.100 C 159.277 129.333,212.466 129.386,217.221 130.158 " stroke="none" fill="#fbfafa" fill-rule="evenodd"></path><path id="path1" d="M105.200 7.855 C 56.398 12.567,20.045 46.561,11.906 95.097 L 11.050 100.200 10.917 238.511 C 10.823 335.684,10.910 377.058,11.209 377.616 C 11.632 378.407,12.293 378.410,152.917 378.289 L 294.200 378.167 298.696 377.291 C 344.228 368.425,376.076 335.782,383.083 290.800 C 384.018 284.800,384.210 103.481,383.288 97.000 C 376.624 50.128,343.326 16.287,296.200 8.491 C 292.547 7.887,111.128 7.283,105.200 7.855 M224.218 100.104 C 265.239 106.771,285.250 132.593,278.812 170.549 C 275.233 191.651,259.938 208.802,238.958 215.239 C 237.280 215.754,235.818 216.408,235.709 216.693 C 235.599 216.978,246.802 233.004,260.604 252.306 L 285.698 287.400 266.367 287.504 C 250.388 287.590,246.941 287.512,246.486 287.057 C 246.183 286.755,235.733 272.038,223.264 254.353 L 200.592 222.200 179.796 222.200 L 159.000 222.200 158.898 254.904 L 158.795 287.609 142.298 287.504 L 125.800 287.400 125.697 193.800 C 125.641 142.320,125.684 99.967,125.792 99.682 C 126.120 98.819,218.755 99.216,224.218 100.104 M158.984 130.100 C 158.879 130.375,158.840 144.550,158.897 161.600 L 159.000 192.600 185.400 192.583 C 217.156 192.562,220.078 192.266,228.693 188.200 C 241.216 182.290,247.516 170.978,245.993 157.136 C 244.318 141.913,234.830 133.017,217.221 130.158 C 212.466 129.386,159.277 129.333,158.984 130.100 " stroke="none" fill="#e40414" fill-rule="evenodd"></path></g></svg>