<svg xml:space="preserve" style="max-height: 500px" viewBox="462.91999999999996 242.544 170.824 170.824" y="0px" x="0px" xmlns:xlink="http://www.w3.org/1999/xlink" xmlns="http://www.w3.org/2000/svg" id="layer" version="1.1" width="170.824" height="170.824">
<style type="text/css">
	.st0{fill:#E30613;}
	.st1{fill:#FFFFFF;}
	.st2{fill:#364150;}
</style>
<path d="M511.2,246.3h72.2c23.8,0,43,19.3,43,43l0,0v71.4c0,23.8-19.3,43-43,43H468.1l0,0V289.4&#10;&#9;C468.1,265.6,487.4,246.3,511.2,246.3z" class="st0"/>
<path d="M516.7,284.9h35.9c10,0,18,3,23.3,8c4.5,4.6,6.9,11,6.5,17.4v0.3c0,13.2-8,21.2-19.1,24.4l21.7,30.4h-16.7&#10;&#9;l-19.8-28.1h-17.7v28.1h-14.2v-80.5H516.7z M551.5,324.8c10,0,16.6-5.3,16.6-13.4v-0.2c0-8.6-6.2-13.4-16.7-13.4h-20.6v27.1&#10;&#9;L551.5,324.8z" class="st1"/>
<path d="M83.8,403.8l-22-31.2H42v31.2H26.4v-89.4h39.9c5.1,0,9.7,0.6,13.9,1.9s7.7,3.2,10.5,5.6&#10;&#9;c2.9,2.4,5.1,5.4,6.5,8.9c1.6,3.5,2.2,7.5,2.2,11.8c0,7.5-1.9,13.4-5.9,17.9c-4,4.5-9.1,7.7-15.5,9.4l24.2,34H83.8z M83.6,343.6&#10;&#9;c0-4.9-1.6-8.8-4.9-11.2c-3.3-2.4-7.8-3.8-13.7-3.8H42v30.1h23.1c5.6,0,10.2-1.4,13.4-4.1C81.9,351.9,83.6,348.2,83.6,343.6z&#10;&#9; M120.4,375.6c1,5.6,3.2,9.7,6.7,12.8c3.5,2.9,7.8,4.5,12.8,4.5c3.8,0,7.2-0.6,10-2.1c2.9-1.4,5.6-3.3,8.3-6.1l9.1,8.1&#10;&#9;c-3.2,3.8-7.2,6.9-11.6,9.2c-4.5,2.2-9.9,3.5-16.1,3.5c-4.8,0-9.4-0.8-13.5-2.6c-4.1-1.8-7.8-4.1-11-7.2c-3.2-3-5.6-6.9-7.3-11.2&#10;&#9;c-1.8-4.3-2.7-9.1-2.7-14.3c0-4.8,0.8-9.4,2.4-13.7c1.6-4.3,3.8-8.1,6.9-11.3c3-3.2,6.4-5.7,10.4-7.5c4-1.8,8.4-2.7,13.2-2.7&#10;&#9;c5.4,0,10,1,14.2,2.9c4,1.9,7.5,4.6,10,8c2.7,3.3,4.8,7.2,6.1,11.6c1.4,4.5,2.1,9.1,2.1,13.9c0,0.6,0,1.4,0,2.1&#10;&#9;c0,0.6-0.2,1.4-0.2,2.2h-49.6V375.6z M154.9,365.2c-0.3-2.4-0.8-4.8-1.6-7c-0.8-2.2-2.1-4.1-3.5-5.7c-1.4-1.6-3.2-2.9-5.1-3.8&#10;&#9;c-2.1-1-4.3-1.3-6.9-1.3c-4.8,0-8.8,1.6-11.8,4.9c-3.2,3.3-4.9,7.5-5.7,12.9H154.9z M237.6,392.7c-1.6,1.9-3.3,3.5-5.3,5.1&#10;&#9;s-4,2.9-6.1,4c-2.2,1.1-4.6,1.9-7.3,2.6c-2.7,0.6-5.6,1-8.9,1c-5.1,0-9.7-1-13.9-2.7c-4.3-1.8-8-4.3-11.2-7.5s-5.6-6.9-7.3-11.2&#10;&#9;c-1.8-4.1-2.7-8.8-2.7-13.5s1-9.4,2.7-13.7c1.8-4.3,4.1-8,7.3-11.3c3.2-3.2,6.9-5.7,11.2-7.7c4.3-1.9,8.9-2.9,14-2.9&#10;&#9;c6.4,0,11.6,1.1,15.9,3.2c4.1,2.1,8,4.9,11,8.4l-9.6,10.4c-2.4-2.4-4.9-4.5-7.7-6.1c-2.7-1.6-6.1-2.4-9.9-2.4&#10;&#9;c-2.9,0-5.4,0.6-7.8,1.8c-2.4,1.1-4.5,2.7-6.1,4.6c-1.8,1.9-3,4.3-4,6.9c-1,2.6-1.4,5.4-1.4,8.4c0,3,0.5,5.9,1.4,8.6&#10;&#9;c1,2.7,2.4,4.9,4.1,6.9c1.8,1.9,4,3.5,6.4,4.6c2.4,1.1,5.3,1.8,8.1,1.8c3.7,0,6.9-0.8,9.7-2.4c2.7-1.6,5.4-3.7,7.8-6.1L237.6,392.7z&#10;&#9; M307,403.8h-17.9l-20.4-29.2l-9.4,9.9v19.3h-15.6v-93.4h15.6v55.8l28.1-30h18.8l-26.8,27.4L307,403.8z M375.5,370&#10;&#9;c0,4.8-1,9.4-2.7,13.7c-1.9,4.3-4.3,8-7.5,11.2c-3.2,3.2-7,5.7-11.5,7.7c-4.5,1.9-9.2,2.9-14.5,2.9c-5.1,0-9.9-1-14.2-2.7&#10;&#9;c-4.5-1.8-8.1-4.3-11.3-7.5c-3.2-3.2-5.7-6.9-7.5-11.2c-1.8-4.1-2.7-8.8-2.7-13.5c0-4.8,1-9.4,2.7-13.7s4.3-8.1,7.5-11.3&#10;&#9;c3.2-3.2,7-5.7,11.3-7.7c4.5-1.9,9.2-2.9,14.3-2.9c5.3,0,10,1,14.3,2.7c4.5,1.9,8.1,4.3,11.3,7.5c3.2,3.2,5.7,6.9,7.5,11.2&#10;&#9;C374.7,360.6,375.5,365.2,375.5,370z M359.9,370.3c0-3-0.5-5.7-1.6-8.4c-1-2.7-2.4-4.9-4.3-7c-1.8-1.9-4-3.5-6.5-4.6&#10;&#9;s-5.3-1.8-8.3-1.8c-3,0-5.9,0.6-8.3,1.8c-2.6,1.1-4.6,2.7-6.4,4.6c-1.8,1.9-3.2,4.3-4.1,6.9c-1,2.6-1.4,5.4-1.4,8.4&#10;&#9;c0,3,0.5,5.7,1.6,8.4c1,2.7,2.4,4.9,4.3,7c1.8,2.1,4,3.5,6.5,4.8c2.6,1.1,5.3,1.8,8.1,1.8c3.2,0,5.9-0.6,8.4-1.8&#10;&#9;c2.6-1.1,4.6-2.7,6.4-4.6c1.8-1.9,3.2-4.3,4-6.9C359.6,376.1,359.9,373.2,359.9,370.3z M399.6,403.8h-15.6v-67.6h15.6l-0.2,10.5&#10;&#9;c2.2-3.3,4.9-6.1,8.3-8.4c3.3-2.4,7.7-3.5,12.8-3.5c7.7,0,13.5,2.4,17.7,7c4.1,4.6,6.2,11,6.2,19v42.9h-15.6v-38.3&#10;&#9;c0-5.3-1.3-9.4-3.7-12.1c-2.6-2.9-6.1-4.3-10.5-4.3s-8.1,1.4-10.8,4.5c-2.7,2.9-4.1,7-4.1,12.3V403.8z" class="st2"/>
</svg>