<svg version="1.1" id="Layer_1" xmlns="http://www.w3.org/2000/svg" xmlns:xlink="http://www.w3.org/1999/xlink" x="0px" y="0px"
	 width="100%" viewBox="0 0 225 225" enable-background="new 0 0 225 225" xml:space="preserve">
<path fill="#FF6601" opacity="1.000000" stroke="none" 
	d="
M1.000001,199.000000 
	C1.000000,142.312439 1.000000,85.624878 1.330551,28.310312 
	C5.163183,14.739436 13.128321,6.066854 26.066107,2.120381 
	C26.760084,1.908695 27.357588,1.380732 28.000000,1.000000 
	C84.687561,1.000000 141.375122,1.000000 198.654358,1.343215 
	C206.118866,3.413882 212.658478,6.268679 216.832626,11.989059 
	C220.594360,17.144251 222.997604,23.290728 226.000000,29.000002 
	C226.000000,85.354225 226.000000,141.708450 225.669312,198.689575 
	C222.824921,208.790878 217.789886,216.493103 209.100922,221.315216 
	C205.609375,223.252960 201.712433,224.460266 198.000000,226.000000 
	C141.645767,226.000000 85.291542,226.000000 28.319172,225.666870 
	C16.326422,222.326172 8.047974,215.680618 3.447344,204.705902 
	C2.647282,202.797348 1.816563,200.901642 1.000001,199.000000 
M97.851753,80.659126 
	C91.842590,68.634071 85.866188,56.592384 79.778992,44.606968 
	C79.089500,43.249386 77.821098,41.229370 76.745079,41.180168 
	C69.895943,40.867004 63.025448,41.020840 55.651955,41.020840 
	C56.479771,42.697681 56.873753,43.585720 57.342567,44.432320 
	C72.307899,71.457298 87.340843,98.445259 102.159996,125.550117 
	C103.666771,128.306061 104.558029,131.751755 104.604065,134.893921 
	C104.843140,151.210144 104.715240,167.531754 104.715157,183.851486 
	C104.715149,185.627441 104.715149,187.403381 104.715149,189.279724 
	C110.871086,189.279724 116.405350,189.279724 122.284721,189.279724 
	C122.284721,171.251938 122.103539,153.614273 122.424370,135.985748 
	C122.495979,132.050888 123.603485,127.756371 125.469238,124.292816 
	C139.879120,97.542641 154.595230,70.957466 169.204758,44.314743 
	C169.883820,43.076382 170.451813,41.777122 171.311951,40.013187 
	C165.203827,40.013187 159.724274,40.254292 154.278244,39.930931 
	C150.459763,39.704205 148.515732,40.854267 146.761230,44.493019 
	C135.951767,66.911331 124.787827,89.158737 113.506569,111.937927 
	C108.223770,101.453140 103.162598,91.408195 97.851753,80.659126 
z"/>
<path fill="#FFFDFB" opacity="1.000000" stroke="none" 
	d="
M226.000000,28.531343 
	C222.997604,23.290728 220.594360,17.144251 216.832626,11.989059 
	C212.658478,6.268679 206.118866,3.413882 199.123016,1.343215 
	C207.927780,1.000000 216.855560,1.000000 226.000000,1.000000 
	C226.000000,10.019741 226.000000,19.041212 226.000000,28.531343 
z"/>
<path fill="#FFFDFC" opacity="1.000000" stroke="none" 
	d="
M1.000001,199.468658 
	C1.816563,200.901642 2.647282,202.797348 3.447344,204.705902 
	C8.047974,215.680618 16.326422,222.326172 27.850513,225.666870 
	C19.073566,226.000000 10.147134,226.000000 1.000000,226.000000 
	C1.000000,217.313675 1.000000,208.625504 1.000001,199.468658 
z"/>
<path fill="#FFFDFB" opacity="1.000000" stroke="none" 
	d="
M198.468658,226.000000 
	C201.712433,224.460266 205.609375,223.252960 209.100922,221.315216 
	C217.789886,216.493103 222.824921,208.790878 225.669312,199.158234 
	C226.000000,207.927780 226.000000,216.855560 226.000000,226.000000 
	C216.980255,226.000000 207.958786,226.000000 198.468658,226.000000 
z"/>
<path fill="#FFFDFC" opacity="1.000000" stroke="none" 
	d="
M27.531338,1.000000 
	C27.357588,1.380732 26.760084,1.908695 26.066107,2.120381 
	C13.128321,6.066854 5.163183,14.739436 1.330551,27.841656 
	C1.000000,19.073568 1.000000,10.147137 1.000000,1.000000 
	C9.686316,1.000000 18.374496,1.000000 27.531338,1.000000 
z"/>
<path fill="#FFFDFC" opacity="1.000000" stroke="none" 
	d="
M97.976593,81.011192 
	C103.162598,91.408195 108.223770,101.453140 113.506569,111.937927 
	C124.787827,89.158737 135.951767,66.911331 146.761230,44.493019 
	C148.515732,40.854267 150.459763,39.704205 154.278244,39.930931 
	C159.724274,40.254292 165.203827,40.013187 171.311951,40.013187 
	C170.451813,41.777122 169.883820,43.076382 169.204758,44.314743 
	C154.595230,70.957466 139.879120,97.542641 125.469238,124.292816 
	C123.603485,127.756371 122.495979,132.050888 122.424370,135.985748 
	C122.103539,153.614273 122.284721,171.251938 122.284721,189.279724 
	C116.405350,189.279724 110.871086,189.279724 104.715149,189.279724 
	C104.715149,187.403381 104.715149,185.627441 104.715157,183.851486 
	C104.715240,167.531754 104.843140,151.210144 104.604065,134.893921 
	C104.558029,131.751755 103.666771,128.306061 102.159996,125.550117 
	C87.340843,98.445259 72.307899,71.457298 57.342567,44.432320 
	C56.873753,43.585720 56.479771,42.697681 55.651955,41.020840 
	C63.025448,41.020840 69.895943,40.867004 76.745079,41.180168 
	C77.821098,41.229370 79.089500,43.249386 79.778992,44.606968 
	C85.866188,56.592384 91.842590,68.634071 97.976593,81.011192 
z"/>
</svg>