<?xml version="1.0" encoding="utf-8"?><svg version="1.1" id="Layer_1" xmlns="http://www.w3.org/2000/svg" xmlns:xlink="http://www.w3.org/1999/xlink" x="0px" y="0px" viewBox="0 0 122.88 98.22" style="enable-background:new 0 0 122.88 98.22" xml:space="preserve"><style type="text/css"><![CDATA[
	.st0{fill-rule:evenodd;clip-rule:evenodd;fill:#EE6723;}
	.st1{fill-rule:evenodd;clip-rule:evenodd;fill:#F69833;}
	.st2{fill-rule:evenodd;clip-rule:evenodd;fill:#FDBD39;}
	.st3{fill-rule:evenodd;clip-rule:evenodd;fill:#FECF33;}
]]></style><g><path class="st2" d="M18.94,67.72l-6.43,2.35l-0.35,19.12l22.25-8.13C26.79,78.5,21.21,73.99,18.94,67.72L18.94,67.72L18.94,67.72z M18.94,67.72L18.94,67.72L18.94,67.72L18.94,67.72z"/><path class="st1" d="M22.3,47.5L0,55.64l12.51,14.43l6.43-2.35C16.67,61.47,18.07,54.41,22.3,47.5L22.3,47.5z"/><path class="st3" d="M59.84,19.9c-28.4,10.38-46.71,31.79-40.9,47.82l102.85-37.57C115.98,14.11,88.24,9.53,59.84,19.9L59.84,19.9z"/><path class="st0" d="M80.89,77.97c28.4-10.38,46.75-31.69,40.9-47.82L18.94,67.72C24.79,83.85,52.49,88.35,80.89,77.97L80.89,77.97 z"/><path class="st1" d="M121.79,30.15L18.94,67.72c2.01,5.55,9.69,8.29,20.47,8.29c10.51,0,23.96-2.6,37.98-7.72 C105.79,57.92,125.77,41.12,121.79,30.15L121.79,30.15z"/><path class="st2" d="M101.32,21.86c-10.51,0-23.95,2.6-37.98,7.72c-28.4,10.38-48.38,27.17-44.41,38.14l102.85-37.57 C119.78,24.59,112.1,21.86,101.32,21.86L101.32,21.86z"/><path class="st0" d="M95.64,90.21L95.64,90.21c-3.03,0-7.49-2.73-13.27-8.13c-6.84-6.38-14.67-15.72-22.05-26.3 c-7.38-10.58-13.45-21.17-17.08-29.8c-3.96-9.4-4.52-15.19-1.68-17.19c0.62-0.44,1.38-0.66,2.23-0.66c2.31,0,6.82,1.72,15.16,9.93 l0.18,0.18l-0.02,0.26c-0.06,0.59-0.11,1.19-0.16,1.77l-0.09,1.16l-0.82-0.82c-8.98-9.05-12.94-10.03-14.22-10.03 c-0.37,0-0.66,0.07-0.87,0.22c-1.23,0.87-1.31,5.11,2.52,14.23c3.57,8.48,9.55,18.9,16.83,29.34c7.29,10.45,15,19.65,21.72,25.92 c7.24,6.75,10.5,7.48,11.57,7.48c0.37,0,0.67-0.08,0.89-0.23c1.3-0.92,1.3-5.46-2.98-15.28l-0.2-0.45l0.43-0.23 c0.43-0.24,0.85-0.47,1.24-0.69l0.52-0.29l0.24,0.54c3.04,6.95,5.87,15.79,2.15,18.4C97.26,89.98,96.51,90.21,95.64,90.21 L95.64,90.21L95.64,90.21z M95.64,89.13L95.64,89.13v0.54V89.13L95.64,89.13z"/><path class="st0" d="M81.58,77.68l-0.04,0.54c-0.72,8.88-2.61,19.57-7.54,20c-0.1,0.01-0.2,0.01-0.31,0.01 c-3.35,0-6.52-4.8-9.42-14.26c-2.74-8.95-4.87-20.97-5.99-33.85c-1.12-12.87-1.11-25.08,0.05-34.38 c1.26-10.13,3.65-15.42,7.11-15.73C65.54,0,65.65,0,65.76,0c2.43,0,6.09,2.75,9.84,15.56l-2.45,0.47 c-1.25-4.28-2.62-7.76-3.97-10.16c-1.25-2.21-2.47-3.43-3.43-3.43c-0.03,0-0.06,0-0.09,0c-1.5,0.13-3.68,3.77-4.9,13.59 c-1.13,9.13-1.15,21.16-0.04,33.86c1.11,12.71,3.2,24.55,5.9,33.34c1.21,3.94,2.53,7.18,3.83,9.38c1.2,2.03,2.35,3.15,3.26,3.15 c0.03,0,0.06,0,0.09,0c1.44-0.13,4.14-3.91,5.28-17.23L81.58,77.68L81.58,77.68L81.58,77.68z M81.58,77.68L81.58,77.68L81.58,77.68 L81.58,77.68z"/></g></svg>