<?xml version="1.0" ?><svg id="Layer_24" style="enable-background:new 0 0 65 65;" version="1.1" viewBox="0 0 65 65" xml:space="preserve" xmlns="http://www.w3.org/2000/svg" xmlns:xlink="http://www.w3.org/1999/xlink"><style type="text/css">
	.st0{opacity:0;fill:#FFFFFF;}
	.st1{fill:#333333;}
	.st2{opacity:0.3;}
	.st3{opacity:0.2;}
	.st4{opacity:0.3;fill:#010202;}
	.st5{opacity:0.2;fill:#333333;}
	.st6{fill:#010202;}
	.st7{fill:none;}
</style><g><rect class="st0" height="65" width="65"/><g><g><g><path class="st5" d="M55.35644,31.36883l-6.35199-19.69617c-0.51996-1.61218-2.24805-2.49646-3.85901-1.97693l-19.69623,6.35199      c-1.61218,0.51996-2.49646,2.24805-1.97693,3.85901l2.81183,8.71887h6.97034c1.69263,0,3.06592,1.37201,3.06592,3.06592v9.0379      l17.05914-5.50159C54.9917,34.70794,55.87597,32.97979,55.35644,31.36883z"/></g><g><ellipse class="st1" cx="31.30219" cy="21.48203" rx="1.577" ry="1.57699" transform="matrix(0.95173 -0.30693 0.30693 0.95173 -5.08263 10.6446)"/><ellipse class="st1" cx="43.57015" cy="17.52562" rx="1.577" ry="1.57699" transform="matrix(0.95173 -0.30693 0.30693 0.95173 -3.27611 14.21906)"/><ellipse class="st1" cx="47.52656" cy="29.79358" rx="1.577" ry="1.57699" transform="matrix(0.95173 -0.30693 0.30693 0.95173 -6.85058 16.02558)"/></g><path class="st1" d="M36.32037,42.29986c-0.32813,0-0.65234-0.10254-0.92432-0.30078     c-0.40625-0.29541-0.646-0.76758-0.646-1.26953v-9.03809c0-0.82471-0.6709-1.49561-1.49561-1.49561h-6.97021     c-0.68164,0-1.28564-0.43945-1.49463-1.08838l-2.81201-8.71875c-0.37988-1.17822-0.27832-2.43408,0.28613-3.53662     s1.5249-1.91894,2.7041-2.29883l19.6958-6.35205c2.43066-0.78467,5.0498,0.55615,5.83545,2.98975l6.35205,19.6958     c0.37988,1.17822,0.27832,2.43408-0.28613,3.53662s-1.5249,1.91895-2.7041,2.29883L36.8023,42.22418     C36.64459,42.27496,36.48199,42.29986,36.32037,42.29986z M27.42779,27.05523h5.82666c2.55664,0,4.63623,2.07959,4.63623,4.63623     v6.88135l15.00684-4.83984c0.38037-0.12256,0.68994-0.38574,0.87207-0.74121c0.18213-0.35596,0.21484-0.76074,0.09229-1.14112     l0,0l-6.35205-19.6958c-0.25342-0.78516-1.09814-1.21582-1.88232-0.96436l-19.69629,6.35205     c-0.38037,0.12256-0.68994,0.38574-0.87207,0.74121c-0.18213,0.35596-0.21484,0.76074-0.09229,1.14111L27.42779,27.05523z"/></g><g><path class="st1" d="M33.25445,57.02301H12.55914c-2.55664,0-4.63623-2.07959-4.63623-4.63623V31.69146     c0-2.55664,2.07959-4.63623,4.63623-4.63623h20.69531c2.55664,0,4.63623,2.07959,4.63623,4.63623v20.69531     C37.89068,54.94342,35.81109,57.02301,33.25445,57.02301z M12.55914,30.19586c-0.82471,0-1.49561,0.6709-1.49561,1.49561     v20.69531c0,0.82471,0.6709,1.49561,1.49561,1.49561h20.69531c0.82471,0,1.49561-0.6709,1.49561-1.49561V31.69146     c0-0.82471-0.6709-1.49561-1.49561-1.49561H12.55914z"/><g><circle class="st1" cx="16.46178" cy="35.59405" r="1.577"/><circle class="st1" cx="29.35193" cy="35.59405" r="1.577"/><circle class="st1" cx="22.90685" cy="42.42935" r="1.577"/><circle class="st1" cx="29.35193" cy="48.4842" r="1.577"/><circle class="st1" cx="16.46178" cy="48.4842" r="1.577"/></g></g></g></g></svg>