<svg version="1.1" id="Layer_1" xmlns="http://www.w3.org/2000/svg" xmlns:xlink="http://www.w3.org/1999/xlink" x="0px" y="0px"
	 width="100%" viewBox="0 0 225 225" enable-background="new 0 0 225 225" xml:space="preserve">
<path fill="#FEFEFF" opacity="1.000000" stroke="none" 
	d="
M226.000000,54.000000 
	C226.000000,86.687561 226.000000,119.375122 225.659668,152.337280 
	C223.597565,139.352524 218.435303,127.477898 209.106918,118.020142 
	C203.594406,112.431198 196.811523,107.981697 190.191345,103.643265 
	C186.470947,101.205162 182.475616,102.753273 180.858444,106.206551 
	C179.032776,110.104988 180.592941,112.932121 183.982574,115.022339 
	C185.253555,115.806107 186.617691,116.437943 187.896027,117.210739 
	C207.704605,129.185532 217.322906,152.693497 210.890442,174.927902 
	C204.659851,196.464554 189.545914,208.436813 167.494736,212.802002 
	C163.043747,212.831100 159.057953,212.940994 155.072037,212.945557 
	C108.391548,212.999084 61.711021,213.036774 14.853302,212.986603 
	C14.676095,212.894577 14.280052,212.945908 14.194380,212.487518 
	C14.131839,194.698151 14.154970,177.367172 14.431378,159.804657 
	C16.550619,153.167892 21.250183,150.063080 27.289389,148.002136 
	C82.895477,129.025955 138.469955,109.957039 194.033737,90.857170 
	C208.641144,85.835922 218.539825,75.941200 223.690689,61.359432 
	C224.546509,58.936684 225.234467,56.454639 226.000000,54.000000 
M165.304855,149.419464 
	C158.635895,135.963455 144.698807,130.277115 131.378571,135.577515 
	C115.601280,141.855621 109.894386,161.821686 119.973763,175.478226 
	C127.755394,186.021545 141.861221,189.333481 153.360611,183.317215 
	C165.435867,176.999649 170.241196,164.040497 165.304855,149.419464 
z"/>
<path fill="#FEFEFF" opacity="1.000000" stroke="none" 
	d="
M1.000001,158.000000 
	C1.000000,147.312439 1.000000,136.624878 1.288377,125.679054 
	C2.984880,128.628265 5.742027,130.144104 8.767069,128.995621 
	C10.810551,128.219788 12.191462,125.698784 13.948155,123.498375 
	C13.995030,87.034950 13.962492,51.031555 14.024109,14.857153 
	C14.118264,14.686149 14.057449,14.300489 14.514985,14.210814 
	C16.800478,14.102065 18.628431,14.066646 20.456392,14.066297 
	C74.976578,14.055873 129.496765,14.048922 184.341843,14.224154 
	C188.412277,15.712939 192.469803,16.477404 195.847015,18.422859 
	C207.725601,25.265543 213.748917,35.924603 212.651413,49.509693 
	C211.446762,64.421204 202.786514,73.995857 188.631485,78.838936 
	C133.198975,97.804855 77.777687,116.804268 22.419872,135.986481 
	C17.979450,137.525146 13.185958,139.750214 10.108848,143.087570 
	C6.236453,147.287460 3.963235,152.961838 1.000001,158.000000 
M61.402214,89.256187 
	C73.050896,95.594307 85.818398,93.948463 94.256622,85.020943 
	C102.289383,76.522408 103.696434,63.221455 97.624031,53.188770 
	C91.392006,42.892372 79.338959,38.254375 67.050331,41.929581 
	C57.296398,44.846718 51.171154,51.827473 49.350315,61.650852 
	C47.267227,72.889038 51.171768,82.242355 61.402214,89.256187 
z"/>
<path fill="#236FB3" opacity="1.000000" stroke="none" 
	d="
M14.057449,14.300489 
	C14.057449,14.300489 14.118264,14.686149 13.736757,15.155623 
	C13.236828,16.437948 13.015253,17.250746 13.014833,18.063656 
	C12.997257,52.117329 12.990261,86.171028 13.035856,120.224648 
	C13.037522,121.469597 13.578892,122.713837 13.868741,123.958405 
	C12.191462,125.698784 10.810551,128.219788 8.767069,128.995621 
	C5.742027,130.144104 2.984880,128.628265 1.288377,125.210396 
	C1.000000,83.725258 1.000000,42.450520 1.000000,1.000000 
	C62.354115,1.000000 123.708397,1.000000 185.717392,1.344453 
	C203.166443,4.111814 214.868347,13.374116 221.985046,28.545368 
	C223.694489,32.189487 224.681015,36.172722 226.000000,40.000000 
	C226.000000,44.356899 226.000000,48.713799 226.000000,53.535347 
	C225.234467,56.454639 224.546509,58.936684 223.690689,61.359432 
	C218.539825,75.941200 208.641144,85.835922 194.033737,90.857170 
	C138.469955,109.957039 82.895477,129.025955 27.289389,148.002136 
	C21.250183,150.063080 16.550619,153.167892 14.094461,160.057953 
	C13.350809,161.006012 13.064233,161.468964 13.063157,161.932571 
	C13.025973,177.951904 12.993123,193.971390 13.056525,209.990479 
	C13.060431,210.977219 13.853928,211.960831 14.280052,212.945908 
	C14.280052,212.945908 14.676095,212.894577 15.153072,213.272049 
	C16.444990,213.766434 17.259895,213.985367 18.074877,213.985641 
	C66.680145,214.002167 115.285431,214.010147 163.890640,213.951996 
	C165.247513,213.950378 166.603500,213.222900 167.959885,212.833862 
	C189.545914,208.436813 204.659851,196.464554 210.890442,174.927902 
	C217.322906,152.693497 207.704605,129.185532 187.896027,117.210739 
	C186.617691,116.437943 185.253555,115.806107 183.982574,115.022339 
	C180.592941,112.932121 179.032776,110.104988 180.858444,106.206551 
	C182.475616,102.753273 186.470947,101.205162 190.191345,103.643265 
	C196.811523,107.981697 203.594406,112.431198 209.106918,118.020142 
	C218.435303,127.477898 223.597565,139.352524 225.659668,152.805939 
	C226.000000,158.354935 226.000000,163.709854 225.653351,169.715515 
	C221.391525,193.658951 208.946686,210.639450 187.352692,220.333054 
	C181.277969,223.060043 174.471069,224.155960 168.000000,226.000000 
	C112.437141,226.000000 56.874287,226.000000 1.000000,226.000000 
	C1.000000,203.646744 1.000000,181.292023 1.000001,158.468658 
	C3.963235,152.961838 6.236453,147.287460 10.108848,143.087570 
	C13.185958,139.750214 17.979450,137.525146 22.419872,135.986481 
	C77.777687,116.804268 133.198975,97.804855 188.631485,78.838936 
	C202.786514,73.995857 211.446762,64.421204 212.651413,49.509693 
	C213.748917,35.924603 207.725601,25.265543 195.847015,18.422859 
	C192.469803,16.477404 188.412277,15.712939 184.055908,13.915359 
	C182.635513,13.283017 181.825989,13.019238 181.016388,13.018938 
	C126.687424,12.998896 72.358452,12.990856 18.029562,13.053820 
	C16.705044,13.055354 15.381466,13.866795 14.057449,14.300489 
z"/>
<path fill="#FDFEFE" opacity="1.000000" stroke="none" 
	d="
M168.468658,226.000000 
	C174.471069,224.155960 181.277969,223.060043 187.352692,220.333054 
	C208.946686,210.639450 221.391525,193.658951 225.653351,170.183105 
	C226.000000,188.594742 226.000000,207.189484 226.000000,226.000000 
	C206.979645,226.000000 187.958481,226.000000 168.468658,226.000000 
z"/>
<path fill="#FCFDFE" opacity="1.000000" stroke="none" 
	d="
M226.000000,39.531342 
	C224.681015,36.172722 223.694489,32.189487 221.985046,28.545368 
	C214.868347,13.374116 203.166443,4.111814 186.186050,1.344453 
	C199.259064,1.000000 212.518112,1.000000 226.000000,1.000000 
	C226.000000,13.686692 226.000000,26.374687 226.000000,39.531342 
z"/>
<path fill="#236FB3" opacity="1.000000" stroke="none" 
	d="
M165.491287,149.759766 
	C170.241196,164.040497 165.435867,176.999649 153.360611,183.317215 
	C141.861221,189.333481 127.755394,186.021545 119.973763,175.478226 
	C109.894386,161.821686 115.601280,141.855621 131.378571,135.577515 
	C144.698807,130.277115 158.635895,135.963455 165.491287,149.759766 
M144.754425,172.772186 
	C146.088440,172.118546 147.527267,171.617203 148.737808,170.784134 
	C153.273926,167.662399 155.235214,162.317490 154.013107,156.794540 
	C152.965530,152.060333 148.471512,147.666290 143.831390,147.055634 
	C138.097992,146.301117 133.312195,148.014328 130.092255,153.023453 
	C127.226082,157.482224 127.236816,162.116623 129.942932,166.631927 
	C133.119553,171.932343 137.959976,173.759354 144.754425,172.772186 
z"/>
<path fill="#0064AF" opacity="1.000000" stroke="none" 
	d="
M167.494736,212.802002 
	C166.603500,213.222900 165.247513,213.950378 163.890640,213.951996 
	C115.285431,214.010147 66.680145,214.002167 18.074877,213.985641 
	C17.259895,213.985367 16.444990,213.766434 15.330279,213.364075 
	C61.711021,213.036774 108.391548,212.999084 155.072037,212.945557 
	C159.057953,212.940994 163.043747,212.831100 167.494736,212.802002 
z"/>
<path fill="#0063AE" opacity="1.000000" stroke="none" 
	d="
M14.194379,212.487518 
	C13.853928,211.960831 13.060431,210.977219 13.056525,209.990479 
	C12.993123,193.971390 13.025973,177.951904 13.063157,161.932571 
	C13.064233,161.468964 13.350809,161.006012 13.841185,160.289459 
	C14.154970,177.367172 14.131839,194.698151 14.194379,212.487518 
z"/>
<path fill="#236FB4" opacity="1.000000" stroke="none" 
	d="
M61.074356,89.087425 
	C51.171768,82.242355 47.267227,72.889038 49.350315,61.650852 
	C51.171154,51.827473 57.296398,44.846718 67.050331,41.929581 
	C79.338959,38.254375 91.392006,42.892372 97.624031,53.188770 
	C103.696434,63.221455 102.289383,76.522408 94.256622,85.020943 
	C85.818398,93.948463 73.050896,95.594307 61.074356,89.087425 
M86.468658,73.649094 
	C90.124542,65.475052 87.678963,57.971439 80.319237,54.781174 
	C73.386971,51.776203 65.529663,55.190617 62.753624,62.414349 
	C60.034580,69.489761 65.388435,80.153564 72.753914,80.653343 
	C77.751961,80.992477 82.875862,79.062607 86.468658,73.649094 
z"/>
<path fill="#0063AE" opacity="1.000000" stroke="none" 
	d="
M14.514985,14.210814 
	C15.381466,13.866795 16.705044,13.055354 18.029562,13.053820 
	C72.358452,12.990856 126.687424,12.998896 181.016388,13.018938 
	C181.825989,13.019238 182.635513,13.283017 183.731018,13.732627 
	C129.496765,14.048922 74.976578,14.055873 20.456392,14.066297 
	C18.628431,14.066646 16.800478,14.102065 14.514985,14.210814 
z"/>
<path fill="#0063AE" opacity="1.000000" stroke="none" 
	d="
M13.948155,123.498375 
	C13.578892,122.713837 13.037522,121.469597 13.035856,120.224648 
	C12.990261,86.171028 12.997257,52.117329 13.014833,18.063656 
	C13.015253,17.250746 13.236828,16.437948 13.642602,15.326628 
	C13.962492,51.031555 13.995030,87.034950 13.948155,123.498375 
z"/>
<path fill="#FCFDFE" opacity="1.000000" stroke="none" 
	d="
M144.350739,172.843155 
	C137.959976,173.759354 133.119553,171.932343 129.942932,166.631927 
	C127.236816,162.116623 127.226082,157.482224 130.092255,153.023453 
	C133.312195,148.014328 138.097992,146.301117 143.831390,147.055634 
	C148.471512,147.666290 152.965530,152.060333 154.013107,156.794540 
	C155.235214,162.317490 153.273926,167.662399 148.737808,170.784134 
	C147.527267,171.617203 146.088440,172.118546 144.350739,172.843155 
z"/>
<path fill="#FCFDFE" opacity="1.000000" stroke="none" 
	d="
M86.246140,73.966843 
	C82.875862,79.062607 77.751961,80.992477 72.753914,80.653343 
	C65.388435,80.153564 60.034580,69.489761 62.753624,62.414349 
	C65.529663,55.190617 73.386971,51.776203 80.319237,54.781174 
	C87.678963,57.971439 90.124542,65.475052 86.246140,73.966843 
z"/>
</svg>