<?xml version="1.0" ?><!DOCTYPE svg  PUBLIC '-//W3C//DTD SVG 1.1//EN'  'http://www.w3.org/Graphics/SVG/1.1/DTD/svg11.dtd'><svg height="100%" style="fill-rule:evenodd;clip-rule:evenodd;stroke-linejoin:round;stroke-miterlimit:2;" version="1.1" viewBox="0 0 64 64" width="100%" xml:space="preserve" xmlns="http://www.w3.org/2000/svg" xmlns:serif="http://www.serif.com/" xmlns:xlink="http://www.w3.org/1999/xlink"><g id="Icon"><path d="M60,29c0,-2.76 -2.24,-5 -5,-5c-0,0 -46,0 -46,0c-2.76,0 -5,2.24 -5,5l0,6c0,2.76 2.24,5 5,5l46,0c2.76,0 5,-2.24 5,-5c0,-0 0,-6 0,-6Zm-2,0l0,6c0,1.656 -1.344,3 -3,3c-0,0 -46,0 -46,0c-1.656,0 -3,-1.344 -3,-3c0,-0 0,-6 0,-6c0,-1.656 1.344,-3 3,-3l46,0c1.656,0 3,1.344 3,3Z"/><path d="M57.007,39.136c0.098,-0.347 0.003,-0.72 -0.25,-0.976c-0.253,-0.257 -0.625,-0.358 -0.973,-0.263c-0.25,0.067 -0.513,0.103 -0.784,0.103c-0,-0 -46,-0 -46,-0c-0.271,-0 -0.534,-0.036 -0.784,-0.103c-0.348,-0.095 -0.72,0.006 -0.973,0.263c-0.253,0.256 -0.348,0.629 -0.25,0.976c3.104,10.884 13.131,18.864 25.007,18.864c11.876,0 21.903,-7.98 25.007,-18.864Zm-2.375,0.864l-45.264,0c3.297,9.318 12.19,16 22.632,16c10.442,0 19.335,-6.682 22.632,-16Zm-47.639,-15.136c-0.098,0.347 -0.003,0.72 0.25,0.976c0.253,0.257 0.625,0.358 0.973,0.263c0.25,-0.067 0.513,-0.103 0.784,-0.103l46,0c0.271,0 0.534,0.036 0.784,0.103c0.348,0.095 0.72,-0.006 0.973,-0.263c0.253,-0.256 0.348,-0.629 0.25,-0.976c-3.104,-10.884 -13.131,-18.864 -25.007,-18.864c-11.876,0 -21.903,7.98 -25.007,18.864Zm47.639,-0.864c-3.297,-9.318 -12.19,-16 -22.632,-16c-10.442,0 -19.335,6.682 -22.632,16l45.264,0Z"/><path d="M45.364,39.168c0.05,-0.29 -0.031,-0.588 -0.221,-0.813c-0.19,-0.225 -0.47,-0.355 -0.765,-0.355l-24.756,0c-0.295,0 -0.575,0.13 -0.765,0.355c-0.19,0.225 -0.271,0.523 -0.221,0.813c1.048,6.141 3.33,11.254 6.263,14.372c2.093,2.226 4.528,3.46 7.101,3.46c2.573,0 5.008,-1.234 7.101,-3.46c2.933,-3.118 5.215,-8.231 6.263,-14.372Zm-2.189,0.832l-22.35,0c1.042,5.171 3.001,9.481 5.53,12.17c1.674,1.779 3.588,2.83 5.645,2.83c2.057,0 3.971,-1.051 5.645,-2.83c2.529,-2.689 4.488,-6.999 5.53,-12.17Zm-24.701,-15.144c-0.042,0.287 0.043,0.578 0.233,0.798c0.19,0.22 0.466,0.346 0.756,0.346l25.074,-0c0.29,0 0.566,-0.126 0.756,-0.346c0.19,-0.22 0.275,-0.511 0.233,-0.798c-0.941,-6.452 -3.228,-11.868 -6.224,-15.178c-2.138,-2.363 -4.647,-3.678 -7.302,-3.678c-2.655,-0 -5.164,1.315 -7.302,3.678c-2.996,3.31 -5.283,8.726 -6.224,15.178Zm24.89,-0.856c-0.96,-5.492 -2.94,-10.102 -5.544,-12.98c-1.715,-1.894 -3.691,-3.02 -5.82,-3.02c-2.129,0 -4.105,1.126 -5.82,3.02c-2.604,2.878 -4.584,7.488 -5.544,12.98l22.728,0Z"/><path d="M9,29l0,6c0,0.552 0.448,1 1,1c0.552,-0 1,-0.448 1,-1l0,-6c0,-0.552 -0.448,-1 -1,-1c-0.552,-0 -1,0.448 -1,1Z"/><path d="M18,29l0,4c0,1.656 1.344,3 3,3c0.552,0 1,-0.448 1,-1c0,-0.552 -0.448,-1 -1,-1c-0.552,0 -1,-0.448 -1,-1c0,-0 0,-4 0,-4c-0,-0.552 -0.448,-1 -1,-1c-0.552,0 -1,0.448 -1,1Z"/><path d="M26,29l0,4c0,1.656 1.344,3 3,3c0.552,0 1,-0.448 1,-1c0,-0.552 -0.448,-1 -1,-1c-0.552,0 -1,-0.448 -1,-1c0,-0 0,-4 0,-4c-0,-0.552 -0.448,-1 -1,-1c-0.552,0 -1,0.448 -1,1Z"/><path d="M12,18l40,0c0.552,-0 1,-0.448 1,-1c-0,-0.552 -0.448,-1 -1,-1l-40,0c-0.552,-0 -1,0.448 -1,1c-0,0.552 0.448,1 1,1Z"/><path d="M12,48l40,-0c0.552,-0 1,-0.448 1,-1c-0,-0.552 -0.448,-1 -1,-1l-40,-0c-0.552,-0 -1,0.448 -1,1c-0,0.552 0.448,1 1,1Z"/><path d="M21,30l-4,0c-0.552,0 -1,0.448 -1,1c0,0.552 0.448,1 1,1l4,0c0.552,0 1,-0.448 1,-1c0,-0.552 -0.448,-1 -1,-1Z"/><path d="M29,30l-4,0c-0.552,0 -1,0.448 -1,1c0,0.552 0.448,1 1,1l4,0c0.552,0 1,-0.448 1,-1c0,-0.552 -0.448,-1 -1,-1Z"/><path d="M32,29l0,6c0,0.552 0.448,1 1,1c0.552,-0 1,-0.448 1,-1l0,-6c0,-0.552 -0.448,-1 -1,-1c-0.552,-0 -1,0.448 -1,1Z"/><path d="M33.347,30c1.709,0 2.24,0.289 2.24,1c-0,0.711 -0.531,1 -2.24,1c-0.552,0 -1,0.448 -1,1c0,0.552 0.448,1 1,1c2.036,0 3.082,-0.535 3.624,-1.17c0.44,-0.516 0.616,-1.142 0.616,-1.83c-0,-0.688 -0.176,-1.314 -0.616,-1.83c-0.542,-0.635 -1.588,-1.17 -3.624,-1.17c-0.552,0 -1,0.448 -1,1c0,0.552 0.448,1 1,1Z"/><path d="M9.949,32.999c-0.529,-0.027 -0.949,-0.464 -0.949,-0.999c0,-0.552 0.448,-1 1,-1l3,0c1.104,0 2,0.896 2,2l0,2c0,0.552 -0.448,1 -1,1c-0.552,0 -1,-0.448 -1,-1c0,0 0,-2 0,-2l-3,0l-0.051,-0.001Z"/><path d="M41,29l0,1c0,0.552 0.448,1 1,1c0.552,-0 1,-0.448 1,-1l0,-1c0,-0.552 -0.448,-1 -1,-1c-0.552,-0 -1,0.448 -1,1Z"/><path d="M41,34l0,1c0,0.552 0.448,1 1,1c0.552,-0 1,-0.448 1,-1l0,-1c0,-0.552 -0.448,-1 -1,-1c-0.552,-0 -1,0.448 -1,1Z"/><path d="M48.051,28.684l-2,6c-0.174,0.523 0.109,1.09 0.633,1.265c0.523,0.174 1.09,-0.109 1.265,-0.633l2,-6c0.174,-0.523 -0.109,-1.09 -0.633,-1.265c-0.523,-0.174 -1.09,0.109 -1.265,0.633Z"/><path d="M53.051,28.684l-2,6c-0.174,0.523 0.109,1.09 0.633,1.265c0.523,0.174 1.09,-0.109 1.265,-0.633l2,-6c0.174,-0.523 -0.109,-1.09 -0.633,-1.265c-0.523,-0.174 -1.09,0.109 -1.265,0.633Z"/></g></svg>