<svg xmlns="http://www.w3.org/2000/svg" viewBox="0 0 85.4 32"><path d="M9.5 24.5L8 31.2c0 .2-.2.3-.4.3H.4c-.1 0-.3-.1-.3-.2-.1-.1-.1-.2-.1-.3L9.5 2.2s.2-.5.8-.7c2.1-.4 5.4-.9 7.7-1.3.5-.1.7.4.7.4L28 31.2c0 .1 0 .2-.1.3-.1.1-.2.1-.3.1h-4.2c-1.1 0-3.3.1-4.1.1-.2 0-.4-.1-.4-.3l-1.5-6.8zm6.7-5.9c-.6-2.4-1.5-6.7-2.4-10.4-.6 2.6-2 7.9-2.7 10.4zm21.3-7.1c5.1-3.5 9.4-2.7 11.5-.6 2.5 2.6 1.1 6 1.9 20.3 0 .1 0 .2-.1.3-.1.1-.2.1-.3.1-.8 0-2.3-.1-3-.1-1.2 0-3.7.1-4.7.1-.1 0-.2 0-.3-.1-.1-.1-.1-.2-.1-.3.1-14 .2-15.9-2.3-15.9-.9 0-1.6.4-2.4.7 0 7.2.1 9.3.4 15.1 0 .1 0 .2-.1.2-.1.1-.2.1-.2.1l-8 .1c-.1 0-.2 0-.2-.1-.1-.1-.1-.2-.1-.2.2-20.9 0-25.2-.6-29.6-.3-.2.1-.2.1-.2C32.6.9 32.9.8 37 0c0 0 .4 0 .4.5.1 3.1.1 11 .1 11zm27.4 17.9c-1.5 1.1-4.4 2.6-6.8 2.6-3.7 0-6-2.7-6-6.7 0-6.2 7.3-8 12.5-8.7.1-1 .1-2.1-2.5-2.1s-4.8.8-7.1 1.7c-.1.1-.3 0-.4 0-.1-.1-.2-.2-.2-.4l.2-4.8c0-.2.1-.3.3-.4 4.7-1.4 12.7-2.5 16 .6 2.1 1.9 2 4.3 1.9 8.3-.1 5.8 0 7.4.3 11.7 0 .1 0 .2-.1.3-.1.1-.2.1-.3.1l-7.4.1c-.1 0-.2 0-.3-.1-.1-.1-.1-.2-.1-.3zm-.2-8.3c-1.9.2-4.8.4-4.8 2.9 0 2.2 2.4 2.9 4.8 1.4zm13.4.1c-.2 0-.4-.2-.4-.4-.5-10.9-.6-12.1-1.2-18.9 0-.2.1-.4.4-.5l8-1.3c.1 0 .3 0 .4.1.1.1.1.2.1.4-.5 4.9-1 14.2-1.1 20.1 0 .2-.2.4-.4.4zm-1.3964 9.2839c-.0036-.0335-.0036-.067-.0036-.1004 0-1.3564.0343-2.7472.043-3.9523-.0039-.5056-.0163-.9576-.043-1.3312 0-.0688 0-.1375.0325-.2063a16.2778 16.2778 0 00-.0325-.6874c0-.1012 0-.2025.1013-.3038.1012-.1012.2025-.1012.3038-.1012 2.0253.2025 5.5696.1012 7.1898-.1013.1013 0 .2026 0 .3038.1013.1013.1012.1013.2025.1013.3038 0 .2682-.0013.5337-.0036.7962.0036.0329.0036.0658.0036.0987v6.2c0 .1 0 .2-.1.3-.1.1-.2.1-.3.1-2.9-.1-4.7-.1-7.2.1-.1 0-.2 0-.3-.1-.1-.1-.1-.2-.1-.3 0-.27.0014-.5427.0036-.8161z" fill="#0173CF"/></svg>