<?xml version="1.0" encoding="UTF-8"?>
<svg xmlns="http://www.w3.org/2000/svg" xmlns:xlink="http://www.w3.org/1999/xlink" width="200px" height="190px" viewBox="0 0 200 190" version="1.1">
<g id="surface1">
<path style=" stroke:none;fill-rule:nonzero;fill:rgb(14.509805%,51.764709%,98.823529%);fill-opacity:1;" d="M 90.597656 -0.0625 C 90.910156 -0.0664062 91.226562 -0.0664062 91.550781 -0.0703125 C 92.558594 -0.0742188 93.5625 -0.078125 94.570312 -0.078125 C 95.085938 -0.078125 95.085938 -0.078125 95.613281 -0.078125 C 100.578125 -0.0742188 105.417969 0.0273438 110.3125 0.9375 C 110.613281 0.992188 110.917969 1.042969 111.230469 1.101562 C 126.667969 3.882812 140.703125 10.167969 153.125 19.6875 C 153.621094 20.058594 154.113281 20.429688 154.609375 20.800781 C 154.949219 21.054688 155.285156 21.308594 155.625 21.5625 C 157.367188 20.117188 158.957031 18.566406 160.535156 16.953125 C 161.058594 16.421875 161.582031 15.890625 162.105469 15.363281 C 162.917969 14.535156 163.734375 13.707031 164.546875 12.878906 C 165.335938 12.070312 166.128906 11.269531 166.921875 10.46875 C 167.164062 10.21875 167.402344 9.972656 167.648438 9.714844 C 169.921875 7.433594 172.066406 6.214844 175.351562 6.152344 C 180.496094 6.148438 183.3125 9.820312 186.742188 13.21875 C 186.914062 13.386719 187.082031 13.554688 187.253906 13.726562 C 188.144531 14.609375 189.035156 15.488281 189.921875 16.375 C 190.652344 17.097656 191.382812 17.824219 192.117188 18.542969 C 193.011719 19.425781 193.902344 20.304688 194.789062 21.191406 C 195.125 21.523438 195.460938 21.855469 195.800781 22.1875 C 198.175781 24.511719 200.121094 26.632812 200.191406 30.101562 C 200.183594 30.320312 200.179688 30.535156 200.175781 30.761719 C 200.171875 31.109375 200.171875 31.109375 200.164062 31.460938 C 199.96875 36.328125 195.925781 39.445312 192.65625 42.632812 C 191.851562 43.417969 191.054688 44.207031 190.253906 44.996094 C 189.242188 45.992188 188.230469 46.984375 187.214844 47.976562 C 186.382812 48.78125 185.558594 49.59375 184.738281 50.410156 C 184.425781 50.71875 184.109375 51.027344 183.792969 51.332031 C 183.355469 51.753906 182.921875 52.183594 182.488281 52.617188 C 182.117188 52.980469 182.117188 52.980469 181.738281 53.347656 C 181.164062 54.027344 181.164062 54.027344 181.300781 54.863281 C 181.601562 55.738281 181.957031 56.582031 182.335938 57.429688 C 192.328125 79.785156 192.398438 106.289062 183.75 129.0625 C 177.230469 145.363281 166.621094 160.066406 152.5 170.625 C 152.289062 170.785156 152.074219 170.945312 151.855469 171.113281 C 148.597656 173.574219 145.253906 175.753906 141.671875 177.71875 C 141.191406 177.984375 140.714844 178.253906 140.234375 178.519531 C 118.460938 190.78125 92.007812 192.882812 68.125 186.25 C 55.253906 182.53125 43.183594 176.042969 33.125 167.1875 C 32.902344 166.996094 32.679688 166.804688 32.449219 166.609375 C 31.835938 166.078125 31.230469 165.539062 30.625 165 C 30.207031 164.632812 30.207031 164.632812 29.785156 164.257812 C 26.078125 160.953125 22.78125 157.324219 19.792969 153.363281 C 19.515625 152.996094 19.238281 152.632812 18.957031 152.269531 C 7.582031 137.464844 0.0234375 118.167969 -0.0625 99.363281 C -0.0664062 99.042969 -0.0664062 98.722656 -0.0703125 98.390625 C -0.0742188 97.359375 -0.078125 96.324219 -0.078125 95.292969 C -0.078125 94.941406 -0.078125 94.589844 -0.078125 94.226562 C -0.0742188 89.210938 0.0117188 84.316406 0.9375 79.375 C 0.992188 79.066406 1.046875 78.761719 1.105469 78.445312 C 4.941406 57.476562 15.511719 37.363281 31.875 23.4375 C 32.171875 23.175781 32.464844 22.917969 32.773438 22.648438 C 48.359375 9.015625 69.765625 0.0351562 90.597656 -0.0625 Z M 76.875 35.9375 C 76.660156 36.003906 76.441406 36.066406 76.21875 36.136719 C 67.835938 38.726562 60.253906 43.203125 53.75 49.0625 C 53.488281 49.285156 53.226562 49.511719 52.957031 49.742188 C 51.40625 51.078125 50.066406 52.496094 48.75 54.0625 C 48.492188 54.351562 48.234375 54.636719 47.972656 54.9375 C 38.382812 65.773438 33.261719 80.328125 33.339844 94.726562 C 33.339844 94.949219 33.339844 95.171875 33.339844 95.402344 C 33.367188 101.402344 34.167969 107.074219 35.9375 112.8125 C 36.015625 113.066406 36.09375 113.316406 36.171875 113.574219 C 38.839844 122.09375 43.324219 129.632812 49.367188 136.183594 C 49.917969 136.785156 50.441406 137.398438 50.957031 138.027344 C 51.992188 139.234375 53.152344 140.238281 54.375 141.25 C 54.53125 141.382812 54.6875 141.515625 54.851562 141.652344 C 68.128906 152.863281 84.195312 157.234375 101.347656 156.1875 C 103.214844 156.015625 105.042969 155.710938 106.875 155.3125 C 107.160156 155.25 107.449219 155.1875 107.742188 155.125 C 120.542969 152.246094 133.242188 145.34375 141.5625 135 C 141.6875 134.847656 141.8125 134.695312 141.941406 134.539062 C 148.582031 126.421875 153.175781 117.148438 155.3125 106.875 C 155.390625 106.511719 155.390625 106.511719 155.46875 106.136719 C 157.019531 98.464844 157.1875 88.820312 155 81.25 C 154.792969 81.042969 154.589844 80.839844 154.375 80.625 C 154.113281 80.886719 153.847656 81.152344 153.578125 81.425781 C 147.332031 87.699219 141.082031 93.96875 134.828125 100.234375 C 134.058594 101.007812 133.289062 101.777344 132.515625 102.550781 C 132.363281 102.707031 132.210938 102.859375 132.050781 103.019531 C 129.570312 105.503906 127.09375 107.992188 124.617188 110.480469 C 122.074219 113.035156 119.527344 115.585938 116.980469 118.140625 C 115.546875 119.570312 114.121094 121.003906 112.691406 122.441406 C 111.347656 123.792969 110 125.140625 108.652344 126.488281 C 108.160156 126.980469 107.667969 127.480469 107.175781 127.972656 C 103.363281 131.820312 100.070312 134.921875 94.375 135 C 91.003906 134.746094 88.511719 133.527344 86.050781 131.242188 C 85.886719 131.09375 85.726562 130.941406 85.558594 130.785156 C 83.890625 129.230469 82.265625 127.628906 80.648438 126.015625 C 80.328125 125.699219 80.007812 125.378906 79.6875 125.058594 C 78.648438 124.027344 77.609375 122.996094 76.574219 121.960938 C 76.210938 121.601562 75.851562 121.242188 75.492188 120.882812 C 73.800781 119.199219 72.113281 117.515625 70.425781 115.828125 C 68.484375 113.890625 66.542969 111.957031 64.597656 110.027344 C 63.085938 108.527344 61.578125 107.019531 60.070312 105.515625 C 59.175781 104.621094 58.277344 103.722656 57.378906 102.832031 C 56.53125 101.992188 55.691406 101.152344 54.847656 100.308594 C 54.542969 100 54.234375 99.695312 53.925781 99.390625 C 51.265625 96.765625 49.128906 94.097656 48.964844 90.214844 C 49.113281 85.425781 52.316406 82.582031 55.515625 79.378906 C 55.835938 79.058594 56.152344 78.738281 56.472656 78.414062 C 57.136719 77.746094 57.804688 77.078125 58.472656 76.410156 C 59.324219 75.5625 60.167969 74.707031 61.011719 73.851562 C 61.667969 73.1875 62.328125 72.527344 62.988281 71.867188 C 63.300781 71.554688 63.613281 71.238281 63.925781 70.925781 C 66.601562 68.207031 69.277344 66.003906 73.242188 65.839844 C 77.695312 65.96875 80.710938 69.007812 83.664062 72.007812 C 83.972656 72.324219 84.285156 72.636719 84.597656 72.949219 C 85.410156 73.761719 86.21875 74.582031 87.023438 75.398438 C 87.851562 76.234375 88.683594 77.070312 89.511719 77.90625 C 91.136719 79.539062 92.757812 81.175781 94.375 82.8125 C 95.535156 82.328125 96.269531 81.621094 97.152344 80.734375 C 97.300781 80.585938 97.449219 80.441406 97.601562 80.285156 C 98.101562 79.789062 98.597656 79.289062 99.09375 78.789062 C 99.453125 78.429688 99.808594 78.074219 100.167969 77.714844 C 101.136719 76.746094 102.105469 75.777344 103.070312 74.804688 C 104.082031 73.789062 105.097656 72.773438 106.109375 71.761719 C 108.027344 69.839844 109.945312 67.917969 111.859375 65.996094 C 114.042969 63.808594 116.222656 61.621094 118.410156 59.4375 C 122.898438 54.9375 127.386719 50.441406 131.875 45.9375 C 123.597656 37.535156 108.777344 33.496094 97.304688 33.367188 C 96.621094 33.363281 95.9375 33.359375 95.253906 33.359375 C 94.902344 33.359375 94.902344 33.359375 94.542969 33.359375 C 88.445312 33.367188 82.710938 34.152344 76.875 35.9375 Z M 76.875 35.9375 "/>
<path style=" stroke:none;fill-rule:nonzero;fill:rgb(0%,40.000001%,85.490197%);fill-opacity:1;" d="M 155.625 22.1875 C 156.019531 22.480469 156.410156 22.769531 156.804688 23.0625 C 157.023438 23.226562 157.242188 23.386719 157.46875 23.554688 C 158.496094 24.347656 159.445312 25.222656 160.390625 26.113281 C 160.59375 26.304688 160.792969 26.496094 161.003906 26.691406 C 169.308594 34.582031 175.832031 43.992188 180.625 54.375 C 172.167969 62.832031 163.710938 71.289062 155 80 C 154.421875 79.132812 154.167969 78.519531 153.867188 77.539062 C 150.925781 68.21875 146.550781 60.15625 139.828125 53.019531 C 139.0625 52.1875 139.0625 52.1875 138.410156 51.363281 C 136.695312 49.238281 134.320312 47.617188 132.1875 45.9375 C 133.480469 44.394531 134.828125 42.941406 136.253906 41.523438 C 136.570312 41.207031 136.570312 41.207031 136.894531 40.882812 C 137.582031 40.195312 138.269531 39.507812 138.960938 38.820312 C 139.441406 38.339844 139.921875 37.859375 140.40625 37.378906 C 141.664062 36.121094 142.925781 34.863281 144.1875 33.605469 C 145.476562 32.320312 146.765625 31.03125 148.050781 29.746094 C 150.574219 27.226562 153.101562 24.707031 155.625 22.1875 Z M 155.625 22.1875 "/>
</g>
</svg>
