<svg version="1.1" id="Layer_1" xmlns:x="ns_extend;" xmlns:i="ns_ai;" xmlns:graph="ns_graphs;" xmlns="http://www.w3.org/2000/svg" xmlns:xlink="http://www.w3.org/1999/xlink" x="0px" y="0px" viewBox="0 0 202.5 50" style="enable-background:new 0 0 202.5 50;" xml:space="preserve">
 <style type="text/css">
  .st0{fill-rule:evenodd;clip-rule:evenodd;}
 </style>
 <metadata>
  <sfw xmlns="ns_sfw;">
   <slices>
   </slices>
   <sliceSourceBounds bottomLeftOrigin="true" height="50" width="202.5" x="-58.3" y="-212.1">
   </sliceSourceBounds>
  </sfw>
 </metadata>
 <g>
  <path d="M165.6,1.9h-8.3v8.3h8.3V1.9z">
  </path>
  <path class="st0" d="M133.2,23.3h-7.3v13.5c0,1.1,0.3,2,0.8,2.5c0.6,0.5,1.4,0.8,2.5,0.9c1.1,0,2.4,0,4-0.1v7.6
		c-5.7,0.7-9.7,0.1-12.2-1.6c-2.4-1.7-3.6-4.9-3.6-9.4V23.3h-5.7v-8.1h5.7V8.7l8.4-2.5v9.1h13V8.7l8.4-2.5v9.1h7.3v8.1h-7.3v13.5
		c0,1.1,0.3,2,0.8,2.5c0.6,0.5,1.4,0.8,2.5,0.9c1.1,0,2.4,0,4-0.1v7.6c-5.7,0.7-9.7,0.1-12.2-1.6c-2.4-1.7-3.6-4.9-3.6-9.4V23.3
		L133.2,23.3L133.2,23.3z">
  </path>
  <path d="M165.6,15.2h-8.4v32.5h8.4V15.2z">
  </path>
  <path class="st0" d="M185.4,14.4c-9.4,0-17.1,7.7-17.1,17.1c0,9.4,7.7,17.1,17.1,17.1c9.4,0,17.1-7.7,17.1-17.1
		C202.5,22,194.9,14.4,185.4,14.4z M185.4,40.5c-5,0-9.1-4.1-9.1-9.1c0-5,4.1-9.1,9.1-9.1c5,0,9.1,4.1,9.1,9.1
		C194.5,36.5,190.4,40.5,185.4,40.5z">
  </path>
  <path class="st0" d="M100.8,15.2V17c-2.6-1.6-5.7-2.6-9-2.6c-9.4,0-17.1,7.7-17.1,17.1c0,9.4,7.7,17.1,17.1,17.1
		c3.3,0,6.4-0.9,9-2.6v1.8h8.3V15.2H100.8z M91.8,40.5c-5,0-9.1-4.1-9.1-9.1c0-5,4.1-9.1,9.1-9.1s9,4,9.1,8.9v0.3
		C100.8,36.6,96.7,40.5,91.8,40.5L91.8,40.5z">
  </path>
  <path d="M60.3,34.8l-5.1-8.1c0,0,0,0,0,0L54.7,26c-0.8-1.2-2.1-1.9-3.5-1.9L43,24L42.5,25l-9.8,15.7l-0.5,0.9l4.1,6.6
		c0.8,1.2,2.1,1.9,3.5,1.9h11.5c1.4,0,2.8-0.7,3.5-1.9l0.4-0.6c0,0,0,0,0,0l5.1-8.2C61.1,37.9,61.1,36.2,60.3,34.8L60.3,34.8z
		 M58.7,38.3l-5.1,8.2c0,0,0,0.1-0.1,0.1c-0.2,0.2-0.4,0.2-0.5,0.2c-0.1,0-0.4,0-0.6-0.3l-5.1-8.2c-0.1-0.1-0.1-0.2-0.2-0.3
		c0-0.1-0.1-0.2-0.1-0.3c-0.1-0.4-0.1-0.8,0-1.3c0.1-0.2,0.1-0.4,0.3-0.6l5.1-8.1c0,0,0,0,0,0c0.1-0.2,0.3-0.3,0.4-0.3
		c0.1,0,0.1,0,0.1,0c0,0,0,0,0.1,0c0.1,0,0.4,0,0.6,0.3l5.1,8.1C59.2,36.6,59.2,37.5,58.7,38.3L58.7,38.3z">
  </path>
  <path d="M45.2,15.1c0.8-1.3,0.8-3.1,0-4.4l-5.1-8.1l-0.4-0.7C38.9,0.7,37.6,0,36.2,0H24.7c-1.4,0-2.7,0.7-3.5,1.9L0.6,34.9
		C0.2,35.5,0,36.3,0,37c0,0.8,0.2,1.5,0.6,2.2l5.5,8.8C6.9,49.3,8.2,50,9.7,50h11.5c1.4,0,2.8-0.7,3.5-1.9l0.4-0.7c0,0,0,0,0,0
		c0,0,0,0,0,0l4.1-6.6l12.1-19.4L45.2,15.1L45.2,15.1z M44,13c0,0.4-0.1,0.8-0.4,1.2L23.5,46.4c-0.2,0.3-0.5,0.3-0.6,0.3
		c-0.1,0-0.4,0-0.6-0.3l-5.1-8.2c-0.5-0.7-0.5-1.7,0-2.4L37.4,3.6c0.2-0.3,0.5-0.3,0.6-0.3c0.1,0,0.4,0,0.6,0.3l5.1,8.1
		C43.9,12.1,44,12.5,44,13z">
  </path>
 </g>
</svg>