<?xml version="1.0" encoding="utf-8"?>
<!-- Svg Vector Icons : http://www.onlinewebfonts.com/icon -->
<!DOCTYPE svg PUBLIC "-//W3C//DTD SVG 1.1//EN" "http://www.w3.org/Graphics/SVG/1.1/DTD/svg11.dtd">
<svg version="1.1" xmlns="http://www.w3.org/2000/svg" xmlns:xlink="http://www.w3.org/1999/xlink" x="0px" y="0px" viewBox="0 0 256 256" enable-background="new 0 0 256 256" xml:space="preserve">
<metadata> Svg Vector Icons : http://www.onlinewebfonts.com/icon </metadata>
    <g><g><g><path fill="#000000" d="M43.3,43.3L10,76.6V128v51.4l33.3,33.3L76.6,246H128h51.4l33.3-33.3l33.3-33.3V128V76.6l-33.3-33.3L179.4,10H128H76.6L43.3,43.3z M198.2,57.8l27.1,27.1V128v43.1l-27.1,27.1l-27.1,27.1H128H84.9l-27.1-27.1l-27.1-27.1V128V84.9l27.1-27.1l27.1-27.1H128h43.1L198.2,57.8z"/><path fill="#000000" d="M104.3,46.5c-2,0.6-4.7,3-5.9,5.2l-1,1.9l-0.1,38.9c-0.1,35.3-0.2,39-0.9,39.8c-1,1.2-2.7,1.1-3.5-0.2c-0.6-0.9-0.7-4.2-0.7-26.7V79.7l-1.2-2.4c-1.8-3.4-4.4-5.2-7.9-5.4c-3.3-0.2-5.6,0.5-7.8,2.4c-3.5,3.1-3.3-0.7-3.3,54.6c0,55.1-0.2,52.4,3.2,59.3c3.9,7.9,10.2,14.2,18.2,18.3c7.4,3.7,7.7,3.7,36.1,3.5l24.7-0.2l3.3-1.2c7.7-2.9,15.7-7.9,21.7-13.8c5.9-5.8,11.9-16.4,14.3-25.2c1.2-4.5,1.2-4.6,1.2-21.8c0-17,0-17.3-1-19.2c-4.1-7.7-14.2-7.6-18.3,0c-1,1.7-1,2.6-1.2,13.4l-0.1,11.6l-2.5,2.5l-2.5,2.4v-46.7c0-34.1-0.1-47.2-0.6-48.5c-1.2-4.3-6.3-7.7-10.6-7.2c-3.7,0.5-6.5,2.5-8.3,6c-0.9,1.7-0.9,3-1,30.3l-0.1,28.5l-1,1c-1.3,1.4-3.1,0.9-3.8-1c-0.4-1-0.5-11.7-0.5-34.5v-33l-1.5-2.5c-3.5-5.9-11.2-6.7-15.9-1.8c-3,3.2-2.9,1.6-2.9,38.4c0,32.8,0,33.4-0.9,34.3c-1.2,1.2-2.4,1.2-3.4,0.1c-0.7-0.7-0.8-4.2-0.9-34.7l-0.1-33.9l-1-1.9C114.2,47.1,109.1,45,104.3,46.5z"/></g></g></g>
</svg>
