<?xml version="1.0" encoding="UTF-8"?>
<svg xmlns="http://www.w3.org/2000/svg" xmlns:xlink="http://www.w3.org/1999/xlink" width="25px" height="25px" viewBox="0 0 25 25" version="1.1">
<g id="surface1">
<path style=" stroke:none;fill-rule:nonzero;fill:rgb(0%,0%,0%);fill-opacity:1;" d="M 4.226562 4.226562 L 0.976562 7.480469 L 0.976562 17.519531 L 4.226562 20.773438 L 7.480469 24.023438 L 17.519531 24.023438 L 20.773438 20.773438 L 24.023438 17.519531 L 24.023438 7.480469 L 20.773438 4.226562 L 17.519531 0.976562 L 7.480469 0.976562 Z M 19.355469 5.644531 L 22 8.289062 L 22 16.710938 L 16.710938 22 L 8.289062 22 L 3 16.710938 L 3 8.289062 L 8.289062 3 L 16.710938 3 Z M 19.355469 5.644531 "/>
<path style=" stroke:none;fill-rule:nonzero;fill:rgb(0%,0%,0%);fill-opacity:1;" d="M 10.1875 4.539062 C 9.992188 4.601562 9.726562 4.835938 9.609375 5.046875 L 9.511719 5.234375 L 9.5 9.03125 C 9.492188 12.480469 9.484375 12.84375 9.414062 12.921875 C 9.316406 13.039062 9.148438 13.027344 9.070312 12.902344 C 9.015625 12.8125 9.003906 12.492188 9.003906 10.292969 L 9.003906 7.78125 L 8.886719 7.546875 C 8.710938 7.214844 8.457031 7.039062 8.113281 7.019531 C 7.792969 7 7.566406 7.070312 7.351562 7.257812 C 7.011719 7.558594 7.03125 7.1875 7.03125 12.585938 C 7.03125 17.96875 7.011719 17.703125 7.34375 18.378906 C 7.722656 19.148438 8.339844 19.765625 9.121094 20.164062 C 9.84375 20.527344 9.875 20.527344 12.648438 20.507812 L 15.058594 20.488281 L 15.382812 20.371094 C 16.132812 20.085938 16.914062 19.601562 17.5 19.023438 C 18.078125 18.457031 18.664062 17.421875 18.898438 16.5625 C 19.015625 16.125 19.015625 16.113281 19.015625 14.433594 C 19.015625 12.773438 19.015625 12.742188 18.914062 12.558594 C 18.515625 11.808594 17.53125 11.816406 17.128906 12.558594 C 17.03125 12.726562 17.03125 12.8125 17.011719 13.867188 L 17 15 L 16.757812 15.246094 L 16.515625 15.480469 L 16.515625 10.917969 C 16.515625 7.589844 16.503906 6.308594 16.453125 6.183594 C 16.335938 5.761719 15.839844 5.429688 15.421875 5.480469 C 15.058594 5.527344 14.785156 5.722656 14.609375 6.066406 C 14.519531 6.230469 14.519531 6.359375 14.511719 9.023438 L 14.5 11.808594 L 14.40625 11.90625 C 14.277344 12.042969 14.101562 11.992188 14.03125 11.808594 C 13.992188 11.710938 13.984375 10.664062 13.984375 8.4375 L 13.984375 5.214844 L 13.835938 4.972656 C 13.496094 4.394531 12.742188 4.316406 12.285156 4.796875 C 11.992188 5.109375 12 4.953125 12 8.546875 C 12 11.75 12 11.808594 11.914062 11.894531 C 11.796875 12.011719 11.679688 12.011719 11.582031 11.90625 C 11.511719 11.835938 11.503906 11.496094 11.492188 8.515625 L 11.484375 5.207031 L 11.386719 5.019531 C 11.152344 4.601562 10.65625 4.394531 10.1875 4.539062 Z M 10.1875 4.539062 "/>
</g>
</svg>
