<svg id="svg" version="1.1" xmlns="http://www.w3.org/2000/svg" xmlns:xlink="http://www.w3.org/1999/xlink" width="400" height="400" viewBox="0, 0, 400,400"><g id="svgg"><path id="path0" d="M24.051 2.799 C 18.124 4.631,11.042 9.985,7.287 15.473 C 1.127 24.473,1.563 14.627,1.563 145.034 L 1.563 261.660 3.240 266.182 C 4.163 268.668,5.893 272.109,7.085 273.828 C 10.900 279.330,68.063 335.629,71.656 337.424 C 79.734 341.458,78.641 341.406,155.506 341.406 C 215.034 341.406,228.394 341.603,234.834 342.574 C 251.693 345.115,277.676 341.805,286.719 335.965 C 287.644 335.368,294.069 341.358,317.188 364.370 C 341.489 388.560,347.217 393.872,350.781 395.524 C 373.031 405.842,398.047 389.406,398.047 364.470 C 398.047 350.830,398.812 351.906,364.429 317.188 L 335.415 287.891 337.292 283.316 C 355.894 237.976,333.564 183.333,288.086 162.903 L 281.250 159.832 281.234 97.299 C 281.226 62.906,280.898 32.549,280.506 29.839 C 278.912 18.811,271.835 9.151,261.907 4.448 L 256.641 1.953 142.188 1.807 C 43.859 1.681,27.215 1.821,24.051 2.799 M254.641 26.909 C 258.575 30.677,258.585 30.853,258.589 94.727 L 258.594 154.688 248.365 154.688 C 175.308 154.688,130.193 235.417,168.244 298.060 C 170.456 301.702,174.989 307.847,178.318 311.716 L 184.369 318.750 137.107 318.750 L 89.844 318.750 89.843 290.039 C 89.841 249.159,93.023 252.344,52.178 252.344 L 24.219 252.344 24.219 142.149 C 24.219 20.448,23.858 28.975,29.139 25.745 C 31.596 24.243,33.623 24.219,141.941 24.412 L 252.241 24.609 254.641 26.909 M52.846 62.515 C 44.293 65.104,42.556 78.164,50.148 82.792 C 53.703 84.960,227.163 85.316,231.323 83.165 C 238.391 79.510,238.504 68.097,231.517 63.519 C 229.150 61.968,57.834 61.005,52.846 62.515 M51.578 126.368 C 43.659 130.347,43.215 142.145,50.829 146.229 C 55.144 148.543,191.918 148.433,195.673 146.112 C 203.287 141.407,202.285 129.614,193.970 126.071 C 189.656 124.233,55.271 124.513,51.578 126.368 M266.683 179.222 C 335.633 198.362,339.382 293.970,272.080 316.859 C 211.388 337.500,156.294 273.844,185.140 216.406 C 199.774 187.267,236.059 170.720,266.683 179.222 M51.172 189.735 C 43.397 194.537,43.292 204.698,50.969 209.379 C 54.314 211.419,132.717 211.841,136.562 209.840 C 145.053 205.422,145.053 193.797,136.562 189.379 C 132.879 187.463,54.320 187.790,51.172 189.735 M67.188 288.830 L 67.188 302.661 63.995 299.573 C 62.239 297.874,56.222 291.650,50.624 285.742 L 40.446 275.000 53.817 275.000 L 67.188 275.000 67.188 288.830 M348.141 333.008 C 375.041 360.030,375.001 359.983,374.997 364.432 C 374.990 371.852,366.953 377.305,360.691 374.137 C 359.752 373.662,347.670 361.998,333.842 348.217 L 308.699 323.161 315.873 315.909 C 319.819 311.921,323.225 308.643,323.442 308.626 C 323.660 308.608,334.774 319.580,348.141 333.008 " stroke="none" fill="#000000" fill-rule="evenodd"></path></g></svg>