<svg version="1.1" id="Layer_1" xmlns="http://www.w3.org/2000/svg" xmlns:xlink="http://www.w3.org/1999/xlink" x="0px" y="0px"
	 width="100%" viewBox="0 0 512 512" enable-background="new 0 0 512 512" xml:space="preserve">
<path fill="#37A5F2" opacity="1.000000" stroke="none" 
	d="
M340.000000,513.000000 
	C226.694199,513.000000 113.888390,513.000000 1.041291,513.000000 
	C1.041291,342.402496 1.041291,171.804993 1.041291,1.103745 
	C171.555817,1.103745 342.111694,1.103745 512.833801,1.103745 
	C512.833801,171.666534 512.833801,342.333252 512.833801,513.000000 
	C455.471649,513.000000 397.985809,513.000000 340.000000,513.000000 
M177.643066,192.131958 
	C171.039185,201.546509 166.900742,211.865692 164.835510,223.256332 
	C161.099701,243.860992 180.103409,250.507568 194.801575,248.169556 
	C192.299469,239.081741 194.665131,230.379669 196.900436,221.649185 
	C209.546478,172.257187 256.277069,139.498230 306.530151,144.822830 
	C327.632935,147.058807 338.234009,160.426025 334.460205,181.310684 
	C328.444458,214.602585 311.583374,241.485474 284.144226,261.246674 
	C277.678040,265.903503 269.614594,268.387573 262.174255,271.613586 
	C260.409882,272.378571 258.195160,272.104950 255.273346,272.402008 
	C272.028137,234.541061 288.325012,197.714874 304.971710,160.098129 
	C287.852173,162.328369 272.007141,164.273682 256.221436,166.618118 
	C254.489090,166.875381 252.452408,169.135849 251.640274,170.951721 
	C220.907211,239.670197 190.299683,308.444794 159.690384,377.218597 
	C159.117508,378.505768 158.725906,379.873566 158.051529,381.757416 
	C172.886429,381.757416 187.037323,381.580841 201.178864,381.866272 
	C205.359055,381.950653 207.294312,380.512360 208.937134,376.780975 
	C221.687668,347.820099 234.709747,318.978790 247.480652,290.026764 
	C248.899963,286.809143 250.657043,285.827942 254.125610,285.596436 
	C304.823822,282.213074 341.033905,256.992218 363.642731,211.929062 
	C369.876221,199.504684 372.263489,186.058533 370.850708,172.099426 
	C368.823425,152.069138 354.269623,136.610931 331.839722,131.132278 
	C310.215790,125.850487 288.765656,128.091202 267.649658,133.968246 
	C231.905685,143.916656 201.047913,161.661270 177.643066,192.131958 
z"/>
<path fill="#FDFEFF" opacity="1.000000" stroke="none" 
	d="
M177.848358,191.837891 
	C201.047913,161.661270 231.905685,143.916656 267.649658,133.968246 
	C288.765656,128.091202 310.215790,125.850487 331.839722,131.132278 
	C354.269623,136.610931 368.823425,152.069138 370.850708,172.099426 
	C372.263489,186.058533 369.876221,199.504684 363.642731,211.929062 
	C341.033905,256.992218 304.823822,282.213074 254.125610,285.596436 
	C250.657043,285.827942 248.899963,286.809143 247.480652,290.026764 
	C234.709747,318.978790 221.687668,347.820099 208.937134,376.780975 
	C207.294312,380.512360 205.359055,381.950653 201.178864,381.866272 
	C187.037323,381.580841 172.886429,381.757416 158.051529,381.757416 
	C158.725906,379.873566 159.117508,378.505768 159.690384,377.218597 
	C190.299683,308.444794 220.907211,239.670197 251.640274,170.951721 
	C252.452408,169.135849 254.489090,166.875381 256.221436,166.618118 
	C272.007141,164.273682 287.852173,162.328369 304.971710,160.098129 
	C288.325012,197.714874 272.028137,234.541061 255.273346,272.402008 
	C258.195160,272.104950 260.409882,272.378571 262.174255,271.613586 
	C269.614594,268.387573 277.678040,265.903503 284.144226,261.246674 
	C311.583374,241.485474 328.444458,214.602585 334.460205,181.310684 
	C338.234009,160.426025 327.632935,147.058807 306.530151,144.822830 
	C256.277069,139.498230 209.546478,172.257187 196.900436,221.649185 
	C194.665131,230.379669 192.299469,239.081741 194.801575,248.169556 
	C180.103409,250.507568 161.099701,243.860992 164.835510,223.256332 
	C166.900742,211.865692 171.039185,201.546509 177.848358,191.837891 
z"/>
</svg>