<?xml version="1.0" standalone="no"?>
<!DOCTYPE svg PUBLIC "-//W3C//DTD SVG 20010904//EN"
 "http://www.w3.org/TR/2001/REC-SVG-20010904/DTD/svg10.dtd">
<svg version="1.0" xmlns="http://www.w3.org/2000/svg"
 width="300.000000pt" height="197.000000pt" viewBox="0 0 300.000000 197.000000"
 preserveAspectRatio="xMidYMid meet">

<g transform="translate(0.000000,197.000000) scale(0.100000,-0.100000)"
fill="#000000" stroke="none">
<path d="M265 1961 c-134 -35 -218 -146 -250 -328 -22 -126 -22 -1170 0 -1296
27 -158 94 -262 198 -308 74 -33 191 -33 265 0 96 43 160 137 195 285 17 72
17 1270 0 1342 -48 202 -149 302 -313 310 -36 2 -78 0 -95 -5z"/>
<path d="M1406 1959 c-273 -35 -414 -143 -467 -359 -20 -80 -20 -1160 0 -1240
34 -137 104 -229 214 -280 157 -74 258 -82 872 -77 563 4 587 7 732 77 122 60
180 133 220 280 16 59 18 118 18 620 0 616 -1 629 -67 752 -68 127 -205 199
-432 228 -98 12 -993 11 -1090 -1z"/>
</g>
</svg>
