<?xml version="1.0" ?><svg data-name="Layer 1" id="Layer_1" viewBox="0 0 128 128" xmlns="http://www.w3.org/2000/svg"><title/><path d="M116,100.15973V70a8.00917,8.00917,0,0,0-8-8H73.79846A10.02887,10.02887,0,0,0,66,54.20154V27.84027a14,14,0,1,0-4,0V54.20154A10.02887,10.02887,0,0,0,54.20154,62H20a8.00917,8.00917,0,0,0-8,8v30.15973a14,14,0,1,0,4,0V70a4.00458,4.00458,0,0,1,4-4H54.20154a10.00062,10.00062,0,0,0,19.59692,0H108a4.00458,4.00458,0,0,1,4,4v30.15973a14,14,0,1,0,4,0ZM64,70a6,6,0,1,1,6-6A6.00656,6.00656,0,0,1,64,70Z"/></svg>