<?xml version="1.0" encoding="UTF-8"?>
<svg id="Layer_1" data-name="Layer 1" xmlns="http://www.w3.org/2000/svg" viewBox="0 0 150 150">
  <defs>
    <style>
      .cls-1 {
        fill: #ec1218;
        fill-rule: evenodd;
      }

      .cls-2 {
        fill: none;
      }
    </style>
  </defs>
  <path class="cls-2" d="M0,0H150V150H0V0Z"/>
  <path id="Logo-Icon" class="cls-1" d="M120.59,87.03c0,4-2.35,7.64-6.94,8.35-7.88,1.41-24.34,2.23-38.22,2.23s-30.34-.82-38.22-2.23c-4.59-.82-6.82-4.47-6.82-8.35v-26.23c0-4,3.06-7.76,6.82-8.35,2.35-.47,7.76-.82,12-.82,1.65,0,2.82,1.29,2.94,3.18v18.23c8.11,0,15.17-.47,23.4-.47s15.17,.47,23.4,.47v-18.23c0-1.88,1.29-3.18,2.82-3.18,4.23,0,9.64,.35,12,.82,3.76,.71,6.94,4.47,6.94,8.35l-.12,26.23h0ZM75.28,8.09C38.59,8.09,8.72,38.2,8.72,75.24s29.87,67.03,66.56,67.03,66.56-30.11,66.56-67.03S112.24,8.09,75.28,8.09h0Z"/>
</svg>