<svg viewBox="0 0 133.7262 48.104" xmlns="http://www.w3.org/2000/svg">
 <title>Insightly Logo</title>
  <path class="a" d="M133.73645,29.542c0-.98926-.57227-1.52929-1.09766-1.52929-1.23925,0-1.19238,2.11425-3.86328,4.27441a57.91578,57.91578,0,0,1-.62011-7.73975c0-4.63476,1.0498-8.05468,1.0498-9.54a1.66126,1.66126,0,0,0-1.62207-1.7998A6.4255,6.4255,0,0,0,123.004,16.312c-.7627,1.44043-1.24024,7.65039-1.24024,11.20557,0,1.48437-.334,3.10449-1.62207,3.10449-1.28711,0-1.86035-1.43945-1.86035-6.07471,0-4.63476,1.09766-8.05468,1.09766-9.54a1.70411,1.70411,0,0,0-1.71778-1.7998,6.51454,6.51454,0,0,0-4.57812,3.10449c-.668,1.44043-1.14551,7.65039-1.14551,11.20557a16.70046,16.70046,0,0,0,.12274,1.89984c.00586.05151.01087.09265.01593.13409.06885.64356-.583,1.07056-1.13964,1.07056-1.09668,0-1.62207-1.43945-1.62207-6.07471,0-4.63476,2.7666-21.3291,2.7666-22.81445a1.73,1.73,0,0,0-1.7168-1.7998,6.49745,6.49745,0,0,0-4.5791,3.05957c-.71582,1.48535-2.81445,20.96972-2.81445,24.5249,0,.216.00665.429.01538.64081a2.73237,2.73237,0,0,1-2.92456,2.46368c-1.19239,0-2.14649-1.43945-2.14649-6.07471,0-1.89062.38184-5.40039.81055-8.91015,1.956-.31446,3.19629-.67481,4.00683-1.43946a7.39888,7.39888,0,0,0,1.19239-3.55468c0-.4502-.14258-.99024-.668-.99024-1.04883,0-2.5752.89942-3.91113,1.25977.42968-2.96973.76367-5.35449.76367-5.93946a1.70411,1.70411,0,0,0-1.71778-1.7998A6.5861,6.5861,0,0,0,93.8136,6.23291a41.32019,41.32019,0,0,0-1.04981,6.75c-1.71679.6748-2.957,1.34961-2.957,1.84473,0,1.08007,1.24024,1.30468,2.62305,1.34961-.52441,4.72461-.8584,9.63037-.8584,11.38525,0,.07275.00513.14362.00635.21594-.00006.00989-.0047.0127-.00433.02313.05157,1.54218-.00483,2.8205-1.004,2.8205-.8584,0-1.66992-1.03516-1.66992-4.22949,0-2.88037.52539-5.13037.52539-7.47022,0-3.05957-.81153-5.71484-4.48438-5.71484a7.29808,7.29808,0,0,0-5.58008,3.19531c.668-6.2998,1.86036-13.72461,1.86036-14.66992a1.68849,1.68849,0,0,0-1.62208-1.7998,6.49745,6.49745,0,0,0-4.5791,3.05957c-.74334,1.4458-2.38916,19.94091-2.47625,27.108.00311,1.43341-.77485,1.706-1.57843,2.18646a54.05,54.05,0,0,1-.62012-7.73975c0-4.63476,1.14551-8.05468,1.14551-9.54a1.73074,1.73074,0,0,0-1.71778-1.7998,6.11206,6.11206,0,0,0-3.43408,1.665c-.4292-.85547-1.3833-1.665-3.67285-1.665-3.625,0-9.11084,3.15039-9.11084,12.46533a14.41574,14.41574,0,0,0,.55469,3.95447c-.30835.53369-.671.99475-1.31183.99475-1.09668,0-1.62158-1.43945-1.62158-6.07471,0-4.63476,1.09716-8.05468,1.09716-9.54a1.704,1.704,0,0,0-1.71728-1.7998A6.47212,6.47212,0,0,0,46.02472,16.312c-.71582,1.44043-1.19287,7.65039-1.19287,11.25049,0,4.13965,1.52637,7.46973,6.01025,7.46973A5.66513,5.66513,0,0,0,55.53717,32.629a5.53983,5.53983,0,0,0,4.648,2.40326,7.09821,7.09821,0,0,0,4.77-1.84473c.14307.585.334,1.25977.4292,1.88965-5.48535,1.93457-10.9707,3.28515-10.9707,7.73926,0,2.47558,2.28955,5.2207,7.44091,5.2207,8.53809,0,9.96973-5.40039,9.96973-8.23535a31.213,31.213,0,0,0-.47754-4.40918,15.344,15.344,0,0,0,1.55512-1.03375.93479.93479,0,0,0,.8775.6734c4.4834,0,5.3418-1.93457,5.3418-3.15039,0-1.66407-.04688-2.51954-.04688-3.32911,0-4.3208.38086-10.89013,3.291-10.89013.85839,0,1.09668.80957,1.09668,2.02441,0,2.16016-.81055,5.58057-.81055,7.87549,0,4.13965,1.57422,7.46973,5.96191,7.46973a5.67764,5.67764,0,0,0,4.54584-2.1388,6.05749,6.05749,0,0,0,4.9942,2.1388,6.68886,6.68886,0,0,0,5.60553-3.19367,5.24667,5.24667,0,0,0,5.2226,3.19367,5.57512,5.57512,0,0,0,4.40014-2.06183,5.33656,5.33656,0,0,0,4.56665,2.06183,5.51664,5.51664,0,0,0,4.67383-2.42969l.57227,2.47461c-5.48535,1.93457-10.97071,3.28515-10.97071,7.73926,0,2.47558,2.29,5.2207,7.44141,5.2207,8.53809,0,9.96875-5.40039,9.96875-8.23535a31.18694,31.18694,0,0,0-.47656-4.40918C133.02063,33.14258,133.73645,30.80273,133.73645,29.542ZM64.88269,25.205a6.9986,6.9986,0,0,1-1.01,3.16,3.32388,3.32388,0,0,1-2.437,1.545c-.754.08-2.75.128-2.75-5.44a7.53735,7.53735,0,0,1,2.968-6.34595l-.001-.00305C66.04065,15.341,65.09869,23.161,64.88269,25.205ZM62.76086,44.21191A2.37345,2.37345,0,0,1,60.233,41.78223c0-1.71,3.00489-2.97071,5.67627-3.96a15.76939,15.76939,0,0,1,.19043,2.42968C66.09973,42.1416,64.81213,44.21191,62.76086,44.21191Zm57.81055,0a2.37359,2.37359,0,0,1-2.52832-2.42968c0-1.71,3.00488-2.97071,5.67676-3.96a15.83106,15.83106,0,0,1,.19043,2.42968C123.91028,42.1416,122.62219,44.21191,120.57141,44.21191ZM49.87833,11.926c-1.377,0-2.753-.527-2.753-3.67,0-2.784,2.803-4.085,4.461-4.085,1.522,0,2.85.673,2.85,2.423A4.99918,4.99918,0,0,1,49.87833,11.926ZM2.278,8.255c0-2.784,2.803-4.085,4.465-4.085,1.521,0,2.85.673,2.85,2.423a5.00137,5.00137,0,0,1-4.55969,5.332C3.65656,11.92487,2.278,11.39752,2.278,8.255Zm2.756,3.67h0Zm38.825,17.5263c0,3.99567-3.30481,5.97205-8.09906,5.97205a10.19822,10.19822,0,0,1-6.03888-1.8764,5.64689,5.64689,0,0,1-3.9267,1.48529c-3.811,0-5.90692-2.47144-5.90692-6.516,0-2.292.71442-5.39393.71442-7.41572,0-1.16839-.28577-1.9779-1.09577-1.9779-1.90521,0-3.57251,5.57288-3.57251,12.76331,0,1.21423-.85778,3.1463-5.33538,3.1463-.63562,0-.92981-.4458-1.0401-1.2063a5.55554,5.55554,0,0,1-3.5376,1.2063c-4.48389,0-6.01026-3.33008-6.01026-7.46973,0-3.6001.47705-9.81006,1.19287-11.25049a6.47213,6.47213,0,0,1,4.53126-3.10449,1.704,1.704,0,0,1,1.71728,1.7998c0,1.48536-1.09717,4.90528-1.09717,9.54,0,4.63526.5249,6.07471,1.62158,6.07471A1.60575,1.60575,0,0,0,9.7738,29.3125c.11609-1.18091.23047-2.44727.25238-3.71729.04779-7.37084.19068-8.18035.47644-9.21319.42865-2.11249,3.85877-3.55109,5.38318-3.55109A1.41033,1.41033,0,0,1,17.458,14.449c0,.9441-.66712,2.24707-.95288,4.08942,1.09576-2.33679,3.95385-5.30273,6.574-5.30273,2.95319,0,3.7154,2.11255,3.7154,4.76342,0,2.8313-.76221,5.6626-.76221,8.76453,0,2.72052.54278,3.71362,1.50183,3.83875a3.13069,3.13069,0,0,1-.10584-.75562c0-2.59106,2.8393-4.699,4.0962-4.699.88433,0,1.16357.74713,1.25647,1.97644.014.18811.03759.38751.06707.591.2663,1.83893,1.19385,4.15082,3.33112,4.15082a1.79105,1.79105,0,0,0,2.04791-1.84394A4.05117,4.05117,0,0,0,36.938,27.433a51.50848,51.50848,0,0,0-5.23773-4.34478,6.0363,6.0363,0,0,1-2.5788-4.81134,5.18692,5.18692,0,0,1,.5011-2.25184c1.02606-2.109,3.561-3.14086,6.88086-3.11181a9.86562,9.86562,0,0,1,3.06238.50805A7.41187,7.41187,0,0,1,43.304,16.0451a3.52151,3.52151,0,0,1,.70074,2.00263A4.82068,4.82068,0,0,1,40.25793,22.286c-.8009-.007-1.04785-.68823-1.12231-1.80627a7.96438,7.96438,0,0,0-.1922-1.27655c-.35-1.496-1.19012-3.0456-2.84784-3.06012a1.62435,1.62435,0,0,0-1.8692,1.65966,3.09737,3.09737,0,0,0,.60644,1.65888,9.67382,9.67382,0,0,0,2.65186,2.62793C40.29413,24,43.859,25.97644,43.859,29.45129Z" transform="translate(-0.01025 0.06689)" fill="#ff5621"></path>
</svg>
