<?xml version="1.0" ?><svg id="Layer_1" style="enable-background:new 0 0 1024 1024;" version="1.1" viewBox="0 0 1024 1024" xml:space="preserve" xmlns="http://www.w3.org/2000/svg" xmlns:xlink="http://www.w3.org/1999/xlink"><g id="XMLID_22_"><g id="XMLID_27_"><path d="M263.5,196.3c0,21.1,0,42.3,0,63.4c0,50.3,0,100.7,0,151c0,61,0,121.9,0,182.9c0,52.5,0,105.1,0,157.6    c0,25.2,0.2,50.4,0,75.6c0,1.2-0.1,2.4-0.2,3.7c0.4-2.7,0.7-5.3,1.1-8c-0.3,1.8-0.7,3.4-1.3,5.1c1-2.4,2-4.8,3-7.2    c-0.5,1.2-1.2,2.3-1.7,3.5c-2.1,4.4,4.8-5.6,1.5-2c-3.2,3.5,6.5-3.7,2-1.5c-1.2,0.6-2.3,1.2-3.5,1.7c2.4-1,4.8-2,7.2-3    c-1.7,0.6-3.4,1-5.1,1.3c2.7-0.4,5.3-0.7,8-1.1c-6.8,0.6-13.8,0.2-20.6,0.2c-15,0-30,0-44.9,0c-33.8,0-67.5,0-101.3,0    c-8.3,0-16.8,0.6-25.1-0.2c2.7,0.4,5.3,0.7,8,1.1c-1.8-0.3-3.4-0.7-5.1-1.3c2.4,1,4.8,2,7.2,3c-1.2-0.5-2.3-1.2-3.5-1.7    c-4.4-2.1,5.6,4.8,2,1.5c-3.5-3.2,3.7,6.5,1.5,2c-0.6-1.2-1.2-2.3-1.7-3.5c1,2.4,2,4.8,3,7.2c-0.6-1.7-1-3.4-1.3-5.1    c0.4,2.7,0.7,5.3,1.1,8c-0.6-6.3-0.2-12.8-0.2-19.1c0-15.3,0-30.5,0-45.8c0-50.4,0-100.9,0-151.3c0-61.1,0-122.2,0-183.3    c0-52.5,0-105,0-157.4c0-25.4-0.2-50.8,0-76.3c0-1.2,0.1-2.4,0.2-3.7c-0.4,2.7-0.7,5.3-1.1,8c0.3-1.8,0.7-3.4,1.3-5.1    c-1,2.4-2,4.8-3,7.2c0.5-1.2,1.2-2.3,1.7-3.5c2.1-4.4-4.8,5.6-1.5,2c3.2-3.5-6.5,3.7-2,1.5c1.2-0.6,2.3-1.2,3.5-1.7    c-2.4,1-4.8,2-7.2,3c1.7-0.6,3.4-1,5.1-1.3c-2.7,0.4-5.3,0.7-8,1.1c6.8-0.6,13.8-0.2,20.6-0.2c15,0,30,0,44.9,0    c33.8,0,67.5,0,101.3,0c8.3,0,16.8-0.6,25.1,0.2c-2.7-0.4-5.3-0.7-8-1.1c1.8,0.3,3.4,0.7,5.1,1.3c-2.4-1-4.8-2-7.2-3    c1.2,0.5,2.3,1.2,3.5,1.7c4.4,2.1-5.6-4.8-2-1.5c3.5,3.2-3.7-6.5-1.5-2c0.6,1.2,1.2,2.3,1.7,3.5c-1-2.4-2-4.8-3-7.2    c0.6,1.7,1,3.4,1.3,5.1c-0.4-2.7-0.7-5.3-1.1-8C263.4,194.5,263.5,195.4,263.5,196.3c0.5,15.7,13.4,30.7,30,30    c15.8-0.7,30.5-13.2,30-30c-0.9-28.5-22.6-50.6-51.1-51.8c-2.3-0.1-4.7,0-7,0c-14.2,0-28.4,0-42.6,0c-38.6,0-77.2,0-115.8,0    c-11,0-22.2-0.7-33.1,1.3c-25,4.7-40.4,28.7-40.4,52.9c0,15.3,0,30.7,0,46c0,30,0,60.1,0,90.1c0,38.8,0,77.7,0,116.5    c0,41.7,0,83.4,0,125.1c0,38.7,0,77.3,0,116c0,29.8,0,59.5,0,89.3c0,14.7,0,29.3,0,44c0.1,29.4,22.1,52.9,51.8,53.7    c8.1,0.2,16.3,0,24.4,0c38.9,0,77.7,0,116.6,0c13.5,0,27,0,40.5,0c5.9,0,11.6-0.3,17.6-1.6c23.2-5.2,38.5-27.3,39.1-50.2    c0.3-10.8,0-21.6,0-32.3c0-27,0-53.9,0-80.9c0-37.4,0-74.8,0-112.2c0-41.6,0-83.1,0-124.7c0-39.9,0-79.9,0-119.8    c0-32.5,0-65,0-97.5c0-18.8,0-37.7,0-56.5c0-2.5,0-5,0-7.5c0-15.7-13.8-30.7-30-30C277.2,167,263.5,179.5,263.5,196.3z" id="XMLID_31_"/></g></g><g id="XMLID_3_"><g id="XMLID_21_"><path d="M597,196.3c0,21.1,0,42.3,0,63.4c0,50.3,0,100.7,0,151c0,61,0,121.9,0,182.9c0,52.5,0,105.1,0,157.6    c0,25.2,0.2,50.4,0,75.6c0,1.2-0.1,2.4-0.2,3.7c0.4-2.7,0.7-5.3,1.1-8c-0.3,1.8-0.7,3.4-1.3,5.1c1-2.4,2-4.8,3-7.2    c-0.5,1.2-1.2,2.3-1.7,3.5c-2.1,4.4,4.8-5.6,1.5-2c-3.2,3.5,6.5-3.7,2-1.5c-1.2,0.6-2.3,1.2-3.5,1.7c2.4-1,4.8-2,7.2-3    c-1.7,0.6-3.4,1-5.1,1.3c2.7-0.4,5.3-0.7,8-1.1c-6.8,0.6-13.8,0.2-20.6,0.2c-15,0-30,0-44.9,0c-33.8,0-67.5,0-101.3,0    c-8.3,0-16.8,0.6-25.1-0.2c2.7,0.4,5.3,0.7,8,1.1c-1.8-0.3-3.4-0.7-5.1-1.3c2.4,1,4.8,2,7.2,3c-1.2-0.5-2.3-1.2-3.5-1.7    c-4.4-2.1,5.6,4.8,2,1.5c-3.5-3.2,3.7,6.5,1.5,2c-0.6-1.2-1.2-2.3-1.7-3.5c1,2.4,2,4.8,3,7.2c-0.6-1.7-1-3.4-1.3-5.1    c0.4,2.7,0.7,5.3,1.1,8c-0.6-6.3-0.2-12.8-0.2-19.1c0-15.3,0-30.5,0-45.8c0-50.4,0-100.9,0-151.3c0-61.1,0-122.2,0-183.3    c0-52.5,0-105,0-157.4c0-25.4-0.2-50.8,0-76.3c0-1.2,0.1-2.4,0.2-3.7c-0.4,2.7-0.7,5.3-1.1,8c0.3-1.8,0.7-3.4,1.3-5.1    c-1,2.4-2,4.8-3,7.2c0.5-1.2,1.2-2.3,1.7-3.5c2.1-4.4-4.8,5.6-1.5,2c3.2-3.5-6.5,3.7-2,1.5c1.2-0.6,2.3-1.2,3.5-1.7    c-2.4,1-4.8,2-7.2,3c1.7-0.6,3.4-1,5.1-1.3c-2.7,0.4-5.3,0.7-8,1.1c6.8-0.6,13.8-0.2,20.6-0.2c15,0,30,0,44.9,0    c33.8,0,67.5,0,101.3,0c8.3,0,16.8-0.6,25.1,0.2c-2.7-0.4-5.3-0.7-8-1.1c1.8,0.3,3.4,0.7,5.1,1.3c-2.4-1-4.8-2-7.2-3    c1.2,0.5,2.3,1.2,3.5,1.7c4.4,2.1-5.6-4.8-2-1.5c3.5,3.2-3.7-6.5-1.5-2c0.6,1.2,1.2,2.3,1.7,3.5c-1-2.4-2-4.8-3-7.2    c0.6,1.7,1,3.4,1.3,5.1c-0.4-2.7-0.7-5.3-1.1-8C596.9,194.5,597,195.4,597,196.3c0.5,15.7,13.4,30.7,30,30    c15.8-0.7,30.5-13.2,30-30c-0.9-28.5-22.6-50.6-51.1-51.8c-2.3-0.1-4.7,0-7,0c-14.2,0-28.4,0-42.6,0c-38.6,0-77.2,0-115.8,0    c-11,0-22.2-0.7-33.1,1.3c-25,4.7-40.4,28.7-40.4,52.9c0,15.3,0,30.7,0,46c0,30,0,60.1,0,90.1c0,38.8,0,77.7,0,116.5    c0,41.7,0,83.4,0,125.1c0,38.7,0,77.3,0,116c0,29.8,0,59.5,0,89.3c0,14.7,0,29.3,0,44c0.1,29.4,22.1,52.9,51.8,53.7    c8.1,0.2,16.3,0,24.4,0c38.9,0,77.7,0,116.6,0c13.5,0,27,0,40.5,0c5.9,0,11.6-0.3,17.6-1.6c23.2-5.2,38.5-27.3,39.1-50.2    c0.3-10.8,0-21.6,0-32.3c0-27,0-53.9,0-80.9c0-37.4,0-74.8,0-112.2c0-41.6,0-83.1,0-124.7c0-39.9,0-79.9,0-119.8    c0-32.5,0-65,0-97.5c0-18.8,0-37.7,0-56.5c0-2.5,0-5,0-7.5c0-15.7-13.8-30.7-30-30C610.7,167,597,179.5,597,196.3z" id="XMLID_26_"/></g></g><g id="XMLID_6_"><g id="XMLID_16_"><path d="M930.5,196.3c0,21.1,0,42.3,0,63.4c0,50.3,0,100.7,0,151c0,61,0,121.9,0,182.9c0,52.5,0,105.1,0,157.6    c0,25.2,0.2,50.4,0,75.6c0,1.2-0.1,2.4-0.2,3.7c0.4-2.7,0.7-5.3,1.1-8c-0.3,1.8-0.7,3.4-1.3,5.1c1-2.4,2-4.8,3-7.2    c-0.5,1.2-1.2,2.3-1.7,3.5c-2.1,4.4,4.8-5.6,1.5-2c-3.2,3.5,6.5-3.7,2-1.5c-1.2,0.6-2.3,1.2-3.5,1.7c2.4-1,4.8-2,7.2-3    c-1.7,0.6-3.4,1-5.1,1.3c2.7-0.4,5.3-0.7,8-1.1c-6.8,0.6-13.8,0.2-20.6,0.2c-15,0-30,0-44.9,0c-33.8,0-67.5,0-101.3,0    c-8.3,0-16.8,0.6-25.1-0.2c2.7,0.4,5.3,0.7,8,1.1c-1.8-0.3-3.4-0.7-5.1-1.3c2.4,1,4.8,2,7.2,3c-1.2-0.5-2.3-1.2-3.5-1.7    c-4.4-2.1,5.6,4.8,2,1.5c-3.5-3.2,3.7,6.5,1.5,2c-0.6-1.2-1.2-2.3-1.7-3.5c1,2.4,2,4.8,3,7.2c-0.6-1.7-1-3.4-1.3-5.1    c0.4,2.7,0.7,5.3,1.1,8c-0.6-6.3-0.2-12.8-0.2-19.1c0-15.3,0-30.5,0-45.8c0-50.4,0-100.9,0-151.3c0-61.1,0-122.2,0-183.3    c0-52.5,0-105,0-157.4c0-25.4-0.2-50.8,0-76.3c0-1.2,0.1-2.4,0.2-3.7c-0.4,2.7-0.7,5.3-1.1,8c0.3-1.8,0.7-3.4,1.3-5.1    c-1,2.4-2,4.8-3,7.2c0.5-1.2,1.2-2.3,1.7-3.5c2.1-4.4-4.8,5.6-1.5,2c3.2-3.5-6.5,3.7-2,1.5c1.2-0.6,2.3-1.2,3.5-1.7    c-2.4,1-4.8,2-7.2,3c1.7-0.6,3.4-1,5.1-1.3c-2.7,0.4-5.3,0.7-8,1.1c6.8-0.6,13.8-0.2,20.6-0.2c15,0,30,0,44.9,0    c33.8,0,67.5,0,101.3,0c8.3,0,16.8-0.6,25.1,0.2c-2.7-0.4-5.3-0.7-8-1.1c1.8,0.3,3.4,0.7,5.1,1.3c-2.4-1-4.8-2-7.2-3    c1.2,0.5,2.3,1.2,3.5,1.7c4.4,2.1-5.6-4.8-2-1.5c3.5,3.2-3.7-6.5-1.5-2c0.6,1.2,1.2,2.3,1.7,3.5c-1-2.4-2-4.8-3-7.2    c0.6,1.7,1,3.4,1.3,5.1c-0.4-2.7-0.7-5.3-1.1-8C930.4,194.5,930.5,195.4,930.5,196.3c0.5,15.7,13.4,30.7,30,30    c15.8-0.7,30.5-13.2,30-30c-0.9-28.5-22.6-50.6-51.1-51.8c-2.3-0.1-4.7,0-7,0c-14.2,0-28.4,0-42.6,0c-38.6,0-77.2,0-115.8,0    c-11,0-22.2-0.7-33.1,1.3c-25,4.7-40.4,28.7-40.4,52.9c0,15.3,0,30.7,0,46c0,30,0,60.1,0,90.1c0,38.8,0,77.7,0,116.5    c0,41.7,0,83.4,0,125.1c0,38.7,0,77.3,0,116c0,29.8,0,59.5,0,89.3c0,14.7,0,29.3,0,44c0.1,29.4,22.1,52.9,51.8,53.7    c8.1,0.2,16.3,0,24.4,0c38.9,0,77.7,0,116.6,0c13.5,0,27,0,40.5,0c5.9,0,11.6-0.3,17.6-1.6c23.2-5.2,38.5-27.3,39.1-50.2    c0.3-10.8,0-21.6,0-32.3c0-27,0-53.9,0-80.9c0-37.4,0-74.8,0-112.2c0-41.6,0-83.1,0-124.7c0-39.9,0-79.9,0-119.8    c0-32.5,0-65,0-97.5c0-18.8,0-37.7,0-56.5c0-2.5,0-5,0-7.5c0-15.7-13.8-30.7-30-30C944.2,167,930.5,179.5,930.5,196.3z" id="XMLID_20_"/></g></g></svg>