<?xml version="1.0" ?><svg height="68px" version="1.1" viewBox="0 0 68 68" width="68px" xmlns="http://www.w3.org/2000/svg" xmlns:xlink="http://www.w3.org/1999/xlink"><title/><desc/><g fill="none" fill-rule="evenodd" id="Page-1" stroke="none" stroke-width="1"><g fill="#000000" fill-rule="nonzero" id="game_export" transform="translate(-296.000000, -416.000000)"><path d="M338,442 L358,442 C361.313708,442 364,444.686292 364,448 L364,478 C364,481.313708 361.313708,484 358,484 L328,484 C324.686292,484 322,481.313708 322,478 L322,458 L302,458 C298.686292,458 296,455.313708 296,452 L296,422 C296,418.686292 298.686292,416 302,416 L332,416 C335.313708,416 338,418.686292 338,422 L338,442 Z M302,420 C300.895431,420 300,420.895431 300,422 L300,452 C300,453.104569 300.895431,454 302,454 L332,454 C333.104569,454 334,453.104569 334,452 L334,422 C334,420.895431 333.104569,420 332,420 L302,420 Z M338,446 L338,452 C338,455.313708 335.313708,458 332,458 L326,458 L326,478 C326,479.104569 326.895431,480 328,480 L358,480 C359.104569,480 360,479.104569 360,478 L360,448 C360,446.895431 359.104569,446 358,446 L338,446 Z M314.171573,437 L310.585786,433.414214 C309.804738,432.633165 309.804738,431.366835 310.585786,430.585786 C311.366835,429.804738 312.633165,429.804738 313.414214,430.585786 L317,434.171573 L320.585786,430.585786 C321.366835,429.804738 322.633165,429.804738 323.414214,430.585786 C324.195262,431.366835 324.195262,432.633165 323.414214,433.414214 L319.828427,437 L323.414214,440.585786 C324.195262,441.366835 324.195262,442.633165 323.414214,443.414214 C322.633165,444.195262 321.366835,444.195262 320.585786,443.414214 L317,439.828427 L313.414214,443.414214 C312.633165,444.195262 311.366835,444.195262 310.585786,443.414214 C309.804738,442.633165 309.804738,441.366835 310.585786,440.585786 L314.171573,437 Z M337.414214,461.585786 L341,465.171573 L349.585786,456.585786 C350.366835,455.804738 351.633165,455.804738 352.414214,456.585786 C353.195262,457.366835 353.195262,458.633165 352.414214,459.414214 L342.414214,469.414214 C341.633165,470.195262 340.366835,470.195262 339.585786,469.414214 L334.585786,464.414214 C333.804738,463.633165 333.804738,462.366835 334.585786,461.585786 C335.366835,460.804738 336.633165,460.804738 337.414214,461.585786 Z" id="decision,-boolean,-yes,-no,-opposites,-items"/></g></g></svg>