<?xml version="1.0" ?><svg id="Layer_1_1_" style="enable-background:new 0 0 64 64;" version="1.1" viewBox="0 0 64 64" xml:space="preserve" xmlns="http://www.w3.org/2000/svg" xmlns:xlink="http://www.w3.org/1999/xlink"><path d="M32,27c7.168,0,13-5.832,13-13S39.168,1,32,1S19,6.832,19,14S24.832,27,32,27z M32,3c6.065,0,11,4.935,11,11  s-4.935,11-11,11s-11-4.935-11-11S25.935,3,32,3z"/><path d="M14,37C6.832,37,1,42.832,1,50s5.832,13,13,13s13-5.832,13-13S21.168,37,14,37z M14,61C7.935,61,3,56.065,3,50  s4.935-11,11-11s11,4.935,11,11S20.065,61,14,61z"/><path d="M50,37c-7.168,0-13,5.832-13,13s5.832,13,13,13s13-5.832,13-13S57.168,37,50,37z M50,61c-6.065,0-11-4.935-11-11  s4.935-11,11-11s11,4.935,11,11S56.065,61,50,61z"/><path d="M50,47c-1.654,0-3,1.346-3,3s1.346,3,3,3s3-1.346,3-3S51.654,47,50,47z M50,51c-0.552,0-1-0.448-1-1s0.448-1,1-1  s1,0.448,1,1S50.552,51,50,51z"/><path d="M43,47c-1.654,0-3,1.346-3,3s1.346,3,3,3s3-1.346,3-3S44.654,47,43,47z M43,51c-0.552,0-1-0.448-1-1s0.448-1,1-1  s1,0.448,1,1S43.552,51,43,51z"/><path d="M54,50c0,1.654,1.346,3,3,3s3-1.346,3-3s-1.346-3-3-3S54,48.346,54,50z M58,50c0,0.552-0.448,1-1,1s-1-0.448-1-1  s0.448-1,1-1S58,49.448,58,50z"/><path d="M35.5,17c1.654,0,3-1.346,3-3s-1.346-3-3-3s-3,1.346-3,3S33.846,17,35.5,17z M35.5,13c0.552,0,1,0.448,1,1s-0.448,1-1,1  s-1-0.448-1-1S34.948,13,35.5,13z"/><path d="M28.5,17c1.654,0,3-1.346,3-3s-1.346-3-3-3s-3,1.346-3,3S26.846,17,28.5,17z M28.5,13c0.552,0,1,0.448,1,1s-0.448,1-1,1  s-1-0.448-1-1S27.948,13,28.5,13z"/><path d="M14,47c-1.654,0-3,1.346-3,3s1.346,3,3,3s3-1.346,3-3S15.654,47,14,47z M14,51c-0.552,0-1-0.448-1-1s0.448-1,1-1  s1,0.448,1,1S14.552,51,14,51z"/><path d="M17.599,15.8l-1.201-1.6C9.79,19.164,6,26.745,6,35c0,0.348,0.007,0.693,0.021,1.038l1.998-0.076  C8.007,35.643,8,35.322,8,35C8,27.38,11.499,20.382,17.599,15.8z"/><path d="M26.239,58.305l-0.479,1.941C27.79,60.746,29.889,61,32,61s4.21-0.254,6.239-0.754l-0.479-1.941  C34.015,59.227,29.985,59.227,26.239,58.305z"/><path d="M57.979,36.038C57.993,35.693,58,35.348,58,35c0-8.255-3.79-15.836-10.397-20.8l-1.201,1.6C52.501,20.382,56,27.38,56,35  c0,0.322-0.007,0.643-0.019,0.962L57.979,36.038z"/></svg>