<svg width="16" height="16" viewBox="0 0 16 16" fill="none" xmlns="http://www.w3.org/2000/svg">
    <g clip-path="url(#oaz84d2gfa)">
        <path d="M13.2 5.4a3.9 3.9 0 0 1-3.9 3.9m3.9-3.9a3.9 3.9 0 0 0-3.9-3.9m3.9 3.9H5.4m3.9 3.9a3.9 3.9 0 0 1-3.9-3.9m3.9 3.9a5.655 5.655 0 0 1 0-7.8m0 7.8a5.655 5.655 0 0 0 0-7.8M5.4 5.4a3.9 3.9 0 0 1 3.9-3.9m5.2 10.4H4.1c-.715 0-1.3-.585-1.3-1.3V4.75c0-.715-.585-1.3-1.3-1.3m11.7 9.75a1.3 1.3 0 1 1-2.6 0 1.3 1.3 0 0 1 2.6 0zm-5.85 0a1.3 1.3 0 1 1-2.6 0 1.3 1.3 0 0 1 2.6 0z" stroke="#020617" stroke-width="1.33" stroke-linecap="round" stroke-linejoin="round"/>
    </g>
    <defs>
        <clipPath id="oaz84d2gfa">
            <path fill="#fff" d="M0 0h16v16H0z"/>
        </clipPath>
    </defs>
</svg>
