<?xml version="1.0" ?><svg height="32" id="icon" viewBox="0 0 32 32" width="32" xmlns="http://www.w3.org/2000/svg"><defs><style>
      .cls-1 {
        fill: none;
      }
    </style></defs><title/><path d="M17,8V6H13V2H11V6H8V2H6V6H2V8H6v3H2v2H6v4H8V13h3v4h2V13h4V11H13V8Zm-6,3H8V8h3Z"/><path d="M30,21V19H26V15H24v4H21V15H19v4H15v2h4v3H15v2h4v4h2V26h3v4h2V26h4V24H26V21Zm-6,3H21V21h3Z"/><rect class="cls-1" data-name="&lt;Transparent Rectangle&gt;" height="32" id="_Transparent_Rectangle_" width="32"/></svg>