<?xml version="1.0" ?><svg viewBox="0 0 96 96" xmlns="http://www.w3.org/2000/svg"><title/><g data-name="number system" id="number_system"><g><path d="M18.88922,27.08643a3.759,3.759,0,0,0-3.37939-.52441L5.49908,29.91211a2.25034,2.25034,0,1,0,1.42676,4.26855l9.01172-3.01611V78a2.25,2.25,0,0,0,4.5,0V30.123A3.76107,3.76107,0,0,0,18.88922,27.08643Z"/><path d="M92.00983,69.42773c-.38379-4.03125-3.55957-6.88184-8.6748-7.957l7.28027-8.56348a2.851,2.851,0,0,0-2.17676-4.69043H73.421a2.25,2.25,0,0,0,0,4.5H84.87311l-6.92285,8.1416a2.84325,2.84325,0,0,0,1.97168,4.6875c2.17676.14063,7.27734.84082,7.6084,4.30957a5.44965,5.44965,0,0,1-3.96973,5.59863c-3.1084.9082-6.46875-.25781-9.9873-3.44824A2.2482,2.2482,0,1,0,70.54987,75.334c4.1748,3.79395,7.94531,4.91309,10.94531,4.91309a11.96425,11.96425,0,0,0,3.31934-.46875A10.01,10.01,0,0,0,92.00983,69.42773Z"/><path d="M58.56451,75.75H39.66656L49.084,67.7666C54.43365,63.542,57.879,59.25,59.32916,55.00781a12.65757,12.65757,0,0,0-.84961-9.96533,12.46191,12.46191,0,0,0-7.64062-6.2124C41.48444,36.271,35.41119,42.60791,33.5025,46.3125a2.24978,2.24978,0,1,0,3.999,2.0625c.15674-.30615,3.94922-7.45459,12.14941-5.20459a7.93329,7.93329,0,0,1,4.8501,3.97852,8.13238,8.13238,0,0,1,.56836,6.40576c-1.16309,3.40723-4.11621,7.002-8.83447,10.72852L33.32819,75.22266A2.851,2.851,0,0,0,35.16949,80.25h23.395a2.25,2.25,0,0,0,0-4.5Z"/></g></g></svg>