<?xml version="1.0" ?><svg viewBox="0 0 32 32" xmlns="http://www.w3.org/2000/svg"><g id="Ikon"><path d="M26,3H6A3.0033,3.0033,0,0,0,3,6V26a3.0033,3.0033,0,0,0,3,3H26a3.0033,3.0033,0,0,0,3-3V6A3.0033,3.0033,0,0,0,26,3ZM15,11v4H11V11Zm6,0v4H17V11Zm6,0v4H23V11ZM9,15H5V11H9ZM5,17H9v4H5Zm6,0h4v4H11Zm4,6v4H11V23Zm2,0h4v4H17Zm0-2V17h4v4Zm6-4h4v4H23ZM6,5H26a1.0006,1.0006,0,0,1,1,1V9H5V6A1.0009,1.0009,0,0,1,6,5ZM5,26V23H9v4H6A1.0009,1.0009,0,0,1,5,26Zm21,1H23V23h4v3A1.0006,1.0006,0,0,1,26,27Z"/></g></svg>