<?xml version="1.0" ?><svg height="24" viewBox="0 0 24 24" width="24" xmlns="http://www.w3.org/2000/svg"><path d="M2.26363638,2 L21.7363636,2 C22.1581083,2 22.5,2.44771526 22.5,3.00000001 L22.5,21 C22.5,21.5522847 22.1581083,22 21.7363636,22 L2.26363638,22 C1.84189165,22 1.5,21.5522847 1.5,21 L1.5,3.00000001 C1.5,2.44771526 1.84189165,2 2.26363638,2 Z M1.5,8.66 L22.5,8.66 L1.5,8.66 Z M7.5,15.33 L1.5,15.33 L7.5,15.33 L7.5,2 L7.5,15.33 Z M7.5,15.33 L22.5,15.33 L7.5,15.33 L7.5,22 L7.5,15.33 L7.5,15.33 Z" fill="none" stroke="#000" stroke-linecap="round" stroke-linejoin="round" stroke-width="1.3"/></svg>