<?xml version="1.0" ?><!DOCTYPE svg  PUBLIC '-//W3C//DTD SVG 1.1//EN'  'http://www.w3.org/Graphics/SVG/1.1/DTD/svg11.dtd'><svg height="24" version="1.1" viewBox="0 0 24 24" width="24" xmlns="http://www.w3.org/2000/svg" xmlns:xlink="http://www.w3.org/1999/xlink"><path d="M11.5,3C16.75,3 21,7.25 21,12.5C21,17.75 16.75,22 11.5,22C6.25,22 2,17.75 2,12.5C2,7.25 6.25,3 11.5,3M11.5,4C6.81,4 3,7.81 3,12.5C3,17.19 6.81,21 11.5,21C16.19,21 20,17.19 20,12.5C20,7.81 16.19,4 11.5,4M11,7H12V12.42L16.7,15.13L16.2,16L11,13V7Z"/></svg>