<svg xmlns="http://www.w3.org/2000/svg" width="14" height="8" viewBox="0 0 14 8" fill="none">
  <path d="M7 6.66675H7.00667M1 3.11103H2.58025M2.58025 3.11103H4.35803M2.58025 3.11103L2.77778 1.33325M2.58025 3.11103L2.38272 4.88881M4.35803 3.11103H5.74074M4.35803 3.11103L4.55556 1.33325M4.35803 3.11103L4.16049 4.88881M1 4.88881H2.38272M2.38272 4.88881H4.16049M2.38272 4.88881L2.18519 6.66659M4.16049 4.88881H5.74074M4.16049 4.88881L3.96296 6.66659M8.33325 3.11103H9.9135M9.9135 3.11103H11.6913M9.9135 3.11103L10.111 1.33325M9.9135 3.11103L9.71597 4.88881M11.6913 3.11103H13.074M11.6913 3.11103L11.8888 1.33325M11.6913 3.11103L11.4937 4.88881M8.33325 4.88881H9.71597M9.71597 4.88881H11.4937M9.71597 4.88881L9.51844 6.66659M11.4937 4.88881H13.074M11.4937 4.88881L11.2962 6.66659" stroke="#020617" stroke-linecap="round" stroke-linejoin="round"/>
</svg>