<svg version="1.1" id="Layer_1" xmlns="http://www.w3.org/2000/svg" xmlns:xlink="http://www.w3.org/1999/xlink" x="0px" y="0px"
	 width="100%" viewBox="0 0 512 512" enable-background="new 0 0 512 512" xml:space="preserve">
<path fill="#FFFFFF" opacity="1.000000" stroke="none" 
	d="
M281.000000,513.000000 
	C187.356064,513.000000 94.212128,513.000000 1.034094,513.000000 
	C1.034094,342.397705 1.034094,171.795395 1.034094,1.096548 
	C171.560623,1.096548 342.121307,1.096548 512.841003,1.096548 
	C512.841003,171.666550 512.841003,342.333252 512.841003,513.000000 
	C435.795380,513.000000 358.647675,513.000000 281.000000,513.000000 
M433.250458,373.402069 
	C450.843170,343.022797 468.574463,312.722595 485.974548,282.233398 
	C495.789764,265.034668 495.375977,247.667282 485.358307,230.533508 
	C479.815704,221.053741 474.409363,211.494415 468.888611,202.001755 
	C457.018219,181.591095 445.113556,161.200378 433.048279,140.122360 
	C420.082245,117.634354 407.086548,95.163368 394.159637,72.652908 
	C383.855103,54.709015 368.366028,46.007378 347.727936,46.119160 
	C329.736786,46.216614 311.744598,46.114716 293.752991,46.156937 
	C289.276428,46.167439 284.800415,46.394360 279.422455,46.268799 
	C241.273727,46.230507 203.124207,46.030170 164.976639,46.222240 
	C145.887878,46.318348 131.019379,54.491264 121.312866,71.262810 
	C109.148544,92.281075 96.997437,113.307098 84.897690,134.362564 
	C78.859703,144.869598 72.948647,155.449570 66.411407,166.367889 
	C53.916309,187.982773 41.358727,209.561829 28.946093,231.223953 
	C19.197672,248.236603 19.192381,265.394623 28.790012,282.497986 
	C32.781052,289.610199 36.872749,296.666840 40.988773,303.707794 
	C49.628593,318.487305 58.314819,333.239685 67.031517,348.711487 
	C84.303383,378.637207 101.935463,408.362701 118.721054,438.558716 
	C129.994888,458.839539 146.532547,468.230835 169.552032,467.941101 
	C200.161560,467.555817 230.779617,467.866486 261.393921,467.829132 
	C267.704742,467.821442 274.015289,467.598145 281.044220,467.776672 
	C304.032349,467.802979 327.023712,468.076721 350.007507,467.774353 
	C367.218933,467.547943 381.934570,460.874084 391.031769,446.049988 
	C405.556519,422.381470 418.945679,398.016052 433.250458,373.402069 
z"/>
<path fill="#4285F4" opacity="1.000000" stroke="none" 
	d="
M66.981995,348.003204 
	C58.314819,333.239685 49.628593,318.487305 40.988773,303.707794 
	C36.872749,296.666840 32.781052,289.610199 28.790012,282.497986 
	C19.192381,265.394623 19.197672,248.236603 28.946093,231.223953 
	C41.358727,209.561829 53.916309,187.982773 67.165817,166.177917 
	C75.409637,166.000092 82.899048,166.016113 90.388466,166.023758 
	C129.997406,166.064209 169.606339,166.102570 209.113251,166.475143 
	C193.615906,192.515045 178.824341,218.613159 162.526627,243.734161 
	C156.050781,253.715881 156.307144,260.567902 162.640533,270.422882 
	C178.917786,295.750854 193.783142,321.986176 208.733353,347.910736 
	C161.163254,347.976166 114.072624,347.989685 66.981995,348.003204 
z"/>
<path fill="#4285F4" opacity="1.000000" stroke="none" 
	d="
M280.324127,46.521801 
	C284.800415,46.394360 289.276428,46.167439 293.752991,46.156937 
	C311.744598,46.114716 329.736786,46.216614 347.727936,46.119160 
	C368.366028,46.007378 383.855103,54.709015 394.159637,72.652908 
	C407.086548,95.163368 420.082245,117.634354 432.819946,140.635315 
	C428.234589,147.804703 423.762787,154.389221 419.540955,161.130295 
	C403.319275,187.031754 387.216522,213.007721 370.976654,238.897720 
	C367.312225,244.739639 363.274353,250.347275 359.148621,255.806763 
	C342.352295,228.033340 325.670959,200.600983 309.410675,172.921249 
	C306.434753,167.855423 303.377014,165.914398 297.375854,165.976624 
	C268.244080,166.278519 239.106308,166.001190 210.015472,165.581223 
	C228.604202,134.333221 247.198883,103.463272 265.659058,72.513100 
	C270.753296,63.972141 275.446777,55.192127 280.324127,46.521801 
z"/>
<path fill="#4285F4" opacity="1.000000" stroke="none" 
	d="
M432.815002,373.945312 
	C418.945679,398.016052 405.556519,422.381470 391.031769,446.049988 
	C381.934570,460.874084 367.218933,467.547943 350.007507,467.774353 
	C327.023712,468.076721 304.032349,467.802979 280.579651,467.229797 
	C279.430298,465.172394 278.886993,463.577026 278.039673,462.163940 
	C262.677521,436.544586 247.241165,410.969696 231.904068,385.335358 
	C224.504105,372.967102 217.276382,360.495789 210.435242,347.985107 
	C240.839279,347.884186 270.778900,347.821259 300.717987,347.924072 
	C303.932465,347.935120 305.837982,347.054504 307.468658,344.171783 
	C312.212250,335.786133 317.276489,327.580933 322.260315,319.332306 
	C334.630219,298.859131 347.025238,278.401123 359.728607,258.016785 
	C362.188416,261.432190 364.376404,264.738953 366.463806,268.108002 
	C382.290955,293.652924 398.043243,319.244446 413.939911,344.746002 
	C420.069946,354.579865 426.514038,364.217987 432.815002,373.945312 
z"/>
<path fill="#1967D2" opacity="1.000000" stroke="none" 
	d="
M279.873291,46.395302 
	C275.446777,55.192127 270.753296,63.972141 265.659058,72.513100 
	C247.198883,103.463272 228.604202,134.333221 209.835724,165.666504 
	C209.611160,166.099564 209.215271,166.141647 209.215271,166.141647 
	C169.606339,166.102570 129.997406,166.064209 90.388466,166.023758 
	C82.899048,166.016113 75.409637,166.000092 67.450203,165.992249 
	C72.948647,155.449570 78.859703,144.869598 84.897690,134.362564 
	C96.997437,113.307098 109.148544,92.281075 121.312866,71.262810 
	C131.019379,54.491264 145.887878,46.318348 164.976639,46.222240 
	C203.124207,46.030170 241.273727,46.230507 279.873291,46.395302 
z"/>
<path fill="#1967D2" opacity="1.000000" stroke="none" 
	d="
M209.970673,348.071136 
	C217.276382,360.495789 224.504105,372.967102 231.904068,385.335358 
	C247.241165,410.969696 262.677521,436.544586 278.039673,462.163940 
	C278.886993,463.577026 279.430298,465.172394 280.220520,467.078552 
	C274.015289,467.598145 267.704742,467.821442 261.393921,467.829132 
	C230.779617,467.866486 200.161560,467.555817 169.552032,467.941101 
	C146.532547,468.230835 129.994888,458.839539 118.721054,438.558716 
	C101.935463,408.362701 84.303383,378.637207 67.006760,348.357361 
	C114.072624,347.989685 161.163254,347.976166 208.931824,347.931671 
	C209.609741,347.900726 209.970673,348.071136 209.970673,348.071136 
z"/>
<path fill="#1A67D2" opacity="1.000000" stroke="none" 
	d="
M433.032745,373.673706 
	C426.514038,364.217987 420.069946,354.579865 413.939911,344.746002 
	C398.043243,319.244446 382.290955,293.652924 366.463806,268.108002 
	C364.376404,264.738953 362.188416,261.432190 359.727142,257.704620 
	C359.407654,256.896057 359.408020,256.479401 359.408386,256.062775 
	C363.274353,250.347275 367.312225,244.739639 370.976654,238.897720 
	C387.216522,213.007721 403.319275,187.031754 419.540955,161.130295 
	C423.762787,154.389221 428.234589,147.804703 432.907227,140.974884 
	C445.113556,161.200378 457.018219,181.591095 468.888611,202.001755 
	C474.409363,211.494415 479.815704,221.053741 485.358307,230.533508 
	C495.375977,247.667282 495.789764,265.034668 485.974548,282.233398 
	C468.574463,312.722595 450.843170,343.022797 433.032745,373.673706 
z"/>
<path fill="#FEFFFF" opacity="1.000000" stroke="none" 
	d="
M359.148621,255.806763 
	C359.408020,256.479401 359.407654,256.896057 359.408722,257.624847 
	C347.025238,278.401123 334.630219,298.859131 322.260315,319.332306 
	C317.276489,327.580933 312.212250,335.786133 307.468658,344.171783 
	C305.837982,347.054504 303.932465,347.935120 300.717987,347.924072 
	C270.778900,347.821259 240.839279,347.884186 210.435242,347.985107 
	C209.970673,348.071136 209.609741,347.900726 209.411285,347.879791 
	C193.783142,321.986176 178.917786,295.750854 162.640533,270.422882 
	C156.307144,260.567902 156.050781,253.715881 162.526627,243.734161 
	C178.824341,218.613159 193.615906,192.515045 209.113251,166.475143 
	C209.215271,166.141647 209.611160,166.099564 209.790924,166.014282 
	C239.106308,166.001190 268.244080,166.278519 297.375854,165.976624 
	C303.377014,165.914398 306.434753,167.855423 309.410675,172.921249 
	C325.670959,200.600983 342.352295,228.033340 359.148621,255.806763 
z"/>
</svg>