<svg version="1.1" id="Layer_1" xmlns="http://www.w3.org/2000/svg" xmlns:xlink="http://www.w3.org/1999/xlink" x="0px" y="0px"
	 width="100%" viewBox="0 0 200 200" enable-background="new 0 0 200 200" xml:space="preserve">
<path fill="#FDFFFF" opacity="1.000000" stroke="none" 
	d="
M111.000000,201.000000 
	C74.022827,201.000000 37.545647,201.000000 1.034236,201.000000 
	C1.034236,134.397858 1.034236,67.795700 1.034236,1.096767 
	C67.560341,1.096767 134.120865,1.096767 200.840698,1.096767 
	C200.840698,67.666367 200.840698,134.333145 200.840698,201.000000 
	C171.129318,201.000000 141.314651,201.000000 111.000000,201.000000 
M24.907078,96.490166 
	C24.907078,96.490166 25.016737,96.927124 24.771402,97.724632 
	C24.852581,98.269867 24.933762,98.815094 24.812555,99.408684 
	C24.812555,99.408684 24.699762,99.372658 24.699762,99.372658 
	C24.699762,99.372658 24.984129,99.262917 25.226938,99.805092 
	C25.399382,99.902443 25.571823,99.999786 26.135866,100.747307 
	C26.975916,101.130676 27.996529,102.035904 28.628304,101.817322 
	C35.537628,99.426727 42.386215,96.860596 49.764648,94.106857 
	C49.861488,93.945450 49.958332,93.784042 50.408165,93.505943 
	C50.624691,93.373795 50.803127,93.202049 51.706470,93.050064 
	C59.137825,90.328995 66.569183,87.607925 74.715446,84.844833 
	C77.829369,83.553841 80.943283,82.262848 84.831459,81.155746 
	C86.531509,80.627480 88.622459,80.553574 89.860558,79.488373 
	C94.096268,75.844185 98.032410,71.851807 102.548691,67.691986 
	C102.653419,67.347427 102.758141,67.002869 102.891106,66.295784 
	C102.891106,66.295784 103.138718,66.029495 103.833389,65.876526 
	C104.281509,63.264191 104.729630,60.651855 105.006073,57.492229 
	C104.950043,57.114761 104.894020,56.737297 104.829536,55.802845 
	C104.589813,55.536053 104.350090,55.269260 103.892059,54.680405 
	C103.892059,54.680405 103.836159,54.295353 103.943077,53.448250 
	C103.466026,51.824329 103.136963,50.137608 102.480232,48.589931 
	C101.223785,45.628929 99.653328,42.795200 98.519905,39.792866 
	C98.284752,39.169987 99.384247,38.043255 100.081718,37.487015 
	C100.232285,37.716179 100.430840,37.890762 100.894066,38.490112 
	C100.926987,38.662342 100.959915,38.834568 101.000999,39.608604 
	C101.330803,40.073959 101.660614,40.539314 101.999619,40.999874 
	C101.999619,40.999874 101.992920,41.009293 101.979034,41.742313 
	C102.587578,42.886990 103.196114,44.031666 103.951447,45.705906 
	C104.261597,46.138935 104.571739,46.571964 105.063454,47.368984 
	C105.063454,47.368984 105.116409,47.772285 105.152962,48.279675 
	C105.375710,48.523491 105.598450,48.767311 106.039734,49.357639 
	C106.039734,49.357639 106.150299,49.752094 106.061386,50.540237 
	C107.538391,54.574108 107.375092,59.685875 113.515137,61.280842 
	C114.344742,62.185005 115.174347,63.089169 116.075005,64.700699 
	C117.349197,65.483521 118.623390,66.266342 120.383530,67.203171 
	C120.592072,67.463799 120.800606,67.724434 121.080948,68.696823 
	C123.056252,69.796814 125.031563,70.896805 127.567871,72.276093 
	C128.377426,72.936806 129.186996,73.597511 130.274979,74.617126 
	C130.513275,74.832954 130.793121,74.935493 131.555359,74.985947 
	C131.555359,74.985947 131.977341,75.127464 132.158279,75.833679 
	C135.166168,76.499207 138.174042,77.164734 141.946106,77.850342 
	C142.961136,77.874008 143.976151,77.897675 145.645813,78.016075 
	C146.084579,78.055237 146.523331,78.094398 147.439209,78.696121 
	C149.622131,79.102058 151.805069,79.507988 154.789871,80.006851 
	C157.171570,80.367722 159.553284,80.728600 161.975006,81.055779 
	C161.975006,81.055779 161.934921,81.026672 162.146408,81.497894 
	C162.428146,81.687111 162.709900,81.876328 163.507034,82.629730 
	C166.003296,83.077530 168.499542,83.525322 171.724854,83.993690 
	C174.774384,83.731194 175.913300,82.269096 173.431244,80.029655 
	C167.405136,74.592583 161.137177,69.423561 154.398361,63.771049 
	C149.931702,60.507481 145.465042,57.243908 140.491272,53.558296 
	C136.668961,50.684296 132.846664,47.810295 128.737106,44.470474 
	C128.235443,44.283356 127.733772,44.096237 126.941948,43.448906 
	C126.647911,43.242912 126.353882,43.036919 125.744522,42.298687 
	C124.869110,41.818245 123.993698,41.337803 122.772369,40.412296 
	C122.269211,40.172760 121.766060,39.933224 120.893150,39.144062 
	C117.279724,36.381279 113.666298,33.618492 109.896378,30.215277 
	C108.964630,29.775911 108.032875,29.336546 106.935440,28.299648 
	C106.315849,27.840981 105.696259,27.382311 104.900726,26.260107 
	C102.913849,25.755119 100.926979,25.250132 98.242210,24.833456 
	C97.547333,24.922806 96.852448,25.012154 95.536819,25.467424 
	C94.708244,28.774328 95.356987,31.473068 98.826668,33.561840 
	C98.896042,33.717525 98.965408,33.873211 98.960388,34.506546 
	C98.960388,34.506546 98.989326,34.989544 98.383842,35.259090 
	C97.265900,34.374123 95.961075,33.643700 95.072449,32.569099 
	C93.625397,30.819214 92.450317,28.844435 90.883408,26.729742 
	C90.883408,26.729742 90.761391,26.387810 90.813721,25.623260 
	C87.721008,22.652943 85.305695,24.473831 82.535370,26.983032 
	C82.535370,26.983032 82.051819,27.026819 81.280983,26.967722 
	C79.537781,28.334972 77.794586,29.702223 76.003242,31.003532 
	C76.003242,31.003532 76.071663,31.048075 75.576157,31.160837 
	C75.382660,31.426323 75.189163,31.691809 75.004059,32.004749 
	C75.004059,32.004749 74.956970,31.994520 74.503616,32.144928 
	C74.216499,32.325459 74.041122,32.582302 73.989243,32.986137 
	C73.989243,32.986137 73.921082,32.964020 73.196121,32.960964 
	C70.612206,36.104843 68.028297,39.248718 65.207977,42.194508 
	C65.207977,42.194508 65.402428,42.433922 64.647049,42.244122 
	C64.154053,43.217087 63.661057,44.190052 63.070953,44.982208 
	C63.070953,44.982208 63.183369,45.157642 62.465733,45.144211 
	C61.972485,46.087765 61.479233,47.031319 60.857258,48.446083 
	C60.702671,48.759354 60.456120,48.959114 59.616982,49.157879 
	C59.367924,49.387627 59.118870,49.617378 58.217758,50.047726 
	C57.801220,51.014172 57.384682,51.980614 57.004593,52.990776 
	C57.004593,52.990776 56.949253,52.977570 56.499413,53.138550 
	C56.228306,53.318005 56.013088,53.549435 55.341602,54.170605 
	C54.943893,54.853294 54.546181,55.535980 54.085869,56.083946 
	C54.085869,56.083946 54.203411,56.174797 53.495701,56.126728 
	C52.940296,57.034809 52.384892,57.942890 51.447983,59.122379 
	C51.205715,59.327518 51.014256,59.572388 50.204292,60.017471 
	C48.118340,62.981991 46.032387,65.946510 43.987370,68.980354 
	C43.987370,68.980354 43.909416,68.960228 43.473671,69.177094 
	C43.202579,69.387840 43.043690,69.663307 42.850445,70.459274 
	C42.697338,70.763062 42.457348,70.962090 41.428635,71.095062 
	C41.038361,71.813789 40.648090,72.532516 40.125637,73.248154 
	C40.125637,73.248154 40.244869,73.191017 39.647945,73.361229 
	C39.507763,73.732697 39.367580,74.104156 39.096592,74.963844 
	C38.756962,75.319893 38.417328,75.675941 37.566639,76.251633 
	C37.412952,76.577095 37.259266,76.902550 36.895557,77.759125 
	C36.504223,78.171577 36.112888,78.584030 35.364456,79.179146 
	C35.146824,79.355179 35.009281,79.580200 34.731804,80.344788 
	C34.444221,80.548332 34.156643,80.751884 33.453743,81.145119 
	C33.194553,81.332603 33.030495,81.582535 32.797897,82.368935 
	C32.551090,82.585411 32.304283,82.801895 31.553234,83.237923 
	C31.398312,83.558807 31.243387,83.879700 30.835745,84.816422 
	C29.215620,87.543571 27.595495,90.270729 25.505772,93.350334 
	C25.404400,93.910019 25.303030,94.469711 24.971567,95.534477 
	C25.010138,95.715408 25.048708,95.896347 24.907078,96.490166 
M175.156448,105.582565 
	C175.156448,105.582565 175.170013,105.139198 175.632172,104.746986 
	C175.868576,104.189354 176.104996,103.631729 176.985779,102.881119 
	C177.104004,101.255638 177.222229,99.630165 177.256088,97.251564 
	C177.286728,96.495705 177.317383,95.739845 177.764252,94.406471 
	C177.429581,92.726791 177.457596,89.783386 176.703033,89.566849 
	C170.528397,87.794838 164.207916,86.531105 157.284744,85.091980 
	C156.860184,85.017326 156.435608,84.942673 155.549469,84.385239 
	C154.678055,84.274582 153.806641,84.163925 152.477158,84.023964 
	C152.477158,84.023964 152.038116,83.890129 151.919342,83.255386 
	C150.931198,83.199730 149.943039,83.144073 148.303284,83.075485 
	C147.875778,83.001320 147.448257,82.927155 146.582108,82.386528 
	C145.959763,82.328140 145.337418,82.269745 144.044510,82.185722 
	C143.387085,82.059006 142.729645,81.932281 141.890060,81.144730 
	C140.262360,81.034340 138.634659,80.923943 136.253967,80.862068 
	C135.499893,80.863861 134.745819,80.865654 133.468597,80.377060 
	C129.525070,79.429474 127.163368,80.688889 126.815460,85.460861 
	C126.628929,85.742989 126.372429,85.928261 125.349533,86.061745 
	C124.576492,87.063309 123.803459,88.064880 122.802216,89.713943 
	C121.146683,95.187309 119.491150,100.660675 117.652061,106.957657 
	C117.732086,108.637634 117.812111,110.317604 117.753319,112.403297 
	C117.753319,112.403297 117.833977,112.825310 117.492256,113.587975 
	C117.450546,119.882317 117.310890,126.177849 117.388069,132.470734 
	C117.536133,144.541641 117.807274,156.611053 118.037445,169.284760 
	C118.244820,169.616119 118.452187,169.947464 118.742455,170.853180 
	C118.946854,171.176865 119.151253,171.500549 119.559357,172.437302 
	C122.138557,172.677170 125.107384,173.826553 127.199821,172.930161 
	C129.906311,171.770752 132.388992,169.314392 134.142181,166.832993 
	C143.720215,153.276520 153.079865,139.564926 162.439484,125.855400 
	C166.163010,120.401367 169.693695,114.815697 173.718033,108.988899 
	C173.831360,108.678825 173.944702,108.368752 174.513229,107.671051 
	C174.665131,107.108879 174.817017,106.546715 175.156448,105.582565 
M50.367092,141.530670 
	C51.174686,141.770248 51.982281,142.009811 52.938602,142.922867 
	C55.012180,144.614380 57.085758,146.305893 59.370884,148.618637 
	C61.897045,150.437576 64.423210,152.256531 67.272552,154.649826 
	C68.837555,155.765305 70.402557,156.880783 72.283180,158.586639 
	C74.497192,160.096268 76.711205,161.605911 79.211731,163.612152 
	C79.812019,164.066284 80.412308,164.520416 81.362411,165.521317 
	C83.245346,166.964844 85.128288,168.408371 87.544777,170.243423 
	C88.996758,171.176956 90.448738,172.110489 92.282677,173.650085 
	C97.158363,177.189072 102.552246,178.427353 108.075394,175.857315 
	C113.559731,173.305359 113.292488,168.002701 113.037277,162.952637 
	C112.970718,161.635452 112.929710,160.316986 112.968742,158.191406 
	C112.713539,156.109146 112.458336,154.026901 112.231621,151.026917 
	C112.210014,146.663544 112.188408,142.300171 112.194618,137.335052 
	C112.242722,136.935547 112.290825,136.536026 112.761909,135.408478 
	C112.474968,128.271912 112.188019,121.135345 111.983292,113.177635 
	C113.865761,108.078247 112.916214,103.382744 109.706810,98.351791 
	C107.848457,97.132309 105.990112,95.912827 104.142204,93.974037 
	C103.053246,92.627701 102.221672,90.862778 100.830750,90.007545 
	C94.829666,86.317688 88.363464,85.948929 81.781006,88.263542 
	C72.892868,91.388916 64.037247,94.607925 55.188446,97.843567 
	C50.726189,99.475243 46.309715,101.232101 41.213413,103.251907 
	C38.800549,103.893501 36.387684,104.535095 33.253136,105.117790 
	C32.479469,105.340279 31.575537,105.376793 30.951992,105.813583 
	C23.555361,110.994896 24.488102,120.722572 33.018795,127.980942 
	C33.018795,127.980942 33.072575,127.966339 33.331882,128.580154 
	C35.885197,130.387756 38.438507,132.195374 41.578175,134.249191 
	C42.358570,134.549484 43.138966,134.849777 44.216049,135.697800 
	C45.428268,136.821243 46.640488,137.944687 48.161327,139.573959 
	C48.769150,140.053375 49.376972,140.532791 50.367092,141.530670 
z"/>
<path fill="#FBA0FE" opacity="1.000000" stroke="none" 
	d="
M33.974815,105.176682 
	C36.387684,104.535095 38.800549,103.893501 41.977951,103.117371 
	C44.346321,102.750961 45.989483,102.668831 47.546783,102.259811 
	C52.713951,100.902664 57.850216,99.427856 63.340454,98.034653 
	C67.742477,100.137718 65.093903,101.544540 63.121399,102.794708 
	C61.556206,103.786713 59.795944,104.470940 57.368248,105.661659 
	C59.863636,107.265182 61.478806,108.303085 63.679234,109.717072 
	C60.053024,111.056076 56.704964,111.373657 54.770226,113.193665 
	C50.435394,117.271423 46.729610,122.035851 42.936634,126.659271 
	C41.967594,127.840469 41.628807,129.538696 40.999275,131.000641 
	C40.998093,131.001892 40.986996,131.012863 40.629044,130.974106 
	C37.871590,129.945679 35.472080,128.956009 33.072575,127.966339 
	C33.072575,127.966339 33.018795,127.980942 33.012016,127.587433 
	C31.926998,125.190186 31.000088,123.085007 29.738962,121.203880 
	C27.124365,117.303879 27.233730,112.810036 30.295496,109.231049 
	C31.481350,107.844872 32.746037,106.526138 33.974815,105.176682 
z"/>
<path fill="#F2A4FF" opacity="1.000000" stroke="none" 
	d="
M47.852707,139.068146 
	C46.640488,137.944687 45.428268,136.821243 44.186150,135.144012 
	C44.437325,134.059952 44.718395,133.529709 45.266922,132.785736 
	C47.332851,130.063644 48.714005,127.051224 51.013180,125.147560 
	C56.478184,120.622658 62.288425,116.493805 68.126038,112.445564 
	C74.316811,108.152397 80.700340,104.137199 86.995453,100.371376 
	C86.193977,102.118698 85.401184,103.497856 84.598450,104.871201 
	C83.403130,106.916183 82.200806,108.957069 80.853165,111.302567 
	C76.392090,115.108917 71.998528,118.519539 67.809219,122.164902 
	C66.288727,123.487976 65.256126,125.371750 63.809399,127.269844 
	C59.170292,130.920471 54.622223,134.215317 52.666092,140.001617 
	C51.888966,140.000229 51.444893,139.999664 50.783356,139.730759 
	C49.661495,139.330994 48.757099,139.199570 47.852707,139.068146 
z"/>
<path fill="#F0ACFC" opacity="1.000000" stroke="none" 
	d="
M81.001465,110.999695 
	C82.200806,108.957069 83.403130,106.916183 84.598450,104.871201 
	C85.401184,103.497856 86.193977,102.118698 87.315247,100.210320 
	C88.470833,98.489952 89.302383,97.301399 90.621994,95.415260 
	C84.652290,95.057205 79.710831,95.236511 74.970894,94.344734 
	C70.087532,93.425949 66.621132,95.603333 62.998329,97.998169 
	C57.850216,99.427856 52.713951,100.902664 47.546783,102.259811 
	C45.989483,102.668831 44.346321,102.750961 42.307518,102.957596 
	C46.309715,101.232101 50.726189,99.475243 55.188446,97.843567 
	C64.037247,94.607925 72.892868,91.388916 81.781006,88.263542 
	C88.363464,85.948929 94.829666,86.317688 100.830750,90.007545 
	C102.221672,90.862778 103.053246,92.627701 104.066254,94.734093 
	C104.327789,97.996971 104.665268,100.499786 105.002495,103.381737 
	C104.163544,104.735107 106.751022,107.828102 102.993484,106.617996 
	C101.899338,103.586929 102.219803,98.883018 97.569893,100.534363 
	C93.951500,101.819374 90.919235,104.736946 87.599670,106.887589 
	C85.425011,108.296478 83.202530,109.631561 81.001465,110.999695 
M78.618332,92.442886 
	C82.312965,92.256241 86.022079,92.197258 89.690674,91.781097 
	C90.475700,91.692047 91.113838,90.308014 91.819649,89.520561 
	C90.770615,89.094727 89.572243,88.108856 88.698868,88.341743 
	C85.249977,89.261398 81.903030,90.563393 78.618332,92.442886 
z"/>
<path fill="#2AE3C5" opacity="1.000000" stroke="none" 
	d="
M177.348022,94.983986 
	C177.317383,95.739845 177.286728,96.495705 177.174240,97.955238 
	C176.785156,99.511375 176.477905,100.363831 176.108017,100.764114 
	C176.022141,98.209442 175.998917,96.106934 175.747635,93.723335 
	C172.481674,93.325676 169.419373,92.913635 166.411591,93.161934 
	C161.922684,93.532509 157.472198,94.368454 152.562088,95.003662 
	C147.483261,95.968826 142.793030,96.734116 138.228714,97.965996 
	C134.269043,99.034683 130.517700,100.880180 126.554237,101.928505 
	C122.226311,103.073204 119.248238,104.916077 120.004807,110.375626 
	C119.997070,111.498169 119.992058,112.246529 119.745773,112.996353 
	C119.504501,112.997818 119.021347,112.999313 118.897507,112.768494 
	C118.479820,112.357635 118.185982,112.177605 117.892136,111.997581 
	C117.812111,110.317604 117.732086,108.637634 117.795502,106.159821 
	C119.286423,102.123711 120.501755,98.820129 122.052437,95.682266 
	C122.601357,94.571495 123.967896,93.864769 125.249634,93.183960 
	C127.137550,94.055786 128.803268,95.398575 130.323959,95.250633 
	C134.837326,94.811577 139.406021,94.168526 143.744598,92.894943 
	C149.623016,91.169334 155.307907,88.784416 161.410339,86.719330 
	C162.175797,86.878105 162.606720,86.999870 163.169525,87.319702 
	C163.840790,87.442757 164.380173,87.367744 165.286713,87.299522 
	C170.238129,88.820335 176.460297,87.839638 177.348022,94.983986 
z"/>
<path fill="#D0B5FE" opacity="1.000000" stroke="none" 
	d="
M66.949371,154.075470 
	C64.423210,152.256531 61.897045,150.437576 59.616409,148.314163 
	C61.241085,148.339798 62.620239,148.669907 64.162476,149.312393 
	C65.181503,149.935669 66.049805,150.542633 66.891350,150.507584 
	C71.144402,150.330399 74.262245,148.328278 77.611961,145.492493 
	C84.128128,139.976074 91.511238,135.469254 98.628784,130.683350 
	C102.652153,127.977989 106.861504,125.549225 110.992447,123.445892 
	C110.991455,126.593155 110.985107,129.290405 110.613556,131.985657 
	C108.826996,131.896729 107.064690,131.229309 106.045784,131.827698 
	C102.448547,133.940384 99.183464,136.609116 95.651741,138.844727 
	C86.477577,144.652039 78.503471,152.748672 66.949371,154.075470 
z"/>
<path fill="#4BD867" opacity="1.000000" stroke="none" 
	d="
M50.055183,93.622635 
	C49.958332,93.784042 49.861488,93.945450 49.422852,93.899277 
	C49.049515,93.469688 49.017975,93.247673 48.999840,92.643921 
	C53.566078,89.050911 57.997086,85.644913 62.713123,82.694511 
	C66.044304,80.610489 69.833328,79.274307 73.292732,77.376053 
	C81.899765,72.653168 90.435204,67.799789 99.382408,62.999588 
	C100.531357,63.010464 101.297279,63.020557 102.011177,63.378937 
	C98.309082,67.828247 94.659019,71.929260 90.849487,75.707809 
	C88.079559,72.631294 85.682289,71.059769 83.862961,76.163185 
	C83.578514,76.961082 82.244957,77.913177 81.410797,77.899841 
	C76.559074,77.822273 74.655922,80.638794 74.000542,84.886864 
	C66.569183,87.607925 59.137825,90.328995 51.220608,92.871086 
	C50.508224,93.002289 50.281704,93.312462 50.055183,93.622635 
z"/>
<path fill="#C7B6FE" opacity="1.000000" stroke="none" 
	d="
M67.110962,154.362640 
	C78.503471,152.748672 86.477577,144.652039 95.651741,138.844727 
	C99.183464,136.609116 102.448547,133.940384 106.045784,131.827698 
	C107.064690,131.229309 108.826996,131.896729 110.621185,132.387665 
	C110.994576,133.862778 110.995148,134.933823 110.995216,136.334747 
	C110.994064,137.104248 110.993431,137.543884 110.991074,138.235596 
	C110.986855,138.655716 110.984352,138.823761 110.568382,138.993530 
	C104.341751,138.349518 101.381310,143.444901 96.950714,145.587448 
	C88.580208,149.635254 80.290718,153.850571 71.967552,157.996262 
	C70.402557,156.880783 68.837555,155.765305 67.110962,154.362640 
z"/>
<path fill="#6DC6FD" opacity="1.000000" stroke="none" 
	d="
M129.996552,74.258217 
	C129.186996,73.597511 128.377426,72.936806 127.281075,71.911652 
	C126.994278,71.547218 126.975159,71.097847 126.872467,70.855759 
	C126.485771,70.419563 126.201759,70.225449 125.937088,70.061539 
	C125.956429,70.091751 125.896667,70.131462 125.896240,69.766556 
	C125.443016,68.338036 125.159180,67.155609 124.508926,66.230820 
	C121.248329,61.593521 114.732285,58.976768 115.601860,51.769451 
	C115.626518,51.565086 115.109917,51.339474 114.953598,51.062801 
	C110.618050,43.389305 106.296501,35.707901 102.331299,28.019855 
	C103.402100,28.018196 104.114243,28.024488 104.896393,28.238657 
	C104.966408,28.446533 105.052597,28.876682 105.083107,29.238018 
	C106.097221,30.047491 107.080818,30.495628 108.027466,30.955856 
	C107.990509,30.967949 108.057510,30.924711 108.038284,31.323957 
	C109.048553,37.477173 111.006958,42.603317 117.103989,45.263512 
	C117.475945,46.014011 117.739952,46.506245 118.035919,47.345055 
	C119.044937,48.794628 120.022011,49.897625 121.038170,51.356606 
	C123.474258,56.229324 125.856476,60.754055 128.287384,65.252480 
	C128.584595,65.802483 129.079971,66.536789 129.589951,66.635414 
	C134.780899,67.639397 134.865250,72.620819 136.632019,75.983269 
	C134.832718,75.693115 133.405029,75.410286 131.977341,75.127464 
	C131.977341,75.127464 131.555359,74.985947 131.206360,74.761467 
	C130.612869,74.312973 130.325928,74.220055 129.996552,74.258217 
z"/>
<path fill="#BEB9FE" opacity="1.000000" stroke="none" 
	d="
M72.125366,158.291443 
	C80.290718,153.850571 88.580208,149.635254 96.950714,145.587448 
	C101.381310,143.444901 104.341751,138.349518 110.422028,139.347153 
	C110.458450,141.465378 110.227745,143.231705 109.682678,145.136169 
	C103.074982,148.944458 96.777168,152.606964 90.489960,156.287582 
	C86.626656,158.549240 82.779587,160.838608 78.925224,163.115540 
	C76.711205,161.605911 74.497192,160.096268 72.125366,158.291443 
z"/>
<path fill="#1DCFAF" opacity="1.000000" stroke="none" 
	d="
M60.117599,49.045368 
	C60.456120,48.959114 60.702671,48.759354 61.211597,48.092789 
	C62.105080,46.878876 62.644222,46.018257 63.183365,45.157639 
	C63.183369,45.157642 63.070953,44.982208 63.376030,44.982285 
	C64.127106,44.685734 64.573105,44.389103 64.985336,44.425339 
	C64.734543,45.636978 64.517509,46.515755 64.175926,47.898834 
	C65.331543,47.567528 65.999008,47.527779 66.487053,47.211323 
	C69.368599,45.342899 72.094597,43.203381 75.092064,41.553104 
	C78.582535,39.631401 82.646919,38.593422 85.803116,36.274738 
	C88.215050,34.502815 89.601410,31.334888 91.670349,29.036760 
	C92.539719,31.199093 93.182716,33.112598 93.685562,35.120811 
	C93.652786,35.472282 93.760162,35.729046 93.958450,36.192585 
	C94.049377,36.399361 94.063454,36.850906 94.024178,37.132614 
	C93.963165,37.602394 93.941437,37.790459 93.554474,38.028252 
	C87.114807,39.897011 81.533661,42.534531 77.212471,47.394325 
	C76.591568,48.092617 75.536407,48.399193 74.694557,48.907497 
	C69.124695,52.270569 63.558205,55.639225 57.565224,59.006004 
	C55.713428,58.987026 54.287033,58.968109 52.978035,58.658546 
	C53.464760,57.636864 53.834084,56.905830 54.203407,56.174797 
	C54.203411,56.174797 54.085869,56.083946 54.347771,56.132221 
	C54.877209,56.020294 55.161884,55.900974 55.805325,55.762157 
	C56.424549,55.116478 56.702141,54.531178 56.991722,53.703182 
	C57.003716,53.460487 56.949253,52.977570 56.949253,52.977570 
	C56.949253,52.977570 57.004593,52.990776 57.193405,52.975929 
	C57.382221,52.961086 57.794987,52.926323 58.064201,52.845863 
	C58.511520,52.450428 58.689632,52.135460 58.870674,51.869072 
	C58.873604,51.917656 58.783649,51.880455 59.071030,51.786221 
	C59.583370,51.160057 59.808327,50.628124 60.064449,49.834293 
	C60.102947,49.396717 60.110275,49.221043 60.117599,49.045368 
z"/>
<path fill="#DFADFE" opacity="1.000000" stroke="none" 
	d="
M63.999397,149.000000 
	C62.620239,148.669907 61.241085,148.339798 59.510635,148.003540 
	C57.085758,146.305893 55.012180,144.614380 52.919250,142.517883 
	C52.899895,142.112900 53.012352,141.987671 53.395065,141.997711 
	C55.708542,141.900757 57.785397,142.205353 59.533848,141.584747 
	C61.824841,140.771576 63.856625,139.228119 66.356033,137.963348 
	C69.314758,136.279083 71.851616,134.513535 74.532364,133.003418 
	C82.323906,128.614288 90.173111,124.327530 97.948257,120.343475 
	C95.032997,122.855759 92.182220,125.042664 89.302071,127.190193 
	C85.607025,129.945343 81.656319,132.410095 78.240509,135.473572 
	C74.254379,139.048523 70.726570,143.134521 66.678726,147.025085 
	C65.571495,147.700912 64.785446,148.350464 63.999397,149.000000 
z"/>
<path fill="#9FC5FD" opacity="1.000000" stroke="none" 
	d="
M91.900719,173.044022 
	C90.448738,172.110489 88.996758,171.176956 87.320892,169.706757 
	C89.011215,167.783981 90.737022,165.852768 92.874924,165.113800 
	C99.320793,162.885773 105.612610,160.697723 109.276833,154.267075 
	C109.848900,153.263077 111.207985,152.707550 112.203140,151.944641 
	C112.458336,154.026901 112.713539,156.109146 112.547775,158.609039 
	C111.438049,159.585693 110.400192,160.005569 110.113525,160.724854 
	C106.499115,169.793564 101.115799,176.378937 91.900719,173.044022 
z"/>
<path fill="#59CAFE" opacity="1.000000" stroke="none" 
	d="
M101.972641,28.027805 
	C106.296501,35.707901 110.618050,43.389305 114.953598,51.062801 
	C115.109917,51.339474 115.626518,51.565086 115.601860,51.769451 
	C114.732285,58.976768 121.248329,61.593521 124.508926,66.230820 
	C125.159180,67.155609 125.443016,68.338036 125.561798,69.704712 
	C123.821571,69.333527 122.415359,68.659294 121.009140,67.985062 
	C120.800606,67.724434 120.592072,67.463799 120.038208,66.818527 
	C118.463234,65.620369 117.233589,64.806847 116.003944,63.993332 
	C115.174347,63.089169 114.344742,62.185005 113.186310,60.803612 
	C111.208382,56.938725 109.559273,53.551064 107.902763,49.783833 
	C106.861938,47.994217 105.828514,46.584175 104.819382,45.138893 
	C104.843666,45.103649 104.929214,45.100430 104.938179,44.781281 
	C104.598030,43.984295 104.248917,43.506454 103.936859,43.013184 
	C103.973915,42.997761 103.937927,43.069515 103.939575,42.754532 
	C103.598793,41.967045 103.256363,41.494541 102.948578,41.035904 
	C102.983231,41.049774 102.928535,41.100571 102.959106,40.734772 
	C102.269989,39.285511 101.550293,38.202053 100.853851,37.092209 
	C100.877098,37.065823 100.943245,37.089706 100.946327,36.771957 
	C100.602669,35.977230 100.255936,35.500252 99.946472,35.024574 
	C99.983742,35.025875 99.962372,35.097332 99.883423,34.861271 
	C99.629417,34.321232 99.372856,34.122459 99.034775,34.028893 
	C98.965408,33.873211 98.896042,33.717525 98.829750,32.969872 
	C98.178177,30.623802 97.523521,28.869703 97.096436,26.839710 
	C98.232697,26.356934 99.141388,26.150051 100.030525,25.960939 
	C100.010979,25.978710 100.054604,25.934805 100.068359,26.262886 
	C100.712296,27.069914 101.342468,27.548859 101.972641,28.027805 
z"/>
<path fill="#09CDBE" opacity="1.000000" stroke="none" 
	d="
M91.443970,28.787933 
	C89.601410,31.334888 88.215050,34.502815 85.803116,36.274738 
	C82.646919,38.593422 78.582535,39.631401 75.092064,41.553104 
	C72.094597,43.203381 69.368599,45.342899 66.487053,47.211323 
	C65.999008,47.527779 65.331543,47.567528 64.175926,47.898834 
	C64.517509,46.515755 64.734543,45.636978 65.041931,44.144699 
	C65.222328,43.165440 65.312378,42.799683 65.402428,42.433922 
	C65.402428,42.433922 65.207977,42.194508 65.568024,42.254616 
	C66.207161,42.129166 66.510986,42.003315 67.099236,41.852463 
	C67.549469,41.468517 67.740021,41.169270 67.942253,40.910915 
	C67.953926,40.951805 67.870178,40.937012 68.140182,40.817490 
	C68.560921,40.346436 68.711639,39.994900 69.061646,39.391586 
	C70.814301,37.081211 72.367691,35.022614 73.921082,32.964020 
	C73.921082,32.964020 73.989243,32.986137 74.233765,32.910084 
	C74.637848,32.554192 74.797409,32.274357 74.956970,31.994522 
	C74.956970,31.994520 75.004059,32.004749 75.252853,31.937773 
	C75.691658,31.596556 75.881660,31.322315 76.071663,31.048075 
	C76.071663,31.048075 76.003242,31.003532 76.362633,30.994083 
	C78.498619,29.665363 80.275223,28.346092 82.051819,27.026821 
	C82.051819,27.026819 82.535370,26.983032 83.012077,26.908253 
	C83.850769,26.831701 84.212746,26.829931 84.986694,26.878922 
	C87.368591,27.555630 89.338539,28.181576 91.341972,28.800016 
	C91.375465,28.792511 91.443970,28.787933 91.443970,28.787933 
z"/>
<path fill="#48D874" opacity="1.000000" stroke="none" 
	d="
M102.063210,63.030651 
	C101.297279,63.020557 100.531357,63.010464 99.390045,62.634476 
	C99.641800,60.757278 100.268936,59.245979 101.257263,56.864258 
	C97.802612,59.318386 95.340050,61.298943 92.661201,62.922665 
	C87.077347,66.307182 81.485741,69.707954 75.697899,72.718689 
	C69.924667,75.721825 63.907681,78.256355 58.050697,80.651154 
	C61.270241,78.439857 64.556198,76.744354 67.556923,74.641785 
	C69.277237,73.436386 70.534348,71.569946 72.217865,69.732040 
	C80.220612,65.232590 88.051079,61.082802 95.762108,56.721817 
	C98.024033,55.442581 99.946854,53.563744 102.267975,52.137535 
	C102.952629,52.975357 103.394394,53.635357 103.836159,54.295353 
	C103.836159,54.295353 103.892059,54.680405 104.013962,55.114552 
	C104.369904,55.819077 104.603951,56.089451 104.837990,56.359825 
	C104.894020,56.737297 104.950043,57.114761 105.011482,58.087730 
	C104.828514,59.310413 104.640137,59.937588 104.253395,60.312119 
	C103.727577,61.061531 103.400124,62.063591 103.057785,63.061531 
	C103.042892,63.057411 103.074043,63.049873 102.821320,63.045769 
	C102.400146,63.037991 102.231682,63.034321 102.063210,63.030651 
z"/>
<path fill="#42D37A" opacity="1.000000" stroke="none" 
	d="
M71.999992,70.001099 
	C70.534348,71.569946 69.277237,73.436386 67.556923,74.641785 
	C64.556198,76.744354 61.270241,78.439857 57.800903,80.652077 
	C57.497971,80.998184 56.998322,80.999741 56.655334,81.033813 
	C55.207188,82.376793 54.102032,83.685692 52.605537,84.995972 
	C51.113934,85.232452 49.853443,85.199356 48.939087,85.745636 
	C42.421963,89.639236 35.955875,93.620193 29.546680,97.688560 
	C29.074043,97.988571 29.173344,99.189590 28.599390,99.984695 
	C27.376108,100.030807 26.560186,100.063965 25.744263,100.097122 
	C25.571823,99.999786 25.399382,99.902443 25.114521,99.557831 
	C25.002102,99.310577 25.014940,99.360329 25.014942,99.360329 
	C24.933762,98.815094 24.852581,98.269867 25.087622,97.242340 
	C25.645887,96.600616 25.829479,96.390167 25.899426,95.902359 
	C25.709604,95.381363 25.495415,95.165825 25.201660,95.029396 
	C25.303030,94.469711 25.404400,93.910019 26.093010,93.142166 
	C31.056398,90.814415 34.063381,85.624306 40.348396,86.961411 
	C46.007946,83.850586 51.250530,80.654648 56.642010,77.733528 
	C61.679165,75.004387 66.874359,72.566940 71.999992,70.001099 
z"/>
<path fill="#31E5BD" opacity="1.000000" stroke="none" 
	d="
M161.075806,86.682327 
	C155.307907,88.784416 149.623016,91.169334 143.744598,92.894943 
	C139.406021,94.168526 134.837326,94.811577 130.323959,95.250633 
	C128.803268,95.398575 127.137550,94.055786 125.256653,92.760971 
	C124.947517,90.997978 124.919838,89.868340 125.017838,88.464539 
	C125.444336,87.465805 125.745148,86.741234 126.045959,86.016663 
	C126.372429,85.928261 126.628929,85.742989 127.134903,85.235672 
	C127.454338,85.010475 127.906174,84.954788 128.212646,85.164467 
	C130.697540,86.247765 132.908646,87.934776 135.048508,87.848793 
	C142.733566,87.540024 150.394547,86.632065 158.385559,85.941818 
	C159.496262,86.182800 160.286026,86.432564 161.075806,86.682327 
z"/>
<path fill="#2EDBED" opacity="1.000000" stroke="none" 
	d="
M173.312164,109.289948 
	C169.693695,114.815697 166.163010,120.401367 162.439484,125.855400 
	C153.079865,139.564926 143.720215,153.276520 134.142181,166.832993 
	C132.388992,169.314392 129.906311,171.770752 127.199821,172.930161 
	C125.107384,173.826553 122.138557,172.677170 119.629593,171.961975 
	C119.797043,171.018250 119.894257,170.549835 120.290131,170.287277 
	C123.313286,173.046371 126.099091,172.730698 128.347519,170.094879 
	C132.462677,165.270660 136.626434,160.435410 140.203293,155.216415 
	C146.069550,146.656967 151.483017,137.787216 157.393066,128.895645 
	C160.814056,123.844955 163.929413,118.946938 167.033081,114.038956 
	C167.021408,114.028992 167.036392,114.037132 167.374634,114.005844 
	C168.485794,113.002502 169.258698,112.030449 170.299652,110.925323 
	C171.333832,110.160980 172.099945,109.529732 172.978867,108.994881 
	C173.091675,109.091286 173.312164,109.289948 173.312164,109.289948 
z"/>
<path fill="#ABC1FD" opacity="1.000000" stroke="none" 
	d="
M112.217377,151.485779 
	C111.207985,152.707550 109.848900,153.263077 109.276833,154.267075 
	C105.612610,160.697723 99.320793,162.885773 92.874924,165.113800 
	C90.737022,165.852768 89.011215,167.783981 87.054115,169.511002 
	C85.128288,168.408371 83.245346,166.964844 81.362503,164.926880 
	C82.041916,163.909332 82.702049,163.153992 83.403435,163.113525 
	C92.329918,162.598495 98.499023,156.259109 105.729767,152.296265 
	C107.848946,151.134842 108.612282,147.499496 109.997040,144.998016 
	C110.227745,143.231705 110.458450,141.465378 110.835510,139.345444 
	C110.984352,138.823761 110.986855,138.655716 111.284943,138.231995 
	C111.775955,137.963150 111.971375,137.949982 112.166801,137.936798 
	C112.188408,142.300171 112.210014,146.663544 112.217377,151.485779 
z"/>
<path fill="#9CC0FC" opacity="1.000000" stroke="none" 
	d="
M127.232109,43.909119 
	C127.733772,44.096237 128.235443,44.283356 128.904083,45.068562 
	C134.324539,53.484470 139.566345,61.310204 144.858398,69.101814 
	C145.200592,69.605637 145.885452,69.964035 146.486130,70.191063 
	C150.997391,71.896103 152.578049,75.833427 153.987991,79.913918 
	C151.805069,79.507988 149.622131,79.102058 147.177765,78.079117 
	C146.279633,76.973572 145.642929,76.485039 144.762848,75.841995 
	C144.013596,75.124481 143.507706,74.561478 142.996674,73.623245 
	C139.327026,67.334206 135.718704,61.383972 131.933319,55.548584 
	C131.407654,54.738232 130.008667,54.494404 129.012146,53.656784 
	C129.007095,52.883232 129.003845,52.441200 128.966263,51.645805 
	C126.938133,47.878376 124.944351,44.464317 122.993149,41.002602 
	C123.035728,40.954945 123.118286,40.857361 123.118286,40.857361 
	C123.993698,41.337803 124.869110,41.818245 125.999832,42.835457 
	C126.580795,43.551193 126.906448,43.730156 127.232109,43.909119 
z"/>
<path fill="#AFBDFC" opacity="1.000000" stroke="none" 
	d="
M154.388931,79.960388 
	C152.578049,75.833427 150.997391,71.896103 146.486130,70.191063 
	C145.885452,69.964035 145.200592,69.605637 144.858398,69.101814 
	C139.566345,61.310204 134.324539,53.484470 129.047714,45.301472 
	C132.846664,47.810295 136.668961,50.684296 140.748352,54.138206 
	C141.228973,55.494511 141.243317,56.437576 141.708496,57.021439 
	C146.185165,62.640297 150.694138,68.234924 155.288162,73.758072 
	C157.395645,76.291794 159.712875,78.651085 161.934982,81.089478 
	C159.553284,80.728600 157.171570,80.367722 154.388931,79.960388 
z"/>
<path fill="#82C3FD" opacity="1.000000" stroke="none" 
	d="
M129.000610,51.999172 
	C129.003845,52.441200 129.007095,52.883232 129.011993,54.032623 
	C131.574997,59.391476 134.136871,64.042656 136.697403,68.694580 
	C138.117020,71.273720 138.568161,75.002548 143.001831,73.998474 
	C143.507706,74.561478 144.013596,75.124481 144.760941,76.163025 
	C144.998672,77.066154 144.994919,77.493752 144.991180,77.921341 
	C143.976151,77.897675 142.961136,77.874008 141.349304,77.569901 
	C139.502884,76.856506 138.253250,76.423553 137.003616,75.990593 
	C134.865250,72.620819 134.780899,67.639397 129.589951,66.635414 
	C129.079971,66.536789 128.584595,65.802483 128.287384,65.252480 
	C125.856476,60.754055 123.474258,56.229324 121.034637,50.992393 
	C119.995995,49.180962 118.999985,48.089718 118.003967,46.998474 
	C117.739952,46.506245 117.475945,46.014011 117.105461,44.896729 
	C117.333893,43.181274 117.668800,42.090866 118.312378,41.152901 
	C119.757744,43.074047 120.632858,45.108185 122.093781,46.547855 
	C124.170242,48.594109 126.677444,50.203266 129.000610,51.999172 
z"/>
<path fill="#C1B9FC" opacity="1.000000" stroke="none" 
	d="
M161.954987,81.072624 
	C159.712875,78.651085 157.395645,76.291794 155.288162,73.758072 
	C150.694138,68.234924 146.185165,62.640297 141.708496,57.021439 
	C141.243317,56.437576 141.228973,55.494511 141.001923,54.349228 
	C145.465042,57.243908 149.931702,60.507481 154.692596,64.332886 
	C157.624008,68.772278 160.014893,72.851936 162.977524,76.462433 
	C165.280685,79.269272 168.296646,81.491211 170.995804,83.973114 
	C168.499542,83.525322 166.003296,83.077530 163.142670,82.111328 
	C162.497177,81.404175 162.216049,81.215424 161.934921,81.026672 
	C161.934921,81.026672 161.975006,81.055779 161.954987,81.072624 
z"/>
<path fill="#99CAFA" opacity="1.000000" stroke="none" 
	d="
M92.091698,173.347046 
	C101.115799,176.378937 106.499115,169.793564 110.113525,160.724854 
	C110.400192,160.005569 111.438049,159.585693 112.501884,159.012878 
	C112.929710,160.316986 112.970718,161.635452 113.037277,162.952637 
	C113.292488,168.002701 113.559731,173.305359 108.075394,175.857315 
	C102.552246,178.427353 97.158363,177.189072 92.091698,173.347046 
z"/>
<path fill="#B4BDFE" opacity="1.000000" stroke="none" 
	d="
M109.682678,145.136169 
	C108.612282,147.499496 107.848946,151.134842 105.729767,152.296265 
	C98.499023,156.259109 92.329918,162.598495 83.403435,163.113525 
	C82.702049,163.153992 82.041916,163.909332 81.187592,164.653488 
	C80.412308,164.520416 79.812019,164.066284 79.068481,163.363846 
	C82.779587,160.838608 86.626656,158.549240 90.489960,156.287582 
	C96.777168,152.606964 103.074982,148.944458 109.682678,145.136169 
z"/>
<path fill="#41E4B8" opacity="1.000000" stroke="none" 
	d="
M158.064636,85.950592 
	C150.394547,86.632065 142.733566,87.540024 135.048508,87.848793 
	C132.908646,87.934776 130.697540,86.247765 128.394348,84.882233 
	C130.176956,83.216026 132.084351,82.041733 133.991745,80.867447 
	C134.745819,80.865654 135.499893,80.863861 136.979889,80.969818 
	C139.161285,81.320236 140.616745,81.562897 142.072220,81.805565 
	C142.729645,81.932281 143.387085,82.059006 144.604263,82.426895 
	C145.782928,82.729706 146.401840,82.791344 147.020752,82.852982 
	C147.448257,82.927155 147.875778,83.001320 148.859192,83.327209 
	C150.289444,83.682671 151.163788,83.786400 152.038116,83.890129 
	C152.038116,83.890129 152.477158,84.023964 152.934677,84.284782 
	C154.265152,84.653076 155.138092,84.760544 156.011047,84.868019 
	C156.435608,84.942673 156.860184,85.017326 157.635437,85.312805 
	C157.986145,85.533630 158.064636,85.950592 158.064636,85.950592 
z"/>
<path fill="#3FD28B" opacity="1.000000" stroke="none" 
	d="
M39.996422,86.996246 
	C34.063381,85.624306 31.056398,90.814415 26.327808,92.965942 
	C27.595495,90.270729 29.215620,87.543571 31.204998,84.386742 
	C31.735327,83.644165 31.896402,83.331276 32.057480,83.018379 
	C32.304283,82.801895 32.551090,82.585411 33.108387,82.063965 
	C33.712543,81.571617 33.862606,81.303764 33.869064,80.955437 
	C34.156643,80.751884 34.444221,80.548332 35.077957,80.099602 
	C35.424114,79.854416 35.885571,79.754944 36.076874,80.037598 
	C39.178585,79.214203 42.088993,78.108170 45.376823,76.996582 
	C49.170395,75.662338 52.586540,74.333656 55.963943,73.360901 
	C54.472897,74.899086 52.965679,76.020645 51.578876,77.275314 
	C47.837631,80.660088 40.261925,79.481491 39.996422,86.996246 
z"/>
<path fill="#D4BAF9" opacity="1.000000" stroke="none" 
	d="
M171.360321,83.983406 
	C168.296646,81.491211 165.280685,79.269272 162.977524,76.462433 
	C160.014893,72.851936 157.624008,68.772278 154.976746,64.520630 
	C161.137177,69.423561 167.405136,74.592583 173.431244,80.029655 
	C175.913300,82.269096 174.774384,83.731194 171.360321,83.983406 
z"/>
<path fill="#4ED75F" opacity="1.000000" stroke="none" 
	d="
M74.357994,84.865845 
	C74.655922,80.638794 76.559074,77.822273 81.410797,77.899841 
	C82.244957,77.913177 83.578514,76.961082 83.862961,76.163185 
	C85.682289,71.059769 88.079559,72.631294 90.652756,75.972580 
	C88.429390,78.030502 86.243294,79.501183 84.057198,80.971863 
	C80.943283,82.262848 77.829369,83.553841 74.357994,84.865845 
z"/>
<path fill="#39D297" opacity="1.000000" stroke="none" 
	d="
M44.999397,77.002136 
	C42.088993,78.108170 39.178585,79.214203 36.046772,79.845955 
	C35.825367,79.371666 35.721550,78.996483 35.721550,78.996483 
	C36.112888,78.584030 36.504223,78.171577 37.242825,77.368286 
	C37.752628,76.662300 37.915165,76.347145 38.077698,76.031990 
	C38.417328,75.675941 38.756962,75.319893 39.410969,74.574905 
	C39.898518,73.854324 40.071693,73.522667 40.244869,73.191017 
	C40.244869,73.191017 40.125637,73.248154 40.478569,73.148956 
	C41.264492,72.385284 41.697487,71.720825 42.130478,71.056358 
	C42.457348,70.962090 42.697338,70.763062 43.157410,70.140221 
	C43.612728,69.534187 43.761074,69.247208 43.909416,68.960228 
	C43.909416,68.960228 43.987370,68.980354 44.211544,68.921898 
	C44.435719,68.863441 44.919014,68.774216 44.977108,69.120499 
	C46.022724,70.310303 47.010246,71.153816 47.864761,72.302574 
	C46.820972,74.072586 45.910183,75.537361 44.999397,77.002136 
z"/>
<path fill="#D8FCF9" opacity="1.000000" stroke="none" 
	d="
M103.889618,53.871803 
	C103.394394,53.635357 102.952629,52.975357 102.223099,51.832069 
	C101.064484,50.521534 100.193634,49.694290 99.286156,48.510536 
	C98.886215,47.079796 98.522896,46.005562 98.118637,44.632484 
	C97.785133,43.856354 97.492577,43.379074 97.155800,42.578148 
	C97.028061,41.827976 96.944550,41.401451 96.902130,40.681877 
	C96.641541,39.909271 96.339867,39.429718 96.029823,38.960030 
	C96.021461,38.969894 96.055084,38.956268 96.024323,38.632339 
	C95.350189,37.822578 94.706818,37.336742 94.063454,36.850906 
	C94.063454,36.850906 94.049377,36.399361 93.990768,35.950783 
	C93.932152,35.502209 93.825714,35.026104 93.825714,35.026104 
	C93.182716,33.112598 92.539719,31.199093 91.670349,29.036760 
	C91.443970,28.787933 91.375465,28.792511 91.346680,28.491161 
	C91.265419,27.781393 91.212936,27.372976 91.160461,26.964560 
	C92.450317,28.844435 93.625397,30.819214 95.072449,32.569099 
	C95.961075,33.643700 97.265900,34.374123 98.928238,35.166313 
	C99.472626,35.073540 99.962372,35.097332 99.962372,35.097332 
	C99.962372,35.097332 99.983742,35.025875 99.959442,35.338772 
	C99.994415,36.065510 100.053696,36.479351 100.051041,36.956276 
	C99.989113,37.019356 99.868637,37.148735 99.868637,37.148735 
	C99.384247,38.043255 98.284752,39.169987 98.519905,39.792866 
	C99.653328,42.795200 101.223785,45.628929 102.480232,48.589931 
	C103.136963,50.137608 103.466026,51.824329 103.889618,53.871803 
z"/>
<path fill="#409F53" opacity="1.000000" stroke="none" 
	d="
M84.444328,81.063797 
	C86.243294,79.501183 88.429390,78.030502 90.812210,76.295052 
	C94.659019,71.929260 98.309082,67.828247 102.011177,63.378937 
	C102.231682,63.034321 102.400146,63.037991 102.819061,63.418190 
	C103.092590,64.539650 103.115654,65.284569 103.138718,66.029495 
	C103.138718,66.029495 102.891106,66.295784 102.647476,66.630005 
	C102.296829,67.306892 102.189819,67.649567 102.082809,67.992233 
	C98.032410,71.851807 94.096268,75.844185 89.860558,79.488373 
	C88.622459,80.553574 86.531509,80.627480 84.444328,81.063797 
z"/>
<path fill="#46A762" opacity="1.000000" stroke="none" 
	d="
M25.940063,100.422211 
	C26.560186,100.063965 27.376108,100.030807 28.973652,99.954948 
	C36.165661,97.616722 42.576050,95.321190 48.986439,93.025658 
	C49.017975,93.247673 49.049515,93.469688 49.166183,94.016945 
	C42.386215,96.860596 35.537628,99.426727 28.628304,101.817322 
	C27.996529,102.035904 26.975916,101.130676 25.940063,100.422211 
z"/>
<path fill="#37CFB0" opacity="1.000000" stroke="none" 
	d="
M118.027351,168.681076 
	C117.807274,156.611053 117.536133,144.541641 117.388069,132.470734 
	C117.310890,126.177849 117.450546,119.882317 117.743179,113.680763 
	C118.067146,122.146782 118.140182,130.520020 118.151596,139.364792 
	C118.069099,149.451248 118.048225,159.066162 118.027351,168.681076 
z"/>
<path fill="#F2B2F4" opacity="1.000000" stroke="none" 
	d="
M33.613976,105.147232 
	C32.746037,106.526138 31.481350,107.844872 30.295496,109.231049 
	C27.233730,112.810036 27.124365,117.303879 29.738962,121.203880 
	C31.000088,123.085007 31.926998,125.190186 33.019424,127.560570 
	C24.488102,120.722572 23.555361,110.994896 30.951992,105.813583 
	C31.575537,105.376793 32.479469,105.340279 33.613976,105.147232 
z"/>
<path fill="#CAFDFB" opacity="1.000000" stroke="none" 
	d="
M158.385559,85.941818 
	C158.064636,85.950592 157.986145,85.533630 157.958939,85.323288 
	C164.207916,86.531105 170.528397,87.794838 176.703033,89.566849 
	C177.457596,89.783386 177.429581,92.726791 177.556137,94.695229 
	C176.460297,87.839638 170.238129,88.820335 164.982391,87.200104 
	C163.886475,87.103142 163.462051,87.112396 163.037628,87.121643 
	C162.606720,86.999870 162.175797,86.878105 161.410339,86.719330 
	C160.286026,86.432564 159.496262,86.182800 158.385559,85.941818 
z"/>
<path fill="#BDC9F9" opacity="1.000000" stroke="none" 
	d="
M110.995728,136.004883 
	C110.995148,134.933823 110.994576,133.862778 110.986374,132.389694 
	C110.985107,129.290405 110.991455,126.593155 110.995850,123.112480 
	C110.986992,121.884453 110.980087,121.439850 110.982666,120.558800 
	C110.999718,118.086380 111.007263,116.050392 111.236382,114.010574 
	C111.457947,114.006737 111.901077,113.998779 111.901077,113.998779 
	C112.188019,121.135345 112.474968,128.271912 112.214020,135.727844 
	C111.442657,136.033081 111.219193,136.018982 110.995728,136.004883 
z"/>
<path fill="#37CFB0" opacity="1.000000" stroke="none" 
	d="
M124.892151,88.738701 
	C124.919838,89.868340 124.947517,90.997978 124.968185,92.550598 
	C123.967896,93.864769 122.601357,94.571495 122.052437,95.682266 
	C120.501755,98.820129 119.286423,102.123711 117.887283,105.748016 
	C119.491150,100.660675 121.146683,95.187309 123.226425,89.333298 
	C124.064476,88.881340 124.478317,88.810020 124.892151,88.738701 
z"/>
<path fill="#ECAAFE" opacity="1.000000" stroke="none" 
	d="
M105.002747,103.002609 
	C104.665268,100.499786 104.327789,97.996971 104.061035,95.093750 
	C105.990112,95.912827 107.848457,97.132309 109.621063,98.782471 
	C109.269005,99.417274 109.085541,99.679398 108.720596,100.189667 
	C107.305099,101.254082 106.153923,102.128342 105.002747,103.002609 
z"/>
<path fill="#D0B5FE" opacity="1.000000" stroke="none" 
	d="
M108.984909,99.999512 
	C109.085541,99.679398 109.269005,99.417274 109.746460,99.093452 
	C112.916214,103.382744 113.865761,108.078247 111.942184,113.588211 
	C111.901077,113.998779 111.457947,114.006737 111.124603,113.788979 
	C110.589851,113.293343 110.325493,113.102814 109.997513,112.590614 
	C109.659546,108.120895 109.322227,104.060204 108.984909,99.999512 
z"/>
<path fill="#24B7CC" opacity="1.000000" stroke="none" 
	d="
M118.032394,168.982910 
	C118.048225,159.066162 118.069099,149.451248 118.343391,139.405365 
	C118.596809,138.974411 118.990150,139.001831 119.007889,139.470032 
	C119.048943,149.928589 119.072250,159.918945 118.987946,170.003326 
	C118.880325,170.097336 118.659561,170.278824 118.659561,170.278824 
	C118.452187,169.947464 118.244820,169.616119 118.032394,168.982910 
z"/>
<path fill="#9CC0FC" opacity="1.000000" stroke="none" 
	d="
M110.052872,30.855707 
	C113.666298,33.618492 117.279724,36.381279 121.010742,39.500023 
	C121.128334,39.855988 120.989738,40.014847 120.617867,40.008766 
	C119.502243,39.998486 118.758492,39.994289 117.742119,39.800262 
	C114.641953,36.774483 111.814407,33.938530 109.257355,31.058086 
	C109.702858,30.960968 109.877861,30.908339 110.052872,30.855707 
z"/>
<path fill="#D8FCF9" opacity="1.000000" stroke="none" 
	d="
M107.910164,50.163406 
	C109.559273,53.551064 111.208382,56.938725 112.904617,60.676071 
	C107.375092,59.685875 107.538391,54.574108 106.399689,50.212074 
	C107.128716,49.977077 107.519440,50.070244 107.910164,50.163406 
z"/>
<path fill="#16B7BF" opacity="1.000000" stroke="none" 
	d="
M118.990150,139.001831 
	C118.990150,139.001831 118.596809,138.974411 118.405014,138.933838 
	C118.140182,130.520020 118.067146,122.146782 117.914047,113.299431 
	C117.833977,112.825310 117.753319,112.403297 117.822723,112.200439 
	C118.185982,112.177605 118.479820,112.357635 118.888481,113.170349 
	C119.009659,114.874001 119.016014,115.944969 119.015945,117.413773 
	C119.023041,118.876450 119.036568,119.941292 119.040871,121.406479 
	C119.057152,122.873779 119.082657,123.940735 119.076012,125.423721 
	C119.075943,127.230644 119.108025,128.621536 119.106964,130.455048 
	C119.101395,133.270081 119.128967,135.642502 119.115662,138.261780 
	C119.046570,138.673035 119.018356,138.837433 118.990150,139.001831 
z"/>
<path fill="#D8FCF9" opacity="1.000000" stroke="none" 
	d="
M73.558601,32.962490 
	C72.367691,35.022614 70.814301,37.081211 68.824303,39.546890 
	C68.215187,40.281654 68.042686,40.609333 67.870178,40.937012 
	C67.870178,40.937012 67.953926,40.951805 67.681152,40.995579 
	C67.218773,41.338623 67.029167,41.637894 66.839554,41.937164 
	C66.510986,42.003315 66.207161,42.129166 65.686234,42.353657 
	C68.028297,39.248718 70.612206,36.104843 73.558601,32.962490 
z"/>
<path fill="#D8FCF9" opacity="1.000000" stroke="none" 
	d="
M44.919014,68.774216 
	C44.919014,68.774216 44.435719,68.863441 44.191074,68.887238 
	C46.032387,65.946510 48.118340,62.981991 50.600822,60.002110 
	C50.997353,59.986748 51.126888,60.110733 51.064301,60.395966 
	C50.878887,61.051445 50.756065,61.421696 50.372040,61.979088 
	C48.380230,64.368896 46.649624,66.571556 44.919014,68.774216 
z"/>
<path fill="#F2B2F4" opacity="1.000000" stroke="none" 
	d="
M33.202229,128.273254 
	C35.472080,128.956009 37.871590,129.945679 40.629856,131.347534 
	C40.989685,132.507492 40.990749,133.255234 40.991821,134.002991 
	C38.438507,132.195374 35.885197,130.387756 33.202229,128.273254 
z"/>
<path fill="#CAFDFB" opacity="1.000000" stroke="none" 
	d="
M133.730164,80.622253 
	C132.084351,82.041733 130.176956,83.216026 128.087860,84.672554 
	C127.906174,84.954788 127.454338,85.010475 127.226654,85.012253 
	C127.163368,80.688889 129.525070,79.429474 133.730164,80.622253 
z"/>
<path fill="#D8FCF9" opacity="1.000000" stroke="none" 
	d="
M136.632019,75.983269 
	C138.253250,76.423553 139.502884,76.856506 140.967224,77.559860 
	C138.174042,77.164734 135.166168,76.499207 132.067810,75.480576 
	C133.405029,75.410286 134.832718,75.693115 136.632019,75.983269 
z"/>
<path fill="#D8FCF9" opacity="1.000000" stroke="none" 
	d="
M96.868866,27.115604 
	C97.523521,28.869703 98.178177,30.623802 98.750824,32.726696 
	C95.356987,31.473068 94.708244,28.774328 95.834778,25.566063 
	C96.378113,26.148336 96.623489,26.631969 96.868866,27.115604 
z"/>
<path fill="#D8FCF9" opacity="1.000000" stroke="none" 
	d="
M84.574730,26.828163 
	C84.212746,26.829931 83.850769,26.831701 83.220680,26.784077 
	C85.305695,24.473831 87.721008,22.652943 90.400978,25.900463 
	C88.183731,26.394497 86.379234,26.611328 84.574730,26.828163 
z"/>
<path fill="#D8FCF9" opacity="1.000000" stroke="none" 
	d="
M103.486053,65.953011 
	C103.115654,65.284569 103.092590,64.539650 103.071785,63.422298 
	C103.074043,63.049873 103.042892,63.057411 103.339127,62.931000 
	C103.907501,62.057983 104.179626,61.311375 104.451759,60.564766 
	C104.640137,59.937588 104.828514,59.310413 105.097321,58.361378 
	C104.729630,60.651855 104.281509,63.264191 103.486053,65.953011 
z"/>
<path fill="#D8FCF9" opacity="1.000000" stroke="none" 
	d="
M81.666397,26.997272 
	C80.275223,28.346092 78.498619,29.665363 76.386703,31.027054 
	C77.794586,29.702223 79.537781,28.334972 81.666397,26.997272 
z"/>
<path fill="#D8FCF9" opacity="1.000000" stroke="none" 
	d="
M121.045044,68.340942 
	C122.415359,68.659294 123.821571,69.333527 125.562225,70.069611 
	C125.896667,70.131462 125.956429,70.091751 126.033585,70.305672 
	C126.398872,70.712349 126.687019,70.905098 126.975159,71.097847 
	C126.975159,71.097847 126.994278,71.547218 127.000572,71.772003 
	C125.031563,70.896805 123.056252,69.796814 121.045044,68.340942 
z"/>
<path fill="#FBA0FE" opacity="1.000000" stroke="none" 
	d="
M41.284996,134.126099 
	C40.990749,133.255234 40.989685,132.507492 40.987808,131.386292 
	C40.986996,131.012863 40.998093,131.001892 41.343296,131.004608 
	C42.792156,131.671371 43.895813,132.335403 44.999466,132.999451 
	C44.718395,133.529709 44.437325,134.059952 44.037804,134.870148 
	C43.138966,134.849777 42.358570,134.549484 41.284996,134.126099 
z"/>
<path fill="#D8FCF9" opacity="1.000000" stroke="none" 
	d="
M98.940102,24.745142 
	C100.926979,25.250132 102.913849,25.755119 104.928795,26.651875 
	C104.956863,27.043640 104.838676,27.162437 104.492538,27.088936 
	C102.782471,26.655224 101.418533,26.295013 100.054604,25.934803 
	C100.054604,25.934805 100.010979,25.978710 99.911186,25.710192 
	C99.520966,25.209496 99.230530,24.977320 98.940102,24.745142 
z"/>
<path fill="#48B8E4" opacity="1.000000" stroke="none" 
	d="
M107.902763,49.783833 
	C107.519440,50.070244 107.128716,49.977077 106.444145,49.818005 
	C106.150299,49.752094 106.039734,49.357639 105.910248,48.931568 
	C105.559303,48.261093 105.337860,48.016689 105.116409,47.772285 
	C105.116409,47.772285 105.063454,47.368984 104.993164,46.881145 
	C104.880287,45.986916 104.837685,45.580528 104.795090,45.174137 
	C105.828514,46.584175 106.861938,47.994217 107.902763,49.783833 
z"/>
<path fill="#1DCFAF" opacity="1.000000" stroke="none" 
	d="
M84.986694,26.878922 
	C86.379234,26.611328 88.183731,26.394497 90.374817,26.282738 
	C90.761391,26.387810 90.883408,26.729742 91.021935,26.847151 
	C91.212936,27.372976 91.265419,27.781393 91.313187,28.498665 
	C89.338539,28.181576 87.368591,27.555630 84.986694,26.878922 
z"/>
<path fill="#CAFDFB" opacity="1.000000" stroke="none" 
	d="
M141.981140,81.475143 
	C140.616745,81.562897 139.161285,81.320236 137.356384,80.945564 
	C138.634659,80.923943 140.262360,81.034340 141.981140,81.475143 
z"/>
<path fill="#D8FCF9" opacity="1.000000" stroke="none" 
	d="
M116.039474,64.347015 
	C117.233589,64.806847 118.463234,65.620369 119.795227,66.741531 
	C118.623390,66.266342 117.349197,65.483521 116.039474,64.347015 
z"/>
<path fill="#CAFDFB" opacity="1.000000" stroke="none" 
	d="
M176.170670,101.216293 
	C176.477905,100.363831 176.785156,99.511375 177.216415,98.331802 
	C177.222229,99.630165 177.104004,101.255638 176.548035,102.721481 
	C176.050766,102.384567 175.991257,102.207275 176.027283,101.836823 
	C176.122849,101.643654 176.170670,101.216293 176.170670,101.216293 
z"/>
<path fill="#CAFDFB" opacity="1.000000" stroke="none" 
	d="
M125.017838,88.464539 
	C124.478317,88.810020 124.064476,88.881340 123.340530,89.009552 
	C123.803459,88.064880 124.576492,87.063309 125.697739,86.039200 
	C125.745148,86.741234 125.444336,87.465805 125.017838,88.464539 
z"/>
<path fill="#D8FCF9" opacity="1.000000" stroke="none" 
	d="
M103.804657,45.176342 
	C103.196114,44.031666 102.587578,42.886990 102.219589,41.401752 
	C102.460144,41.061192 102.928535,41.100571 102.928535,41.100571 
	C102.928535,41.100571 102.983231,41.049774 102.949020,41.346275 
	C103.255852,42.118359 103.596893,42.593937 103.937927,43.069515 
	C103.937927,43.069515 103.973915,42.997761 103.917847,43.339947 
	C103.916046,44.113918 103.970314,44.545708 103.970123,45.027779 
	C103.915665,45.078064 103.804657,45.176342 103.804657,45.176342 
z"/>
<path fill="#CAFDFB" opacity="1.000000" stroke="none" 
	d="
M151.978729,83.572754 
	C151.163788,83.786400 150.289444,83.682671 149.184998,83.333679 
	C149.943039,83.144073 150.931198,83.199730 151.978729,83.572754 
z"/>
<path fill="#48B8E4" opacity="1.000000" stroke="none" 
	d="
M102.959106,40.734772 
	C102.928535,41.100571 102.460144,41.061192 102.226532,41.035240 
	C101.992920,41.009293 101.999619,40.999874 101.974312,40.706650 
	C101.630280,39.944553 101.311554,39.475674 100.992836,39.006794 
	C100.959915,38.834568 100.926987,38.662342 100.845558,38.031040 
	C100.797050,37.571968 100.830605,37.118595 100.830605,37.118595 
	C101.550293,38.202053 102.269989,39.285511 102.959106,40.734772 
z"/>
<path fill="#D8FCF9" opacity="1.000000" stroke="none" 
	d="
M65.024734,42.339020 
	C65.312378,42.799683 65.222328,43.165440 65.075684,43.811836 
	C64.573105,44.389103 64.127106,44.685734 63.424583,45.072693 
	C63.661057,44.190052 64.154053,43.217087 65.024734,42.339020 
z"/>
<path fill="#D8FCF9" opacity="1.000000" stroke="none" 
	d="
M62.824547,45.150925 
	C62.644222,46.018257 62.105080,46.878876 61.275959,47.857185 
	C61.479233,47.031319 61.972485,46.087765 62.824547,45.150925 
z"/>
<path fill="#DFADFE" opacity="1.000000" stroke="none" 
	d="
M51.000820,139.999100 
	C51.444893,139.999664 51.888966,140.000229 52.666668,140.332535 
	C53.004318,141.105408 53.008335,141.546539 53.012352,141.987671 
	C53.012352,141.987671 52.899895,142.112900 52.844883,142.181152 
	C51.982281,142.009811 51.174686,141.770248 50.397690,141.160614 
	C50.706139,140.589691 50.896980,140.325867 51.000820,139.999100 
z"/>
<path fill="#E9A8FE" opacity="1.000000" stroke="none" 
	d="
M50.783356,139.730759 
	C50.896980,140.325867 50.706139,140.589691 50.206539,140.901398 
	C49.376972,140.532791 48.769150,140.053375 48.007015,139.321045 
	C48.757099,139.199570 49.661495,139.330994 50.783356,139.730759 
z"/>
<path fill="#7BC7FC" opacity="1.000000" stroke="none" 
	d="
M98.591156,24.789299 
	C99.230530,24.977320 99.520966,25.209496 99.930733,25.692421 
	C99.141388,26.150051 98.232697,26.356934 97.096436,26.839710 
	C96.623489,26.631969 96.378113,26.148336 96.145157,25.383102 
	C96.852448,25.012154 97.547333,24.922806 98.591156,24.789299 
z"/>
<path fill="#D8FCF9" opacity="1.000000" stroke="none" 
	d="
M53.849556,56.150761 
	C53.834084,56.905830 53.464760,57.636864 52.767002,58.667564 
	C52.438568,58.967232 52.018665,59.021114 51.972095,58.977776 
	C51.925526,58.934437 51.829491,58.850975 51.829491,58.850975 
	C52.384892,57.942890 52.940296,57.034809 53.849556,56.150761 
z"/>
<path fill="#D8FCF9" opacity="1.000000" stroke="none" 
	d="
M109.974625,30.535492 
	C109.877861,30.908339 109.702858,30.960968 109.027924,30.997887 
	C108.527992,30.982176 108.057510,30.924711 108.057510,30.924711 
	C108.057510,30.924711 107.990509,30.967949 107.925217,30.701674 
	C107.549576,29.986393 107.239235,29.537388 106.971313,29.040009 
	C107.013741,28.991632 107.101128,28.897182 107.101128,28.897182 
	C108.032875,29.336546 108.964630,29.775911 109.974625,30.535492 
z"/>
<path fill="#D8FCF9" opacity="1.000000" stroke="none" 
	d="
M57.794983,52.926323 
	C57.794987,52.926323 57.382221,52.961086 57.175182,52.954071 
	C57.384682,51.980614 57.801220,51.014172 58.620972,50.032616 
	C59.024185,50.017509 59.180679,50.182194 59.107857,50.464966 
	C58.951237,51.125309 58.867443,51.502880 58.783649,51.880455 
	C58.783649,51.880455 58.873604,51.917656 58.617458,51.967995 
	C58.172535,52.320995 57.983761,52.623657 57.794983,52.926323 
z"/>
<path fill="#D8FCF9" opacity="1.000000" stroke="none" 
	d="
M105.052597,28.876682 
	C105.052597,28.876682 104.966408,28.446533 104.933167,28.021809 
	C104.899925,27.597086 104.838676,27.162437 104.838676,27.162437 
	C104.838676,27.162437 104.956863,27.043640 105.016769,26.983641 
	C105.696259,27.382311 106.315849,27.840981 107.018280,28.598415 
	C107.101128,28.897182 107.013741,28.991632 106.658928,29.005268 
	C105.886940,28.971495 105.469772,28.924088 105.052597,28.876682 
z"/>
<path fill="#8EC1FE" opacity="1.000000" stroke="none" 
	d="
M145.318497,77.968712 
	C144.994919,77.493752 144.998672,77.066154 145.004318,76.317535 
	C145.642929,76.485039 146.279633,76.973572 146.939209,77.797836 
	C146.523331,78.094398 146.084579,78.055237 145.318497,77.968712 
z"/>
<path fill="#D8FCF9" opacity="1.000000" stroke="none" 
	d="
M41.779556,71.075714 
	C41.697487,71.720825 41.264492,72.385284 40.544659,73.150497 
	C40.648090,72.532516 41.038361,71.813789 41.779556,71.075714 
z"/>
<path fill="#D8FCF9" opacity="1.000000" stroke="none" 
	d="
M55.463692,55.822536 
	C55.161884,55.900974 54.877209,56.020294 54.379074,56.199581 
	C54.546181,55.535980 54.943893,54.853294 55.652031,54.063187 
	C55.962460,53.955772 56.071671,54.073608 55.990005,54.371201 
	C55.760120,55.053375 55.611908,55.437954 55.463692,55.822536 
z"/>
<path fill="#CAFDFB" opacity="1.000000" stroke="none" 
	d="
M155.780258,84.626633 
	C155.138092,84.760544 154.265152,84.653076 153.163712,84.299438 
	C153.806641,84.163925 154.678055,84.274582 155.780258,84.626633 
z"/>
<path fill="#2AE3C5" opacity="1.000000" stroke="none" 
	d="
M175.931732,102.029991 
	C175.991257,102.207275 176.050766,102.384567 176.225845,102.817978 
	C176.104996,103.631729 175.868576,104.189354 175.315002,104.876213 
	C174.997818,105.005440 174.824677,104.875275 174.865479,104.555038 
	C175.248108,103.499870 175.589920,102.764931 175.931732,102.029991 
z"/>
<path fill="#24B7CC" opacity="1.000000" stroke="none" 
	d="
M119.991470,170.081436 
	C119.894257,170.549835 119.797043,171.018250 119.527740,171.655457 
	C119.151253,171.500549 118.946854,171.176865 118.701004,170.566010 
	C118.659561,170.278824 118.880325,170.097336 119.212906,170.039337 
	C119.545479,169.981323 119.991478,170.081436 119.991470,170.081436 
z"/>
<path fill="#BEB9FE" opacity="1.000000" stroke="none" 
	d="
M110.995216,136.334747 
	C111.219193,136.018982 111.442657,136.033081 112.002518,136.091858 
	C112.290825,136.536026 112.242722,136.935547 112.180710,137.635925 
	C111.971375,137.949982 111.775955,137.963150 111.286667,137.979919 
	C110.993431,137.543884 110.994064,137.104248 110.995216,136.334747 
z"/>
<path fill="#2EDBED" opacity="1.000000" stroke="none" 
	d="
M174.968918,105.984543 
	C174.817017,106.546715 174.665131,107.108879 174.203156,107.785370 
	C173.893066,107.899681 173.727478,107.741318 173.798645,107.455582 
	C173.914413,106.778656 173.959030,106.387466 174.244995,105.996651 
	C174.486359,105.997032 174.968918,105.984543 174.968918,105.984543 
z"/>
<path fill="#D8FCF9" opacity="1.000000" stroke="none" 
	d="
M100.996918,39.307701 
	C101.311554,39.475674 101.630280,39.944553 101.969711,40.709049 
	C101.660614,40.539314 101.330803,40.073959 100.996918,39.307701 
z"/>
<path fill="#D8FCF9" opacity="1.000000" stroke="none" 
	d="
M104.819382,45.138893 
	C104.837685,45.580528 104.880287,45.986916 104.902390,46.699150 
	C104.571739,46.571964 104.261597,46.138935 103.878052,45.441124 
	C103.804657,45.176342 103.915665,45.078064 104.192444,45.086411 
	C104.469231,45.094753 104.929214,45.100430 104.929214,45.100430 
	C104.929214,45.100430 104.843666,45.103649 104.819382,45.138893 
z"/>
<path fill="#9CC0FC" opacity="1.000000" stroke="none" 
	d="
M121.195618,39.774841 
	C121.766060,39.933224 122.269211,40.172760 122.945328,40.634827 
	C123.118286,40.857361 123.035728,40.954945 122.702713,40.965355 
	C121.909714,40.655457 121.449722,40.335152 120.989738,40.014847 
	C120.989738,40.014847 121.128334,39.855988 121.195618,39.774841 
z"/>
<path fill="#CAFDFB" opacity="1.000000" stroke="none" 
	d="
M146.801422,82.619751 
	C146.401840,82.791344 145.782928,82.729706 144.939545,82.439713 
	C145.337418,82.269745 145.959763,82.328140 146.801422,82.619751 
z"/>
<path fill="#46A762" opacity="1.000000" stroke="none" 
	d="
M50.231674,93.564285 
	C50.281704,93.312462 50.508224,93.002289 50.839111,92.841400 
	C50.803127,93.202049 50.624691,93.373795 50.231674,93.564285 
z"/>
<path fill="#D8FCF9" opacity="1.000000" stroke="none" 
	d="
M100.853851,37.092209 
	C100.830605,37.118595 100.797050,37.571968 100.737221,37.791367 
	C100.430840,37.890762 100.232285,37.716179 99.975174,37.317875 
	C99.868637,37.148735 99.989113,37.019356 100.255783,37.016930 
	C100.522446,37.014500 100.943245,37.089706 100.943245,37.089706 
	C100.943245,37.089706 100.877098,37.065823 100.853851,37.092209 
z"/>
<path fill="#D8FCF9" opacity="1.000000" stroke="none" 
	d="
M75.823914,31.104456 
	C75.881660,31.322315 75.691658,31.596556 75.248657,31.914045 
	C75.189163,31.691809 75.382660,31.426323 75.823914,31.104456 
z"/>
<path fill="#48B8E4" opacity="1.000000" stroke="none" 
	d="
M99.883423,34.861271 
	C99.962372,35.097332 99.472626,35.073540 99.230972,35.031540 
	C98.989326,34.989544 98.960388,34.506546 98.997581,34.267719 
	C99.372856,34.122459 99.629417,34.321232 99.883423,34.861271 
z"/>
<path fill="#AFBDFC" opacity="1.000000" stroke="none" 
	d="
M127.087029,43.679012 
	C126.906448,43.730156 126.580795,43.551193 126.157486,43.101578 
	C126.353882,43.036919 126.647911,43.242912 127.087029,43.679012 
z"/>
<path fill="#D8FCF9" opacity="1.000000" stroke="none" 
	d="
M105.134689,48.025978 
	C105.337860,48.016689 105.559303,48.261093 105.800980,48.758316 
	C105.598450,48.767311 105.375710,48.523491 105.134689,48.025978 
z"/>
<path fill="#D8FCF9" opacity="1.000000" stroke="none" 
	d="
M74.730293,32.069725 
	C74.797409,32.274357 74.637848,32.554192 74.227882,32.874741 
	C74.041122,32.582302 74.216499,32.325459 74.730293,32.069725 
z"/>
<path fill="#D8FCF9" opacity="1.000000" stroke="none" 
	d="
M59.867290,49.101624 
	C60.110275,49.221043 60.102947,49.396717 59.850082,49.843826 
	C59.604553,50.115257 59.180679,50.182194 59.180679,50.182194 
	C59.180679,50.182194 59.024185,50.017509 58.946999,49.932320 
	C59.118870,49.617378 59.367924,49.387627 59.867290,49.101624 
z"/>
<path fill="#46A762" opacity="1.000000" stroke="none" 
	d="
M24.913748,99.384506 
	C25.014940,99.360329 25.002102,99.310577 24.993114,99.286743 
	C24.984129,99.262917 24.699762,99.372658 24.699762,99.372658 
	C24.699762,99.372658 24.812555,99.408684 24.913748,99.384506 
z"/>
<path fill="#D8FCF9" opacity="1.000000" stroke="none" 
	d="
M37.822166,76.141815 
	C37.915165,76.347145 37.752628,76.662300 37.347832,77.102722 
	C37.259266,76.902550 37.412952,76.577095 37.822166,76.141815 
z"/>
<path fill="#46A762" opacity="1.000000" stroke="none" 
	d="
M25.954618,96.128700 
	C25.829479,96.390167 25.645887,96.600616 25.210289,96.843582 
	C25.016737,96.927124 24.907078,96.490166 25.214455,96.288834 
	C25.521833,96.087509 25.954618,96.128700 25.954618,96.128700 
z"/>
<path fill="#3FD28B" opacity="1.000000" stroke="none" 
	d="
M25.899426,95.902359 
	C25.954618,96.128700 25.521833,96.087509 25.304556,96.082397 
	C25.048708,95.896347 25.010138,95.715408 25.086615,95.281937 
	C25.495415,95.165825 25.709604,95.381363 25.899426,95.902359 
z"/>
<path fill="#D8FCF9" opacity="1.000000" stroke="none" 
	d="
M31.805357,83.128151 
	C31.896402,83.331276 31.735327,83.644165 31.331356,84.078827 
	C31.243387,83.879700 31.398312,83.558807 31.805357,83.128151 
z"/>
<path fill="#AFBDFC" opacity="1.000000" stroke="none" 
	d="
M162.040665,81.262283 
	C162.216049,81.215424 162.497177,81.404175 162.884979,81.829239 
	C162.709900,81.876328 162.428146,81.687111 162.040665,81.262283 
z"/>
<path fill="#2AE3C5" opacity="1.000000" stroke="none" 
	d="
M175.062683,105.783554 
	C174.968918,105.984543 174.486359,105.997032 174.338959,105.780930 
	C174.359528,105.295433 174.570572,105.065582 174.824677,104.875275 
	C174.824677,104.875275 174.997818,105.005440 175.083923,105.072319 
	C175.170013,105.139198 175.156448,105.582565 175.062683,105.783554 
z"/>
<path fill="#D8FCF9" opacity="1.000000" stroke="none" 
	d="
M33.661404,81.050278 
	C33.862606,81.303764 33.712543,81.571617 33.190224,81.826965 
	C33.030495,81.582535 33.194553,81.332603 33.661404,81.050278 
z"/>
<path fill="#2EDBED" opacity="1.000000" stroke="none" 
	d="
M173.975555,107.979179 
	C173.944702,108.368752 173.831360,108.678825 173.515106,109.139420 
	C173.312164,109.289948 173.091675,109.091286 173.016052,108.757156 
	C172.940414,108.423027 172.971878,107.941803 173.166275,107.912430 
	C173.360672,107.883049 173.727478,107.741318 173.727478,107.741318 
	C173.727478,107.741318 173.893066,107.899681 173.975555,107.979179 
z"/>
<path fill="#D8FCF9" opacity="1.000000" stroke="none" 
	d="
M35.543003,79.087814 
	C35.721550,78.996483 35.825367,79.371666 35.855469,79.563309 
	C35.885571,79.754944 35.424114,79.854416 35.187973,79.854309 
	C35.009281,79.580200 35.146824,79.355179 35.543003,79.087814 
z"/>
<path fill="#D8FCF9" opacity="1.000000" stroke="none" 
	d="
M130.135773,74.437668 
	C130.325928,74.220055 130.612869,74.312973 130.985931,74.730865 
	C130.793121,74.935493 130.513275,74.832954 130.135773,74.437668 
z"/>
<path fill="#D8FCF9" opacity="1.000000" stroke="none" 
	d="
M39.946407,73.276123 
	C40.071693,73.522667 39.898518,73.854324 39.476372,74.330795 
	C39.367580,74.104156 39.507763,73.732697 39.946407,73.276123 
z"/>
<path fill="#D8FCF9" opacity="1.000000" stroke="none" 
	d="
M43.691544,69.068665 
	C43.761074,69.247208 43.612728,69.534187 43.230690,69.912338 
	C43.043690,69.663307 43.202579,69.387840 43.691544,69.068665 
z"/>
<path fill="#D8FCF9" opacity="1.000000" stroke="none" 
	d="
M102.315750,67.842110 
	C102.189819,67.649567 102.296829,67.306892 102.633354,66.811264 
	C102.758141,67.002869 102.653419,67.347427 102.315750,67.842110 
z"/>
<path fill="#D8FCF9" opacity="1.000000" stroke="none" 
	d="
M50.935478,59.921867 
	C51.014256,59.572388 51.205715,59.327518 51.638737,58.986679 
	C51.829491,58.850975 51.925526,58.934437 51.899837,59.213753 
	C51.704163,59.794647 51.455078,60.000538 51.126888,60.110733 
	C51.126888,60.110733 50.997353,59.986748 50.935478,59.921867 
z"/>
<path fill="#D8FCF9" opacity="1.000000" stroke="none" 
	d="
M104.833763,56.081337 
	C104.603951,56.089451 104.369904,55.819077 104.123116,55.275585 
	C104.350090,55.269260 104.589813,55.536053 104.833763,56.081337 
z"/>
<path fill="#D8FCF9" opacity="1.000000" stroke="none" 
	d="
M56.724335,53.058060 
	C56.949253,52.977570 57.003716,53.460487 56.764763,53.735527 
	C56.525810,54.010567 56.071671,54.073608 56.071671,54.073608 
	C56.071671,54.073608 55.962460,53.955772 55.908112,53.894306 
	C56.013088,53.549435 56.228306,53.318005 56.724335,53.058060 
z"/>
<path fill="#F7A4FF" opacity="1.000000" stroke="none" 
	d="
M45.266922,132.785736 
	C43.895813,132.335403 42.792156,131.671371 41.344479,131.003357 
	C41.628807,129.538696 41.967594,127.840469 42.936634,126.659271 
	C46.729610,122.035851 50.435394,117.271423 54.770226,113.193665 
	C56.704964,111.373657 60.053024,111.056076 63.679234,109.717072 
	C61.478806,108.303085 59.863636,107.265182 57.368248,105.661659 
	C59.795944,104.470940 61.556206,103.786713 63.121399,102.794708 
	C65.093903,101.544540 67.742477,100.137718 63.340454,98.034645 
	C66.621132,95.603333 70.087532,93.425949 74.970894,94.344734 
	C79.710831,95.236511 84.652290,95.057205 90.621994,95.415260 
	C89.302383,97.301399 88.470833,98.489952 87.319489,99.839554 
	C80.700340,104.137199 74.316811,108.152397 68.126038,112.445564 
	C62.288425,116.493805 56.478184,120.622658 51.013180,125.147560 
	C48.714005,127.051224 47.332851,130.063644 45.266922,132.785736 
z"/>
<path fill="#E9A8FE" opacity="1.000000" stroke="none" 
	d="
M53.395065,141.997711 
	C53.008335,141.546539 53.004318,141.105408 52.999718,140.333359 
	C54.622223,134.215317 59.170292,130.920471 64.182571,127.265045 
	C71.747299,123.849327 78.771790,120.760948 85.722954,117.515518 
	C86.863228,116.983131 87.536942,115.459633 88.675400,114.913635 
	C91.710564,113.457970 94.881508,112.285416 97.847992,111.300964 
	C90.336357,117.135422 82.839058,122.500237 75.672012,128.274948 
	C72.133553,131.125992 69.204620,134.733521 65.999893,137.998779 
	C63.856625,139.228119 61.824841,140.771576 59.533848,141.584747 
	C57.785397,142.205353 55.708542,141.900757 53.395065,141.997711 
z"/>
<path fill="#ECAAFE" opacity="1.000000" stroke="none" 
	d="
M97.998474,111.000305 
	C94.881508,112.285416 91.710564,113.457970 88.675400,114.913635 
	C87.536942,115.459633 86.863228,116.983131 85.722954,117.515518 
	C78.771790,120.760948 71.747299,123.849327 64.374092,126.994888 
	C65.256126,125.371750 66.288727,123.487976 67.809219,122.164902 
	C71.998528,118.519539 76.392090,115.108917 80.853165,111.302567 
	C83.202530,109.631561 85.425011,108.296478 87.599670,106.887589 
	C90.919235,104.736946 93.951500,101.819374 97.569893,100.534363 
	C102.219803,98.883018 101.899338,103.586929 102.626038,106.622604 
	C100.842094,108.339989 99.420280,109.670143 97.998474,111.000305 
z"/>
<path fill="#E3ADFE" opacity="1.000000" stroke="none" 
	d="
M97.847984,111.300964 
	C99.420280,109.670143 100.842094,108.339989 102.631340,107.005219 
	C106.751022,107.828102 104.163544,104.735107 105.002495,103.381737 
	C106.153923,102.128342 107.305099,101.254082 108.720596,100.189667 
	C109.322227,104.060204 109.659546,108.120895 109.747955,112.591248 
	C109.499039,113.000916 108.999863,113.001831 108.679359,113.042877 
	C107.906105,113.722206 107.453362,114.360497 106.892052,115.218140 
	C106.583641,115.711121 106.322113,115.898766 105.603409,116.000320 
	C103.805389,116.666504 102.402855,117.332794 100.859024,118.288155 
	C99.811729,119.051689 98.905708,119.526146 97.999695,120.000610 
	C90.173111,124.327530 82.323906,128.614288 74.532364,133.003418 
	C71.851616,134.513535 69.314758,136.279083 66.356033,137.963348 
	C69.204620,134.733521 72.133553,131.125992 75.672012,128.274948 
	C82.839058,122.500237 90.336357,117.135422 97.847984,111.300964 
z"/>
<path fill="#F7A4FF" opacity="1.000000" stroke="none" 
	d="
M78.568298,92.083221 
	C81.903030,90.563393 85.249977,89.261398 88.698868,88.341743 
	C89.572243,88.108856 90.770615,89.094727 91.819641,89.520554 
	C91.113838,90.308014 90.475700,91.692047 89.690674,91.781097 
	C86.022079,92.197258 82.312965,92.256241 78.568298,92.083221 
z"/>
<path fill="#02E3DA" opacity="1.000000" stroke="none" 
	d="
M173.798645,107.455582 
	C173.727478,107.741318 173.360672,107.883049 173.019073,107.616463 
	C170.771759,105.853043 168.866028,104.356201 166.729248,102.677879 
	C162.404190,108.259834 156.592346,109.362007 150.563324,110.041862 
	C148.938583,110.225075 147.306870,110.677017 145.769531,111.250183 
	C137.163849,114.458641 128.586105,117.742058 119.998611,120.600357 
	C119.998703,119.135315 119.999016,118.069786 119.999588,117.002129 
	C119.999840,117.000000 120.002136,116.996948 120.354782,116.961746 
	C126.337357,114.346748 131.859543,111.488609 137.624191,109.256775 
	C145.023056,106.392242 152.474121,103.340782 160.187271,101.746796 
	C163.993881,100.960136 167.407150,101.206474 169.352509,96.965317 
	C171.794556,95.953522 173.885117,94.978981 175.975693,94.004433 
	C175.998917,96.106934 176.022141,98.209442 176.108017,100.764114 
	C176.170670,101.216293 176.122849,101.643654 176.027283,101.836823 
	C175.589920,102.764931 175.248108,103.499870 174.865479,104.555038 
	C174.570572,105.065582 174.359528,105.295433 174.097595,105.780548 
	C173.959030,106.387466 173.914413,106.778656 173.798645,107.455582 
z"/>
<path fill="#16E4CE" opacity="1.000000" stroke="none" 
	d="
M175.747635,93.723335 
	C173.885117,94.978981 171.794556,95.953522 168.912903,96.964775 
	C165.983337,97.087051 163.688065,96.696747 161.733490,97.340660 
	C153.319397,100.112640 144.967514,103.086990 136.667984,106.188408 
	C131.050613,108.287544 125.558144,110.720940 120.004997,113.002571 
	C120.000183,113.000320 119.987038,112.994896 119.987045,112.994896 
	C119.992058,112.246529 119.997070,111.498169 120.359451,110.337265 
	C122.551956,108.887619 124.289078,107.587196 126.239960,106.861053 
	C133.016205,104.338860 139.937164,102.193146 146.650543,99.521019 
	C148.996185,98.587387 150.899857,96.543350 153.005356,95.006409 
	C157.472198,94.368454 161.922684,93.532509 166.411591,93.161934 
	C169.419373,92.913635 172.481674,93.325676 175.747635,93.723335 
z"/>
<path fill="#20E5CA" opacity="1.000000" stroke="none" 
	d="
M152.562088,95.003662 
	C150.899857,96.543350 148.996185,98.587387 146.650543,99.521019 
	C139.937164,102.193146 133.016205,104.338860 126.239960,106.861053 
	C124.289078,107.587196 122.551956,108.887619 120.362175,109.963089 
	C119.248238,104.916077 122.226311,103.073204 126.554237,101.928505 
	C130.517700,100.880180 134.269043,99.034683 138.228714,97.965996 
	C142.793030,96.734116 147.483261,95.968826 152.562088,95.003662 
z"/>
<path fill="#20E5CA" opacity="1.000000" stroke="none" 
	d="
M119.022362,117.015938 
	C119.016014,115.944969 119.009659,114.874001 119.012329,113.401169 
	C119.021347,112.999313 119.504501,112.997818 119.745773,112.996353 
	C119.987038,112.994896 120.000183,113.000320 120.000229,113.401688 
	C120.000900,114.867683 120.001518,115.932312 120.002136,116.996948 
	C120.002136,116.996948 119.999840,117.000000 119.755325,117.002762 
	C119.510811,117.005524 119.022362,117.015938 119.022362,117.015938 
z"/>
<path fill="#31E5BD" opacity="1.000000" stroke="none" 
	d="
M163.169525,87.319702 
	C163.462051,87.112396 163.886475,87.103142 164.615219,87.193314 
	C164.380173,87.367744 163.840790,87.442757 163.169525,87.319702 
z"/>
<path fill="#D6B0FE" opacity="1.000000" stroke="none" 
	d="
M110.973175,120.995239 
	C110.980087,121.439850 110.986992,121.884453 110.990494,122.662476 
	C106.861504,125.549225 102.652153,127.977989 98.628784,130.683350 
	C91.511238,135.469254 84.128128,139.976074 77.611961,145.492493 
	C74.262245,148.328278 71.144402,150.330399 66.891350,150.507584 
	C66.049805,150.542633 65.181503,149.935669 64.162476,149.312393 
	C64.785446,148.350464 65.571495,147.700912 67.030090,146.989334 
	C73.568459,143.212952 79.455513,139.531601 85.293549,135.774094 
	C90.190491,132.622284 95.536880,129.925018 99.736237,126.009689 
	C103.141899,122.834366 106.379517,120.798546 110.973175,120.995239 
z"/>
<path fill="#48D66C" opacity="1.000000" stroke="none" 
	d="
M48.999840,92.643921 
	C42.576050,95.321190 36.165661,97.616722 29.381010,99.941986 
	C29.173344,99.189590 29.074043,97.988571 29.546680,97.688560 
	C35.955875,93.620193 42.421963,89.639236 48.939087,85.745636 
	C49.853443,85.199356 51.113934,85.232452 52.949177,84.963730 
	C54.788876,83.619972 55.893597,82.309860 56.998322,80.999741 
	C56.998322,80.999741 57.497971,80.998184 57.747765,80.997269 
	C63.907681,78.256355 69.924667,75.721825 75.697899,72.718689 
	C81.485741,69.707954 87.077347,66.307182 92.661201,62.922665 
	C95.340050,61.298943 97.802612,59.318386 101.257263,56.864258 
	C100.268936,59.245979 99.641800,60.757278 99.007034,62.633694 
	C90.435204,67.799789 81.899765,72.653168 73.292732,77.376053 
	C69.833328,79.274307 66.044304,80.610489 62.713123,82.694511 
	C57.997086,85.644913 53.566078,89.050911 48.999840,92.643921 
z"/>
<path fill="#7BC7FC" opacity="1.000000" stroke="none" 
	d="
M108.038284,31.323957 
	C108.057510,30.924711 108.527992,30.982176 108.757431,31.042377 
	C111.814407,33.938530 114.641953,36.774483 117.737381,40.052898 
	C118.004745,40.663727 118.004227,40.832092 118.003708,41.000458 
	C117.668800,42.090866 117.333893,43.181274 116.997513,44.638462 
	C111.006958,42.603317 109.048553,37.477173 108.038284,31.323957 
z"/>
<path fill="#7BC7FC" opacity="1.000000" stroke="none" 
	d="
M118.035919,47.345051 
	C118.999985,48.089718 119.995995,49.180962 120.995544,50.636414 
	C120.022011,49.897625 119.044937,48.794628 118.035919,47.345051 
z"/>
<path fill="#7BC7FC" opacity="1.000000" stroke="none" 
	d="
M104.492538,27.088936 
	C104.838676,27.162437 104.899925,27.597086 104.863159,27.813934 
	C104.114243,28.024488 103.402100,28.018196 102.331299,28.019855 
	C101.342468,27.548859 100.712296,27.069914 100.068359,26.262886 
	C101.418533,26.295013 102.782471,26.655224 104.492538,27.088936 
z"/>
<path fill="#7BC7FC" opacity="1.000000" stroke="none" 
	d="
M105.083107,29.238018 
	C105.469772,28.924088 105.886940,28.971495 106.616501,29.053642 
	C107.239235,29.537388 107.549576,29.986393 107.962173,30.689583 
	C107.080818,30.495628 106.097221,30.047491 105.083107,29.238018 
z"/>
<path fill="#59CAFE" opacity="1.000000" stroke="none" 
	d="
M126.872467,70.855759 
	C126.687019,70.905098 126.398872,70.712349 126.014236,70.275459 
	C126.201759,70.225449 126.485771,70.419563 126.872467,70.855759 
z"/>
<path fill="#27D2A3" opacity="1.000000" stroke="none" 
	d="
M57.990616,59.006065 
	C63.558205,55.639225 69.124695,52.270569 74.694557,48.907497 
	C75.536407,48.399193 76.591568,48.092617 77.212471,47.394325 
	C81.533661,42.534531 87.114807,39.897011 93.584854,38.283020 
	C93.990387,38.658604 94.000305,38.829151 93.968842,39.351162 
	C93.178757,40.514214 92.571480,41.569656 91.658997,42.098919 
	C84.161224,46.447788 76.514465,50.547951 69.122917,55.067066 
	C66.756783,56.513699 65.020523,58.990555 62.596565,60.996979 
	C61.131081,60.999165 60.065113,61.000420 58.889267,60.780579 
	C58.576435,60.284046 58.311417,60.096127 57.986748,59.748306 
	C57.989159,59.500900 57.990616,59.006065 57.990616,59.006065 
z"/>
<path fill="#37CFB0" opacity="1.000000" stroke="none" 
	d="
M57.565224,59.006004 
	C57.990616,59.006065 57.989159,59.500900 57.673988,59.888172 
	C55.251751,61.378731 53.557583,64.313194 50.633247,61.791943 
	C50.756065,61.421696 50.878887,61.051445 51.064301,60.395966 
	C51.455078,60.000538 51.704163,59.794647 51.946407,59.257088 
	C52.018665,59.021114 52.438568,58.967232 52.649601,58.958214 
	C54.287033,58.968109 55.713428,58.987026 57.565224,59.006004 
z"/>
<path fill="#39D297" opacity="1.000000" stroke="none" 
	d="
M94.010216,38.999699 
	C94.000305,38.829151 93.990387,38.658604 93.950089,38.233292 
	C93.941437,37.790459 93.963165,37.602394 94.024178,37.132614 
	C94.706818,37.336742 95.350189,37.822578 95.683495,38.648590 
	C94.919029,38.992405 94.464622,38.996052 94.010216,38.999699 
z"/>
<path fill="#37CFB0" opacity="1.000000" stroke="none" 
	d="
M59.107857,50.464966 
	C59.180679,50.182194 59.604553,50.115257 59.818916,50.105724 
	C59.808327,50.628124 59.583370,51.160057 59.071030,51.786221 
	C58.867443,51.502880 58.951237,51.125309 59.107857,50.464966 
z"/>
<path fill="#37CFB0" opacity="1.000000" stroke="none" 
	d="
M55.990005,54.371201 
	C56.071671,54.073608 56.525810,54.010567 56.752769,53.978222 
	C56.702141,54.531178 56.424549,55.116478 55.805321,55.762157 
	C55.611908,55.437954 55.760120,55.053375 55.990005,54.371201 
z"/>
<path fill="#27D2A3" opacity="1.000000" stroke="none" 
	d="
M93.685562,35.120811 
	C93.825714,35.026104 93.932152,35.502209 93.899841,35.744011 
	C93.760162,35.729046 93.652786,35.472282 93.685562,35.120811 
z"/>
<path fill="#37CFB0" opacity="1.000000" stroke="none" 
	d="
M58.064198,52.845860 
	C57.983761,52.623657 58.172535,52.320995 58.614525,51.919411 
	C58.689632,52.135460 58.511520,52.450428 58.064198,52.845860 
z"/>
<path fill="#DBB0FF" opacity="1.000000" stroke="none" 
	d="
M110.982666,120.558800 
	C106.379517,120.798546 103.141899,122.834366 99.736237,126.009689 
	C95.536880,129.925018 90.190491,132.622284 85.293549,135.774094 
	C79.455513,139.531601 73.568459,143.212952 67.351273,146.963043 
	C70.726570,143.134521 74.254379,139.048523 78.240509,135.473572 
	C81.656319,132.410095 85.607025,129.945343 89.302071,127.190193 
	C92.182220,125.042664 95.032997,122.855759 97.948257,120.343475 
	C98.905708,119.526146 99.811729,119.051689 101.229370,118.288315 
	C103.160286,117.333076 104.579590,116.666756 105.998886,116.000427 
	C106.322113,115.898766 106.583641,115.711121 107.212448,115.176903 
	C108.094238,114.278145 108.547050,113.639992 108.999863,113.001831 
	C108.999863,113.001831 109.499039,113.000916 109.748604,113.000275 
	C110.325493,113.102814 110.589851,113.293343 110.903038,113.792816 
	C111.007263,116.050392 110.999718,118.086380 110.982666,120.558800 
z"/>
<path fill="#48B8E4" opacity="1.000000" stroke="none" 
	d="
M104.938179,44.781281 
	C104.929214,45.100430 104.469231,45.094753 104.246910,45.036125 
	C103.970314,44.545708 103.916046,44.113918 103.880791,43.355370 
	C104.248917,43.506454 104.598030,43.984295 104.938179,44.781281 
z"/>
<path fill="#48B8E4" opacity="1.000000" stroke="none" 
	d="
M103.939575,42.754532 
	C103.596893,42.593937 103.255852,42.118359 102.914368,41.332405 
	C103.256363,41.494541 103.598793,41.967045 103.939575,42.754532 
z"/>
<path fill="#48B8E4" opacity="1.000000" stroke="none" 
	d="
M100.946327,36.771957 
	C100.943245,37.089706 100.522446,37.014500 100.317703,36.953846 
	C100.053696,36.479351 99.994415,36.065510 99.922173,35.337471 
	C100.255936,35.500252 100.602669,35.977230 100.946327,36.771957 
z"/>
<path fill="#1DCFAF" opacity="1.000000" stroke="none" 
	d="
M68.140182,40.817490 
	C68.042686,40.609333 68.215187,40.281654 68.625031,39.798668 
	C68.711639,39.994900 68.560921,40.346436 68.140182,40.817490 
z"/>
<path fill="#1DCFAF" opacity="1.000000" stroke="none" 
	d="
M67.099236,41.852463 
	C67.029167,41.637894 67.218773,41.338623 67.669479,40.954689 
	C67.740021,41.169270 67.549469,41.468517 67.099236,41.852463 
z"/>
<path fill="#40D680" opacity="1.000000" stroke="none" 
	d="
M99.322777,48.867043 
	C100.193634,49.694290 101.064484,50.521534 101.980209,51.654243 
	C99.946854,53.563744 98.024033,55.442581 95.762108,56.721817 
	C88.051079,61.082802 80.220612,65.232590 72.217865,69.732040 
	C66.874359,72.566940 61.679165,75.004387 56.642010,77.733528 
	C51.250530,80.654648 46.007946,83.850586 40.348396,86.961411 
	C40.261925,79.481491 47.837631,80.660088 51.578876,77.275314 
	C52.965679,76.020645 54.472897,74.899086 56.213318,73.360313 
	C56.501442,73.003807 57.000267,73.003540 57.199501,73.250717 
	C59.598957,71.998489 61.799175,70.499092 64.248894,68.998802 
	C64.498398,68.997910 64.997406,68.996643 65.373489,68.992805 
	C73.286888,64.704887 80.941956,60.610561 88.302979,56.042404 
	C91.207146,54.240116 93.455803,51.381577 96.417709,49.001335 
	C97.662567,48.954796 98.492676,48.910919 99.322777,48.867043 
z"/>
<path fill="#4BD867" opacity="1.000000" stroke="none" 
	d="
M104.253395,60.312119 
	C104.179626,61.311375 103.907501,62.057983 103.354019,62.935120 
	C103.400124,62.063591 103.727577,61.061531 104.253395,60.312119 
z"/>
<path fill="#48D874" opacity="1.000000" stroke="none" 
	d="
M56.655334,81.033813 
	C55.893597,82.309860 54.788876,83.619972 53.340515,84.962341 
	C54.102032,83.685692 55.207188,82.376793 56.655334,81.033813 
z"/>
<path fill="#01E3FC" opacity="1.000000" stroke="none" 
	d="
M120.290131,170.287277 
	C119.991478,170.081436 119.545479,169.981323 119.320518,169.945312 
	C119.072250,159.918945 119.048943,149.928589 119.007889,139.470032 
	C119.018356,138.837433 119.046570,138.673035 119.536903,138.257324 
	C122.284271,137.815506 124.760185,138.127594 126.821159,137.345825 
	C134.938065,134.266830 142.856232,130.654922 151.016586,127.707054 
	C152.663742,127.112022 155.044754,128.548462 157.087418,129.048325 
	C151.483017,137.787216 146.069550,146.656967 140.203293,155.216415 
	C136.626434,160.435410 132.462677,165.270660 128.347519,170.094879 
	C126.099091,172.730698 123.313286,173.046371 120.290131,170.287277 
z"/>
<path fill="#01E4F2" opacity="1.000000" stroke="none" 
	d="
M157.393066,128.895645 
	C155.044754,128.548462 152.663742,127.112022 151.016586,127.707054 
	C142.856232,130.654922 134.938065,134.266830 126.821159,137.345825 
	C124.760185,138.127594 122.284271,137.815506 119.577774,138.010483 
	C119.128967,135.642502 119.101395,133.270081 119.511993,130.451065 
	C120.940094,129.953888 121.988815,130.099319 122.910965,129.822723 
	C133.446960,126.662430 144.110458,123.833832 154.406509,120.017227 
	C158.046692,118.667870 162.973953,118.571907 165.340820,114.001511 
	C166.135910,114.018517 166.590332,114.033714 167.044754,114.048920 
	C163.929413,118.946938 160.814056,123.844955 157.393066,128.895645 
z"/>
<path fill="#01E3E3" opacity="1.000000" stroke="none" 
	d="
M167.033081,114.038956 
	C166.590332,114.033714 166.135910,114.018517 165.191223,113.695938 
	C162.772369,110.035095 160.220657,111.680809 157.853928,112.618050 
	C153.832733,114.210442 149.965729,116.270470 145.848526,117.525993 
	C136.997620,120.225029 128.028748,122.537170 119.108162,125.007690 
	C119.082657,123.940735 119.057152,122.873779 119.277527,121.405075 
	C119.523407,121.003334 119.998825,120.999878 119.998825,120.999878 
	C128.586105,117.742058 137.163849,114.458641 145.769531,111.250183 
	C147.306870,110.677017 148.938583,110.225075 150.563324,110.041862 
	C156.592346,109.362007 162.404190,108.259834 166.729248,102.677879 
	C168.866028,104.356201 170.771759,105.853043 172.824677,107.645844 
	C172.971878,107.941803 172.940414,108.423027 172.903229,108.660751 
	C172.099945,109.529732 171.333832,110.160980 170.231384,110.565010 
	C167.031540,108.874107 167.031540,108.874107 167.036392,114.037132 
	C167.036392,114.037132 167.021408,114.028992 167.033081,114.038956 
z"/>
<path fill="#00E4E9" opacity="1.000000" stroke="none" 
	d="
M167.374634,114.005844 
	C167.031540,108.874107 167.031540,108.874107 169.963348,110.698090 
	C169.258698,112.030449 168.485794,113.002502 167.374634,114.005844 
z"/>
<path fill="#8EC1FE" opacity="1.000000" stroke="none" 
	d="
M142.996674,73.623245 
	C138.568161,75.002548 138.117020,71.273720 136.697403,68.694580 
	C134.136871,64.042656 131.574997,59.391476 129.013824,54.364147 
	C130.008667,54.494404 131.407654,54.738232 131.933319,55.548584 
	C135.718704,61.383972 139.327026,67.334206 142.996674,73.623245 
z"/>
<path fill="#8EC1FE" opacity="1.000000" stroke="none" 
	d="
M118.312378,41.152901 
	C118.004227,40.832092 118.004745,40.663727 118.009995,40.242729 
	C118.758492,39.994289 119.502243,39.998486 120.617867,40.008766 
	C121.449722,40.335152 121.909714,40.655457 122.660126,41.013008 
	C124.944351,44.464317 126.938133,47.878376 128.966263,51.645805 
	C126.677444,50.203266 124.170242,48.594109 122.093781,46.547855 
	C120.632858,45.108185 119.757744,43.074047 118.312378,41.152901 
z"/>
<path fill="#37D58E" opacity="1.000000" stroke="none" 
	d="
M57.000267,73.003540 
	C57.000267,73.003540 56.501442,73.003807 56.252064,73.004395 
	C52.586540,74.333656 49.170395,75.662338 45.376823,76.996582 
	C45.910183,75.537361 46.820972,74.072586 48.197212,72.300964 
	C49.105854,71.991508 49.549034,71.988914 50.360035,71.986038 
	C52.150612,70.992035 53.573368,69.998306 55.255974,68.896484 
	C56.011578,68.524208 56.507339,68.260033 57.360886,67.958054 
	C62.145885,64.947586 66.573097,61.974934 71.250381,59.001495 
	C71.667175,59.000172 71.833893,58.999630 72.340584,58.964954 
	C73.453445,57.954899 74.226326,56.978977 75.206314,55.723961 
	C78.609550,53.962425 81.805687,52.479984 85.321976,50.956432 
	C86.094292,50.277493 86.546440,49.639664 87.249199,49.000790 
	C87.666885,48.999172 87.833954,48.998592 88.382553,48.998085 
	C90.509262,47.666302 92.254440,46.334450 94.332672,45.001499 
	C95.109802,44.998947 95.553879,44.997490 96.358398,44.993778 
	C97.199089,44.971458 97.679337,44.951393 98.159576,44.931332 
	C98.522896,46.005562 98.886215,47.079796 99.286156,48.510536 
	C98.492676,48.910919 97.662567,48.954796 96.059113,49.035980 
	C85.611160,54.864231 75.920258,60.628448 66.296494,66.502670 
	C65.611313,66.920898 65.418930,68.146469 64.997406,68.996643 
	C64.997406,68.996643 64.498398,68.997910 63.886124,69.002609 
	C61.182659,70.339386 59.091465,71.671463 57.000267,73.003540 
z"/>
<path fill="#2ECFA2" opacity="1.000000" stroke="none" 
	d="
M49.992218,71.986313 
	C49.549034,71.988914 49.105854,71.991508 48.330219,71.995728 
	C47.010246,71.153816 46.022724,70.310303 44.977112,69.120499 
	C46.649624,66.571556 48.380230,64.368896 50.372040,61.979088 
	C53.557583,64.313194 55.251751,61.378731 57.671577,60.135578 
	C58.311417,60.096127 58.576435,60.284046 58.787273,61.042358 
	C58.529476,62.018013 58.263794,62.510788 57.753906,63.169933 
	C57.339184,63.888905 57.168663,64.441505 56.642441,65.031563 
	C54.191597,66.714554 52.096458,68.360100 49.999702,70.335823 
	C49.996124,71.106110 49.994171,71.546211 49.992218,71.986313 
z"/>
<path fill="#2FD39A" opacity="1.000000" stroke="none" 
	d="
M95.997955,44.996033 
	C95.553879,44.997490 95.109802,44.998947 93.978661,45.036289 
	C91.528076,46.380787 89.764549,47.689400 88.001030,48.998016 
	C87.833954,48.998592 87.666885,48.999172 86.929062,49.042007 
	C85.906151,49.722023 85.453987,50.359783 85.001816,50.997543 
	C81.805687,52.479984 78.609550,53.962425 74.866295,55.757523 
	C73.546318,57.046482 72.773460,58.022781 72.000610,58.999084 
	C71.833893,58.999630 71.667175,59.000172 70.878296,59.041676 
	C67.838036,59.722420 65.419937,60.362202 63.000893,61.000969 
	C62.999954,60.999954 62.996082,60.996056 62.996078,60.996056 
	C65.020523,58.990555 66.756783,56.513699 69.122917,55.067066 
	C76.514465,50.547951 84.161224,46.447788 91.658997,42.098919 
	C92.571480,41.569656 93.178757,40.514214 93.968842,39.351162 
	C94.464622,38.996052 94.919029,38.992405 95.714264,38.972515 
	C96.055084,38.956268 96.021461,38.969894 96.027771,39.251602 
	C96.309731,40.013847 96.585388,40.494389 96.861038,40.974930 
	C96.944550,41.401451 97.028061,41.827976 96.878998,42.744431 
	C96.430260,43.821587 96.214104,44.408810 95.997955,44.996033 
z"/>
<path fill="#39D297" opacity="1.000000" stroke="none" 
	d="
M96.358398,44.993778 
	C96.214104,44.408810 96.430260,43.821587 96.923218,43.068077 
	C97.492577,43.379074 97.785133,43.856354 98.118629,44.632484 
	C97.679337,44.951393 97.199089,44.971458 96.358398,44.993778 
z"/>
<path fill="#39D297" opacity="1.000000" stroke="none" 
	d="
M96.902130,40.681877 
	C96.585388,40.494389 96.309731,40.013847 96.036133,39.241737 
	C96.339867,39.429718 96.641541,39.909271 96.902130,40.681877 
z"/>
<path fill="#00E4E9" opacity="1.000000" stroke="none" 
	d="
M119.076012,125.423721 
	C128.028748,122.537170 136.997620,120.225029 145.848526,117.525993 
	C149.965729,116.270470 153.832733,114.210442 157.853928,112.618050 
	C160.220657,111.680809 162.772369,110.035095 164.850555,113.694122 
	C162.973953,118.571907 158.046692,118.667870 154.406509,120.017227 
	C144.110458,123.833832 133.446960,126.662430 122.910965,129.822723 
	C121.988815,130.099319 120.940094,129.953888 119.545135,130.008453 
	C119.108025,128.621536 119.075943,127.230644 119.076012,125.423721 
z"/>
<path fill="#11DCE7" opacity="1.000000" stroke="none" 
	d="
M119.998611,120.600357 
	C119.998825,120.999878 119.523407,121.003334 119.286751,121.004730 
	C119.036568,119.941292 119.023041,118.876450 119.015945,117.413773 
	C119.022362,117.015938 119.510811,117.005524 119.755066,117.004890 
	C119.999016,118.069786 119.998703,119.135315 119.998611,120.600357 
z"/>
<path fill="#DFADFE" opacity="1.000000" stroke="none" 
	d="
M105.603409,116.000320 
	C104.579590,116.666756 103.160286,117.333076 101.370651,117.999237 
	C102.402855,117.332794 103.805389,116.666504 105.603409,116.000320 
z"/>
<path fill="#DFADFE" opacity="1.000000" stroke="none" 
	d="
M108.679367,113.042877 
	C108.547050,113.639992 108.094238,114.278145 107.321014,114.957550 
	C107.453362,114.360497 107.906105,113.722206 108.679367,113.042877 
z"/>
<path fill="#0AE4D4" opacity="1.000000" stroke="none" 
	d="
M120.354782,116.961746 
	C120.001518,115.932312 120.000900,114.867683 120.005051,113.403931 
	C125.558144,110.720940 131.050613,108.287544 136.667984,106.188408 
	C144.967514,103.086990 153.319397,100.112640 161.733490,97.340660 
	C163.688065,96.696747 165.983337,97.087051 168.561447,97.002029 
	C167.407150,101.206474 163.993881,100.960136 160.187271,101.746796 
	C152.474121,103.340782 145.023056,106.392242 137.624191,109.256775 
	C131.859543,111.488609 126.337357,114.346748 120.354782,116.961746 
z"/>
<path fill="#2FD39A" opacity="1.000000" stroke="none" 
	d="
M57.998116,63.003563 
	C58.263794,62.510788 58.529476,62.018013 58.897152,61.263458 
	C60.065113,61.000420 61.131081,60.999165 62.596565,60.996983 
	C62.996082,60.996056 62.999954,60.999954 62.929077,61.369919 
	C61.238174,62.161106 59.618145,62.582333 57.998116,63.003563 
z"/>
<path fill="#3CD687" opacity="1.000000" stroke="none" 
	d="
M65.373489,68.992805 
	C65.418930,68.146469 65.611313,66.920898 66.296494,66.502670 
	C75.920258,60.628448 85.611160,54.864231 95.644356,49.038643 
	C93.455803,51.381577 91.207146,54.240116 88.302979,56.042404 
	C80.941956,60.610561 73.286888,64.704887 65.373489,68.992805 
z"/>
<path fill="#3CD687" opacity="1.000000" stroke="none" 
	d="
M57.199505,73.250717 
	C59.091465,71.671463 61.182659,70.339386 63.636620,69.003502 
	C61.799175,70.499092 59.598957,71.998489 57.199505,73.250717 
z"/>
<path fill="#39D297" opacity="1.000000" stroke="none" 
	d="
M57.753910,63.169933 
	C59.618145,62.582333 61.238174,62.161106 62.930016,61.370934 
	C65.419937,60.362202 67.838036,59.722420 70.628227,59.042458 
	C66.573097,61.974934 62.145885,64.947586 57.360119,67.583000 
	C57.000423,66.495209 56.999283,65.744659 56.998142,64.994110 
	C57.168663,64.441505 57.339184,63.888905 57.753910,63.169933 
z"/>
<path fill="#2FD39A" opacity="1.000000" stroke="none" 
	d="
M56.642441,65.031563 
	C56.999283,65.744659 57.000423,66.495209 57.002335,67.620811 
	C56.507339,68.260033 56.011578,68.524208 54.891281,68.934174 
	C52.844936,69.388527 51.423130,69.697090 50.001320,70.005646 
	C52.096458,68.360100 54.191597,66.714554 56.642441,65.031563 
z"/>
<path fill="#39D297" opacity="1.000000" stroke="none" 
	d="
M88.382553,48.998085 
	C89.764549,47.689400 91.528076,46.380787 93.645607,45.037384 
	C92.254440,46.334450 90.509262,47.666302 88.382553,48.998085 
z"/>
<path fill="#39D297" opacity="1.000000" stroke="none" 
	d="
M49.999702,70.335823 
	C51.423130,69.697090 52.844936,69.388527 54.631435,69.042274 
	C53.573368,69.998306 52.150612,70.992035 50.360035,71.986038 
	C49.994171,71.546211 49.996124,71.106110 49.999702,70.335823 
z"/>
<path fill="#39D297" opacity="1.000000" stroke="none" 
	d="
M72.340584,58.964954 
	C72.773460,58.022781 73.546318,57.046482 74.659187,56.036617 
	C74.226326,56.978977 73.453445,57.954899 72.340584,58.964954 
z"/>
<path fill="#39D297" opacity="1.000000" stroke="none" 
	d="
M85.321976,50.956432 
	C85.453987,50.359783 85.906151,49.722023 86.678452,49.043045 
	C86.546440,49.639664 86.094292,50.277493 85.321976,50.956432 
z"/>
</svg>