<?xml version="1.0" ?><svg data-name="Layer 1" id="Layer_1" viewBox="0 0 512 512" xmlns="http://www.w3.org/2000/svg"><defs><style>.cls-1{fill:#333;}</style></defs><title/><path class="cls-1" d="M468,117.5,357.94,8H115.58C98.79,8,85,20.86,85,37.65v156.6a7.17,7.17,0,0,1,1.7-.25H100V37.65C100,29.27,107.2,23,115.58,23H351.16L356,27.54V89.13A30,30,0,0,0,386.31,119h61.59l4.09,4.8V473.35c0,8.38-5.82,15.65-14.2,15.65H115.58A15.94,15.94,0,0,1,100,473.35V413H86.7c-.68,0-1.7,0-1.7,0v60.34A30.77,30.77,0,0,0,115.58,504H437.8c16.79,0,30.2-13.86,30.2-30.65ZM386.31,104A15,15,0,0,1,371,89.13V43.94L431.5,104Z"/><path class="cls-1" d="M229.64,279.51h-7.38V332h5.64q11.54,0,16.93-6.7t5.39-20.49q0-12.89-5.1-19.11T229.64,279.51Z"/><path class="cls-1" d="M134.53,278.35q-19,0-19,27.45,0,27.19,18.92,27.19,9.62,0,14.27-6.61t4.65-20.59q0-14-4.71-20.75T134.53,278.35Z"/><path class="cls-1" d="M373.6,209H74.4A30.4,30.4,0,0,0,44,239.4V366.6A30.4,30.4,0,0,0,74.4,397H373.6A30.4,30.4,0,0,0,404,366.6V239.4A30.4,30.4,0,0,0,373.6,209ZM168.4,341.78q-11.61,12.31-34,12.31-22.06,0-33.83-12.38t-11.77-36q0-23.41,11.7-35.75t34-12.34q22.38,0,33.93,12.25t11.54,36Q180,329.47,168.4,341.78Zm95.21-1.67q-12.92,12.7-36.33,12.7H196.94V259h32.45q22.57,0,34.86,11.54t12.28,33.35Q276.52,327.42,263.6,340.11Zm54-51.18q2.85,2.18,15.49,8,12.12,5.45,16.83,11.7t4.71,15.74a27.65,27.65,0,0,1-4.42,15.49,29,29,0,0,1-12.76,10.52,47.31,47.31,0,0,1-19.56,3.75,79.17,79.17,0,0,1-15.71-1.31A58.34,58.34,0,0,1,289,348.19V325.62a75.33,75.33,0,0,0,15.07,5.8,56.15,56.15,0,0,0,14.37,2.08q5.64,0,8.27-2a6,6,0,0,0,2.63-5,5.55,5.55,0,0,0-1.06-3.37,12.34,12.34,0,0,0-3.4-2.92q-2.34-1.47-12.47-6-9.17-4.17-13.76-8.08a24.8,24.8,0,0,1-6.8-9,29.79,29.79,0,0,1-2.21-12q0-13,9.43-20.2t25.91-7.25a72.71,72.71,0,0,1,29.69,6.73L346.88,284q-13.15-6-22.7-6-4.94,0-7.18,1.73a5.24,5.24,0,0,0-2.24,4.3Q314.75,286.75,317.6,288.93Z"/></svg>