<svg xmlns="http://www.w3.org/2000/svg" width="24" height="24" fill="none" viewBox="0 0 24 24" id="google-chat">
  <rect width="20" height="13" x="2" y="3" fill="#01AF59" rx="6.5"></rect>
  <path fill="url(#paint0_linear_13_10)" d="M16.5 5.5C20.0898 5.5 23 8.41015 23 12C23 15.5899 20.0899 18.5 16.5 18.5H12.1816L7.15723 21.751C6.65822 22.0738 6 21.7154 6 21.1211V18.3232C3.13362 17.6458 1 15.0734 1 12C1 8.41015 3.91015 5.5 7.5 5.5H16.5Z"></path>
  <path fill="url(#paint1_linear_13_10)" d="M16.5 5.5C20.0898 5.5 23 8.41015 23 12C23 15.5899 20.0899 18.5 16.5 18.5H12.1816L7.15723 21.751C6.65822 22.0738 6 21.7154 6 21.1211V18.3232C3.13362 17.6458 1 15.0734 1 12C1 8.41015 3.91015 5.5 7.5 5.5H16.5Z"></path>
  <path stroke="#fff" stroke-linecap="round" stroke-width="1.5" d="M7.75 11.5C10 14.5 14 14.5 16.25 11.5"></path>
  <defs>
    <linearGradient id="paint0_linear_13_10" x1="12" x2="12" y1="5.5" y2="21.872" gradientUnits="userSpaceOnUse">
      <stop stop-color="#7FCCFD"></stop>
      <stop offset=".352" stop-color="#0EBB5E"></stop>
    </linearGradient>
    <linearGradient id="paint1_linear_13_10" x1="23" x2="1" y1="13.686" y2="13.686" gradientUnits="userSpaceOnUse">
      <stop stop-color="#0EBB5E"></stop>
      <stop offset=".15" stop-color="#0EBB5E" stop-opacity="0"></stop>
      <stop offset=".85" stop-color="#0EBB5E" stop-opacity="0"></stop>
      <stop offset="1" stop-color="#0EBB5E"></stop>
    </linearGradient>
  </defs>
</svg>
