<?xml version="1.0" encoding="iso-8859-1"?>
<!-- Uploaded to: SVG Repo, www.svgrepo.com, Generator: SVG Repo Mixer Tools -->
<svg fill="#000000" height="800px" width="800px" version="1.1" id="Capa_1" xmlns="http://www.w3.org/2000/svg" xmlns:xlink="http://www.w3.org/1999/xlink" 
	 viewBox="0 0 230 230" xml:space="preserve">
<g>
	<path d="M214.264,55.602L197.317,0H32.683L15.735,55.604c-2.586,3.749-4.105,8.289-4.105,13.178
		c0,12.83,10.438,23.269,23.269,23.269c8.513,0,15.969-4.598,20.025-11.439c4.057,6.84,11.513,11.439,20.025,11.439
		s15.969-4.598,20.025-11.439C99.031,87.452,106.487,92.05,115,92.05c8.513,0,15.969-4.598,20.026-11.438
		c4.057,6.84,11.512,11.438,20.025,11.438c8.513,0,15.969-4.598,20.026-11.438c4.057,6.84,11.513,11.438,20.026,11.438
		c12.83,0,23.269-10.438,23.269-23.269C218.371,63.891,216.851,59.351,214.264,55.602z"/>
	<polygon points="174.667,200 114.667,200 114.667,118 54,118 34,118 23.667,118 23.667,230 204.667,230 204.667,118 174.667,118 	
		"/>
</g>
</svg>