<svg version="1.1" id="Layer_1" xmlns="http://www.w3.org/2000/svg" xmlns:xlink="http://www.w3.org/1999/xlink" x="0px" y="0px"
	 width="100%" viewBox="0 0 225 225" enable-background="new 0 0 225 225" xml:space="preserve">
<path fill="#60A3E2" opacity="1.000000" stroke="none" 
	d="
M0.999999,196.000000 
	C1.000000,161.645767 1.000000,127.291542 1.313630,92.286285 
	C1.981354,90.703674 2.361274,89.780983 2.685704,88.839188 
	C8.279263,72.601440 21.340763,63.039757 38.384876,62.807747 
	C45.040985,62.717144 51.703403,62.648262 58.354839,62.844429 
	C61.625839,62.940899 62.765694,61.794781 62.688969,58.545570 
	C62.523998,51.559464 62.527313,44.563828 62.680546,37.576885 
	C63.028664,21.703773 72.719154,8.411737 87.640312,3.034873 
	C89.142853,2.493432 90.549080,1.684692 92.000000,1.000001 
	C136.603348,1.000000 181.206696,1.000000 226.000000,1.000000 
	C226.000000,59.020756 226.000000,117.041718 225.688751,175.745605 
	C219.764603,201.655869 204.814545,218.003815 179.593002,224.598343 
	C178.045624,225.002930 176.530258,225.529938 175.000000,226.000000 
	C127.312439,226.000000 79.624878,226.000000 31.272308,225.695465 
	C17.010597,221.652878 7.282535,213.689209 2.767932,199.984482 
	C2.315552,198.611206 1.595712,197.326050 0.999999,196.000000 
M212.905426,46.500008 
	C212.905426,35.889652 212.905426,25.279297 212.905426,14.384007 
	C210.664642,14.274671 209.040161,14.126833 207.415634,14.126231 
	C172.257904,14.113193 137.100159,14.099070 101.942444,14.124615 
	C85.775093,14.136362 75.807808,24.148514 75.805382,40.306248 
	C75.798798,84.128441 75.818962,127.950638 75.795105,171.772827 
	C75.787453,185.828094 77.554977,200.238678 66.746475,212.905548 
	C69.716789,212.905548 71.338058,212.905548 72.959320,212.905533 
	C103.284950,212.905426 133.610580,212.914261 163.936203,212.902695 
	C193.066437,212.891602 212.881332,193.104507 212.899002,163.970413 
	C212.922562,125.146957 212.905167,86.323479 212.905426,46.500008 
M62.263439,191.584045 
	C62.263439,170.826080 62.263439,150.068130 62.263439,129.178024 
	C46.103146,129.178024 30.266861,129.178024 14.194027,129.178024 
	C14.194027,150.133774 13.728966,170.608185 14.368715,191.048019 
	C14.751550,203.279480 25.502790,212.550797 37.614918,212.881271 
	C49.857552,213.215317 59.890087,204.848267 62.263439,191.584045 
M14.107307,97.946121 
	C14.107307,103.585953 14.107307,109.225784 14.107307,115.530945 
	C29.770824,115.530945 45.048012,115.569527 60.323296,115.417374 
	C61.089378,115.409737 62.487484,113.758072 62.498325,112.858719 
	C62.644413,100.740242 62.596291,88.619415 62.596291,75.883888 
	C54.887466,75.883888 47.771099,75.874474 40.654762,75.885849 
	C25.803898,75.909599 17.437923,82.600258 14.107307,97.946121 
z"/>
<path fill="#FEFEFF" opacity="1.000000" stroke="none" 
	d="
M91.531342,1.000001 
	C90.549080,1.684692 89.142853,2.493432 87.640312,3.034873 
	C72.719154,8.411737 63.028664,21.703773 62.680546,37.576885 
	C62.527313,44.563828 62.523998,51.559464 62.688969,58.545570 
	C62.765694,61.794781 61.625839,62.940899 58.354839,62.844429 
	C51.703403,62.648262 45.040985,62.717144 38.384876,62.807747 
	C21.340763,63.039757 8.279263,72.601440 2.685704,88.839188 
	C2.361274,89.780983 1.981354,90.703674 1.313630,91.817627 
	C1.000000,61.739750 1.000000,31.479496 1.000000,1.000000 
	C31.020538,1.000000 61.041611,1.000000 91.531342,1.000001 
z"/>
<path fill="#FEFEFF" opacity="1.000000" stroke="none" 
	d="
M175.468658,226.000000 
	C176.530258,225.529938 178.045624,225.002930 179.593002,224.598343 
	C204.814545,218.003815 219.764603,201.655869 225.688751,176.214264 
	C226.000000,192.594147 226.000000,209.188278 226.000000,226.000000 
	C209.313065,226.000000 192.625198,226.000000 175.468658,226.000000 
z"/>
<path fill="#FCFDFE" opacity="1.000000" stroke="none" 
	d="
M0.999999,196.468658 
	C1.595712,197.326050 2.315552,198.611206 2.767932,199.984482 
	C7.282535,213.689209 17.010597,221.652878 30.803652,225.695465 
	C21.073498,226.000000 11.146996,226.000000 1.000000,226.000000 
	C1.000000,216.313553 1.000000,206.625427 0.999999,196.468658 
z"/>
<path fill="#FEFEFF" opacity="1.000000" stroke="none" 
	d="
M212.905396,47.000008 
	C212.905167,86.323479 212.922562,125.146957 212.899002,163.970413 
	C212.881332,193.104507 193.066437,212.891602 163.936203,212.902695 
	C133.610580,212.914261 103.284950,212.905426 72.959320,212.905533 
	C71.338058,212.905548 69.716789,212.905548 66.746475,212.905548 
	C77.554977,200.238678 75.787453,185.828094 75.795105,171.772827 
	C75.818962,127.950638 75.798798,84.128441 75.805382,40.306248 
	C75.807808,24.148514 85.775093,14.136362 101.942444,14.124615 
	C137.100159,14.099070 172.257904,14.113193 207.415634,14.126231 
	C209.040161,14.126833 210.664642,14.274671 212.905426,14.384007 
	C212.905426,25.279297 212.905426,35.889652 212.905396,47.000008 
M108.898087,168.053680 
	C132.038132,168.072266 155.178207,168.117706 178.318192,168.088699 
	C183.465012,168.082245 186.080063,165.828735 186.153275,161.719604 
	C186.227402,157.559601 183.559311,155.036087 178.643860,155.024841 
	C155.670044,154.972290 132.696014,155.020599 109.722153,154.982193 
	C105.905701,154.975800 103.076981,156.498138 102.284760,160.246109 
	C101.493706,163.988617 103.233383,166.678665 107.499428,167.931000 
	C107.499428,167.931000 107.969704,167.887268 108.898087,168.053680 
M102.005356,58.581154 
	C102.007927,66.233711 101.959343,73.886757 102.032547,81.538643 
	C102.075432,86.021599 104.243950,88.934814 108.919449,88.997955 
	C119.065247,89.134972 129.215561,89.124817 139.361343,88.982948 
	C143.509018,88.924942 145.872375,86.375740 145.932343,82.311340 
	C146.082062,72.165726 146.076172,62.015171 145.937698,51.869255 
	C145.881744,47.770863 143.392548,45.221458 139.354797,45.144253 
	C129.044846,44.947113 118.725311,44.940617 108.416313,45.165241 
	C104.613312,45.248104 102.416389,47.803978 102.069542,51.627014 
	C101.889816,53.607876 102.016891,55.616577 102.005356,58.581154 
M129.500244,115.449203 
	C122.517296,115.475563 115.530899,115.379753 108.552757,115.576553 
	C104.696548,115.685310 102.228241,118.000313 102.127151,121.851524 
	C102.026108,125.700897 104.423157,127.943481 108.203094,128.534348 
	C109.506508,128.738083 110.855247,128.691467 112.183304,128.691986 
	C133.466721,128.700348 154.750168,128.713806 176.033508,128.671356 
	C178.008621,128.667404 180.475616,128.950760 181.838181,127.930626 
	C183.716995,126.523964 186.002991,123.894974 185.836609,121.988358 
	C185.646378,119.808495 183.255417,117.450844 181.243607,115.937759 
	C180.026413,115.022316 177.714233,115.467644 175.893738,115.464478 
	C160.762604,115.438156 145.631409,115.449806 129.500244,115.449203 
z"/>
<path fill="#FDFEFF" opacity="1.000000" stroke="none" 
	d="
M62.196747,192.009964 
	C59.890087,204.848267 49.857552,213.215317 37.614918,212.881271 
	C25.502790,212.550797 14.751550,203.279480 14.368715,191.048019 
	C13.728966,170.608185 14.194027,150.133774 14.194027,129.178024 
	C30.266861,129.178024 46.103146,129.178024 62.263439,129.178024 
	C62.263439,150.068130 62.263439,170.826080 62.196747,192.009964 
z"/>
<path fill="#FBFDFE" opacity="1.000000" stroke="none" 
	d="
M14.137041,97.499680 
	C17.437923,82.600258 25.803898,75.909599 40.654762,75.885849 
	C47.771099,75.874474 54.887466,75.883888 62.596291,75.883888 
	C62.596291,88.619415 62.644413,100.740242 62.498325,112.858719 
	C62.487484,113.758072 61.089378,115.409737 60.323296,115.417374 
	C45.048012,115.569527 29.770824,115.530945 14.107307,115.530945 
	C14.107307,109.225784 14.107307,103.585953 14.137041,97.499680 
z"/>
<path fill="#5FA2E2" opacity="1.000000" stroke="none" 
	d="
M102.005356,58.096928 
	C102.016891,55.616577 101.889816,53.607876 102.069542,51.627014 
	C102.416389,47.803978 104.613312,45.248104 108.416313,45.165241 
	C118.725311,44.940617 129.044846,44.947113 139.354797,45.144253 
	C143.392548,45.221458 145.881744,47.770863 145.937698,51.869255 
	C146.076172,62.015171 146.082062,72.165726 145.932343,82.311340 
	C145.872375,86.375740 143.509018,88.924942 139.361343,88.982948 
	C129.215561,89.124817 119.065247,89.134972 108.919449,88.997955 
	C104.243950,88.934814 102.075432,86.021599 102.032547,81.538643 
	C101.959343,73.886757 102.007927,66.233711 102.005356,58.096928 
M116.116661,58.460617 
	C115.672935,64.087486 115.229202,69.714348 114.761871,75.640480 
	C121.323189,75.640480 126.854919,75.640480 132.620499,75.640480 
	C132.620499,69.786629 132.620499,64.257935 132.620499,58.230976 
	C127.199326,58.230976 122.099556,58.230976 116.116661,58.460617 
z"/>
<path fill="#63A4E3" opacity="1.000000" stroke="none" 
	d="
M130.000244,115.449593 
	C145.631409,115.449806 160.762604,115.438156 175.893738,115.464478 
	C177.714233,115.467644 180.026413,115.022316 181.243607,115.937759 
	C183.255417,117.450844 185.646378,119.808495 185.836609,121.988358 
	C186.002991,123.894974 183.716995,126.523964 181.838181,127.930626 
	C180.475616,128.950760 178.008621,128.667404 176.033508,128.671356 
	C154.750168,128.713806 133.466721,128.700348 112.183304,128.691986 
	C110.855247,128.691467 109.506508,128.738083 108.203094,128.534348 
	C104.423157,127.943481 102.026108,125.700897 102.127151,121.851524 
	C102.228241,118.000313 104.696548,115.685310 108.552757,115.576553 
	C115.530899,115.379753 122.517296,115.475563 130.000244,115.449593 
z"/>
<path fill="#5FA2E2" opacity="1.000000" stroke="none" 
	d="
M107.049744,167.786591 
	C103.233383,166.678665 101.493706,163.988617 102.284760,160.246109 
	C103.076981,156.498138 105.905701,154.975800 109.722153,154.982193 
	C132.696014,155.020599 155.670044,154.972290 178.643860,155.024841 
	C183.559311,155.036087 186.227402,157.559601 186.153275,161.719604 
	C186.080063,165.828735 183.465012,168.082245 178.318192,168.088699 
	C155.178207,168.117706 132.038132,168.072266 108.332916,167.890244 
	C107.523163,167.604385 107.283829,167.624313 107.049744,167.786591 
z"/>
<path fill="#539DE1" opacity="1.000000" stroke="none" 
	d="
M107.274582,167.858795 
	C107.283829,167.624313 107.523163,167.604385 107.868729,167.807037 
	C107.969704,167.887268 107.499428,167.931000 107.274582,167.858795 
z"/>
<path fill="#FAFCFE" opacity="1.000000" stroke="none" 
	d="
M116.558228,58.345795 
	C122.099556,58.230976 127.199326,58.230976 132.620499,58.230976 
	C132.620499,64.257935 132.620499,69.786629 132.620499,75.640480 
	C126.854919,75.640480 121.323189,75.640480 114.761871,75.640480 
	C115.229202,69.714348 115.672935,64.087486 116.558228,58.345795 
z"/>
</svg>