<svg xmlns="http://www.w3.org/2000/svg" version="1.0" preserveAspectRatio="xMidYMid meet" viewBox="235.67 225.26 448.93 449.14">

<g transform="translate(0.000000,900.000000) scale(0.100000,-0.100000)" fill="#000000" stroke="none">
<path d="M4499 6746 c-2 -2 -42 -6 -89 -10 -111 -9 -142 -13 -220 -31 -36 -8 -81 -17 -100 -19 -52 -8 -64 -11 -77 -19 -7 -5 -13 -5 -13 -1 0 3 -7 1 -15 -6 -8 -6 -19 -9 -25 -5 -5 3 -10 1 -10 -5 0 -7 -6 -10 -14 -7 -8 3 -17 3 -21 -1 -4 -4 -10 -7 -13 -8 -4 0 -25 -9 -46 -18 -21 -10 -47 -18 -57 -19 -11 -1 -19 -6 -19 -11 0 -5 -3 -6 -7 -3 -3 4 -12 2 -20 -4 -7 -6 -13 -8 -13 -3 0 5 -4 3 -9 -4 -4 -7 -18 -14 -29 -15 -12 -1 -22 -5 -22 -10 0 -4 -4 -5 -10 -2 -5 3 -10 1 -10 -5 0 -6 -4 -8 -10 -5 -5 3 -10 1 -10 -5 0 -6 -4 -8 -10 -5 -5 3 -10 1 -10 -5 0 -6 -4 -8 -10 -5 -5 3 -10 1 -10 -5 0 -6 -4 -8 -10 -5 -5 3 -10 1 -10 -5 0 -6 -4 -8 -10 -5 -5 3 -10 1 -10 -5 0 -6 -4 -9 -9 -5 -5 3 -16 -2 -24 -10 -9 -8 -20 -15 -26 -15 -6 0 -11 -5 -11 -11 0 -5 -4 -7 -10 -4 -5 3 -10 1 -10 -5 0 -6 -4 -9 -9 -6 -5 3 -12 -1 -15 -10 -3 -8 -10 -13 -14 -10 -5 3 -19 -4 -30 -15 -12 -11 -22 -16 -22 -12 0 4 -5 1 -10 -7 -5 -8 -14 -15 -20 -15 -6 0 -15 -7 -20 -15 -5 -8 -10 -11 -10 -7 0 4 -16 -8 -37 -28 -20 -19 -41 -35 -47 -35 -6 0 -19 -8 -28 -17 -9 -10 -33 -31 -54 -48 -20 -16 -49 -42 -64 -57 -15 -15 -31 -24 -36 -20 -4 4 -4 2 -1 -4 4 -7 -28 -46 -73 -90 -112 -111 -130 -131 -130 -140 0 -5 -17 -27 -37 -49 -21 -22 -36 -44 -35 -48 1 -4 -5 -10 -13 -13 -8 -3 -12 -10 -9 -15 3 -5 -2 -12 -10 -15 -9 -3 -14 -10 -11 -14 3 -4 -2 -11 -11 -14 -8 -3 -12 -10 -9 -16 3 -6 -1 -13 -9 -16 -9 -3 -14 -10 -11 -14 3 -4 -2 -11 -11 -14 -8 -3 -12 -10 -9 -16 3 -5 1 -10 -5 -10 -6 0 -8 -5 -5 -10 3 -6 -1 -13 -9 -16 -9 -3 -13 -10 -10 -15 3 -5 0 -9 -6 -9 -6 0 -8 -4 -5 -10 3 -5 1 -10 -5 -10 -6 0 -8 -4 -5 -10 3 -5 3 -10 -2 -10 -9 0 -53 -91 -53 -109 0 -6 -5 -11 -11 -11 -5 0 -7 -4 -4 -10 3 -5 1 -10 -4 -10 -6 0 -10 -3 -9 -7 1 -5 -3 -18 -10 -29 -6 -12 -8 -24 -5 -28 3 -3 2 -6 -3 -6 -5 0 -10 -10 -11 -22 -1 -11 -6 -24 -10 -27 -4 -3 -10 -15 -11 -26 -2 -11 -8 -21 -12 -23 -5 -2 -6 -10 -3 -18 3 -8 0 -14 -6 -14 -6 0 -8 -7 -5 -15 4 -8 1 -15 -6 -15 -6 0 -8 -4 -5 -10 3 -5 3 -16 -2 -22 -8 -14 -8 -15 -18 -63 -3 -16 -10 -34 -16 -41 -5 -6 -7 -13 -4 -15 2 -3 0 -23 -5 -45 -20 -88 -41 -223 -47 -299 -9 -109 -8 -336 1 -415 4 -36 9 -83 12 -105 4 -45 11 -78 19 -105 3 -10 8 -33 11 -51 9 -59 12 -74 14 -76 2 -2 3 -6 4 -10 1 -5 4 -12 7 -18 4 -5 10 -26 15 -45 10 -45 9 -40 23 -74 6 -16 13 -38 16 -50 2 -11 4 -23 5 -26 2 -3 2 -8 1 -12 0 -5 4 -8 10 -8 6 0 9 -7 5 -15 -3 -8 -1 -15 5 -15 6 0 7 -5 4 -10 -3 -5 -1 -10 5 -10 7 0 10 -7 6 -15 -3 -8 -1 -15 5 -15 6 0 7 -4 4 -10 -3 -5 -1 -10 5 -10 6 0 8 -4 5 -10 -3 -5 -1 -10 4 -10 6 0 10 -3 9 -7 -3 -16 15 -63 24 -63 5 0 6 -4 3 -10 -3 -5 -1 -10 5 -10 6 0 9 -4 6 -9 -3 -5 1 -12 10 -15 8 -3 12 -10 9 -16 -3 -5 -1 -10 5 -10 6 0 8 -4 5 -10 -3 -5 -2 -10 3 -10 6 0 13 -11 16 -25 4 -14 11 -25 17 -25 6 0 7 -4 4 -10 -3 -5 -1 -10 4 -10 6 0 11 -7 11 -15 0 -8 5 -15 11 -15 5 0 8 -4 5 -9 -3 -5 1 -11 9 -15 8 -3 15 -12 15 -21 0 -8 5 -15 10 -15 6 0 10 -7 10 -15 0 -8 4 -15 8 -15 5 0 17 -16 28 -35 10 -19 22 -35 26 -35 5 0 7 -3 6 -7 -2 -5 9 -20 22 -34 14 -14 39 -43 55 -64 17 -20 41 -49 55 -62 14 -14 24 -30 22 -35 -1 -5 2 -7 7 -4 5 3 42 -29 83 -72 42 -42 99 -95 128 -117 30 -22 63 -49 74 -60 12 -11 23 -20 26 -20 12 -1 90 -59 90 -67 0 -5 4 -7 8 -4 5 3 18 -3 29 -14 12 -10 23 -16 27 -13 3 3 8 -2 12 -11 3 -9 10 -13 15 -10 5 3 9 0 9 -5 0 -6 3 -10 8 -9 12 3 62 -25 62 -34 0 -5 4 -7 9 -3 5 3 16 -1 24 -9 8 -8 17 -12 21 -9 3 4 6 1 6 -6 0 -7 5 -9 10 -6 6 3 10 1 10 -5 0 -6 5 -8 10 -5 6 3 10 1 10 -5 0 -6 4 -9 9 -6 5 4 11 1 13 -4 2 -6 10 -12 18 -13 8 -2 21 -6 28 -10 6 -5 12 -5 12 0 0 4 4 2 9 -5 4 -7 18 -14 29 -15 12 -1 22 -5 22 -10 0 -4 5 -5 10 -2 6 3 10 1 10 -5 0 -7 7 -10 15 -6 8 3 15 1 15 -5 0 -6 7 -9 15 -5 8 3 15 0 15 -6 0 -6 3 -8 7 -5 3 4 11 2 18 -3 6 -5 27 -12 46 -14 19 -3 52 -12 74 -22 22 -9 41 -16 43 -15 1 0 3 1 5 0 1 0 11 -2 22 -4 19 -2 42 -7 105 -20 65 -14 87 -18 110 -20 14 -2 52 -6 85 -11 33 -4 132 -7 220 -8 142 0 198 3 325 19 19 3 55 7 80 10 48 5 54 7 145 30 33 9 71 17 85 20 14 2 26 4 28 6 1 1 7 3 12 4 6 1 12 4 15 5 3 1 9 3 14 4 5 0 12 4 16 8 4 4 13 4 21 1 8 -3 14 0 14 6 0 6 7 8 15 5 8 -4 15 -1 15 7 0 7 3 10 6 7 3 -4 17 0 31 7 15 8 30 12 35 9 4 -3 8 0 8 6 0 6 4 9 9 5 5 -3 12 -1 16 5 4 6 11 8 16 5 5 -4 9 -1 9 5 0 6 5 8 10 5 6 -3 10 -1 10 5 0 6 5 8 10 5 6 -3 10 -1 10 4 0 6 3 10 8 9 10 -2 146 65 150 75 2 4 8 5 13 1 5 -3 9 0 9 6 0 6 5 8 10 5 6 -3 10 -1 10 4 0 6 7 11 15 11 8 0 15 5 15 11 0 5 5 7 10 4 6 -3 10 -1 10 4 0 6 7 11 15 11 8 0 15 5 15 11 0 5 5 7 10 4 6 -3 13 1 16 9 3 9 10 14 14 11 4 -3 11 2 14 11 3 8 10 12 16 9 6 -3 13 1 16 9 3 9 10 14 14 11 5 -3 15 4 23 15 7 11 16 17 20 14 3 -3 10 4 17 15 6 12 17 21 25 21 8 0 19 9 25 20 6 11 14 20 18 20 5 0 28 17 52 38 76 65 287 282 274 282 -3 0 8 12 23 26 15 14 21 22 13 19 -8 -4 -3 4 12 17 15 14 25 28 21 31 -3 4 2 9 11 13 9 3 14 10 11 14 -3 4 2 11 11 14 8 3 13 10 10 15 -3 5 1 12 10 15 8 3 12 10 9 16 -3 6 1 13 9 16 9 3 13 10 10 15 -3 5 2 12 10 15 9 3 13 10 10 15 -3 5 -1 9 4 9 6 0 13 11 16 25 4 14 11 25 17 25 6 0 7 4 4 10 -3 5 -1 10 4 10 6 0 11 7 11 15 0 8 5 15 12 15 6 0 9 3 5 6 -7 8 31 86 47 96 6 4 8 8 3 8 -4 0 -1 10 8 23 8 13 12 27 8 30 -3 4 -1 7 6 7 7 0 9 5 6 10 -3 5 -2 10 4 10 6 0 8 7 5 15 -4 8 -1 15 6 15 6 0 8 5 5 10 -3 6 -2 10 4 10 6 0 8 7 5 15 -4 8 -1 15 7 15 7 0 9 3 6 7 -4 3 -2 12 4 20 6 7 8 13 4 13 -4 0 -2 7 5 15 7 8 9 15 5 15 -4 0 -2 7 5 15 7 8 9 15 5 15 -4 0 -2 7 5 15 7 8 9 15 5 15 -4 0 -2 7 5 15 6 8 9 19 5 25 -3 5 -2 10 2 10 5 0 9 8 10 18 0 9 4 28 7 42 4 14 9 36 12 50 3 14 7 32 9 40 2 8 4 15 6 15 1 0 2 12 3 26 l2 27 -421 0 c-231 0 -428 -2 -437 -4 -10 -3 -15 -11 -11 -20 3 -7 1 -14 -3 -14 -5 0 -10 -12 -11 -26 0 -15 -5 -29 -10 -33 -4 -3 -10 -15 -11 -26 -2 -11 -8 -22 -13 -23 -5 -2 -7 -8 -3 -13 3 -5 0 -9 -6 -9 -6 0 -8 -4 -5 -10 3 -5 2 -10 -4 -10 -6 0 -8 -7 -5 -15 4 -8 1 -15 -4 -15 -6 0 -16 -16 -23 -35 -7 -19 -17 -35 -22 -35 -4 0 -5 -4 -2 -10 3 -5 1 -10 -5 -10 -6 0 -9 -4 -6 -8 3 -5 -4 -19 -15 -30 -11 -12 -16 -22 -12 -22 4 0 0 -5 -10 -11 -9 -6 -15 -14 -12 -19 3 -5 -4 -14 -16 -20 -11 -7 -18 -14 -15 -17 3 -4 -3 -13 -14 -20 -11 -8 -18 -18 -15 -23 3 -5 -1 -12 -8 -17 -8 -4 -19 -18 -26 -31 -7 -12 -16 -20 -22 -17 -5 4 -9 3 -7 -2 2 -11 -116 -133 -130 -133 -7 0 -17 -9 -24 -20 -7 -11 -18 -20 -25 -20 -7 0 -17 -8 -22 -17 -6 -10 -11 -13 -11 -8 0 6 -10 -1 -21 -15 -11 -14 -18 -18 -14 -10 3 8 -2 5 -11 -7 -9 -13 -22 -23 -29 -23 -7 0 -18 -7 -25 -15 -7 -8 -16 -12 -21 -9 -5 3 -9 0 -9 -6 0 -6 -4 -8 -10 -5 -5 3 -10 1 -10 -6 0 -7 -3 -10 -6 -6 -4 3 -22 -5 -42 -18 -19 -13 -39 -22 -44 -19 -4 3 -8 0 -8 -7 0 -7 -3 -10 -6 -6 -4 3 -13 0 -21 -8 -8 -8 -23 -15 -33 -15 -10 0 -21 -4 -25 -10 -3 -5 -12 -7 -20 -3 -8 3 -15 0 -15 -7 0 -7 -7 -10 -15 -6 -8 3 -15 1 -15 -5 0 -6 -6 -9 -14 -6 -8 3 -16 2 -18 -3 -2 -5 -19 -12 -38 -14 -19 -3 -35 -5 -35 -6 0 -2 -36 -10 -65 -15 -79 -12 -97 -15 -120 -21 -64 -14 -401 3 -433 23 -4 3 -18 6 -30 8 -23 4 -58 12 -67 15 -3 1 -9 2 -14 1 -4 -1 -14 4 -22 10 -8 6 -14 8 -14 4 0 -4 -7 -2 -15 5 -8 7 -15 9 -15 5 0 -4 -6 -2 -13 4 -8 6 -17 8 -20 4 -4 -3 -7 -1 -7 5 0 6 -7 9 -15 6 -8 -4 -15 -1 -15 6 0 6 -4 8 -10 5 -5 -3 -10 -1 -10 5 0 6 -4 9 -9 5 -5 -3 -12 -1 -16 5 -4 6 -11 8 -16 5 -5 -4 -9 -1 -9 5 0 6 -4 8 -10 5 -5 -3 -10 -1 -10 5 0 6 -4 8 -10 5 -6 -3 -10 -1 -10 5 0 6 -4 8 -10 5 -5 -3 -10 -1 -10 5 0 6 -4 8 -10 5 -5 -3 -10 -1 -10 4 0 6 -7 11 -15 11 -8 0 -15 5 -15 11 0 5 -4 7 -10 4 -5 -3 -10 -1 -10 5 0 6 -4 9 -9 5 -6 -3 -14 3 -20 12 -6 10 -11 14 -11 10 0 -11 -81 46 -119 84 -17 17 -31 27 -31 23 0 -11 -167 159 -213 217 -20 25 -37 51 -37 58 0 6 -5 11 -11 11 -5 0 -8 4 -5 9 3 5 -1 12 -10 15 -8 3 -13 10 -10 14 3 5 -3 18 -13 29 -11 11 -29 40 -42 64 -24 46 -26 50 -28 73 0 8 -8 22 -17 30 -8 9 -12 16 -9 16 4 0 0 11 -9 24 -8 14 -18 39 -21 57 -3 18 -11 39 -17 46 -6 7 -7 13 -3 13 4 0 2 6 -4 13 -6 8 -8 17 -5 20 3 3 2 12 -2 19 -5 7 -9 18 -11 23 -10 45 -13 59 -17 73 -19 62 -26 368 -10 440 7 29 13 55 13 57 1 3 2 6 2 8 1 1 3 13 4 27 5 40 16 91 25 114 4 12 9 26 11 31 1 6 8 21 15 34 7 14 11 28 8 33 -3 4 0 8 7 8 7 0 9 3 6 7 -4 3 -2 12 4 20 6 7 8 13 4 13 -4 0 0 11 9 25 9 13 16 31 16 40 0 8 4 15 8 15 11 0 56 80 45 80 -4 0 0 5 10 11 9 6 15 14 12 20 -4 5 -1 9 5 9 6 0 9 4 6 9 -3 5 1 12 10 15 8 3 13 10 10 15 -3 5 1 12 10 15 9 4 14 9 11 13 -4 3 1 12 11 19 9 7 17 16 17 21 0 13 21 37 132 147 115 115 129 127 136 120 3 -3 10 4 17 15 6 12 15 19 21 16 5 -4 12 1 15 9 3 9 10 13 15 10 5 -3 12 2 15 10 3 9 10 13 15 10 5 -3 12 2 15 10 3 9 10 13 15 10 5 -3 9 0 9 6 0 6 4 9 9 6 5 -3 12 1 15 10 3 8 10 12 16 9 5 -3 10 -1 10 5 0 6 5 8 10 5 6 -3 10 -1 10 5 0 6 5 8 10 5 6 -3 10 -1 10 5 0 6 5 8 10 5 6 -3 10 -1 10 5 0 6 5 8 10 5 6 -3 10 -1 10 5 0 6 4 9 9 5 5 -3 12 -1 16 5 4 6 11 8 16 5 5 -4 9 -1 9 5 0 6 5 8 10 5 6 -3 10 -2 10 3 0 8 95 43 130 47 8 1 28 7 43 14 16 6 50 13 75 15 26 2 47 5 47 6 0 1 14 3 30 5 17 2 41 7 55 10 44 11 339 3 383 -11 11 -3 29 -8 40 -9 37 -6 52 -10 65 -18 6 -5 16 -6 21 -2 5 3 13 0 16 -6 4 -5 13 -8 20 -5 7 2 16 2 19 -2 4 -3 16 -7 28 -9 12 -2 27 -8 33 -13 7 -5 15 -7 18 -3 4 3 7 1 7 -6 0 -7 5 -9 10 -6 6 3 10 1 10 -5 0 -7 7 -10 15 -6 8 3 15 0 15 -6 0 -6 3 -9 6 -5 4 3 13 -1 21 -9 8 -8 19 -12 24 -9 5 4 9 1 9 -4 0 -6 9 -11 19 -11 11 0 26 -7 34 -15 8 -8 17 -11 21 -8 3 4 6 1 6 -6 0 -7 4 -10 9 -6 6 3 19 -5 30 -17 12 -12 21 -18 21 -13 0 5 7 0 15 -11 8 -10 15 -15 15 -11 0 7 45 -20 77 -48 37 -31 43 -35 52 -35 6 0 15 -9 21 -20 6 -11 15 -18 20 -15 4 3 10 2 12 -3 1 -4 20 -18 41 -31 20 -12 37 -28 37 -34 0 -7 -4 -6 -10 3 -8 13 -10 13 -10 -2 0 -10 -9 -22 -20 -28 -11 -6 -20 -8 -20 -5 0 3 -10 -3 -22 -14 -11 -11 -25 -18 -30 -15 -4 3 -8 0 -8 -6 0 -6 -4 -8 -10 -5 -5 3 -10 1 -10 -5 0 -6 -5 -8 -10 -5 -6 3 -13 -1 -16 -9 -3 -9 -10 -13 -15 -10 -5 3 -9 0 -9 -6 0 -6 -4 -8 -10 -5 -5 3 -10 1 -10 -5 0 -6 -4 -9 -9 -6 -5 3 -12 -1 -15 -10 -3 -8 -10 -12 -16 -9 -5 3 -10 1 -10 -5 0 -6 -4 -9 -10 -5 -5 3 -18 -3 -29 -14 -11 -11 -22 -17 -25 -14 -3 4 -6 1 -6 -6 0 -7 -4 -9 -10 -6 -5 3 -10 1 -10 -5 0 -6 -4 -9 -9 -6 -5 3 -12 -1 -15 -10 -3 -8 -10 -12 -16 -9 -5 3 -10 1 -10 -4 0 -6 -9 -11 -19 -11 -10 0 -22 -7 -25 -16 -3 -8 -10 -12 -16 -9 -5 3 -10 1 -10 -5 0 -6 -4 -8 -10 -5 -5 3 -10 1 -10 -5 0 -6 -5 -8 -10 -5 -6 3 -13 -1 -16 -9 -3 -9 -10 -13 -15 -10 -5 3 -9 0 -9 -7 0 -7 -3 -10 -6 -6 -3 3 -15 -3 -27 -13 -11 -11 -24 -17 -29 -14 -4 3 -8 0 -8 -6 0 -6 -4 -9 -8 -6 -5 3 -18 -3 -29 -14 -12 -10 -24 -16 -27 -13 -3 4 -6 1 -6 -6 0 -7 -4 -9 -10 -6 -5 3 -10 1 -10 -6 0 -7 -3 -10 -6 -6 -3 3 -15 -3 -27 -13 -11 -11 -24 -17 -29 -14 -4 3 -8 1 -8 -4 0 -9 -50 -37 -62 -34 -5 1 -8 -3 -8 -9 0 -5 -4 -7 -10 -4 -5 3 -10 1 -10 -4 0 -6 -7 -11 -15 -11 -8 0 -15 -5 -15 -11 0 -5 -4 -7 -10 -4 -5 3 -10 1 -10 -5 0 -6 -4 -9 -9 -6 -5 3 -15 -1 -22 -10 -7 -8 -25 -22 -41 -30 -15 -8 -28 -18 -28 -23 0 -4 495 -8 1099 -8 1028 1 1099 2 1096 18 -2 9 -8 32 -13 50 -5 19 -8 42 -6 51 1 10 -2 20 -7 24 -5 3 -7 10 -3 15 3 5 0 16 -6 24 -7 8 -9 15 -5 15 4 0 2 7 -5 15 -7 9 -10 18 -7 22 4 3 3 11 -2 17 -8 11 -31 76 -35 99 -1 7 -5 18 -9 25 -5 6 -5 12 0 12 4 0 2 4 -5 9 -7 4 -14 18 -15 29 -1 12 -4 22 -8 22 -7 0 -23 50 -21 63 1 4 -2 7 -6 7 -4 0 -9 10 -9 22 -1 13 -7 24 -13 26 -5 2 -8 8 -4 13 3 5 0 9 -5 9 -6 0 -10 3 -9 8 3 12 -13 52 -22 52 -4 0 -11 11 -14 25 -4 14 -11 25 -17 25 -6 0 -7 5 -4 10 3 6 1 10 -6 10 -7 0 -9 3 -6 7 4 3 -1 12 -11 20 -11 10 -12 12 -2 8 10 -4 9 -2 -2 8 -10 8 -15 17 -11 20 3 4 -2 9 -11 13 -9 3 -13 10 -10 15 3 5 0 9 -6 9 -6 0 -14 8 -17 18 -4 9 -15 26 -25 36 -10 11 -18 26 -18 33 0 7 -4 13 -10 13 -5 0 -10 7 -10 15 0 8 -9 19 -20 25 -11 6 -20 16 -20 22 0 6 -10 21 -22 33 -13 12 -34 37 -48 54 -36 45 -137 147 -208 211 -59 53 -72 64 -137 112 -51 39 -56 43 -72 60 -9 9 -20 15 -25 12 -4 -3 -8 0 -8 5 0 6 -7 11 -15 11 -9 0 -18 7 -21 15 -4 8 -10 12 -15 9 -5 -3 -12 2 -15 10 -3 9 -10 13 -15 10 -5 -3 -9 0 -9 6 0 6 -4 9 -9 6 -5 -3 -12 1 -15 10 -3 8 -10 12 -16 9 -5 -3 -10 -1 -10 5 0 6 -4 8 -10 5 -5 -3 -10 -2 -10 3 0 6 -11 13 -25 16 -14 4 -25 11 -25 17 0 6 -4 7 -10 4 -5 -3 -10 -1 -10 5 0 6 -4 8 -10 5 -5 -3 -10 -1 -10 5 0 6 -4 8 -10 5 -5 -3 -10 -1 -10 5 0 6 -4 8 -10 5 -5 -3 -10 -1 -10 4 0 6 -11 11 -25 11 -14 0 -25 5 -25 11 0 5 -4 7 -10 4 -5 -3 -10 -1 -10 5 0 6 -4 8 -10 5 -5 -3 -10 -1 -10 5 0 6 -4 9 -9 5 -5 -3 -12 -1 -16 5 -4 6 -11 8 -16 5 -5 -4 -9 -1 -9 4 0 6 -3 10 -7 10 -5 -1 -11 0 -15 1 -5 1 -12 4 -18 5 -5 1 -11 3 -12 4 -2 2 -14 5 -28 7 -13 2 -27 8 -30 12 -3 4 -14 8 -26 9 -11 1 -34 8 -50 14 -16 7 -34 11 -41 10 -6 -1 -14 3 -18 8 -3 6 -12 8 -19 5 -8 -3 -17 0 -21 5 -3 6 -11 9 -16 6 -5 -4 -15 -3 -21 2 -7 4 -24 9 -38 11 -14 1 -61 9 -105 17 -44 7 -105 16 -135 20 -63 7 -355 16 -361 11z"/>
</g>
</svg>