<svg id="logosandtypes_com" xmlns="http://www.w3.org/2000/svg" viewBox="0 0 150 150"><path d="M0 0h150v150H0V0z" fill="none"/><path d="M38.4 35.3c3.8 3.1 5.3 2.9 12.4 2.4l67.6-4.1c1.4 0 .2-1.4-.2-1.7L107 23.8c-2.2-1.7-5-3.6-10.5-3.1L31 25.5c-2.4.2-2.9 1.4-1.9 2.4l9.3 7.4zm4.1 15.8v71.2c0 3.8 1.9 5.3 6.2 5L123 123c4.3-.2 4.8-2.9 4.8-6V46.3c0-3.1-1.2-4.8-3.8-4.5l-77.7 4.5c-2.9.2-3.8 1.7-3.8 4.8zm73.3 3.8c.5 2.2 0 4.3-2.2 4.5l-3.6.7v52.5c-3.1 1.7-6 2.6-8.4 2.6-3.8 0-4.8-1.2-7.6-4.8L70.7 73.7v35.6l7.4 1.7s0 4.3-6 4.3l-16.5 1c-.5-1 0-3.3 1.7-3.8l4.3-1.2v-47l-6-.5c-.5-2.2.7-5.3 4.1-5.5L77.4 57l24.4 37.3v-33l-6.2-.7c-.5-2.6 1.4-4.5 3.8-4.8l16.4-.9zM25.5 19.1l68.1-5c8.4-.7 10.5-.2 15.8 3.6L131.1 33c3.6 2.6 4.8 3.3 4.8 6.2V123c0 5.3-1.9 8.4-8.6 8.8l-79.1 4.8c-5 .2-7.4-.5-10-3.8l-16-20.8c-2.9-3.8-4.1-6.7-4.1-10V27.4c0-4.3 1.9-7.9 7.4-8.3z"/></svg>