<?xml version="1.0" ?><svg id="Layer_1" style="enable-background:new 0 0 32 32;" version="1.1" viewBox="0 0 32 32" xml:space="preserve" xmlns="http://www.w3.org/2000/svg" xmlns:xlink="http://www.w3.org/1999/xlink"><g><g><path d="M4.8,32C2.1,32,0,29.9,0,27.3V16.1c0-0.4,0.3-0.8,0.8-0.8h8c0.4,0,0.8,0.3,0.8,0.8v11.2C9.5,29.9,7.4,32,4.8,32z     M1.5,16.8v10.4c0,1.8,1.5,3.3,3.3,3.3S8,29,8,27.3V16.8H1.5z"/></g><g><path d="M27.3,32H4.8C4.3,32,4,31.7,4,31.3s0.3-0.8,0.8-0.8C6.5,30.5,8,29,8,27.3V0.8C8,0.3,8.3,0,8.8,0h22.5    C31.7,0,32,0.3,32,0.8v26.5C32,29.9,29.9,32,27.3,32z M8.2,30.5h19c1.8,0,3.3-1.5,3.3-3.3V1.5h-21v25.8C9.5,28.5,9,29.6,8.2,30.5z    "/></g><g><path d="M27.2,11.8H12.8c-0.4,0-0.8-0.3-0.8-0.8V5.1c0-0.4,0.3-0.8,0.8-0.8h14.4c0.4,0,0.8,0.3,0.8,0.8V11    C27.9,11.4,27.6,11.8,27.2,11.8z M13.6,10.3h12.9V5.9H13.6V10.3z"/></g><g><path d="M27.2,16.8H12.8c-0.4,0-0.8-0.3-0.8-0.8s0.3-0.8,0.8-0.8h14.4c0.4,0,0.8,0.3,0.8,0.8S27.6,16.8,27.2,16.8z"/></g><g><path d="M27.2,19.8H12.8c-0.4,0-0.8-0.3-0.8-0.8s0.3-0.8,0.8-0.8h14.4c0.4,0,0.8,0.3,0.8,0.8S27.6,19.8,27.2,19.8z"/></g><g><path d="M20.4,26.6h-7.6c-0.4,0-0.8-0.3-0.8-0.8s0.3-0.8,0.8-0.8h7.6c0.4,0,0.8,0.3,0.8,0.8S20.9,26.6,20.4,26.6z"/></g></g></svg>