<?xml version="1.0" ?><svg id="Layer_5" style="enable-background:new 0 0 64 64;" version="1.1" viewBox="0 0 64 64" xml:space="preserve" xmlns="http://www.w3.org/2000/svg" xmlns:xlink="http://www.w3.org/1999/xlink"><g><rect height="2" width="2" x="13" y="14"/><rect height="2" width="2" x="9" y="14"/><rect height="2" width="2" x="5" y="14"/><path d="M26,22H10c-1.654,0-3,1.346-3,3v2c0,1.302,0.839,2.402,2,2.816v2.369C7.839,32.598,7,33.698,7,35v2   c0,1.302,0.839,2.402,2,2.816v2.369C7.839,42.598,7,43.698,7,45v2c0,1.654,1.346,3,3,3h16c1.654,0,3-1.346,3-3v-2   c0-1.302-0.839-2.402-2-2.816v-2.369c1.161-0.414,2-1.514,2-2.816v-2c0-1.302-0.839-2.402-2-2.816v-2.369   c1.161-0.414,2-1.514,2-2.816v-2C29,23.346,27.654,22,26,22z M11,32v-2h14v2H11z M11,42v-2h14v2H11z M27,47c0,0.552-0.449,1-1,1H10   c-0.551,0-1-0.448-1-1v-2c0-0.552,0.449-1,1-1h16c0.551,0,1,0.448,1,1V47z M27,37c0,0.552-0.449,1-1,1H10c-0.551,0-1-0.448-1-1v-2   c0-0.552,0.449-1,1-1h16c0.551,0,1,0.448,1,1V37z M27,27c0,0.552-0.449,1-1,1H10c-0.551,0-1-0.448-1-1v-2c0-0.552,0.449-1,1-1h16   c0.551,0,1,0.448,1,1V27z"/><path d="M46,19h14c1.654,0,3-1.346,3-3V4c0-1.654-1.346-3-3-3H46c-1.654,0-3,1.346-3,3v5h-3c-1.654,0-3,1.346-3,3v12   c0,0.552-0.449,1-1,1h-1V13c0-1.654-1.346-3-3-3H4c-1.654,0-3,1.346-3,3v38c0,1.654,1.346,3,3,3h28c1.654,0,3-1.346,3-3V39h1   c0.551,0,1,0.448,1,1v12c0,1.654,1.346,3,3,3h3v5c0,1.654,1.346,3,3,3h14c1.654,0,3-1.346,3-3V48c0-1.654-1.346-3-3-3H46   c-1.654,0-3,1.346-3,3v5h-3c-0.551,0-1-0.448-1-1V40c0-1.654-1.346-3-3-3h-1v-4h8v5c0,1.654,1.346,3,3,3h14c1.654,0,3-1.346,3-3V26   c0-1.654-1.346-3-3-3H46c-1.654,0-3,1.346-3,3v5h-8v-4h1c1.654,0,3-1.346,3-3V12c0-0.552,0.449-1,1-1h3v5   C43,17.654,44.346,19,46,19z M60,61H46c-0.551,0-1-0.448-1-1v-9h16v9C61,60.552,60.551,61,60,61z M46,47h14c0.551,0,1,0.448,1,1v1   H45v-1C45,47.448,45.449,47,46,47z M60,39H46c-0.551,0-1-0.448-1-1v-9h16v9C61,38.552,60.551,39,60,39z M46,25h14   c0.551,0,1,0.448,1,1v1H45v-1C45,25.448,45.449,25,46,25z M4,12h28c0.551,0,1,0.448,1,1v5H3v-5C3,12.448,3.449,12,4,12z M32,52H4   c-0.551,0-1-0.448-1-1V20h30v31C33,51.552,32.551,52,32,52z M60,17H46c-0.551,0-1-0.448-1-1V7h16v9C61,16.552,60.551,17,60,17z    M46,3h14c0.551,0,1,0.448,1,1v1H45V4C45,3.448,45.449,3,46,3z"/><rect height="2" width="12" x="47" y="9"/><rect height="2" width="2" x="57" y="13"/><rect height="2" width="8" x="47" y="13"/><rect height="2" width="12" x="47" y="53"/><rect height="2" width="2" x="57" y="57"/><rect height="2" width="8" x="47" y="57"/><rect height="2" width="12" x="47" y="31"/><rect height="2" width="2" x="57" y="35"/><rect height="2" width="8" x="47" y="35"/></g></svg>