<?xml version="1.0" ?><!DOCTYPE svg  PUBLIC '-//W3C//DTD SVG 1.1//EN'  'http://www.w3.org/Graphics/SVG/1.1/DTD/svg11.dtd'><svg enable-background="new 0 0 210 210" height="210px" id="Слой_1" version="1.1" viewBox="0 0 210 210" width="210px" xml:space="preserve" xmlns="http://www.w3.org/2000/svg" xmlns:xlink="http://www.w3.org/1999/xlink"><g><g><path d="M67.3,40.652H45.767c-3.666,0-6.65-2.983-6.65-6.65V12.468c0-3.667,2.984-6.65,6.65-6.65H67.3    c3.666,0,6.65,2.983,6.65,6.65v21.533C73.95,37.668,70.966,40.652,67.3,40.652z M46.717,33.052H66.35V13.418H46.717V33.052z" fill="#474747"/></g><g><path d="M110.682,79.178H89.148c-3.666,0-6.65-2.983-6.65-6.65V50.995c0-3.667,2.984-6.65,6.65-6.65h21.534    c3.666,0,6.65,2.983,6.65,6.65v21.533C117.332,76.195,114.348,79.178,110.682,79.178z M90.098,71.578h19.634V51.945H90.098V71.578    z" fill="#474747"/></g><g><path d="M164.705,203.311h-21.534c-3.666,0-6.65-2.983-6.65-6.65v-21.533c0-3.667,2.984-6.65,6.65-6.65h21.534    c3.666,0,6.65,2.983,6.65,6.65v21.533C171.355,200.328,168.371,203.311,164.705,203.311z M144.121,195.711h19.634v-19.633h-19.634    V195.711z" fill="#474747"/></g><g><path d="M164.705,161.036h-21.534c-3.666,0-6.65-2.983-6.65-6.65v-21.533c0-3.667,2.984-6.65,6.65-6.65h21.534    c3.666,0,6.65,2.983,6.65,6.65v21.533C171.355,158.053,168.371,161.036,164.705,161.036z M144.121,153.436h19.634v-19.633h-19.634    V153.436z" fill="#474747"/></g><g><path d="M164.705,118.128h-21.534c-3.666,0-6.65-2.983-6.65-6.65V89.945c0-3.667,2.984-6.65,6.65-6.65h21.534    c3.666,0,6.65,2.983,6.65,6.65v21.533C171.355,115.145,168.371,118.128,164.705,118.128z M144.121,110.528h19.634V90.895h-19.634    V110.528z" fill="#474747"/></g><g><rect fill="#474747" height="154.747" width="7.6" x="52.734" y="45.084"/></g><g><rect fill="#474747" height="7.6" width="21.531" x="56.534" y="57.961"/></g><g><polygon fill="#474747" points="129.341,189.695 96.114,189.695 96.114,83.928 103.714,83.928 103.714,182.095 129.341,182.095       "/></g><g><rect fill="#474747" height="7.6" width="29.427" x="99.914" y="139.82"/></g><g><rect fill="#474747" height="7.6" width="29.427" x="99.914" y="96.911"/></g></g></svg>