<?xml version="1.0" encoding="UTF-8"?>
<svg id="a" data-name="TEAMS_ALPHA" xmlns="http://www.w3.org/2000/svg" width="512" height="512" viewBox="0 0 512 512">
  <defs>
    <style>
      .d {
        fill: #5059c9;
      }

      .e {
        fill: #7b83eb;
      }

      .f {
        fill: #464eb8;
      }
    </style>
  </defs>
  <path class="e" d="M365.41,341.43v-116.15c.24-10.44-8.01-19.1-18.45-19.36h-70.96v125.08c0,24.85-20.15,45-45,45h-82.52c13.51,46.14,55.58,80.33,106.2,81.57,62.63-1.53,112.18-53.51,110.73-116.14Z"/>
  <g id="b" data-name="Ebene 37">
    <circle class="d" cx="400.64" cy="140.49" r="45.3"/>
  </g>
  <path class="d" d="M436.87,205.92h-68.53c4.49,5.18,7.17,11.96,7.06,19.32,0,.01,0,.02,0,.03v116.04c.03,1.14,.03,2.28,.03,3.41,0,.27,0,.53-.01,.8-.19,16.98-3.79,33.45-10.51,48.6,6.48,1.97,13.34,3.05,20.47,3.05h.33c38.82,0,70.29-31.47,70.29-70.29v-101.84c0-10.56-8.56-19.13-19.13-19.13Z"/>
  <path class="e" d="M259.71,54.93c-36.14,0-65.43,29.29-65.43,65.43,0,5.39,.67,10.63,1.9,15.64h34.82c24.85,0,45,20.15,45,45v2.75c28.26-7.24,49.14-32.87,49.14-63.38,0-36.14-29.29-65.43-65.43-65.43Z"/>
  <g id="c" data-name="Ebene 10 Kopie">
    <path class="f" d="M226,156H86c-16.57,0-30,13.43-30,30v140c0,16.57,13.43,30,30,30H226c16.57,0,30-13.43,30-30V186c0-16.57-13.43-30-30-30Zm-24.69,61.12h-34.92v102.78h-22.14v-102.78h-34.56v-18.54h91.62v18.54Z"/>
  </g>
</svg>