<?xml version="1.0" ?><svg id="Layer_1" style="enable-background:new 0 0 1024 1024;" version="1.1" viewBox="0 0 1024 1024" xml:space="preserve" xmlns="http://www.w3.org/2000/svg" xmlns:xlink="http://www.w3.org/1999/xlink"><g id="XMLID_1363_"><g id="XMLID_1379_"><g id="XMLID_30_"><path d="M832.2,243.4c0,1.4-0.5,3.3-0.2,4.6c0,0.1,0.8-4.6,0.4-2.6c-0.1,0.5-0.2,1.1-0.3,1.6     c-0.5,2.6-1.3,5-2.1,7.5c-1.1,3.3,1.9-3.7,0.2-0.6c-0.5,1-1,2.1-1.6,3.1c-1.3,2.3-2.7,4.5-4.2,6.7c-0.1,0.1-1.2,1.5-1.1,1.5     c-0.1-0.1,2.6-3.1,1.2-1.5c-0.9,1-1.7,2-2.5,3c-2.1,2.4-4.4,4.7-6.7,6.9c-2.1,2-4.4,3.8-6.6,5.7c-1.7,1.5,1-0.7,1.1-0.8     c-0.5,0.5-1.3,0.9-1.9,1.4c-1.5,1.1-3,2.2-4.5,3.2c-11.4,7.8-23.7,14.3-36.3,20c-1.3,0.6-2.6,1.1-3.8,1.7c-2,0.9,1.5-0.6,1.5-0.6     c-0.7,0.2-1.3,0.6-2,0.8c-3.2,1.3-6.3,2.6-9.5,3.8c-6,2.3-12,4.4-18.1,6.4c-28,9.2-56.9,15.7-85.9,20.5     c-3.7,0.6-7.5,1.2-11.2,1.8c-1.8,0.3-3.5,0.5-5.3,0.8c-1.2,0.2-7.7,1.1-3.3,0.5c-7.3,1-14.7,1.8-22,2.6     c-15.6,1.6-31.2,2.8-46.9,3.6c-32.7,1.7-65.6,1.6-98.3-0.1c-15.7-0.8-31.4-2.1-47.1-3.8c-3.6-0.4-7.1-0.8-10.7-1.2     c-1.8-0.2-3.5-0.4-5.3-0.7c-0.9-0.1-1.8-0.2-2.6-0.3c-3.9-0.5,1.6,0.3-0.8-0.1c-7.1-1.1-14.2-2.1-21.3-3.3     c-29.4-4.9-58.6-11.6-87-21c-6.6-2.2-13.1-4.5-19.6-7c-1.4-0.6-2.9-1.1-4.3-1.7c-0.7-0.3-1.4-0.6-2.1-0.9     c-2.2-0.9,1.2,0.6,1.3,0.6c-2.5-0.1-6.4-2.8-8.7-3.9c-12.8-5.9-25.2-12.7-36.6-21c-0.6-0.5-1.2-0.9-1.9-1.4c-1.9-1.4,1,0.8,1,0.8     c-0.9-0.1-2.7-2.2-3.4-2.8c-2.5-2.1-4.9-4.4-7.3-6.7c-1.9-1.9-3.6-3.9-5.4-5.9c-2.4-2.8,2.1,3,0,0c-0.8-1.2-1.7-2.3-2.4-3.6     c-1.3-2-2.4-4.1-3.5-6.2c-0.2-0.4-0.4-1.2-0.7-1.6c0,0,1.5,4.1,0.9,2.2c-0.4-1.4-1-2.8-1.4-4.2c-0.3-1.1-0.6-2.1-0.8-3.2     c-0.2-0.8-0.8-4.7-0.3-1.1c0.5,3.6,0-0.4,0-1.3c-0.1-1.1-0.1-2.3,0-3.4c0-0.4,0.1-4,0.3-4c0.1,0-1.1,6.2-0.3,2.6     c0.2-0.9,0.3-1.8,0.6-2.7c0.3-1.3,0.7-2.7,1.1-4c0.2-0.7,0.5-1.3,0.7-2c1.2-3.4-1.2,2.5-0.8,1.8c1.6-2.8,2.8-5.6,4.5-8.3     c0.8-1.3,1.7-2.5,2.6-3.8c2-2.8-2.1,2.5-1.2,1.6c0.6-0.7,1.2-1.5,1.8-2.2c2.4-2.8,4.9-5.4,7.6-7.9c1.3-1.2,2.6-2.4,4-3.6     c0.7-0.6,1.4-1.2,2.1-1.8c0.7-0.6,3.8-3,0.9-0.8c-2.9,2.2,0,0.1,0.6-0.4c0.8-0.6,1.6-1.1,2.4-1.7c1.9-1.3,3.8-2.7,5.8-3.9     c3.7-2.4,7.4-4.6,11.2-6.8c8.6-4.8,17.5-9,26.5-12.9c2-0.9-2.1,0.8-1.9,0.8c0.6-0.1,1.2-0.5,1.7-0.7c1.2-0.5,2.3-0.9,3.5-1.4     c2.8-1.1,5.6-2.2,8.4-3.2c5.2-1.9,10.4-3.7,15.7-5.4c23.9-7.8,48.5-13.7,73.2-18.2c6.9-1.3,13.8-2.4,20.7-3.5     c3.3-0.5,6.5-1,9.8-1.5c1.7-0.2,4.9-0.7,1.3-0.2c1.9-0.3,3.9-0.5,5.9-0.8c14.6-1.8,29.3-3.3,44.1-4.3c61.1-4.5,122.7-3,183.5,4.9     c4,0.5-2.7-0.4,1.3,0.2c1.6,0.2,3.3,0.5,4.9,0.7c3.8,0.6,7.6,1.1,11.4,1.8c6.6,1.1,13.2,2.2,19.8,3.5c12.7,2.4,25.4,5.2,38,8.4     c11.6,3,23.1,6.3,34.5,10.1c5.4,1.8,10.8,3.7,16.1,5.7c2.4,0.9,4.7,1.8,7.1,2.8c0.7,0.3,4.6,2,1.6,0.7c-3-1.3,1.3,0.6,2.1,0.9     c8.9,3.9,17.6,8.2,26,13c3.9,2.2,7.7,4.6,11.4,7.1c1.6,1.1,3.2,2.2,4.8,3.4c0.8,0.6,1.5,1.2,2.3,1.7c1.7,1.2-2.5-2-2.2-1.7     c0.4,0.4,1,0.8,1.5,1.2c5.7,4.7,10.9,9.7,15.7,15.3c2.2,2.6-1.8-2.6-1.2-1.6c0.4,0.6,0.9,1.2,1.4,1.9c1,1.4,2,2.9,2.9,4.4     c0.8,1.3,1.5,2.5,2.1,3.8c0.3,0.6,0.6,1.3,0.9,1.9c1.6,3.2-1.6-4.4-0.8-1.9c0.9,2.7,1.9,5.4,2.4,8.2c0.1,0.7,0.2,1.4,0.4,2     c0.3,1.2-0.6-5.9-0.4-2.6C832,240.5,832.1,242,832.2,243.4c0.1,10.5,9.1,20.5,20,20c10.8-0.5,20.1-8.8,20-20     c-0.3-36.4-29.5-63.2-58.6-80.6c-41.6-24.9-90.3-38.3-137.5-47.3c-62.4-11.9-126.4-16.2-189.9-14.5     c-60.5,1.7-121.6,8.6-180.2,24.1c-42.7,11.3-87,27.2-121.1,56.2c-13,11-23.6,24.8-29.4,40.9c-7.1,19.7-3.1,42.3,8.1,59.6     c16.1,24.8,42.4,41.5,68.7,53.8c27.5,12.9,56.6,22.3,86.1,29.4c64.2,15.4,130.9,21.5,196.8,21.3c66.1-0.2,133.1-6.6,197.3-22.9     c27.7-7,55-16.2,80.8-28.5c26-12.4,52.5-29.4,68-54.4c6.9-11.1,10.7-23.9,10.9-37c0.2-10.5-9.3-20.5-20-20     C841.2,223.9,832.3,232.2,832.2,243.4z" id="XMLID_34_"/></g></g><g id="XMLID_1371_"><g id="XMLID_24_"><path d="M832,248.1c0,29.5,0,59,0,88.5c0,20.5,0,41.1,0,61.6c0,6.9,0,13.7,0,20.6c0,2.5-0.6,5.9,0,8.3     c-0.6-2.3,0.8-4.4,0.2-2c-0.3,1.4-0.6,2.9-1,4.3c-0.4,1.4-0.9,2.8-1.4,4.3c-1,3.1,0.5-1.4,0.7-1.6c-0.6,0.6-1.1,2.4-1.5,3.1     c-1.5,2.9-3.3,5.5-5.1,8.2c-1.7,2.5,0.7-1.2,0.8-1c0,0.1-1.8,2.2-1.6,2c-1.3,1.5-2.6,3-4,4.5c-2.6,2.7-5.4,5.3-8.3,7.7     c-0.8,0.6-1.5,1.3-2.3,1.9c-0.5,0.4-3.1,2.4-1,0.8c2.2-1.6-0.6,0.4-1.1,0.8c-1.1,0.8-2.1,1.5-3.2,2.3     c-8.1,5.6-16.6,10.4-25.3,14.8c-3.1,1.5-6.2,3-9.3,4.4c-1.5,0.7-3,1.4-4.5,2c-0.7,0.3-1.7,0.6-2.3,1c1.5-1,3.6-1.5,0.7-0.3     c-6.7,2.7-13.5,5.3-20.4,7.7c-15.3,5.3-31,9.7-46.7,13.5c-17.5,4.2-35.2,7.6-53,10.4c-4.5,0.7-9,1.4-13.5,2     c-0.9,0.1-3.9,0.5,0.2,0c-1.1,0.1-2.3,0.3-3.4,0.4c-2.6,0.3-5.2,0.6-7.8,1c-9.7,1.1-19.5,2.1-29.2,2.9     c-41.8,3.5-83.9,4.1-125.8,1.8c-20.1-1.1-40.1-2.8-60.1-5.3c-1.2-0.1-2.3-0.3-3.4-0.4c-0.6-0.1-4.3-0.6-1.6-0.2     c2.6,0.4-1-0.1-1.6-0.2c-1.1-0.2-2.3-0.3-3.4-0.5c-4.7-0.7-9.5-1.4-14.2-2.2c-9.2-1.5-18.3-3.2-27.4-5     c-31.3-6.4-61.9-15.1-91.6-27.1c-2.5-1,3.7,1.6,1.3,0.6c-0.8-0.3-1.5-0.7-2.3-1c-1.5-0.7-3-1.3-4.5-2c-5.1-2.3-10.2-5.5-16.1-5.5     c3.4,0.9,6.7,1.8,10.1,2.7c-8.6-4.3-16.9-9-24.9-14.3c-1.8-1.2-3.5-2.4-5.2-3.6c-0.8-0.6-1.7-1.2-2.5-1.8     c-2.3-1.7,2.6,2.2,0.5,0.3c-3.1-2.6-6.2-5.2-9.2-8.1c-2.6-2.5-4.9-5.1-7.2-7.8c-1.9-2.1,1,0.1,0.8,1.1c0-0.2-1.5-2.1-1.5-2     c-1-1.5-2-3-2.9-4.6c-0.8-1.3-1.5-2.7-2.2-4.1c-0.3-0.7-0.6-1.4-1-2.1c-1-1.8,0.9,2.2,0.9,2.2c0-1.3-1.1-3-1.5-4.2     c-0.5-1.8-0.9-3.6-1.3-5.4c-0.7-3.3,0,3.5,0.2,1.8c0.1-0.4,0-0.8,0-1.1c0.1-1.7,0-3.5,0-5.2c0-6.2,0-12.4,0-18.6     c0-40.2,0-80.4,0-120.6c0-11.1,0-22.1,0-33.2c-13.3,0-26.7,0-40,0c1.7,13.6,5.8,26.2,13.8,37.5c9,12.7,20,22.7,32.5,31.8     c27.1,19.7,59.8,31.9,91.6,41.5c-4.7-4.7-9.3-9.3-14-14c2.2,9,9,12.7,17,15.5c3.5,1.3,5.8,1.6,9.7,2.4c-4.6-1,1.5,0.6,2,0.7     c13.4,3.7,24.2-6.5,25.3-19.3c0-0.1,0-0.1,0-0.2c-8.4,6.4-16.9,12.9-25.3,19.3c2,0.5,4,0.8,5.9,1.3c1.6,0.4,5.9,0.4,6.8,1.2     c3.6,3.5-5.2-1.4-2.2,0c2.1,1,5.1,1.3,7.3,1.7c5.5,1.1,11.4,1.3,16.4-1.8c-5.1,0.7-10.3,1.3-15.4,2     c78.8,18.2,161,23.4,241.7,18.9c41.9-2.3,83.9-7.4,125-16.1c36.6-7.7,72.9-18.6,106.6-35c18.7-9.1,37.1-20.6,51.6-35.6     c13.7-14.2,22.2-30.5,24.7-50c1.4-10.4-10.2-20.4-20-20C840,228.6,833.4,236.9,832,248.1c0.9-6.6,0.1-1.5-0.2,0.1     c-0.3,1.4-0.7,2.9-1.2,4.3c-0.2,0.7-0.5,1.4-0.8,2.1c-0.6,1.9-1.3,0.8,0.7-1.6c-0.9,1.1-1.4,2.9-2.1,4.2     c-0.4,0.8-5.5,7.9-5.3,8.2c-0.1-0.2,3.2-3.8,0.8-1c-0.6,0.7-1.1,1.3-1.7,2c-1.2,1.4-2.4,2.7-3.7,4c-2.7,2.7-5.5,5.3-8.4,7.7     c-0.8,0.6-1.5,1.3-2.3,1.9c-1.3,1.1-1.2,2,0.4-0.3c-1,1.5-3.7,2.7-5.1,3.7c-7.6,5.2-15.5,9.8-23.7,14c-3.6,1.9-7.3,3.6-11,5.3     c-1.8,0.8-3.6,1.6-5.4,2.4c-2,0.9-0.8,1.3,0.7-0.3c-0.5,0.5-2.1,0.9-2.8,1.1c-8.1,3.3-16.2,6.2-24.5,9     c-17.8,5.9-36,10.7-54.3,14.7c-9.9,2.2-19.9,4.1-29.9,5.8c-4.8,0.8-9.6,1.6-14.4,2.3c-2.4,0.4-4.7,0.7-7.1,1     c-1.1,0.2-2.3,0.3-3.4,0.5c2.9-0.4,1.1-0.1-0.8,0.1c-19.2,2.5-38.5,4.3-57.9,5.4c-40.9,2.5-81.9,2.3-122.7-0.6     c-11-0.8-22-1.8-32.9-3c-5.3-0.6-10.6-1.2-16-1.9c-0.6-0.1-4.3-0.6-1.7-0.2c2.7,0.4-2-0.3-2.6-0.4c-2.6-0.4-5.2-0.7-7.7-1.1     c-10-1.5-20-3.3-30-5.2c-4.5-0.9-9.1-1.8-13.6-2.8c-8-1.7-16.4-4.6-24,0.1c5.1-0.7,10.3-1.3,15.4-2c-4.3-1-8.5-2.3-12.8-2.8     c-1.3-0.2-2.6-0.4-3.9-0.5c4,0.4,5,0.5,3.1,0c-1.7-0.5-3.5-0.7-5.2-1.1c-13.5-3.1-24.2,6.1-25.3,19.3c0,0.1,0,0.1,0,0.2     c8.4-6.4,16.9-12.9,25.3-19.3c-1.5-0.4-3-0.8-4.6-1.1c-1.5-0.3-6.8-1.8-8-1c1.1-0.7,5.7,1.2,2.4-0.4c-1.3-0.6-2.9-1-4.3-1.5     c4.7,4.7,9.3,9.3,14,14c-3.7-13.5-17.3-15.4-28.7-19.2c-7.5-2.5-14.9-5.2-22.2-8.2c-0.4-0.2-5.8-2.4-1.6-0.6     c-1.8-0.8-3.6-1.6-5.4-2.4c-3.3-1.5-6.6-3-9.8-4.7c-7-3.5-13.9-7.3-20.5-11.6c-2.9-1.9-5.7-3.9-8.6-5.9c-3.8-2.6,2.4,2.1-0.8-0.6     c-1.5-1.2-3-2.5-4.5-3.8c-1-0.9-13-11.9-12.3-12.7c1.8,2.4,2.1,2.7,0.8,1c-0.2-0.3-0.5-0.7-0.7-1c-0.9-1.3-1.8-2.7-2.7-4.1     c-1.2-2-2.3-4.1-3.4-6.2c-1.8-3.4,1.5,4.6,0,0c-0.4-1.2-0.9-2.5-1.2-3.7c-0.6-2-1.9-10.4-1-3.3c-1.3-10.3-8.3-20.5-20-20     c-10.8,0.5-20,8.8-20,20c0,30.3,0,60.7,0,91c0,20.6,0,41.1,0,61.7c0,11-0.8,22.3,0.9,33.3c2.8,17.6,13.5,33.5,25.9,45.8     c7.6,7.5,16.2,14,25,19.9c4.5,3,9,5.7,13.7,8.4c6.4,3.6,13.9,8.7,21.3,8.7c-3.4-0.9-6.7-1.8-10.1-2.7     c64.3,31,136.9,43.8,207.5,49.7c82.6,7,167,3.3,248.3-13.1c33.3-6.7,65.8-16.1,97.1-29.4c31.2-13.2,65.4-32.3,82.2-63.1     c5.1-9.3,8.8-19.9,9-30.7c0.1-4.5,0-9.1,0-13.7c0-18.7,0-37.4,0-56.1c0-35.3,0-70.5,0-105.8c0-0.7,0-1.4,0-2.1     c0-10.5-9.2-20.5-20-20C841.2,228.6,832,236.9,832,248.1z" id="XMLID_28_"/></g></g><g id="XMLID_1370_"><g id="XMLID_18_"><path d="M832,427.1c0,49.7,0,99.3,0,149c0,9.1,0,18.2,0,27.2c0,0.8-0.1,1.6,0,2.4c0,0.1,0,0.3,0,0.4     c0.2,0.7-18.8,49.4,0.4-3.1c-0.5,1.3-0.6,2.9-0.9,4.3c-0.6,2.1-1.7,4.3-2.1,6.4c1-4.8,1.1-2.4,0.1-0.6c-0.5,1.1-1.1,2.1-1.7,3.1     c-1,1.8-2.1,3.5-3.3,5.1c-2.6,3.8,0.2,0.2,0.1,0c0.2,0.2-3.1,3.7-3.4,4c-3.8,4.2-7.9,8-12.3,11.6c-0.7,0.6-4.3,4-0.7,0.6     c-1.1,1-2.6,1.9-3.8,2.8c-3.1,2.2-6.3,4.3-9.6,6.3c-6.1,3.7-12.3,7.1-18.7,10.2c-4.6,2.3-10.1,3.8-14.4,6.6     c4.3-2.8,1.7-0.7,0.1-0.1c-1.2,0.5-2.4,1-3.6,1.4c-2.4,1-4.9,1.9-7.3,2.8c-5.5,2.1-11.1,4-16.7,5.8c-11.6,3.8-23.3,7.1-35.1,10     c-12.8,3.2-25.7,5.9-38.6,8.3c-6.5,1.2-13.1,2.3-19.7,3.3c-2.8,0.4-5.6,0.8-8.4,1.3c-1.7,0.2-3.4,0.5-5.1,0.7     c5-0.7-2.4,0.3-3.2,0.4c-30.1,3.8-60.5,5.9-90.8,6.6c-31.4,0.7-62.8-0.1-94.1-2.6c-14.8-1.2-29.5-2.7-44.1-4.6     c4.9,0.6-0.8-0.1-1.5-0.2c-1.7-0.2-3.4-0.5-5.1-0.7c-2.8-0.4-5.6-0.8-8.4-1.3c-7.1-1.1-14.2-2.4-21.2-3.7     c-24.7-4.7-49.3-10.7-73.2-18.7c-5.1-1.7-10.2-3.5-15.3-5.4c-2.4-0.9-4.9-1.9-7.3-2.8c-1-0.4-2.5-1.3-3.5-1.5     c2.8,1.2,3.3,1.4,1.3,0.5c-0.8-0.3-1.5-0.7-2.3-1c-11.7-5.1-23.1-11-33.9-18c-2.7-1.7-5.3-3.6-7.9-5.4c-4.3-3,3.1,2.7-0.8-0.6     c-1.1-0.9-2.3-1.9-3.4-2.8c-4.6-3.9-8.6-8.2-12.6-12.7c-3-3.4,2.5,3.7,0,0c-0.6-0.9-1.2-1.7-1.8-2.5c-1.2-1.8-2.4-3.7-3.4-5.7     c-0.6-1-1-2.1-1.6-3.1c-1.9-3.7,1.6,4.5,0.2,0.6c-0.9-2.5-1.7-4.9-2.3-7.5c-0.2-1-0.3-2.2-0.6-3.2c18.3,56.8,0.3,3.7,0.4,3.1     c0-0.1,0-0.3,0-0.4c0.1-0.9,0-1.8,0-2.6c0-3.6,0-7.2,0-10.8c0-53.7,0-107.4,0-161c0-1.3,0-2.7,0-4c-13.3,0-26.7,0-40,0     c2.6,20.2,11.6,37.3,25.9,51.8c7.6,7.7,16.4,14.4,25.3,20.5c4.7,3.1,9.5,6.1,14.4,8.8c6.3,3.6,13.9,8.7,21.3,8.7     c-3.4-0.9-6.7-1.8-10.1-2.7c35.6,17.2,73.8,28.4,112.5,36.3c47.6,9.7,96.3,14.8,144.8,16.2c51.6,1.5,102.9-1.2,154-8.3     c42.1-5.8,84.1-14.8,123.9-29.8c44-16.6,98.8-43.1,108.2-94.3c1.9-10.3-2.8-22.1-14-24.6c-9.8-2.2-22.6,3-24.6,14     c-0.5,2.8-1,5.5-1.8,8.3c-0.4,1.4-0.9,2.7-1.3,4.1c-0.8,2.9,1.8-3-0.2,0.4c-0.9,1.6-1.8,3.3-2.8,4.9c-0.5,0.9-1.1,1.7-1.7,2.6     c-0.4,0.5-0.7,1-1.1,1.5c-0.9,1.2-0.5,0.7,1.2-1.5c0.1,0.8-3.7,4.4-4.3,5c-1.6,1.7-3.2,3.3-4.9,4.9c-1.6,1.5-3.2,3-4.9,4.4     c-1,0.8-1.9,1.6-2.9,2.4c-3.2,2.7,2.9-2-0.9,0.6c-9.4,6.7-19.2,12.6-29.5,17.7c-3.5,1.8-7.1,3.4-10.7,5.1     c-0.3,0.1-5.7,2.8-5.9,2.6c0.1,0.2,4.4-1.8,0.6-0.3c-1.4,0.6-2.9,1.2-4.3,1.7c-38,15-78.2,24.1-118.5,30.2     c-2.9,0.4-5.8,0.9-8.7,1.3c-1.2,0.2-2.3,0.3-3.5,0.5c4.2-0.6,0.2,0-0.9,0.1c-6.3,0.8-12.6,1.5-18.8,2.2     c-12.4,1.3-24.7,2.3-37.1,3.1c-23.8,1.5-47.7,1.8-71.5,1.5c-24.7-0.4-49.3-1.7-73.9-4.1c-5.6-0.5-11.2-1.1-16.7-1.8     c-2.6-0.3-5.2-0.6-7.8-1c-0.7-0.1-6.4-0.9-1.5-0.2c-1.7-0.2-3.4-0.5-5.1-0.7c-11-1.6-22-3.4-32.9-5.5c-22-4.2-43.8-9.4-65.1-16     c-9.5-3-18.9-6.2-28.2-9.8c-2.4-0.9-4.8-1.9-7.1-2.9c-3.2-1.3,1,0.3,1.3,0.6c-1-0.7-2.3-1-3.4-1.5c-6.2-2.7-13.1-7.3-19.9-7.3     c3.4,0.9,6.7,1.8,10.1,2.7c-8.8-4.4-17.4-9.2-25.6-14.8c-1.8-1.2-3.5-2.4-5.2-3.6c-0.8-0.6-1.9-1.1-2.5-1.8     c2.7,3.1,0.9,0.7-0.1-0.1c-3.1-2.6-6.1-5.2-9-8.1c-0.6-0.6-7-7.9-7-7.9c0.2-0.1,2.9,4.1,0.5,0.5c-0.5-0.7-0.9-1.3-1.4-2     c-0.9-1.3-1.7-2.7-2.5-4.1c-0.9-1.5-1.6-3.1-2.4-4.7c-1.2-2.5,0.7,1,0.7,1.6c0-0.6-0.6-1.5-0.8-2.1c-0.5-1.6-1-3.2-1.4-4.8     c-0.4-1.6-1.2-7.3-0.3-0.6c-1.3-10.3-8.3-20.5-20-20c-10.8,0.5-20,8.8-20,20c0,19.1,0,38.1,0,57.2c0,31.7,0,63.4,0,95.1     c0,8.4-0.1,16.8,0,25.2c0.3,18.8,10.4,36.3,22.5,50.1c17.5,20,42,33.8,66.1,44.3c22.8,9.9,46.3,17.8,70.3,23.9     c57.5,14.7,117.3,21.4,176.6,23c62.6,1.7,125.5-2.5,187.1-14c25-4.7,49.8-10.7,74-18.7c23.8-7.9,47.7-17.6,69-30.9     c22.6-14.1,44-33.1,52.6-59.2c2.9-8.7,2.9-17,2.9-26c0-28.9,0-57.7,0-86.6c0-25.7,0-51.5,0-77.2c0-1.5,0-2.9,0-4.4     c0-10.5-9.2-20.5-20-20C841.2,407.6,832,415.9,832,427.1z" id="XMLID_22_"/></g></g><g id="XMLID_1384_"><g id="XMLID_12_"><path d="M832,780.6c0,1.1,0,2.3-0.1,3.4c-0.4,5.2,0.7-3.8,0.2-1.3c-0.5,2.5-1,4.9-1.8,7.3     c-0.4,1.1-0.9,2.2-1.2,3.3c2.1-6.8,1.2-2.7,0.3-0.9c-1.2,2.4-2.6,4.8-4.1,7c-0.7,1.1-1.5,2.1-2.2,3.1c-1.6,2.3,1.8-2.3,1.7-2.2     c-0.6,0.5-1,1.3-1.5,1.9c-2,2.3-4,4.6-6.2,6.7c-2,2-4.1,3.8-6.2,5.6c-1.2,1-2.4,1.9-3.6,2.9c-1.9,1.6,4.3-3.2,1.4-1.1     c-0.8,0.6-1.5,1.1-2.3,1.7c-12.3,8.9-25.8,16.1-39.6,22.3c-1.8,0.8-3.8,1.5-5.5,2.4c5.5-2.8-0.6,0.2-2.1,0.8     c-4.4,1.8-8.8,3.4-13.2,5c-8.6,3.1-17.2,5.8-25.9,8.4c-20.3,5.9-40.9,10.6-61.7,14.3c-5.3,1-10.6,1.9-16,2.7     c-2.7,0.4-5.4,0.8-8.1,1.2c-1.1,0.2-2.2,0.3-3.3,0.5c-1.1,0.2-2.2,0.3-3.3,0.5c2.6-0.3,2.7-0.4,0.3,0     c-11.4,1.5-22.7,2.7-34.1,3.7c-50.5,4.5-101.5,4.8-152,0.9c-11.9-0.9-23.7-2-35.5-3.4c-2.8-0.3-5.6-0.7-8.4-1     c-0.8-0.1-6.4-0.7-1.4-0.2c-1.1-0.1-2.2-0.3-3.3-0.5c-6-0.8-11.9-1.8-17.9-2.8c-21-3.5-41.9-7.9-62.4-13.4     c-18-4.9-35.6-10.7-52.9-17.8c-4-1.6,3.4,1.5,0.8,0.3c-0.9-0.4-1.9-0.8-2.8-1.2c-1.8-0.8-3.6-1.6-5.4-2.5     c-3.8-1.8-7.6-3.6-11.3-5.6c-6.4-3.4-12.7-7-18.8-11c-2.7-1.8-5.3-3.8-8-5.7c-2.1-1.5,4.2,3.4,1.4,1.1c-0.6-0.5-1.2-1-1.8-1.5     c-1.3-1.1-2.5-2.1-3.8-3.2c-4.4-4-8.2-8.4-12.1-12.8c4.7,5.3,1.4,1.8,0.4,0.3c-0.7-1-1.4-2.1-2-3.2c-1.4-2.3-2.4-4.8-3.7-7.1     c-0.1-0.2,2.1,5.4,1.2,2.8c-0.2-0.7-0.5-1.3-0.7-2c-0.4-1.1-0.7-2.2-1-3.3c-0.3-1.1-0.6-2.2-0.8-3.3c-0.1-0.4-0.1-0.9-0.2-1.3     c-0.7-3.1,0.5,6.1,0.3,2.3c-0.1-1.1-0.1-2.3-0.2-3.4c-0.1-2.3-0.3-3.3-0.7-6.3c-0.6-4.2,0.3,2.6,0.3,2.6c0.1-0.3,0-0.7,0-1     c0.1-2.2,0-4.4,0-6.6c0-8.9,0-17.8,0-26.7c0-45.4,0-90.8,0-136.2c0-1,0-2,0-3c-13.3,0-26.7,0-40,0c1.6,12.4,5,23.8,11.7,34.5     c6.7,10.5,15.3,19.9,25,27.7c20.9,16.8,44.7,28.5,69.5,38.1c48.4,18.7,100.1,28.2,151.4,34.1c60.2,6.9,121.3,7.6,181.8,2.5     c53.4-4.6,107.3-13.1,158.3-30.2c25.9-8.7,52-19.4,74.6-34.9c13.2-9.1,24.8-19.3,34.3-32.2c8.3-11.2,12.6-23.8,14.4-37.5     c-13.3,0-26.7,0-40,0c0,19.4,0,38.9,0,58.3c0,30.6,0,61.2,0,91.8C832,764.4,832,772.5,832,780.6c0,10.5,9.2,20.5,20,20     c10.8-0.5,20-8.8,20-20c0-20,0-40.1,0-60.1c0-30.9,0-61.7,0-92.6c0-7.2,0-14.4,0-21.6c0-10.5-9.2-20.5-20-20     c-12,0.5-18.6,8.8-20,20c0.9-7.1-0.3,0.5-0.8,2.2c-0.3,1.1-0.6,2.1-1,3.2c-0.8,2.4-2.3,2.6,0.3-0.5c-1.1,1.3-1.8,3.7-2.7,5.2     c-0.5,0.8-5,6.7-4.7,7.2c0.5-0.7,1-1.4,1.6-2c-0.5,0.7-1.1,1.3-1.7,2c-0.6,0.7-1.2,1.3-1.7,2c-1.8,2-3.8,4-5.8,5.9     c-2.1,2-4.3,3.9-6.5,5.7c-0.1,0.1-4.1,3.1-1.5,1.2c2.3-1.7-2.6,1.8-3,2.1c-10.6,7.4-22,13.6-33.7,19.1c-1.9,0.9-3.7,1.7-5.6,2.5     c-1.1,0.5-2.4,0.9-3.4,1.5c4.3-2.8,1.6-0.7,0.1-0.1c-4.9,2-9.8,3.9-14.7,5.6c-21.6,7.8-43.8,13.8-66.2,18.6     c-12.2,2.6-24.5,4.9-36.9,6.9c-3.3,0.5-6.7,1-10,1.5c-1.7,0.2-3.4,0.5-5.1,0.7c-3.9,0.5-0.5,0.1,0.2,0c-7.5,1-15.1,1.9-22.6,2.7     c-57.4,6-115.5,6.4-173,1.5c-6.5-0.6-13.1-1.2-19.6-1.9c-3.5-0.4-7-0.8-10.5-1.2c-1.7-0.2-3.5-0.4-5.2-0.6     c-1.1-0.1-2.3-0.3-3.4-0.4c2.2,0.3,2.5,0.3,1,0.1c-13-1.9-25.9-3.9-38.8-6.4c-23.3-4.5-46.3-10.1-68.8-17.5     c-5.6-1.8-11.2-3.8-16.7-5.9c-2.4-0.9-4.9-1.9-7.3-2.8c-1.2-0.5-2.4-1-3.6-1.4c-2-0.8-1.6-0.6,1.3,0.5c-0.8-0.3-1.5-0.7-2.3-1     c-12.1-5.3-23.9-11.3-35-18.5c-3-2-6.5-3.9-9.1-6.4c3,2.9,1.2,1,0.4,0.3c-1.5-1.3-3-2.5-4.5-3.8c-1-0.9-13-11.8-12.3-12.7     c-0.1,0.1,2.7,3.8,0.1,0c-0.9-1.3-1.8-2.7-2.7-4.1c-1.2-2-2.3-4.1-3.4-6.2c-1.9-3.7,1.6,4.5,0.2,0.6c-0.5-1.4-1-2.8-1.4-4.3     c-0.5-1.9-1.9-10.5-1-3.3c-1.3-10.3-8.3-20.5-20-20c-10.8,0.5-20,8.8-20,20c0,42,0,84,0,125.9c0,15.8-0.6,31.8,0,47.5     c0.1,2,0.1-0.9,0.7,5.5c0.4,4.1-0.6-5.1-0.3,0.1c0.2,4,0.8,8.1,1.6,12c1.3,6.2,3.9,12.3,6.8,17.9c5.9,11.5,15.1,21.7,24.9,29.9     c26.8,22.5,59.6,36.7,92.6,47.5c43.1,14.2,88.1,22.1,133.2,27.2c51.4,5.8,103.3,7,154.9,4.1c47.9-2.7,96.1-8.9,142.7-20.4     c36.4-8.9,73.4-21.1,105.7-40.6c23.7-14.3,47.1-34.2,55.4-61.6c1.8-6,2.7-12.4,2.7-18.7c0.1-10.5-9.3-20.5-20-20     C841.1,761,832.1,769.3,832,780.6z" id="XMLID_16_"/></g></g></g></svg>