<svg id="Vrstva_1" data-name="Vrstva 1" xmlns="http://www.w3.org/2000/svg" viewBox="0 0 512 135.22"><defs><style>.cls-1{fill:#97d700;}.cls-2{fill:#71c5e8;}.cls-3{fill:#ff9013;}.cls-4{fill:#212322;}</style></defs><path class="cls-1" d="M17,12.59A19.2,19.2,0,0,0,.57,34.25h0l11.36,81.12L59.72,6.62Z"/><path class="cls-2" d="M132.28,80.18l-4.47-62.37A19.22,19.22,0,0,0,107.3.05,9.11,9.11,0,0,0,106,.19L87.57,2.73l40.52,90.85A19.13,19.13,0,0,0,132.28,80.18Z"/><path class="cls-3" d="M29.36,135.1A19.06,19.06,0,0,0,39,133.7l69.58-29.36L75.43,30.16Z"/><path class="cls-4" d="M189.9,26.41h22l30.7,82.39H222.89l-5.75-16.87H184l-5.77,16.87H159.18Zm-1,50.89h23.32L201,43.52h-.48Z"/><path class="cls-4" d="M330.81,26.41h18.61V108.8H330.81Z"/><path class="cls-4" d="M363.45,26.41H423.8V41.62H382.1V64.73h33.59V79.56H382.1v29.22H363.45Z"/><path class="cls-4" d="M462,77.54,431,26.41h21.11L471.4,60.3h.48l20.27-33.89H512l-31.33,51V108.8H462Z"/><path class="cls-4" d="M290.86,26.41H249.77V108.8h18.6V82.69h22.49a28.14,28.14,0,0,0,0-56.28ZM288.8,68.2H268.37V40.9H288.8a13.65,13.65,0,0,1,0,27.3Z"/></svg>