<svg xmlns="http://www.w3.org/2000/svg" width="24" height="24" fill="none" viewBox="0 0 24 24" id="google-docs">
  <path fill="#3186FF" d="M4 3.5C4 2.11929 5.11929 1 6.5 1H12.5L19.7071 8.20711C19.8946 8.39464 20 8.649 20 8.91421V20.5C20 21.8807 18.8807 23 17.5 23H6.5C5.11929 23 4 21.8807 4 20.5V3.5Z"></path>
  <path fill="url(#paint0_linear_12_2)" d="M4 3.5C4 2.11929 5.11929 1 6.5 1H12.5L19.7071 8.20711C19.8946 8.39464 20 8.649 20 8.91421V20.5C20 21.8807 18.8807 23 17.5 23H6.5C5.11929 23 4 21.8807 4 20.5V3.5Z"></path>
  <path fill="url(#paint1_linear_12_2)" d="M4 3.5C4 2.11929 5.11929 1 6.5 1H12.5L19.7071 8.20711C19.8946 8.39464 20 8.649 20 8.91421V20.5C20 21.8807 18.8807 23 17.5 23H6.5C5.11929 23 4 21.8807 4 20.5V3.5Z"></path>
  <path fill="#7BF" d="M12.5 6V1L19 7.5H14C13.1716 7.5 12.5 6.82843 12.5 6Z"></path>
  <path stroke="#fff" stroke-linecap="round" stroke-width="1.5" d="M8.875 15H15.5M8.875 18.625H13.375"></path>
  <defs>
    <linearGradient id="paint0_linear_12_2" x1="14" x2="9.5" y1="12.5" y2="22" gradientUnits="userSpaceOnUse">
      <stop stop-color="#ACAAFF" stop-opacity="0"></stop>
      <stop offset="1" stop-color="#ACAAFF" stop-opacity=".9"></stop>
    </linearGradient>
    <linearGradient id="paint1_linear_12_2" x1="20" x2="4" y1="12" y2="12" gradientUnits="userSpaceOnUse">
      <stop stop-color="#3186FF"></stop>
      <stop offset=".2" stop-color="#3186FF" stop-opacity="0"></stop>
      <stop offset=".8" stop-color="#3186FF" stop-opacity="0"></stop>
      <stop offset="1" stop-color="#3186FF"></stop>
    </linearGradient>
  </defs>
</svg>
