<svg xmlns:dc="http://purl.org/dc/elements/1.1/" xmlns:cc="http://creativecommons.org/ns#" xmlns:rdf="http://www.w3.org/1999/02/22-rdf-syntax-ns#" xmlns:svg="http://www.w3.org/2000/svg" xmlns="http://www.w3.org/2000/svg" xmlns:sodipodi="http://sodipodi.sourceforge.net/DTD/sodipodi-0.dtd" xmlns:inkscape="http://www.inkscape.org/namespaces/inkscape" version="1.1" id="svg2" inkscape:version="0.48.4 r9939" sodipodi:docname="agilecrm-logo-svg.svg" inkscape:export-filename="C:\Users\Manohar\Desktop\2.png" inkscape:export-xdpi="31.843102" inkscape:export-ydpi="31.843102" viewBox="245.08 45.56 143 98.09">
  <metadata id="metadata43">
    <rdf:RDF>
      <cc:Work rdf:about="">
        <dc:format>image/svg+xml</dc:format>
        <dc:type rdf:resource="http://purl.org/dc/dcmitype/StillImage"/>
        <dc:title/>
      </cc:Work>
    </rdf:RDF>
  </metadata>
  <defs id="defs41"/>
  <sodipodi:namedview pagecolor="#ffffff" bordercolor="#666666" borderopacity="1" objecttolerance="10" gridtolerance="10" guidetolerance="10" inkscape:pageopacity="0" inkscape:pageshadow="2" inkscape:window-width="1366" inkscape:window-height="705" id="namedview39" showgrid="false" inkscape:zoom="0.36202532" inkscape:cx="395" inkscape:cy="127.5" inkscape:window-x="-8" inkscape:window-y="-8" inkscape:window-maximized="1" inkscape:current-layer="#409de4ff"/>
  <g id="#409de4ff">
    <path d="m 307.33986,45.879371 c 5.97,-0.4 12,-0.47 17.96,0.05 15.51,3.06 28.43,15.83 32.21,31.11 1.42,5.19 1.45,10.63 0.95,15.95 6.33,-0.78 12.92,0.37 18.25,3.99 7.46,4.829999 12.01,13.809999 11.3,22.699999 -0.17,12.85 -11.94,24.47 -24.88,23.95 -26.35,-0.02 -52.7,-0.01 -79.05,-0.01 -5.21,-0.01 -10.59,0.31 -15.56,-1.53 -9.71,-3.21 -17.78,-10.94 -21.45,-20.48 -2.57,-6.02 -2.06,-12.76 -1.66,-19.14 2.36,-14.749999 15.52,-26.489999 30.21,-28.239999 4.66,-14.1 17.04,-25.59 31.72,-28.35 m -22.06,28.84 c 9.63,1.68 17.83,7.36 26.49,11.53 -1.41,2.66 -2.82,5.32 -4.28,7.95 -4.89,-2.84 -10.07,-5.12 -15.06,-7.77 -5.81,-3.01 -12.65,-4.29 -19.05,-2.61 -11.82,2.75 -20.66,14.64 -19.69,26.769999 0.59,13.1 12.38,24.38 25.49,24.38 27.67,0.03 55.33,-0.01 82.99,0.02 6.82,0.18 13.35,-4.26 15.89,-10.55 2.57,-6.27 0.76,-13.96 -4.34,-18.41 -4.66,-4.52 -12.09,-5.41 -17.93,-2.88 -1.85,4.36 -4.2,8.53 -7.32,12.1 -2.23,-1.97 -4.49,-3.92 -6.76,-5.85 4.18,-5.01 7.05,-11.149999 7.86,-17.649999 2.18,-15.06 -7.3,-30.66 -21.61,-35.76 -16.15,-6.54 -36.81,2.2 -42.68,18.73 z" id="path18" inkscape:export-filename="C:\Users\Manohar\Desktop\New Agile Logo\cloud.png" inkscape:export-xdpi="35.244366" inkscape:export-ydpi="35.244366" inkscape:connector-curvature="0" style="fill:#409de4"/>
  </g>
</svg>