<?xml version="1.0" ?><svg height="60px" version="1.1" viewBox="0 0 51 60" width="51px" xmlns="http://www.w3.org/2000/svg" xmlns:xlink="http://www.w3.org/1999/xlink"><title/><desc/><g fill="none" fill-rule="evenodd" id="Page-1" stroke="none" stroke-width="1"><g fill="#000000" fill-rule="nonzero" id="031---Multiple-Documents"><path d="M4,48 L7,48 L7,51 C7,52.6568542 8.34314575,54 10,54 L13,54 L13,57 C13,58.6568542 14.3431458,60 16,60 L48,60 C49.6568542,60 51,58.6568542 51,57 L51,15 C51,13.3431458 49.6568542,12 48,12 L45,12 L45,9 C45,7.34314575 43.6568542,6 42,6 L39,6 L39,3 C39,1.34314575 37.6568542,1.01453063e-16 36,0 L12,0 C11.981,0 11.963,0.01 11.944,0.011 C11.8522104,0.0160277711 11.7616187,0.0342134536 11.675,0.065 C11.6453515,0.0749851222 11.6163033,0.0866711761 11.588,0.1 C11.478484,0.148464171 11.378564,0.216206528 11.293,0.3 L1.293,10.3 C1.20913308,10.3847435 1.14136532,10.4840233 1.093,10.593 C1.079,10.624 1.071,10.655 1.06,10.687 C1.03114885,10.7698829 1.01398391,10.8563808 1.009,10.944 C1.009,10.966 0.996,10.985 0.996,11.007 L0.996,45 C0.995999292,45.796343 1.31261884,46.5600116 1.8760934,47.1227358 C2.43956796,47.6854601 3.20365771,48.0010618 4,48 Z M48,14 C48.5522847,14 49,14.4477153 49,15 L49,57 C49,57.5522847 48.5522847,58 48,58 L16,58 C15.4477153,58 15,57.5522847 15,57 L15,54 L42,54 C43.6568542,54 45,52.6568542 45,51 L45,14 L48,14 Z M42,8 C42.5522847,8 43,8.44771525 43,9 L43,51 C43,51.5522847 42.5522847,52 42,52 L10,52 C9.44771525,52 9,51.5522847 9,51 L9,48 L36,48 C37.6568542,48 39,46.6568542 39,45 L39,8 L42,8 Z M37,3 L37,45 C37,45.5522847 36.5522847,46 36,46 L4,46 C3.44771525,46 3,45.5522847 3,45 L3,12 L10,12 C11.6568542,12 13,10.6568542 13,9 L13,2 L36,2 C36.5522847,2 37,2.44771525 37,3 Z M11,3.414 L11,9 C11,9.55228475 10.5522847,10 10,10 L4.414,10 L11,3.414 Z" id="Shape"/></g></g></svg>