<?xml version="1.0" standalone="no"?>
<!DOCTYPE svg PUBLIC "-//W3C//DTD SVG 20010904//EN">
<svg version="1.0" xmlns="http://www.w3.org/2000/svg"
 width="980.000000pt" height="980.000000pt" viewBox="0 0 980.000000 980.000000"
 preserveAspectRatio="xMidYMid meet">

<g transform="translate(0.000000,980.000000) scale(0.100000,-0.100000)"
fill="#000000" stroke="none">
<path d="M4005 7910 c-367 -42 -711 -219 -954 -493 -169 -191 -289 -432 -347
-697 -27 -121 -27 -448 0 -570 31 -143 65 -239 132 -375 267 -542 850 -870
1446 -816 371 34 683 183 941 451 203 209 326 441 389 734 18 83 22 134 22
286 1 210 -12 294 -72 475 -74 226 -181 396 -361 576 -225 224 -476 356 -789
413 -105 20 -304 27 -407 16z m319 -391 c98 -29 171 -73 248 -150 177 -179
218 -449 101 -671 -151 -289 -491 -395 -787 -246 -82 41 -201 162 -243 248
-108 217 -74 479 85 652 157 169 375 231 596 167z"/>
<path d="M4100 7328 c-112 -17 -217 -95 -273 -203 -29 -55 -31 -68 -32 -160 0
-90 3 -106 28 -157 113 -230 399 -285 586 -112 85 78 116 151 116 269 0 82 -3
97 -33 157 -73 149 -227 230 -392 206z"/>
<path d="M6565 5662 c-198 -96 -245 -349 -92 -505 186 -191 504 -83 542 184
13 90 -35 213 -105 273 -63 52 -109 69 -200 73 -78 4 -90 2 -145 -25z"/>
<path d="M5925 4750 l-330 -330 -537 0 -538 0 0 -105 0 -105 570 0 c477 0 575
2 598 14 15 8 182 170 371 360 l345 345 -67 65 c-37 36 -67 70 -67 76 0 5 -3
10 -8 10 -4 0 -156 -148 -337 -330z"/>
<path d="M3630 3366 l0 -1455 22 -15 c17 -12 49 -16 132 -16 l110 0 263 262
263 262 0 268 0 268 -169 0 c-158 0 -170 1 -202 23 -45 30 -58 79 -35 129 9
19 28 40 42 47 15 7 89 11 194 11 l170 0 0 215 0 215 -174 0 c-173 0 -175 0
-205 26 -56 47 -50 126 11 164 30 18 51 20 201 20 l167 0 0 210 0 210 -165 0
c-185 0 -213 7 -241 61 -22 43 -11 91 27 123 30 26 32 26 205 26 l174 0 0 170
0 171 -67 -8 c-99 -12 -346 -8 -438 6 -44 7 -122 23 -173 37 -52 13 -98 24
-103 24 -5 0 -9 -586 -9 -1454z"/>
<path d="M6715 3987 c-90 -30 -153 -83 -196 -167 -20 -37 -24 -60 -24 -135 0
-75 4 -98 24 -139 85 -172 304 -232 461 -127 167 112 189 353 43 493 -75 73
-213 106 -308 75z"/>
<path d="M4520 3685 l0 -105 880 0 880 0 0 105 0 105 -880 0 -880 0 0 -105z"/>
<path d="M4520 3045 l0 -105 640 0 640 0 0 -107 0 -108 106 0 105 0 -3 188 -3
189 -28 24 -28 24 -715 0 -714 0 0 -105z"/>
<path d="M5820 2507 c-221 -62 -302 -333 -155 -512 23 -29 59 -56 102 -77 56
-27 77 -32 138 -32 133 0 249 80 296 203 27 73 23 185 -10 249 -71 138 -228
210 -371 169z"/>
</g>
</svg>
