<svg width="25" height="24" viewBox="0 0 25 24" fill="none" xmlns="http://www.w3.org/2000/svg">
    <g clip-path="url(#z21lgd958a)">
        <path fill-rule="evenodd" clip-rule="evenodd" d="M12.464 0C5.848 0 .5 5.5.5 12.304c0 5.44 3.427 10.043 8.18 11.673.595.122.813-.265.813-.59 0-.286-.02-1.264-.02-2.282-3.328.733-4.02-1.467-4.02-1.467-.536-1.426-1.328-1.793-1.328-1.793-1.09-.753.08-.753.08-.753 1.207.081 1.841 1.263 1.841 1.263 1.07 1.873 2.793 1.344 3.487 1.018.099-.795.416-1.345.752-1.65-2.654-.285-5.447-1.345-5.447-6.07 0-1.345.475-2.445 1.228-3.3-.119-.306-.535-1.57.12-3.26 0 0 1.01-.326 3.287 1.263.975-.27 1.981-.407 2.991-.408 1.01 0 2.04.143 2.991.408 2.278-1.59 3.288-1.263 3.288-1.263.654 1.69.238 2.954.12 3.26.772.855 1.227 1.955 1.227 3.3 0 4.725-2.792 5.764-5.467 6.07.436.387.812 1.12.812 2.282 0 1.65-.02 2.974-.02 3.381 0 .326.219.713.813.591 4.754-1.63 8.18-6.234 8.18-11.673C24.429 5.5 19.06 0 12.465 0z" fill="#24292F"/>
    </g>
    <defs>
        <clipPath id="z21lgd958a">
            <path fill="#fff" transform="translate(.5)" d="M0 0h24v24H0z"/>
        </clipPath>
    </defs>
</svg>
