<svg width="25" height="24" viewBox="0 0 25 24" fill="none" xmlns="http://www.w3.org/2000/svg">
    <path d="M23.06 12.25c0-.78-.07-1.53-.2-2.25H12.5v4.26h5.92c-.26 1.37-1.04 2.53-2.21 3.31v2.77h3.57c2.08-1.92 3.28-4.74 3.28-8.09z" fill="#4285F4"/>
    <path d="M12.5 23c2.97 0 5.46-.98 7.28-2.66l-3.57-2.77c-.98.66-2.23 1.06-3.71 1.06-2.86 0-5.29-1.93-6.16-4.53H2.68v2.84C4.49 20.53 8.2 23 12.5 23z" fill="#34A853"/>
    <path d="M6.34 14.09c-.22-.66-.35-1.36-.35-2.09 0-.73.13-1.43.35-2.09V7.07H2.68C1.93 8.55 1.5 10.22 1.5 12c0 1.78.43 3.45 1.18 4.93l2.85-2.22.81-.62z" fill="#FBBC05"/>
    <path d="M12.5 5.38c1.62 0 3.06.56 4.21 1.64l3.15-3.15C17.95 2.09 15.47 1 12.5 1 8.2 1 4.49 3.47 2.68 7.07l3.66 2.84c.87-2.6 3.3-4.53 6.16-4.53z" fill="#EA4335"/>
</svg>
