<?xml version="1.0" encoding="utf-8"?>
<svg viewBox="0 0 500 500" xmlns="http://www.w3.org/2000/svg">
  <defs/>
  <path d="M 141.55 85.557 C 142.318 88.016 143.079 90.478 143.837 92.94 C 144.053 93.63 144.27 94.32 144.493 95.03 C 145.73 99.075 146.593 102.865 147.001 107.114 C 146.192 107.522 145.383 107.93 144.549 108.35 C 131.794 114.967 122.729 124.267 117.412 139.019 C 114.107 150.308 113.443 161.123 113.196 172.958 C 113.156 174.845 113.112 176.732 113.066 178.619 C 112.939 183.978 112.817 189.338 112.701 194.697 C 112.63 197.996 112.553 201.294 112.472 204.592 C 112.442 205.835 112.415 207.076 112.391 208.319 C 112.001 228.035 108.282 243.859 95.939 258.613 C 92.981 261.731 89.713 264.23 86.266 266.637 C 86.823 267.125 87.381 267.612 87.954 268.116 C 100.512 279.337 109.835 292.687 111.79 310.958 C 112.135 315.472 112.192 320 112.285 324.526 C 112.324 326.443 112.368 328.36 112.413 330.277 C 112.542 335.723 112.663 341.169 112.778 346.616 C 112.85 349.961 112.927 353.308 113.008 356.653 C 113.038 357.912 113.065 359.171 113.089 360.431 C 113.479 380.365 115.783 399.543 128.714 414.704 C 134.024 420.112 140.518 423.643 147.001 427.022 C 146.522 432.016 145.322 436.46 143.837 441.195 C 143.618 441.908 143.399 442.621 143.173 443.356 C 142.636 445.099 142.094 446.839 141.55 448.579 C 137.556 448.082 133.975 447.092 130.211 445.507 C 129.673 445.281 129.135 445.054 128.58 444.821 C 119.775 440.981 112.145 435.558 104.954 428.746 C 104.487 428.354 104.02 427.962 103.539 427.557 C 91.507 417.2 84.278 399.553 82.34 383.214 C 80.911 370.009 81.047 356.572 80.775 343.286 C 80.695 339.401 80.609 335.515 80.517 331.629 C 80.476 329.838 80.444 328.046 80.411 326.254 C 80.187 316.729 79.689 307.618 75.608 299.08 C 75.331 298.489 75.053 297.898 74.766 297.289 C 72.687 293.038 70.681 289.738 66.8 287.332 C 66.186 286.949 65.571 286.567 64.938 286.173 C 59.046 282.892 54.063 282.031 47.334 280.434 C 47.334 271.612 47.334 262.791 47.334 253.703 C 49.485 253.097 51.638 252.493 53.855 251.87 C 63.218 249.062 70.309 244.951 75.557 235.588 C 80.261 225.856 80.123 214.803 80.36 204.03 C 80.4 202.236 80.444 200.442 80.489 198.649 C 80.616 193.554 80.739 188.46 80.854 183.365 C 80.926 180.229 81.003 177.094 81.084 173.959 C 81.127 172.219 81.164 170.479 81.2 168.738 C 81.478 158.09 81.995 147.121 85.293 137.025 C 85.498 136.376 85.703 135.728 85.914 135.059 C 92.812 113.893 107.324 100.434 125.083 90.737 C 135.767 85.189 135.767 85.189 141.55 85.557 Z" style=""/>
  <path d="M 352.563 85.557 C 357.756 85.955 361.738 87.101 366.432 89.545 C 367.04 89.855 367.649 90.165 368.275 90.484 C 376.482 94.728 383.894 99.619 390.717 106.252 C 391.309 106.826 391.901 107.399 392.511 107.99 C 406.03 121.976 411.881 141.943 412.636 161.972 C 412.714 164.905 412.783 167.837 412.842 170.769 C 412.882 172.725 412.925 174.68 412.97 176.635 C 413.099 182.188 413.221 187.741 413.336 193.293 C 413.407 196.709 413.484 200.125 413.565 203.54 C 413.595 204.831 413.622 206.121 413.646 207.411 C 413.905 221.016 415.138 234.087 424.199 244.218 C 430.401 249.997 438.334 251.549 446.001 253.703 C 446.001 262.524 446.001 271.345 446.001 280.434 C 444.073 280.931 442.146 281.43 440.161 281.943 C 431.867 284.204 424.357 287.392 419.709 295.877 C 415.939 304.054 414.072 311.446 413.869 320.653 C 413.843 321.757 413.817 322.86 413.79 323.997 C 413.778 324.579 413.765 325.161 413.753 325.761 C 413.713 327.613 413.669 329.466 413.624 331.318 C 413.496 336.582 413.375 341.846 413.259 347.11 C 412.689 372.75 412.689 372.75 411.792 382.318 C 411.706 383.236 411.706 383.236 411.619 384.172 C 409.883 400.3 402.591 414.16 392.274 425.297 C 391.639 425.997 391.005 426.698 390.352 427.419 C 381.697 436.536 365.088 448.579 352.563 448.579 C 351.623 445.657 350.704 442.727 349.789 439.794 C 349.523 438.966 349.256 438.139 348.981 437.286 C 348.733 436.484 348.485 435.68 348.228 434.853 C 347.996 434.117 347.764 433.38 347.525 432.622 C 347.043 430.11 347.129 428.583 347.891 426.16 C 349.071 425.095 349.071 425.095 350.589 424.344 C 351.144 424.052 351.7 423.761 352.271 423.46 C 352.865 423.159 353.459 422.859 354.071 422.548 C 366.487 415.756 372.901 405.008 377.48 390.806 C 380.35 380.531 380.691 370.282 380.918 359.587 C 380.957 357.725 381.001 355.864 381.046 354.002 C 381.174 348.716 381.297 343.429 381.411 338.143 C 381.482 334.889 381.56 331.635 381.641 328.382 C 381.67 327.156 381.698 325.929 381.722 324.703 C 382.107 305.481 385.88 289.225 398.728 275.522 C 402.043 272.401 405.637 269.894 409.404 267.499 C 407.47 265.186 405.309 263.48 402.98 261.679 C 391.746 252.638 385.161 240.534 382.508 225.435 C 382.131 222.503 382.012 219.674 381.957 216.713 C 381.945 216.142 381.934 215.57 381.922 214.981 C 381.897 213.746 381.874 212.511 381.852 211.276 C 381.816 209.304 381.775 207.333 381.732 205.361 C 381.611 199.757 381.494 194.152 381.393 188.547 C 381.157 151.625 381.157 151.625 365.897 119.563 C 361.599 115.044 355.985 112.047 350.842 108.868 C 349.568 108.053 348.337 107.156 347.113 106.252 C 347.575 101.364 348.742 97.109 350.275 92.509 C 350.495 91.837 350.714 91.166 350.94 90.473 C 351.476 88.832 352.019 87.195 352.563 85.557 Z" style=""/>
  <path d="M 273.141 109.701 C 273.141 199.051 273.141 288.401 273.141 380.459 C 262.863 380.459 252.585 380.459 241.995 380.459 C 241.995 305.621 241.995 230.783 241.995 153.678 C 229.578 158.481 229.578 158.481 217.197 163.388 C 216.427 163.697 215.657 164.005 214.864 164.324 C 212.471 165.283 210.079 166.244 207.686 167.204 C 206.066 167.855 204.447 168.504 202.827 169.153 C 199.855 170.345 196.882 171.537 193.911 172.731 C 193.247 172.996 192.583 173.263 191.899 173.536 C 190.417 174.134 188.938 174.738 187.46 175.346 C 186.689 175.663 185.917 175.979 185.122 176.305 C 184.42 176.596 183.718 176.885 182.995 177.184 C 181.261 177.822 181.261 177.822 179.704 177.822 C 179.704 167.293 179.704 156.765 179.704 145.917 C 198.116 138.169 216.548 130.482 235.036 122.959 C 235.82 122.639 236.604 122.32 237.412 121.991 C 241.855 120.181 246.301 118.382 250.754 116.598 C 252.205 116.015 253.656 115.429 255.106 114.839 C 257.237 113.974 259.372 113.119 261.507 112.267 C 262.142 112.008 262.777 111.748 263.431 111.479 C 264.026 111.245 264.621 111.009 265.234 110.767 C 265.749 110.561 266.263 110.354 266.793 110.14 C 268.469 109.701 268.469 109.701 273.141 109.701 Z" style=""/>
</svg>
