<?xml version="1.0" standalone="no"?>
<!DOCTYPE svg PUBLIC "-//W3C//DTD SVG 20010904//EN"
 "http://www.w3.org/TR/2001/REC-SVG-20010904/DTD/svg10.dtd">
<svg version="1.0" xmlns="http://www.w3.org/2000/svg"
 width="423.000000pt" height="90.000000pt" viewBox="0 0 423.000000 90.000000"
 preserveAspectRatio="xMidYMid meet">

<g transform="translate(0.000000,90.000000) scale(0.100000,-0.100000)"
fill="#000000" stroke="none">
<path d="M1970 790 c-30 -30 -27 -83 7 -110 73 -57 167 45 100 108 -30 28 -80
29 -107 2z"/>
<path d="M3241 784 c-25 -32 -27 -61 -6 -91 51 -72 171 -2 130 76 -25 50 -91
57 -124 15z"/>
<path d="M235 780 c-71 -28 -119 -71 -152 -138 -38 -77 -40 -190 -4 -270 31
-69 98 -128 170 -148 75 -22 223 -15 278 13 36 19 38 23 41 73 4 63 -3 86 -21
73 -25 -21 -113 -43 -166 -43 -117 0 -190 74 -178 181 8 61 18 81 64 116 33
25 44 28 117 27 62 0 91 -5 125 -22 25 -12 46 -22 48 -22 2 0 3 31 3 69 l0 69
-62 21 c-81 27 -193 28 -263 1z"/>
<path d="M1656 714 c-3 -9 -6 -36 -6 -60 0 -40 -2 -44 -25 -44 -23 0 -25 -3
-25 -50 0 -46 2 -50 24 -50 22 0 23 -3 28 -105 8 -155 41 -195 159 -195 26 0
59 4 74 10 24 9 26 14 23 57 l-3 48 -38 -3 c-58 -5 -67 8 -67 104 l0 83 43 3
42 3 3 48 3 47 -45 0 -46 0 0 60 0 60 -69 0 c-54 0 -70 -4 -75 -16z"/>
<path d="M3477 723 c-4 -3 -7 -30 -7 -60 0 -50 -1 -53 -25 -53 -23 0 -25 -3
-25 -50 0 -47 2 -50 25 -50 25 0 25 0 25 -94 0 -154 38 -206 150 -206 94 0
100 4 100 64 l0 52 -38 -4 c-58 -6 -74 18 -70 109 l3 74 43 3 42 3 0 50 0 49
-45 0 -45 0 0 60 0 60 -63 0 c-35 0 -67 -3 -70 -7z"/>
<path d="M702 595 c-69 -35 -104 -87 -110 -161 -9 -107 49 -189 152 -215 59
-15 171 -7 212 14 150 77 150 286 0 364 -19 10 -63 18 -116 21 -77 3 -90 1
-138 -23z m179 -98 c45 -35 52 -110 14 -151 -33 -36 -95 -37 -130 -1 -35 34
-35 106 0 140 27 28 88 34 116 12z"/>
<path d="M1308 600 c-31 -17 -37 -17 -42 -5 -4 11 -22 15 -71 15 l-65 0 0
-195 0 -195 70 0 70 0 0 124 c0 123 0 125 26 145 36 28 88 28 108 -1 12 -17
16 -50 16 -145 l0 -123 70 0 70 0 0 145 c0 166 -10 203 -62 235 -44 27 -139
27 -190 0z"/>
<path d="M2262 599 c-64 -32 -96 -85 -100 -170 -5 -85 20 -144 78 -184 52 -36
155 -46 214 -21 48 20 46 21 46 -8 0 -14 -11 -37 -23 -52 -20 -23 -34 -28 -83
-31 -35 -3 -78 2 -107 11 l-48 14 3 -51 3 -52 50 -13 c30 -8 79 -11 123 -8 97
6 155 35 193 94 l29 46 0 218 0 218 -70 0 c-56 0 -70 -3 -70 -15 0 -12 -6 -12
-37 5 -52 28 -144 27 -201 -1z m207 -115 c26 -21 31 -33 31 -69 0 -36 -5 -48
-31 -69 -41 -35 -100 -36 -134 -1 -36 35 -35 106 1 140 37 34 92 34 133 -1z"/>
<path d="M1950 415 l0 -195 75 0 75 0 -2 193 -3 192 -72 3 -73 3 0 -196z"/>
<path d="M2710 468 c1 -162 11 -196 69 -235 45 -30 130 -32 186 -3 47 24 45
24 45 5 0 -12 14 -15 70 -15 l70 0 0 195 0 196 -72 -3 -73 -3 -3 -122 c-3
-118 -3 -123 -29 -143 -30 -23 -71 -26 -99 -6 -17 13 -19 29 -22 145 l-4 131
-69 0 -69 0 0 -142z"/>
<path d="M3230 415 l0 -195 70 0 70 0 -2 193 -3 192 -67 3 -68 3 0 -196z"/>
<path d="M3720 602 c0 -4 36 -85 80 -180 44 -94 80 -178 80 -185 0 -8 -9 -26
-21 -41 -17 -21 -29 -26 -65 -26 l-44 0 0 -49 c0 -56 7 -61 98 -61 65 0 115
22 147 64 13 18 56 113 95 211 39 99 77 195 85 213 26 58 22 62 -53 62 l-68 0
-39 -106 c-21 -58 -44 -112 -50 -121 -9 -12 -20 7 -59 106 l-48 121 -69 0
c-38 0 -69 -4 -69 -8z"/>
</g>
</svg>
