<?xml version="1.0" ?><svg id="Layer_1" style="enable-background:new 0 0 1000 1000;" version="1.1" viewBox="0 0 1000 1000" xml:space="preserve" xmlns="http://www.w3.org/2000/svg" xmlns:xlink="http://www.w3.org/1999/xlink"><style type="text/css">
	.st0{fill:#FF4500;}
	.st1{fill:#FFFFFF;}
</style><title/><g><path class="st0" d="M500,1000L500,1000C223.9,1000,0,776.1,0,500v0C0,223.9,223.9,0,500,0h0c276.1,0,500,223.9,500,500v0   C1000,776.1,776.1,1000,500,1000z"/><path class="st1" d="M614.6,604.2c-28.7,0-52.1-23.4-52.1-52.1c0-28.7,23.4-52.1,52.1-52.1s52.1,23.4,52.1,52.1   C666.7,580.8,643.3,604.2,614.6,604.2 M623.8,689.7C588.2,725.2,520.1,728,500.1,728c-20,0-88.2-2.8-123.7-38.3   c-5.3-5.3-5.3-13.8,0-19.1c5.3-5.3,13.8-5.3,19.1,0C417.9,693,465.8,701,500.1,701c34.2,0,82.2-8,104.6-30.4   c5.3-5.3,13.8-5.3,19.1,0C629,675.9,629,684.4,623.8,689.7 M333.3,552.1c0-28.7,23.4-52.1,52.1-52.1c28.7,0,52.1,23.4,52.1,52.1   c0,28.7-23.4,52.1-52.1,52.1C356.7,604.2,333.3,580.8,333.3,552.1 M833.3,500c0-40.3-32.6-72.9-72.9-72.9   c-19.7,0-37.5,7.8-50.6,20.5c-49.8-36-118.5-59.2-195-61.9L548,229.4l108.5,23.1c1.3,27.6,23.9,49.6,51.8,49.6   c28.8,0,52.1-23.3,52.1-52.1c0-28.8-23.3-52.1-52.1-52.1c-20.5,0-38,11.9-46.5,29.1l-121.2-25.8c-3.4-0.7-6.9-0.1-9.8,1.8   c-2.9,1.9-4.9,4.8-5.6,8.2l-36.4,171.5c-0.2,1,0,1.9,0,2.9c-77.9,2-147.9,25.3-198.5,61.8c-13.1-12.6-30.8-20.3-50.4-20.3   c-40.3,0-72.9,32.7-72.9,72.9c0,29.6,17.7,55.1,43.1,66.5c-1.1,7.2-1.7,14.6-1.7,22.1c0,112.2,130.6,203.1,291.7,203.1   c161.1,0,291.7-90.9,291.7-203.1c0-7.4-0.6-14.7-1.7-21.9C815.4,555.3,833.3,529.8,833.3,500" id="Fill-3"/></g></svg>