<svg id="svg" version="1.1" xmlns="http://www.w3.org/2000/svg" xmlns:xlink="http://www.w3.org/1999/xlink" width="400" height="400" viewBox="0, 0, 400,400"><g id="svgg"><path id="path0" d="M191.400 89.660 C 184.594 90.397,180.231 91.235,173.000 93.194 C 166.018 95.086,150.853 102.488,146.600 106.080 C 146.160 106.451,144.720 107.557,143.400 108.538 C 138.411 112.243,131.670 119.107,125.823 126.438 C 124.913 127.579,122.085 131.825,121.232 133.331 C 120.774 134.139,120.015 135.475,119.545 136.300 C 113.665 146.610,109.846 158.891,108.419 172.077 C 107.698 178.740,107.860 244.327,108.607 247.905 C 110.426 256.625,114.777 263.222,121.800 267.908 C 128.785 272.568,132.186 273.200,150.302 273.200 L 164.004 273.200 163.902 237.700 L 163.800 202.200 146.400 202.000 L 129.000 201.800 128.872 191.800 C 128.752 182.358,128.991 178.506,130.051 172.800 C 132.944 157.231,141.659 141.969,153.200 132.262 C 155.070 130.689,156.690 129.296,156.800 129.167 C 160.001 125.414,176.917 117.718,185.600 116.065 C 186.810 115.835,188.816 115.448,190.057 115.204 C 192.981 114.631,207.419 114.631,210.343 115.204 C 211.584 115.448,213.590 115.832,214.800 116.058 C 223.318 117.653,236.520 123.563,242.641 128.522 C 249.777 134.302,251.698 136.223,257.478 143.359 C 262.555 149.625,268.080 162.029,269.970 171.400 C 271.055 176.781,271.200 178.981,271.200 190.063 L 271.200 201.992 253.700 202.096 L 236.200 202.200 236.098 237.694 L 235.996 273.188 247.498 273.294 L 259.000 273.400 258.926 276.600 C 258.781 282.810,256.197 288.627,251.066 294.294 C 244.423 301.632,238.236 303.182,215.555 303.193 L 200.509 303.200 199.455 304.255 C 197.739 305.970,198.566 308.838,201.162 310.181 C 202.618 310.933,230.960 311.101,235.033 310.382 C 239.611 309.573,241.804 309.068,242.180 308.736 C 242.389 308.551,242.799 308.400,243.091 308.400 C 245.340 308.400,254.132 302.688,257.471 299.058 C 263.405 292.607,267.200 283.116,267.200 274.728 L 267.200 272.057 269.500 271.392 C 279.469 268.511,287.367 259.897,289.945 249.094 C 290.544 246.587,290.588 173.087,289.994 169.233 C 289.770 167.785,289.391 165.340,289.150 163.800 C 287.705 154.551,283.327 142.432,278.621 134.652 C 277.839 133.360,277.200 132.225,277.200 132.130 C 277.200 130.031,265.352 116.521,257.969 110.200 C 255.036 107.689,247.625 102.400,247.039 102.400 C 246.931 102.400,245.709 101.736,244.324 100.924 C 238.710 97.633,228.674 93.730,221.500 92.046 C 217.287 91.057,216.067 90.825,213.000 90.427 C 203.283 89.168,197.751 88.972,191.400 89.660 " stroke="none" fill="#fafbfb" fill-rule="evenodd"></path><path id="path1" d="M180.100 0.298 C 177.545 0.389,176.398 0.580,176.394 0.915 C 176.390 1.218,176.243 1.175,176.000 0.800 C 175.742 0.400,175.610 0.367,175.606 0.700 C 175.602 1.044,174.850 1.200,173.200 1.200 C 171.550 1.200,170.798 1.356,170.794 1.700 C 170.790 2.033,170.658 2.000,170.400 1.600 C 170.142 1.200,170.010 1.167,170.006 1.500 C 170.002 1.844,169.245 2.000,167.576 2.000 C 166.063 2.000,165.246 2.150,165.400 2.400 C 165.554 2.649,164.796 2.800,163.400 2.800 C 162.004 2.800,161.246 2.951,161.400 3.200 C 161.551 3.444,160.945 3.600,159.847 3.600 C 158.857 3.600,157.936 3.780,157.800 4.000 C 157.664 4.220,156.764 4.400,155.800 4.400 C 154.836 4.400,153.936 4.580,153.800 4.800 C 153.664 5.020,152.944 5.200,152.200 5.200 C 151.456 5.200,150.736 5.380,150.600 5.600 C 150.464 5.820,149.924 6.000,149.400 6.000 C 148.876 6.000,148.336 6.180,148.200 6.400 C 148.064 6.620,147.243 6.800,146.376 6.800 C 145.509 6.800,144.800 6.980,144.800 7.200 C 144.800 7.420,144.249 7.600,143.576 7.600 C 142.863 7.600,142.456 7.767,142.600 8.000 C 142.749 8.241,142.212 8.400,141.247 8.400 C 140.367 8.400,139.528 8.592,139.383 8.827 C 139.238 9.062,138.872 9.160,138.571 9.044 C 138.270 8.929,137.769 9.088,137.459 9.398 C 137.149 9.708,136.795 9.862,136.673 9.739 C 136.550 9.617,135.881 9.801,135.185 10.148 C 134.489 10.495,133.263 10.900,132.460 11.047 C 131.657 11.195,130.902 11.465,130.783 11.648 C 130.663 11.830,130.213 12.047,129.783 12.130 C 128.701 12.337,127.662 12.736,125.862 13.633 C 125.016 14.055,124.071 14.400,123.762 14.400 C 123.453 14.400,123.200 14.580,123.200 14.800 C 123.200 15.020,122.750 15.200,122.200 15.200 C 121.650 15.200,121.200 15.380,121.200 15.600 C 121.200 15.820,120.750 16.000,120.200 16.000 C 119.650 16.000,119.199 16.135,119.197 16.300 C 119.193 16.689,117.230 17.600,116.396 17.600 C 116.041 17.600,115.402 17.915,114.975 18.300 C 114.549 18.685,113.869 19.057,113.464 19.126 C 113.059 19.195,111.869 19.780,110.820 20.426 C 109.770 21.072,108.616 21.600,108.256 21.600 C 107.895 21.600,107.600 21.780,107.600 22.000 C 107.600 22.220,107.364 22.400,107.075 22.400 C 106.787 22.400,106.164 22.760,105.692 23.200 C 105.220 23.640,104.556 24.000,104.217 24.000 C 103.878 24.000,103.600 24.180,103.600 24.400 C 103.600 24.620,103.240 24.800,102.800 24.800 C 102.360 24.800,102.000 24.991,102.000 25.224 C 102.000 25.457,101.852 25.556,101.672 25.444 C 101.491 25.333,100.816 25.590,100.172 26.015 C 98.203 27.314,97.854 27.510,96.268 28.201 C 95.425 28.568,94.358 29.303,93.896 29.834 C 93.434 30.365,92.818 30.800,92.528 30.800 C 92.238 30.800,92.000 30.968,92.000 31.173 C 92.000 31.378,91.661 31.654,91.248 31.785 C 90.834 31.916,90.090 32.375,89.596 32.804 C 89.101 33.232,88.540 33.487,88.348 33.368 C 88.157 33.250,88.000 33.339,88.000 33.566 C 88.000 33.793,87.505 34.237,86.900 34.552 C 86.295 34.866,85.372 35.497,84.848 35.954 C 84.325 36.410,83.740 36.687,83.548 36.568 C 83.357 36.450,83.200 36.525,83.200 36.735 C 83.200 36.945,81.715 38.198,79.900 39.520 C 78.085 40.841,76.221 42.300,75.758 42.761 C 75.295 43.223,74.710 43.600,74.458 43.600 C 74.206 43.600,74.000 43.810,74.000 44.067 C 74.000 44.323,73.893 44.426,73.762 44.295 C 73.630 44.164,72.873 44.764,72.078 45.628 C 71.283 46.493,70.422 47.200,70.164 47.200 C 69.905 47.200,68.355 48.505,66.717 50.100 C 65.080 51.695,62.989 53.669,62.070 54.488 C 61.152 55.306,60.400 56.130,60.400 56.320 C 60.400 56.510,59.956 56.902,59.414 57.193 C 58.871 57.483,58.522 57.873,58.637 58.060 C 58.753 58.247,58.609 58.400,58.319 58.400 C 58.028 58.400,57.432 58.881,56.995 59.470 C 56.558 60.058,55.964 60.733,55.675 60.970 C 55.386 61.206,54.666 61.920,54.075 62.555 C 53.484 63.191,52.308 64.438,51.462 65.328 C 50.616 66.217,49.651 67.361,49.318 67.869 C 48.985 68.377,48.552 68.694,48.356 68.573 C 48.160 68.452,48.000 68.734,48.000 69.200 C 48.000 69.666,47.820 69.936,47.600 69.800 C 47.380 69.664,47.200 69.717,47.200 69.917 C 47.200 70.117,46.658 70.848,45.997 71.541 C 45.335 72.233,44.885 72.800,44.997 72.800 C 45.108 72.800,44.885 73.148,44.500 73.573 C 44.115 73.999,43.260 74.946,42.600 75.678 C 41.940 76.409,41.342 77.276,41.270 77.604 C 41.199 77.932,40.974 78.260,40.770 78.333 C 40.567 78.407,40.400 78.732,40.400 79.057 C 40.400 79.382,40.220 79.536,40.000 79.400 C 39.780 79.264,39.600 79.444,39.600 79.800 C 39.600 80.156,39.436 80.346,39.235 80.221 C 39.034 80.097,38.630 80.536,38.337 81.198 C 38.044 81.859,37.669 82.400,37.502 82.400 C 37.336 82.400,37.200 82.681,37.200 83.024 C 37.200 83.367,37.020 83.536,36.800 83.400 C 36.580 83.264,36.400 83.484,36.400 83.888 C 36.400 84.293,36.040 84.883,35.600 85.200 C 35.160 85.517,34.800 86.007,34.800 86.288 C 34.800 86.570,34.620 86.800,34.400 86.800 C 34.180 86.800,34.000 87.068,34.000 87.397 C 34.000 87.725,33.640 88.218,33.200 88.493 C 32.760 88.768,32.393 89.264,32.384 89.596 C 32.375 89.928,31.842 90.814,31.200 91.565 C 30.558 92.316,30.119 93.070,30.225 93.240 C 30.331 93.411,30.188 93.697,29.908 93.875 C 29.629 94.054,29.088 94.875,28.706 95.700 C 28.325 96.525,27.819 97.200,27.583 97.200 C 27.346 97.200,27.264 97.380,27.400 97.600 C 27.536 97.820,27.478 98.000,27.271 98.000 C 26.836 98.000,24.800 101.998,24.800 102.852 C 24.800 103.166,24.440 103.683,24.000 104.000 C 23.560 104.317,23.200 104.897,23.200 105.288 C 23.200 105.680,23.020 106.000,22.800 106.000 C 22.580 106.000,22.400 106.360,22.400 106.800 C 22.400 107.240,22.265 107.601,22.100 107.603 C 21.735 107.607,20.800 109.549,20.800 110.303 C 20.800 110.602,20.620 110.736,20.400 110.600 C 20.172 110.459,20.000 110.804,20.000 111.400 C 20.000 111.996,19.828 112.341,19.600 112.200 C 19.380 112.064,19.200 112.323,19.200 112.776 C 19.200 113.229,19.020 113.600,18.800 113.600 C 18.580 113.600,18.400 114.050,18.400 114.600 C 18.400 115.150,18.220 115.600,18.000 115.600 C 17.780 115.600,17.600 115.870,17.600 116.200 C 17.600 116.530,17.420 116.800,17.200 116.800 C 16.980 116.800,16.800 116.991,16.800 117.224 C 16.800 117.457,17.025 117.518,17.300 117.359 C 17.575 117.201,17.395 117.517,16.900 118.061 C 16.405 118.606,16.000 119.357,16.000 119.731 C 16.000 120.346,15.303 121.897,14.800 122.400 C 14.618 122.582,14.455 123.103,14.236 124.200 C 14.192 124.420,13.851 125.176,13.478 125.880 C 13.105 126.584,12.800 127.439,12.800 127.780 C 12.800 128.121,12.620 128.400,12.400 128.400 C 12.180 128.400,12.000 128.850,12.000 129.400 C 12.000 129.950,11.820 130.400,11.600 130.400 C 11.380 130.400,11.200 130.932,11.200 131.581 C 11.200 132.794,10.466 134.800,10.023 134.800 C 9.886 134.800,9.735 135.277,9.687 135.860 C 9.639 136.442,9.454 137.117,9.276 137.360 C 9.099 137.602,8.984 138.205,9.022 138.700 C 9.060 139.195,8.935 139.600,8.745 139.600 C 8.555 139.600,8.400 140.230,8.400 141.000 C 8.400 141.770,8.220 142.400,8.000 142.400 C 7.780 142.400,7.600 142.839,7.600 143.376 C 7.600 143.913,7.420 144.464,7.200 144.600 C 6.980 144.736,6.800 145.366,6.800 146.000 C 6.800 146.634,6.620 147.264,6.400 147.400 C 6.180 147.536,6.000 148.256,6.000 149.000 C 6.000 149.744,5.820 150.464,5.600 150.600 C 5.380 150.736,5.200 151.456,5.200 152.200 C 5.200 152.944,5.020 153.664,4.800 153.800 C 4.580 153.936,4.400 154.656,4.400 155.400 C 4.400 156.144,4.220 156.864,4.000 157.000 C 3.780 157.136,3.600 157.946,3.600 158.800 C 3.600 159.654,3.420 160.464,3.200 160.600 C 2.980 160.736,2.800 161.636,2.800 162.600 C 2.800 163.564,2.649 164.446,2.464 164.560 C 2.279 164.675,2.095 165.713,2.054 166.867 C 2.013 168.021,1.784 169.086,1.544 169.234 C 1.251 169.415,1.287 169.574,1.655 169.720 C 2.042 169.874,2.055 169.946,1.700 169.968 C 1.361 169.990,1.200 170.748,1.200 172.320 C 1.200 173.622,0.981 174.876,0.700 175.179 C 0.300 175.610,0.300 175.661,0.700 175.435 C 0.975 175.280,1.200 175.343,1.200 175.576 C 1.200 175.809,1.050 176.000,0.867 176.000 C 0.353 176.000,0.360 175.748,0.231 197.600 C 0.101 219.622,0.232 225.751,0.829 225.382 C 1.045 225.249,1.200 226.408,1.200 228.153 C 1.200 229.803,1.380 231.264,1.600 231.400 C 1.820 231.536,2.000 232.727,2.000 234.047 C 2.000 235.545,2.150 236.354,2.400 236.200 C 2.736 235.992,3.056 238.870,2.837 240.130 C 2.806 240.311,2.965 240.345,3.190 240.206 C 3.449 240.046,3.600 240.697,3.600 241.976 C 3.600 243.089,3.780 244.000,4.000 244.000 C 4.220 244.000,4.400 244.709,4.400 245.576 C 4.400 246.443,4.580 247.264,4.800 247.400 C 5.020 247.536,5.200 248.367,5.200 249.247 C 5.200 250.212,5.359 250.749,5.600 250.600 C 5.838 250.453,6.000 250.921,6.000 251.753 C 6.000 252.523,6.180 253.264,6.400 253.400 C 6.620 253.536,6.800 254.256,6.800 255.000 C 6.800 255.744,6.980 256.464,7.200 256.600 C 7.420 256.736,7.600 257.287,7.600 257.824 C 7.600 258.361,7.780 258.800,8.000 258.800 C 8.220 258.800,8.400 259.329,8.400 259.976 C 8.400 260.623,8.572 261.259,8.783 261.389 C 8.993 261.519,9.066 261.883,8.946 262.198 C 8.825 262.512,9.010 263.338,9.357 264.033 C 9.703 264.728,9.899 265.440,9.791 265.614 C 9.683 265.789,9.775 265.992,9.994 266.066 C 10.214 266.140,10.433 266.682,10.481 267.271 C 10.530 267.860,10.712 268.255,10.885 268.148 C 11.149 267.984,11.296 268.880,11.166 269.855 C 11.147 269.996,11.308 270.221,11.525 270.355 C 11.741 270.490,11.981 271.050,12.059 271.600 C 12.136 272.150,12.290 272.690,12.400 272.800 C 12.995 273.395,13.600 274.917,13.600 275.818 C 13.600 276.402,13.773 276.740,14.000 276.600 C 14.227 276.460,14.400 276.796,14.400 277.376 C 14.400 277.939,14.535 278.401,14.700 278.403 C 15.147 278.408,16.000 280.426,16.000 281.480 C 16.000 281.986,16.180 282.400,16.400 282.400 C 16.620 282.400,16.800 282.760,16.800 283.200 C 16.800 283.640,16.935 284.001,17.100 284.003 C 17.459 284.007,18.400 285.944,18.400 286.680 C 18.400 286.966,18.535 287.201,18.700 287.203 C 19.059 287.207,20.000 289.144,20.000 289.880 C 20.000 290.166,20.180 290.400,20.400 290.400 C 20.620 290.400,20.800 290.670,20.800 291.000 C 20.800 291.330,20.935 291.601,21.100 291.603 C 21.459 291.607,22.400 293.544,22.400 294.280 C 22.400 294.566,22.535 294.801,22.700 294.803 C 23.005 294.806,24.000 296.699,24.000 297.275 C 24.000 297.449,24.315 297.959,24.700 298.408 C 25.085 298.858,25.416 299.355,25.436 299.513 C 25.528 300.260,27.277 303.600,27.575 303.600 C 27.761 303.600,28.026 304.050,28.164 304.600 C 28.302 305.150,28.592 305.600,28.808 305.600 C 29.023 305.600,29.200 305.878,29.200 306.218 C 29.200 306.558,29.636 307.272,30.169 307.805 C 30.702 308.338,31.254 309.140,31.396 309.587 C 31.538 310.034,31.822 310.400,32.027 310.400 C 32.232 310.400,32.400 310.678,32.400 311.018 C 32.400 311.358,32.836 312.072,33.369 312.605 C 33.902 313.138,34.454 313.940,34.596 314.387 C 34.738 314.834,35.022 315.200,35.227 315.200 C 35.432 315.200,35.600 315.436,35.600 315.725 C 35.600 316.013,35.960 316.636,36.400 317.108 C 36.840 317.580,37.200 318.165,37.200 318.407 C 37.200 318.649,37.380 318.736,37.600 318.600 C 37.820 318.464,38.000 318.734,38.000 319.200 C 38.000 319.666,38.180 319.936,38.400 319.800 C 38.620 319.664,38.800 319.698,38.800 319.876 C 38.801 320.054,39.247 320.718,39.792 321.352 C 40.337 321.986,40.669 322.689,40.530 322.914 C 40.384 323.149,40.473 323.202,40.738 323.038 C 40.992 322.881,41.200 322.930,41.200 323.146 C 41.200 323.362,41.785 324.128,42.500 324.848 C 43.215 325.568,43.575 326.022,43.300 325.855 C 42.394 325.307,42.776 325.886,44.500 327.672 C 45.435 328.641,46.242 329.641,46.292 329.894 C 46.343 330.147,47.468 331.452,48.792 332.792 C 50.117 334.133,51.200 335.391,51.200 335.588 C 51.200 335.785,51.556 336.059,51.992 336.197 C 52.427 336.336,52.766 336.573,52.745 336.724 C 52.648 337.403,52.826 337.991,53.100 337.900 C 53.265 337.845,53.480 337.980,53.578 338.200 C 53.830 338.768,54.563 339.532,54.800 339.474 C 55.148 339.389,60.696 345.170,60.477 345.390 C 60.361 345.506,60.546 345.600,60.887 345.600 C 61.229 345.600,61.807 346.056,62.172 346.613 C 62.537 347.170,63.007 347.519,63.218 347.389 C 63.428 347.259,63.600 347.413,63.600 347.730 C 63.600 348.048,64.087 348.627,64.682 349.017 C 65.277 349.407,66.616 350.578,67.658 351.620 C 68.700 352.662,69.653 353.414,69.776 353.290 C 69.899 353.167,70.000 353.307,70.000 353.600 C 70.000 353.893,70.109 354.024,70.243 353.890 C 70.377 353.757,71.297 354.447,72.288 355.424 C 74.106 357.216,74.693 357.618,74.153 356.700 C 73.991 356.425,74.610 356.965,75.529 357.900 C 76.447 358.835,77.469 359.600,77.800 359.600 C 78.130 359.600,78.400 359.750,78.400 359.932 C 78.400 360.115,78.844 360.502,79.386 360.793 C 79.929 361.083,80.278 361.473,80.163 361.660 C 80.047 361.847,80.233 362.000,80.576 362.000 C 80.919 362.000,81.200 362.180,81.200 362.400 C 81.200 362.620,81.442 362.800,81.738 362.800 C 82.034 362.800,82.602 363.160,83.000 363.600 C 83.398 364.040,83.966 364.400,84.262 364.400 C 84.558 364.400,84.800 364.550,84.800 364.732 C 84.800 364.915,85.295 365.319,85.900 365.630 C 86.505 365.940,87.291 366.511,87.647 366.897 C 88.003 367.284,88.522 367.600,88.800 367.600 C 89.078 367.600,89.597 367.915,89.953 368.300 C 90.309 368.685,90.870 369.059,91.200 369.130 C 91.530 369.202,91.860 369.427,91.933 369.630 C 92.007 369.834,92.332 370.000,92.657 370.000 C 93.001 370.000,93.128 370.192,92.962 370.462 C 92.793 370.736,92.851 370.815,93.106 370.658 C 93.342 370.512,93.775 370.622,94.068 370.902 C 95.086 371.875,97.003 372.975,97.500 372.870 C 97.775 372.812,98.000 372.912,98.000 373.091 C 98.000 373.270,98.855 373.863,99.900 374.408 C 100.945 374.954,101.860 375.535,101.933 375.700 C 102.007 375.865,102.286 376.000,102.554 376.000 C 103.263 376.000,105.193 376.949,105.197 377.300 C 105.199 377.465,105.560 377.600,106.000 377.600 C 106.440 377.600,106.800 377.780,106.800 378.000 C 106.800 378.220,107.160 378.400,107.600 378.400 C 108.040 378.400,108.400 378.580,108.400 378.800 C 108.400 379.020,108.771 379.200,109.224 379.200 C 109.677 379.200,109.936 379.380,109.800 379.600 C 109.664 379.820,109.923 380.000,110.376 380.000 C 110.829 380.000,111.200 380.191,111.200 380.424 C 111.200 380.657,111.365 380.745,111.568 380.620 C 111.770 380.495,112.207 380.664,112.539 380.996 C 112.871 381.328,113.300 381.600,113.492 381.600 C 114.094 381.600,115.994 382.586,115.997 382.900 C 115.999 383.065,116.360 383.200,116.800 383.200 C 117.240 383.200,117.600 383.380,117.600 383.600 C 117.600 383.820,118.014 384.000,118.520 384.000 C 119.574 384.000,121.592 384.853,121.597 385.300 C 121.599 385.465,122.061 385.600,122.624 385.600 C 123.204 385.600,123.540 385.773,123.400 386.000 C 123.260 386.226,123.592 386.400,124.164 386.400 C 124.721 386.400,125.817 386.760,126.600 387.200 C 127.383 387.640,128.379 388.000,128.812 388.000 C 129.245 388.000,129.600 388.142,129.600 388.315 C 129.600 388.488,129.989 388.659,130.464 388.695 C 130.939 388.731,131.434 388.904,131.564 389.080 C 131.694 389.256,132.250 389.464,132.800 389.541 C 133.350 389.619,133.925 389.884,134.078 390.130 C 134.231 390.376,134.479 390.454,134.629 390.304 C 134.779 390.155,135.440 390.310,136.097 390.650 C 136.755 390.991,137.632 391.180,138.047 391.072 C 138.461 390.964,138.800 391.038,138.800 391.237 C 138.800 391.437,139.340 391.600,140.000 391.600 C 140.660 391.600,141.200 391.780,141.200 392.000 C 141.200 392.220,141.740 392.400,142.400 392.400 C 143.060 392.400,143.600 392.580,143.600 392.800 C 143.600 393.020,144.219 393.200,144.976 393.200 C 145.733 393.200,146.464 393.380,146.600 393.600 C 146.736 393.820,147.366 394.000,148.000 394.000 C 148.634 394.000,149.264 394.180,149.400 394.400 C 149.536 394.620,150.357 394.800,151.224 394.800 C 152.091 394.800,152.800 394.980,152.800 395.200 C 152.800 395.420,153.520 395.600,154.400 395.600 C 155.280 395.600,156.000 395.780,156.000 396.000 C 156.000 396.220,156.799 396.400,157.776 396.400 C 158.753 396.400,159.664 396.580,159.800 396.800 C 159.936 397.020,160.847 397.200,161.824 397.200 C 162.801 397.200,163.600 397.380,163.600 397.600 C 163.600 397.822,164.667 398.000,166.000 398.000 C 167.333 398.000,168.400 398.178,168.400 398.400 C 168.400 398.628,169.589 398.800,171.167 398.800 C 172.952 398.800,173.990 398.969,174.092 399.277 C 174.321 399.963,213.478 400.235,220.600 399.600 C 223.460 399.345,227.060 399.044,228.599 398.931 C 230.139 398.819,231.492 398.574,231.608 398.388 C 231.723 398.201,232.848 398.007,234.109 397.956 C 235.369 397.905,236.400 397.714,236.400 397.532 C 236.400 397.349,237.311 397.200,238.424 397.200 C 239.671 397.200,240.352 397.047,240.200 396.800 C 240.049 396.556,240.655 396.400,241.753 396.400 C 242.743 396.400,243.664 396.220,243.800 396.000 C 243.936 395.780,244.836 395.600,245.800 395.600 C 246.764 395.600,247.664 395.420,247.800 395.200 C 247.936 394.980,248.577 394.800,249.224 394.800 C 249.871 394.800,250.400 394.659,250.400 394.487 C 250.400 394.216,251.332 394.012,253.082 393.898 C 253.348 393.881,253.472 393.717,253.359 393.533 C 253.245 393.350,253.853 393.200,254.710 393.200 C 255.566 393.200,256.390 393.077,256.541 392.926 C 257.020 392.446,259.760 391.612,260.876 391.606 C 261.468 391.603,262.072 391.408,262.217 391.173 C 262.362 390.938,262.720 390.837,263.011 390.949 C 263.303 391.061,263.760 390.889,264.027 390.567 C 264.303 390.235,264.834 390.084,265.256 390.218 C 265.665 390.348,266.000 390.301,266.000 390.114 C 266.000 389.927,266.485 389.734,267.078 389.685 C 267.670 389.636,268.255 389.446,268.378 389.264 C 268.500 389.081,269.443 388.686,270.474 388.386 C 271.505 388.086,272.273 387.719,272.182 387.570 C 272.090 387.422,272.499 387.300,273.091 387.300 C 273.682 387.300,274.234 387.097,274.317 386.850 C 274.399 386.602,274.806 386.400,275.221 386.400 C 275.636 386.400,276.617 386.040,277.400 385.600 C 278.183 385.160,279.134 384.796,279.512 384.791 C 279.890 384.786,280.650 384.430,281.200 384.000 C 281.750 383.570,282.504 383.214,282.876 383.209 C 283.248 383.204,283.664 383.020,283.800 382.800 C 283.936 382.580,284.397 382.400,284.824 382.400 C 285.251 382.400,285.600 382.220,285.600 382.000 C 285.600 381.780,285.960 381.600,286.400 381.600 C 286.840 381.600,287.200 381.420,287.200 381.200 C 287.200 380.980,287.560 380.800,288.000 380.800 C 288.440 380.800,288.800 380.620,288.800 380.400 C 288.800 380.180,289.160 380.000,289.600 380.000 C 290.040 380.000,290.400 379.854,290.400 379.675 C 290.400 379.496,291.030 379.102,291.800 378.800 C 292.570 378.498,293.200 378.104,293.200 377.925 C 293.200 377.746,293.560 377.600,294.000 377.600 C 294.440 377.600,294.800 377.420,294.800 377.200 C 294.800 376.980,295.160 376.800,295.600 376.800 C 296.040 376.800,296.401 376.665,296.403 376.500 C 296.407 376.146,298.339 375.200,299.057 375.200 C 299.331 375.200,299.835 374.800,300.177 374.311 C 300.520 373.822,300.800 373.588,300.800 373.791 C 300.800 373.994,301.016 373.944,301.280 373.680 C 301.544 373.416,302.078 373.200,302.466 373.200 C 302.854 373.200,303.365 372.840,303.600 372.400 C 303.835 371.960,304.270 371.600,304.565 371.600 C 304.860 371.600,305.333 371.322,305.615 370.982 C 305.897 370.642,306.379 370.460,306.685 370.577 C 306.991 370.695,307.132 370.613,306.997 370.395 C 306.863 370.178,306.956 370.000,307.205 370.000 C 307.454 370.000,307.929 369.728,308.261 369.396 C 308.593 369.064,309.058 368.912,309.294 369.058 C 309.549 369.215,309.607 369.136,309.438 368.862 C 309.269 368.588,309.407 368.400,309.776 368.400 C 310.119 368.400,310.400 368.220,310.400 368.000 C 310.400 367.780,310.760 367.600,311.200 367.600 C 311.640 367.600,312.000 367.450,312.000 367.268 C 312.000 367.085,312.444 366.698,312.986 366.407 C 313.529 366.117,313.878 365.727,313.763 365.540 C 313.647 365.353,313.923 365.200,314.376 365.200 C 314.829 365.200,315.200 365.020,315.200 364.800 C 315.200 364.580,315.517 364.400,315.904 364.400 C 316.291 364.400,316.832 364.040,317.107 363.600 C 317.382 363.160,317.886 362.800,318.227 362.800 C 318.568 362.800,318.736 362.620,318.600 362.400 C 318.464 362.180,318.734 362.000,319.200 362.000 C 319.666 362.000,319.953 361.847,319.837 361.660 C 319.722 361.473,320.116 361.068,320.714 360.760 C 321.311 360.452,322.149 359.885,322.575 359.500 C 323.002 359.115,323.508 358.800,323.699 358.800 C 323.891 358.800,323.936 358.620,323.800 358.400 C 323.664 358.180,323.790 358.000,324.080 358.000 C 324.370 358.000,324.842 357.625,325.128 357.167 C 325.423 356.694,325.898 356.429,326.224 356.554 C 326.581 356.691,326.800 356.526,326.800 356.121 C 326.800 355.761,326.895 355.561,327.010 355.677 C 327.126 355.793,327.958 355.193,328.860 354.344 C 329.761 353.495,330.757 352.800,331.073 352.800 C 331.389 352.800,331.548 352.640,331.427 352.444 C 331.306 352.248,331.650 351.797,332.192 351.442 C 332.733 351.088,333.806 350.168,334.575 349.399 C 335.344 348.629,336.128 348.000,336.317 348.000 C 336.917 348.000,338.420 346.155,338.104 345.806 C 337.937 345.622,338.001 345.586,338.247 345.726 C 338.735 346.005,340.126 344.700,339.801 344.268 C 339.690 344.120,339.700 344.070,339.823 344.156 C 340.157 344.390,347.200 337.405,347.200 336.840 C 347.200 336.572,347.380 336.464,347.600 336.600 C 347.820 336.736,348.000 336.651,348.000 336.410 C 348.000 336.170,348.629 335.344,349.399 334.575 C 350.168 333.806,351.088 332.733,351.442 332.192 C 351.797 331.650,352.248 331.306,352.444 331.427 C 352.640 331.548,352.800 331.389,352.800 331.073 C 352.800 330.757,353.495 329.761,354.344 328.860 C 355.193 327.958,355.793 327.126,355.677 327.010 C 355.561 326.895,355.777 326.800,356.157 326.800 C 356.537 326.800,356.736 326.620,356.600 326.400 C 356.464 326.180,356.554 326.000,356.800 326.000 C 357.046 326.000,357.135 325.819,356.998 325.597 C 356.861 325.376,357.031 325.086,357.375 324.954 C 357.719 324.822,358.000 324.453,358.000 324.134 C 358.000 323.814,358.180 323.664,358.400 323.800 C 358.620 323.936,358.800 323.756,358.800 323.400 C 358.800 323.044,358.980 322.864,359.200 323.000 C 359.420 323.136,359.600 322.967,359.600 322.624 C 359.600 322.281,359.780 322.000,360.000 322.000 C 360.220 322.000,360.400 321.812,360.400 321.583 C 360.400 320.992,363.618 316.800,364.072 316.800 C 364.278 316.800,364.350 316.643,364.232 316.452 C 364.113 316.260,364.389 315.675,364.844 315.152 C 365.298 314.628,365.963 313.705,366.321 313.100 C 366.680 312.495,367.114 312.000,367.286 312.000 C 367.459 312.000,367.600 311.722,367.600 311.383 C 367.600 311.044,367.960 310.380,368.400 309.908 C 368.840 309.436,369.200 308.813,369.200 308.525 C 369.200 308.236,369.380 308.000,369.600 308.000 C 369.820 308.000,369.955 307.775,369.900 307.500 C 369.845 307.225,370.038 307.049,370.330 307.110 C 370.621 307.170,370.754 307.050,370.626 306.842 C 370.498 306.634,370.664 306.193,370.996 305.861 C 371.328 305.529,371.600 304.981,371.600 304.643 C 371.600 304.305,371.945 303.843,372.367 303.617 C 372.790 303.391,373.254 302.665,373.399 302.003 C 373.545 301.341,373.804 300.800,373.975 300.800 C 374.146 300.800,374.713 299.810,375.236 298.600 C 375.758 297.390,376.324 296.400,376.493 296.400 C 376.662 296.400,376.800 296.040,376.800 295.600 C 376.800 295.160,376.980 294.800,377.200 294.800 C 377.420 294.800,377.600 294.440,377.600 294.000 C 377.600 293.560,377.746 293.200,377.925 293.200 C 378.104 293.200,378.498 292.570,378.800 291.800 C 379.102 291.030,379.496 290.400,379.675 290.400 C 379.854 290.400,380.000 290.040,380.000 289.600 C 380.000 289.160,380.180 288.800,380.400 288.800 C 380.620 288.800,380.800 288.440,380.800 288.000 C 380.800 287.560,380.980 287.200,381.200 287.200 C 381.420 287.200,381.600 286.840,381.600 286.400 C 381.600 285.960,381.791 285.600,382.024 285.600 C 382.257 285.600,382.352 285.447,382.236 285.259 C 382.120 285.071,382.284 284.576,382.600 284.159 C 382.916 283.742,383.184 283.130,383.196 282.800 C 383.208 282.470,383.570 281.750,384.000 281.200 C 384.430 280.650,384.786 279.902,384.791 279.538 C 384.796 279.174,385.143 278.184,385.563 277.338 C 386.567 275.311,387.765 272.651,387.786 272.400 C 387.842 271.732,389.020 268.562,389.281 268.378 C 389.454 268.255,389.636 267.670,389.685 267.078 C 389.734 266.485,389.927 266.000,390.114 266.000 C 390.301 266.000,390.348 265.665,390.218 265.256 C 390.084 264.834,390.235 264.303,390.567 264.027 C 390.889 263.760,391.061 263.303,390.949 263.011 C 390.837 262.720,390.938 262.362,391.173 262.217 C 391.408 262.072,391.600 261.243,391.600 260.376 C 391.600 259.509,391.780 258.800,392.000 258.800 C 392.220 258.800,392.400 258.361,392.400 257.824 C 392.400 257.287,392.580 256.736,392.800 256.600 C 393.020 256.464,393.200 255.633,393.200 254.753 C 393.200 253.788,393.359 253.251,393.600 253.400 C 393.935 253.607,394.228 251.842,394.047 250.700 C 394.021 250.535,394.180 250.400,394.400 250.400 C 394.620 250.400,394.800 249.871,394.800 249.224 C 394.800 248.577,394.980 247.936,395.200 247.800 C 395.420 247.664,395.600 246.764,395.600 245.800 C 395.600 244.836,395.780 243.936,396.000 243.800 C 396.220 243.664,396.400 242.743,396.400 241.753 C 396.400 240.655,396.556 240.049,396.800 240.200 C 397.047 240.352,397.200 239.671,397.200 238.424 C 397.200 237.311,397.349 236.400,397.532 236.400 C 397.714 236.400,397.905 235.369,397.956 234.109 C 398.007 232.848,398.201 231.723,398.388 231.608 C 398.574 231.492,398.818 230.139,398.930 228.599 C 399.042 227.060,399.331 223.626,399.573 220.968 C 400.228 213.782,399.984 38.084,399.318 37.673 C 399.054 37.509,398.791 36.693,398.735 35.860 C 398.679 35.026,398.490 34.256,398.316 34.148 C 398.142 34.041,398.000 33.524,398.000 33.000 C 398.000 32.476,397.820 31.936,397.600 31.800 C 397.380 31.664,397.200 31.193,397.200 30.753 C 397.200 30.313,397.020 30.064,396.800 30.200 C 396.580 30.336,396.400 30.087,396.400 29.647 C 396.400 29.207,396.220 28.736,396.000 28.600 C 395.780 28.464,395.600 27.993,395.600 27.553 C 395.600 27.113,395.420 26.864,395.200 27.000 C 394.980 27.136,394.800 26.899,394.800 26.473 C 394.800 26.047,394.532 25.476,394.204 25.204 C 393.877 24.932,393.707 24.550,393.828 24.355 C 393.949 24.160,393.857 24.000,393.624 24.000 C 393.391 24.000,393.200 23.680,393.200 23.288 C 393.200 22.897,392.840 22.317,392.400 22.000 C 391.960 21.683,391.600 21.193,391.600 20.912 C 391.600 20.630,391.390 20.400,391.133 20.400 C 390.877 20.400,390.773 20.294,390.903 20.164 C 391.033 20.034,390.568 19.170,389.870 18.243 C 389.171 17.317,388.242 16.073,387.805 15.480 C 387.368 14.886,386.777 14.400,386.493 14.400 C 386.208 14.400,385.856 14.085,385.710 13.700 C 385.430 12.962,385.085 12.578,383.822 11.600 C 383.210 11.126,383.118 11.118,383.385 11.562 C 383.572 11.871,382.894 11.343,381.879 10.388 C 380.864 9.433,379.768 8.613,379.442 8.565 C 379.117 8.517,378.445 8.101,377.950 7.639 C 377.454 7.178,376.813 6.800,376.525 6.800 C 376.236 6.800,375.999 6.665,375.997 6.500 C 375.993 6.135,374.051 5.200,373.297 5.200 C 372.998 5.200,372.864 5.020,373.000 4.800 C 373.141 4.572,372.796 4.400,372.200 4.400 C 371.604 4.400,371.259 4.228,371.400 4.000 C 371.541 3.772,371.196 3.600,370.600 3.600 C 370.004 3.600,369.659 3.428,369.800 3.200 C 369.944 2.967,369.537 2.800,368.824 2.800 C 368.151 2.800,367.600 2.620,367.600 2.400 C 367.600 2.180,367.251 2.000,366.824 2.000 C 366.397 2.000,365.948 1.839,365.826 1.642 C 365.705 1.445,364.929 1.185,364.103 1.063 C 363.276 0.941,361.610 0.665,360.400 0.450 C 358.392 0.093,189.831 -0.049,180.100 0.298 M212.400 89.401 C 213.830 89.548,215.171 89.832,215.380 90.034 C 215.589 90.235,216.624 90.400,217.680 90.400 C 218.736 90.400,219.600 90.580,219.600 90.800 C 219.600 91.020,220.309 91.200,221.176 91.200 C 222.043 91.200,222.864 91.380,223.000 91.600 C 223.136 91.820,223.766 92.000,224.400 92.000 C 225.034 92.000,225.664 92.180,225.800 92.400 C 225.936 92.620,226.566 92.800,227.200 92.800 C 227.834 92.800,228.464 92.980,228.600 93.200 C 228.736 93.420,229.153 93.600,229.526 93.600 C 232.878 93.600,252.918 104.180,256.000 107.577 C 256.330 107.940,257.222 108.673,257.981 109.204 C 261.299 111.524,268.263 118.476,271.603 122.800 C 272.367 123.790,273.309 124.949,273.696 125.375 C 274.083 125.802,274.400 126.372,274.400 126.642 C 274.400 126.912,274.547 127.193,274.728 127.267 C 275.193 127.456,278.400 132.269,278.400 132.778 C 278.400 133.010,278.535 133.201,278.700 133.203 C 278.865 133.205,279.204 133.610,279.453 134.103 C 279.702 134.596,280.692 136.541,281.653 138.424 C 282.614 140.308,283.729 142.648,284.131 143.624 C 284.533 144.601,285.022 145.760,285.218 146.200 C 287.705 151.790,289.897 161.321,290.874 170.800 C 291.831 180.085,291.387 249.509,290.363 250.580 C 290.163 250.789,290.000 251.376,290.000 251.885 C 290.000 252.394,289.834 253.123,289.631 253.505 C 289.428 253.887,288.605 255.550,287.802 257.200 C 284.525 263.932,278.649 269.051,271.002 271.837 C 268.305 272.819,268.426 272.555,267.619 279.200 C 267.197 282.676,266.887 284.243,266.370 285.500 C 266.166 285.995,265.844 286.805,265.653 287.300 C 264.871 289.328,262.621 293.809,262.321 293.933 C 262.145 294.007,262.000 294.295,262.000 294.574 C 262.000 294.853,261.460 295.646,260.800 296.337 C 260.140 297.028,259.600 297.689,259.600 297.807 C 259.600 298.757,252.303 305.045,250.036 306.048 C 249.356 306.349,248.800 306.731,248.800 306.898 C 248.800 307.064,248.440 307.200,248.000 307.200 C 247.560 307.200,247.200 307.380,247.200 307.600 C 247.200 307.820,246.840 308.000,246.400 308.000 C 245.960 308.000,245.600 308.180,245.600 308.400 C 245.600 308.620,245.161 308.800,244.624 308.800 C 244.087 308.800,243.536 308.980,243.400 309.200 C 243.264 309.420,242.724 309.600,242.200 309.600 C 241.676 309.600,241.136 309.780,241.000 310.000 C 240.864 310.220,240.144 310.400,239.400 310.400 C 238.656 310.400,237.936 310.580,237.800 310.800 C 237.641 311.057,231.013 311.200,219.227 311.200 L 200.901 311.200 199.469 309.889 C 197.822 308.380,197.229 306.044,198.087 304.439 C 198.592 303.494,198.803 303.339,200.800 302.445 C 201.470 302.145,207.348 301.953,218.600 301.864 C 234.689 301.736,237.081 301.609,239.100 300.773 C 239.595 300.568,240.450 300.220,241.000 300.000 C 242.642 299.343,244.174 298.619,244.600 298.299 C 244.820 298.134,246.094 297.212,247.431 296.251 C 248.768 295.290,250.568 293.625,251.431 292.552 C 252.294 291.478,253.090 290.510,253.201 290.400 C 253.311 290.290,253.656 289.705,253.968 289.100 C 254.280 288.495,254.685 288.000,254.868 288.000 C 255.050 288.000,255.200 287.640,255.200 287.200 C 255.200 286.760,255.380 286.400,255.600 286.400 C 255.820 286.400,256.000 286.128,256.000 285.795 C 256.000 285.462,256.180 284.832,256.400 284.395 C 256.620 283.958,256.980 283.242,257.200 282.805 C 257.420 282.368,257.600 281.479,257.600 280.829 C 257.600 280.179,257.780 279.536,258.000 279.400 C 258.220 279.264,258.400 277.903,258.400 276.376 L 258.400 273.600 246.600 273.600 L 234.800 273.600 234.800 237.643 C 234.800 205.224,234.862 201.662,235.433 201.443 C 235.781 201.309,243.887 201.200,253.446 201.200 L 270.826 201.200 270.650 190.900 C 270.481 180.976,270.155 176.693,269.210 172.000 C 268.966 170.790,268.664 169.213,268.539 168.496 C 268.414 167.779,268.151 167.094,267.956 166.973 C 267.760 166.852,267.600 166.234,267.600 165.600 C 267.600 164.966,267.420 164.336,267.200 164.200 C 266.980 164.064,266.800 163.601,266.800 163.171 C 266.800 162.741,266.641 162.077,266.447 161.695 C 266.252 161.313,265.915 160.550,265.697 160.000 C 264.279 156.422,260.071 148.321,259.500 148.067 C 259.335 147.993,259.200 147.723,259.199 147.467 C 259.199 147.210,258.659 146.370,258.000 145.600 C 257.341 144.830,256.801 144.041,256.801 143.847 C 256.800 143.653,256.483 143.203,256.096 142.847 C 255.708 142.491,254.912 141.555,254.327 140.767 C 253.201 139.252,247.338 133.405,245.430 131.894 C 244.809 131.402,243.764 130.505,243.108 129.900 C 242.452 129.295,241.782 128.800,241.620 128.800 C 241.457 128.800,240.801 128.350,240.162 127.800 C 239.523 127.251,238.775 126.801,238.500 126.800 C 238.225 126.800,238.000 126.620,238.000 126.400 C 238.000 126.180,237.730 126.000,237.400 126.000 C 237.070 126.000,236.800 125.820,236.800 125.600 C 236.800 125.380,236.545 125.200,236.233 125.200 C 235.922 125.200,235.607 125.055,235.533 124.879 C 235.366 124.475,228.350 121.086,226.200 120.370 C 225.320 120.077,224.429 119.693,224.220 119.518 C 224.011 119.343,223.437 119.200,222.944 119.200 C 222.451 119.200,221.949 119.041,221.829 118.846 C 221.708 118.651,221.113 118.393,220.505 118.271 C 219.897 118.149,218.590 117.847,217.600 117.600 C 200.607 113.355,180.337 115.858,166.600 123.899 C 165.720 124.414,164.685 124.938,164.300 125.064 C 163.915 125.190,163.600 125.452,163.600 125.647 C 163.600 125.841,163.364 126.000,163.075 126.000 C 162.787 126.000,162.164 126.360,161.692 126.800 C 161.220 127.240,160.680 127.600,160.492 127.600 C 160.304 127.600,159.802 127.920,159.375 128.311 C 158.949 128.702,157.983 129.457,157.229 129.989 C 153.670 132.499,145.291 140.969,143.696 143.668 C 143.328 144.291,142.886 144.800,142.714 144.800 C 142.541 144.800,142.400 145.070,142.400 145.400 C 142.400 145.730,142.220 146.000,142.000 146.000 C 141.780 146.000,141.600 146.270,141.600 146.600 C 141.600 146.930,141.420 147.200,141.200 147.200 C 140.980 147.200,140.800 147.393,140.800 147.628 C 140.800 147.863,140.296 148.808,139.679 149.728 C 138.347 151.715,136.212 156.119,134.313 160.800 C 134.089 161.350,133.748 162.113,133.553 162.495 C 133.359 162.877,133.200 163.541,133.200 163.971 C 133.200 164.401,133.020 164.864,132.800 165.000 C 132.580 165.136,132.400 165.766,132.400 166.400 C 132.400 167.034,132.239 167.652,132.042 167.774 C 131.845 167.895,131.583 168.671,131.458 169.497 C 131.333 170.324,131.019 172.080,130.760 173.400 C 130.484 174.807,130.224 181.055,130.133 188.500 L 129.978 201.200 147.182 201.200 L 164.385 201.200 164.602 202.100 C 164.722 202.595,164.770 218.840,164.710 238.200 L 164.600 273.400 148.400 273.398 C 130.326 273.396,130.411 273.407,124.526 270.500 C 118.668 267.607,113.637 262.465,110.731 256.400 C 109.835 254.530,108.944 252.687,108.751 252.305 C 108.558 251.923,108.400 251.079,108.400 250.429 C 108.400 249.779,108.220 249.136,108.000 249.000 C 107.738 248.838,107.600 235.070,107.600 209.000 C 107.600 182.930,107.738 169.162,108.000 169.000 C 108.220 168.864,108.400 167.694,108.400 166.400 C 108.400 165.106,108.580 163.936,108.800 163.800 C 109.020 163.664,109.200 162.854,109.200 162.000 C 109.200 161.146,109.380 160.336,109.600 160.200 C 109.820 160.064,110.000 159.254,110.000 158.400 C 110.000 157.546,110.180 156.736,110.400 156.600 C 110.620 156.464,110.800 156.026,110.800 155.627 C 110.800 154.774,112.623 148.912,113.201 147.905 C 113.420 147.523,113.606 146.983,113.613 146.705 C 113.619 146.427,114.159 145.125,114.813 143.810 C 115.466 142.496,116.000 141.191,116.000 140.910 C 116.000 140.630,116.180 140.400,116.400 140.400 C 116.620 140.400,116.800 140.040,116.800 139.600 C 116.800 139.160,116.935 138.799,117.100 138.799 C 117.265 138.798,117.850 137.808,118.400 136.600 C 118.950 135.392,119.535 134.402,119.700 134.401 C 119.865 134.401,120.000 134.212,120.000 133.982 C 120.000 133.473,124.006 127.454,124.470 127.267 C 124.651 127.193,124.800 126.914,124.800 126.645 C 124.800 126.376,125.430 125.469,126.200 124.628 C 126.970 123.787,127.603 122.987,127.606 122.850 C 127.630 121.917,138.237 111.277,141.200 109.213 C 141.970 108.677,142.891 107.914,143.247 107.519 C 143.603 107.124,144.098 106.800,144.347 106.800 C 144.596 106.800,144.800 106.620,144.800 106.400 C 144.800 106.180,145.055 106.000,145.367 106.000 C 145.678 106.000,145.993 105.853,146.067 105.672 C 146.220 105.294,150.219 102.555,152.824 101.042 C 157.676 98.226,165.833 94.620,170.600 93.184 C 171.480 92.919,172.513 92.544,172.895 92.351 C 173.277 92.158,174.031 92.000,174.571 92.000 C 175.111 92.000,175.664 91.820,175.800 91.600 C 175.936 91.380,176.656 91.200,177.400 91.200 C 178.144 91.200,178.864 91.020,179.000 90.800 C 179.136 90.580,180.036 90.400,181.000 90.400 C 181.964 90.400,182.864 90.220,183.000 90.000 C 183.136 89.780,184.272 89.597,185.524 89.594 C 186.776 89.591,188.070 89.410,188.400 89.193 C 189.044 88.769,207.810 88.932,212.400 89.401 " stroke="none" fill="#24c46c" fill-rule="evenodd"></path><path id="path2" d="M195.321 89.098 C 197.477 89.171,200.897 89.170,202.921 89.098 C 204.944 89.025,203.180 88.966,199.000 88.967 C 194.820 88.967,193.164 89.026,195.321 89.098 M185.300 89.876 C 185.685 89.976,186.315 89.976,186.700 89.876 C 187.085 89.775,186.770 89.693,186.000 89.693 C 185.230 89.693,184.915 89.775,185.300 89.876 M211.700 89.876 C 212.085 89.976,212.715 89.976,213.100 89.876 C 213.485 89.775,213.170 89.693,212.400 89.693 C 211.630 89.693,211.315 89.775,211.700 89.876 M180.000 90.818 C 179.562 91.115,179.724 91.152,180.600 90.956 C 182.071 90.627,182.390 90.398,181.367 90.406 C 180.945 90.409,180.330 90.595,180.000 90.818 M148.293 104.214 C 147.472 104.772,146.800 105.315,146.800 105.420 C 146.800 105.525,147.520 105.135,148.400 104.553 C 149.797 103.628,150.270 103.200,149.893 103.200 C 149.834 103.200,149.114 103.656,148.293 104.214 M259.600 110.925 C 259.600 110.994,260.185 111.579,260.900 112.225 L 262.200 113.400 261.025 112.100 C 259.930 110.888,259.600 110.616,259.600 110.925 M137.375 112.900 L 136.200 114.200 137.500 113.025 C 138.712 111.930,138.984 111.600,138.675 111.600 C 138.606 111.600,138.021 112.185,137.375 112.900 M197.300 115.097 C 198.785 115.174,201.215 115.174,202.700 115.097 C 204.185 115.020,202.970 114.957,200.000 114.957 C 197.030 114.957,195.815 115.020,197.300 115.097 M131.375 118.900 L 130.200 120.200 131.500 119.025 C 132.215 118.379,132.800 117.794,132.800 117.725 C 132.800 117.416,132.470 117.688,131.375 118.900 M267.200 118.525 C 267.200 118.594,267.785 119.179,268.500 119.825 L 269.800 121.000 268.625 119.700 C 267.530 118.488,267.200 118.216,267.200 118.525 M121.753 131.300 C 120.376 133.636,120.286 133.835,120.987 133.000 C 121.800 132.032,122.500 130.800,122.238 130.800 C 122.133 130.800,121.915 131.025,121.753 131.300 M246.400 132.125 C 246.400 132.194,246.985 132.779,247.700 133.425 L 249.000 134.600 247.825 133.300 C 246.730 132.088,246.400 131.816,246.400 132.125 M252.200 138.000 C 253.059 138.880,253.852 139.600,253.962 139.600 C 254.072 139.600,253.459 138.880,252.600 138.000 C 251.741 137.120,250.948 136.400,250.838 136.400 C 250.728 136.400,251.341 137.120,252.200 138.000 M289.444 163.400 C 289.773 164.871,290.002 165.190,289.994 164.167 C 289.991 163.745,289.805 163.130,289.582 162.800 C 289.285 162.362,289.248 162.524,289.444 163.400 M108.649 165.415 C 108.512 165.773,108.415 166.366,108.434 166.733 C 108.453 167.100,108.627 166.869,108.821 166.220 C 109.198 164.958,109.065 164.333,108.649 165.415 M290.282 169.000 C 290.409 170.100,290.577 171.075,290.656 171.167 C 290.955 171.514,290.728 168.564,290.397 167.800 C 290.174 167.285,290.133 167.713,290.282 169.000 M107.714 173.400 C 107.717 174.500,107.795 174.903,107.887 174.295 C 107.979 173.686,107.977 172.786,107.882 172.295 C 107.787 171.803,107.711 172.300,107.714 173.400 M129.701 177.400 C 129.705 178.280,129.787 178.593,129.883 178.095 C 129.979 177.598,129.975 176.878,129.875 176.495 C 129.775 176.113,129.696 176.520,129.701 177.400 M290.991 210.400 C 290.991 229.210,291.040 236.905,291.100 227.500 C 291.160 218.095,291.160 202.705,291.100 193.300 C 291.040 183.895,290.991 191.590,290.991 210.400 M129.283 190.900 C 129.237 196.785,129.335 201.600,129.500 201.600 C 129.665 201.601,129.754 198.406,129.698 194.500 C 129.508 181.361,129.367 180.133,129.283 190.900 M270.974 191.200 C 270.974 196.810,271.030 199.105,271.099 196.300 C 271.168 193.495,271.168 188.905,271.099 186.100 C 271.030 183.295,270.974 185.590,270.974 191.200 M235.467 201.867 C 235.096 202.237,235.129 273.109,235.500 273.338 C 235.665 273.440,235.800 257.341,235.800 237.562 C 235.800 217.783,235.785 201.600,235.767 201.600 C 235.748 201.600,235.613 201.720,235.467 201.867 M107.606 246.233 C 107.609 246.875,107.784 247.670,107.995 248.000 C 108.255 248.409,108.299 248.090,108.132 247.000 C 107.829 245.023,107.598 244.686,107.606 246.233 M284.155 261.881 C 283.307 262.916,282.822 263.634,283.077 263.476 C 283.621 263.140,286.155 260.000,285.882 260.000 C 285.780 260.000,285.003 260.847,284.155 261.881 M116.600 264.400 C 117.683 265.500,118.660 266.400,118.770 266.400 C 118.880 266.400,118.083 265.500,117.000 264.400 C 115.917 263.300,114.940 262.400,114.830 262.400 C 114.720 262.400,115.517 263.300,116.600 264.400 M267.756 272.571 C 267.635 272.885,267.604 273.560,267.686 274.071 C 267.795 274.754,267.888 274.604,268.037 273.500 C 268.247 271.947,268.136 271.581,267.756 272.571 M258.524 275.800 C 258.526 277.120,258.601 277.612,258.690 276.893 C 258.779 276.174,258.777 275.094,258.686 274.493 C 258.595 273.892,258.522 274.480,258.524 275.800 M267.301 277.400 C 267.305 278.280,267.387 278.593,267.483 278.095 C 267.579 277.598,267.575 276.878,267.475 276.495 C 267.375 276.113,267.296 276.520,267.301 277.400 M233.700 302.276 C 234.085 302.376,234.715 302.376,235.100 302.276 C 235.485 302.175,235.170 302.093,234.400 302.093 C 233.630 302.093,233.315 302.175,233.700 302.276 M210.127 311.100 C 214.927 311.164,222.667 311.163,227.327 311.099 C 231.987 311.036,228.060 310.983,218.600 310.983 C 209.140 310.983,205.327 311.036,210.127 311.100 " stroke="none" fill="#6cd69f" fill-rule="evenodd"></path><path id="path3" d="M188.400 89.212 C 187.981 89.491,188.342 89.533,189.600 89.350 C 191.841 89.025,192.160 88.798,190.367 88.806 C 189.615 88.809,188.730 88.992,188.400 89.212 M206.433 88.944 C 206.525 89.023,207.500 89.201,208.600 89.341 C 209.965 89.514,210.410 89.470,210.000 89.203 C 209.459 88.850,206.036 88.601,206.433 88.944 M183.000 90.000 C 182.708 90.473,183.099 90.473,184.200 90.000 C 184.971 89.669,184.969 89.655,184.124 89.628 C 183.642 89.613,183.136 89.780,183.000 90.000 M214.200 90.000 C 215.301 90.473,215.692 90.473,215.400 90.000 C 215.264 89.780,214.758 89.613,214.276 89.628 C 213.431 89.655,213.429 89.669,214.200 90.000 M164.083 95.469 C 162.698 96.035,161.635 96.568,161.720 96.653 C 161.906 96.839,166.040 95.205,166.580 94.733 C 167.130 94.251,166.878 94.325,164.083 95.469 M235.558 96.037 C 236.525 96.466,237.388 96.745,237.475 96.658 C 237.648 96.486,234.565 95.182,234.092 95.228 C 233.931 95.244,234.591 95.608,235.558 96.037 M157.422 98.599 C 155.454 99.587,153.654 100.587,153.422 100.821 C 153.190 101.055,154.774 100.347,156.943 99.247 C 160.547 97.419,161.619 96.798,161.167 96.801 C 161.075 96.802,159.390 97.611,157.422 98.599 M238.000 96.978 C 238.000 97.062,239.395 97.814,241.100 98.649 C 244.154 100.145,246.987 101.718,248.982 103.025 C 249.542 103.392,250.000 103.600,250.000 103.488 C 250.000 103.152,246.430 100.982,242.800 99.110 C 239.234 97.272,238.000 96.723,238.000 96.978 M150.881 102.172 C 148.921 103.558,148.785 103.865,150.600 102.805 C 152.478 101.710,153.125 101.191,152.580 101.220 C 152.371 101.230,151.607 101.659,150.881 102.172 M254.000 106.300 C 254.000 106.469,254.360 106.832,254.800 107.107 C 255.240 107.382,255.600 107.469,255.600 107.300 C 255.600 107.131,255.240 106.768,254.800 106.493 C 254.360 106.218,254.000 106.131,254.000 106.300 M139.818 110.218 C 139.187 110.760,138.745 111.278,138.835 111.368 C 138.926 111.458,139.516 111.088,140.146 110.545 C 140.777 110.003,141.219 109.485,141.129 109.396 C 141.039 109.306,140.449 109.676,139.818 110.218 M258.000 109.500 C 258.000 109.669,258.360 110.032,258.800 110.307 C 259.240 110.582,259.600 110.669,259.600 110.500 C 259.600 110.331,259.240 109.968,258.800 109.693 C 258.360 109.418,258.000 109.331,258.000 109.500 M134.086 115.700 C 129.539 120.288,128.153 121.830,127.529 123.000 C 127.294 123.440,127.790 122.990,128.632 122.000 C 129.473 121.010,132.050 118.265,134.358 115.900 C 136.666 113.535,138.463 111.600,138.352 111.600 C 138.241 111.600,136.322 113.445,134.086 115.700 M264.993 115.909 C 267.409 118.379,269.471 120.400,269.574 120.400 C 269.924 120.400,264.283 114.621,261.969 112.609 C 261.216 111.955,262.577 113.440,264.993 115.909 M191.800 115.600 L 189.800 115.874 192.000 115.909 C 193.210 115.928,194.560 115.789,195.000 115.600 C 195.996 115.172,194.921 115.172,191.800 115.600 M205.400 115.589 C 206.153 115.923,210.725 116.167,210.367 115.855 C 210.275 115.775,208.940 115.602,207.400 115.472 C 205.634 115.322,204.895 115.365,205.400 115.589 M186.600 116.400 L 185.400 116.705 186.600 116.747 C 187.260 116.769,188.070 116.613,188.400 116.400 C 189.143 115.920,188.487 115.920,186.600 116.400 M212.000 116.379 C 212.330 116.604,213.125 116.791,213.767 116.794 C 215.304 116.802,214.984 116.570,213.000 116.238 C 211.854 116.046,211.570 116.086,212.000 116.379 M183.000 117.200 C 181.893 117.482,181.877 117.509,182.800 117.547 C 183.350 117.569,184.070 117.413,184.400 117.200 C 185.081 116.760,184.729 116.760,183.000 117.200 M216.000 117.194 C 216.330 117.411,217.035 117.591,217.567 117.594 C 218.851 117.602,218.525 117.375,216.800 117.058 C 215.815 116.877,215.578 116.918,216.000 117.194 M177.720 118.736 C 174.677 119.748,172.455 120.816,175.046 120.021 C 178.786 118.874,181.600 117.904,181.600 117.763 C 181.600 117.486,181.108 117.609,177.720 118.736 M219.200 117.982 C 219.530 118.205,220.145 118.391,220.567 118.394 C 221.590 118.402,221.271 118.173,219.800 117.844 C 218.924 117.648,218.762 117.685,219.200 117.982 M221.845 118.872 C 221.956 119.053,222.476 119.200,223.000 119.200 C 223.524 119.200,224.051 119.359,224.170 119.552 C 224.290 119.746,224.835 119.990,225.382 120.094 C 225.929 120.199,226.281 120.130,226.164 119.942 C 226.048 119.754,225.614 119.600,225.200 119.600 C 224.786 119.600,224.349 119.441,224.229 119.246 C 224.108 119.051,223.477 118.814,222.826 118.718 C 222.175 118.623,221.733 118.692,221.845 118.872 M271.021 122.600 C 271.833 123.590,272.570 124.400,272.661 124.400 C 272.974 124.400,270.199 120.831,269.873 120.816 C 269.693 120.807,270.210 121.610,271.021 122.600 M169.653 121.853 C 168.913 122.176,168.401 122.534,168.516 122.649 C 168.631 122.764,169.416 122.493,170.262 122.047 C 172.035 121.111,171.641 120.986,169.653 121.853 M125.269 125.639 C 124.510 126.854,124.966 127.016,125.755 125.812 C 126.120 125.256,126.278 124.800,126.105 124.800 C 125.933 124.800,125.557 125.178,125.269 125.639 M273.293 125.600 C 273.568 126.040,273.931 126.400,274.100 126.400 C 274.269 126.400,274.182 126.040,273.907 125.600 C 273.632 125.160,273.269 124.800,273.100 124.800 C 272.931 124.800,273.018 125.160,273.293 125.600 M240.400 127.927 C 240.400 128.116,240.850 128.477,241.400 128.727 C 241.950 128.978,242.400 129.117,242.400 129.037 C 242.400 128.957,241.950 128.597,241.400 128.237 C 240.850 127.876,240.400 127.737,240.400 127.927 M157.185 129.618 L 155.800 130.835 157.295 129.918 C 158.117 129.413,158.792 128.865,158.795 128.700 C 158.803 128.237,158.669 128.313,157.185 129.618 M150.168 135.824 C 147.608 138.367,145.612 140.546,145.732 140.666 C 145.852 140.786,146.547 140.199,147.275 139.362 C 149.063 137.308,152.309 134.087,154.189 132.500 C 155.036 131.785,155.525 131.200,155.275 131.200 C 155.026 131.200,152.727 133.281,150.168 135.824 M245.600 131.680 C 245.600 132.028,250.559 136.774,250.737 136.597 C 250.818 136.515,250.447 136.033,249.912 135.524 C 246.200 131.999,245.600 131.464,245.600 131.680 M279.786 135.500 C 280.135 136.215,280.506 136.800,280.610 136.800 C 281.008 136.800,280.752 136.163,279.967 135.200 L 279.152 134.200 279.786 135.500 M252.000 138.125 C 252.000 138.194,252.585 138.779,253.300 139.425 L 254.600 140.600 253.425 139.300 C 252.330 138.088,252.000 137.816,252.000 138.125 M283.007 141.879 C 283.607 143.314,284.000 143.962,284.000 143.516 C 284.000 143.084,282.785 140.400,282.589 140.400 C 282.479 140.400,282.667 141.066,283.007 141.879 M254.893 141.600 C 255.168 142.040,255.531 142.400,255.700 142.400 C 255.869 142.400,255.782 142.040,255.507 141.600 C 255.232 141.160,254.869 140.800,254.700 140.800 C 254.531 140.800,254.618 141.160,254.893 141.600 M114.612 144.212 C 114.055 145.428,113.611 146.643,113.625 146.912 C 113.639 147.180,113.823 146.970,114.033 146.444 C 114.403 145.519,115.572 142.912,115.891 142.300 C 115.977 142.135,115.952 142.000,115.835 142.000 C 115.719 142.000,115.168 142.995,114.612 144.212 M256.822 143.800 C 256.827 144.329,257.942 145.791,258.169 145.565 C 258.266 145.468,258.002 144.941,257.582 144.394 C 257.161 143.847,256.820 143.580,256.822 143.800 M285.177 147.046 C 285.836 149.207,286.492 150.841,286.642 150.692 C 286.819 150.514,285.442 146.508,285.078 146.144 C 284.939 146.005,284.983 146.411,285.177 147.046 M112.987 148.200 C 112.884 148.530,112.712 149.079,112.605 149.421 C 112.497 149.762,112.566 149.945,112.757 149.827 C 112.948 149.709,113.191 149.159,113.297 148.606 C 113.506 147.513,113.290 147.230,112.987 148.200 M139.822 148.622 C 139.445 149.198,139.216 149.749,139.314 149.847 C 139.412 149.945,139.800 149.554,140.178 148.978 C 140.555 148.402,140.784 147.851,140.686 147.753 C 140.588 147.655,140.200 148.046,139.822 148.622 M112.046 150.667 C 112.021 150.924,111.884 151.464,111.741 151.867 C 111.540 152.436,111.594 152.497,111.979 152.142 C 112.252 151.891,112.389 151.351,112.284 150.942 C 112.179 150.534,112.072 150.410,112.046 150.667 M263.586 155.235 C 264.818 157.840,265.514 158.879,264.840 157.105 C 264.264 155.589,262.818 152.800,262.609 152.800 C 262.513 152.800,262.952 153.896,263.586 155.235 M136.386 155.061 C 134.224 159.878,133.843 160.944,134.405 160.597 C 134.622 160.463,134.800 160.091,134.800 159.771 C 134.800 159.451,134.970 158.877,135.179 158.495 C 136.319 156.402,137.598 153.465,137.439 153.306 C 137.338 153.205,136.864 153.995,136.386 155.061 M287.646 154.400 C 287.627 154.950,287.787 155.670,288.000 156.000 C 288.494 156.764,288.494 155.942,288.000 154.400 L 287.680 153.400 287.646 154.400 M288.406 157.433 C 288.409 157.855,288.595 158.470,288.818 158.800 C 289.115 159.238,289.152 159.076,288.956 158.200 C 288.627 156.729,288.398 156.410,288.406 157.433 M289.212 161.600 C 289.212 161.930,289.387 162.470,289.600 162.800 C 289.945 163.333,289.988 163.333,289.988 162.800 C 289.988 162.470,289.813 161.930,289.600 161.600 C 289.255 161.067,289.212 161.067,289.212 161.600 M108.692 163.842 C 108.531 164.002,108.405 164.508,108.412 164.967 C 108.423 165.736,108.456 165.745,108.840 165.085 C 109.288 164.316,109.173 163.360,108.692 163.842 M267.628 165.876 C 267.613 166.358,267.780 166.864,268.000 167.000 C 268.473 167.292,268.473 166.901,268.000 165.800 C 267.669 165.029,267.655 165.031,267.628 165.876 M290.034 166.400 C 290.046 166.730,290.211 167.360,290.400 167.800 L 290.744 168.600 290.766 167.800 C 290.778 167.360,290.613 166.730,290.400 166.400 C 290.055 165.867,290.015 165.867,290.034 166.400 M268.406 168.633 C 268.409 169.055,268.595 169.670,268.818 170.000 C 269.115 170.438,269.152 170.276,268.956 169.400 C 268.627 167.929,268.398 167.610,268.406 168.633 M107.867 169.067 C 107.720 169.213,107.616 169.888,107.636 170.567 L 107.672 171.800 108.059 170.456 C 108.445 169.113,108.369 168.564,107.867 169.067 M131.246 169.667 C 131.221 170.034,131.096 170.664,130.970 171.067 C 130.752 171.762,130.763 171.763,131.197 171.087 C 131.448 170.696,131.573 170.066,131.473 169.687 C 131.311 169.068,131.288 169.066,131.246 169.667 M269.246 172.400 C 269.227 172.950,269.387 173.670,269.600 174.000 C 270.094 174.764,270.094 173.942,269.600 172.400 L 269.280 171.400 269.246 172.400 M130.449 173.600 C 130.416 173.930,130.289 174.650,130.167 175.200 C 129.975 176.064,130.007 176.103,130.399 175.488 C 130.648 175.097,130.775 174.377,130.681 173.888 C 130.586 173.400,130.482 173.270,130.449 173.600 M291.000 210.177 C 291.000 230.057,291.132 246.116,291.294 245.862 C 291.663 245.281,291.642 175.647,291.272 174.715 C 291.122 174.338,291.000 190.296,291.000 210.177 M270.006 178.033 C 270.009 179.005,270.194 180.070,270.416 180.400 C 270.697 180.818,270.739 180.333,270.555 178.800 C 270.225 176.047,269.998 175.729,270.006 178.033 M129.790 190.000 L 129.800 201.400 147.000 201.600 L 164.200 201.800 164.200 237.662 C 164.200 257.386,164.335 273.440,164.500 273.338 C 164.855 273.119,164.911 202.756,164.557 201.833 C 164.341 201.269,162.434 201.200,147.163 201.200 L 130.012 201.200 129.897 189.900 L 129.781 178.600 129.790 190.000 M235.300 201.465 C 234.737 201.692,234.538 273.600,235.100 273.600 C 235.265 273.600,235.400 257.445,235.400 237.700 L 235.400 201.800 253.200 201.594 L 271.000 201.387 253.400 201.325 C 243.720 201.291,235.575 201.354,235.300 201.465 M286.943 258.221 C 285.556 260.976,281.834 265.131,278.656 267.473 C 276.031 269.407,275.929 269.849,278.528 268.029 C 282.516 265.235,289.210 257.076,288.278 256.145 C 288.172 256.039,287.571 256.973,286.943 258.221 M114.371 262.293 C 116.773 265.458,122.211 269.746,125.300 270.911 C 126.674 271.429,125.966 270.866,123.900 269.798 C 120.981 268.289,117.921 265.877,115.307 263.023 C 113.874 261.459,113.542 261.200,114.371 262.293 M271.800 271.229 C 270.920 271.652,270.650 271.886,271.200 271.749 C 272.333 271.467,274.412 270.425,273.800 270.446 C 273.580 270.453,272.680 270.806,271.800 271.229 M268.253 272.314 C 268.147 272.487,267.964 273.792,267.847 275.214 L 267.635 277.800 268.117 275.239 C 268.479 273.320,268.800 272.601,269.400 272.368 C 270.166 272.069,270.163 272.055,269.324 272.028 C 268.842 272.013,268.360 272.141,268.253 272.314 M132.000 273.200 C 132.330 273.413,132.960 273.578,133.400 273.566 L 134.200 273.544 133.400 273.200 C 132.204 272.686,131.205 272.686,132.000 273.200 M267.267 280.067 C 267.230 280.874,267.096 281.864,266.970 282.267 C 266.753 282.957,266.766 282.959,267.194 282.293 C 267.443 281.904,267.577 280.914,267.491 280.093 L 267.334 278.600 267.267 280.067 M266.454 283.667 C 266.425 284.034,266.284 284.664,266.141 285.067 C 265.941 285.633,265.995 285.696,266.375 285.346 C 266.646 285.097,266.787 284.467,266.688 283.946 C 266.590 283.426,266.484 283.300,266.454 283.667 M254.057 288.857 C 253.775 289.309,253.632 289.766,253.740 289.873 C 253.847 289.981,254.144 289.678,254.400 289.200 C 255.005 288.070,254.724 287.790,254.057 288.857 M263.478 291.405 C 263.112 292.172,262.895 292.800,262.996 292.800 C 263.270 292.800,264.484 290.351,264.301 290.168 C 264.214 290.081,263.844 290.638,263.478 291.405 M252.800 290.814 C 252.800 291.041,251.519 292.509,249.953 294.074 C 248.388 295.640,247.623 296.549,248.253 296.095 C 249.316 295.330,250.321 294.309,252.778 291.500 C 253.307 290.895,253.528 290.400,253.270 290.400 C 253.011 290.400,252.800 290.586,252.800 290.814 M261.045 295.388 C 260.680 295.944,260.522 296.400,260.695 296.400 C 261.084 296.400,262.119 294.786,261.882 294.549 C 261.786 294.453,261.410 294.831,261.045 295.388 M245.400 297.627 C 244.055 298.489,244.239 298.638,245.781 297.936 C 246.342 297.680,246.800 297.320,246.800 297.136 C 246.800 296.718,246.843 296.703,245.400 297.627 M257.000 300.157 C 256.340 300.847,255.192 301.911,254.450 302.522 C 253.707 303.133,253.179 303.712,253.276 303.809 C 253.373 303.906,254.701 302.828,256.226 301.412 C 257.752 299.996,258.820 298.852,258.600 298.870 C 258.380 298.887,257.660 299.466,257.000 300.157 M235.600 301.600 C 234.836 302.094,235.658 302.094,237.200 301.600 L 238.200 301.280 237.200 301.246 C 236.650 301.227,235.930 301.387,235.600 301.600 M201.061 302.300 C 200.893 302.572,218.049 302.561,229.000 302.283 C 231.420 302.221,226.166 302.133,217.324 302.086 C 208.482 302.038,201.164 302.135,201.061 302.300 M198.598 303.602 C 197.571 304.737,198.006 304.829,199.163 303.722 C 199.693 303.215,199.946 302.800,199.725 302.800 C 199.505 302.800,198.997 303.161,198.598 303.602 M236.200 310.800 C 235.486 311.107,235.515 311.147,236.476 311.172 C 237.068 311.187,237.664 311.020,237.800 310.800 C 238.095 310.322,237.311 310.322,236.200 310.800 " stroke="none" fill="#3ecc7e" fill-rule="evenodd"></path><path id="path4" d="M189.000 89.600 L 187.000 89.874 188.800 89.902 C 189.790 89.917,191.500 89.790,192.600 89.618 L 194.600 89.307 192.800 89.316 C 191.810 89.321,190.100 89.449,189.000 89.600 M205.200 89.617 C 206.410 89.784,208.300 89.912,209.400 89.902 L 211.400 89.882 209.000 89.585 C 207.680 89.421,205.790 89.293,204.800 89.300 L 203.000 89.313 205.200 89.617 M183.200 90.400 L 181.800 90.695 183.200 90.707 C 183.970 90.715,185.050 90.576,185.600 90.400 L 186.600 90.080 185.600 90.093 C 185.050 90.100,183.970 90.238,183.200 90.400 M213.000 90.400 C 213.660 90.568,214.740 90.706,215.400 90.707 C 216.409 90.708,216.345 90.655,215.000 90.377 C 212.974 89.958,211.337 89.977,213.000 90.400 M179.400 91.200 C 178.311 91.477,178.293 91.507,179.200 91.525 C 179.750 91.535,180.560 91.389,181.000 91.200 C 181.986 90.776,181.066 90.776,179.400 91.200 M217.800 91.181 C 218.568 91.529,220.710 91.756,220.367 91.453 C 220.275 91.372,219.480 91.196,218.600 91.062 C 217.485 90.893,217.242 90.929,217.800 91.181 M176.000 92.000 C 175.196 92.257,175.157 92.323,175.800 92.332 C 176.240 92.338,176.960 92.189,177.400 92.000 C 178.419 91.562,177.368 91.562,176.000 92.000 M221.600 91.956 C 222.150 92.147,223.410 92.531,224.400 92.809 C 225.390 93.088,227.010 93.579,228.000 93.901 C 231.275 94.966,232.150 95.190,231.773 94.865 C 231.568 94.689,230.050 94.130,228.400 93.624 C 226.750 93.117,224.950 92.556,224.400 92.377 C 222.927 91.896,220.278 91.498,221.600 91.956 M173.200 92.800 C 172.376 93.064,172.341 93.126,173.000 93.154 C 173.440 93.173,174.070 93.013,174.400 92.800 C 175.101 92.347,174.614 92.347,173.200 92.800 M169.800 93.861 C 168.297 94.443,164.180 96.032,162.045 96.854 C 161.519 97.057,161.171 97.305,161.272 97.405 C 161.372 97.505,162.941 96.960,164.759 96.194 C 166.576 95.427,168.274 94.787,168.532 94.770 C 169.155 94.731,172.313 93.262,171.800 93.250 C 171.580 93.245,170.680 93.520,169.800 93.861 M232.433 95.335 C 232.819 95.647,236.000 96.777,236.000 96.602 C 236.000 96.363,233.251 95.200,232.684 95.200 C 232.455 95.200,232.342 95.261,232.433 95.335 M236.454 96.987 C 236.767 97.300,239.600 98.423,239.600 98.235 C 239.600 97.991,237.169 96.800,236.672 96.800 C 236.449 96.800,236.351 96.884,236.454 96.987 M159.100 98.229 C 157.549 99.070,157.725 99.361,159.300 98.559 C 160.808 97.793,161.075 97.594,160.567 97.616 C 160.365 97.625,159.705 97.901,159.100 98.229 M154.400 100.833 L 153.400 101.648 154.700 101.014 C 155.415 100.665,156.000 100.294,156.000 100.190 C 156.000 99.792,155.363 100.048,154.400 100.833 M243.200 100.166 C 243.200 100.435,246.907 102.427,247.082 102.252 C 247.170 102.164,246.400 101.621,245.370 101.046 C 243.463 99.980,243.200 99.873,243.200 100.166 M151.281 102.572 C 149.321 103.958,149.185 104.265,151.000 103.205 C 152.878 102.110,153.525 101.591,152.980 101.620 C 152.771 101.630,152.007 102.059,151.281 102.572 M250.000 104.124 C 250.000 104.217,250.765 104.798,251.700 105.415 C 252.635 106.032,253.189 106.280,252.931 105.968 C 252.434 105.367,250.000 103.836,250.000 104.124 M143.177 108.288 C 138.570 111.929,134.962 115.270,131.600 119.008 C 130.830 119.865,132.583 118.295,135.495 115.520 C 140.188 111.049,144.423 107.498,146.348 106.421 C 146.703 106.222,146.894 105.961,146.773 105.840 C 146.652 105.719,145.034 106.821,143.177 108.288 M253.744 106.709 C 254.060 107.221,256.400 108.953,256.400 108.675 C 256.400 108.576,255.739 107.991,254.932 107.375 C 254.124 106.759,253.589 106.459,253.744 106.709 M256.816 109.051 C 256.825 109.243,257.725 110.104,258.816 110.965 C 263.459 114.629,272.245 124.371,275.548 129.519 C 276.952 131.708,277.729 132.419,276.568 130.453 C 274.467 126.898,268.808 119.954,264.621 115.795 C 261.389 112.585,256.796 108.616,256.816 109.051 M190.400 115.200 L 189.400 115.520 190.400 115.530 C 190.950 115.536,192.210 115.397,193.200 115.220 L 195.000 114.900 193.200 114.890 C 192.210 114.884,190.950 115.024,190.400 115.200 M205.233 114.951 C 205.325 115.034,206.660 115.205,208.200 115.332 C 209.968 115.478,210.631 115.437,210.000 115.221 C 209.021 114.887,204.904 114.653,205.233 114.951 M185.800 116.000 L 185.000 116.344 185.800 116.332 C 186.240 116.326,187.050 116.176,187.600 116.000 L 188.600 115.680 187.600 115.668 C 187.050 115.662,186.240 115.811,185.800 116.000 M212.800 116.000 C 213.350 116.176,214.160 116.326,214.600 116.332 L 215.400 116.344 214.600 116.000 C 214.160 115.811,213.350 115.662,212.800 115.668 L 211.800 115.680 212.800 116.000 M182.200 116.800 L 181.400 117.144 182.200 117.144 C 182.640 117.144,183.360 116.989,183.800 116.800 L 184.600 116.456 183.800 116.456 C 183.360 116.456,182.640 116.611,182.200 116.800 M216.600 116.800 C 217.040 116.989,217.760 117.144,218.200 117.144 L 219.000 117.144 218.200 116.800 C 217.760 116.611,217.040 116.456,216.600 116.456 L 215.800 116.456 216.600 116.800 M179.400 117.600 C 178.896 117.817,178.822 117.944,179.200 117.944 C 179.530 117.944,180.160 117.789,180.600 117.600 C 181.104 117.383,181.178 117.256,180.800 117.256 C 180.470 117.256,179.840 117.411,179.400 117.600 M219.800 117.600 C 220.240 117.789,220.870 117.944,221.200 117.944 C 221.578 117.944,221.504 117.817,221.000 117.600 C 220.560 117.411,219.930 117.256,219.600 117.256 C 219.222 117.256,219.296 117.383,219.800 117.600 M173.800 119.578 C 172.920 119.995,172.380 120.336,172.600 120.338 C 173.146 120.342,176.302 118.864,175.800 118.840 C 175.580 118.830,174.680 119.162,173.800 119.578 M167.771 122.316 C 163.901 124.325,156.817 128.820,156.806 129.272 C 156.803 129.421,158.465 128.413,160.500 127.032 C 162.535 125.650,165.907 123.671,167.993 122.634 C 170.079 121.597,171.864 120.670,171.959 120.574 C 172.523 120.011,170.950 120.665,167.771 122.316 M228.433 120.555 C 228.525 120.641,230.544 121.713,232.920 122.938 C 235.296 124.164,238.401 125.978,239.820 126.970 C 241.239 127.962,242.398 128.644,242.395 128.487 C 242.383 127.819,229.800 120.432,228.633 120.408 C 228.432 120.403,228.342 120.470,228.433 120.555 M127.538 123.719 C 126.294 125.304,125.362 126.689,125.468 126.797 C 125.574 126.905,125.838 126.676,126.055 126.287 C 126.273 125.899,127.346 124.505,128.440 123.190 C 129.534 121.876,130.288 120.809,130.115 120.819 C 129.942 120.830,128.782 122.135,127.538 123.719 M123.687 128.900 C 122.227 131.056,121.912 131.600,122.120 131.600 C 122.212 131.600,122.944 130.610,123.747 129.400 C 124.551 128.190,125.125 127.200,125.023 127.200 C 124.922 127.200,124.320 127.965,123.687 128.900 M244.400 130.230 C 246.724 132.186,253.814 139.276,255.770 141.600 C 256.619 142.609,256.906 142.834,256.423 142.111 C 254.260 138.875,247.125 131.740,243.889 129.577 C 243.166 129.094,243.391 129.381,244.400 130.230 M152.271 133.042 C 150.110 134.930,148.426 136.560,148.530 136.663 C 148.633 136.766,149.861 135.783,151.259 134.477 C 152.656 133.172,154.430 131.546,155.200 130.864 C 155.970 130.182,156.510 129.620,156.400 129.616 C 156.290 129.612,154.432 131.154,152.271 133.042 M277.275 132.200 C 277.480 132.853,280.062 137.200,280.245 137.200 C 280.506 137.200,278.544 133.498,277.807 132.600 C 277.445 132.160,277.206 131.980,277.275 132.200 M120.186 134.500 L 119.552 135.800 120.367 134.800 C 121.152 133.837,121.408 133.200,121.010 133.200 C 120.906 133.200,120.535 133.785,120.186 134.500 M118.220 137.960 C 117.652 139.082,117.264 140.000,117.359 140.000 C 117.651 140.000,119.623 136.290,119.433 136.099 C 119.334 136.001,118.789 136.838,118.220 137.960 M145.019 140.640 C 141.550 144.895,137.112 151.600,137.765 151.600 C 137.875 151.600,138.681 150.374,139.556 148.876 C 141.327 145.844,144.936 140.994,147.129 138.700 C 147.917 137.875,148.391 137.207,148.181 137.215 C 147.972 137.223,146.549 138.764,145.019 140.640 M116.272 141.819 C 115.332 143.789,115.464 144.124,116.447 142.262 C 116.893 141.416,117.187 140.654,117.101 140.567 C 117.014 140.481,116.641 141.044,116.272 141.819 M282.017 141.100 C 282.039 141.501,283.562 144.270,283.583 143.949 C 283.611 143.535,282.405 140.800,282.195 140.800 C 282.088 140.800,282.008 140.935,282.017 141.100 M259.423 146.798 C 260.600 148.558,262.413 151.707,263.450 153.797 C 264.488 155.887,265.415 157.518,265.511 157.422 C 265.957 156.977,258.251 143.619,257.541 143.605 C 257.399 143.602,258.245 145.039,259.423 146.798 M111.814 153.391 C 111.225 155.281,110.832 157.047,110.940 157.314 C 111.067 157.627,111.148 157.585,111.168 157.195 C 111.186 156.862,111.651 155.169,112.203 153.431 C 112.754 151.694,113.133 150.200,113.046 150.112 C 112.958 150.024,112.404 151.500,111.814 153.391 M286.914 153.800 C 287.199 154.870,288.721 161.192,288.936 162.200 C 289.098 162.955,289.110 162.952,289.154 162.151 C 289.207 161.169,287.343 153.602,286.959 153.242 C 286.817 153.109,286.797 153.360,286.914 153.800 M110.049 159.800 C 110.016 160.240,109.896 161.050,109.783 161.600 L 109.577 162.600 110.006 161.619 C 110.242 161.079,110.361 160.269,110.272 159.819 C 110.113 159.021,110.107 159.021,110.049 159.800 M109.259 163.800 C 109.220 164.460,109.096 165.450,108.983 166.000 L 108.777 167.000 109.208 166.014 C 109.444 165.472,109.568 164.482,109.483 163.814 L 109.328 162.600 109.259 163.800 M289.479 165.400 C 289.603 166.720,289.849 168.520,290.026 169.400 C 290.237 170.453,290.266 169.974,290.112 168.000 C 289.983 166.350,289.737 164.550,289.565 164.000 C 289.386 163.425,289.350 164.020,289.479 165.400 M268.012 165.200 C 268.012 165.530,268.187 166.070,268.400 166.400 C 268.745 166.933,268.788 166.933,268.788 166.400 C 268.788 166.070,268.613 165.530,268.400 165.200 C 268.055 164.667,268.012 164.667,268.012 165.200 M131.473 166.153 C 131.323 166.545,131.211 167.166,131.225 167.533 C 131.242 167.975,131.381 167.874,131.637 167.234 C 131.849 166.703,131.961 166.082,131.885 165.854 C 131.809 165.627,131.624 165.761,131.473 166.153 M108.232 170.632 C 108.077 172.531,108.035 174.168,108.137 174.271 C 108.240 174.373,108.453 172.906,108.611 171.011 C 108.768 169.115,108.811 167.477,108.705 167.371 C 108.599 167.265,108.386 168.732,108.232 170.632 M268.834 168.000 C 268.846 168.330,269.011 168.960,269.200 169.400 L 269.544 170.200 269.566 169.400 C 269.578 168.960,269.413 168.330,269.200 168.000 C 268.855 167.467,268.815 167.467,268.834 168.000 M130.673 169.353 C 130.523 169.745,130.411 170.366,130.425 170.733 C 130.442 171.175,130.581 171.074,130.837 170.434 C 131.049 169.903,131.161 169.282,131.085 169.054 C 131.009 168.827,130.824 168.961,130.673 169.353 M269.675 171.400 C 269.686 171.840,269.832 172.740,270.000 173.400 L 270.305 174.600 270.325 173.400 C 270.335 172.740,270.189 171.840,270.000 171.400 L 269.656 170.600 269.675 171.400 M290.368 209.800 C 290.241 231.140,290.014 249.230,289.864 250.000 C 289.714 250.770,289.865 250.437,290.198 249.260 C 290.724 247.404,290.790 242.065,290.702 209.060 L 290.600 171.000 290.368 209.800 M129.876 173.210 C 129.730 173.755,129.627 174.650,129.646 175.200 C 129.671 175.918,129.784 175.757,130.049 174.627 C 130.455 172.895,130.300 171.625,129.876 173.210 M107.791 210.200 C 107.791 229.560,107.840 237.539,107.900 227.930 C 107.960 218.322,107.960 202.482,107.900 192.730 C 107.840 182.979,107.791 190.840,107.791 210.200 M270.682 178.000 C 270.804 179.650,270.971 181.075,271.052 181.167 C 271.328 181.477,271.107 177.408,270.783 176.200 C 270.586 175.468,270.547 176.169,270.682 178.000 M129.008 179.700 C 128.871 180.855,128.814 186.300,128.880 191.800 L 129.000 201.800 146.500 202.000 C 156.125 202.110,164.000 202.065,164.000 201.900 C 164.000 201.735,156.152 201.600,146.560 201.600 L 129.121 201.600 129.260 189.600 C 129.409 176.858,129.397 176.420,129.008 179.700 M253.400 201.594 L 235.800 201.800 235.800 237.600 L 235.800 273.400 247.279 273.506 L 258.759 273.612 258.911 275.506 L 259.062 277.400 259.031 275.400 L 259.000 273.400 247.498 273.294 L 235.996 273.188 236.098 237.694 L 236.200 202.200 253.700 202.096 C 264.906 202.029,271.200 201.849,271.200 201.596 C 271.200 201.378,271.155 201.242,271.100 201.294 C 271.045 201.345,263.080 201.480,253.400 201.594 M164.098 237.900 L 164.000 273.200 150.300 273.200 C 136.720 273.200,133.828 272.983,129.227 271.621 C 128.472 271.397,128.022 271.364,128.227 271.548 C 128.625 271.904,130.870 272.507,134.320 273.184 C 137.539 273.816,163.971 273.741,164.216 273.100 C 164.321 272.825,164.359 256.850,164.301 237.600 L 164.196 202.600 164.098 237.900 M108.244 247.600 C 108.956 253.331,111.889 259.097,116.555 263.936 C 118.884 266.351,123.472 269.862,123.830 269.503 C 123.923 269.410,123.054 268.726,121.900 267.983 C 115.963 264.162,110.637 256.797,109.184 250.400 C 108.295 246.488,107.994 245.591,108.244 247.600 M288.127 254.604 C 287.452 256.244,287.037 257.501,287.206 257.396 C 287.578 257.166,289.693 251.960,289.495 251.762 C 289.418 251.684,288.802 252.963,288.127 254.604 M285.493 259.603 C 284.918 260.481,284.517 261.200,284.603 261.200 C 284.913 261.200,286.907 258.374,286.725 258.192 C 286.623 258.089,286.068 258.724,285.493 259.603 M281.086 264.601 C 278.807 266.774,277.001 268.055,274.346 269.384 C 270.661 271.229,270.041 271.922,273.504 270.326 C 277.045 268.694,280.672 265.942,283.570 262.689 C 285.246 260.807,284.313 261.525,281.086 264.601 M124.400 269.783 C 124.400 270.024,126.863 271.200,127.361 271.198 C 127.603 271.196,127.350 270.962,126.800 270.676 C 125.472 269.987,124.400 269.588,124.400 269.783 M268.500 271.648 C 267.235 272.013,267.202 272.079,267.263 274.111 L 267.326 276.200 267.563 274.200 C 267.771 272.447,267.923 272.183,268.800 272.066 C 269.350 271.993,269.971 271.768,270.180 271.566 C 270.643 271.120,270.264 271.138,268.500 271.648 M258.459 278.800 C 258.420 279.350,258.289 280.250,258.167 280.800 C 257.976 281.662,258.008 281.702,258.397 281.091 C 258.646 280.702,258.777 279.802,258.689 279.091 C 258.564 278.087,258.513 278.022,258.459 278.800 M266.618 280.218 C 266.465 281.239,266.430 282.163,266.540 282.273 C 266.650 282.383,266.865 281.639,267.018 280.618 C 267.171 279.598,267.206 278.673,267.096 278.563 C 266.986 278.453,266.771 279.198,266.618 280.218 M257.646 282.267 C 257.621 282.524,257.484 283.064,257.341 283.467 C 257.140 284.036,257.194 284.097,257.579 283.742 C 257.852 283.491,257.989 282.951,257.884 282.542 C 257.779 282.134,257.672 282.010,257.646 282.267 M265.829 283.829 C 265.681 284.415,265.651 284.984,265.761 285.094 C 265.871 285.204,266.081 284.815,266.229 284.229 C 266.376 283.642,266.406 283.073,266.296 282.963 C 266.186 282.853,265.976 283.242,265.829 283.829 M265.000 286.400 C 264.850 286.873,264.817 287.350,264.927 287.460 C 265.037 287.570,265.250 287.273,265.400 286.800 C 265.550 286.327,265.583 285.850,265.473 285.740 C 265.363 285.630,265.150 285.927,265.000 286.400 M254.780 288.866 C 254.513 289.380,253.676 290.565,252.920 291.500 C 252.165 292.435,251.674 293.200,251.829 293.200 C 252.358 293.200,255.778 288.445,255.471 288.138 C 255.358 288.024,255.046 288.352,254.780 288.866 M263.482 290.211 C 262.892 291.415,262.494 292.400,262.598 292.400 C 262.867 292.400,264.884 288.351,264.705 288.171 C 264.623 288.089,264.073 289.007,263.482 290.211 M260.637 295.100 C 259.825 296.365,259.579 296.908,260.090 296.306 C 261.100 295.118,262.547 292.800,262.279 292.800 C 262.188 292.800,261.449 293.835,260.637 295.100 M250.000 294.719 C 248.623 296.217,246.623 297.661,243.579 299.355 C 240.776 300.916,240.596 301.322,243.316 299.951 C 246.543 298.325,252.595 293.564,251.370 293.616 C 251.166 293.624,250.550 294.121,250.000 294.719 M257.255 299.244 C 254.443 302.513,245.301 308.400,243.035 308.400 C 242.712 308.400,242.324 308.599,242.174 308.843 C 241.363 310.154,249.370 306.227,252.800 303.631 C 255.530 301.565,259.074 298.136,258.775 297.848 C 258.679 297.756,257.995 298.384,257.255 299.244 M239.200 301.200 C 238.667 301.545,238.667 301.588,239.200 301.588 C 239.530 301.588,240.070 301.413,240.400 301.200 C 240.933 300.855,240.933 300.812,240.400 300.812 C 240.070 300.812,239.530 300.987,239.200 301.200 M236.400 302.000 C 235.596 302.257,235.557 302.323,236.200 302.332 C 236.640 302.338,237.360 302.189,237.800 302.000 C 238.819 301.562,237.768 301.562,236.400 302.000 M201.800 302.800 C 200.192 303.209,230.504 303.229,232.800 302.820 C 233.843 302.635,227.953 302.499,218.800 302.497 C 210.110 302.496,202.460 302.632,201.800 302.800 M199.144 303.966 C 198.625 304.387,198.293 304.824,198.406 304.938 C 198.519 305.052,199.033 304.707,199.548 304.173 C 200.668 303.009,200.457 302.901,199.144 303.966 M198.416 307.659 C 198.398 308.382,200.939 310.801,201.714 310.799 C 201.981 310.798,201.625 310.447,200.923 310.019 C 200.221 309.590,199.373 308.736,199.039 308.120 C 198.650 307.402,198.426 307.236,198.416 307.659 M239.400 309.600 C 238.381 310.038,239.432 310.038,240.800 309.600 C 241.604 309.343,241.643 309.277,241.000 309.268 C 240.560 309.262,239.840 309.411,239.400 309.600 M234.600 310.400 C 232.834 310.849,234.845 310.869,237.000 310.423 L 238.600 310.092 237.200 310.093 C 236.430 310.094,235.260 310.232,234.600 310.400 " stroke="none" fill="#8adcb4" fill-rule="evenodd"></path></g></svg>