<?xml version="1.0" ?><svg data-name="Layer 1" id="Layer_1" viewBox="0 0 168 168" xmlns="http://www.w3.org/2000/svg"><defs><style>.cls-1{fill:#2d4356;}.cls-2{fill:#0bceb2;}</style></defs><title/><path class="cls-1" d="M70.30471,14.3317a3,3,0,1,0-3-3A3.00344,3.00344,0,0,0,70.30471,14.3317Zm0-4.5a1.5,1.5,0,1,1-1.5,1.5A1.50148,1.50148,0,0,1,70.30471,9.8317Z"/><path class="cls-1" d="M158.30471,69.3317a2,2,0,1,0,2,2A2.00229,2.00229,0,0,0,158.30471,69.3317Zm0,3a1,1,0,1,1,1-1A1.001,1.001,0,0,1,158.30471,72.3317Z"/><path class="cls-1" d="M30.30471,2.3317a2,2,0,1,0,2,2A2.00229,2.00229,0,0,0,30.30471,2.3317Zm0,3a1,1,0,1,1,1-1A1.001,1.001,0,0,1,30.30471,5.3317Z"/><path class="cls-1" d="M153.30471,33.3317a2,2,0,1,0,2,2A2.00229,2.00229,0,0,0,153.30471,33.3317Zm0,3a1,1,0,1,1,1-1A1.001,1.001,0,0,1,153.30471,36.3317Z"/><path class="cls-1" d="M6.30471,47.3317a2,2,0,1,0-2,2A2.00229,2.00229,0,0,0,6.30471,47.3317Zm-3,0a1,1,0,1,1,1,1A1.001,1.001,0,0,1,3.30471,47.3317Z"/><polygon class="cls-2" points="13.888 24.343 15.375 22.387 14.436 21.856 13.481 24.046 13.45 24.046 12.48 21.871 11.525 22.419 12.996 24.328 12.996 24.359 10.695 24.061 10.695 25.125 13.011 24.828 13.011 24.86 11.525 26.768 12.416 27.332 13.434 25.125 13.465 25.125 14.404 27.316 15.39 26.753 13.888 24.875 13.888 24.844 16.25 25.125 16.25 24.061 13.888 24.374 13.888 24.343"/><polygon class="cls-2" points="92.081 3.398 91.225 4.497 91.739 4.822 92.325 3.551 92.342 3.551 92.883 4.813 93.451 4.488 92.586 3.407 92.586 3.389 93.946 3.551 93.946 2.939 92.586 3.119 92.586 3.101 93.442 1.975 92.902 1.668 92.352 2.929 92.334 2.929 91.775 1.677 91.225 1.993 92.072 3.092 92.072 3.11 90.747 2.939 90.747 3.551 92.081 3.38 92.081 3.398"/><polygon class="cls-2" points="158.305 8.045 158.305 7.002 155.988 7.308 155.988 7.278 157.446 5.36 156.525 4.838 155.589 6.986 155.558 6.986 154.607 4.853 153.67 5.39 155.113 7.263 155.113 7.293 152.856 7.002 152.856 8.045 155.128 7.754 155.128 7.785 153.67 9.656 154.545 10.209 155.543 8.045 155.573 8.045 156.494 10.194 157.461 9.641 155.988 7.8 155.988 7.769 158.305 8.045"/><polygon class="cls-2" points="116.748 19.917 118.006 18.263 117.211 17.813 116.404 19.666 116.377 19.666 115.557 17.826 114.748 18.289 115.993 19.905 115.993 19.931 114.047 19.679 114.047 20.579 116.006 20.328 116.006 20.355 114.748 21.969 115.503 22.446 116.364 20.579 116.39 20.579 117.185 22.433 118.019 21.956 116.748 20.368 116.748 20.341 118.746 20.579 118.746 19.679 116.748 19.944 116.748 19.917"/><path class="cls-2" d="M118.15387,156.3317h-8.30774a2.00641,2.00641,0,0,0,0,4h8.30774a2.00641,2.00641,0,0,0,0-4Z"/><path class="cls-2" d="M58.15387,156.3317H49.84613a2.00641,2.00641,0,0,0,0,4h8.30774a2.00641,2.00641,0,0,0,0-4Z"/><path class="cls-2" d="M104,156.3317H64a2,2,0,0,0,0,4H79.94v2H72a2,2,0,0,0,0,4H97a2,2,0,0,0,0-4H88.06v-2H104a2,2,0,0,0,0-4Z"/><path class="cls-1" d="M24.58539,47.60165a9.44034,9.44034,0,0,0,1.41565.48785V50.3317a2,2,0,0,0,4,0V48.255a8.18962,8.18962,0,0,0,1.59125-.47949c3.019-1.26361,4.54443-4.22748,3.62653-7.0473-1.05719-3.2442-4.05078-4.08112-6.4566-4.75342-1.6084-.44971-3.12738-.87408-3.73779-1.86328a2.05888,2.05888,0,0,1-.05133-2.187c.76135-1.14551,2.71344-1.37109,4.20563-1.0957a3.9769,3.9769,0,0,1,2.89893,2.47559,1.99987,1.99987,0,1,0,3.84479-1.10254A7.88287,7.88287,0,0,0,30.001,26.92056V24.3317a2,2,0,0,0-4,0v2.61719a6.69431,6.69431,0,0,0-4.357,2.7583,6.03048,6.03048,0,0,0-.02142,6.50781c1.42871,2.31689,3.99847,3.03516,6.06287,3.6123,2.31995.64795,3.37366,1.04639,3.72955,2.13971.35059,1.0766-.74121,1.85687-1.36621,2.11859a4.938,4.938,0,0,1-3.83539-.1377,4.21159,4.21159,0,0,1-2.32574-2.3501,2.00012,2.00012,0,0,0-3.77539,1.32227A8.21543,8.21543,0,0,0,24.58539,47.60165Z"/><path class="cls-1" d="M136.58539,47.60165a9.44034,9.44034,0,0,0,1.41565.48785V50.3317a2,2,0,0,0,4,0V48.255a8.18962,8.18962,0,0,0,1.59125-.47949c3.019-1.26361,4.54443-4.22748,3.62653-7.0473-1.05719-3.2442-4.05078-4.08112-6.4566-4.75342-1.6084-.44971-3.12738-.87408-3.73779-1.86328a2.05888,2.05888,0,0,1-.05133-2.187c.76135-1.14551,2.7144-1.37109,4.20563-1.0957a3.9769,3.9769,0,0,1,2.89893,2.47559,1.99987,1.99987,0,1,0,3.84479-1.10254,7.883,7.883,0,0,0-5.92139-5.28125V24.3317a2,2,0,1,0-4,0v2.61719a6.69431,6.69431,0,0,0-4.357,2.7583,6.03048,6.03048,0,0,0-.02142,6.50781c1.42871,2.31689,3.99847,3.03516,6.06287,3.6123,2.31995.64795,3.3736,1.04639,3.72955,2.13971.35059,1.0766-.74121,1.85687-1.36621,2.11859a4.93806,4.93806,0,0,1-3.83539-.1377,4.2114,4.2114,0,0,1-2.32574-2.3501,2.00012,2.00012,0,0,0-3.77539,1.32227A8.21543,8.21543,0,0,0,136.58539,47.60165Z"/><path class="cls-1" d="M84,44.3317c-17.645,0-32,13.97748-32,31.15869a30.44244,30.44244,0,0,0,5.269,17.12646c.99957,1.47412,6.51855,9.64355,10.34137,15.30273l2.62451,3.88519a6.189,6.189,0,0,0,4.7959,2.52692h5.63379l.00342.00049.00439-.00049h6.65521l.00439.00049.00336-.00049h5.42053A6.18133,6.18133,0,0,0,97.55133,111.8c6.63861-9.85937,11.14838-16.45367,12.0639-17.64117A30.35158,30.35158,0,0,0,116,75.49039C116,58.30917,101.645,44.3317,84,44.3317ZM106.44684,91.717c-1.38971,1.80219-9.00446,13.08246-12.2124,17.847a2.31365,2.31365,0,0,1-1.47852.76764H90.501l5.30469-11.14014a2,2,0,1,0-3.61139-1.71979L86.0708,110.3317H81.9292L75.80573,97.47177a2,2,0,0,0-3.61139,1.71979L77.499,110.3317h-2.4682a2.32419,2.32419,0,0,1-1.48248-.76764l-2.62354-3.8833c-3.82422-5.66156-9.34521-13.83447-10.34418-15.30756A26.45667,26.45667,0,0,1,56,75.49039C56,60.5148,68.56049,48.3317,84,48.3317s28,12.18311,28,27.15869A26.38342,26.38342,0,0,1,106.44684,91.717Z"/><path class="cls-1" d="M94,118.3317H74a2,2,0,0,0,0,4H94a2,2,0,0,0,0-4Z"/><path class="cls-1" d="M93,128.3317a2.0001,2.0001,0,0,0-2-2H77a2,2,0,0,0,0,4H91A2.0001,2.0001,0,0,0,93,128.3317Z"/><path class="cls-1" d="M86.41309,61.28775c-.13477-.02448-.27588-.04395-.415-.064,0-.01221.00348-.023.00348-.03473V57.3317a2,2,0,1,0-4,0v3.85736c0,.01764.00476.03424.00531.05182a8.51974,8.51974,0,0,0-5.91705,3.4472,7.18041,7.18041,0,0,0-.01654,7.87549c1.77246,2.81738,4.91949,3.67969,7.69629,4.441,2.97119.81439,4.82275,1.40515,5.42188,3.20886.52441,1.58014-.76849,2.92828-2.19092,3.51221a7.426,7.426,0,0,1-5.7207-.20892,6.1862,6.1862,0,0,1-3.39648-3.41406,1.99989,1.99989,0,1,0-3.7666,1.3457,10.05206,10.05206,0,0,0,5.53473,5.72168,12.07616,12.07616,0,0,0,2.3501.76953V91.3317a2,2,0,0,0,4,0V88.08951a10.42042,10.42042,0,0,0,2.51709-.66315c3.71381-1.52435,5.5932-5.08789,4.46869-8.47357-1.3042-3.92682-5.106-4.96881-8.16058-5.80621-2.2749-.62347-4.42389-1.2124-5.37024-2.7168a3.18987,3.18987,0,0,1-.05756-3.49463c1.188-1.75385,4.022-2.12207,6.30127-1.71136a5.89548,5.89548,0,0,1,4.38043,3.68109,1.99971,1.99971,0,1,0,3.83881-1.122A9.782,9.782,0,0,0,86.41309,61.28775Z"/><path class="cls-1" d="M113.70123,48.029l.38226.2959a2.0003,2.0003,0,0,0,2.46191-3.15338l-.40869-.31537a1.99991,1.99991,0,1,0-2.43549,3.17285Z"/><path class="cls-2" d="M33.91113,104.57541a1.99987,1.99987,0,0,0,3.78027-1.3067q-.15747-.45712-.30658-.91846a2.0002,2.0002,0,0,0-3.80774,1.2265Q33.73914,104.07928,33.91113,104.57541Z"/><path class="cls-1" d="M37.77344,113.18277a2,2,0,0,0,3.4903-1.9541q-.2373-.42343-.46582-.85059a1.99994,1.99994,0,0,0-3.52643,1.8877Q37.51831,112.7272,37.77344,113.18277Z"/><path class="cls-1" d="M34.001,79.01578a2.00092,2.00092,0,0,0,1.959-1.60791q.09586-.47754.2002-.95221a1.99978,1.99978,0,0,0-3.90527-.86328q-.11362.5127-.21686,1.03027a2.003,2.003,0,0,0,1.963,2.39313Z"/><path class="cls-2" d="M31.04388,84.95377q-.02115.52295-.03217,1.04834a1.99975,1.99975,0,0,0,1.95612,2.043l.04437.00049a2.00008,2.00008,0,0,0,1.99854-1.9566q.01035-.48706.03027-.97211a2.00023,2.00023,0,0,0-3.99713-.16309Z"/><path class="cls-2" d="M35.10449,66.592q-.20215.484-.39545.97308a2.00019,2.00019,0,1,0,3.72064,1.46967q.17871-.45328.36621-.90179a2.00006,2.00006,0,1,0-3.69141-1.541Z"/><path class="cls-1" d="M134.00781,79.06119a2.00247,2.00247,0,0,0,1.96393-2.38922q-.10263-.51627-.21545-1.02881a2,2,0,0,0-3.90619.86145q.104.47076.19781.94476A2.00066,2.00066,0,0,0,134.00781,79.06119Z"/><path class="cls-1" d="M136.35638,95.46207q.08212-.51929.153-1.042a2.00014,2.00014,0,0,0-3.96393-.53809q-.06509.48047-.14008.958a1.99986,1.99986,0,1,0,3.951.62207Z"/><path class="cls-2" d="M136.958,85.00308a2.00008,2.00008,0,0,0-3.99707.15723q.019.4834.0293.96967a2,2,0,0,0,1.9986,1.95953l.0415-.00055a1.99962,1.99962,0,0,0,1.959-2.04Q136.979,85.52457,136.958,85.00308Z"/><path class="cls-1" d="M31.63623,95.41568a2.00035,2.00035,0,0,0,1.97369,1.69287,2.02174,2.02174,0,0,0,.31-.02448,1.99993,1.99993,0,0,0,1.66852-2.28357q-.07471-.47992-.13971-.962a2.00015,2.00015,0,1,0-3.96381.53912Q31.55588,94.89761,31.63623,95.41568Z"/><path class="cls-1" d="M39.59131,61.88a1.999,1.999,0,0,0,2.75391-.64551q.25708-.41519.52148-.82471a1.99987,1.99987,0,1,0-3.36127-2.16791q-.28354.44019-.55963.88422A2.00041,2.00041,0,0,0,39.59131,61.88Z"/><path class="cls-2" d="M129.2251,68.18417q.186.44614.36279.89648a2.00015,2.00015,0,1,0,3.72363-1.46185q-.19263-.49008-.395-.9751a2,2,0,0,0-3.69141,1.54047Z"/><path class="cls-2" d="M42.43854,120.154q.3252.41235.65918.81781a1.99975,1.99975,0,1,0,3.08777-2.542q-.30743-.37427-.60736-.75427a2,2,0,1,0-3.13959,2.47845Z"/><path class="cls-2" d="M120.45648,54.28677a2.0001,2.0001,0,0,0,2.98053-2.668q-.3501-.39038-.70752-.7749a2,2,0,1,0-2.92767,2.72559Q120.13214,53.92471,120.45648,54.28677Z"/><path class="cls-1" d="M115.65228,124.695a2,2,0,0,0,2.587,3.05078q.40128-.34058.7959-.69a2,2,0,1,0-2.6524-2.99408Q116.021,124.38174,115.65228,124.695Z"/><path class="cls-2" d="M109.36182,129.2399q-.41382.252-.832.49506a2.00006,2.00006,0,1,0,2.01074,3.458q.45346-.26367.90137-.53607a2.00016,2.00016,0,1,0-2.08008-3.417Z"/><path class="cls-2" d="M122.38721,117.71988q-.30386.38232-.61377.75928a2.00033,2.00033,0,0,0,3.09088,2.54q.3316-.4043.65668-.814a1.99983,1.99983,0,1,0-3.13379-2.48529Z"/><path class="cls-2" d="M132.18311,105.96738a2.00123,2.00123,0,0,0,1.88971-1.34473q.17285-.498.33539-1a2.0001,2.0001,0,0,0-3.80469-1.23529q-.15015.46353-.31.92383a2.0007,2.0007,0,0,0,1.88959,2.65619Z"/><path class="cls-1" d="M125.68164,61.27847a1.99985,1.99985,0,0,0,3.4043-2.09961q-.276-.4476-.561-.88916a2,2,0,0,0-3.36029,2.16986Q125.42737,60.86606,125.68164,61.27847Z"/><path class="cls-1" d="M129.88623,109.60416a1.99934,1.99934,0,0,0-2.70752.81781q-.23.42929-.46869.85352a2.00008,2.00008,0,1,0,3.48816,1.95807q.25717-.45776.50592-.92187A1.99957,1.99957,0,0,0,129.88623,109.60416Z"/><path class="cls-2" d="M75.769,135.64127q-.47974-.0813-.956-.17236a2.00022,2.00022,0,1,0-.749,3.92969q.51553.09805,1.0332.186a2.00006,2.00006,0,1,0,.67181-3.9433Z"/><path class="cls-2" d="M46.09131,54.90878a1.9949,1.9949,0,0,0,1.48932-.66449q.32446-.36108.65521-.71533A2.00024,2.00024,0,1,0,45.313,50.79745q-.359.38461-.71.77594a1.99994,1.99994,0,0,0,1.48828,3.33539Z"/><path class="cls-1" d="M66.418,133.07138a1.99995,1.99995,0,0,0-1.44049,3.73151q.49155.1897.98779.37012a2.00011,2.00011,0,0,0,1.36328-3.76074Q66.87085,133.24673,66.418,133.07138Z"/><path class="cls-1" d="M48.918,127.01376q.39175.34726.79047.6875a2.00015,2.00015,0,0,0,2.59674-3.04291q-.3707-.31567-.73492-.63867a1.99994,1.99994,0,0,0-2.65228,2.99408Z"/><path class="cls-1" d="M84.46783,136.32925,84,136.3317l-.5083-.00244a2.02193,2.02193,0,0,0-2.0166,1.9834,2.00021,2.00021,0,0,0,1.9834,2.0166L84,140.3317l.50391-.00244a2,2,0,0,0-.01758-4Z"/><path class="cls-1" d="M101.53864,133.088q-.45126.17441-.90735.33893a2,2,0,1,0,1.36041,3.76166q.49594-.17935.98633-.3681a2.0002,2.0002,0,0,0-1.43939-3.73248Z"/><path class="cls-2" d="M58.58942,129.21005a2.00015,2.00015,0,0,0-2.08313,3.4151q.44916.27393.90344.539a2.00015,2.00015,0,0,0,2.01459-3.456Q59.00391,129.46353,58.58942,129.21005Z"/><path class="cls-2" d="M92.52692,139.61929a2.01791,2.01791,0,0,0,.33539-.02832q.51782-.08789,1.0332-.18512a2.00013,2.00013,0,1,0-.74323-3.9306q-.47662.09009-.956.17133a2.00034,2.00034,0,0,0,.33063,3.97272Z"/><path class="cls-1" d="M52.83014,48.63638a1.9899,1.9899,0,0,0,1.2265-.42139l.37988-.292a1.99994,1.99994,0,0,0-2.42279-3.18262l-.41315.31738a2,2,0,0,0,1.22955,3.57861Z"/><path class="cls-2" d="M84,36.33121a2.0001,2.0001,0,0,0,2-2V24.3317a2,2,0,0,0-4,0v9.99951A2.0001,2.0001,0,0,0,84,36.33121Z"/><path class="cls-1" d="M64.58594,37.74576a1.99983,1.99983,0,0,0,2.82819-2.82819l-8-7.99994a1.99981,1.99981,0,1,0-2.82819,2.82813Z"/><path class="cls-1" d="M102,38.3317a1.99293,1.99293,0,0,0,1.41412-.58594l8-8a1.99981,1.99981,0,1,0-2.82819-2.82812l-8,7.99994A2,2,0,0,0,102,38.3317Z"/><circle class="cls-1" cx="2" cy="150.3317" r="2"/><path class="cls-1" d="M11,148.3317H8a2,2,0,0,0,0,4h3a2,2,0,0,0,0-4Z"/><path class="cls-1" d="M160,148.3317h-3a2,2,0,0,0,0,4h3a2,2,0,0,0,0-4Z"/><circle class="cls-1" cx="166" cy="150.3317" r="2"/><path class="cls-1" d="M150.72131,148.3317H142.001V146.255a8.18963,8.18963,0,0,0,1.59125-.47949c3.019-1.26361,4.54443-4.22748,3.62653-7.0473-1.05719-3.2442-4.05078-4.08112-6.4566-4.75342-1.6084-.44971-3.12738-.87408-3.73779-1.86328a2.05888,2.05888,0,0,1-.05133-2.187c.76135-1.14551,2.7144-1.37109,4.20563-1.0957a3.977,3.977,0,0,1,2.89893,2.47559,1.99988,1.99988,0,1,0,3.84479-1.1026,7.88289,7.88289,0,0,0-5.92139-5.28119V122.3317a2,2,0,0,0-4,0v2.6167a6.69477,6.69477,0,0,0-4.357,2.75879,6.03048,6.03048,0,0,0-.02142,6.50781c1.42871,2.31689,3.99847,3.03516,6.06287,3.6123,2.31995.64795,3.3736,1.04639,3.72955,2.13971.35059,1.0766-.74121,1.85687-1.36621,2.11859a4.93806,4.93806,0,0,1-3.83539-.1377,4.2114,4.2114,0,0,1-2.32574-2.3501,2.00012,2.00012,0,0,0-3.77539,1.32227,8.21544,8.21544,0,0,0,4.47308,4.68158,9.44035,9.44035,0,0,0,1.41565.48785v2.24219h-108V146.255a8.18962,8.18962,0,0,0,1.59125-.47949c3.019-1.26361,4.54443-4.22748,3.62653-7.0473-1.05719-3.2442-4.05078-4.08112-6.4566-4.75342-1.6084-.44971-3.12738-.87408-3.73779-1.86328a2.05888,2.05888,0,0,1-.05133-2.187c.76135-1.14551,2.71344-1.37109,4.20563-1.0957a3.977,3.977,0,0,1,2.89893,2.47559,1.99988,1.99988,0,1,0,3.84479-1.1026,7.8828,7.8828,0,0,0-5.92139-5.28119V122.3317a2,2,0,0,0-4,0v2.6167a6.69291,6.69291,0,0,0-4.357,2.75879,6.03048,6.03048,0,0,0-.02142,6.50781c1.42871,2.31689,3.99847,3.03516,6.06287,3.6123,2.31995.64795,3.37366,1.04639,3.72955,2.13971.35059,1.0766-.74121,1.85687-1.36621,2.11859a4.938,4.938,0,0,1-3.83539-.1377,4.21159,4.21159,0,0,1-2.32574-2.3501,2.00012,2.00012,0,0,0-3.77539,1.32227,8.21544,8.21544,0,0,0,4.47308,4.68158,9.44035,9.44035,0,0,0,1.41565.48785v2.24219H17.27869a2.017,2.017,0,1,0,0,4H150.72131a2.017,2.017,0,1,0,0-4Z"/></svg>