<?xml version="1.0" ?><svg id="Icons" viewBox="0 0 60 60" xmlns="http://www.w3.org/2000/svg"><path d="M57.549,48.753a6.049,6.049,0,0,1-1.995-1.473,6.268,6.268,0,0,0-9.671,0,4.316,4.316,0,0,1-6.9,0,6.271,6.271,0,0,0-9.675,0,4.317,4.317,0,0,1-6.9,0,6.272,6.272,0,0,0-9.676,0A4.484,4.484,0,0,1,9.29,49a3.844,3.844,0,0,1-2.7-1.027,4,4,0,0,0-4.314-.607A3.892,3.892,0,0,0,0,50.938V57a3,3,0,0,0,3,3H57a3,3,0,0,0,3-3V52.412A3.913,3.913,0,0,0,57.549,48.753ZM58,57a1,1,0,0,1-1,1H3a1,1,0,0,1-1-1V50.938a1.886,1.886,0,0,1,1.112-1.756A2.021,2.021,0,0,1,5.29,49.5a5.818,5.818,0,0,0,4,1.5,6.38,6.38,0,0,0,4.84-2.28,4.318,4.318,0,0,1,6.9,0,6.271,6.271,0,0,0,9.674,0,4.318,4.318,0,0,1,6.9,0,6.267,6.267,0,0,0,9.671,0,4.315,4.315,0,0,1,6.893,0,7.912,7.912,0,0,0,2.668,1.9A1.9,1.9,0,0,1,58,52.412Z"/><path d="M57,0H3A3,3,0,0,0,0,3V9.062a3.892,3.892,0,0,0,2.273,3.572,4,4,0,0,0,4.314-.607A3.844,3.844,0,0,1,9.29,11a4.484,4.484,0,0,1,3.451,1.72,6.272,6.272,0,0,0,9.676,0,4.317,4.317,0,0,1,6.9,0,6.271,6.271,0,0,0,9.675,0,4.316,4.316,0,0,1,6.9,0,6.268,6.268,0,0,0,9.671,0,6.049,6.049,0,0,1,1.995-1.473A3.913,3.913,0,0,0,60,7.588V3A3,3,0,0,0,57,0Zm1,7.588A1.9,1.9,0,0,1,56.832,9.38a7.912,7.912,0,0,0-2.668,1.9,4.315,4.315,0,0,1-6.893,0,6.267,6.267,0,0,0-9.671,0,4.318,4.318,0,0,1-6.9,0,6.271,6.271,0,0,0-9.674,0,4.318,4.318,0,0,1-6.9,0A6.38,6.38,0,0,0,9.29,9a5.818,5.818,0,0,0-4,1.5,2.02,2.02,0,0,1-2.178.314A1.886,1.886,0,0,1,2,9.062V3A1,1,0,0,1,3,2H57a1,1,0,0,1,1,1Z"/><path d="M47.419,17.546a2.039,2.039,0,0,0-2.2-.37A2,2,0,0,0,44,19.03V22H3a3,3,0,0,0-3,3V35a3,3,0,0,0,3,3H44v2.97a2,2,0,0,0,1.215,1.854,2.039,2.039,0,0,0,2.2-.368L59.344,31.488a2.016,2.016,0,0,0,0-2.974ZM58,30.01l0,0L46,40.97V37a1,1,0,0,0-1-1H3a1,1,0,0,1-1-1V25a1,1,0,0,1,1-1H45a1,1,0,0,0,1-1l.063-3.983L58,30.009Z"/><path d="M7,26a3,3,0,0,0-3,3v2a3,3,0,0,0,6,0V29A3,3,0,0,0,7,26Zm1,5a1,1,0,0,1-2,0V29a1,1,0,0,1,2,0Z"/><path d="M25,26a3,3,0,0,0-3,3v2a3,3,0,0,0,6,0V29A3,3,0,0,0,25,26Zm1,5a1,1,0,0,1-2,0V29a1,1,0,0,1,2,0Z"/><path d="M14.383,26.076a1,1,0,0,0-1.09.217l-1,1A1,1,0,0,0,13,29v4a1,1,0,0,0,2,0V27A1,1,0,0,0,14.383,26.076Z"/><path d="M19.383,26.076a1,1,0,0,0-1.09.217l-1,1A1,1,0,0,0,18,29v4a1,1,0,0,0,2,0V27A1,1,0,0,0,19.383,26.076Z"/><path d="M38,26a3,3,0,0,0-3,3v2a3,3,0,0,0,6,0V29A3,3,0,0,0,38,26Zm1,5a1,1,0,0,1-2,0V29a1,1,0,0,1,2,0Z"/><path d="M32.383,26.076a1,1,0,0,0-1.09.217l-1,1A1,1,0,0,0,31,29v4a1,1,0,0,0,2,0V27A1,1,0,0,0,32.383,26.076Z"/><path d="M45.383,26.076a1,1,0,0,0-1.09.217l-1,1A1,1,0,0,0,44,29v4a1,1,0,0,0,2,0V27A1,1,0,0,0,45.383,26.076Z"/><path d="M42.436,53a8.039,8.039,0,0,1-5.755-2.4,1,1,0,0,0-1.362,1.467A10.05,10.05,0,0,0,42.436,55a10.379,10.379,0,0,0,7.615-3.4L48.66,50.159A8.36,8.36,0,0,1,42.436,53Z"/><path d="M31.339,50.862A7.919,7.919,0,0,1,25.864,53a7.77,7.77,0,0,1-5.223-1.924,1,1,0,1,0-1.282,1.535,10.063,10.063,0,0,0,13.3-.249,1,1,0,0,0-1.322-1.5Z"/><path d="M14.372,51.194A7.707,7.707,0,0,1,9.29,53a7.72,7.72,0,0,1-3.809-.947,1,1,0,1,0-.962,1.754A9.676,9.676,0,0,0,9.29,55a9.732,9.732,0,0,0,6.338-2.249,1,1,0,0,0-1.256-1.557Z"/><path d="M42.436,5a10.05,10.05,0,0,0-7.117,2.928A1,1,0,0,0,36.681,9.4,8.039,8.039,0,0,1,42.436,7a8.363,8.363,0,0,1,6.226,2.843A1,1,0,0,0,50.049,8.4,10.376,10.376,0,0,0,42.436,5Z"/><path d="M25.864,5a9.782,9.782,0,0,0-6.5,2.389,1,1,0,1,0,1.282,1.535A7.77,7.77,0,0,1,25.864,7a7.919,7.919,0,0,1,5.475,2.138,1,1,0,0,0,1.322-1.5A9.811,9.811,0,0,0,25.864,5Z"/><path d="M9.29,5A9.676,9.676,0,0,0,4.519,6.193a1,1,0,1,0,.962,1.754A7.72,7.72,0,0,1,9.29,7a7.707,7.707,0,0,1,5.082,1.806,1,1,0,0,0,1.256-1.557A9.732,9.732,0,0,0,9.29,5Z"/></svg>