<?xml version="1.0" ?><svg fill="none" height="24" viewBox="0 0 24 24" width="24" xmlns="http://www.w3.org/2000/svg"><path d="M2 10.5H19C19.2761 10.5 19.5 10.7239 19.5 11V18C19.5 18.2761 19.2761 18.5 19 18.5H2C1.72386 18.5 1.5 18.2761 1.5 18V11C1.5 10.7239 1.72386 10.5 2 10.5Z" stroke="#606060"/><path clip-rule="evenodd" d="M15.3851 12.0134C15.6108 11.9601 15.8435 12.069 15.9472 12.2764L17 14.382V12.5C17 12.2239 17.2239 12 17.5 12C17.7761 12 18 12.2239 18 12.5V16.5C18 16.7319 17.8406 16.9334 17.6149 16.9866C17.3892 17.0399 17.1565 16.931 17.0528 16.7236L16 14.618V16.5C16 16.7761 15.7761 17 15.5 17C15.2239 17 15 16.7761 15 16.5V12.5C15 12.2681 15.1594 12.0667 15.3851 12.0134Z" fill="#606060" fill-rule="evenodd"/><path clip-rule="evenodd" d="M11 13.5C11 12.6716 11.6716 12 12.5 12C13.3284 12 14 12.6716 14 13.5V15.5C14 16.3284 13.3284 17 12.5 17C11.6716 17 11 16.3284 11 15.5V13.5ZM12.5 13C12.2239 13 12 13.2239 12 13.5V15.5C12 15.7761 12.2239 16 12.5 16C12.7761 16 13 15.7761 13 15.5V13.5C13 13.2239 12.7761 13 12.5 13Z" fill="#606060" fill-rule="evenodd"/><path clip-rule="evenodd" d="M7 13.5C7 12.6716 7.67157 12 8.5 12H9.5C9.77614 12 10 12.2239 10 12.5C10 12.7761 9.77614 13 9.5 13H8.5C8.22386 13 8 13.2239 8 13.5C8 13.7761 8.22386 14 8.5 14C9.32843 14 10 14.6716 10 15.5C10 16.3284 9.32843 17 8.5 17H7.5C7.22386 17 7 16.7761 7 16.5C7 16.2239 7.22386 16 7.5 16H8.5C8.77614 16 9 15.7761 9 15.5C9 15.2239 8.77614 15 8.5 15C7.67157 15 7 14.3284 7 13.5Z" fill="#606060" fill-rule="evenodd"/><path clip-rule="evenodd" d="M5.5 12C5.77614 12 6 12.2239 6 12.5V15.5C6 16.3284 5.32843 17 4.5 17C4.48848 17 4.47662 17 4.46447 17C4.24288 17.0003 3.92104 17.0007 3.65439 16.9118C3.49947 16.8602 3.32462 16.7675 3.19126 16.596C3.05454 16.4203 3 16.2115 3 16V15.5C3 15.2239 3.22386 15 3.5 15C3.77614 15 4 15.2239 4 15.5V15.9714C4.03689 15.9802 4.09046 15.9883 4.16607 15.9933C4.26363 15.9998 4.37144 16 4.5 16C4.77614 16 5 15.7761 5 15.5V12.5C5 12.2239 5.22386 12 5.5 12Z" fill="#606060" fill-rule="evenodd"/><path d="M17.5 1.5V5.5C17.5 6.05228 17.9477 6.5 18.5 6.5H22.5" stroke="black"/><path clip-rule="evenodd" d="M21 22H8C7.44772 22 7 21.5523 7 21V20H6V21C6 22.1046 6.89543 23 8 23H21C22.1046 23 23 22.1046 23 21V6.82843C23 6.29799 22.7893 5.78929 22.4142 5.41421L18.5858 1.58579C18.2107 1.21071 17.702 1 17.1716 1H8C6.89543 1 6 1.89543 6 3V9H7V3C7 2.44772 7.44771 2 8 2H17.1716C17.4368 2 17.6911 2.10536 17.8787 2.29289L21.7071 6.12132C21.8946 6.30886 22 6.56321 22 6.82843V21C22 21.5523 21.5523 22 21 22Z" fill="black" fill-rule="evenodd"/></svg>