<svg fill="none" height="2500" viewBox="144.031 128.653 312.142 342.693" width="2500" xmlns="http://www.w3.org/2000/svg"><path d="m231.287 450.612c6.314 6.121 1.852 16.609-7.114 16.609h-56.113c-11.071 0-20.08-8.733-20.08-19.465v-54.398c0-8.692 10.819-13.017 17.133-6.896z" fill="#0a1551"/><path d="m319.003 454.845c-16.61-16.502-16.609-43.256 0-59.757l59.944-59.553c16.61-16.502 43.539-16.502 60.149 0 16.609 16.501 16.609 43.255 0 59.757l-59.944 59.553c-16.61 16.501-43.539 16.501-60.149 0z" fill="#ffb629"/><path d="m160.64 305.204c-16.609-16.501-16.609-43.255 0-59.757l100.88-100.292c16.609-16.502 43.539-16.502 60.149 0 16.609 16.501 16.609 43.255 0 59.757l-100.88 100.292c-16.61 16.501-43.539 16.501-60.149 0z" fill="#09f"/><path d="m243.108 376.686c-16.61-16.501-16.61-43.256 0-59.757l136.306-135.418c16.61-16.502 43.539-16.502 60.149 0 16.61 16.501 16.61 43.255 0 59.757l-136.307 135.418c-16.609 16.501-43.539 16.501-60.148 0z" fill="#ff6100"/></svg>