<svg xmlns="http://www.w3.org/2000/svg" viewBox="0 0 128 128">
  <path fill="#A41E11" d="M121.8 93.1c-6.7 3.5-41.4 17.7-48.8 21.6-7.4 3.9-11.5 3.8-17.4 1-5.8-2.8-43.5-18-50.2-21.2-3.4-1.6-5.1-2.9-5.1-4.2V75.8c0 0 48-10.5 55.8-13.2 7.8-2.8 10.4-2.9 17-.5 6.6 2.4 49.6 10.3 56.3 12.4v14.8c.1 1.2-1.3 2.5-7.6 5.8z"/>
  <path fill="#D82C20" d="M121.8 78.2c-6.7 3.5-41.4 17.7-48.8 21.6-7.4 3.9-11.5 3.8-17.4 1-5.9-2.9-43.5-18-50.2-21.3-6.7-3.2-6.9-5.4-.1-7.9 6.8-2.5 45.2-17.6 53-20.4 7.8-2.8 10.4-2.9 17-.5 6.6 2.4 41.3 16.3 48 19 6.8 2.7 5.2 5 1.5 8.5z"/>
  <path fill="#A41E11" d="M121.8 71c-6.7 3.5-41.4 17.7-48.8 21.6-7.4 3.9-11.5 3.8-17.4 1-5.8-2.8-43.5-18-50.2-21.2-3.4-1.6-5.1-2.9-5.1-4.2V53.7c0 0 48-10.5 55.8-13.2 7.8-2.8 10.4-2.9 17-.5 6.6 2.4 49.6 10.3 56.3 12.4v14.8c.1 1.2-1.3 2.5-7.6 5.8z"/>
  <path fill="#D82C20" d="M121.8 56.1c-6.7 3.5-41.4 17.7-48.8 21.6-7.4 3.9-11.5 3.8-17.4 1-5.9-2.9-43.5-18-50.2-21.3-6.7-3.2-6.9-5.4-.1-7.9 6.8-2.5 45.2-17.6 53-20.4 7.8-2.8 10.4-2.9 17-.5 6.6 2.4 41.3 16.3 48 19 6.8 2.7 5.2 5 1.5 8.5z"/>
  <path fill="#A41E11" d="M121.8 48.9c-6.7 3.5-41.4 17.7-48.8 21.6-7.4 3.9-11.5 3.8-17.4 1-5.8-2.8-43.5-18-50.2-21.2-3.4-1.6-5.1-2.9-5.1-4.2V31.6c0 0 48-10.5 55.8-13.2 7.8-2.8 10.4-2.9 17-.5 6.6 2.4 49.6 10.3 56.3 12.4v14.8c.1 1.2-1.3 2.5-7.6 5.8z"/>
  <path fill="#D82C20" d="M121.8 34c-6.7 3.5-41.4 17.7-48.8 21.6-7.4 3.9-11.5 3.8-17.4 1C49.7 53.7 12.1 38.6 5.4 35.3c-6.7-3.2-6.9-5.4-.1-7.9 6.8-2.5 45.2-17.6 53-20.4 7.8-2.8 10.4-2.9 17-.5 6.6 2.4 41.3 16.3 48 19 6.8 2.7 5.2 5 1.5 8.5z"/>
  <path fill="#FFF" d="M80.4 26.1l-10.8 1.8-2.5 5.8-4.4-6.2-12.4-1.3 9-4.1-2.6-5.5 9.3 3.2 8.6-3.6-2.5 5.8z"/>
  <ellipse fill="#FFF" cx="51.5" cy="37.5" rx="13.5" ry="5.3"/>
  <path fill="#7A0C00" d="M80.9 44.3l17-6.5-17-6.7z"/>
  <path fill="#AD2115" d="M63.9 37.6l17 6.7v-13.2z"/>
</svg>
