<?xml version="1.0" encoding="UTF-8" standalone="no"?>
<svg
   xmlns:dc="http://purl.org/dc/elements/1.1/"
   xmlns:cc="http://creativecommons.org/ns#"
   xmlns:rdf="http://www.w3.org/1999/02/22-rdf-syntax-ns#"
   xmlns:svg="http://www.w3.org/2000/svg"
   xmlns="http://www.w3.org/2000/svg"
   id="svg3003"
   version="1.1"
   width="384"
   height="146.13333"
   viewBox="0 0 360 137">
  <metadata
     id="metadata3009">
    <rdf:RDF>
      <cc:Work
         rdf:about="">
        <dc:format>image/svg+xml</dc:format>
        <dc:type
           rdf:resource="http://purl.org/dc/dcmitype/StillImage" />
        <dc:title></dc:title>
      </cc:Work>
    </rdf:RDF>
  </metadata>
  <defs
     id="defs3007" />
  <ellipse
     style="fill:#8dc73f;fill-opacity:1;stroke-width:1.92719;stroke-linecap:round;stroke-linejoin:round;stop-color:#000000"
     id="path7-2-1"
     cx="101.60329"
     cy="-32.291115"
     rx="10.172156"
     ry="14.24639"
     transform="matrix(0.47846482,0.87810672,-0.82103816,0.57087332,0,0)" />
  <ellipse
     style="fill:#8dc73f;fill-opacity:1;stroke-width:2.04773;stroke-linecap:round;stroke-linejoin:round;stop-color:#000000"
     id="ellipse9"
     cx="28.509567"
     cy="30.253042"
     rx="10.57047"
     ry="15.478189"
     transform="rotate(9.0332053)" />
  <ellipse
     style="fill:#8dc73f;fill-opacity:1;stroke-width:2.19341;stroke-linecap:round;stroke-linejoin:round;stop-color:#000000"
     id="path7"
     cx="57.091743"
     cy="1.239808"
     rx="11.284472"
     ry="16.635147"
     transform="matrix(0.92084971,0.38991769,-0.3836079,0.92349606,0,0)" />
  <ellipse
     style="fill:#8dc73f;fill-opacity:1;stroke-width:2.19341;stroke-linecap:round;stroke-linejoin:round;stop-color:#000000"
     id="path7-2"
     cx="78.981628"
     cy="-28.37377"
     rx="11.284472"
     ry="16.635147"
     transform="matrix(0.68707299,0.7265884,-0.72187029,0.69202839,0,0)" />
  <path
     style="fill:#8dc73f;fill-opacity:1;stroke:none;stroke-width:0.9375px;stroke-linecap:butt;stroke-linejoin:miter;stroke-opacity:1"
     d="M 7.5503357,70.973155 C 9.9399148,59.821365 30.902205,50.54497 40.394296,51.342283 65.5135,55.245379 66.999548,104.81916 42.28188,97.399332 36.562918,95.682597 34.966348,86.436459 30.643631,83.781897 21.998528,79.37899 6.2914027,83.818622 7.5503357,70.973155 Z"
     id="path41" />
  <path
     style="opacity:1;fill:#000000;fill-opacity:1;stroke:none;stroke-width:0.9375px;stroke-linecap:butt;stroke-linejoin:miter;stroke-opacity:1"
     d="m 69.840605,68.330539 19.630874,-3.020135 8.682888,25.293625 10.192953,-24.916108 13.59061,1.887584 v -1.510067 h 6.41777 V 55.117451 l 20.0084,-2.45386 V 67.00923 l 13.96811,-0.188758 v 7.927852 l -13.96811,0.943792 c 0,0 0.14869,12.644669 0,21.895974 -0.032,1.989433 1.56443,3.79458 4.15269,4.71896 5.28523,1.88759 9.0604,-0.37752 9.0604,-0.37752 l 2.64261,8.30537 c -4.29508,2.21874 -14.74399,3.83504 -21.89597,2.83137 -4.73581,-0.6646 -13.45933,-2.45544 -13.59061,-11.51426 l -0.37752,-26.048652 -7.17281,-0.377518 -18.1208,37.75168 H 87.961412 Z"
     id="path43" />
  <ellipse
     style="fill:#000000;fill-opacity:1;stroke:none;stroke-width:1.875;stroke-linecap:round;stroke-linejoin:round;stop-color:#000000;opacity:1"
     id="path45"
     cx="177.43289"
     cy="53.041107"
     rx="10.192953"
     ry="10.004194" />
  <rect
     style="fill:#000000;fill-opacity:1;stroke:none;stroke-width:1.875;stroke-linecap:round;stroke-linejoin:round;stop-color:#000000;opacity:1"
     id="rect47"
     width="21.14094"
     height="46.057049"
     x="166.48489"
     y="66.442955" />
  <path
     d="m 249.97196,107.89743 c 0,8.85201 -3.57321,15.70066 -9.20958,20.54597 -5.63638,4.87637 -13.80058,7.31456 -24.49259,7.31456 -7.07107,0 -14.93838,-2.04881 -19.07172,-3.88133 l 3.39765,-11.0715 c 5.39725,2.85749 9.71319,4.09747 15.21292,4.09747 5.46556,0 8.56883,-1.13127 11.5749,-3.77134 3.00605,-2.60901 3.52906,-6.35972 3.75405,-10.85776 v -3.77374 h -0.20496 c -3.68925,5.34226 -7.25016,8.01339 -14.45789,8.01339 -6.69531,0 -13.51723,-2.14312 -17.44561,-6.42935 -3.92838,-4.28624 -5.89257,-10.032281 -5.89257,-17.238123 0,-8.075513 2.18623,-14.489334 6.55869,-19.241463 4.37246,-4.752129 11.63845,-7.128194 18.77785,-7.128194 6.38789,0 9.28268,2.236296 12.45953,6.708888 h 0.20496 v -5.54415 h 18.83437 z M 230.96504,90.426371 v -3.773749 c 0,-3.012787 -0.99064,-5.575209 -2.97192,-7.687267 -1.9471,-2.143117 -2.2269,-3.214676 -5.3696,-3.214676 -3.58678,0 -4.13986,1.273447 -6.18945,3.82034 -2.04959,2.546893 -3.07438,6.134284 -3.07438,10.762174 0,3.975637 0.97355,7.128193 2.92066,9.457669 1.9471,2.298408 2.34646,3.447618 5.72829,3.447618 3.34766,0 3.78119,-1.16474 5.83078,-3.494208 2.08375,-2.360535 3.12562,-5.466502 3.12562,-9.317901 z"
     style="font-style:normal;font-variant:normal;font-weight:bold;font-stretch:normal;font-size:88.813px;line-height:1.25;font-family:Ebrima;-inkscape-font-specification:'Ebrima Bold';letter-spacing:0px;word-spacing:0px;fill:#000000;stroke-width:3.7524;opacity:1"
     id="path53" />
  <path
     d="m 310.5959,93.36779 h -34.46195 c 0.58043,6.67144 7.18741,10.00716 13.40315,10.00716 6.13081,0 11.51795,-1.19667 16.16141,-3.590008 l 2.64262,8.343958 c -5.15134,2.27368 -14.48706,5.2981 -22.72194,5.2981 -8.99669,0 -15.98,-2.0493 -20.94995,-6.1479 -4.96995,-4.12852 -7.45493,-9.872545 -7.45493,-17.232074 0,-7.62878 2.6845,-13.67197 8.05349,-18.12957 5.36899,-4.457601 11.97141,-6.686402 19.80725,-6.686402 8.12603,0 14.40195,1.989466 18.82774,5.968398 4.46207,3.978933 6.69311,9.378912 6.69311,16.199939 z m -17.83132,-8.328267 c 0.75503,-8.091761 -5.49375,-9.87254 -8.55341,-9.87254 -4.91347,0.517411 -8.23657,4.69559 -8.18607,9.495023 z"
     style="font-style:normal;font-variant:normal;font-weight:bold;font-stretch:normal;font-size:88.813px;line-height:1.25;font-family:Ebrima;-inkscape-font-specification:'Ebrima Bold';letter-spacing:0px;word-spacing:0px;fill:#000000;stroke-width:3.79512;opacity:1"
     id="path55" />
  <path
     d="m 352.4902,82.253727 c -2.22077,-0.922187 -4.24538,-1.572039 -7.2064,-1.572039 -4.01296,0 -6.01675,1.130422 -8.27647,3.391267 -2.25973,2.231097 -3.38959,5.280263 -3.38959,9.147498 V 112.20921 H 315.15033 V 66.516341 h 18.46741 v 8.478167 h 0.23376 c 2.92206,-6.187575 8.18177,-9.281363 15.77912,-9.281363 1.94803,0 7.05391,2.632347 8.14482,2.989323 z"
     style="font-style:normal;font-variant:normal;font-weight:bold;font-stretch:normal;font-size:88.813px;line-height:1.25;font-family:Ebrima;-inkscape-font-specification:'Ebrima Bold';letter-spacing:0px;word-spacing:0px;fill:#000000;stroke-width:3.92189;opacity:1"
     id="path57" />
</svg>
