<svg xml:space="preserve" style="max-height: 500px" viewBox="550.288 285.576 78.24 84.76" y="0px" x="0px" xmlns:xlink="http://www.w3.org/1999/xlink" xmlns="http://www.w3.org/2000/svg" id="layer" version="1.1" width="78.24" height="84.76">
<style type="text/css">
	.st0{fill:#FE5800;}
	.st1{fill:#0C0F33;}
</style>
<path d="M595.6,305c-1.3,0-2.3-1.1-2.2-2.4c0-0.1,0-0.2,0-0.4l1.6-8.4c0-0.1,0-0.3,0-0.4c0-1.8-2.5-2-5.7-2&#10;&#9;c-3.2,0-5.7,0.2-5.7,2c0,0.1,0,0.3,0,0.4l1.6,8.4c0.2,1.3-0.6,2.5-1.9,2.7c-0.1,0-0.2,0-0.4,0c-15.4,0.5-26.3,5.6-26.3,14.8v3.5&#10;&#9;c0,0.9,0.8,1.7,1.7,1.7l0,0h28.1c0.9,0,1.7,0.7,1.7,1.5c0,0,0,0.1,0,0.1c0,0.8-0.6,1.5-1.3,1.6l-20.8,4c-0.8,0.1-1.4,0.8-1.3,1.6&#10;&#9;v7.1c0,13.7,10.7,25.2,24.7,25.2c13.7,0,24.8-11.1,24.8-24.8v-15c0-0.9,0.7-1.6,1.6-1.6c0,0,0,0,0,0h4.5c0.9,0,1.7-0.7,1.7-1.7&#10;&#9;c0,0,0,0,0,0v-3.5C622,310.6,611.1,305.9,595.6,305z" class="st0"/>
<path d="M93.3,276c-1.3-0.1-4.1-0.3-6-0.3h-1.9c-2.6,0-5.3,0-7.9,0.1c-2.2,0.1-2.3,0.8-2.3,2.2v43.2&#10;&#9;c0,0.8-0.6,1.4-1.4,1.4h-0.3c-0.5,0-0.9-0.2-1.2-0.6l-25.1-40.2c-3-5-4.1-6.1-12.4-6.1h-1.7c-2.3,0-6.4,0-8.7,0.1&#10;&#9;c-1.6,0.1-2.6,0.3-2.6,4c0,1.4,0,3.4,0.1,5.7c0,3,0.1,6.4,0.1,9.6v62.3c0,5.9,1.3,7.1,5,7.6c1.1,0.1,4.7,0.3,6.6,0.3h1.7&#10;&#9;c2.5,0,4.9-0.1,7.4-0.5l0,0c1.8-0.2,2.2-0.7,2.2-2.6c0-1.1,0-2.6-0.1-4.2c0-1.9-0.1-4-0.1-5.8v-32c0-0.8,0.6-1.4,1.4-1.4h0.3&#10;&#9;c0.5,0,0.9,0.2,1.1,0.6l25.1,38.5c3.7,5.8,6.6,7.5,12.5,7.5h1.5c3.8,0,6.8-0.3,8.3-0.8c2.4-0.8,2.9-1.1,2.9-2.9v-78.4&#10;&#9;C97.9,276.8,96.7,276.3,93.3,276z M175.9,344.6v-38.9c0-5.4-0.9-7.6-10.3-7.6h-5.1c-2.9,0-5.8,0.2-8.7,0.6c-1.8,0.2-1.9,0.8-1.9,1.7&#10;&#9;c0,0.6,0,1.3,0.1,2.1c0,1.1,0.1,2.5,0.1,3.9v38.5c0,0.5-0.2,0.9-0.6,1.1c-1.9,1.1-4.1,1.7-6.3,1.6c-6.5,0-7.2-5.3-7.2-9.2V306&#10;&#9;c0-5.4-1.5-7.9-10.3-7.9h-5.1c-2.9,0-5.8,0.2-8.7,0.6c-1.8,0.2-1.9,0.8-1.9,1.7c0,0.6,0,1.3,0.1,2.1c0,1.1,0.1,2.5,0.1,3.9v37.2&#10;&#9;c0,15,6.9,22.6,20.5,22.6c8.3,0,14.8-3.3,18.7-9.5c0.4-0.6,1.2-0.8,1.9-0.4c0.3,0.2,0.6,0.5,0.6,0.9l0.9,4.5&#10;&#9;c0.8,2.4,1.7,3.5,7.3,3.5h5.4c3.1,0.1,6.1,0,9.2-0.3c1.8-0.2,1.9-0.5,1.9-2s0-3.5-0.1-5.6C176,353.3,175.9,349.1,175.9,344.6z&#10;&#9; M221.8,315.8h12.1c3.4,0,5-0.8,6.2-3c0.9-1.8,1.1-4,1.1-7.1c0-1.5,0-3.9-0.1-5.4c-0.1-1.4-0.1-1.4-1.6-1.4&#10;&#9;c-4.9,0.1-12,0.1-17.6,0.1c-0.8,0-1.4-0.6-1.4-1.4c0,0,0,0,0,0v-13.9c0-1.6-0.2-1.6-1.5-1.7c-1.2-0.1-2.2-0.1-3.2-0.1&#10;&#9;c-1.5,0-2.9,0.1-4.4,0.2c-2.2,0.2-4.2,1.2-5.7,2.7l-17.7,15.4c-1.9,1.8-3,3.1-3.5,4.3c-0.6,1.6-1,4.8-1,8.7c0,2,0.7,2.3,2,2.3h8.8&#10;&#9;c0.4,0,0.7,0.1,1,0.4c0.3,0.3,0.4,0.6,0.4,1l-0.5,22.5c-0.2,9.9,1.6,16.4,5.7,20.7c4,4.1,10.4,6.1,19.6,6.1&#10;&#9;c13.6,0,20.4-5.4,20.4-14.3c0.1-0.8-0.1-1.5-0.6-2.1c-0.4-0.3-1-0.5-1.5-0.4c-0.8,0-1.6,0-2.3,0.1s-1.4,0.1-2.1,0.1&#10;&#9;c-5.9,0-8.1-0.9-10.4-3c-3.3-2.9-3.5-8.4-3.5-15.8v-13.9C220.5,316.3,221.1,315.8,221.8,315.8z M381.5,356.9v-33.4&#10;&#9;c0-8.4-0.6-13.8-2.1-17.5c-2.4-6.3-8-9.3-17.3-9.3c-7.4,0-14.6,2.8-20,7.9c-0.5,0.5-1.4,0.5-1.9,0c-0.2-0.3-0.4-0.6-0.4-0.9v-21.1&#10;&#9;c0-5-0.9-6.9-10.3-6.9h-5.1c-2.9,0-5.8,0.2-8.7,0.6c-1.8,0.3-2,0.8-2,1.7c0,0.6,0,1.3,0.1,2.1c0,1.1,0.1,2.5,0.1,3.9v74.3&#10;&#9;c0,5,0.9,6.9,10.3,6.9h5.1c2.9,0,5.8-0.2,8.7-0.6c1.8-0.3,2-0.8,2-1.7c0-0.6,0-1.3-0.1-2.1c0-1.1-0.1-2.5-0.1-3.9v-39.6&#10;&#9;c0-0.5,0.3-1,0.8-1.2c2.2-1.1,4.6-1.6,7-1.7c6.7,0,8,4.6,8,12.6v31.2c0,5,0.9,6.9,10.3,6.9h5.1c2.9,0,5.8-0.2,8.7-0.6&#10;&#9;c1.8-0.3,2-0.8,2-1.7c0-0.6,0-1.3-0.1-2.1C381.6,359.7,381.5,358.4,381.5,356.9z M425.3,296.7c-21.6,0-34.5,13.3-34.5,35.6&#10;&#9;c0,21.3,13,34,34.7,34c11.9,0,20.1-3,25.7-9.5c2.3-2.6,3.7-5.9,3.7-8.6c0-1.9-0.8-2.2-1.7-2.2c-0.9,0-2.3,0.1-4.1,0.3&#10;&#9;c-2.6,0.3-5.9,0.6-8.9,0.6c-12.6,0-19.8-3.5-22.8-11c-0.3-0.7,0.1-1.5,0.7-1.8c0.2-0.1,0.3-0.1,0.5-0.1l0,0c8.9,0.1,25,0.2,33.9-0.3&#10;&#9;c1.7-0.1,2.3-0.4,2.4-2.7c0.1-1.4,0.2-2.8,0.2-4.2C455.2,307.7,444.3,296.7,425.3,296.7z M435.3,323.8c-0.3,0.3-0.6,0.5-1,0.5&#10;&#9;c-5.6,0.2-12.1,0.2-17.4,0.2c-0.7,0-1.4-0.6-1.4-1.3c0,0,0,0,0,0c0-7.6,2.4-11.9,7.1-13c0.7-0.1,1.4-0.2,2.2-0.2&#10;&#9;c3.4,0,6.4,1.9,8.1,4.8c1.5,2.5,2.4,5.2,2.8,8.1C435.7,323.1,435.6,323.5,435.3,323.8z M491.5,356.9v-74.3c0-5-0.9-6.9-10.3-6.9&#10;&#9;h-5.1c-2.9,0-5.8,0.2-8.7,0.6c-1.8,0.3-2,0.8-2,1.7c0,0.6,0,1.3,0.1,2.1c0,1.1,0.1,2.5,0.1,3.9v74.3c0,5,0.9,6.9,10.3,6.9h5.1&#10;&#9;c2.9,0,5.8-0.2,8.7-0.6c1.8-0.3,2-0.8,2-1.7c0-0.6,0-1.3-0.1-2.1C491.5,359.7,491.5,358.4,491.5,356.9z M530.4,360.8&#10;&#9;c0-1.1-0.1-2.5-0.1-3.9v-74.3c0-5-0.9-6.9-10.3-6.9h-5.1c-2.9,0-5.8,0.2-8.7,0.6c-1.8,0.3-1.9,0.8-1.9,1.7c0,0.6,0,1.3,0.1,2.1&#10;&#9;c0,1.1,0.1,2.5,0.1,3.9v74.3c0,5,0.9,6.9,10.3,6.9h5.1c2.9,0,5.8-0.2,8.7-0.6c1.8-0.3,2-0.8,2-1.7&#10;&#9;C530.5,362.4,530.5,361.6,530.4,360.8z M272.9,316.2c0-2.6,1.7-5.4,6.6-5.4c5.6,0,8.5,2.2,13.1,6.9c1.6,1.6,2.3,1.9,2.9,1.9&#10;&#9;c1.3-0.1,2.5-0.5,3.6-1.2c3.4-2,5.4-5.7,5.4-9.6c0-10.9-17.9-12-25.6-12c-18.4,0-29.9,8.1-29.9,21.1c0,25.3,30.8,18.8,34.7,26.7l0,0&#10;&#9;c0.1,0.2,0.2,0.5,0.2,0.7c0,0.1,0,0.1,0.1,0.2c0.1,0.3,0.1,0.6,0.1,0.9c0,2.3-1,6-7.8,6c-7.1,0-14-3.5-21.6-11.2&#10;&#9;c-0.5-0.5-1.1-0.8-1.8-0.8c-1,0-1.9,0.5-2.6,1.1c-2.8,2.7-4.3,6.4-4.4,10.3c0,3.4,2.2,14.6,29.9,14.6c19.6,0,31.3-8.8,31.3-23.6&#10;&#9;C307.1,320.5,272.9,325.7,272.9,316.2z" class="st1"/>
</svg>