<?xml version="1.0" ?><svg fill="none" height="24" viewBox="0 0 24 24" width="24" xmlns="http://www.w3.org/2000/svg"><path d="M2 10.5H17C17.2761 10.5 17.5 10.7239 17.5 11V18C17.5 18.2761 17.2761 18.5 17 18.5H2C1.72386 18.5 1.5 18.2761 1.5 18V11C1.5 10.7239 1.72386 10.5 2 10.5Z" stroke="#606060"/><path clip-rule="evenodd" d="M13.5 12C13.7761 12 14 12.2239 14 12.5V16H15.5C15.7761 16 16 16.2239 16 16.5C16 16.7761 15.7761 17 15.5 17H13.5C13.2239 17 13 16.7761 13 16.5V12.5C13 12.2239 13.2239 12 13.5 12Z" fill="#606060" fill-rule="evenodd"/><path clip-rule="evenodd" d="M8.38512 12.0134C8.61081 11.9601 8.84351 12.069 8.94721 12.2764L10 14.382L11.0528 12.2764C11.1565 12.069 11.3892 11.9601 11.6149 12.0134C11.8406 12.0667 12 12.2681 12 12.5V16.5C12 16.7761 11.7761 17 11.5 17C11.2239 17 11 16.7761 11 16.5V14.618L10.4472 15.7236C10.3625 15.893 10.1894 16 10 16C9.81061 16 9.63748 15.893 9.55279 15.7236L9 14.618V16.5C9 16.7761 8.77614 17 8.5 17C8.22386 17 8 16.7761 8 16.5V12.5C8 12.2681 8.15944 12.0667 8.38512 12.0134Z" fill="#606060" fill-rule="evenodd"/><path clip-rule="evenodd" d="M4.27638 12.0528C4.52337 11.9293 4.82371 12.0294 4.9472 12.2764L5.49999 13.382L6.05277 12.2764C6.17627 12.0294 6.4766 11.9293 6.72359 12.0528C6.97058 12.1763 7.0707 12.4766 6.9472 12.7236L6.059 14.5L6.9472 16.2764C7.0707 16.5234 6.97058 16.8237 6.72359 16.9472C6.4766 17.0707 6.17627 16.9706 6.05277 16.7236L5.49999 15.618L4.9472 16.7236C4.82371 16.9706 4.52337 17.0707 4.27638 16.9472C4.02939 16.8237 3.92928 16.5234 4.05277 16.2764L4.94097 14.5L4.05277 12.7236C3.92928 12.4766 4.02939 12.1763 4.27638 12.0528Z" fill="#606060" fill-rule="evenodd"/><path d="M17.5 1.5V5.5C17.5 6.05228 17.9477 6.5 18.5 6.5H22.5" stroke="black"/><path clip-rule="evenodd" d="M21 22H8C7.44772 22 7 21.5523 7 21V20H6V21C6 22.1046 6.89543 23 8 23H21C22.1046 23 23 22.1046 23 21V6.82843C23 6.29799 22.7893 5.78929 22.4142 5.41421L18.5858 1.58579C18.2107 1.21071 17.702 1 17.1716 1H8C6.89543 1 6 1.89543 6 3V9H7V3C7 2.44772 7.44771 2 8 2H17.1716C17.4368 2 17.6911 2.10536 17.8787 2.29289L21.7071 6.12132C21.8946 6.30886 22 6.56321 22 6.82843V21C22 21.5523 21.5523 22 21 22Z" fill="black" fill-rule="evenodd"/></svg>