<?xml version="1.0" encoding="utf-8"?><svg version="1.1" id="Layer_1" xmlns="http://www.w3.org/2000/svg" xmlns:xlink="http://www.w3.org/1999/xlink" x="0px" y="0px" viewBox="0 0 122.88 109.82" style="enable-background:new 0 0 122.88 109.82" xml:space="preserve"><style type="text/css">.st0{fill-rule:evenodd;clip-rule:evenodd;}</style><g><path class="st0" d="M59.69,20.93c1.4,0,2.78,0.08,4.14,0.24V9.37c-0.65-0.24-1.22-0.62-1.7-1.1c-0.88-0.88-1.42-2.08-1.42-3.42 c0-1.33,0.54-2.54,1.42-3.42c0.88-0.88,2.08-1.42,3.42-1.42c1.33,0,2.54,0.54,3.42,1.42c0.88,0.88,1.42,2.08,1.42,3.42 c0,1.33-0.54,2.54-1.42,3.42c-0.47,0.47-1.06,0.86-1.7,1.1v12.37c3.22,0.7,6.27,1.84,9.09,3.35v-4.56c0-0.95,0.77-1.72,1.72-1.72 h12.04c0.24-0.61,0.61-1.16,1.07-1.62c0.88-0.88,2.08-1.42,3.42-1.42c1.33,0,2.54,0.54,3.42,1.42c0.88,0.88,1.42,2.08,1.42,3.42 c0,1.33-0.54,2.54-1.42,3.42c-0.88,0.88-2.08,1.42-3.42,1.42l0,0c-1.34,0-2.55-0.54-3.41-1.42c-0.5-0.5-0.89-1.11-1.13-1.79H79.82 v4.96c7.16,4.96,12.4,12.49,14.38,21.26h21.84V30.83c-0.53-0.24-1.02-0.58-1.42-0.99c-0.88-0.88-1.42-2.08-1.42-3.42 c0-1.33,0.54-2.54,1.42-3.42c0.88-0.88,2.08-1.42,3.42-1.42c1.33,0,2.54,0.54,3.42,1.42c0.88,0.88,1.42,2.08,1.42,3.42 c0,1.33-0.54,2.54-1.42,3.42c-0.55,0.55-1.23,0.96-1.98,1.2v19.15c0,0.95-0.77,1.72-1.72,1.72H94.81c0.18,1.44,0.27,2.91,0.27,4.41 c0,2-0.17,3.96-0.49,5.87h18.91c0.24-0.65,0.62-1.22,1.1-1.7c0.88-0.88,2.08-1.42,3.42-1.42c1.33,0,2.54,0.54,3.42,1.42 c0.88,0.88,1.42,2.08,1.42,3.42c0,1.33-0.54,2.54-1.42,3.42c-0.88,0.88-2.08,1.42-3.42,1.42c-1.33,0-2.54-0.54-3.42-1.42 c-0.47-0.47-0.86-1.05-1.1-1.7H93.84c-2.22,8.14-7.26,15.11-14.02,19.79v2.15h10.25c0.24-0.68,0.63-1.29,1.13-1.79 c0.86-0.88,2.08-1.42,3.41-1.42l0,0c1.34,0,2.54,0.54,3.42,1.42c0.88,0.88,1.42,2.09,1.42,3.42c0,1.34-0.54,2.54-1.42,3.42 c-0.88,0.88-2.09,1.42-3.42,1.42c-1.34,0-2.54-0.54-3.42-1.42c-0.45-0.45-0.82-1-1.07-1.62H78.09c-0.95,0-1.72-0.77-1.72-1.72 v-1.75c-2.82,1.51-5.88,2.65-9.09,3.35v9.56c0.65,0.24,1.23,0.63,1.7,1.1c0.88,0.88,1.42,2.09,1.42,3.42 c0,1.34-0.54,2.54-1.42,3.42c-0.88,0.88-2.09,1.42-3.42,1.42c-1.34,0-2.54-0.54-3.42-1.42c-0.88-0.88-1.42-2.09-1.42-3.42 c0-1.34,0.54-2.54,1.42-3.42c0.48-0.48,1.05-0.86,1.7-1.1v-8.98c-1.36,0.16-2.74,0.24-4.14,0.24c-2.09,0-4.14-0.18-6.13-0.53v13.53 c0,0.95-0.77,1.72-1.72,1.72H32.69c-0.24,0.76-0.65,1.44-1.2,1.98c-0.88,0.88-2.09,1.42-3.42,1.42c-1.34,0-2.54-0.54-3.42-1.42 c-0.88-0.88-1.42-2.09-1.42-3.42c0-1.34,0.54-2.54,1.42-3.42c0.88-0.88,2.09-1.42,3.42-1.42c1.34,0,2.54,0.54,3.42,1.42 c0.41,0.41,0.74,0.89,0.99,1.42h17.64V90.39c-3.29-0.92-6.39-2.31-9.22-4.09c-0.31,0.28-0.71,0.45-1.16,0.45H29.28 c-0.24,0.63-0.62,1.19-1.09,1.65c-0.88,0.88-2.09,1.42-3.42,1.42s-2.54-0.54-3.42-1.42c-0.88-0.87-1.42-2.08-1.42-3.42 c0-1.34,0.54-2.54,1.42-3.42c0.88-0.88,2.09-1.42,3.42-1.42s2.54,0.54,3.42,1.42c0.49,0.49,0.88,1.09,1.12,1.75h7.51 c-6.52-5.53-11.01-13.37-12.2-22.27H6.84v17.64c0.53,0.24,1.02,0.58,1.42,0.99c0.88,0.88,1.42,2.08,1.42,3.42 c0,1.33-0.54,2.54-1.42,3.42c-0.88,0.88-2.08,1.42-3.42,1.42c-1.33,0-2.54-0.54-3.42-1.42C0.54,85.64,0,84.43,0,83.09 c0-1.33,0.54-2.54,1.42-3.42c0.55-0.55,1.23-0.96,1.98-1.2V59.33c0-0.95,0.77-1.72,1.72-1.72h19.2c-0.02-0.43-0.02-0.86-0.02-1.29 c0-3.11,0.4-6.12,1.15-8.99H9.37c-0.24,0.65-0.62,1.22-1.1,1.7c-0.88,0.88-2.08,1.42-3.42,1.42c-1.33,0-2.54-0.54-3.42-1.42 c-0.88-0.88-1.42-2.08-1.42-3.42c0-1.33,0.54-2.54,1.42-3.42c0.88-0.88,2.08-1.42,3.42-1.42c1.33,0,2.54,0.54,3.42,1.42 c0.47,0.47,0.86,1.05,1.1,1.7h17.17c2.32-6.19,6.33-11.55,11.46-15.53v-1.84h-8.7c-0.24,0.66-0.63,1.26-1.12,1.75 c-0.88,0.88-2.09,1.42-3.42,1.42s-2.54-0.54-3.42-1.42c-0.88-0.88-1.42-2.08-1.42-3.42c0-1.34,0.54-2.55,1.42-3.42 c0.88-0.88,2.09-1.42,3.42-1.42s2.54,0.54,3.42,1.42c0.47,0.47,0.84,1.03,1.09,1.65h10.46c0.95,0,1.72,0.77,1.72,1.72v1.2 c2.68-1.61,5.59-2.88,8.66-3.75V6.84H32.48c-0.24,0.53-0.58,1.02-0.99,1.42c-0.88,0.88-2.08,1.42-3.42,1.42 c-1.33,0-2.54-0.54-3.42-1.42c-0.88-0.88-1.42-2.08-1.42-3.42c0-1.33,0.54-2.54,1.42-3.42C25.53,0.54,26.73,0,28.07,0 c1.33,0,2.54,0.54,3.42,1.42c0.55,0.55,0.96,1.23,1.2,1.98h19.15c0.95,0,1.72,0.77,1.72,1.72v16.34 C55.55,21.11,57.6,20.93,59.69,20.93L59.69,20.93z M45.45,52.78h2.83v-0.34v-5.63c0-3.22,1.32-6.14,3.44-8.26v0 c2.12-2.12,5.05-3.44,8.27-3.44c3.22,0,6.14,1.32,8.26,3.44l0,0c2.12,2.12,3.44,5.05,3.44,8.26v5.63v0.34l2.25,0 c0.5,0,0.91,0.41,0.91,0.91v19.26c0,0.5-0.41,0.91-0.91,0.91H45.45c-0.5,0-0.91-0.41-0.91-0.91V53.69 C44.54,53.19,44.95,52.78,45.45,52.78L45.45,52.78L45.45,52.78z M52.82,52.78h14.31v-0.34v-5.69c0-1.97-0.81-3.76-2.1-5.06l0,0 c-1.3-1.3-3.09-2.1-5.05-2.1c-1.97,0-3.76,0.81-5.06,2.1c-1.3,1.3-2.1,3.09-2.1,5.06v5.69V52.78L52.82,52.78L52.82,52.78z M60.04,63.32l1.44,6.67L57.52,70l1.16-6.76c-1.08-0.35-1.87-1.36-1.87-2.56c0-1.48,1.2-2.68,2.68-2.68c1.48,0,2.68,1.2,2.68,2.68 C62.19,61.99,61.26,63.07,60.04,63.32L60.04,63.32L60.04,63.32z"/></g></svg>