<svg version="1.1" id="Layer_1" xmlns="http://www.w3.org/2000/svg" xmlns:xlink="http://www.w3.org/1999/xlink" x="0px" y="0px"
	 width="100%" viewBox="0 0 200 200" enable-background="new 0 0 200 200" xml:space="preserve">
<path fill="#FFFFFF" opacity="1.000000" stroke="none" 
	d="
M89.000000,201.000000 
	C59.333336,201.000000 30.166670,201.000000 1.000004,201.000000 
	C1.000003,134.333344 1.000003,67.666679 1.000001,1.000013 
	C67.666656,1.000009 134.333313,1.000009 200.999969,1.000004 
	C200.999985,67.666649 200.999985,134.333298 201.000000,200.999969 
	C163.833328,201.000000 126.666664,201.000000 89.000000,201.000000 
M148.920593,108.480194 
	C148.280594,108.319229 147.640610,108.158272 146.415634,107.916298 
	C145.958450,107.577057 145.501251,107.237816 144.915527,106.255005 
	C144.212311,105.880569 143.509109,105.506134 142.401291,105.080162 
	C142.401291,105.080162 142.010239,104.964287 141.904907,104.300446 
	C141.192978,103.919640 140.481049,103.538841 139.145523,103.082123 
	C138.435898,102.708054 137.726288,102.333984 136.852234,101.229507 
	C134.571472,99.532043 132.439499,98.592216 130.965576,103.022575 
	C130.266281,105.999588 129.567001,108.976608 127.955048,111.989090 
	C117.371536,111.996956 106.787201,111.947807 96.205742,112.099350 
	C95.126991,112.114807 94.065506,113.335526 93.009941,114.661919 
	C93.023178,115.105118 93.036423,115.548325 92.420128,116.286034 
	C91.191856,116.921524 89.963585,117.557022 88.292519,117.745735 
	C87.502426,116.866653 86.712334,115.987572 85.515350,114.858383 
	C85.213272,114.699806 85.023445,114.454399 84.897667,113.442108 
	C84.403114,112.513031 83.908569,111.583946 83.559242,110.927696 
	C85.128441,108.121918 90.173943,114.166092 89.988525,106.924644 
	C89.988525,95.481209 89.988525,84.037781 89.988525,72.230759 
	C92.198334,72.101685 93.817314,72.043709 95.429550,71.906433 
	C101.464577,71.392548 103.887840,66.928513 100.709694,61.710953 
	C96.127007,54.187576 91.436432,46.718136 86.443230,39.465736 
	C85.338394,37.861012 82.776962,37.259151 80.184914,36.101044 
	C78.833595,36.957829 77.009605,37.503498 76.207664,38.721878 
	C70.994965,46.641479 65.839310,54.609501 61.008640,62.765224 
	C58.477997,67.037750 60.911217,71.172134 65.886391,71.785889 
	C67.793594,72.021164 69.732491,71.999535 72.048149,72.114372 
	C72.048149,83.587341 71.980621,94.549225 72.130867,105.508125 
	C72.150352,106.929489 73.293892,108.335426 74.187820,110.436348 
	C73.432289,111.621262 72.939865,113.290169 71.859467,113.877510 
	C70.243530,114.755974 68.214035,114.873672 67.192398,115.116898 
	C67.192398,118.025215 67.192398,120.127655 67.059570,122.061607 
	C67.059570,122.061607 67.227882,122.194649 66.439362,122.077797 
	C63.048088,122.218735 61.820000,124.134377 62.005077,127.714821 
	C61.841324,127.966156 61.610275,128.107452 60.435127,128.055862 
	C57.891930,127.763176 55.348736,127.470490 52.972298,127.080544 
	C52.972298,127.080544 52.835567,127.216827 52.854961,126.511665 
	C50.780464,120.925064 47.057617,124.669189 44.316238,125.442390 
	C43.423462,125.694191 43.408520,129.058350 43.032906,131.736481 
	C42.658779,133.153595 42.284657,134.570709 41.262756,136.095566 
	C41.218273,137.077286 41.173790,138.059021 41.150826,139.802826 
	C40.993141,140.545334 40.835453,141.287842 40.306896,142.410965 
	C40.263729,142.757385 40.220566,143.103806 40.211910,144.209793 
	C39.243145,148.536652 37.950962,152.826202 37.445683,157.206528 
	C37.202713,159.312881 38.444962,161.590546 39.331066,164.471954 
	C41.018944,164.849594 42.822395,165.813644 44.375519,165.507538 
	C53.000084,163.807755 61.589844,161.908112 70.140244,159.862564 
	C77.059029,158.207367 78.443741,153.663971 73.578819,148.277206 
	C71.201073,145.644409 71.525085,143.773483 73.860954,141.521149 
	C77.694962,137.824265 81.645264,134.201294 85.069885,130.144745 
	C86.996826,127.862244 87.968735,124.773476 90.051369,121.891899 
	C91.470650,121.545471 92.889931,121.199043 94.326004,121.537468 
	C94.291100,121.992653 94.256203,122.447830 93.602036,123.316910 
	C92.654289,125.159370 91.455162,126.928513 90.885513,128.881271 
	C90.665146,129.636688 91.871132,130.808182 92.748001,131.725449 
	C92.748001,131.725449 93.026352,131.897369 93.158775,132.714584 
	C94.792259,133.138870 96.421249,133.909683 98.059959,133.930954 
	C108.279091,134.063477 118.500381,134.028320 128.868958,134.704010 
	C128.827133,135.147675 128.785309,135.591324 128.277634,136.604141 
	C128.893829,138.383865 129.510010,140.163589 130.635361,142.175125 
	C131.079956,142.514389 131.524567,142.853653 132.082901,143.888062 
	C135.402344,146.976700 137.093292,146.550919 140.009354,141.977432 
	C140.009354,141.977432 139.922165,141.930389 140.753494,141.996796 
	C142.931610,141.990448 145.420959,142.388687 145.013290,138.898224 
	C145.013290,138.898224 144.857910,138.861465 145.648239,138.956161 
	C150.049713,138.005157 154.050507,136.480469 156.011673,131.892120 
	C156.011673,131.892120 155.851547,131.854050 156.647934,131.960770 
	C158.065308,130.902847 159.482666,129.844910 161.160385,128.287766 
	C161.931412,127.776352 162.702423,127.264931 164.283203,126.823227 
	C167.007080,124.865715 166.950958,122.902496 164.082886,120.273209 
	C163.069916,119.150848 162.056946,118.028488 160.918671,116.256699 
	C160.208969,115.884613 159.499252,115.512520 158.387741,115.106720 
	C158.387741,115.106720 157.998779,115.000397 157.903366,114.320198 
	C157.172455,113.948952 156.441544,113.577698 155.334717,113.170227 
	C155.334717,113.170227 154.976807,113.049759 154.898163,112.358093 
	C154.168060,111.973694 153.437943,111.589294 152.331848,111.177879 
	C152.331848,111.177879 151.971542,111.067032 151.889755,110.357498 
	C150.906021,109.928780 149.922272,109.500061 148.967987,109.033775 
	C148.967987,109.033775 148.929688,109.080101 148.920593,108.480194 
z"/>
<path fill="#4D8DF8" opacity="1.000000" stroke="none" 
	d="
M73.916763,109.748512 
	C73.293892,108.335426 72.150352,106.929489 72.130867,105.508125 
	C71.980621,94.549225 72.048149,83.587341 72.048149,72.114372 
	C69.732491,71.999535 67.793594,72.021164 65.886391,71.785889 
	C60.911217,71.172134 58.477997,67.037750 61.008640,62.765224 
	C65.839310,54.609501 70.994965,46.641479 76.207664,38.721878 
	C77.009605,37.503498 78.833595,36.957829 80.562500,36.600647 
	C80.918770,60.634102 80.897469,84.167953 80.500237,107.776779 
	C78.055130,108.484016 75.985947,109.116264 73.916763,109.748512 
z"/>
<path fill="#92BDF8" opacity="1.000000" stroke="none" 
	d="
M80.876160,107.701797 
	C80.897469,84.167953 80.918770,60.634102 80.913155,36.647881 
	C82.776962,37.259151 85.338394,37.861012 86.443230,39.465736 
	C91.436432,46.718136 96.127007,54.187576 100.709694,61.710953 
	C103.887840,66.928513 101.464577,71.392548 95.429550,71.906433 
	C93.817314,72.043709 92.198334,72.101685 89.988525,72.230759 
	C89.988525,84.037781 89.988525,95.481209 89.508804,107.409355 
	C86.311440,107.829979 83.593796,107.765884 80.876160,107.701797 
z"/>
<path fill="#F5D786" opacity="1.000000" stroke="none" 
	d="
M128.867722,111.953621 
	C129.567001,108.976608 130.266281,105.999588 131.499054,102.605133 
	C133.693909,102.111771 135.355286,102.035843 137.016663,101.959915 
	C137.726288,102.333984 138.435898,102.708054 139.571442,103.413757 
	C140.668335,104.151695 141.339279,104.557991 142.010239,104.964287 
	C142.010239,104.964287 142.401291,105.080162 142.703644,105.406418 
	C143.685349,106.121315 144.364716,106.509941 145.044067,106.898575 
	C145.501251,107.237816 145.958450,107.577057 146.856537,108.212616 
	C147.841537,108.699326 148.385605,108.889709 148.929688,109.080101 
	C148.929688,109.080101 148.967987,109.033775 149.096191,109.339355 
	C150.140106,110.118958 151.055817,110.592995 151.971542,111.067032 
	C151.971542,111.067032 152.331848,111.177879 152.636536,111.486656 
	C153.619766,112.213539 154.298279,112.631653 154.976807,113.049759 
	C154.976807,113.049759 155.334717,113.170227 155.643982,113.480621 
	C156.635101,114.194145 157.316940,114.597267 157.998779,115.000397 
	C157.998779,115.000397 158.387741,115.106720 158.694733,115.421677 
	C159.682480,116.126472 160.363235,116.516304 161.043976,116.906128 
	C162.056946,118.028488 163.069916,119.150848 164.120132,120.931587 
	C164.131302,122.034355 164.105225,122.478752 163.606567,122.955765 
	C140.474228,122.997658 117.814468,123.006927 94.920776,122.992661 
	C94.686852,122.969116 94.221298,122.903015 94.221298,122.903015 
	C94.256203,122.447830 94.291100,121.992653 94.418106,120.919357 
	C94.023361,118.864677 93.536514,117.428101 93.049660,115.991524 
	C93.036423,115.548325 93.023178,115.105118 93.471985,114.331726 
	C104.187645,113.998055 114.442535,114.071922 124.693344,113.900757 
	C126.095253,113.877350 127.476768,112.632790 128.867722,111.953621 
z"/>
<path fill="#F9BC1E" opacity="1.000000" stroke="none" 
	d="
M95.154701,123.016205 
	C117.814468,123.006927 140.474228,122.997658 163.741211,123.201645 
	C164.056763,124.527779 163.765091,125.640640 163.473434,126.753510 
	C162.702423,127.264931 161.931412,127.776352 160.690796,128.575760 
	C158.764664,129.860519 157.308105,130.857285 155.851547,131.854050 
	C155.851547,131.854050 156.011673,131.892120 155.591614,131.909409 
	C151.733673,134.238281 148.295792,136.549866 144.857910,138.861450 
	C144.857910,138.861465 145.013290,138.898224 144.604889,138.892746 
	C142.771729,139.901642 141.346939,140.916016 139.922165,141.930389 
	C139.922165,141.930389 140.009354,141.977432 139.623398,141.983749 
	C136.814682,142.391006 134.391922,142.791946 131.969162,143.192902 
	C131.524567,142.853653 131.079956,142.514389 130.309509,141.685242 
	C129.570282,139.475235 129.156891,137.755112 128.743500,136.034988 
	C128.785309,135.591324 128.827133,135.147675 128.842834,133.952484 
	C127.572716,132.723755 126.331314,131.841019 125.084320,131.833038 
	C114.398903,131.764709 103.712479,131.854706 93.026352,131.897369 
	C93.026352,131.897369 92.748001,131.725449 92.589760,131.419464 
	C93.339249,128.414383 94.246979,125.715294 95.154701,123.016205 
z"/>
<path fill="#FC9C9E" opacity="1.000000" stroke="none" 
	d="
M85.922241,115.108490 
	C86.712334,115.987572 87.502426,116.866653 88.579765,118.351860 
	C89.034966,119.987968 89.202927,121.017944 89.370895,122.047928 
	C87.968735,124.773476 86.996826,127.862244 85.069885,130.144745 
	C81.645264,134.201294 77.694962,137.824265 73.860954,141.521149 
	C71.525085,143.773483 71.201073,145.644409 73.578819,148.277206 
	C78.443741,153.663971 77.059029,158.207367 70.140244,159.862564 
	C61.589844,161.908112 53.000084,163.807755 44.375519,165.507538 
	C42.822395,165.813644 41.018944,164.849594 39.319412,163.847198 
	C53.995605,148.538864 68.699730,133.871490 83.338562,119.139236 
	C84.438210,118.032562 85.071930,116.462914 85.922241,115.108490 
z"/>
<path fill="#F73D43" opacity="1.000000" stroke="none" 
	d="
M85.718796,114.983437 
	C85.071930,116.462914 84.438210,118.032562 83.338562,119.139236 
	C68.699730,133.871490 53.995605,148.538864 39.161198,163.506531 
	C38.444962,161.590546 37.202713,159.312881 37.445683,157.206528 
	C37.950962,152.826202 39.243145,148.536652 40.395050,143.645020 
	C40.611378,142.730270 40.644569,142.380310 40.677765,142.030350 
	C40.835453,141.287842 40.993141,140.545334 41.373116,139.188660 
	C41.700447,137.712265 41.805492,136.850037 41.910530,135.987823 
	C42.284657,134.570709 42.658779,133.153595 43.235725,131.109161 
	C45.414745,126.066017 48.734951,125.518379 52.835567,127.216827 
	C52.835567,127.216827 52.972298,127.080544 53.035473,127.448288 
	C54.489307,129.137497 55.879967,130.458969 57.564762,132.059937 
	C58.936516,130.624466 60.124226,129.381577 61.311935,128.138702 
	C61.610275,128.107452 61.841324,127.966156 62.388184,127.400055 
	C64.256821,125.455078 65.742355,123.824860 67.227882,122.194649 
	C67.227882,122.194649 67.059570,122.061607 67.443787,122.042480 
	C69.269608,120.651382 70.835686,119.386711 72.128822,117.886742 
	C75.620392,113.836754 79.705696,112.085930 84.945869,114.122177 
	C85.023445,114.454399 85.213272,114.699806 85.718796,114.983437 
z"/>
<path fill="#FBF0F0" opacity="1.000000" stroke="none" 
	d="
M84.921768,113.782143 
	C79.705696,112.085930 75.620392,113.836754 72.128822,117.886742 
	C70.835686,119.386711 69.269608,120.651382 67.510201,122.126724 
	C67.192398,120.127655 67.192398,118.025215 67.192398,115.116898 
	C68.214035,114.873672 70.243530,114.755974 71.859467,113.877510 
	C72.939865,113.290169 73.432289,111.621262 74.052292,110.092430 
	C75.985947,109.116264 78.055130,108.484016 80.500229,107.776779 
	C83.593796,107.765884 86.311440,107.829979 89.474976,107.866974 
	C90.173943,114.166092 85.128441,108.121918 83.559242,110.927696 
	C83.908569,111.583946 84.403114,112.513031 84.921768,113.782143 
z"/>
<path fill="#FEFADF" opacity="1.000000" stroke="none" 
	d="
M128.411377,111.971359 
	C127.476768,112.632790 126.095253,113.877350 124.693344,113.900757 
	C114.442535,114.071922 104.187645,113.998055 93.465027,113.999237 
	C94.065506,113.335526 95.126991,112.114807 96.205742,112.099350 
	C106.787201,111.947807 117.371536,111.996956 128.411377,111.971359 
z"/>
<path fill="#FEFADF" opacity="1.000000" stroke="none" 
	d="
M93.092560,132.305969 
	C103.712479,131.854706 114.398903,131.764709 125.084320,131.833038 
	C126.331314,131.841019 127.572716,132.723755 128.768829,133.624863 
	C118.500381,134.028320 108.279091,134.063477 98.059959,133.930954 
	C96.421249,133.909683 94.792259,133.138870 93.092560,132.305969 
z"/>
<path fill="#FBF0F0" opacity="1.000000" stroke="none" 
	d="
M52.845264,126.864243 
	C48.734951,125.518379 45.414745,126.066017 43.215317,130.740433 
	C43.408520,129.058350 43.423462,125.694191 44.316238,125.442390 
	C47.057617,124.669189 50.780464,120.925064 52.845264,126.864243 
z"/>
<path fill="#FEFADF" opacity="1.000000" stroke="none" 
	d="
M145.253082,138.908813 
	C148.295792,136.549866 151.733673,134.238281 155.517059,131.874359 
	C154.050507,136.480469 150.049713,138.005157 145.253082,138.908813 
z"/>
<path fill="#FEFADF" opacity="1.000000" stroke="none" 
	d="
M89.711128,121.969910 
	C89.202927,121.017944 89.034966,119.987968 88.801163,118.575249 
	C89.963585,117.557022 91.191856,116.921524 92.734894,116.138779 
	C93.536514,117.428101 94.023361,118.864677 94.409714,120.576935 
	C92.889931,121.199043 91.470650,121.545471 89.711128,121.969910 
z"/>
<path fill="#FEFADF" opacity="1.000000" stroke="none" 
	d="
M132.026031,143.540482 
	C134.391922,142.791946 136.814682,142.391006 139.586243,141.950500 
	C137.093292,146.550919 135.402344,146.976700 132.026031,143.540482 
z"/>
<path fill="#FBF0F0" opacity="1.000000" stroke="none" 
	d="
M60.873531,128.097290 
	C60.124226,129.381577 58.936516,130.624466 57.564762,132.059937 
	C55.879967,130.458969 54.489307,129.137497 52.952095,127.496918 
	C55.348736,127.470490 57.891930,127.763176 60.873531,128.097290 
z"/>
<path fill="#FEFADF" opacity="1.000000" stroke="none" 
	d="
M94.920776,122.992661 
	C94.246979,125.715294 93.339249,128.414383 92.429413,131.451813 
	C91.871132,130.808182 90.665146,129.636688 90.885513,128.881271 
	C91.455162,126.928513 92.654289,125.159370 93.911667,123.109962 
	C94.221298,122.903015 94.686852,122.969116 94.920776,122.992661 
z"/>
<path fill="#FBF0F0" opacity="1.000000" stroke="none" 
	d="
M66.833618,122.136223 
	C65.742355,123.824860 64.256821,125.455078 62.455208,127.202332 
	C61.820000,124.134377 63.048088,122.218735 66.833618,122.136223 
z"/>
<path fill="#FEFADF" opacity="1.000000" stroke="none" 
	d="
M136.934448,101.594711 
	C135.355286,102.035843 133.693909,102.111771 131.629761,102.260956 
	C132.439499,98.592216 134.571472,99.532043 136.934448,101.594711 
z"/>
<path fill="#FEFADF" opacity="1.000000" stroke="none" 
	d="
M163.878326,126.788368 
	C163.765091,125.640640 164.056763,124.527779 164.213791,123.169029 
	C164.105225,122.478752 164.131302,122.034355 164.226349,121.261948 
	C166.950958,122.902496 167.007080,124.865715 163.878326,126.788368 
z"/>
<path fill="#FEFADF" opacity="1.000000" stroke="none" 
	d="
M140.337830,141.963593 
	C141.346939,140.916016 142.771729,139.901642 144.532104,138.859543 
	C145.420959,142.388687 142.931610,141.990448 140.337830,141.963593 
z"/>
<path fill="#FEFADF" opacity="1.000000" stroke="none" 
	d="
M156.249741,131.907410 
	C157.308105,130.857285 158.764664,129.860519 160.560623,128.825363 
	C159.482666,129.844910 158.065308,130.902847 156.249741,131.907410 
z"/>
<path fill="#FEFADF" opacity="1.000000" stroke="none" 
	d="
M128.510559,136.319565 
	C129.156891,137.755112 129.570282,139.475235 130.054932,141.569336 
	C129.510010,140.163589 128.893829,138.383865 128.510559,136.319565 
z"/>
<path fill="#FBF0F0" opacity="1.000000" stroke="none" 
	d="
M41.586647,136.041687 
	C41.805492,136.850037 41.700447,137.712265 41.362354,138.807617 
	C41.173790,138.059021 41.218273,137.077286 41.586647,136.041687 
z"/>
<path fill="#FEFADF" opacity="1.000000" stroke="none" 
	d="
M151.930649,110.712265 
	C151.055817,110.592995 150.140106,110.118958 149.081451,109.358139 
	C149.922272,109.500061 150.906021,109.928780 151.930649,110.712265 
z"/>
<path fill="#FEFADF" opacity="1.000000" stroke="none" 
	d="
M154.937485,112.703926 
	C154.298279,112.631653 153.619766,112.213539 152.824539,111.500168 
	C153.437943,111.589294 154.168060,111.973694 154.937485,112.703926 
z"/>
<path fill="#FEFADF" opacity="1.000000" stroke="none" 
	d="
M148.925140,108.780151 
	C148.385605,108.889709 147.841537,108.699326 147.149033,108.253120 
	C147.640610,108.158272 148.280594,108.319229 148.925140,108.780151 
z"/>
<path fill="#FEFADF" opacity="1.000000" stroke="none" 
	d="
M160.981323,116.581413 
	C160.363235,116.516304 159.682480,116.126472 158.895645,115.438538 
	C159.499252,115.512520 160.208969,115.884613 160.981323,116.581413 
z"/>
<path fill="#FEFADF" opacity="1.000000" stroke="none" 
	d="
M144.979797,106.576790 
	C144.364716,106.509941 143.685349,106.121315 142.905945,105.432190 
	C143.509109,105.506134 144.212311,105.880569 144.979797,106.576790 
z"/>
<path fill="#FEFADF" opacity="1.000000" stroke="none" 
	d="
M141.957581,104.632370 
	C141.339279,104.557991 140.668335,104.151695 139.883240,103.451721 
	C140.481049,103.538841 141.192978,103.919640 141.957581,104.632370 
z"/>
<path fill="#FEFADF" opacity="1.000000" stroke="none" 
	d="
M157.951080,114.660294 
	C157.316940,114.597267 156.635101,114.194145 155.831940,113.498734 
	C156.441544,113.577698 157.172455,113.948952 157.951080,114.660294 
z"/>
<path fill="#FBF0F0" opacity="1.000000" stroke="none" 
	d="
M40.492332,142.220657 
	C40.644569,142.380310 40.611378,142.730270 40.377792,143.265228 
	C40.220566,143.103806 40.263729,142.757385 40.492332,142.220657 
z"/>
</svg>