<?xml version="1.0" encoding="UTF-8"?><svg id="a" xmlns="http://www.w3.org/2000/svg" width="176" height="140" xmlns:xlink="http://www.w3.org/1999/xlink" viewBox="0 0 176 140">
<title>Gmail logo - Brandlogos.net</title><defs><linearGradient id="b" x1="157" y1="176.72" x2="157" y2="54.72" gradientTransform="translate(0 194.72) scale(1 -1)" gradientUnits="userSpaceOnUse"><stop offset="0" stop-color="#60d673"/><stop offset=".17" stop-color="#42c868"/><stop offset=".39" stop-color="#0ebc5f"/><stop offset=".62" stop-color="#00a9bb"/><stop offset=".86" stop-color="#3c90ff"/><stop offset="1" stop-color="#3186ff"/></linearGradient><linearGradient id="c" x1="0" y1="145.04" x2="176" y2="145.04" gradientTransform="translate(0 194.72) scale(1 -1)" gradientUnits="userSpaceOnUse"><stop offset=".08" stop-color="#ff63a0"/><stop offset=".3" stop-color="#fc413d"/><stop offset=".5" stop-color="#fc413d"/><stop offset=".65" stop-color="#fc413d"/><stop offset=".72" stop-color="#fc5c30"/><stop offset=".86" stop-color="#feb10c"/><stop offset=".91" stop-color="#fec700"/><stop offset=".96" stop-color="#ffdb0f"/></linearGradient></defs><path d="M138,18h38v110c0,6.63-5.37,12-12,12h-20c-3.31,0-6-2.69-6-6V18Z" style="fill:url(#b);"/><path d="M38,18H0v110c0,6.63,5.37,12,12,12h20c3.31,0,6-2.69,6-6V18Z" style="fill:#fc413d;"/><path d="M31.23,4.46C23.19-2.3,11.21-1.26,4.46,6.78-2.3,14.81-1.26,26.79,6.78,33.55l76.08,63.95c2.98,2.5,7.32,2.5,10.29,0l76.08-63.95c8.03-6.75,9.07-18.74,2.32-26.77-6.75-8.03-18.74-9.07-26.77-2.32l-56.78,47.72L31.23,4.46Z" style="fill:url(#c);"/></svg>