<svg xmlns="http://www.w3.org/2000/svg" width="24" height="24" fill="none" viewBox="0 0 24 24" id="gmail">
  <path fill="#FB413B" d="M6 6V19.5C6 19.7761 5.77614 20 5.5 20H2.5C1.94772 20 1.5 19.5523 1.5 19V6H6Z"></path>
  <path fill="url(#paint0_linear_1_175)" d="M22.5 6V19C22.5 19.5523 22.0523 20 21.5 20H18.5C18.2239 20 18 19.7761 18 19.5V6H22.5Z"></path>
  <path fill="url(#paint1_linear_1_175)" d="M18.8022 4.52777C19.7534 3.72816 21.1725 3.85101 21.9721 4.80219C22.7717 5.75337 22.6489 7.17248 21.6977 7.97211L12.6434 15.584C12.2714 15.8967 11.7284 15.8967 11.3564 15.584L2.30219 7.97211C1.35101 7.17248 1.22816 5.75337 2.02777 4.80219C2.8274 3.85101 4.24652 3.72816 5.1977 4.52777L11.9999 10.246L18.8022 4.52777Z"></path>
  <defs>
    <linearGradient id="paint0_linear_1_175" x1="20.25" x2="20.25" y1="6" y2="20.173" gradientUnits="userSpaceOnUse">
      <stop offset=".408" stop-color="#3AC566"></stop>
      <stop offset="1" stop-color="#338BFD"></stop>
    </linearGradient>
    <linearGradient id="paint1_linear_1_175" x1="22.5" x2="1.5" y1="10.063" y2="10.063" gradientUnits="userSpaceOnUse">
      <stop stop-color="#FAD917"></stop>
      <stop offset=".33" stop-color="#F74B47"></stop>
      <stop offset=".66" stop-color="#F74B47"></stop>
      <stop offset="1" stop-color="#FF64A0"></stop>
    </linearGradient>
  </defs>
</svg>
