<svg xmlns="http://www.w3.org/2000/svg" width="24" height="24" fill="none" viewBox="0 0 24 24" id="google-calendar">
  <rect width="14" height="6" x="5" y="2" fill="#BBE2FE" rx="2.5"></rect>
  <path fill="url(#paint0_linear_9_2)" d="M18.0545 3.5H5.94546C4.12451 3.5 2.72348 5.10907 2.97399 6.9127L3.75 12.5H20.25L21.026 6.91271C21.2765 5.10907 19.8755 3.5 18.0545 3.5Z"></path>
  <path fill="url(#paint1_linear_9_2)" d="M18.0545 3.5H5.94546C4.12451 3.5 2.72348 5.10907 2.97399 6.9127L3.75 12.5H20.25L21.026 6.91271C21.2765 5.10907 19.8755 3.5 18.0545 3.5Z"></path>
  <path fill="url(#paint2_linear_9_2)" d="M20.9946 17.5635L20.25 12.5H3.75L3.00536 17.5635C2.73902 19.3747 4.14282 21 5.97344 21H18.0266C19.8572 21 21.261 19.3747 20.9946 17.5635Z"></path>
  <path fill="#fff" d="M9.60736 16.704C9.08736 16.704 8.64736 16.628 8.28736 16.476C7.93136 16.32 7.62536 16.1 7.36936 15.816C7.11336 15.528 6.92336 15.222 6.79936 14.898C6.67936 14.574 6.61936 14.412 6.61936 14.412L7.68136 14.04C7.68136 14.04 7.72736 14.158 7.81936 14.394C7.91136 14.63 8.03936 14.844 8.20336 15.036C8.37136 15.224 8.56736 15.368 8.79136 15.468C9.01536 15.568 9.29136 15.618 9.61936 15.618C10.1354 15.618 10.5594 15.47 10.8914 15.174C11.2234 14.878 11.3894 14.508 11.3894 14.064C11.3894 13.576 11.2314 13.202 10.9154 12.942C10.5994 12.682 10.1554 12.552 9.58336 12.552H8.90536V11.484H9.51736C9.99336 11.484 10.3694 11.364 10.6454 11.124C10.9214 10.88 11.0594 10.534 11.0594 10.086C11.0594 9.694 10.9254 9.378 10.6574 9.138C10.3894 8.898 10.0274 8.778 9.57136 8.778C9.31136 8.778 9.08736 8.818 8.89936 8.898C8.71536 8.978 8.55336 9.092 8.41336 9.24C8.27336 9.388 8.15736 9.558 8.06536 9.75C7.97336 9.938 7.92736 10.032 7.92736 10.032L6.87736 9.636C6.87736 9.636 6.94136 9.496 7.06936 9.216C7.19736 8.932 7.37936 8.672 7.61536 8.436C7.85536 8.2 8.13736 8.02 8.46136 7.896C8.78536 7.768 9.16936 7.704 9.61336 7.704C10.4654 7.704 11.1154 7.924 11.5634 8.364C12.0154 8.804 12.2414 9.358 12.2414 10.026C12.2414 10.518 12.1174 10.924 11.8694 11.244C11.6254 11.56 11.2774 11.788 10.8254 11.928V11.964C11.3814 12.104 11.8114 12.352 12.1154 12.708C12.4234 13.06 12.5774 13.526 12.5774 14.106C12.5774 14.834 12.3074 15.45 11.7674 15.954C11.2274 16.454 10.5074 16.704 9.60736 16.704ZM15.4077 16.5V9.51L13.7037 10.77L13.0917 9.894L15.8097 7.908H16.5717V16.5H15.4077Z"></path>
  <defs>
    <linearGradient id="paint0_linear_9_2" x1="12" x2="12" y1="3.5" y2="12.5" gradientUnits="userSpaceOnUse">
      <stop stop-color="#A5A7FE"></stop>
      <stop offset=".505" stop-color="#3F92FF"></stop>
      <stop offset="1" stop-color="#3B90FB"></stop>
    </linearGradient>
    <linearGradient id="paint1_linear_9_2" x1="21.94" x2="2.06" y1="7.933" y2="7.933" gradientUnits="userSpaceOnUse">
      <stop stop-color="#4091FE"></stop>
      <stop offset=".194" stop-color="#4091FE" stop-opacity="0"></stop>
      <stop offset=".81" stop-color="#4091FE" stop-opacity="0"></stop>
      <stop offset="1" stop-color="#4091FE"></stop>
    </linearGradient>
    <linearGradient id="paint2_linear_9_2" x1="12" x2="12" y1="12.5" y2="21" gradientUnits="userSpaceOnUse">
      <stop stop-color="#489CFD"></stop>
      <stop offset="1" stop-color="#308BFE"></stop>
    </linearGradient>
  </defs>
</svg>
