<svg id="svg" version="1.1" xmlns="http://www.w3.org/2000/svg" xmlns:xlink="http://www.w3.org/1999/xlink" width="400" height="400" viewBox="0, 0, 400,400"><g id="svgg"><path id="path0" d="M279.000 47.211 C 273.968 47.981,215.160 67.265,215.706 67.967 C 216.146 68.531,216.121 68.538,215.478 68.033 C 214.697 67.419,190.198 74.949,190.641 75.667 C 190.751 75.845,190.580 75.890,190.260 75.768 C 189.092 75.319,166.767 82.878,167.312 83.538 C 167.736 84.051,167.690 84.060,166.966 83.609 C 165.306 82.576,145.287 89.919,145.839 91.358 C 145.958 91.667,145.864 92.037,145.632 92.180 C 145.367 92.344,145.306 92.189,145.468 91.766 C 145.878 90.698,144.886 91.235,142.398 93.427 C 138.922 96.490,136.525 99.570,137.229 100.070 C 137.689 100.396,137.665 100.432,137.106 100.253 C 136.318 100.000,135.390 101.336,135.843 102.070 C 136.003 102.328,135.946 102.414,135.713 102.270 C 135.482 102.127,134.850 103.023,134.270 104.316 C 132.569 108.105,131.364 113.640,132.376 113.015 C 132.603 112.874,132.722 114.356,132.676 116.753 C 132.634 118.937,132.444 120.627,132.253 120.509 C 132.063 120.392,132.009 119.104,132.133 117.648 C 132.257 116.191,132.201 114.640,132.007 114.200 C 131.388 112.789,131.552 119.321,132.215 122.474 C 133.084 126.602,138.870 144.404,139.264 144.160 C 139.444 144.049,139.496 144.204,139.381 144.505 C 139.266 144.806,140.528 149.203,142.186 154.277 C 143.844 159.351,145.200 163.705,145.200 163.951 C 145.200 164.279,135.554 164.401,109.300 164.403 C 74.954 164.405,73.258 164.440,70.110 165.194 C 66.373 166.090,61.426 168.194,61.765 168.744 C 61.890 168.945,61.768 169.085,61.496 169.055 C 61.223 169.025,61.000 169.180,61.000 169.400 C 61.000 169.620,61.165 169.745,61.368 169.677 C 61.570 169.610,61.503 169.835,61.219 170.177 C 60.935 170.520,60.499 170.797,60.251 170.794 C 59.985 170.790,60.023 170.647,60.343 170.444 C 60.721 170.204,60.751 170.017,60.443 169.826 C 59.779 169.416,59.205 169.932,59.455 170.713 C 59.633 171.267,59.597 171.290,59.271 170.830 C 58.935 170.357,58.637 170.460,57.533 171.430 C 54.827 173.806,51.718 177.516,53.200 176.600 C 53.420 176.464,53.600 176.563,53.600 176.819 C 53.600 177.076,53.336 177.184,53.014 177.061 C 52.263 176.772,51.144 178.342,49.379 182.163 C 46.411 188.587,46.633 182.610,46.606 256.800 L 46.582 323.400 46.796 257.800 C 46.914 221.720,47.053 192.119,47.105 192.020 C 47.523 191.227,47.926 192.864,47.596 194.013 C 47.089 195.782,47.051 321.684,47.557 323.449 C 47.753 324.133,47.769 324.926,47.593 325.211 C 47.365 325.580,47.210 325.451,47.058 324.765 C 46.939 324.234,46.921 325.071,47.017 326.625 C 47.249 330.383,49.953 337.924,50.866 337.359 C 51.044 337.249,51.093 337.414,50.973 337.727 C 50.708 338.416,54.520 343.446,55.189 343.290 C 55.448 343.230,55.563 343.336,55.445 343.527 C 55.210 343.907,56.953 345.651,59.314 347.396 C 60.783 348.483,60.845 348.494,61.436 347.758 C 62.010 347.042,62.020 347.050,61.602 347.912 C 61.112 348.922,65.681 351.561,67.027 351.045 C 67.365 350.915,67.545 350.965,67.428 351.155 C 67.198 351.526,69.295 352.177,72.755 352.807 C 76.804 353.545,206.640 353.321,210.317 352.570 C 214.724 351.669,219.831 349.575,219.689 348.726 C 219.629 348.360,219.761 347.947,219.985 347.809 C 220.230 347.658,220.288 347.825,220.132 348.234 C 219.950 348.708,220.040 348.848,220.436 348.705 C 220.746 348.592,220.957 348.304,220.905 348.064 C 220.852 347.825,221.038 347.716,221.316 347.823 C 222.774 348.382,231.161 339.573,229.973 338.731 C 229.518 338.409,229.550 338.373,230.127 338.560 C 230.718 338.752,231.103 338.255,232.185 335.898 C 235.565 328.536,235.600 328.073,235.600 290.449 L 235.600 259.266 243.983 256.568 C 248.594 255.084,252.275 253.721,252.162 253.539 C 252.050 253.358,252.216 253.308,252.531 253.429 C 253.702 253.878,298.432 239.120,297.889 238.464 C 297.466 237.951,297.509 237.939,298.211 238.376 C 299.893 239.424,339.129 226.123,338.580 224.691 C 338.285 223.922,339.413 222.973,339.826 223.642 C 340.008 223.937,339.955 224.019,339.689 223.855 C 339.232 223.573,338.564 224.297,338.937 224.670 C 339.652 225.386,346.511 218.981,346.172 217.913 C 346.047 217.517,346.146 217.200,346.397 217.200 C 346.646 217.200,346.717 217.423,346.555 217.700 C 346.394 217.975,346.653 217.857,347.131 217.438 C 347.999 216.677,348.357 215.732,347.600 216.200 C 347.380 216.336,347.200 216.237,347.200 215.981 C 347.200 215.724,347.467 215.617,347.794 215.742 C 348.486 216.008,349.380 214.615,348.957 213.930 C 348.798 213.674,348.853 213.586,349.084 213.728 C 350.341 214.505,353.808 202.799,353.492 198.844 C 353.350 197.069,353.341 197.085,353.272 199.276 C 353.232 200.528,353.016 201.667,352.791 201.806 C 352.522 201.972,352.470 201.506,352.638 200.453 C 352.779 199.570,352.696 198.276,352.452 197.578 C 351.970 196.194,352.333 194.930,352.841 196.227 C 353.309 197.423,353.263 194.568,352.778 192.400 C 351.884 188.399,348.252 177.644,347.874 177.878 C 347.644 178.020,347.602 177.920,347.775 177.641 C 348.178 176.989,344.385 165.162,343.874 165.478 C 343.644 165.620,343.603 165.520,343.775 165.241 C 344.178 164.589,340.385 152.762,339.874 153.078 C 339.644 153.220,339.603 153.120,339.775 152.841 C 340.178 152.189,336.385 140.362,335.874 140.678 C 335.644 140.820,335.603 140.720,335.775 140.441 C 336.178 139.789,332.385 127.962,331.874 128.278 C 331.649 128.417,331.602 128.321,331.765 128.057 C 332.163 127.413,328.379 115.566,327.875 115.877 C 327.649 116.017,327.601 115.922,327.765 115.657 C 328.163 115.013,324.379 103.166,323.875 103.477 C 323.649 103.617,323.601 103.522,323.765 103.257 C 324.163 102.613,320.379 90.766,319.875 91.077 C 319.649 91.217,319.601 91.122,319.765 90.857 C 320.163 90.213,316.379 78.366,315.875 78.677 C 315.653 78.815,315.601 78.722,315.758 78.468 C 316.152 77.831,313.174 68.369,312.676 68.677 C 312.437 68.824,312.403 68.718,312.592 68.413 C 312.991 67.767,310.415 62.343,309.870 62.680 C 309.653 62.814,309.602 62.720,309.757 62.470 C 310.210 61.736,309.282 60.400,308.494 60.653 C 307.933 60.833,307.910 60.798,308.374 60.468 C 308.864 60.121,308.867 59.963,308.395 59.394 C 307.881 58.774,307.806 58.777,307.321 59.440 C 307.034 59.832,306.800 59.975,306.800 59.756 C 306.800 59.538,307.018 59.142,307.284 58.876 C 307.871 58.289,303.413 53.542,302.424 53.702 C 302.090 53.756,301.814 53.578,301.809 53.308 C 301.796 52.605,300.087 51.499,299.537 51.839 C 299.248 52.018,299.185 51.947,299.369 51.650 C 300.723 49.459,285.702 46.186,279.000 47.211 M286.733 48.000 C 286.888 48.472,286.810 48.502,286.365 48.142 C 285.699 47.601,281.691 47.530,281.367 48.053 C 281.245 48.251,280.958 48.298,280.730 48.157 C 279.863 47.621,281.464 47.196,283.968 47.297 C 285.830 47.372,286.590 47.565,286.733 48.000 M279.200 48.024 C 279.200 48.257,279.012 48.331,278.782 48.189 C 278.553 48.047,278.058 48.172,277.682 48.466 C 277.068 48.947,277.055 48.930,277.549 48.300 C 278.153 47.530,279.200 47.355,279.200 48.024 M289.385 47.976 C 289.513 48.182,289.253 48.324,288.809 48.291 C 288.364 48.257,288.000 48.088,288.000 47.915 C 288.000 47.473,289.104 47.521,289.385 47.976 M276.557 48.569 C 276.244 49.383,275.304 49.649,275.053 48.995 C 274.915 48.633,275.042 48.518,275.420 48.663 C 275.739 48.786,276.000 48.686,276.000 48.443 C 276.000 48.199,276.174 48.000,276.387 48.000 C 276.601 48.000,276.677 48.256,276.557 48.569 M291.200 48.600 C 291.200 48.930,291.031 49.200,290.824 49.200 C 290.319 49.200,289.958 48.575,290.278 48.256 C 290.728 47.805,291.200 47.981,291.200 48.600 M296.000 50.024 C 296.000 50.257,296.180 50.336,296.400 50.200 C 296.620 50.064,296.800 50.154,296.800 50.400 C 296.800 50.646,296.980 50.736,297.200 50.600 C 297.420 50.464,297.600 50.554,297.600 50.800 C 297.600 51.046,297.768 51.144,297.972 51.017 C 298.177 50.891,298.475 50.998,298.635 51.256 C 298.843 51.593,298.653 51.642,297.963 51.430 C 297.433 51.268,296.727 51.096,296.393 51.048 C 295.444 50.914,294.764 50.382,295.017 49.972 C 295.330 49.466,296.000 49.501,296.000 50.024 M268.000 51.157 C 268.000 51.743,266.700 52.061,266.233 51.589 C 265.921 51.275,265.995 51.227,266.500 51.419 C 266.906 51.574,267.200 51.499,267.200 51.243 C 267.200 50.999,267.380 50.800,267.600 50.800 C 267.820 50.800,268.000 50.961,268.000 51.157 M300.689 53.303 C 300.820 54.165,300.811 54.167,300.247 53.397 C 299.930 52.963,299.763 52.460,299.876 52.278 C 300.165 51.809,300.531 52.270,300.689 53.303 M256.800 54.813 C 256.800 55.482,255.586 55.750,255.073 55.194 C 254.699 54.790,254.747 54.734,255.300 54.929 C 255.685 55.064,256.000 55.001,256.000 54.787 C 256.000 54.574,256.180 54.400,256.400 54.400 C 256.620 54.400,256.800 54.586,256.800 54.813 M306.267 57.773 C 306.267 58.084,306.020 58.229,305.700 58.106 C 305.283 57.946,305.258 57.811,305.607 57.596 C 305.944 57.387,305.860 57.143,305.316 56.751 C 304.895 56.448,304.399 55.930,304.214 55.600 C 304.028 55.270,304.414 55.500,305.071 56.111 C 305.729 56.722,306.267 57.470,306.267 57.773 M244.400 58.757 C 244.400 59.343,243.100 59.661,242.633 59.189 C 242.321 58.875,242.395 58.827,242.900 59.019 C 243.306 59.174,243.600 59.099,243.600 58.843 C 243.600 58.599,243.780 58.400,244.000 58.400 C 244.220 58.400,244.400 58.561,244.400 58.757 M232.000 62.757 C 232.000 63.343,230.700 63.661,230.233 63.189 C 229.921 62.875,229.995 62.827,230.500 63.019 C 230.906 63.174,231.200 63.099,231.200 62.843 C 231.200 62.599,231.380 62.400,231.600 62.400 C 231.820 62.400,232.000 62.561,232.000 62.757 M310.911 65.188 C 310.680 65.470,310.012 64.290,310.012 63.600 C 310.012 63.269,310.248 63.449,310.539 64.000 C 310.829 64.550,310.996 65.085,310.911 65.188 M219.600 66.757 C 219.600 67.343,218.300 67.661,217.833 67.189 C 217.521 66.875,217.595 66.827,218.100 67.019 C 218.506 67.174,218.800 67.099,218.800 66.843 C 218.800 66.599,218.980 66.400,219.200 66.400 C 219.420 66.400,219.600 66.561,219.600 66.757 M196.000 74.357 C 196.000 74.943,194.700 75.261,194.233 74.789 C 193.921 74.475,193.995 74.427,194.500 74.619 C 194.906 74.774,195.200 74.699,195.200 74.443 C 195.200 74.199,195.380 74.000,195.600 74.000 C 195.820 74.000,196.000 74.161,196.000 74.357 M183.600 78.357 C 183.600 78.943,182.300 79.261,181.833 78.789 C 181.521 78.475,181.595 78.427,182.100 78.619 C 182.506 78.774,182.800 78.699,182.800 78.443 C 182.800 78.199,182.980 78.000,183.200 78.000 C 183.420 78.000,183.600 78.161,183.600 78.357 M171.200 82.357 C 171.200 82.943,169.900 83.261,169.433 82.789 C 169.121 82.475,169.195 82.427,169.700 82.619 C 170.106 82.774,170.400 82.699,170.400 82.443 C 170.400 82.199,170.580 82.000,170.800 82.000 C 171.020 82.000,171.200 82.161,171.200 82.357 M158.800 86.357 C 158.800 86.943,157.500 87.261,157.033 86.789 C 156.721 86.475,156.795 86.427,157.300 86.619 C 157.706 86.774,158.000 86.699,158.000 86.443 C 158.000 86.199,158.180 86.000,158.400 86.000 C 158.620 86.000,158.800 86.161,158.800 86.357 M151.600 88.538 C 151.600 88.614,151.240 89.002,150.800 89.400 C 150.059 90.070,150.000 90.073,150.000 89.438 C 150.000 89.061,150.168 88.856,150.372 88.983 C 150.577 89.109,150.858 89.030,150.996 88.807 C 151.238 88.415,151.600 88.254,151.600 88.538 M141.622 95.639 C 139.700 97.394,139.213 97.030,141.014 95.186 C 141.881 94.298,142.658 93.775,142.742 94.025 C 142.825 94.274,142.321 95.001,141.622 95.639 M135.200 105.000 C 134.926 105.330,134.499 105.586,134.251 105.568 C 133.970 105.549,133.989 105.460,134.302 105.334 C 134.579 105.223,134.703 104.967,134.579 104.766 C 134.455 104.565,134.655 104.400,135.025 104.400 C 135.578 104.400,135.609 104.507,135.200 105.000 M134.117 107.328 C 133.953 107.587,133.872 108.115,133.935 108.500 C 133.998 108.885,133.865 109.200,133.638 109.200 C 133.411 109.200,133.326 109.515,133.450 109.900 C 133.636 110.476,133.602 110.496,133.261 110.013 C 132.976 109.611,132.975 109.271,133.257 108.931 C 133.484 108.658,133.560 108.260,133.428 108.045 C 133.295 107.831,133.373 107.540,133.600 107.400 C 133.827 107.260,133.892 106.949,133.745 106.711 C 133.583 106.449,133.663 106.392,133.945 106.566 C 134.202 106.725,134.280 107.068,134.117 107.328 M133.525 122.375 C 133.625 122.675,133.475 122.825,133.175 122.725 C 132.886 122.629,132.571 122.314,132.475 122.025 C 132.375 121.725,132.525 121.575,132.825 121.675 C 133.114 121.771,133.429 122.086,133.525 122.375 M134.170 125.867 C 134.311 126.234,134.214 126.729,133.954 126.967 C 133.608 127.285,133.560 127.263,133.776 126.882 C 133.937 126.598,133.851 126.103,133.585 125.782 C 133.300 125.439,133.269 125.200,133.508 125.200 C 133.732 125.200,134.030 125.500,134.170 125.867 M146.678 164.167 C 146.505 165.132,144.494 165.184,111.000 165.097 L 76.200 165.007 111.000 164.803 C 135.663 164.659,145.777 164.474,145.722 164.167 C 145.679 163.928,145.894 163.733,146.200 163.733 C 146.506 163.733,146.721 163.928,146.678 164.167 M65.441 167.700 C 65.599 167.975,65.586 168.071,65.412 167.914 C 65.237 167.757,64.719 167.892,64.258 168.214 C 63.302 168.884,62.229 169.000,62.604 168.393 C 62.742 168.170,63.023 168.091,63.228 168.217 C 63.432 168.344,63.600 168.246,63.600 168.000 C 63.600 167.754,63.780 167.664,64.000 167.800 C 64.220 167.936,64.400 167.857,64.400 167.624 C 64.400 167.040,65.090 167.091,65.441 167.700 M58.641 171.700 C 58.799 171.975,58.788 172.073,58.616 171.918 C 58.444 171.763,57.557 172.438,56.644 173.418 C 55.731 174.398,54.815 175.200,54.607 175.200 C 54.400 175.200,55.117 174.300,56.200 173.200 C 58.434 170.932,58.260 171.039,58.641 171.700 M50.736 181.792 C 50.083 182.998,49.335 184.113,49.074 184.269 C 48.739 184.470,48.746 184.374,49.097 183.940 C 49.370 183.603,49.475 183.208,49.330 183.063 C 49.185 182.918,49.287 182.800,49.557 182.800 C 49.827 182.800,49.936 182.620,49.800 182.400 C 49.664 182.180,49.754 182.000,50.000 182.000 C 50.246 182.000,50.336 181.820,50.200 181.600 C 50.064 181.380,50.154 181.200,50.400 181.200 C 50.646 181.200,50.748 181.039,50.626 180.842 C 50.504 180.645,50.685 180.376,51.028 180.245 C 51.376 180.111,51.524 179.801,51.364 179.541 C 51.194 179.267,51.250 179.184,51.500 179.338 C 51.771 179.506,51.497 180.388,50.736 181.792 M139.300 187.100 C 128.025 187.159,109.575 187.159,98.300 187.100 C 87.025 187.041,96.250 186.993,118.800 186.993 C 141.350 186.993,150.575 187.041,139.300 187.100 M205.704 187.600 C 205.893 187.600,205.920 187.375,205.765 187.100 C 205.541 186.703,205.592 186.702,206.015 187.093 C 206.814 187.834,207.733 187.814,183.600 187.600 L 161.000 187.400 182.800 187.200 C 194.790 187.090,204.771 187.135,204.980 187.300 C 205.189 187.465,205.515 187.600,205.704 187.600 M76.585 187.624 C 76.304 188.079,75.200 188.127,75.200 187.685 C 75.200 187.512,75.564 187.343,76.009 187.309 C 76.453 187.276,76.713 187.418,76.585 187.624 M74.800 187.913 C 74.800 188.085,74.305 188.253,73.700 188.287 C 72.751 188.339,72.710 188.300,73.400 188.002 C 74.442 187.552,74.800 187.529,74.800 187.913 M205.945 188.422 C 207.077 188.683,207.854 188.687,208.158 188.435 C 208.462 188.182,208.833 188.184,209.213 188.440 C 209.721 188.781,209.718 188.818,209.188 188.717 C 208.208 188.530,208.263 189.346,209.273 189.995 C 210.159 190.564,210.174 190.557,209.600 189.830 C 209.067 189.154,209.067 189.092,209.600 189.270 C 209.930 189.380,210.200 189.905,210.200 190.435 C 210.200 190.977,210.413 191.358,210.686 191.305 C 210.985 191.246,211.074 191.463,210.918 191.870 C 210.755 192.295,210.822 192.434,211.104 192.259 C 211.347 192.109,211.675 192.198,211.834 192.455 C 211.993 192.713,211.961 192.823,211.762 192.700 C 211.547 192.567,211.387 219.177,211.367 258.338 C 211.335 323.745,211.306 327.219,210.807 326.411 C 210.478 325.879,208.612 327.811,208.605 328.692 C 208.602 329.044,208.375 329.407,208.100 329.499 C 207.825 329.591,207.600 329.461,207.600 329.210 C 207.600 328.958,207.780 328.864,208.000 329.000 C 208.220 329.136,208.400 329.037,208.400 328.781 C 208.400 328.473,208.162 328.431,207.700 328.657 C 206.174 329.405,76.148 329.278,74.496 328.528 C 73.673 328.154,72.730 327.837,72.401 327.824 C 72.071 327.810,71.801 327.439,71.801 326.999 C 71.800 326.560,71.620 326.230,71.400 326.266 C 70.658 326.390,70.635 324.334,70.617 258.138 C 70.608 221.804,70.465 192.160,70.300 192.262 C 70.135 192.364,70.000 192.249,70.000 192.006 C 70.000 191.763,70.243 191.618,70.539 191.682 C 70.836 191.747,71.601 191.178,72.239 190.418 C 72.878 189.658,73.147 189.190,72.838 189.380 C 72.453 189.616,72.367 189.577,72.566 189.255 C 72.725 188.998,72.990 188.870,73.154 188.972 C 73.318 189.073,74.161 188.904,75.026 188.596 C 76.987 187.897,202.944 187.730,205.945 188.422 M72.133 189.371 C 72.428 190.139,71.387 191.026,70.974 190.358 C 70.792 190.063,70.845 189.981,71.111 190.145 C 71.349 190.292,71.658 190.230,71.796 190.007 C 71.934 189.783,71.846 189.600,71.600 189.600 C 71.354 189.600,71.264 189.420,71.400 189.200 C 71.732 188.662,71.874 188.695,72.133 189.371 M48.049 189.561 C 47.746 189.753,47.621 190.111,47.772 190.355 C 47.924 190.600,47.857 190.800,47.624 190.800 C 47.155 190.800,47.048 189.886,47.467 189.467 C 47.613 189.320,47.928 189.203,48.167 189.206 C 48.405 189.209,48.352 189.369,48.049 189.561 M212.406 222.707 C 212.299 238.268,212.165 247.400,212.107 243.000 C 211.784 218.315,211.831 193.363,212.200 193.867 C 212.462 194.226,212.533 204.168,212.406 222.707 M69.500 290.500 C 69.442 307.935,69.395 293.670,69.395 258.800 C 69.395 223.930,69.442 209.665,69.500 227.100 C 69.558 244.535,69.558 273.065,69.500 290.500 M352.005 206.194 C 351.767 206.481,351.623 206.897,351.686 207.118 C 351.749 207.339,351.620 207.526,351.400 207.534 C 350.914 207.551,351.125 206.254,351.639 206.066 C 351.840 205.992,351.886 205.739,351.741 205.504 C 351.581 205.245,351.666 205.194,351.958 205.374 C 352.307 205.589,352.320 205.815,352.005 206.194 M97.997 207.574 C 92.956 209.107,89.498 213.660,89.471 218.800 C 89.457 221.630,89.846 223.342,90.424 222.985 C 90.626 222.860,90.689 223.024,90.565 223.348 C 90.280 224.089,91.111 225.702,91.615 225.390 C 91.822 225.263,91.899 225.398,91.786 225.692 C 91.445 226.580,94.338 229.128,94.855 228.395 C 95.206 227.898,95.239 227.915,95.051 228.497 C 94.378 230.593,102.364 231.608,106.094 229.900 C 110.648 227.815,112.968 224.211,112.988 219.190 C 113.000 216.172,111.920 212.555,111.149 213.032 C 110.962 213.147,110.903 212.996,111.018 212.697 C 112.080 209.931,102.561 206.186,97.997 207.574 M176.679 207.754 C 173.080 209.094,170.099 212.271,169.150 215.776 C 168.186 219.340,169.773 226.369,171.401 225.744 C 171.731 225.618,172.000 225.724,172.000 225.981 C 172.000 226.237,171.820 226.336,171.600 226.200 C 170.643 225.608,171.317 226.828,172.500 227.827 C 180.564 234.635,192.409 229.380,192.396 219.000 C 192.392 215.690,190.918 211.826,189.821 212.247 C 189.478 212.379,189.200 212.276,189.200 212.019 C 189.200 211.763,189.380 211.664,189.600 211.800 C 190.365 212.273,189.994 211.334,189.074 210.470 C 188.119 209.573,187.364 209.294,187.800 210.000 C 187.936 210.220,187.837 210.400,187.581 210.400 C 187.324 210.400,187.218 210.131,187.344 209.801 C 188.027 208.022,180.063 206.493,176.679 207.754 M176.456 208.813 C 175.472 209.633,174.167 209.901,174.604 209.193 C 174.742 208.970,175.023 208.891,175.228 209.017 C 175.432 209.144,175.600 209.046,175.600 208.800 C 175.600 208.554,175.768 208.456,175.972 208.583 C 176.177 208.709,176.458 208.630,176.596 208.407 C 176.734 208.183,176.972 208.006,177.124 208.013 C 177.276 208.021,176.975 208.381,176.456 208.813 M185.337 208.530 C 185.482 208.385,185.600 208.589,185.600 208.982 C 185.600 209.536,185.478 209.597,185.063 209.252 C 184.768 209.007,184.438 208.895,184.330 209.003 C 184.222 209.112,184.133 208.933,184.133 208.606 C 184.133 208.197,184.279 208.134,184.603 208.403 C 184.862 208.617,185.192 208.675,185.337 208.530 M95.553 210.029 C 94.946 210.404,94.291 210.100,94.606 209.590 C 94.727 209.395,95.105 209.342,95.446 209.473 C 95.931 209.659,95.954 209.781,95.553 210.029 M110.235 211.899 C 109.938 212.196,108.400 211.007,108.400 210.480 C 108.400 210.183,108.198 210.078,107.938 210.238 C 107.641 210.422,107.585 210.347,107.782 210.029 C 108.004 209.670,108.404 209.837,109.240 210.638 C 109.873 211.245,110.321 211.812,110.235 211.899 M170.957 214.070 C 170.784 214.581,170.667 215.105,170.699 215.233 C 170.730 215.362,170.498 215.467,170.184 215.467 C 169.792 215.467,169.735 215.319,170.003 214.997 C 170.217 214.738,170.275 214.408,170.130 214.263 C 169.985 214.118,170.077 214.000,170.333 214.000 C 170.590 214.000,170.800 213.700,170.800 213.333 C 170.800 212.967,170.906 212.773,171.037 212.903 C 171.167 213.033,171.131 213.558,170.957 214.070 M90.474 219.420 C 90.355 220.438,90.196 220.722,89.957 220.344 C 89.551 219.703,89.491 218.243,89.856 217.878 C 90.381 217.352,90.640 217.997,90.474 219.420 M344.158 220.444 C 342.843 221.816,342.833 221.819,342.909 220.817 C 342.941 220.387,343.044 220.110,343.136 220.203 C 343.488 220.555,344.810 219.540,344.549 219.118 C 344.378 218.841,344.461 218.790,344.771 218.982 C 345.130 219.204,344.962 219.605,344.158 220.444 M112.534 221.283 C 112.318 221.567,112.118 222.247,112.089 222.794 C 112.059 223.341,111.848 223.851,111.618 223.927 C 111.388 224.004,111.186 224.367,111.168 224.733 C 111.151 225.109,111.052 225.192,110.943 224.924 C 110.837 224.663,111.032 224.018,111.376 223.492 C 111.721 222.966,111.891 222.424,111.753 222.287 C 111.616 222.150,111.626 221.553,111.774 220.961 C 111.971 220.177,112.164 220.004,112.485 220.325 C 112.778 220.618,112.794 220.940,112.534 221.283 M336.700 225.476 C 336.315 225.576,336.000 225.836,336.000 226.053 C 336.000 226.270,335.835 226.345,335.634 226.221 C 335.433 226.097,335.185 226.221,335.084 226.498 C 334.964 226.827,334.777 226.862,334.543 226.600 C 334.347 226.380,334.258 226.239,334.346 226.286 C 334.433 226.333,334.881 226.108,335.342 225.786 C 335.802 225.464,336.453 225.221,336.789 225.246 C 337.244 225.281,337.221 225.339,336.700 225.476 M174.734 227.950 C 175.167 228.225,175.154 228.332,174.663 228.521 C 174.330 228.648,173.843 228.493,173.580 228.176 C 173.027 227.510,173.800 227.359,174.734 227.950 M330.638 228.062 C 330.824 228.362,330.747 228.414,330.417 228.211 C 330.123 228.029,329.771 228.124,329.577 228.437 C 329.394 228.734,329.104 228.837,328.933 228.667 C 328.763 228.496,328.888 228.189,329.212 227.984 C 329.992 227.491,330.296 227.507,330.638 228.062 M178.000 229.800 C 178.344 230.215,178.359 230.400,178.049 230.400 C 177.802 230.400,177.600 230.201,177.600 229.957 C 177.600 229.714,177.330 229.618,177.000 229.745 C 176.670 229.871,176.400 229.801,176.400 229.587 C 176.400 228.990,177.443 229.129,178.000 229.800 M102.400 230.243 C 102.400 230.329,101.905 230.397,101.300 230.394 C 100.499 230.389,100.353 230.291,100.764 230.031 C 101.273 229.708,102.400 229.854,102.400 230.243 M181.600 230.243 C 181.600 230.329,181.105 230.397,180.500 230.394 C 179.699 230.389,179.553 230.291,179.964 230.031 C 180.473 229.708,181.600 229.854,181.600 230.243 M319.438 231.662 C 319.624 231.962,319.547 232.014,319.217 231.811 C 318.923 231.629,318.571 231.724,318.377 232.037 C 318.194 232.334,317.904 232.437,317.733 232.267 C 317.563 232.096,317.688 231.789,318.012 231.584 C 318.792 231.091,319.096 231.107,319.438 231.662 M307.038 235.662 C 307.224 235.962,307.147 236.014,306.817 235.811 C 306.523 235.629,306.171 235.724,305.977 236.037 C 305.794 236.334,305.504 236.437,305.333 236.267 C 305.163 236.096,305.288 235.789,305.612 235.584 C 306.392 235.091,306.696 235.107,307.038 235.662 M295.838 239.262 C 296.024 239.562,295.947 239.614,295.617 239.411 C 295.323 239.229,294.971 239.324,294.777 239.637 C 294.594 239.934,294.304 240.037,294.133 239.867 C 293.963 239.696,294.088 239.389,294.412 239.184 C 295.192 238.691,295.496 238.707,295.838 239.262 M272.238 246.862 C 272.424 247.162,272.347 247.214,272.017 247.011 C 271.723 246.829,271.371 246.924,271.177 247.237 C 270.994 247.534,270.704 247.637,270.533 247.467 C 270.363 247.296,270.488 246.989,270.812 246.784 C 271.592 246.291,271.896 246.307,272.238 246.862 M136.532 250.037 C 130.265 252.447,127.378 259.995,130.350 266.200 C 131.778 269.182,133.831 271.278,134.457 270.393 C 134.801 269.906,134.834 269.929,134.641 270.524 C 134.020 272.441,141.850 273.709,145.330 272.255 C 147.493 271.351,149.254 270.012,148.943 269.508 C 148.795 269.268,148.862 269.191,149.093 269.334 C 149.793 269.766,150.583 268.502,150.030 267.836 C 149.701 267.440,149.689 267.192,149.990 267.006 C 150.227 266.860,150.370 266.889,150.310 267.070 C 150.249 267.252,150.380 267.400,150.600 267.400 C 150.820 267.400,150.975 267.177,150.945 266.904 C 150.915 266.632,151.029 266.494,151.199 266.599 C 152.718 267.538,153.107 258.825,151.675 255.943 C 150.583 253.746,148.058 251.092,147.326 251.373 C 147.042 251.482,146.852 251.357,146.905 251.094 C 147.224 249.493,139.890 248.746,136.532 250.037 M139.838 250.062 C 140.019 250.354,139.948 250.415,139.644 250.227 C 139.381 250.064,138.895 250.155,138.566 250.429 C 138.095 250.819,137.862 250.822,137.483 250.439 C 137.105 250.058,137.143 250.007,137.660 250.204 C 138.022 250.342,138.438 250.262,138.583 250.027 C 138.929 249.468,139.481 249.484,139.838 250.062 M261.038 250.462 C 261.224 250.762,261.147 250.814,260.817 250.611 C 260.523 250.429,260.171 250.524,259.977 250.837 C 259.794 251.134,259.504 251.237,259.333 251.067 C 259.163 250.896,259.288 250.589,259.612 250.384 C 260.392 249.891,260.696 249.907,261.038 250.462 M137.000 250.800 C 137.136 251.020,137.102 251.202,136.924 251.205 C 136.746 251.208,136.167 251.327,135.637 251.468 C 134.956 251.651,134.760 251.589,134.965 251.256 C 135.125 250.998,135.423 250.891,135.628 251.017 C 135.832 251.144,136.000 251.057,136.000 250.824 C 136.000 250.287,136.673 250.271,137.000 250.800 M134.148 252.100 C 133.984 252.375,133.520 252.837,133.118 253.127 C 132.716 253.417,132.472 253.792,132.576 253.961 C 132.680 254.129,132.496 254.267,132.169 254.267 C 131.779 254.267,132.021 253.803,132.865 252.933 C 134.216 251.539,134.654 251.255,134.148 252.100 M149.835 253.899 C 149.516 254.218,148.000 252.987,147.994 252.404 C 147.989 251.912,147.924 251.901,147.644 252.343 C 147.427 252.685,147.207 252.735,147.048 252.477 C 146.909 252.252,147.021 251.985,147.298 251.884 C 147.785 251.705,150.150 253.583,149.835 253.899 M212.700 305.130 C 212.640 314.739,212.591 306.760,212.591 287.400 C 212.591 268.040,212.640 260.179,212.700 269.930 C 212.760 279.682,212.760 295.522,212.700 305.130 M248.642 254.468 C 248.834 254.779,248.716 254.854,248.291 254.690 C 247.940 254.555,247.575 254.660,247.481 254.922 C 247.387 255.185,247.177 255.277,247.015 255.127 C 246.607 254.748,247.128 254.000,247.800 254.000 C 248.104 254.000,248.483 254.211,248.642 254.468 M151.278 256.800 C 151.175 256.910,151.010 256.774,150.911 256.498 C 150.812 256.221,150.583 256.087,150.401 256.199 C 150.219 256.312,150.131 256.088,150.205 255.702 C 150.278 255.316,150.355 254.910,150.375 254.800 C 150.395 254.690,150.649 255.050,150.939 255.600 C 151.229 256.150,151.381 256.690,151.278 256.800 M237.438 258.062 C 237.624 258.362,237.547 258.414,237.217 258.211 C 236.923 258.029,236.571 258.124,236.377 258.437 C 236.194 258.734,235.904 258.837,235.733 258.667 C 235.563 258.496,235.688 258.189,236.012 257.984 C 236.792 257.491,237.096 257.507,237.438 258.062 M235.188 290.500 C 235.193 321.142,235.097 325.128,234.380 323.967 C 234.210 323.692,234.237 323.030,234.440 322.495 C 234.655 321.930,234.805 308.436,234.800 290.262 C 234.795 273.068,234.793 258.865,234.795 258.700 C 234.798 258.535,234.886 258.400,234.991 258.400 C 235.096 258.400,235.184 272.845,235.188 290.500 M130.199 261.581 C 130.238 262.233,130.119 262.673,129.935 262.560 C 129.751 262.446,129.600 261.793,129.600 261.110 C 129.600 259.565,130.102 259.960,130.199 261.581 M131.327 266.246 C 131.141 266.731,131.019 266.754,130.771 266.353 C 130.396 265.746,130.700 265.091,131.210 265.406 C 131.405 265.527,131.458 265.905,131.327 266.246 M141.741 272.470 C 141.141 272.760,140.658 272.756,140.141 272.455 C 139.525 272.097,139.669 272.027,141.000 272.039 C 142.396 272.052,142.490 272.107,141.741 272.470 M97.352 287.108 C 84.804 291.605,88.092 310.241,101.423 310.181 C 105.979 310.161,111.791 306.736,110.361 304.914 C 109.854 304.269,109.865 304.251,110.477 304.730 C 111.669 305.663,112.944 302.535,112.975 298.600 C 113.000 295.450,112.271 292.585,111.558 293.026 C 111.366 293.144,111.310 292.978,111.434 292.655 C 111.766 291.791,108.973 288.901,106.686 287.742 C 104.000 286.381,100.117 286.117,97.352 287.108 M177.600 286.774 C 174.474 287.728,170.379 290.996,171.017 292.027 C 171.202 292.327,171.159 292.422,170.909 292.267 C 170.146 291.796,168.800 295.758,168.800 298.474 C 168.801 302.421,172.384 308.799,174.029 307.782 C 174.351 307.583,174.422 307.641,174.232 307.948 C 173.071 309.826,181.819 310.841,185.443 309.248 C 187.700 308.257,190.648 305.525,190.216 304.826 C 190.065 304.581,190.149 304.430,190.403 304.490 C 192.243 304.927,193.014 296.712,191.444 293.400 C 190.380 291.156,187.509 288.162,186.826 288.584 C 186.580 288.736,186.429 288.642,186.490 288.374 C 186.773 287.121,180.286 285.954,177.600 286.774 M103.482 287.288 C 103.748 287.497,104.140 287.560,104.355 287.428 C 104.569 287.295,104.860 287.373,105.000 287.600 C 105.140 287.827,105.423 287.909,105.628 287.783 C 105.832 287.656,106.000 287.861,106.000 288.238 C 106.000 288.878,105.950 288.879,105.268 288.261 C 104.865 287.897,104.427 287.707,104.294 287.839 C 104.162 287.972,103.821 287.937,103.538 287.762 C 102.807 287.310,99.615 287.301,99.894 287.752 C 100.020 287.956,99.916 287.995,99.662 287.838 C 98.702 287.245,99.265 286.873,101.100 286.890 C 102.145 286.899,103.217 287.078,103.482 287.288 M182.794 287.557 C 182.790 287.928,182.663 288.031,182.494 287.800 C 182.332 287.580,181.480 287.400,180.600 287.400 C 179.720 287.400,178.868 287.580,178.706 287.800 C 178.537 288.031,178.410 287.928,178.406 287.557 C 178.401 287.044,178.843 286.914,180.600 286.914 C 182.357 286.914,182.799 287.044,182.794 287.557 M95.041 289.300 C 95.199 289.575,95.182 289.667,95.003 289.505 C 94.823 289.343,94.163 289.748,93.535 290.405 C 92.907 291.062,92.269 291.600,92.118 291.600 C 91.967 291.600,92.454 290.970,93.200 290.200 C 94.753 288.598,94.662 288.642,95.041 289.300 M173.326 289.963 C 173.216 290.383,172.762 290.821,172.317 290.938 C 171.554 291.137,171.560 291.094,172.424 290.175 C 173.526 289.001,173.580 288.988,173.326 289.963 M189.437 291.096 C 189.124 291.409,187.600 290.197,187.600 289.634 C 187.600 289.233,187.901 289.343,188.598 289.999 C 189.148 290.514,189.525 291.008,189.437 291.096 M190.896 293.200 C 191.137 293.200,191.215 293.318,191.070 293.463 C 190.925 293.608,190.983 293.938,191.197 294.197 C 191.462 294.516,191.419 294.667,191.060 294.667 C 190.770 294.667,190.516 294.472,190.496 294.233 C 190.475 293.995,190.381 293.440,190.286 293.000 C 190.192 292.560,190.192 292.425,190.287 292.700 C 190.381 292.975,190.655 293.200,190.896 293.200 M191.654 296.367 C 191.278 296.599,191.248 296.783,191.557 296.974 C 192.078 297.295,192.155 299.457,191.657 299.765 C 191.468 299.882,191.363 299.352,191.423 298.589 C 191.484 297.825,191.369 297.200,191.167 297.200 C 190.965 297.200,190.800 296.930,190.800 296.600 C 190.800 296.270,190.991 296.000,191.224 296.000 C 191.457 296.000,191.520 295.775,191.365 295.500 C 191.154 295.126,191.223 295.131,191.638 295.517 C 192.102 295.948,192.105 296.088,191.654 296.367 M90.806 296.592 C 90.526 296.930,90.381 297.887,90.470 298.818 C 90.604 300.224,90.555 300.353,90.113 299.749 C 89.411 298.789,89.470 297.607,90.262 296.731 C 91.051 295.860,91.512 295.742,90.806 296.592 M170.195 300.300 C 170.122 300.685,170.047 301.056,170.031 301.124 C 170.014 301.192,169.811 301.131,169.581 300.988 C 169.294 300.811,169.309 300.550,169.630 300.164 C 170.243 299.425,170.357 299.452,170.195 300.300 M91.968 304.100 C 91.947 304.701,91.861 304.801,91.708 304.400 C 91.583 304.070,91.282 303.668,91.040 303.506 C 90.769 303.325,90.868 303.210,91.300 303.206 C 91.770 303.202,91.990 303.495,91.968 304.100 M93.984 306.734 L 94.466 307.800 93.233 306.625 C 91.785 305.245,91.772 305.215,92.751 305.471 C 93.164 305.579,93.719 306.148,93.984 306.734 M189.600 305.730 C 189.600 306.352,187.641 307.586,187.378 307.130 C 187.210 306.839,187.206 306.720,187.369 306.867 C 187.533 307.013,188.012 306.788,188.433 306.367 C 189.140 305.660,189.600 305.409,189.600 305.730 M177.137 308.651 C 177.877 308.774,178.190 309.144,177.845 309.488 C 177.686 309.647,177.389 309.512,177.184 309.188 C 176.980 308.865,176.809 308.757,176.806 308.949 C 176.803 309.141,176.558 309.097,176.263 308.852 C 175.968 308.607,175.630 308.503,175.513 308.621 C 175.395 308.738,175.191 308.553,175.058 308.208 C 174.852 307.671,174.946 307.652,175.709 308.072 C 176.199 308.341,176.841 308.602,177.137 308.651 M186.996 308.007 C 186.858 308.230,186.593 308.319,186.407 308.204 C 186.221 308.089,185.977 308.221,185.866 308.498 C 185.744 308.801,185.651 308.722,185.632 308.300 C 185.611 307.850,185.894 307.600,186.424 307.600 C 186.880 307.600,187.135 307.781,186.996 308.007 M101.769 309.483 C 102.632 309.343,103.124 309.400,102.985 309.624 C 102.535 310.353,99.599 310.072,99.606 309.300 C 99.611 308.739,99.683 308.711,99.966 309.159 C 100.213 309.549,100.757 309.647,101.769 309.483 M182.136 309.700 C 181.894 310.096,179.302 310.088,179.056 309.690 C 178.951 309.520,179.642 309.385,180.592 309.390 C 181.543 309.396,182.238 309.535,182.136 309.700 M74.034 328.979 C 74.235 328.855,74.400 328.963,74.400 329.219 C 74.400 329.480,74.121 329.579,73.767 329.443 C 73.419 329.309,73.049 329.200,72.944 329.200 C 72.839 329.200,72.886 328.984,73.050 328.720 C 73.280 328.347,73.382 328.347,73.507 328.722 C 73.596 328.988,73.833 329.103,74.034 328.979 M205.338 329.900 C 205.440 330.065,176.471 330.200,140.962 330.200 C 105.453 330.200,76.400 330.065,76.400 329.900 C 76.400 329.735,105.369 329.600,140.776 329.600 C 176.183 329.600,205.236 329.735,205.338 329.900 M232.423 334.172 C 232.194 334.448,232.125 334.792,232.270 334.937 C 232.415 335.082,232.313 335.200,232.043 335.200 C 231.773 335.200,231.664 335.380,231.800 335.600 C 231.936 335.820,231.857 336.000,231.624 336.000 C 231.041 336.000,231.093 335.531,231.786 334.542 C 232.108 334.081,232.243 333.563,232.086 333.388 C 231.929 333.214,232.034 333.207,232.319 333.371 C 232.687 333.583,232.717 333.818,232.423 334.172 M222.258 346.500 C 222.182 346.995,222.003 347.355,221.860 347.300 C 221.717 347.245,221.420 347.200,221.200 347.200 C 220.980 347.200,221.115 346.855,221.500 346.433 C 222.407 345.440,222.419 345.441,222.258 346.500 M64.200 348.800 C 63.987 349.145,64.447 349.354,65.233 349.270 C 65.362 349.256,65.467 349.504,65.467 349.822 C 65.467 350.140,65.317 350.400,65.133 350.400 C 64.950 350.400,64.800 350.209,64.800 349.976 C 64.800 349.743,64.620 349.664,64.400 349.800 C 64.180 349.936,64.000 349.846,64.000 349.600 C 64.000 349.354,63.832 349.256,63.628 349.383 C 63.423 349.509,63.151 349.444,63.023 349.237 C 62.895 349.030,63.107 348.778,63.495 348.677 C 63.883 348.576,64.256 348.472,64.324 348.446 C 64.392 348.421,64.336 348.580,64.200 348.800 M214.597 350.795 C 214.737 351.022,214.577 351.089,214.221 350.953 C 213.879 350.822,213.600 350.914,213.600 351.157 C 213.600 351.401,213.398 351.600,213.151 351.600 C 212.841 351.600,212.856 351.415,213.200 351.000 C 213.777 350.305,214.251 350.235,214.597 350.795 M210.400 352.024 C 210.400 352.231,210.130 352.400,209.800 352.400 C 209.181 352.400,209.005 351.928,209.456 351.478 C 209.775 351.158,210.400 351.519,210.400 352.024 M208.315 352.219 C 208.044 352.489,73.959 352.492,73.689 352.222 C 73.574 352.108,103.864 352.014,141.000 352.014 C 178.136 352.014,208.427 352.106,208.315 352.219 " stroke="none" fill="#343434" fill-rule="evenodd"></path><path id="path1" d="M280.857 47.547 C 280.507 47.775,280.462 47.991,280.730 48.157 C 280.958 48.298,281.245 48.251,281.367 48.053 C 281.691 47.530,285.699 47.601,286.365 48.142 C 286.810 48.502,286.888 48.472,286.733 48.000 C 286.507 47.310,281.781 46.946,280.857 47.547 M277.549 48.300 C 277.055 48.930,277.068 48.947,277.682 48.466 C 278.058 48.172,278.553 48.047,278.782 48.189 C 279.012 48.331,279.200 48.257,279.200 48.024 C 279.200 47.355,278.153 47.530,277.549 48.300 M288.000 47.915 C 288.000 48.088,288.364 48.257,288.809 48.291 C 289.253 48.324,289.513 48.182,289.385 47.976 C 289.104 47.521,288.000 47.473,288.000 47.915 M276.000 48.443 C 276.000 48.686,275.739 48.786,275.420 48.663 C 275.042 48.518,274.915 48.633,275.053 48.995 C 275.170 49.300,275.507 49.457,275.802 49.344 C 276.453 49.094,276.930 48.000,276.387 48.000 C 276.174 48.000,276.000 48.199,276.000 48.443 M290.278 48.256 C 289.958 48.575,290.319 49.200,290.824 49.200 C 291.031 49.200,291.200 48.930,291.200 48.600 C 291.200 47.981,290.728 47.805,290.278 48.256 M295.017 49.972 C 294.764 50.382,295.444 50.914,296.393 51.048 C 296.727 51.096,297.433 51.268,297.963 51.430 C 298.653 51.642,298.843 51.593,298.635 51.256 C 298.475 50.998,298.177 50.891,297.972 51.017 C 297.768 51.144,297.600 51.046,297.600 50.800 C 297.600 50.554,297.420 50.464,297.200 50.600 C 296.980 50.736,296.800 50.646,296.800 50.400 C 296.800 50.154,296.620 50.064,296.400 50.200 C 296.180 50.336,296.000 50.257,296.000 50.024 C 296.000 49.501,295.330 49.466,295.017 49.972 M267.200 51.243 C 267.200 51.499,266.906 51.574,266.500 51.419 C 265.995 51.227,265.921 51.275,266.233 51.589 C 266.471 51.830,266.966 51.911,267.333 51.770 C 268.057 51.492,268.248 50.800,267.600 50.800 C 267.380 50.800,267.200 50.999,267.200 51.243 M299.876 52.278 C 299.763 52.460,299.930 52.963,300.247 53.397 C 300.811 54.167,300.820 54.165,300.689 53.303 C 300.531 52.270,300.165 51.809,299.876 52.278 M256.000 54.787 C 256.000 55.001,255.685 55.064,255.300 54.929 C 254.747 54.734,254.699 54.790,255.073 55.194 C 255.333 55.476,255.828 55.598,256.173 55.466 C 256.864 55.200,257.035 54.400,256.400 54.400 C 256.180 54.400,256.000 54.574,256.000 54.787 M304.214 55.600 C 304.399 55.930,304.895 56.448,305.316 56.751 C 305.860 57.143,305.944 57.387,305.607 57.596 C 305.258 57.811,305.283 57.946,305.700 58.106 C 306.697 58.489,306.311 57.263,305.071 56.111 C 304.414 55.500,304.028 55.270,304.214 55.600 M243.600 58.843 C 243.600 59.099,243.306 59.174,242.900 59.019 C 242.395 58.827,242.321 58.875,242.633 59.189 C 242.871 59.430,243.366 59.511,243.733 59.370 C 244.457 59.092,244.648 58.400,244.000 58.400 C 243.780 58.400,243.600 58.599,243.600 58.843 M231.200 62.843 C 231.200 63.099,230.906 63.174,230.500 63.019 C 229.995 62.827,229.921 62.875,230.233 63.189 C 230.471 63.430,230.966 63.511,231.333 63.370 C 232.057 63.092,232.248 62.400,231.600 62.400 C 231.380 62.400,231.200 62.599,231.200 62.843 M310.012 63.600 C 310.012 64.290,310.680 65.470,310.911 65.188 C 310.996 65.085,310.829 64.550,310.539 64.000 C 310.248 63.449,310.012 63.269,310.012 63.600 M218.800 66.843 C 218.800 67.099,218.506 67.174,218.100 67.019 C 217.595 66.827,217.521 66.875,217.833 67.189 C 218.071 67.430,218.566 67.511,218.933 67.370 C 219.657 67.092,219.848 66.400,219.200 66.400 C 218.980 66.400,218.800 66.599,218.800 66.843 M195.200 74.443 C 195.200 74.699,194.906 74.774,194.500 74.619 C 193.995 74.427,193.921 74.475,194.233 74.789 C 194.471 75.030,194.966 75.111,195.333 74.970 C 196.057 74.692,196.248 74.000,195.600 74.000 C 195.380 74.000,195.200 74.199,195.200 74.443 M182.800 78.443 C 182.800 78.699,182.506 78.774,182.100 78.619 C 181.595 78.427,181.521 78.475,181.833 78.789 C 182.071 79.030,182.566 79.111,182.933 78.970 C 183.657 78.692,183.848 78.000,183.200 78.000 C 182.980 78.000,182.800 78.199,182.800 78.443 M170.400 82.443 C 170.400 82.699,170.106 82.774,169.700 82.619 C 169.195 82.427,169.121 82.475,169.433 82.789 C 169.671 83.030,170.166 83.111,170.533 82.970 C 171.257 82.692,171.448 82.000,170.800 82.000 C 170.580 82.000,170.400 82.199,170.400 82.443 M158.000 86.443 C 158.000 86.699,157.706 86.774,157.300 86.619 C 156.795 86.427,156.721 86.475,157.033 86.789 C 157.271 87.030,157.766 87.111,158.133 86.970 C 158.857 86.692,159.048 86.000,158.400 86.000 C 158.180 86.000,158.000 86.199,158.000 86.443 M150.996 88.807 C 150.858 89.030,150.577 89.109,150.372 88.983 C 150.168 88.856,150.000 89.061,150.000 89.438 C 150.000 90.073,150.059 90.070,150.800 89.400 C 151.240 89.002,151.600 88.614,151.600 88.538 C 151.600 88.254,151.238 88.415,150.996 88.807 M141.014 95.186 C 140.147 96.074,139.643 96.800,139.894 96.800 C 140.593 96.800,142.913 94.539,142.742 94.025 C 142.658 93.775,141.881 94.298,141.014 95.186 M134.579 104.766 C 134.703 104.967,134.579 105.223,134.302 105.334 C 133.989 105.460,133.970 105.549,134.251 105.568 C 134.499 105.586,134.926 105.330,135.200 105.000 C 135.609 104.507,135.578 104.400,135.025 104.400 C 134.655 104.400,134.455 104.565,134.579 104.766 M133.745 106.711 C 133.892 106.949,133.827 107.260,133.600 107.400 C 133.373 107.540,133.295 107.831,133.428 108.045 C 133.560 108.260,133.484 108.658,133.257 108.931 C 132.975 109.271,132.976 109.611,133.261 110.013 C 133.602 110.496,133.636 110.476,133.450 109.900 C 133.326 109.515,133.411 109.200,133.638 109.200 C 133.865 109.200,133.998 108.885,133.935 108.500 C 133.872 108.115,133.953 107.587,134.117 107.328 C 134.280 107.068,134.202 106.725,133.945 106.566 C 133.663 106.392,133.583 106.449,133.745 106.711 M132.361 112.900 C 132.147 113.447,132.110 120.421,132.320 120.551 C 132.474 120.646,132.634 118.941,132.676 116.762 C 132.738 113.503,132.633 112.206,132.361 112.900 M132.475 122.025 C 132.571 122.314,132.886 122.629,133.175 122.725 C 133.475 122.825,133.625 122.675,133.525 122.375 C 133.429 122.086,133.114 121.771,132.825 121.675 C 132.525 121.575,132.375 121.725,132.475 122.025 M133.585 125.782 C 133.851 126.103,133.937 126.598,133.776 126.882 C 133.560 127.263,133.608 127.285,133.954 126.967 C 134.475 126.489,134.150 125.200,133.508 125.200 C 133.269 125.200,133.300 125.439,133.585 125.782 M145.722 164.167 C 145.777 164.474,135.663 164.659,111.000 164.803 L 76.200 165.007 111.000 165.097 C 130.140 165.147,145.980 165.056,146.200 164.894 C 146.819 164.439,146.819 163.733,146.200 163.733 C 145.894 163.733,145.679 163.928,145.722 164.167 M64.400 167.624 C 64.400 167.857,64.220 167.936,64.000 167.800 C 63.780 167.664,63.600 167.754,63.600 168.000 C 63.600 168.246,63.432 168.344,63.228 168.217 C 63.023 168.091,62.742 168.170,62.604 168.393 C 62.229 169.000,63.302 168.884,64.258 168.214 C 64.719 167.892,65.237 167.757,65.412 167.914 C 65.586 168.071,65.599 167.975,65.441 167.700 C 65.090 167.091,64.400 167.040,64.400 167.624 M56.200 173.200 C 55.117 174.300,54.400 175.200,54.607 175.200 C 54.815 175.200,55.731 174.398,56.644 173.418 C 57.557 172.438,58.444 171.763,58.616 171.918 C 58.788 172.073,58.799 171.975,58.641 171.700 C 58.260 171.039,58.434 170.932,56.200 173.200 M51.364 179.541 C 51.524 179.801,51.376 180.111,51.028 180.245 C 50.685 180.376,50.504 180.645,50.626 180.842 C 50.748 181.039,50.646 181.200,50.400 181.200 C 50.154 181.200,50.064 181.380,50.200 181.600 C 50.336 181.820,50.246 182.000,50.000 182.000 C 49.754 182.000,49.664 182.180,49.800 182.400 C 49.936 182.620,49.827 182.800,49.557 182.800 C 49.287 182.800,49.185 182.918,49.330 183.063 C 49.475 183.208,49.370 183.603,49.097 183.940 C 48.746 184.374,48.739 184.470,49.074 184.269 C 49.919 183.762,51.957 179.620,51.500 179.338 C 51.250 179.184,51.194 179.267,51.364 179.541 M98.300 187.100 C 109.575 187.159,128.025 187.159,139.300 187.100 C 150.575 187.041,141.350 186.993,118.800 186.993 C 96.250 186.993,87.025 187.041,98.300 187.100 M182.800 187.200 L 161.000 187.400 183.600 187.600 C 207.733 187.814,206.814 187.834,206.015 187.093 C 205.592 186.702,205.541 186.703,205.765 187.100 C 206.075 187.649,205.581 187.775,204.980 187.300 C 204.771 187.135,194.790 187.090,182.800 187.200 M75.200 187.685 C 75.200 188.127,76.304 188.079,76.585 187.624 C 76.713 187.418,76.453 187.276,76.009 187.309 C 75.564 187.343,75.200 187.512,75.200 187.685 M73.400 188.002 C 72.710 188.300,72.751 188.339,73.700 188.287 C 74.305 188.253,74.800 188.085,74.800 187.913 C 74.800 187.529,74.442 187.552,73.400 188.002 M71.450 189.120 C 71.286 189.384,71.354 189.600,71.600 189.600 C 71.846 189.600,71.934 189.783,71.796 190.007 C 71.658 190.230,71.349 190.292,71.111 190.145 C 70.842 189.979,70.792 190.064,70.980 190.368 C 71.204 190.730,71.538 190.622,72.242 189.960 C 73.269 188.996,73.570 188.395,72.639 189.168 C 72.209 189.524,72.039 189.517,71.912 189.136 C 71.784 188.753,71.678 188.750,71.450 189.120 M47.467 189.467 C 47.048 189.886,47.155 190.800,47.624 190.800 C 47.857 190.800,47.924 190.600,47.772 190.355 C 47.621 190.111,47.746 189.753,48.049 189.561 C 48.352 189.369,48.405 189.209,48.167 189.206 C 47.928 189.203,47.613 189.320,47.467 189.467 M47.055 193.225 C 46.274 197.128,46.821 326.460,47.613 325.179 C 47.778 324.911,47.753 324.133,47.557 323.449 C 47.051 321.684,47.089 195.782,47.596 194.013 C 47.815 193.252,47.839 192.479,47.651 192.291 C 47.463 192.103,47.196 192.522,47.055 193.225 M211.901 214.160 C 211.957 225.622,212.050 238.600,212.107 243.000 C 212.165 247.400,212.299 238.268,212.406 222.707 C 212.533 204.168,212.462 194.226,212.200 193.867 C 211.932 193.500,211.833 200.193,211.901 214.160 M69.395 258.800 C 69.395 293.670,69.442 307.935,69.500 290.500 C 69.558 273.065,69.558 244.535,69.500 227.100 C 69.442 209.665,69.395 223.930,69.395 258.800 M352.274 195.881 C 352.128 196.116,352.209 196.879,352.452 197.578 C 352.696 198.276,352.779 199.570,352.638 200.453 C 352.470 201.506,352.522 201.972,352.791 201.806 C 353.016 201.667,353.187 200.528,353.172 199.276 C 353.142 196.816,352.708 195.178,352.274 195.881 M351.741 205.504 C 351.886 205.739,351.840 205.992,351.639 206.066 C 351.125 206.254,350.914 207.551,351.400 207.534 C 351.620 207.526,351.749 207.339,351.686 207.118 C 351.623 206.897,351.767 206.481,352.005 206.194 C 352.320 205.815,352.307 205.589,351.958 205.374 C 351.666 205.194,351.581 205.245,351.741 205.504 M176.596 208.407 C 176.458 208.630,176.177 208.709,175.972 208.583 C 175.768 208.456,175.600 208.554,175.600 208.800 C 175.600 209.046,175.432 209.144,175.228 209.017 C 175.023 208.891,174.742 208.970,174.604 209.193 C 174.167 209.901,175.472 209.633,176.456 208.813 C 176.975 208.381,177.276 208.021,177.124 208.013 C 176.972 208.006,176.734 208.183,176.596 208.407 M184.133 208.606 C 184.133 208.933,184.222 209.112,184.330 209.003 C 184.438 208.895,184.768 209.007,185.063 209.252 C 185.478 209.597,185.600 209.536,185.600 208.982 C 185.600 208.589,185.482 208.385,185.337 208.530 C 185.192 208.675,184.862 208.617,184.603 208.403 C 184.279 208.134,184.133 208.197,184.133 208.606 M94.606 209.590 C 94.291 210.100,94.946 210.404,95.553 210.029 C 95.954 209.781,95.931 209.659,95.446 209.473 C 95.105 209.342,94.727 209.395,94.606 209.590 M107.782 210.029 C 107.585 210.347,107.641 210.422,107.938 210.238 C 108.198 210.078,108.400 210.183,108.400 210.480 C 108.400 211.007,109.938 212.196,110.235 211.899 C 110.321 211.812,109.873 211.245,109.240 210.638 C 108.404 209.837,108.004 209.670,107.782 210.029 M170.800 213.333 C 170.800 213.700,170.590 214.000,170.333 214.000 C 170.077 214.000,169.985 214.118,170.130 214.263 C 170.275 214.408,170.217 214.738,170.003 214.997 C 169.735 215.319,169.792 215.467,170.184 215.467 C 170.498 215.467,170.730 215.362,170.699 215.233 C 170.667 215.105,170.784 214.581,170.957 214.070 C 171.131 213.558,171.167 213.033,171.037 212.903 C 170.906 212.773,170.800 212.967,170.800 213.333 M89.856 217.878 C 89.491 218.243,89.551 219.703,89.957 220.344 C 90.196 220.722,90.355 220.438,90.474 219.420 C 90.640 217.997,90.381 217.352,89.856 217.878 M344.549 219.118 C 344.810 219.540,343.488 220.555,343.136 220.203 C 343.044 220.110,342.941 220.387,342.909 220.817 C 342.833 221.819,342.843 221.816,344.158 220.444 C 344.962 219.605,345.130 219.204,344.771 218.982 C 344.461 218.790,344.378 218.841,344.549 219.118 M111.774 220.961 C 111.626 221.553,111.616 222.150,111.753 222.287 C 111.891 222.424,111.721 222.966,111.376 223.492 C 111.032 224.018,110.837 224.663,110.943 224.924 C 111.052 225.192,111.151 225.109,111.168 224.733 C 111.186 224.367,111.388 224.004,111.618 223.927 C 111.848 223.851,112.059 223.341,112.089 222.794 C 112.118 222.247,112.318 221.567,112.534 221.283 C 112.794 220.940,112.778 220.618,112.485 220.325 C 112.164 220.004,111.971 220.177,111.774 220.961 M335.342 225.786 C 334.881 226.108,334.433 226.333,334.346 226.286 C 334.258 226.239,334.347 226.380,334.543 226.600 C 334.777 226.862,334.964 226.827,335.084 226.498 C 335.185 226.221,335.433 226.097,335.634 226.221 C 335.835 226.345,336.000 226.270,336.000 226.053 C 336.000 225.836,336.315 225.576,336.700 225.476 C 337.221 225.339,337.244 225.281,336.789 225.246 C 336.453 225.221,335.802 225.464,335.342 225.786 M173.580 228.176 C 173.843 228.493,174.330 228.648,174.663 228.521 C 175.154 228.332,175.167 228.225,174.734 227.950 C 173.800 227.359,173.027 227.510,173.580 228.176 M329.212 227.984 C 328.888 228.189,328.763 228.496,328.933 228.667 C 329.104 228.837,329.394 228.734,329.577 228.437 C 329.771 228.124,330.123 228.029,330.417 228.211 C 330.747 228.414,330.824 228.362,330.638 228.062 C 330.296 227.507,329.992 227.491,329.212 227.984 M176.400 229.587 C 176.400 229.801,176.670 229.871,177.000 229.745 C 177.330 229.618,177.600 229.714,177.600 229.957 C 177.600 230.201,177.802 230.400,178.049 230.400 C 178.359 230.400,178.344 230.215,178.000 229.800 C 177.443 229.129,176.400 228.990,176.400 229.587 M100.764 230.031 C 100.353 230.291,100.499 230.389,101.300 230.394 C 102.494 230.401,102.710 230.204,101.864 229.880 C 101.569 229.767,101.074 229.835,100.764 230.031 M179.964 230.031 C 179.553 230.291,179.699 230.389,180.500 230.394 C 181.694 230.401,181.910 230.204,181.064 229.880 C 180.769 229.767,180.274 229.835,179.964 230.031 M318.012 231.584 C 317.688 231.789,317.563 232.096,317.733 232.267 C 317.904 232.437,318.194 232.334,318.377 232.037 C 318.571 231.724,318.923 231.629,319.217 231.811 C 319.547 232.014,319.624 231.962,319.438 231.662 C 319.096 231.107,318.792 231.091,318.012 231.584 M305.612 235.584 C 305.288 235.789,305.163 236.096,305.333 236.267 C 305.504 236.437,305.794 236.334,305.977 236.037 C 306.171 235.724,306.523 235.629,306.817 235.811 C 307.147 236.014,307.224 235.962,307.038 235.662 C 306.696 235.107,306.392 235.091,305.612 235.584 M294.412 239.184 C 294.088 239.389,293.963 239.696,294.133 239.867 C 294.304 240.037,294.594 239.934,294.777 239.637 C 294.971 239.324,295.323 239.229,295.617 239.411 C 295.947 239.614,296.024 239.562,295.838 239.262 C 295.496 238.707,295.192 238.691,294.412 239.184 M270.812 246.784 C 270.488 246.989,270.363 247.296,270.533 247.467 C 270.704 247.637,270.994 247.534,271.177 247.237 C 271.371 246.924,271.723 246.829,272.017 247.011 C 272.347 247.214,272.424 247.162,272.238 246.862 C 271.896 246.307,271.592 246.291,270.812 246.784 M138.583 250.027 C 138.438 250.262,138.022 250.342,137.660 250.204 C 137.143 250.007,137.105 250.058,137.483 250.439 C 137.862 250.822,138.095 250.819,138.566 250.429 C 138.895 250.155,139.381 250.064,139.644 250.227 C 139.948 250.415,140.019 250.354,139.838 250.062 C 139.481 249.484,138.929 249.468,138.583 250.027 M259.612 250.384 C 259.288 250.589,259.163 250.896,259.333 251.067 C 259.504 251.237,259.794 251.134,259.977 250.837 C 260.171 250.524,260.523 250.429,260.817 250.611 C 261.147 250.814,261.224 250.762,261.038 250.462 C 260.696 249.907,260.392 249.891,259.612 250.384 M136.000 250.824 C 136.000 251.057,135.832 251.144,135.628 251.017 C 135.423 250.891,135.125 250.998,134.965 251.256 C 134.760 251.589,134.956 251.651,135.637 251.468 C 136.167 251.327,136.746 251.208,136.924 251.205 C 137.102 251.202,137.136 251.020,137.000 250.800 C 136.673 250.271,136.000 250.287,136.000 250.824 M132.865 252.933 C 132.021 253.803,131.779 254.267,132.169 254.267 C 132.496 254.267,132.680 254.129,132.576 253.961 C 132.472 253.792,132.716 253.417,133.118 253.127 C 133.815 252.625,134.609 251.600,134.302 251.600 C 134.222 251.600,133.575 252.200,132.865 252.933 M147.298 251.884 C 147.021 251.985,146.909 252.252,147.048 252.477 C 147.207 252.735,147.427 252.685,147.644 252.343 C 147.924 251.901,147.989 251.912,147.994 252.404 C 148.000 252.987,149.516 254.218,149.835 253.899 C 150.150 253.583,147.785 251.705,147.298 251.884 M212.591 287.400 C 212.591 306.760,212.640 314.739,212.700 305.130 C 212.760 295.522,212.760 279.682,212.700 269.930 C 212.640 260.179,212.591 268.040,212.591 287.400 M246.984 254.427 C 246.839 254.661,246.853 254.976,247.015 255.127 C 247.177 255.277,247.387 255.185,247.481 254.922 C 247.575 254.660,247.940 254.555,248.291 254.690 C 248.716 254.854,248.834 254.779,248.642 254.468 C 248.281 253.883,247.334 253.860,246.984 254.427 M150.375 254.800 C 150.355 254.910,150.278 255.316,150.205 255.702 C 150.131 256.088,150.219 256.312,150.401 256.199 C 150.583 256.087,150.812 256.221,150.911 256.498 C 151.010 256.774,151.175 256.910,151.278 256.800 C 151.381 256.690,151.229 256.150,150.939 255.600 C 150.649 255.050,150.395 254.690,150.375 254.800 M236.012 257.984 C 235.688 258.189,235.563 258.496,235.733 258.667 C 235.904 258.837,236.194 258.734,236.377 258.437 C 236.571 258.124,236.923 258.029,237.217 258.211 C 237.547 258.414,237.624 258.362,237.438 258.062 C 237.096 257.507,236.792 257.491,236.012 257.984 M234.795 258.700 C 234.793 258.865,234.795 273.068,234.800 290.262 C 234.805 308.436,234.655 321.930,234.440 322.495 C 234.237 323.030,234.210 323.692,234.380 323.967 C 234.594 324.315,234.766 324.182,234.941 323.534 C 235.231 322.461,235.280 258.400,234.991 258.400 C 234.886 258.400,234.798 258.535,234.795 258.700 M129.600 261.110 C 129.600 261.793,129.751 262.446,129.935 262.560 C 130.324 262.800,130.258 260.524,129.864 260.131 C 129.719 259.986,129.600 260.426,129.600 261.110 M130.654 265.513 C 130.543 265.692,130.596 266.070,130.771 266.353 C 131.019 266.754,131.141 266.731,131.327 266.246 C 131.579 265.590,130.998 264.957,130.654 265.513 M140.141 272.455 C 140.658 272.756,141.141 272.760,141.741 272.470 C 142.490 272.107,142.396 272.052,141.000 272.039 C 139.669 272.027,139.525 272.097,140.141 272.455 M99.200 287.213 C 99.200 287.400,99.408 287.681,99.662 287.838 C 99.916 287.995,100.020 287.956,99.894 287.752 C 99.615 287.301,102.807 287.310,103.538 287.762 C 103.821 287.937,104.162 287.972,104.294 287.839 C 104.427 287.707,104.865 287.897,105.268 288.261 C 105.950 288.879,106.000 288.878,106.000 288.238 C 106.000 287.861,105.832 287.656,105.628 287.783 C 105.423 287.909,105.140 287.827,105.000 287.600 C 104.860 287.373,104.569 287.295,104.355 287.428 C 104.140 287.560,103.748 287.497,103.482 287.288 C 102.881 286.813,99.200 286.748,99.200 287.213 M178.406 287.557 C 178.410 287.928,178.537 288.031,178.706 287.800 C 178.868 287.580,179.720 287.400,180.600 287.400 C 181.480 287.400,182.332 287.580,182.494 287.800 C 182.663 288.031,182.790 287.928,182.794 287.557 C 182.799 287.044,182.357 286.914,180.600 286.914 C 178.843 286.914,178.401 287.044,178.406 287.557 M93.200 290.200 C 92.454 290.970,91.967 291.600,92.118 291.600 C 92.269 291.600,92.907 291.062,93.535 290.405 C 94.163 289.748,94.823 289.343,95.003 289.505 C 95.182 289.667,95.199 289.575,95.041 289.300 C 94.662 288.642,94.753 288.598,93.200 290.200 M172.424 290.175 C 171.560 291.094,171.554 291.137,172.317 290.938 C 172.762 290.821,173.216 290.383,173.326 289.963 C 173.580 288.988,173.526 289.001,172.424 290.175 M187.600 289.634 C 187.600 290.197,189.124 291.409,189.437 291.096 C 189.525 291.008,189.148 290.514,188.598 289.999 C 187.901 289.343,187.600 289.233,187.600 289.634 M190.286 293.000 C 190.381 293.440,190.475 293.995,190.496 294.233 C 190.516 294.472,190.770 294.667,191.060 294.667 C 191.419 294.667,191.462 294.516,191.197 294.197 C 190.983 293.938,190.925 293.608,191.070 293.463 C 191.215 293.318,191.137 293.200,190.896 293.200 C 190.655 293.200,190.381 292.975,190.287 292.700 C 190.192 292.425,190.192 292.560,190.286 293.000 M191.365 295.500 C 191.520 295.775,191.457 296.000,191.224 296.000 C 190.991 296.000,190.800 296.270,190.800 296.600 C 190.800 296.930,190.965 297.200,191.167 297.200 C 191.369 297.200,191.484 297.825,191.423 298.589 C 191.363 299.352,191.468 299.882,191.657 299.765 C 192.155 299.457,192.078 297.295,191.557 296.974 C 191.248 296.783,191.278 296.599,191.654 296.367 C 192.105 296.088,192.102 295.948,191.638 295.517 C 191.223 295.131,191.154 295.126,191.365 295.500 M90.262 296.731 C 89.470 297.607,89.411 298.789,90.113 299.749 C 90.555 300.353,90.604 300.224,90.470 298.818 C 90.381 297.887,90.526 296.930,90.806 296.592 C 91.512 295.742,91.051 295.860,90.262 296.731 M169.630 300.164 C 169.309 300.550,169.294 300.811,169.581 300.988 C 169.811 301.131,170.014 301.192,170.031 301.124 C 170.419 299.555,170.324 299.328,169.630 300.164 M91.040 303.506 C 91.282 303.668,91.583 304.070,91.708 304.400 C 91.861 304.801,91.947 304.701,91.968 304.100 C 91.990 303.495,91.770 303.202,91.300 303.206 C 90.868 303.210,90.769 303.325,91.040 303.506 M92.000 305.363 C 92.000 305.411,92.555 305.979,93.233 306.625 L 94.466 307.800 93.984 306.734 C 93.622 305.931,92.000 304.811,92.000 305.363 M188.433 306.367 C 188.012 306.788,187.533 307.013,187.369 306.867 C 187.206 306.720,187.210 306.839,187.378 307.130 C 187.641 307.586,189.600 306.352,189.600 305.730 C 189.600 305.409,189.140 305.660,188.433 306.367 M175.058 308.208 C 175.191 308.553,175.395 308.738,175.513 308.621 C 175.630 308.503,175.968 308.607,176.263 308.852 C 176.558 309.097,176.803 309.141,176.806 308.949 C 176.809 308.757,176.980 308.865,177.184 309.188 C 177.389 309.512,177.686 309.647,177.845 309.488 C 178.190 309.144,177.877 308.774,177.137 308.651 C 176.841 308.602,176.199 308.341,175.709 308.072 C 174.946 307.652,174.852 307.671,175.058 308.208 M185.632 308.300 C 185.651 308.722,185.744 308.801,185.866 308.498 C 185.977 308.221,186.221 308.089,186.407 308.204 C 186.593 308.319,186.858 308.230,186.996 308.007 C 187.135 307.781,186.880 307.600,186.424 307.600 C 185.894 307.600,185.611 307.850,185.632 308.300 M99.606 309.300 C 99.599 310.072,102.535 310.353,102.985 309.624 C 103.124 309.400,102.632 309.343,101.769 309.483 C 100.757 309.647,100.213 309.549,99.966 309.159 C 99.683 308.711,99.611 308.739,99.606 309.300 M179.056 309.690 C 179.302 310.088,181.894 310.096,182.136 309.700 C 182.238 309.535,181.543 309.396,180.592 309.390 C 179.642 309.385,178.951 309.520,179.056 309.690 M73.050 328.720 C 72.886 328.984,72.839 329.200,72.944 329.200 C 73.049 329.200,73.419 329.309,73.767 329.443 C 74.121 329.579,74.400 329.480,74.400 329.219 C 74.400 328.963,74.235 328.855,74.034 328.979 C 73.833 329.103,73.596 328.988,73.507 328.722 C 73.382 328.347,73.280 328.347,73.050 328.720 M76.400 329.900 C 76.400 330.065,105.453 330.200,140.962 330.200 C 176.471 330.200,205.440 330.065,205.338 329.900 C 205.236 329.735,176.183 329.600,140.776 329.600 C 105.369 329.600,76.400 329.735,76.400 329.900 M232.086 333.388 C 232.243 333.563,232.108 334.081,231.786 334.542 C 231.093 335.531,231.041 336.000,231.624 336.000 C 231.857 336.000,231.936 335.820,231.800 335.600 C 231.664 335.380,231.773 335.200,232.043 335.200 C 232.313 335.200,232.415 335.082,232.270 334.937 C 232.125 334.792,232.194 334.448,232.423 334.172 C 232.717 333.818,232.687 333.583,232.319 333.371 C 232.034 333.207,231.929 333.214,232.086 333.388 M221.500 346.433 C 221.115 346.855,220.980 347.200,221.200 347.200 C 221.420 347.200,221.717 347.245,221.860 347.300 C 222.003 347.355,222.182 346.995,222.258 346.500 C 222.419 345.441,222.407 345.440,221.500 346.433 M63.495 348.677 C 63.107 348.778,62.895 349.030,63.023 349.237 C 63.151 349.444,63.423 349.509,63.628 349.383 C 63.832 349.256,64.000 349.354,64.000 349.600 C 64.000 349.846,64.180 349.936,64.400 349.800 C 64.620 349.664,64.800 349.743,64.800 349.976 C 64.800 350.209,64.950 350.400,65.133 350.400 C 65.317 350.400,65.467 350.140,65.467 349.822 C 65.467 349.504,65.362 349.256,65.233 349.270 C 64.447 349.354,63.987 349.145,64.200 348.800 C 64.336 348.580,64.392 348.421,64.324 348.446 C 64.256 348.472,63.883 348.576,63.495 348.677 M213.200 351.000 C 212.856 351.415,212.841 351.600,213.151 351.600 C 213.398 351.600,213.600 351.401,213.600 351.157 C 213.600 350.914,213.879 350.822,214.221 350.953 C 214.577 351.089,214.737 351.022,214.597 350.795 C 214.251 350.235,213.777 350.305,213.200 351.000 M209.456 351.478 C 209.005 351.928,209.181 352.400,209.800 352.400 C 210.130 352.400,210.400 352.231,210.400 352.024 C 210.400 351.519,209.775 351.158,209.456 351.478 M73.689 352.222 C 73.959 352.492,208.044 352.489,208.315 352.219 C 208.427 352.106,178.136 352.014,141.000 352.014 C 103.864 352.014,73.574 352.108,73.689 352.222 " stroke="none" fill="#383434" fill-rule="evenodd"></path><path id="path2" d="M280.857 47.547 C 280.507 47.775,280.462 47.991,280.730 48.157 C 280.958 48.298,281.245 48.251,281.367 48.053 C 281.691 47.530,285.699 47.601,286.365 48.142 C 286.810 48.502,286.888 48.472,286.733 48.000 C 286.507 47.310,281.781 46.946,280.857 47.547 M277.549 48.300 C 277.055 48.930,277.068 48.947,277.682 48.466 C 278.058 48.172,278.553 48.047,278.782 48.189 C 279.012 48.331,279.200 48.257,279.200 48.024 C 279.200 47.355,278.153 47.530,277.549 48.300 M288.000 47.915 C 288.000 48.088,288.364 48.257,288.809 48.291 C 289.253 48.324,289.513 48.182,289.385 47.976 C 289.104 47.521,288.000 47.473,288.000 47.915 M276.000 48.443 C 276.000 48.686,275.739 48.786,275.420 48.663 C 275.042 48.518,274.915 48.633,275.053 48.995 C 275.170 49.300,275.507 49.457,275.802 49.344 C 276.453 49.094,276.930 48.000,276.387 48.000 C 276.174 48.000,276.000 48.199,276.000 48.443 M290.278 48.256 C 289.958 48.575,290.319 49.200,290.824 49.200 C 291.031 49.200,291.200 48.930,291.200 48.600 C 291.200 47.981,290.728 47.805,290.278 48.256 M295.017 49.972 C 294.764 50.382,295.444 50.914,296.393 51.048 C 296.727 51.096,297.433 51.268,297.963 51.430 C 298.653 51.642,298.843 51.593,298.635 51.256 C 298.475 50.998,298.177 50.891,297.972 51.017 C 297.768 51.144,297.600 51.046,297.600 50.800 C 297.600 50.554,297.420 50.464,297.200 50.600 C 296.980 50.736,296.800 50.646,296.800 50.400 C 296.800 50.154,296.620 50.064,296.400 50.200 C 296.180 50.336,296.000 50.257,296.000 50.024 C 296.000 49.501,295.330 49.466,295.017 49.972 M267.200 51.243 C 267.200 51.499,266.906 51.574,266.500 51.419 C 265.995 51.227,265.921 51.275,266.233 51.589 C 266.471 51.830,266.966 51.911,267.333 51.770 C 268.057 51.492,268.248 50.800,267.600 50.800 C 267.380 50.800,267.200 50.999,267.200 51.243 M299.876 52.278 C 299.763 52.460,299.930 52.963,300.247 53.397 C 300.811 54.167,300.820 54.165,300.689 53.303 C 300.531 52.270,300.165 51.809,299.876 52.278 M256.000 54.787 C 256.000 55.001,255.685 55.064,255.300 54.929 C 254.747 54.734,254.699 54.790,255.073 55.194 C 255.333 55.476,255.828 55.598,256.173 55.466 C 256.864 55.200,257.035 54.400,256.400 54.400 C 256.180 54.400,256.000 54.574,256.000 54.787 M304.214 55.600 C 304.399 55.930,304.895 56.448,305.316 56.751 C 305.860 57.143,305.944 57.387,305.607 57.596 C 305.258 57.811,305.283 57.946,305.700 58.106 C 306.697 58.489,306.311 57.263,305.071 56.111 C 304.414 55.500,304.028 55.270,304.214 55.600 M243.600 58.843 C 243.600 59.099,243.306 59.174,242.900 59.019 C 242.395 58.827,242.321 58.875,242.633 59.189 C 242.871 59.430,243.366 59.511,243.733 59.370 C 244.457 59.092,244.648 58.400,244.000 58.400 C 243.780 58.400,243.600 58.599,243.600 58.843 M231.200 62.843 C 231.200 63.099,230.906 63.174,230.500 63.019 C 229.995 62.827,229.921 62.875,230.233 63.189 C 230.471 63.430,230.966 63.511,231.333 63.370 C 232.057 63.092,232.248 62.400,231.600 62.400 C 231.380 62.400,231.200 62.599,231.200 62.843 M310.012 63.600 C 310.012 64.290,310.680 65.470,310.911 65.188 C 310.996 65.085,310.829 64.550,310.539 64.000 C 310.248 63.449,310.012 63.269,310.012 63.600 M218.800 66.843 C 218.800 67.099,218.506 67.174,218.100 67.019 C 217.595 66.827,217.521 66.875,217.833 67.189 C 218.071 67.430,218.566 67.511,218.933 67.370 C 219.657 67.092,219.848 66.400,219.200 66.400 C 218.980 66.400,218.800 66.599,218.800 66.843 M195.200 74.443 C 195.200 74.699,194.906 74.774,194.500 74.619 C 193.995 74.427,193.921 74.475,194.233 74.789 C 194.471 75.030,194.966 75.111,195.333 74.970 C 196.057 74.692,196.248 74.000,195.600 74.000 C 195.380 74.000,195.200 74.199,195.200 74.443 M182.800 78.443 C 182.800 78.699,182.506 78.774,182.100 78.619 C 181.595 78.427,181.521 78.475,181.833 78.789 C 182.071 79.030,182.566 79.111,182.933 78.970 C 183.657 78.692,183.848 78.000,183.200 78.000 C 182.980 78.000,182.800 78.199,182.800 78.443 M170.400 82.443 C 170.400 82.699,170.106 82.774,169.700 82.619 C 169.195 82.427,169.121 82.475,169.433 82.789 C 169.671 83.030,170.166 83.111,170.533 82.970 C 171.257 82.692,171.448 82.000,170.800 82.000 C 170.580 82.000,170.400 82.199,170.400 82.443 M158.000 86.443 C 158.000 86.699,157.706 86.774,157.300 86.619 C 156.795 86.427,156.721 86.475,157.033 86.789 C 157.271 87.030,157.766 87.111,158.133 86.970 C 158.857 86.692,159.048 86.000,158.400 86.000 C 158.180 86.000,158.000 86.199,158.000 86.443 M150.996 88.807 C 150.858 89.030,150.577 89.109,150.372 88.983 C 150.168 88.856,150.000 89.061,150.000 89.438 C 150.000 90.073,150.059 90.070,150.800 89.400 C 151.240 89.002,151.600 88.614,151.600 88.538 C 151.600 88.254,151.238 88.415,150.996 88.807 M141.014 95.186 C 140.147 96.074,139.643 96.800,139.894 96.800 C 140.593 96.800,142.913 94.539,142.742 94.025 C 142.658 93.775,141.881 94.298,141.014 95.186 M134.579 104.766 C 134.703 104.967,134.579 105.223,134.302 105.334 C 133.989 105.460,133.970 105.549,134.251 105.568 C 134.499 105.586,134.926 105.330,135.200 105.000 C 135.609 104.507,135.578 104.400,135.025 104.400 C 134.655 104.400,134.455 104.565,134.579 104.766 M133.745 106.711 C 133.892 106.949,133.827 107.260,133.600 107.400 C 133.373 107.540,133.295 107.831,133.428 108.045 C 133.560 108.260,133.484 108.658,133.257 108.931 C 132.975 109.271,132.976 109.611,133.261 110.013 C 133.602 110.496,133.636 110.476,133.450 109.900 C 133.326 109.515,133.411 109.200,133.638 109.200 C 133.865 109.200,133.998 108.885,133.935 108.500 C 133.872 108.115,133.953 107.587,134.117 107.328 C 134.280 107.068,134.202 106.725,133.945 106.566 C 133.663 106.392,133.583 106.449,133.745 106.711 M132.361 112.900 C 132.147 113.447,132.110 120.421,132.320 120.551 C 132.474 120.646,132.634 118.941,132.676 116.762 C 132.738 113.503,132.633 112.206,132.361 112.900 M132.475 122.025 C 132.571 122.314,132.886 122.629,133.175 122.725 C 133.475 122.825,133.625 122.675,133.525 122.375 C 133.429 122.086,133.114 121.771,132.825 121.675 C 132.525 121.575,132.375 121.725,132.475 122.025 M133.585 125.782 C 133.851 126.103,133.937 126.598,133.776 126.882 C 133.560 127.263,133.608 127.285,133.954 126.967 C 134.475 126.489,134.150 125.200,133.508 125.200 C 133.269 125.200,133.300 125.439,133.585 125.782 M145.722 164.167 C 145.777 164.474,135.663 164.659,111.000 164.803 L 76.200 165.007 111.000 165.097 C 130.140 165.147,145.980 165.056,146.200 164.894 C 146.819 164.439,146.819 163.733,146.200 163.733 C 145.894 163.733,145.679 163.928,145.722 164.167 M64.400 167.624 C 64.400 167.857,64.220 167.936,64.000 167.800 C 63.780 167.664,63.600 167.754,63.600 168.000 C 63.600 168.246,63.432 168.344,63.228 168.217 C 63.023 168.091,62.742 168.170,62.604 168.393 C 62.229 169.000,63.302 168.884,64.258 168.214 C 64.719 167.892,65.237 167.757,65.412 167.914 C 65.586 168.071,65.599 167.975,65.441 167.700 C 65.090 167.091,64.400 167.040,64.400 167.624 M56.200 173.200 C 55.117 174.300,54.400 175.200,54.607 175.200 C 54.815 175.200,55.731 174.398,56.644 173.418 C 57.557 172.438,58.444 171.763,58.616 171.918 C 58.788 172.073,58.799 171.975,58.641 171.700 C 58.260 171.039,58.434 170.932,56.200 173.200 M51.364 179.541 C 51.524 179.801,51.376 180.111,51.028 180.245 C 50.685 180.376,50.504 180.645,50.626 180.842 C 50.748 181.039,50.646 181.200,50.400 181.200 C 50.154 181.200,50.064 181.380,50.200 181.600 C 50.336 181.820,50.246 182.000,50.000 182.000 C 49.754 182.000,49.664 182.180,49.800 182.400 C 49.936 182.620,49.827 182.800,49.557 182.800 C 49.287 182.800,49.185 182.918,49.330 183.063 C 49.475 183.208,49.370 183.603,49.097 183.940 C 48.746 184.374,48.739 184.470,49.074 184.269 C 49.919 183.762,51.957 179.620,51.500 179.338 C 51.250 179.184,51.194 179.267,51.364 179.541 M98.300 187.100 C 109.575 187.159,128.025 187.159,139.300 187.100 C 150.575 187.041,141.350 186.993,118.800 186.993 C 96.250 186.993,87.025 187.041,98.300 187.100 M182.800 187.200 L 161.000 187.400 183.600 187.600 C 207.733 187.814,206.814 187.834,206.015 187.093 C 205.592 186.702,205.541 186.703,205.765 187.100 C 206.075 187.649,205.581 187.775,204.980 187.300 C 204.771 187.135,194.790 187.090,182.800 187.200 M75.200 187.685 C 75.200 188.127,76.304 188.079,76.585 187.624 C 76.713 187.418,76.453 187.276,76.009 187.309 C 75.564 187.343,75.200 187.512,75.200 187.685 M73.400 188.002 C 72.710 188.300,72.751 188.339,73.700 188.287 C 74.305 188.253,74.800 188.085,74.800 187.913 C 74.800 187.529,74.442 187.552,73.400 188.002 M71.450 189.120 C 71.286 189.384,71.354 189.600,71.600 189.600 C 71.846 189.600,71.934 189.783,71.796 190.007 C 71.658 190.230,71.349 190.292,71.111 190.145 C 70.842 189.979,70.792 190.064,70.980 190.368 C 71.204 190.730,71.538 190.622,72.242 189.960 C 73.269 188.996,73.570 188.395,72.639 189.168 C 72.209 189.524,72.039 189.517,71.912 189.136 C 71.784 188.753,71.678 188.750,71.450 189.120 M47.467 189.467 C 47.048 189.886,47.155 190.800,47.624 190.800 C 47.857 190.800,47.924 190.600,47.772 190.355 C 47.621 190.111,47.746 189.753,48.049 189.561 C 48.352 189.369,48.405 189.209,48.167 189.206 C 47.928 189.203,47.613 189.320,47.467 189.467 M47.055 193.225 C 46.274 197.128,46.821 326.460,47.613 325.179 C 47.778 324.911,47.753 324.133,47.557 323.449 C 47.051 321.684,47.089 195.782,47.596 194.013 C 47.815 193.252,47.839 192.479,47.651 192.291 C 47.463 192.103,47.196 192.522,47.055 193.225 M211.901 214.160 C 211.957 225.622,212.050 238.600,212.107 243.000 C 212.165 247.400,212.299 238.268,212.406 222.707 C 212.533 204.168,212.462 194.226,212.200 193.867 C 211.932 193.500,211.833 200.193,211.901 214.160 M69.395 258.800 C 69.395 293.670,69.442 307.935,69.500 290.500 C 69.558 273.065,69.558 244.535,69.500 227.100 C 69.442 209.665,69.395 223.930,69.395 258.800 M352.274 195.881 C 352.128 196.116,352.209 196.879,352.452 197.578 C 352.696 198.276,352.779 199.570,352.638 200.453 C 352.470 201.506,352.522 201.972,352.791 201.806 C 353.016 201.667,353.187 200.528,353.172 199.276 C 353.142 196.816,352.708 195.178,352.274 195.881 M351.741 205.504 C 351.886 205.739,351.840 205.992,351.639 206.066 C 351.125 206.254,350.914 207.551,351.400 207.534 C 351.620 207.526,351.749 207.339,351.686 207.118 C 351.623 206.897,351.767 206.481,352.005 206.194 C 352.320 205.815,352.307 205.589,351.958 205.374 C 351.666 205.194,351.581 205.245,351.741 205.504 M176.596 208.407 C 176.458 208.630,176.177 208.709,175.972 208.583 C 175.768 208.456,175.600 208.554,175.600 208.800 C 175.600 209.046,175.432 209.144,175.228 209.017 C 175.023 208.891,174.742 208.970,174.604 209.193 C 174.167 209.901,175.472 209.633,176.456 208.813 C 176.975 208.381,177.276 208.021,177.124 208.013 C 176.972 208.006,176.734 208.183,176.596 208.407 M184.133 208.606 C 184.133 208.933,184.222 209.112,184.330 209.003 C 184.438 208.895,184.768 209.007,185.063 209.252 C 185.478 209.597,185.600 209.536,185.600 208.982 C 185.600 208.589,185.482 208.385,185.337 208.530 C 185.192 208.675,184.862 208.617,184.603 208.403 C 184.279 208.134,184.133 208.197,184.133 208.606 M94.606 209.590 C 94.291 210.100,94.946 210.404,95.553 210.029 C 95.954 209.781,95.931 209.659,95.446 209.473 C 95.105 209.342,94.727 209.395,94.606 209.590 M107.782 210.029 C 107.585 210.347,107.641 210.422,107.938 210.238 C 108.198 210.078,108.400 210.183,108.400 210.480 C 108.400 211.007,109.938 212.196,110.235 211.899 C 110.321 211.812,109.873 211.245,109.240 210.638 C 108.404 209.837,108.004 209.670,107.782 210.029 M170.800 213.333 C 170.800 213.700,170.590 214.000,170.333 214.000 C 170.077 214.000,169.985 214.118,170.130 214.263 C 170.275 214.408,170.217 214.738,170.003 214.997 C 169.735 215.319,169.792 215.467,170.184 215.467 C 170.498 215.467,170.730 215.362,170.699 215.233 C 170.667 215.105,170.784 214.581,170.957 214.070 C 171.131 213.558,171.167 213.033,171.037 212.903 C 170.906 212.773,170.800 212.967,170.800 213.333 M89.856 217.878 C 89.491 218.243,89.551 219.703,89.957 220.344 C 90.196 220.722,90.355 220.438,90.474 219.420 C 90.640 217.997,90.381 217.352,89.856 217.878 M344.549 219.118 C 344.810 219.540,343.488 220.555,343.136 220.203 C 343.044 220.110,342.941 220.387,342.909 220.817 C 342.833 221.819,342.843 221.816,344.158 220.444 C 344.962 219.605,345.130 219.204,344.771 218.982 C 344.461 218.790,344.378 218.841,344.549 219.118 M111.774 220.961 C 111.626 221.553,111.616 222.150,111.753 222.287 C 111.891 222.424,111.721 222.966,111.376 223.492 C 111.032 224.018,110.837 224.663,110.943 224.924 C 111.052 225.192,111.151 225.109,111.168 224.733 C 111.186 224.367,111.388 224.004,111.618 223.927 C 111.848 223.851,112.059 223.341,112.089 222.794 C 112.118 222.247,112.318 221.567,112.534 221.283 C 112.794 220.940,112.778 220.618,112.485 220.325 C 112.164 220.004,111.971 220.177,111.774 220.961 M335.342 225.786 C 334.881 226.108,334.433 226.333,334.346 226.286 C 334.258 226.239,334.347 226.380,334.543 226.600 C 334.777 226.862,334.964 226.827,335.084 226.498 C 335.185 226.221,335.433 226.097,335.634 226.221 C 335.835 226.345,336.000 226.270,336.000 226.053 C 336.000 225.836,336.315 225.576,336.700 225.476 C 337.221 225.339,337.244 225.281,336.789 225.246 C 336.453 225.221,335.802 225.464,335.342 225.786 M173.580 228.176 C 173.843 228.493,174.330 228.648,174.663 228.521 C 175.154 228.332,175.167 228.225,174.734 227.950 C 173.800 227.359,173.027 227.510,173.580 228.176 M329.212 227.984 C 328.888 228.189,328.763 228.496,328.933 228.667 C 329.104 228.837,329.394 228.734,329.577 228.437 C 329.771 228.124,330.123 228.029,330.417 228.211 C 330.747 228.414,330.824 228.362,330.638 228.062 C 330.296 227.507,329.992 227.491,329.212 227.984 M176.400 229.587 C 176.400 229.801,176.670 229.871,177.000 229.745 C 177.330 229.618,177.600 229.714,177.600 229.957 C 177.600 230.201,177.802 230.400,178.049 230.400 C 178.359 230.400,178.344 230.215,178.000 229.800 C 177.443 229.129,176.400 228.990,176.400 229.587 M100.764 230.031 C 100.353 230.291,100.499 230.389,101.300 230.394 C 102.494 230.401,102.710 230.204,101.864 229.880 C 101.569 229.767,101.074 229.835,100.764 230.031 M179.964 230.031 C 179.553 230.291,179.699 230.389,180.500 230.394 C 181.694 230.401,181.910 230.204,181.064 229.880 C 180.769 229.767,180.274 229.835,179.964 230.031 M318.012 231.584 C 317.688 231.789,317.563 232.096,317.733 232.267 C 317.904 232.437,318.194 232.334,318.377 232.037 C 318.571 231.724,318.923 231.629,319.217 231.811 C 319.547 232.014,319.624 231.962,319.438 231.662 C 319.096 231.107,318.792 231.091,318.012 231.584 M305.612 235.584 C 305.288 235.789,305.163 236.096,305.333 236.267 C 305.504 236.437,305.794 236.334,305.977 236.037 C 306.171 235.724,306.523 235.629,306.817 235.811 C 307.147 236.014,307.224 235.962,307.038 235.662 C 306.696 235.107,306.392 235.091,305.612 235.584 M294.412 239.184 C 294.088 239.389,293.963 239.696,294.133 239.867 C 294.304 240.037,294.594 239.934,294.777 239.637 C 294.971 239.324,295.323 239.229,295.617 239.411 C 295.947 239.614,296.024 239.562,295.838 239.262 C 295.496 238.707,295.192 238.691,294.412 239.184 M270.812 246.784 C 270.488 246.989,270.363 247.296,270.533 247.467 C 270.704 247.637,270.994 247.534,271.177 247.237 C 271.371 246.924,271.723 246.829,272.017 247.011 C 272.347 247.214,272.424 247.162,272.238 246.862 C 271.896 246.307,271.592 246.291,270.812 246.784 M138.583 250.027 C 138.438 250.262,138.022 250.342,137.660 250.204 C 137.143 250.007,137.105 250.058,137.483 250.439 C 137.862 250.822,138.095 250.819,138.566 250.429 C 138.895 250.155,139.381 250.064,139.644 250.227 C 139.948 250.415,140.019 250.354,139.838 250.062 C 139.481 249.484,138.929 249.468,138.583 250.027 M259.612 250.384 C 259.288 250.589,259.163 250.896,259.333 251.067 C 259.504 251.237,259.794 251.134,259.977 250.837 C 260.171 250.524,260.523 250.429,260.817 250.611 C 261.147 250.814,261.224 250.762,261.038 250.462 C 260.696 249.907,260.392 249.891,259.612 250.384 M136.000 250.824 C 136.000 251.057,135.832 251.144,135.628 251.017 C 135.423 250.891,135.125 250.998,134.965 251.256 C 134.760 251.589,134.956 251.651,135.637 251.468 C 136.167 251.327,136.746 251.208,136.924 251.205 C 137.102 251.202,137.136 251.020,137.000 250.800 C 136.673 250.271,136.000 250.287,136.000 250.824 M132.865 252.933 C 132.021 253.803,131.779 254.267,132.169 254.267 C 132.496 254.267,132.680 254.129,132.576 253.961 C 132.472 253.792,132.716 253.417,133.118 253.127 C 133.815 252.625,134.609 251.600,134.302 251.600 C 134.222 251.600,133.575 252.200,132.865 252.933 M147.298 251.884 C 147.021 251.985,146.909 252.252,147.048 252.477 C 147.207 252.735,147.427 252.685,147.644 252.343 C 147.924 251.901,147.989 251.912,147.994 252.404 C 148.000 252.987,149.516 254.218,149.835 253.899 C 150.150 253.583,147.785 251.705,147.298 251.884 M212.591 287.400 C 212.591 306.760,212.640 314.739,212.700 305.130 C 212.760 295.522,212.760 279.682,212.700 269.930 C 212.640 260.179,212.591 268.040,212.591 287.400 M246.984 254.427 C 246.839 254.661,246.853 254.976,247.015 255.127 C 247.177 255.277,247.387 255.185,247.481 254.922 C 247.575 254.660,247.940 254.555,248.291 254.690 C 248.716 254.854,248.834 254.779,248.642 254.468 C 248.281 253.883,247.334 253.860,246.984 254.427 M150.375 254.800 C 150.355 254.910,150.278 255.316,150.205 255.702 C 150.131 256.088,150.219 256.312,150.401 256.199 C 150.583 256.087,150.812 256.221,150.911 256.498 C 151.010 256.774,151.175 256.910,151.278 256.800 C 151.381 256.690,151.229 256.150,150.939 255.600 C 150.649 255.050,150.395 254.690,150.375 254.800 M236.012 257.984 C 235.688 258.189,235.563 258.496,235.733 258.667 C 235.904 258.837,236.194 258.734,236.377 258.437 C 236.571 258.124,236.923 258.029,237.217 258.211 C 237.547 258.414,237.624 258.362,237.438 258.062 C 237.096 257.507,236.792 257.491,236.012 257.984 M234.795 258.700 C 234.793 258.865,234.795 273.068,234.800 290.262 C 234.805 308.436,234.655 321.930,234.440 322.495 C 234.237 323.030,234.210 323.692,234.380 323.967 C 234.594 324.315,234.766 324.182,234.941 323.534 C 235.231 322.461,235.280 258.400,234.991 258.400 C 234.886 258.400,234.798 258.535,234.795 258.700 M129.600 261.110 C 129.600 261.793,129.751 262.446,129.935 262.560 C 130.324 262.800,130.258 260.524,129.864 260.131 C 129.719 259.986,129.600 260.426,129.600 261.110 M130.654 265.513 C 130.543 265.692,130.596 266.070,130.771 266.353 C 131.019 266.754,131.141 266.731,131.327 266.246 C 131.579 265.590,130.998 264.957,130.654 265.513 M140.141 272.455 C 140.658 272.756,141.141 272.760,141.741 272.470 C 142.490 272.107,142.396 272.052,141.000 272.039 C 139.669 272.027,139.525 272.097,140.141 272.455 M99.200 287.213 C 99.200 287.400,99.408 287.681,99.662 287.838 C 99.916 287.995,100.020 287.956,99.894 287.752 C 99.615 287.301,102.807 287.310,103.538 287.762 C 103.821 287.937,104.162 287.972,104.294 287.839 C 104.427 287.707,104.865 287.897,105.268 288.261 C 105.950 288.879,106.000 288.878,106.000 288.238 C 106.000 287.861,105.832 287.656,105.628 287.783 C 105.423 287.909,105.140 287.827,105.000 287.600 C 104.860 287.373,104.569 287.295,104.355 287.428 C 104.140 287.560,103.748 287.497,103.482 287.288 C 102.881 286.813,99.200 286.748,99.200 287.213 M178.406 287.557 C 178.410 287.928,178.537 288.031,178.706 287.800 C 178.868 287.580,179.720 287.400,180.600 287.400 C 181.480 287.400,182.332 287.580,182.494 287.800 C 182.663 288.031,182.790 287.928,182.794 287.557 C 182.799 287.044,182.357 286.914,180.600 286.914 C 178.843 286.914,178.401 287.044,178.406 287.557 M93.200 290.200 C 92.454 290.970,91.967 291.600,92.118 291.600 C 92.269 291.600,92.907 291.062,93.535 290.405 C 94.163 289.748,94.823 289.343,95.003 289.505 C 95.182 289.667,95.199 289.575,95.041 289.300 C 94.662 288.642,94.753 288.598,93.200 290.200 M172.424 290.175 C 171.560 291.094,171.554 291.137,172.317 290.938 C 172.762 290.821,173.216 290.383,173.326 289.963 C 173.580 288.988,173.526 289.001,172.424 290.175 M187.600 289.634 C 187.600 290.197,189.124 291.409,189.437 291.096 C 189.525 291.008,189.148 290.514,188.598 289.999 C 187.901 289.343,187.600 289.233,187.600 289.634 M190.286 293.000 C 190.381 293.440,190.475 293.995,190.496 294.233 C 190.516 294.472,190.770 294.667,191.060 294.667 C 191.419 294.667,191.462 294.516,191.197 294.197 C 190.983 293.938,190.925 293.608,191.070 293.463 C 191.215 293.318,191.137 293.200,190.896 293.200 C 190.655 293.200,190.381 292.975,190.287 292.700 C 190.192 292.425,190.192 292.560,190.286 293.000 M191.365 295.500 C 191.520 295.775,191.457 296.000,191.224 296.000 C 190.991 296.000,190.800 296.270,190.800 296.600 C 190.800 296.930,190.965 297.200,191.167 297.200 C 191.369 297.200,191.484 297.825,191.423 298.589 C 191.363 299.352,191.468 299.882,191.657 299.765 C 192.155 299.457,192.078 297.295,191.557 296.974 C 191.248 296.783,191.278 296.599,191.654 296.367 C 192.105 296.088,192.102 295.948,191.638 295.517 C 191.223 295.131,191.154 295.126,191.365 295.500 M90.262 296.731 C 89.470 297.607,89.411 298.789,90.113 299.749 C 90.555 300.353,90.604 300.224,90.470 298.818 C 90.381 297.887,90.526 296.930,90.806 296.592 C 91.512 295.742,91.051 295.860,90.262 296.731 M169.630 300.164 C 169.309 300.550,169.294 300.811,169.581 300.988 C 169.811 301.131,170.014 301.192,170.031 301.124 C 170.419 299.555,170.324 299.328,169.630 300.164 M91.040 303.506 C 91.282 303.668,91.583 304.070,91.708 304.400 C 91.861 304.801,91.947 304.701,91.968 304.100 C 91.990 303.495,91.770 303.202,91.300 303.206 C 90.868 303.210,90.769 303.325,91.040 303.506 M92.000 305.363 C 92.000 305.411,92.555 305.979,93.233 306.625 L 94.466 307.800 93.984 306.734 C 93.622 305.931,92.000 304.811,92.000 305.363 M188.433 306.367 C 188.012 306.788,187.533 307.013,187.369 306.867 C 187.206 306.720,187.210 306.839,187.378 307.130 C 187.641 307.586,189.600 306.352,189.600 305.730 C 189.600 305.409,189.140 305.660,188.433 306.367 M175.058 308.208 C 175.191 308.553,175.395 308.738,175.513 308.621 C 175.630 308.503,175.968 308.607,176.263 308.852 C 176.558 309.097,176.803 309.141,176.806 308.949 C 176.809 308.757,176.980 308.865,177.184 309.188 C 177.389 309.512,177.686 309.647,177.845 309.488 C 178.190 309.144,177.877 308.774,177.137 308.651 C 176.841 308.602,176.199 308.341,175.709 308.072 C 174.946 307.652,174.852 307.671,175.058 308.208 M185.632 308.300 C 185.651 308.722,185.744 308.801,185.866 308.498 C 185.977 308.221,186.221 308.089,186.407 308.204 C 186.593 308.319,186.858 308.230,186.996 308.007 C 187.135 307.781,186.880 307.600,186.424 307.600 C 185.894 307.600,185.611 307.850,185.632 308.300 M99.606 309.300 C 99.599 310.072,102.535 310.353,102.985 309.624 C 103.124 309.400,102.632 309.343,101.769 309.483 C 100.757 309.647,100.213 309.549,99.966 309.159 C 99.683 308.711,99.611 308.739,99.606 309.300 M179.056 309.690 C 179.302 310.088,181.894 310.096,182.136 309.700 C 182.238 309.535,181.543 309.396,180.592 309.390 C 179.642 309.385,178.951 309.520,179.056 309.690 M73.050 328.720 C 72.886 328.984,72.839 329.200,72.944 329.200 C 73.049 329.200,73.419 329.309,73.767 329.443 C 74.121 329.579,74.400 329.480,74.400 329.219 C 74.400 328.963,74.235 328.855,74.034 328.979 C 73.833 329.103,73.596 328.988,73.507 328.722 C 73.382 328.347,73.280 328.347,73.050 328.720 M76.400 329.900 C 76.400 330.065,105.453 330.200,140.962 330.200 C 176.471 330.200,205.440 330.065,205.338 329.900 C 205.236 329.735,176.183 329.600,140.776 329.600 C 105.369 329.600,76.400 329.735,76.400 329.900 M232.086 333.388 C 232.243 333.563,232.108 334.081,231.786 334.542 C 231.093 335.531,231.041 336.000,231.624 336.000 C 231.857 336.000,231.936 335.820,231.800 335.600 C 231.664 335.380,231.773 335.200,232.043 335.200 C 232.313 335.200,232.415 335.082,232.270 334.937 C 232.125 334.792,232.194 334.448,232.423 334.172 C 232.717 333.818,232.687 333.583,232.319 333.371 C 232.034 333.207,231.929 333.214,232.086 333.388 M221.500 346.433 C 221.115 346.855,220.980 347.200,221.200 347.200 C 221.420 347.200,221.717 347.245,221.860 347.300 C 222.003 347.355,222.182 346.995,222.258 346.500 C 222.419 345.441,222.407 345.440,221.500 346.433 M63.495 348.677 C 63.107 348.778,62.895 349.030,63.023 349.237 C 63.151 349.444,63.423 349.509,63.628 349.383 C 63.832 349.256,64.000 349.354,64.000 349.600 C 64.000 349.846,64.180 349.936,64.400 349.800 C 64.620 349.664,64.800 349.743,64.800 349.976 C 64.800 350.209,64.950 350.400,65.133 350.400 C 65.317 350.400,65.467 350.140,65.467 349.822 C 65.467 349.504,65.362 349.256,65.233 349.270 C 64.447 349.354,63.987 349.145,64.200 348.800 C 64.336 348.580,64.392 348.421,64.324 348.446 C 64.256 348.472,63.883 348.576,63.495 348.677 M213.200 351.000 C 212.856 351.415,212.841 351.600,213.151 351.600 C 213.398 351.600,213.600 351.401,213.600 351.157 C 213.600 350.914,213.879 350.822,214.221 350.953 C 214.577 351.089,214.737 351.022,214.597 350.795 C 214.251 350.235,213.777 350.305,213.200 351.000 M209.456 351.478 C 209.005 351.928,209.181 352.400,209.800 352.400 C 210.130 352.400,210.400 352.231,210.400 352.024 C 210.400 351.519,209.775 351.158,209.456 351.478 M73.689 352.222 C 73.959 352.492,208.044 352.489,208.315 352.219 C 208.427 352.106,178.136 352.014,141.000 352.014 C 103.864 352.014,73.574 352.108,73.689 352.222 " stroke="none" fill="#383434" fill-rule="evenodd"></path></g></svg>