<?xml version="1.0" ?><!DOCTYPE svg  PUBLIC '-//W3C//DTD SVG 1.1//EN'  'http://www.w3.org/Graphics/SVG/1.1/DTD/svg11.dtd'><svg enable-background="new 0 0 512 512" height="512px" id="Layer_1" version="1.1" viewBox="0 0 512 512" width="512px" xml:space="preserve" xmlns="http://www.w3.org/2000/svg" xmlns:xlink="http://www.w3.org/1999/xlink"><path d="M468,117.499L357.944,8H115.581C98.792,8,85,20.858,85,37.646v156.6c0-0.03,1.023-0.246,1.703-0.246H100  V37.646C100,29.265,107.2,23,115.581,23h235.583L356,27.535v61.593C356,105.847,369.596,119,386.315,119h61.593l4.092,4.795v349.553  c0,8.381-5.822,15.652-14.203,15.652H115.581C107.2,489,100,481.728,100,473.348V413H86.703c-0.68,0-1.703,0.037-1.703,0.007v60.34  C85,490.136,98.792,504,115.581,504h322.217C454.586,504,468,490.136,468,473.348V117.499z M386.315,104  C377.934,104,371,97.509,371,89.128V44.232v-0.291L431.502,104H386.315z" fill="#333333"/><path d="M373.602,209H74.398C57.61,209,44,222.61,44,239.398v127.204C44,383.39,57.61,397,74.398,397h299.204  C390.39,397,404,383.39,404,366.602V239.398C404,222.61,390.39,209,373.602,209z M144.059,333.241c4.262,0,8.636-0.594,12.635-1.779  c3.998-1.187,7.306-2.614,12.306-4.285v22.016c-9,3.56-17.381,5.339-27.531,5.339c-14.545,0-25.818-4.219-33.573-12.655  c-7.756-8.438-11.695-20.631-11.695-36.582c0-9.975,1.848-18.741,5.605-26.3c3.757-7.557,9.146-13.369,16.199-17.434  s15.339-6.097,24.875-6.097c10.415,0,20.363,2.264,29.855,6.789l-7.977,20.5c-3.559-1.67-7.12-3.076-10.679-4.219  c-3.56-1.143-7.383-1.714-11.47-1.714c-6.196,0-11.03,2.538-14.501,7.613c-3.472,5.075-5.207,12.073-5.207,20.993  C122.901,323.97,129.954,333.241,144.059,333.241z M215.246,287.563c1.955,1.494,7.261,4.218,15.918,8.173  c8.305,3.735,14.072,7.745,17.302,12.029c3.229,4.284,4.845,9.679,4.845,16.182c0,5.977-1.517,11.282-4.548,15.918  c-3.032,4.637-7.405,8.239-13.117,10.81c-5.713,2.571-12.415,3.856-20.104,3.856c-6.417,0-11.706-0.451-16.057-1.352  c-4.35-0.899-8.486-2.472-13.486-4.713v-23.201c5,2.549,10.036,4.538,15.398,5.965c5.36,1.429,10.236,2.143,14.719,2.143  c3.866,0,6.677-0.67,8.48-2.011c1.801-1.34,2.691-3.064,2.691-5.174c0-1.318-0.368-2.472-1.093-3.461  c-0.725-0.988-1.893-1.987-3.497-2.999c-1.604-1.01-5.879-3.075-12.821-6.195c-6.285-2.856-10.998-5.624-14.139-8.306  c-3.142-2.68-5.471-5.756-6.987-9.228c-1.516-3.471-2.274-7.58-2.274-12.326c0-8.875,3.23-15.796,9.689-20.763  c6.459-4.965,15.335-7.448,26.629-7.448c9.975,0,20.147,2.307,30.518,6.92l-7.976,20.104c-9.009-4.13-16.787-6.196-23.334-6.196  c-3.384,0-5.845,0.593-7.382,1.779c-1.539,1.187-2.307,2.659-2.307,4.417C212.313,284.378,213.291,286.069,215.246,287.563z   M322.59,353h-30.649L260.5,257h29.266l13.117,48.766c2.724,10.854,4.218,18.374,4.482,22.636c0.307-3.075,0.923-6.94,1.846-11.553  c0.923-4.614,1.735-8.173,2.439-10.809L325.029,257h29.134L322.59,353z" fill="#333333"/></svg>