<?xml version="1.0" encoding="UTF-8"?>
<svg version="1.1" xmlns="http://www.w3.org/2000/svg" width="181" height="180">
<path d="M0 0 C0.88897476 -0.00671722 1.77794952 -0.01343445 2.69386292 -0.02035522 C5.61204733 -0.03924203 8.53000057 -0.04325483 11.44824219 -0.04541016 C13.49314465 -0.05184499 15.5380462 -0.05857385 17.58294678 -0.06558228 C21.86309949 -0.07753209 26.14317164 -0.08126551 30.42333984 -0.08007812 C35.88142678 -0.07987517 41.33899168 -0.10716342 46.79695511 -0.14162254 C51.01971768 -0.16396873 55.2423562 -0.16791329 59.46517181 -0.16685867 C61.47601874 -0.16920355 63.48686968 -0.17796359 65.49765778 -0.19352341 C83.24255485 -0.31797442 98.56076307 2.34984371 112.05761719 15.04052734 C122.94010348 26.80537739 127.88234697 40.57886521 127.90625 56.47631836 C127.9112149 57.27561264 127.91617981 58.07490692 127.92129517 58.89842224 C127.93584155 61.53043497 127.94270782 64.16238734 127.94824219 66.79443359 C127.95248325 68.15194386 127.95248325 68.15194386 127.95681 69.53687859 C127.97177578 74.33049687 127.98102047 79.12408529 127.98535156 83.91772461 C127.9908182 88.83759602 128.01481544 93.75718816 128.04332352 98.67697239 C128.06207374 102.48714459 128.06716214 106.29725133 128.06868744 110.10746574 C128.07168894 111.91931616 128.07963136 113.73116614 128.09287262 115.54297066 C128.22054813 134.36301676 125.66488892 150.72454774 112.33911133 165.05224609 C102.97582631 174.43893543 90.05019041 180.53887351 76.73231506 180.70822144 C75.91750168 180.70371979 75.10268829 180.69921814 74.26318359 180.69458008 C73.37391678 180.70144333 72.48464996 180.70830658 71.56843567 180.71537781 C68.6610161 180.73351359 65.75414307 180.72982699 62.84667969 180.72412109 C60.80463488 180.72868951 58.76259161 180.73399704 56.72055054 180.74000549 C52.45230848 180.7489109 48.18425378 180.74654313 43.91601562 180.73657227 C38.4736504 180.72509113 33.03193487 180.74529449 27.58965492 180.7744894 C23.37545736 180.79292565 19.16141333 180.7925441 14.94718552 180.78685188 C12.94192977 180.78669955 10.93666303 180.7926704 8.93144608 180.80514336 C-9.60529577 180.90421257 -23.99518529 177.76292269 -37.89550781 164.74755859 C-48.57596954 153.62502478 -53.5785061 140.64771531 -53.52954102 125.36523438 C-53.53465195 124.52327515 -53.53976288 123.68131592 -53.54502869 122.81384277 C-53.55881322 120.05860076 -53.55797634 117.30361203 -53.55566406 114.54833984 C-53.55955715 112.61457224 -53.56389308 110.68080547 -53.56864929 108.74703979 C-53.57608761 104.70405296 -53.57583763 100.66115348 -53.57055664 96.61816406 C-53.56476575 91.46163261 -53.58169558 86.30546078 -53.60490131 81.14898872 C-53.61970125 77.1578872 -53.62050185 73.16687103 -53.61739159 69.17574692 C-53.61790167 67.27572798 -53.62308002 65.37570386 -53.63320351 63.47571182 C-53.72006507 44.89516389 -50.9262173 29.44133545 -37.54003906 15.47412109 C-26.84845628 5.25771977 -14.78570857 -0.01630327 0 0 Z " fill="#063737" transform="translate(53.2548828125,-0.29052734375)"/>
<path d="M0 0 C3.61780912 3.05345843 6.85255864 6.46889762 10 10 C6.30453017 13.00873908 2.51279694 15.85286981 -1.3671875 18.6171875 C-1.97617889 19.05134979 -2.58517029 19.48551208 -3.21261597 19.93283081 C-10.08765805 24.80747747 -17.09808094 29.47329222 -24.125 34.125 C-27.0057338 36.03436467 -29.88582336 37.94469848 -32.765625 39.85546875 C-33.87748672 40.59268913 -33.87748672 40.59268913 -35.0118103 41.34480286 C-39.86416682 44.56687577 -44.69663132 47.81699357 -49.51748657 51.08599854 C-52.82882824 53.33090145 -56.14519726 55.56831713 -59.46185303 57.80535889 C-61.06769179 58.89147403 -62.6711024 59.98118809 -64.27203369 61.07452393 C-66.50589636 62.59943861 -68.74793899 64.11152255 -70.9921875 65.62109375 C-71.65941833 66.08139481 -72.32664917 66.54169586 -73.01409912 67.01594543 C-74.62540869 68.09075407 -76.30829959 69.05677051 -78 70 C-81 69 -81 69 -82.09765625 67.28515625 C-84.54548849 61.64622288 -86.26063482 56.1192197 -87 50 C-87.21011719 49.05511719 -87.42023438 48.11023438 -87.63671875 47.13671875 C-86.71638161 42.60278792 -84.22313328 41.43062023 -80.49707031 38.90014648 C-79.52866211 38.27309814 -78.56025391 37.6460498 -77.5625 37 C-76.55928711 36.32718994 -75.55607422 35.65437988 -74.52246094 34.96118164 C-72.27783089 33.4596515 -70.02932836 31.96691649 -67.77197266 30.48486328 C-63.66667164 27.78696988 -59.5892256 25.04824122 -55.51171875 22.30859375 C-43.75134651 14.41854271 -31.99136011 6.53647817 -20 -1 C-35.30509275 5.80668624 -50.50673684 12.83376738 -65.70336914 19.87841797 C-67.3634417 20.64681488 -69.02351648 21.41520701 -70.68359375 22.18359375 C-71.82947464 22.71594383 -71.82947464 22.71594383 -72.99850464 23.25904846 C-76.63163529 24.93972566 -80.26157372 26.56242737 -84 28 C-82.41406797 17.76520609 -75.57914867 8.456014 -67.61328125 2.09375 C-62.67478801 -1.47588064 -57.63427377 -4.65960936 -52 -7 C-50.93265625 -7.44859375 -50.93265625 -7.44859375 -49.84375 -7.90625 C-33.3836498 -13.83188607 -14.091038 -9.61881939 0 0 Z " fill="#FBFBFB" transform="translate(123,46)"/>
<path d="M0 0 C1.8269043 0.79614258 1.8269043 0.79614258 3.05737305 2.94067383 C3.37319336 3.82110352 3.68901367 4.7015332 4.0144043 5.60864258 C4.33795898 6.48133789 4.66151367 7.3540332 4.99487305 8.25317383 C7.00085313 14.38412705 8.50072374 20.41796729 6.8269043 26.79614258 C3.18530755 30.80666965 -1.30099923 33.32702775 -5.9230957 36.04614258 C-7.2555628 36.87323085 -8.58510522 37.7050472 -9.91186523 38.54125977 C-12.77265398 40.34056964 -15.64471116 42.11984231 -18.52368164 43.88989258 C-26.01505391 48.53214084 -33.29948179 53.49241169 -40.61169434 58.40979004 C-44.51830854 61.03357697 -48.43584056 63.6409365 -52.3527832 66.24926758 C-53.68340321 67.13623145 -55.01397539 68.02326706 -56.34448242 68.91040039 C-57.2779248 69.53269531 -58.21136719 70.15499023 -59.1730957 70.79614258 C-58.28315918 70.37856689 -57.39322266 69.96099121 -56.47631836 69.53076172 C-46.86478056 65.02868577 -37.21560316 60.614022 -27.5480957 56.23364258 C-25.43590435 55.27609961 -23.32382725 54.31830673 -21.2119751 53.36001587 C-19.84009363 52.73758182 -18.46798696 52.11564384 -17.09564209 51.49423218 C-13.83025065 50.01338278 -10.57194057 48.51980152 -7.32641602 46.99584961 C-6.15433594 46.44654785 -4.98225586 45.89724609 -3.7746582 45.33129883 C-2.73905762 44.84153564 -1.70345703 44.35177246 -0.63647461 43.84716797 C1.8269043 42.79614258 1.8269043 42.79614258 3.8269043 42.79614258 C2.41457299 54.09479306 -6.03694732 62.51141736 -14.3605957 69.54614258 C-26.73505348 78.73984184 -41.11982724 81.08571996 -56.1730957 79.79614258 C-66.88754881 77.63597058 -78.7445757 72.01192421 -86.1730957 63.79614258 C-87.18723591 62.13804203 -88.18865378 60.47204588 -89.1730957 58.79614258 C-84.40268046 55.56635799 -79.6317491 52.33733663 -74.8605957 49.10864258 C-74.12156006 48.60848633 -73.38252441 48.10833008 -72.62109375 47.59301758 C-62.98457709 41.07192716 -53.34232495 34.55943234 -43.69262695 28.05786133 C-42.73345871 27.41150223 -41.77429047 26.76514313 -40.78605652 26.09919739 C-36.06516659 22.91802182 -31.34363046 19.73781238 -26.62109375 16.55908203 C-25.73955124 15.96505081 -24.85800873 15.37101959 -23.94975281 14.75898743 C-22.2517625 13.61519582 -20.55282956 12.47280206 -18.8528595 11.33195496 C-15.47828076 9.06112953 -12.11874046 6.78637909 -8.84887695 4.36645508 C-7.96586914 3.71418945 -7.08286133 3.06192383 -6.1730957 2.38989258 C-5.1212207 1.58068359 -5.1212207 1.58068359 -4.0480957 0.75512695 C-2.1730957 -0.20385742 -2.1730957 -0.20385742 0 0 Z " fill="#FBFBFB" transform="translate(137.173095703125,64.203857421875)"/>
<path d="M0 0 C0.99 0.33 1.98 0.66 3 1 C-0.12488567 3.52394612 -3.31314387 5.39701907 -7 7 C-7.66 6.67 -8.32 6.34 -9 6 C-7.57140593 4.96674014 -6.13177617 3.94872366 -4.6875 2.9375 C-3.88699219 2.36902344 -3.08648437 1.80054688 -2.26171875 1.21484375 C-1.51535156 0.81394531 -0.76898438 0.41304687 0 0 Z " fill="#486C6C" transform="translate(84,130)"/>
</svg>
