<?xml version="1.0" ?><svg data-name="Layer 1" id="Layer_1" viewBox="0 0 25 25" xmlns="http://www.w3.org/2000/svg"><defs><style>.cls-1{fill:#494b4c;}</style></defs><title/><path class="cls-1" d="M23.75,0H11.25A1.25,1.25,0,0,0,10,1.25V10H1.25A1.25,1.25,0,0,0,0,11.25v12.5A1.25,1.25,0,0,0,1.25,25h12.5A1.25,1.25,0,0,0,15,23.75V15h8.75A1.25,1.25,0,0,0,25,13.75V1.25A1.25,1.25,0,0,0,23.75,0ZM14,23.75a.25.25,0,0,1-.25.25H1.25A.25.25,0,0,1,1,23.75V11.25A.25.25,0,0,1,1.25,11h12.5a.25.25,0,0,1,.25.25Zm10-10a.25.25,0,0,1-.25.25H15V11.25A1.25,1.25,0,0,0,13.75,10H11V1.25A.25.25,0,0,1,11.25,1h12.5a.25.25,0,0,1,.25.25ZM1,8H0A5,5,0,0,1,5,3h.79L3.65.85,4.35.15l3,3a.5.5,0,0,1,0,.71l-3,3-.71-.71L5.79,4H5A4,4,0,0,0,1,8Zm23,9h1a5,5,0,0,1-5,5h-.79l2.15,2.15-.71.71-3-3a.5.5,0,0,1,0-.71l3-3,.71.71L19.21,21H20A4,4,0,0,0,24,17Z"/></svg>