<svg id="svg" version="1.1" xmlns="http://www.w3.org/2000/svg" xmlns:xlink="http://www.w3.org/1999/xlink" width="400" height="400" viewBox="0, 0, 400,400"><g id="svgg"><path id="path0" d="M174.000 0.777 C 167.882 2.735,162.435 8.320,160.655 14.462 C 160.059 16.519,160.000 23.176,160.000 88.362 L 160.000 160.000 88.362 160.000 C 23.176 160.000,16.519 160.059,14.462 160.655 C 8.158 162.482,2.457 168.182,0.650 174.462 C -0.348 177.933,-0.348 382.067,0.650 385.538 C 2.457 391.818,8.158 397.518,14.462 399.345 C 17.937 400.352,222.063 400.352,225.538 399.345 C 231.842 397.518,237.543 391.818,239.350 385.538 C 239.939 383.488,240.000 376.592,240.000 311.638 L 240.000 240.000 311.638 240.000 C 376.824 240.000,383.481 239.941,385.538 239.345 C 391.842 237.518,397.543 231.818,399.350 225.538 C 400.348 222.067,400.348 17.933,399.350 14.462 C 397.543 8.182,391.842 2.482,385.538 0.655 C 381.923 -0.392,177.287 -0.275,174.000 0.777 M63.803 7.997 L 58.217 13.593 66.825 22.297 C 71.559 27.083,79.155 34.780,83.706 39.400 L 91.980 47.800 81.490 48.035 C 65.269 48.398,57.317 50.102,45.400 55.769 C 18.877 68.382,0.000 97.203,0.000 125.083 L 0.000 128.000 8.200 128.000 L 16.400 128.000 16.407 125.100 C 16.450 107.792,26.921 87.921,41.721 77.062 C 54.096 67.982,64.727 64.676,83.200 64.161 L 92.200 63.910 75.002 81.155 L 57.803 98.400 63.702 104.299 L 69.600 110.197 93.609 86.199 C 118.824 60.995,119.540 60.217,119.883 57.655 C 120.531 52.828,122.337 55.003,94.677 27.300 C 81.003 13.605,69.719 2.400,69.602 2.400 C 69.485 2.400,66.876 4.918,63.803 7.997 M380.904 16.422 C 384.093 17.308,383.788 6.840,383.903 119.128 C 383.974 187.961,383.875 219.778,383.587 220.847 C 382.717 224.079,389.690 223.787,310.518 223.904 L 240.000 224.009 240.000 200.366 C 240.000 171.638,240.004 171.663,233.916 165.762 C 227.901 159.933,228.300 160.000,199.634 160.000 L 175.991 160.000 176.096 89.482 C 176.212 10.839,175.964 17.295,178.902 16.447 C 180.790 15.902,378.943 15.877,380.904 16.422 M220.904 176.422 C 224.096 177.309,223.800 166.711,223.800 280.000 C 223.800 393.289,224.096 382.691,220.904 383.578 C 218.801 384.162,21.199 384.162,19.096 383.578 C 15.904 382.691,16.200 393.289,16.200 280.000 C 16.200 167.224,15.937 177.303,18.902 176.447 C 20.790 175.902,218.943 175.877,220.904 176.422 M383.587 274.900 C 383.511 292.314,373.110 312.055,358.279 322.938 C 345.939 331.992,335.167 335.344,316.800 335.845 L 307.800 336.090 324.902 318.941 L 342.003 301.793 336.200 296.000 L 330.396 290.206 306.172 314.403 C 278.105 342.439,280.200 340.050,280.200 344.033 C 280.200 348.204,278.988 346.808,306.391 374.199 L 330.400 398.197 336.298 392.299 L 342.197 386.400 325.000 369.200 L 307.803 352.000 316.818 352.000 C 338.580 352.000,353.399 347.225,369.377 335.066 C 387.367 321.375,400.000 296.561,400.000 274.917 L 400.000 272.000 391.800 272.000 L 383.600 272.000 383.587 274.900 " stroke="none" fill="#4c4c4c" fill-rule="evenodd"></path><path id="path1" d="" stroke="none" fill="#504c4c" fill-rule="evenodd"></path><path id="path2" d="" stroke="none" fill="#504c4c" fill-rule="evenodd"></path><path id="path3" d="" stroke="none" fill="#504c4c" fill-rule="evenodd"></path><path id="path4" d="" stroke="none" fill="#504c4c" fill-rule="evenodd"></path></g></svg>