<svg version="1.1" id="Layer_1" xmlns="http://www.w3.org/2000/svg" xmlns:xlink="http://www.w3.org/1999/xlink" x="0px" y="0px"
	 width="100%" viewBox="0 0 800 801" enable-background="new 0 0 800 801" xml:space="preserve">
<path fill="#73C41D" opacity="1.000000" stroke="none" 
	d="
M0.999999,364.000000 
	C1.000000,363.555542 1.000000,363.111115 1.378255,362.192627 
	C2.501766,357.773926 3.284553,353.835876 3.985648,349.883362 
	C6.716187,334.489624 8.474803,318.849518 12.334841,303.745697 
	C20.031612,273.629242 30.734486,244.556137 45.407494,216.990753 
	C57.007576,195.198288 70.074745,174.472916 85.312393,155.008163 
	C101.007896,134.958542 118.290291,116.569229 137.501785,99.859818 
	C154.320114,85.231888 172.133850,72.090149 191.062042,60.333141 
	C215.090851,45.407970 240.412399,33.295151 267.081940,23.944334 
	C287.048096,16.943840 307.253510,10.769686 328.285797,7.936847 
	C344.820679,5.709764 361.421448,3.973154 377.987976,1.977465 
	C379.344879,1.814005 380.663574,1.333298 382.000000,1.000000 
	C394.354218,1.000000 406.708466,1.000000 419.734070,1.385853 
	C434.616730,3.178309 448.988586,3.691669 463.000153,6.209767 
	C482.001099,9.624534 500.940674,13.812479 519.519958,19.042295 
	C548.617126,27.232761 575.935730,39.827248 602.133179,54.960052 
	C631.672546,72.023323 658.517944,92.644791 682.709961,116.526711 
	C694.973145,128.632690 705.887146,142.161972 716.877686,155.487671 
	C735.006348,177.467987 749.382019,201.863007 761.856873,227.432953 
	C774.456360,253.258377 784.200928,280.106873 790.451782,308.132202 
	C793.533447,321.948669 795.512573,336.010468 798.014771,349.956940 
	C798.975342,355.310791 800.002930,360.652679 801.000000,366.000000 
	C801.000000,388.687561 801.000000,411.375122 800.624695,434.716522 
	C799.835327,438.286774 799.461365,441.209564 799.000671,444.118591 
	C796.296265,461.195740 794.521484,478.488892 790.641907,495.295746 
	C784.011963,524.017883 773.963013,551.719177 760.860352,578.151672 
	C751.447815,597.139771 740.664246,615.359863 728.216187,632.622437 
	C712.106384,654.963257 694.498047,675.816467 674.190857,694.539429 
	C655.807922,711.488342 636.651001,727.395874 615.155029,740.053345 
	C596.362915,751.118774 577.115967,761.642212 557.258789,770.608643 
	C533.706482,781.243713 508.877350,788.893982 483.431763,793.582458 
	C464.640442,797.044861 445.495850,798.587158 426.513641,801.023743 
	C425.320312,801.176941 424.170227,801.666809 423.000000,802.000000 
	C408.645782,802.000000 394.291534,802.000000 379.267090,801.614807 
	C371.177582,800.805786 363.684296,800.897705 356.355194,799.845703 
	C342.977875,797.925415 329.645630,795.590454 316.387848,792.958496 
	C287.421112,787.207947 259.623901,777.752075 232.855865,765.349121 
	C211.829529,755.606750 191.750702,744.163391 172.660400,730.972656 
	C154.384583,718.344666 137.220871,704.311157 121.496857,688.713928 
	C109.702316,677.014465 98.941559,664.234558 88.154625,651.566040 
	C70.309456,630.608215 55.967384,607.253113 43.511837,582.814636 
	C32.355949,560.926086 23.466541,538.083374 16.620203,514.410156 
	C9.943716,491.324249 5.061429,467.968719 2.921840,444.031372 
	C2.827161,442.972137 1.664954,442.008270 1.000000,441.000000 
	C1.000000,440.555542 1.000000,440.111115 1.356782,439.176666 
	C1.475709,436.791107 1.237853,434.895569 0.999999,433.000000 
	C1.000000,412.645782 1.000000,392.291534 1.362507,371.303833 
	C1.483342,368.446869 1.241670,366.223450 0.999999,364.000000 
M212.841751,215.378021 
	C212.389969,215.328232 211.938187,215.278442 211.486404,215.228668 
	C211.759003,215.709457 212.031601,216.190231 212.746857,217.174667 
	C222.851257,230.224594 233.407166,242.953613 242.961044,256.394867 
	C260.025421,280.402557 273.190552,306.685852 285.984314,333.130554 
	C288.252502,337.818909 290.074463,342.723145 292.102509,347.527679 
	C291.697693,347.739227 291.292877,347.950806 290.888031,348.162354 
	C265.639801,324.692291 244.140244,296.999756 211.757019,281.745026 
	C180.859314,267.190033 150.008499,253.128342 114.479912,248.932098 
	C123.694908,257.405914 132.156906,264.987488 140.390442,272.809540 
	C150.504059,282.417755 160.824478,291.855682 170.332397,302.042145 
	C182.458130,315.033234 193.706696,328.838287 205.617233,342.036316 
	C217.992401,355.749207 233.863907,363.893555 251.012253,370.159546 
	C263.780457,374.825012 276.847351,377.873749 290.209381,379.954651 
	C298.353088,381.222900 306.492157,382.520905 314.722870,383.819672 
	C314.820557,383.061218 315.047089,382.537659 314.918427,382.124756 
	C307.674530,358.875397 300.114594,335.720032 293.207520,312.371429 
	C285.647675,286.816132 272.963715,264.254822 254.449417,245.229340 
	C248.012512,238.614700 240.096817,233.356445 232.505402,227.973892 
	C226.298141,223.572754 219.568939,219.907745 212.841751,215.378021 
M601.535034,434.034241 
	C599.159302,427.310089 597.188904,420.408203 594.332397,413.894867 
	C585.415710,393.562805 572.178589,376.443207 554.938049,362.423309 
	C544.481689,353.920166 532.992188,347.111145 520.543457,342.058197 
	C502.478363,334.725616 483.758057,330.920715 464.148926,333.010773 
	C455.363831,333.947144 446.459869,334.362946 437.840363,336.135834 
	C418.979919,340.015106 402.102203,348.179138 387.953156,361.531799 
	C384.247711,365.028656 380.411774,368.387207 375.908478,372.468414 
	C375.908478,318.534058 375.908478,265.379517 375.908478,212.229416 
	C362.350769,212.229416 349.416962,212.229416 336.000000,212.229416 
	C336.000000,214.402206 336.000000,216.354004 336.000000,218.305786 
	C336.000000,301.105713 335.890106,383.905975 336.132294,466.705170 
	C336.164337,477.658234 337.284973,488.725739 339.119415,499.533508 
	C344.322052,530.185181 359.645477,555.194519 383.984894,574.315552 
	C408.440948,593.528198 436.937866,602.126099 467.720581,602.804382 
	C477.810059,603.026733 488.195557,602.017822 498.021698,599.741638 
	C529.821899,592.375366 556.775024,576.852417 577.025879,550.556335 
	C595.942566,525.992676 604.975830,497.970764 605.739563,467.395050 
	C606.010071,456.564178 603.284363,445.658478 601.535034,434.034241 
z"/>
<path fill="#FFFFFF" opacity="1.000000" stroke="none" 
	d="
M801.000000,365.531342 
	C800.002930,360.652679 798.975342,355.310791 798.014771,349.956940 
	C795.512573,336.010468 793.533447,321.948669 790.451782,308.132202 
	C784.200928,280.106873 774.456360,253.258377 761.856873,227.432953 
	C749.382019,201.863007 735.006348,177.467987 716.877686,155.487671 
	C705.887146,142.161972 694.973145,128.632690 682.709961,116.526711 
	C658.517944,92.644791 631.672546,72.023323 602.133179,54.960052 
	C575.935730,39.827248 548.617126,27.232761 519.519958,19.042295 
	C500.940674,13.812479 482.001099,9.624534 463.000153,6.209767 
	C448.988586,3.691669 434.616730,3.178309 420.202698,1.385853 
	C546.925476,1.000000 673.851013,1.000000 801.000000,1.000000 
	C801.000000,122.354134 801.000000,243.708405 801.000000,365.531342 
z"/>
<path fill="#FFFFFF" opacity="1.000000" stroke="none" 
	d="
M381.531342,1.000000 
	C380.663574,1.333298 379.344879,1.814005 377.987976,1.977465 
	C361.421448,3.973154 344.820679,5.709764 328.285797,7.936847 
	C307.253510,10.769686 287.048096,16.943840 267.081940,23.944334 
	C240.412399,33.295151 215.090851,45.407970 191.062042,60.333141 
	C172.133850,72.090149 154.320114,85.231888 137.501785,99.859818 
	C118.290291,116.569229 101.007896,134.958542 85.312393,155.008163 
	C70.074745,174.472916 57.007576,195.198288 45.407494,216.990753 
	C30.734486,244.556137 20.031612,273.629242 12.334841,303.745697 
	C8.474803,318.849518 6.716187,334.489624 3.985648,349.883362 
	C3.284553,353.835876 2.501766,357.773926 1.378255,361.859314 
	C1.000000,241.737625 1.000000,121.475250 1.000000,1.000000 
	C127.687485,1.000000 254.375076,1.000000 381.531342,1.000000 
z"/>
<path fill="#FFFFFF" opacity="1.000000" stroke="none" 
	d="
M1.000000,441.468658 
	C1.664954,442.008270 2.827161,442.972137 2.921840,444.031372 
	C5.061429,467.968719 9.943716,491.324249 16.620203,514.410156 
	C23.466541,538.083374 32.355949,560.926086 43.511837,582.814636 
	C55.967384,607.253113 70.309456,630.608215 88.154625,651.566040 
	C98.941559,664.234558 109.702316,677.014465 121.496857,688.713928 
	C137.220871,704.311157 154.384583,718.344666 172.660400,730.972656 
	C191.750702,744.163391 211.829529,755.606750 232.855865,765.349121 
	C259.623901,777.752075 287.421112,787.207947 316.387848,792.958496 
	C329.645630,795.590454 342.977875,797.925415 356.355194,799.845703 
	C363.684296,800.897705 371.177582,800.805786 378.798401,801.614807 
	C253.074600,802.000000 127.149216,802.000000 1.000000,802.000000 
	C1.000000,681.979187 1.000000,561.958252 1.000000,441.468658 
z"/>
<path fill="#FFFFFF" opacity="1.000000" stroke="none" 
	d="
M423.468658,802.000000 
	C424.170227,801.666809 425.320312,801.176941 426.513641,801.023743 
	C445.495850,798.587158 464.640442,797.044861 483.431763,793.582458 
	C508.877350,788.893982 533.706482,781.243713 557.258789,770.608643 
	C577.115967,761.642212 596.362915,751.118774 615.155029,740.053345 
	C636.651001,727.395874 655.807922,711.488342 674.190857,694.539429 
	C694.498047,675.816467 712.106384,654.963257 728.216187,632.622437 
	C740.664246,615.359863 751.447815,597.139771 760.860352,578.151672 
	C773.963013,551.719177 784.011963,524.017883 790.641907,495.295746 
	C794.521484,478.488892 796.296265,461.195740 799.000671,444.118591 
	C799.461365,441.209564 799.835327,438.286774 800.624695,435.185181 
	C801.000000,557.261475 801.000000,679.522949 801.000000,802.000000 
	C675.312500,802.000000 549.624939,802.000000 423.468658,802.000000 
M733.000000,720.500244 
	C733.000000,725.939636 733.000000,731.379028 733.000000,736.795044 
	C735.613342,736.795044 737.558777,736.795044 739.939148,736.795044 
	C739.939148,730.390198 739.939148,724.169556 739.939148,716.638245 
	C742.705566,721.407043 745.233948,724.824219 746.754883,728.642700 
	C748.390808,732.750305 750.814636,733.848083 754.539368,732.693298 
	C757.426758,727.510803 760.233948,722.472168 763.041199,717.433533 
	C763.368958,717.512085 763.696716,717.590576 764.024475,717.669128 
	C764.024475,724.022217 764.024475,730.375366 764.024475,737.028381 
	C766.321655,736.925232 768.044189,736.847839 769.625244,736.776794 
	C769.625244,725.581360 769.625244,714.859619 769.625244,704.340820 
	C763.870789,702.809265 761.023499,705.462646 758.894348,710.120972 
	C756.879150,714.529846 754.214050,718.641663 751.733887,723.064087 
	C749.180481,718.459167 746.729736,714.258484 744.490356,709.948059 
	C741.298035,703.803650 740.447144,703.326355 733.000000,704.641541 
	C733.000000,709.551941 733.000000,714.527222 733.000000,720.500244 
M719.000000,727.458801 
	C719.000000,722.031494 719.000000,716.604126 719.000000,710.876526 
	C722.653992,710.876526 725.600525,710.876526 728.731812,710.876526 
	C728.731812,708.494446 728.731812,706.442627 728.731812,704.304260 
	C719.730896,704.304260 710.999268,704.304260 702.356873,704.304260 
	C702.356873,706.684326 702.356873,708.739014 702.356873,711.112549 
	C705.317261,711.112549 707.923035,711.112549 711.028015,711.112549 
	C711.028015,719.836121 711.028015,728.237122 711.028015,736.681274 
	C713.930298,736.681274 716.316162,736.681274 719.000000,736.681274 
	C719.000000,733.725525 719.000000,731.084717 719.000000,727.458801 
z"/>
<path fill="#FFFFFF" opacity="1.000000" stroke="none" 
	d="
M0.999999,364.437439 
	C1.241670,366.223450 1.483342,368.446869 1.362507,370.835144 
	C1.000000,368.958282 1.000000,366.916595 0.999999,364.437439 
z"/>
<path fill="#FFFFFF" opacity="1.000000" stroke="none" 
	d="
M0.999999,433.428467 
	C1.237853,434.895569 1.475709,436.791107 1.356782,438.843323 
	C1.000000,437.285645 1.000000,435.571289 0.999999,433.428467 
z"/>
<path fill="#FFFFFF" opacity="1.000000" stroke="none" 
	d="
M601.730835,434.410583 
	C603.284363,445.658478 606.010071,456.564178 605.739563,467.395050 
	C604.975830,497.970764 595.942566,525.992676 577.025879,550.556335 
	C556.775024,576.852417 529.821899,592.375366 498.021698,599.741638 
	C488.195557,602.017822 477.810059,603.026733 467.720581,602.804382 
	C436.937866,602.126099 408.440948,593.528198 383.984894,574.315552 
	C359.645477,555.194519 344.322052,530.185181 339.119415,499.533508 
	C337.284973,488.725739 336.164337,477.658234 336.132294,466.705170 
	C335.890106,383.905975 336.000000,301.105713 336.000000,218.305786 
	C336.000000,216.354004 336.000000,214.402206 336.000000,212.229416 
	C349.416962,212.229416 362.350769,212.229416 375.908478,212.229416 
	C375.908478,265.379517 375.908478,318.534058 375.908478,372.468414 
	C380.411774,368.387207 384.247711,365.028656 387.953156,361.531799 
	C402.102203,348.179138 418.979919,340.015106 437.840363,336.135834 
	C446.459869,334.362946 455.363831,333.947144 464.148926,333.010773 
	C483.758057,330.920715 502.478363,334.725616 520.543457,342.058197 
	C532.992188,347.111145 544.481689,353.920166 554.938049,362.423309 
	C572.178589,376.443207 585.415710,393.562805 594.332397,413.894867 
	C597.188904,420.408203 599.159302,427.310089 601.730835,434.410583 
M459.539948,371.000000 
	C446.964600,371.565002 435.057129,374.983429 423.969543,380.647247 
	C408.628815,388.483673 396.424438,399.847382 387.536621,414.823853 
	C372.810364,439.638458 369.566650,466.249176 375.607025,493.933197 
	C380.389435,515.851807 392.751434,533.357849 410.529846,547.019287 
	C425.013641,558.148987 441.600739,564.390320 459.575775,565.734070 
	C469.990173,566.512695 480.786102,565.686462 491.086945,563.808594 
	C518.539124,558.803833 539.638733,543.906921 552.791138,519.215820 
	C562.320190,501.326935 565.857117,481.966095 564.186096,461.458771 
	C562.832092,444.840454 558.485474,429.484833 550.037781,415.201996 
	C538.891235,396.356049 523.215149,382.990387 502.434143,375.789795 
	C488.805542,371.067505 474.826538,369.388214 459.539948,371.000000 
z"/>
<path fill="#FFFFFF" opacity="1.000000" stroke="none" 
	d="
M213.071136,215.916382 
	C219.568939,219.907745 226.298141,223.572754 232.505402,227.973892 
	C240.096817,233.356445 248.012512,238.614700 254.449417,245.229340 
	C272.963715,264.254822 285.647675,286.816132 293.207520,312.371429 
	C300.114594,335.720032 307.674530,358.875397 314.918427,382.124756 
	C315.047089,382.537659 314.820557,383.061218 314.722870,383.819672 
	C306.492157,382.520905 298.353088,381.222900 290.209381,379.954651 
	C276.847351,377.873749 263.780457,374.825012 251.012253,370.159546 
	C233.863907,363.893555 217.992401,355.749207 205.617233,342.036316 
	C193.706696,328.838287 182.458130,315.033234 170.332397,302.042145 
	C160.824478,291.855682 150.504059,282.417755 140.390442,272.809540 
	C132.156906,264.987488 123.694908,257.405914 114.479912,248.932098 
	C150.008499,253.128342 180.859314,267.190033 211.757019,281.745026 
	C244.140244,296.999756 265.639801,324.692291 290.888031,348.162354 
	C291.292877,347.950806 291.697693,347.739227 292.102509,347.527679 
	C290.074463,342.723145 288.252502,337.818909 285.984314,333.130554 
	C273.190552,306.685852 260.025421,280.402557 242.961044,256.394867 
	C233.407166,242.953613 222.851257,230.224594 212.718414,216.735352 
	C212.817032,216.169495 212.944077,216.042938 213.071136,215.916382 
z"/>
<path fill="#FFFFFF" opacity="1.000000" stroke="none" 
	d="
M212.497101,216.483521 
	C212.031601,216.190231 211.759003,215.709457 211.486404,215.228668 
	C211.938187,215.278442 212.389969,215.328232 212.956451,215.647202 
	C212.944077,216.042938 212.817032,216.169495 212.497101,216.483521 
z"/>
<path fill="#73C41D" opacity="1.000000" stroke="none" 
	d="
M733.000000,720.001404 
	C733.000000,714.527222 733.000000,709.551941 733.000000,704.641541 
	C740.447144,703.326355 741.298035,703.803650 744.490356,709.948059 
	C746.729736,714.258484 749.180481,718.459167 751.733887,723.064087 
	C754.214050,718.641663 756.879150,714.529846 758.894348,710.120972 
	C761.023499,705.462646 763.870789,702.809265 769.625244,704.340820 
	C769.625244,714.859619 769.625244,725.581360 769.625244,736.776794 
	C768.044189,736.847839 766.321655,736.925232 764.024475,737.028381 
	C764.024475,730.375366 764.024475,724.022217 764.024475,717.669128 
	C763.696716,717.590576 763.368958,717.512085 763.041199,717.433533 
	C760.233948,722.472168 757.426758,727.510803 754.539368,732.693298 
	C750.814636,733.848083 748.390808,732.750305 746.754883,728.642700 
	C745.233948,724.824219 742.705566,721.407043 739.939148,716.638245 
	C739.939148,724.169556 739.939148,730.390198 739.939148,736.795044 
	C737.558777,736.795044 735.613342,736.795044 733.000000,736.795044 
	C733.000000,731.379028 733.000000,725.939636 733.000000,720.001404 
z"/>
<path fill="#73C41D" opacity="1.000000" stroke="none" 
	d="
M719.000000,727.951416 
	C719.000000,731.084717 719.000000,733.725525 719.000000,736.681274 
	C716.316162,736.681274 713.930298,736.681274 711.028015,736.681274 
	C711.028015,728.237122 711.028015,719.836121 711.028015,711.112549 
	C707.923035,711.112549 705.317261,711.112549 702.356873,711.112549 
	C702.356873,708.739014 702.356873,706.684326 702.356873,704.304260 
	C710.999268,704.304260 719.730896,704.304260 728.731812,704.304260 
	C728.731812,706.442627 728.731812,708.494446 728.731812,710.876526 
	C725.600525,710.876526 722.653992,710.876526 719.000000,710.876526 
	C719.000000,716.604126 719.000000,722.031494 719.000000,727.951416 
z"/>
<path fill="#73C41D" opacity="1.000000" stroke="none" 
	d="
M460.006653,371.000000 
	C474.826538,369.388214 488.805542,371.067505 502.434143,375.789795 
	C523.215149,382.990387 538.891235,396.356049 550.037781,415.201996 
	C558.485474,429.484833 562.832092,444.840454 564.186096,461.458771 
	C565.857117,481.966095 562.320190,501.326935 552.791138,519.215820 
	C539.638733,543.906921 518.539124,558.803833 491.086945,563.808594 
	C480.786102,565.686462 469.990173,566.512695 459.575775,565.734070 
	C441.600739,564.390320 425.013641,558.148987 410.529846,547.019287 
	C392.751434,533.357849 380.389435,515.851807 375.607025,493.933197 
	C369.566650,466.249176 372.810364,439.638458 387.536621,414.823853 
	C396.424438,399.847382 408.628815,388.483673 423.969543,380.647247 
	C435.057129,374.983429 446.964600,371.565002 460.006653,371.000000 
z"/>
</svg>