<?xml version="1.0" ?><svg viewBox="0 0 512 512" xmlns="http://www.w3.org/2000/svg"><title/><g data-name="1" id="_1"><path d="M371.43,450H142.56a50.17,50.17,0,0,1-50.11-50.11V98.11A50.17,50.17,0,0,1,142.56,48h150.1a15,15,0,0,1,10.61,4.39L417.15,166.27a15,15,0,0,1,4.39,10.61v223A50.17,50.17,0,0,1,371.43,450ZM142.56,78a20.13,20.13,0,0,0-20.11,20.11V399.89A20.13,20.13,0,0,0,142.56,420H371.43a20.13,20.13,0,0,0,20.11-20.11V183.09L286.45,78Z"/><path d="M406.54,191.88H327.77a50.17,50.17,0,0,1-50.11-50.11V63a15,15,0,0,1,30,0v78.77a20.13,20.13,0,0,0,20.11,20.11h78.77a15,15,0,1,1,0,30Z"/><path d="M177.74,317.62H157.92v27c0,3.19-3.88,4.78-7.76,4.78s-7.77-1.59-7.77-4.78V281.27c0-3.28,3.88-4.68,7.77-4.68s7.76,1.4,7.76,4.68v24.4h19.82v-24.4c0-3.28,3.88-4.68,7.77-4.68s7.76,1.4,7.76,4.68V344.6c0,3.19-3.88,4.78-7.76,4.78s-7.77-1.59-7.77-4.78Z"/><path d="M247.14,276.59c3.29,0,4.68,3.59,4.68,6.87,0,3.79-1.69,7.07-4.68,7.07H233.4V344.6c0,3.19-3.89,4.78-7.77,4.78s-7.77-1.59-7.77-4.78V290.53H204.12c-3,0-4.68-3.28-4.68-7.07,0-3.28,1.4-6.87,4.68-6.87Z"/><path d="M293,323.59a5.7,5.7,0,0,1-5.18,2.89,5.1,5.1,0,0,1-4.87-2.89l-9.46-17.32V344.6c0,3.19-3.89,4.78-7.77,4.78S258,347.79,258,344.6V284.36c0-5.68,3.88-7.77,7.77-7.77,5.57,0,8,.6,12.05,7.77l10.25,17.92,10.26-17.92c4.08-7.17,6.47-7.77,12.05-7.77,4,0,7.77,2.09,7.77,7.77V344.6c0,3.19-3.89,4.78-7.77,4.78s-7.77-1.59-7.77-4.78V307.26Z"/><path d="M335.66,349.38c-3.39,0-6.77-1.59-6.77-4.78V281.27c0-3.28,3.88-4.68,7.76-4.68s7.77,1.4,7.77,4.68v54.57h22.7c3,0,4.49,3.39,4.49,6.77s-1.5,6.77-4.49,6.77Z"/></g></svg>