<svg version="1.1" id="Layer_1" xmlns="http://www.w3.org/2000/svg" xmlns:xlink="http://www.w3.org/1999/xlink" x="0px" y="0px"
	 width="100%" viewBox="0 0 310 163" enable-background="new 0 0 310 163" xml:space="preserve">
<path fill="#FFFFFF" opacity="1.000000" stroke="none" 
	d="
M237.000000,164.000000 
	C158.000015,164.000000 79.500015,164.000000 1.000021,164.000000 
	C1.000014,109.666679 1.000014,55.333366 1.000007,1.000036 
	C104.333305,1.000024 207.666611,1.000024 310.999939,1.000012 
	C310.999939,55.333298 310.999939,109.666595 310.999969,163.999939 
	C286.500000,164.000000 262.000000,164.000000 237.000000,164.000000 
M141.516083,140.199539 
	C137.670670,138.820923 133.825272,137.442291 129.480453,135.606873 
	C125.667610,133.041275 121.854759,130.475677 117.705940,127.340973 
	C113.606163,122.158745 109.506386,116.976509 105.207352,111.101440 
	C101.289352,105.683846 96.439262,104.301880 91.598083,107.223679 
	C86.879944,110.071220 85.404671,115.653534 88.896584,121.129776 
	C92.696457,127.088997 97.348885,132.504593 101.935707,138.767532 
	C106.273216,142.186340 110.610733,145.605164 115.336853,149.586441 
	C119.884048,151.745682 124.431244,153.904938 129.478256,156.578415 
	C133.319870,157.667709 137.161484,158.757004 141.820755,160.036880 
	C145.879868,160.350967 149.938965,160.665054 154.908768,161.177979 
	C158.942032,160.982010 162.975281,160.786057 167.738861,160.411819 
	C172.828735,158.957047 177.918594,157.502274 183.612213,155.941345 
	C188.449142,153.426224 193.286057,150.911102 198.714706,147.988312 
	C201.518280,145.777878 204.321854,143.567444 207.744324,141.058456 
	C211.549118,136.665436 215.662842,132.497406 219.071991,127.816238 
	C222.494843,123.116249 221.437088,117.892914 217.151321,114.500481 
	C213.313568,111.462639 208.491592,112.025070 203.693329,116.403259 
	C201.109177,119.545357 198.525024,122.687454 195.319412,126.112000 
	C190.394058,129.661697 185.468704,133.211411 179.826828,136.858521 
	C175.551849,138.281952 171.276871,139.705368 166.160492,141.096603 
	C162.108002,141.438232 158.055496,141.779846 153.162750,141.962143 
	C149.487259,141.483658 145.811768,141.005173 141.516083,140.199539 
M107.468216,50.031246 
	C108.520393,48.536259 109.502953,46.986206 110.635284,45.554615 
	C125.455070,26.818193 144.893356,19.318182 168.059372,24.243021 
	C190.226028,28.955408 204.434113,43.269688 211.014877,65.012932 
	C213.777344,74.140259 213.094391,83.348480 212.052505,92.662651 
	C211.415039,98.361313 215.314941,102.617836 220.463120,103.046654 
	C225.946259,103.503365 230.585281,100.359940 230.894058,94.691780 
	C231.414932,85.130142 232.437286,75.287430 230.848465,65.972313 
	C223.728409,24.227810 184.421021,-2.208783 144.028412,4.254439 
	C105.139954,10.476986 76.556374,45.139275 79.941223,86.519112 
	C80.513489,93.514954 86.564980,97.474037 93.023582,94.901665 
	C97.960854,92.935204 99.372345,89.011368 99.060997,84.052094 
	C98.311104,72.107719 100.890152,60.943295 107.468216,50.031246 
z"/>
<path fill="#B6B7B8" opacity="1.000000" stroke="none" 
	d="
M107.285965,50.348354 
	C100.890152,60.943295 98.311104,72.107719 99.060997,84.052094 
	C99.372345,89.011368 97.960854,92.935204 93.023582,94.901665 
	C86.564980,97.474037 80.513489,93.514954 79.941223,86.519112 
	C76.556374,45.139275 105.139954,10.476986 144.028412,4.254439 
	C184.421021,-2.208783 223.728409,24.227810 230.848465,65.972313 
	C232.437286,75.287430 231.414932,85.130142 230.894058,94.691780 
	C230.585281,100.359940 225.946259,103.503365 220.463120,103.046654 
	C215.314941,102.617836 211.415039,98.361313 212.052505,92.662651 
	C213.094391,83.348480 213.777344,74.140259 211.014877,65.012932 
	C204.434113,43.269688 190.226028,28.955408 168.059372,24.243021 
	C144.893356,19.318182 125.455070,26.818193 110.635284,45.554615 
	C109.502953,46.986206 108.520393,48.536259 107.285965,50.348354 
z"/>
<path fill="#0DAFD2" opacity="1.000000" stroke="none" 
	d="
M101.629608,138.157196 
	C97.348885,132.504593 92.696457,127.088997 88.896584,121.129776 
	C85.404671,115.653534 86.879944,110.071220 91.598083,107.223679 
	C96.439262,104.301880 101.289352,105.683846 104.946106,111.713867 
	C104.456436,119.154808 104.378677,125.993919 103.899498,132.804779 
	C103.770866,134.633118 102.419617,136.375412 101.629608,138.157196 
z"/>
<path fill="#0AA8D7" opacity="1.000000" stroke="none" 
	d="
M101.782661,138.462372 
	C102.419617,136.375412 103.770866,134.633118 103.899498,132.804779 
	C104.378677,125.993919 104.456436,119.154808 105.045731,112.060287 
	C109.506386,116.976509 113.606163,122.158745 117.705101,128.015320 
	C117.469460,133.768478 117.386261,138.861374 116.916870,143.918411 
	C116.754639,145.666122 115.632126,147.324692 114.948257,149.023972 
	C110.610733,145.605164 106.273216,142.186340 101.782661,138.462372 
z"/>
<path fill="#057DF4" opacity="1.000000" stroke="none" 
	d="
M180.543335,136.761108 
	C185.468704,133.211411 190.394058,129.661697 195.687103,126.369247 
	C196.702988,129.267319 197.720367,131.880966 197.917267,134.555008 
	C198.255493,139.148804 198.081772,143.780304 198.122971,148.395966 
	C193.286057,150.911102 188.449142,153.426224 183.307800,155.523209 
	C183.001785,150.623901 183.219498,146.126328 182.886185,141.669968 
	C182.760132,139.984695 181.361771,138.394608 180.543335,136.761108 
z"/>
<path fill="#0585EE" opacity="1.000000" stroke="none" 
	d="
M180.185089,136.809814 
	C181.361771,138.394608 182.760132,139.984695 182.886185,141.669968 
	C183.219498,146.126328 183.001785,150.623901 183.005920,155.576294 
	C177.918594,157.502274 172.828735,158.957047 167.373642,160.100037 
	C167.006256,153.568420 167.004074,147.348602 167.001892,141.128784 
	C171.276871,139.705368 175.551849,138.281952 180.185089,136.809814 
z"/>
<path fill="#09A1DC" opacity="1.000000" stroke="none" 
	d="
M115.142555,149.305206 
	C115.632126,147.324692 116.754639,145.666122 116.916870,143.918411 
	C117.386261,138.861374 117.469460,133.768478 117.873085,128.299866 
	C121.854759,130.475677 125.667610,133.041275 129.736328,136.298828 
	C129.654297,143.348587 129.316376,149.706390 128.978455,156.064194 
	C124.431244,153.904938 119.884048,151.745682 115.142555,149.305206 
z"/>
<path fill="#0175F8" opacity="1.000000" stroke="none" 
	d="
M198.418839,148.192139 
	C198.081772,143.780304 198.255493,139.148804 197.917267,134.555008 
	C197.720367,131.880966 196.702988,129.267319 195.997833,126.228027 
	C198.525024,122.687454 201.109177,119.545357 204.362518,116.204437 
	C208.547714,115.904411 209.115540,118.407036 208.942108,120.961441 
	C208.479843,127.769691 207.749298,134.559723 207.125427,141.357010 
	C204.321854,143.567444 201.518280,145.777878 198.418839,148.192139 
z"/>
<path fill="#038CEA" opacity="1.000000" stroke="none" 
	d="
M166.581192,141.112701 
	C167.004074,147.348602 167.006256,153.568420 167.008484,160.189163 
	C162.975281,160.786057 158.942032,160.982010 154.453766,160.611801 
	C154.000168,154.070908 154.001587,148.096176 154.003006,142.121460 
	C158.055496,141.779846 162.108002,141.438232 166.581192,141.112701 
z"/>
<path fill="#0371FC" opacity="1.000000" stroke="none" 
	d="
M207.434875,141.207733 
	C207.749298,134.559723 208.479843,127.769691 208.942108,120.961441 
	C209.115540,118.407036 208.547714,115.904411 204.645660,116.004875 
	C208.491592,112.025070 213.313568,111.462639 217.151321,114.500481 
	C221.437088,117.892914 222.494843,123.116249 219.071991,127.816238 
	C215.662842,132.497406 211.549118,136.665436 207.434875,141.207733 
z"/>
<path fill="#099AE0" opacity="1.000000" stroke="none" 
	d="
M129.228363,156.321304 
	C129.316376,149.706390 129.654297,143.348587 129.986038,136.527222 
	C133.825272,137.442291 137.670670,138.820923 141.788147,140.865555 
	C141.707855,147.636490 141.355469,153.741394 141.003098,159.846313 
	C137.161484,158.757004 133.319870,157.667709 129.228363,156.321304 
z"/>
<path fill="#0893E4" opacity="1.000000" stroke="none" 
	d="
M141.411926,159.941589 
	C141.355469,153.741394 141.707855,147.636490 142.098251,141.029114 
	C145.811768,141.005173 149.487259,141.483658 153.582886,142.041809 
	C154.001587,148.096176 154.000168,154.070908 153.998413,160.512390 
	C149.938965,160.665054 145.879868,160.350967 141.411926,159.941589 
z"/>
</svg>