<?xml version="1.0" encoding="utf-8"?>
<!-- Generator: Adobe Illustrator 25.4.1, SVG Export Plug-In . SVG Version: 6.00 Build 0)  -->
<svg version="1.1" id="Layer_1" xmlns="http://www.w3.org/2000/svg" xmlns:xlink="http://www.w3.org/1999/xlink" x="0px" y="0px"
	 viewBox="0 0 648 648" style="enable-background:new 0 0 648 648;" xml:space="preserve">
<style type="text/css">
	.st0{fill:#1E61F0;}
</style>
<g>
	<path class="st0" d="M289.88,165.66c-1.62-2.08-3.35-3.24-5.44-3.24c-1.5,0.12-2.89,0.58-4.16,1.39
		c-15.38,12.03-36.32,63.04-53.55,130.35l15.27,0.12c30.07,0.35,61.19,0.69,91.84,1.16c-8.1-30.77-15.73-57.14-22.79-78.53
		C300.75,185.78,293.81,171.79,289.88,165.66z"/>
	<path class="st0" d="M324,36C164.96,36,36,164.96,36,324c0,159.04,128.96,288,288,288s288-128.96,288-288
		C612,164.96,483.04,36,324,36z M536.59,320.53c-0.81,3.24-2.78,6.36-5.55,8.67c-0.35,0.23-0.69,0.46-1.04,0.69l-0.35,0.23
		l-0.69,0.46l-0.58,0.35c-2.2,1.16-4.63,1.73-7.17,1.73H384.72c1.04,4.51,2.31,9.72,3.59,15.27c7.52,32.27,27.3,118.09,48.46,118.09
		h0.46h0.23h0.46c16.42,0,24.87-23.83,43.37-75.99l0.23-0.58c3.01-8.33,6.36-17.81,9.95-27.88l0.93-2.54
		c1.39-3.35,5.2-5.09,8.56-3.7c2.43,0.93,4.16,3.35,4.16,6.01c0,0.69-0.12,1.27-0.23,1.85l-0.81,2.54
		c-1.97,6.25-3.93,14.69-6.36,24.52c-10.99,45.57-27.64,114.39-70.21,114.39h-0.35c-27.53-0.23-43.95-44.18-51.01-63.04
		c-13.19-35.16-23.13-72.52-32.73-108.84H218.05l-26.02,83.39l-0.35-0.35c-3.93,6.13-12.14,7.98-18.27,4.05
		c-3.82-2.43-6.13-6.59-6.13-11.1v-0.46l1.62-9.48c3.59-21.4,7.98-43.72,12.84-66.16h-53.2l-0.23-0.23
		c-10.87-1.62-18.39-11.8-16.77-22.67c1.27-8.44,7.75-15.15,16.08-16.66c2.08-0.23,4.16-0.35,6.25-0.23h2.54
		c16.77,0.23,34.58,0.58,54.25,0.81c27.64-112.42,59.68-169.56,95.31-169.68c38.17,0,66.51,86.86,89.18,171.87l0.12,0.35
		c46.5,0.93,96.23,2.31,144.46,5.78l2.08,0.23c0.81,0,1.5,0.12,2.31,0.23h0.23l0.23,0.12h0.12
		C532.89,304.22,538.32,312.32,536.59,320.53z"/>
</g>
</svg>
