<?xml version="1.0" ?><!DOCTYPE svg  PUBLIC '-//W3C//DTD SVG 1.1//EN'  'http://www.w3.org/Graphics/SVG/1.1/DTD/svg11.dtd'><svg enable-background="new 0 0 512 512" height="512px" id="Layer_1" version="1.1" viewBox="0 0 512 512" width="512px" xml:space="preserve" xmlns="http://www.w3.org/2000/svg" xmlns:xlink="http://www.w3.org/1999/xlink"><path d="M468,117.499L357.944,8H115.581C98.792,8,85,20.858,85,37.646v156.6c0-0.03,1.023-0.246,1.703-0.246H100  V37.646C100,29.265,107.2,23,115.581,23h235.583L356,27.535v61.593C356,105.847,369.596,119,386.315,119h61.593l4.092,4.795v349.553  c0,8.381-5.822,15.652-14.203,15.652H115.581C107.2,489,100,481.728,100,473.348V413H86.703c-0.68,0-1.703,0.037-1.703,0.007v60.34  C85,490.136,98.792,504,115.581,504h322.217C454.586,504,468,490.136,468,473.348V117.499z M386.315,104  C377.934,104,371,97.509,371,89.128V44.232v-0.291L431.502,104H386.315z" fill="#333333"/><path d="M373.602,209H74.398C57.61,209,44,222.61,44,239.398v127.204C44,383.39,57.61,397,74.398,397h299.204  C390.39,397,404,383.39,404,366.602V239.398C404,222.61,390.39,209,373.602,209z M164.046,353l-18.785-30.122L126.673,353H97.21  l31.968-49.12L99.122,257h28.87l17.401,29.793L162.135,257h29.727l-30.518,48.923L194.168,353H164.046z M268,353h-63v-96h26v75h37  V353z M308.495,287.563c1.955,1.494,7.261,4.218,15.918,8.173c8.306,3.735,14.073,7.745,17.303,12.029s4.845,9.679,4.845,16.182  c0,5.977-1.517,11.282-4.548,15.918c-3.032,4.637-7.405,8.239-13.117,10.81c-5.713,2.571-12.414,3.856-20.104,3.856  c-6.416,0-11.832-0.451-16.181-1.352c-4.351-0.899-8.611-2.472-13.611-4.713v-23.201c5,2.549,10.161,4.538,15.522,5.965  c5.36,1.429,10.299,2.143,14.781,2.143c3.866,0,6.708-0.67,8.511-2.011c1.801-1.34,2.706-3.064,2.706-5.174  c0-1.318-0.36-2.472-1.086-3.461c-0.725-0.988-1.889-1.987-3.492-2.999c-1.604-1.01-5.876-3.075-12.82-6.195  c-6.284-2.856-10.997-5.624-14.137-8.306c-3.143-2.68-5.471-5.756-6.987-9.228c-1.516-3.471-2.273-7.58-2.273-12.326  c0-8.875,3.23-15.796,9.689-20.763c6.46-4.965,15.336-7.448,26.629-7.448c9.975,0,20.147,2.307,30.519,6.92l-7.976,20.104  c-9.009-4.13-16.786-6.196-23.334-6.196c-3.384,0-5.844,0.593-7.382,1.779c-1.539,1.187-2.307,2.659-2.307,4.417  C305.562,284.378,306.54,286.069,308.495,287.563z" fill="#333333"/></svg>