<svg fill="none" height="1200" viewBox="0 0 1200 1200" width="1200" xmlns="http://www.w3.org/2000/svg"><path d="m0 0h1200v1200h-1200z" fill="#054ada"/><path d="m652.502 285.818h-331.798v138.859h331.798v75.98l-132.982 13.1c-190.917 18.341-251.482 64.191-251.482 204.359v36.679c0 107.421 77.684 163.75 173.8 163.75 43.45 0 90.849-10.479 138.251-35.37l72.416-36.68v64.192h139.566v-486.01zm0 424.439-89.533 45.85c-34.232 19.65-69.782 30.129-97.431 30.129-34.232 0-57.935-11.791-57.935-55.02v-28.821c2.634-45.85 32.917-57.641 135.616-68.121l109.283-11.791v87.771z" fill="#fff"/><g fill="#f80"><path d="m792.067 285.818h-139.565v138.859h139.565z"/><path d="m931.636 424.667h-139.565v486.019h139.565z"/></g></svg>