<?xml version="1.0" standalone="no"?>
<!DOCTYPE svg PUBLIC "-//W3C//DTD SVG 20010904//EN"
 "http://www.w3.org/TR/2001/REC-SVG-20010904/DTD/svg10.dtd">
<svg version="1.0" xmlns="http://www.w3.org/2000/svg"
 width="225.000000pt" height="225.000000pt" viewBox="0 0 225.000000 225.000000"
 preserveAspectRatio="xMidYMid meet">

<g transform="translate(0.000000,225.000000) scale(0.100000,-0.100000)"
fill="#000000" stroke="none">
<path d="M391 1768 c-6 -29 -17 -82 -24 -118 l-13 -64 -113 -23 c-161 -32
-161 -35 1 -67 l113 -22 22 -114 c32 -161 37 -161 67 2 l21 112 112 21 c108
20 133 29 121 40 -3 3 -56 15 -119 28 l-114 23 -22 114 c-12 63 -22 116 -22
118 -1 1 -5 2 -10 2 -5 0 -14 -24 -20 -52z"/>
<path d="M816 1564 c-19 -18 -20 -38 -6 -65 10 -18 27 -19 506 -19 l496 0
-308 -250 c-170 -137 -314 -250 -321 -250 -8 0 -122 90 -256 200 -148 122
-250 200 -264 200 -40 0 -68 -53 -45 -86 7 -10 429 -350 489 -394 26 -19 40
-22 85 -18 54 4 56 6 384 271 l329 267 3 -375 c1 -248 -1 -383 -8 -395 -10
-20 -26 -20 -715 -20 -686 0 -705 1 -715 19 -6 12 -10 109 -10 245 0 213 -1
226 -19 236 -27 14 -47 13 -65 -6 -14 -13 -16 -51 -16 -262 0 -230 1 -249 20
-280 39 -64 17 -62 802 -62 796 0 757 -3 806 70 l23 34 -3 432 c-3 419 -4 433
-24 461 -47 64 -34 63 -621 63 -470 0 -533 -2 -547 -16z"/>
</g>
</svg>
