<svg xmlns="http://www.w3.org/2000/svg" fill="none" viewBox="0 0 20.143061516452075 19.370078740157478" style="max-height: 500px" width="20.143061516452075" height="19.370078740157478"><path fill="#FA5320" d="M40.22 19.09a.706.706 0 0 1-.516.218h-2.067a.704.704 0 0 1-.517-.218.703.703 0 0 1-.217-.516v-6.908c0-1.123-.263-2.003-.789-2.637-.526-.635-1.296-.952-2.311-.952-.943 0-1.696.326-2.258.979-.562.652-.843 1.523-.843 2.61v6.908c0 .2-.072.371-.217.516a.706.706 0 0 1-.517.218h-2.067a.704.704 0 0 1-.516-.218.704.704 0 0 1-.218-.516V.734c0-.199.072-.371.218-.516A.706.706 0 0 1 27.9 0h2.067c.2 0 .372.073.517.218a.707.707 0 0 1 .217.516v5.793c1.088-1.088 2.393-1.632 3.916-1.632 2.049 0 3.53.59 4.447 1.768.915 1.178 1.373 2.71 1.373 4.595v7.316c0 .2-.073.371-.218.516ZM43.32 5.384a.706.706 0 0 1 .517-.217h2.066c.2 0 .372.073.517.217a.708.708 0 0 1 .218.517v6.908c0 1.142.24 2.025.72 2.65.48.626 1.228.94 2.244.94.942 0 1.672-.323 2.189-.966.517-.644.775-1.518.775-2.624V5.9c0-.2.072-.371.218-.517a.706.706 0 0 1 .516-.217h2.067c.2 0 .371.073.517.217a.707.707 0 0 1 .217.517v12.673c0 .2-.072.371-.217.516a.705.705 0 0 1-.517.218H53.3a.704.704 0 0 1-.516-.218.704.704 0 0 1-.218-.516v-.626c-1.052 1.088-2.312 1.632-3.78 1.632-2.049 0-3.508-.585-4.378-1.754-.87-1.17-1.306-2.706-1.306-4.61V5.901c0-.2.073-.371.218-.517ZM72.091 19.09a.706.706 0 0 1-.517.218h-2.066a.705.705 0 0 1-.517-.218.704.704 0 0 1-.218-.516v-6.908c0-1.123-.263-2.003-.788-2.637-.526-.635-1.297-.952-2.311-.952-.944 0-1.696.326-2.258.979-.562.652-.843 1.523-.843 2.61v6.908c0 .2-.072.371-.217.516a.706.706 0 0 1-.517.218h-2.067a.704.704 0 0 1-.517-.218.704.704 0 0 1-.217-.516V5.9c0-.2.072-.371.218-.517a.706.706 0 0 1 .516-.217h2.067c.2 0 .371.073.517.217a.708.708 0 0 1 .217.517v.626c1.088-1.088 2.393-1.632 3.916-1.632 2.049 0 3.53.59 4.446 1.768.916 1.178 1.374 2.71 1.374 4.595v7.316c0 .2-.073.371-.218.516ZM80.209 15.569c.316.317.865.475 1.645.475h1.659c.199 0 .371.073.516.218a.708.708 0 0 1 .218.517v1.795c0 .2-.073.371-.218.516a.706.706 0 0 1-.516.218H81.5c-1.722 0-3.037-.422-3.943-1.265-.907-.843-1.36-2.098-1.36-3.766V8.43h-1.794a.704.704 0 0 1-.517-.217.704.704 0 0 1-.218-.517V5.901c0-.2.072-.371.218-.517a.706.706 0 0 1 .517-.217h1.794V.734c0-.199.072-.371.218-.516A.705.705 0 0 1 76.931 0h2.067c.2 0 .372.073.517.218a.707.707 0 0 1 .218.516v4.433h3.507c.2 0 .372.073.517.217a.708.708 0 0 1 .218.517v1.795c0 .2-.073.372-.218.517a.706.706 0 0 1-.517.217h-3.507v5.765c0 .599.158 1.057.475 1.374ZM95.07 10.66c-.2-1.668-1.206-2.502-3.019-2.502-.942 0-1.681.254-2.216.762-.535.507-.839 1.088-.911 1.74h6.146Zm.49-4.827a6.412 6.412 0 0 1 2.352 2.516c.552 1.051.83 2.202.83 3.453v1.224c0 .2-.074.372-.219.517a.705.705 0 0 1-.516.217h-9.083c0 .78.308 1.4.925 1.863.616.462 1.35.694 2.202.694.997 0 1.768-.209 2.312-.626.2-.145.362-.245.49-.3.126-.053.298-.08.516-.08h2.175c.2 0 .372.067.517.203a.634.634 0 0 1 .218.476c0 .381-.25.862-.748 1.442-.499.58-1.22 1.083-2.162 1.509-.943.425-2.049.639-3.318.639-1.341 0-2.515-.308-3.521-.925-1.007-.616-1.782-1.477-2.325-2.583-.544-1.106-.816-2.384-.816-3.835 0-1.36.272-2.597.816-3.712a6.44 6.44 0 0 1 2.338-2.651c1.015-.653 2.185-.979 3.508-.979 1.324 0 2.493.313 3.508.938ZM105.145 9.15c-.48.481-.721 1.265-.721 2.353v7.07c0 .2-.072.372-.217.517a.706.706 0 0 1-.517.218h-2.066a.704.704 0 0 1-.517-.218.702.702 0 0 1-.218-.516V5.9c0-.2.072-.371.218-.517a.707.707 0 0 1 .517-.217h2.066c.199 0 .372.073.517.217a.706.706 0 0 1 .217.517v.626c.49-.471 1.007-.816 1.55-1.034.544-.217 1.233-.326 2.067-.326h1.224a.71.71 0 0 1 .517.217.706.706 0 0 1 .217.517v1.795c0 .2-.072.372-.217.517a.708.708 0 0 1-.517.217h-1.768c-1.088 0-1.872.24-2.352.72ZM12.067 8.435c-.405.116-.85.118-1.268.1-.485-.02-.999-.082-1.447-.28-.368-.165-.664-.46-.51-.887.11-.301.352-.57.631-.722.315-.17.66-.142.974.012.354.173.647.454.913.738.14.15.273.304.405.46.06.072.471.483.302.579Zm6.725.146c-.622-.144-1.357-.093-1.981-.192-.983-.158-2.446-1.303-3.24-2.468-.55-.809-.814-1.633-1.235-2.637-.295-.701-.936-2.919-1.833-1.88-.37.427-.783 1.834-1.085 1.814-.223.052-.26-.384-.33-.57-.13-.339-.197-.73-.37-1.05-.137-.254-.318-.56-.595-.684-.493-.253-1.087.51-1.382 1.417-.126.486-.974 1.428-1.344 1.656C3.717 5.024.344 6.116 0 9.754c-.001.015 0 .06.057.02.403-.292 4.965-3.578 2.037 2.774-1.794 3.891 6.867 6.369 7.312 6.38.06 0 .055-.027.057-.045.692-6.21 7.519-5.557 9.109-7.044 1.575-1.474 1.608-2.9.22-3.258Z"/></svg>