<?xml version="1.0" ?><!DOCTYPE svg  PUBLIC '-//W3C//DTD SVG 1.1//EN'  'http://www.w3.org/Graphics/SVG/1.1/DTD/svg11.dtd'><svg enable-background="new 0 0 512 512" height="512px" id="Refresh" version="1.1" viewBox="0 0 512 512" width="512px" xml:space="preserve" xmlns="http://www.w3.org/2000/svg" xmlns:xlink="http://www.w3.org/1999/xlink"><path d="M497.996,186.973c-6.406-6.406-16.797-6.406-23.188,0l-53.078,53.07c-2.336-30.469-35.32-190.609-205.93-190.609  c-116.734,0-206.602,94.688-206.602,206.531c0,115.219,93.164,206.602,206.602,206.602c92.781,0,150.883-60.789,150.883-72.109  c0-8.797-7.094-16.398-16.398-16.398c-16.352,0-46.906,55.648-134.484,55.648c-98.227,0-173.797-79.641-173.797-173.742  c0-90.227,71.945-173.734,173.797-173.734c110.75,0,166.836,90.313,173.016,157.742l-53.008-53c-6.391-6.406-16.789-6.406-23.195,0  c-6.406,6.398-6.406,16.789,0,23.188l81.102,81.086c3.195,3.203,7.398,4.805,11.594,4.805s8.398-1.602,11.594-4.805l81.094-81.086  C504.402,203.762,504.402,193.371,497.996,186.973z"/></svg>