<svg version="1.1" id="Layer_1" xmlns="http://www.w3.org/2000/svg" xmlns:xlink="http://www.w3.org/1999/xlink" x="0px" y="0px"
	 width="100%" viewBox="0 0 248 203" enable-background="new 0 0 248 203" xml:space="preserve">
<path fill="#01AC47" opacity="1.000000" stroke="none" 
	d="
M184.000000,204.000000 
	C142.979111,204.000000 101.958214,204.000000 60.357956,203.541870 
	C59.773678,184.139374 59.768757,165.195023 60.251053,146.204773 
	C87.410355,146.158875 114.082436,146.158875 141.434799,146.158875 
	C141.434799,131.751083 141.434799,117.855331 141.758270,104.019035 
	C143.226929,104.741295 144.509399,105.244110 145.496475,106.091179 
	C157.950012,116.778297 170.337921,127.541893 182.794876,138.225006 
	C187.371689,142.150101 192.086044,145.914810 197.939133,150.743942 
	C197.939133,118.065086 197.939133,86.893990 198.112274,55.447121 
	C210.101807,45.502419 221.850540,35.749062 233.763550,26.200674 
	C239.590607,21.530226 244.995132,23.142780 247.630188,30.369316 
	C247.270752,31.861719 247.017929,33.010197 247.017426,34.158779 
	C246.997421,80.308716 246.993637,126.458672 247.030594,172.608582 
	C247.031754,174.063034 247.483322,175.517105 247.671234,177.304962 
	C243.567993,183.704208 239.104889,184.523514 233.599823,180.122437 
	C229.595367,176.921021 225.702057,173.580460 221.693497,170.384323 
	C213.584915,163.919144 205.431717,157.509933 196.987427,151.357117 
	C196.452728,152.747406 196.032745,153.858124 196.032150,154.969070 
	C196.025513,167.531967 196.083160,180.094910 196.141083,192.992523 
	C194.213089,199.285538 189.300262,201.863449 184.000000,204.000000 
z"/>
<path fill="#FFBA01" opacity="1.000000" stroke="none" 
	d="
M59.000000,1.000000 
	C100.354225,1.000000 141.708450,1.000000 183.705750,1.313184 
	C192.861969,3.904364 197.246475,9.464729 197.347717,18.536737 
	C197.486191,30.945822 197.451981,43.356831 197.241760,56.037285 
	C178.465424,71.591782 159.939102,86.876015 141.326370,101.688858 
	C141.239960,87.154922 141.239960,73.092377 141.239960,58.660664 
	C113.403206,58.660664 86.446236,58.660664 59.413231,58.221325 
	C59.260002,39.122841 59.182812,20.463694 59.095879,1.601223 
	C59.086140,1.397898 59.000000,1.000000 59.000000,1.000000 
z"/>
<path fill="#0067D9" opacity="1.000000" stroke="none" 
	d="
M59.763836,146.250671 
	C59.768757,165.195023 59.773678,184.139374 59.889297,203.541870 
	C45.645771,204.000000 31.291544,204.000000 16.161282,203.821899 
	C8.237009,201.739838 3.494984,197.510437 2.390275,189.625717 
	C2.728649,174.872833 2.851377,160.468475 3.444299,146.056030 
	C21.943235,146.020340 39.971977,145.992752 58.290604,145.946472 
	C58.771446,145.895569 58.962402,145.863358 59.333733,145.895630 
	C59.514099,145.960144 59.763836,146.250671 59.763836,146.250671 
z"/>
<path fill="#FEFEFC" opacity="1.000000" stroke="none" 
	d="
M197.491791,55.767017 
	C197.451981,43.356831 197.486191,30.945822 197.347717,18.536737 
	C197.246475,9.464729 192.861969,3.904364 184.174408,1.313184 
	C205.566406,1.000000 227.132797,1.000000 249.000000,1.000000 
	C249.000000,10.685486 249.000000,20.374086 248.801453,30.477524 
	C248.602890,30.892361 248.196365,30.955660 248.120407,30.719608 
	C248.044449,30.483557 247.854477,30.025436 247.854477,30.025436 
	C244.995132,23.142780 239.590607,21.530226 233.763550,26.200674 
	C221.850540,35.749062 210.101807,45.502419 197.996658,55.420464 
	C197.707901,55.669563 197.491776,55.767017 197.491791,55.767017 
z"/>
<path fill="#FCFEFC" opacity="1.000000" stroke="none" 
	d="
M197.296921,151.077637 
	C205.431717,157.509933 213.584915,163.919144 221.693497,170.384323 
	C225.702057,173.580460 229.595367,176.921021 233.599823,180.122437 
	C239.104889,184.523514 243.567993,183.704208 247.800140,176.997681 
	C248.058533,175.919861 248.134323,175.482925 248.410492,175.084457 
	C248.610870,175.122940 249.000000,175.000000 249.000000,175.000000 
	C249.000000,184.621460 249.000000,194.242905 249.000000,204.000000 
	C227.645950,204.000000 206.291626,204.000000 184.468658,204.000000 
	C189.300262,201.863449 194.213089,199.285538 196.466507,192.650375 
	C196.948593,178.341583 197.122757,164.709610 197.296921,151.077637 
z"/>
<path fill="#FFFFFF" opacity="1.000000" stroke="none" 
	d="
M58.531342,1.000000 
	C59.000000,1.000000 59.086140,1.397898 58.766304,1.731517 
	C39.627068,20.934519 20.807676,39.803905 1.744067,58.763607 
	C1.333235,58.902618 1.166618,58.951309 1.000000,59.000000 
	C1.000000,39.739868 1.000000,20.479736 1.000000,1.000000 
	C20.020330,1.000000 39.041508,1.000000 58.531342,1.000000 
z"/>
<path fill="#CFEAD6" opacity="1.000000" stroke="none" 
	d="
M249.000000,174.531342 
	C249.000000,175.000000 248.610870,175.122940 248.321442,174.620209 
	C248.021393,140.360352 247.990891,106.603210 248.009705,72.846100 
	C248.017487,58.882587 248.130966,44.919136 248.196365,30.955660 
	C248.196365,30.955660 248.602890,30.892361 248.801453,30.946180 
	C249.000000,78.687561 249.000000,126.375122 249.000000,174.531342 
z"/>
<path fill="#D7E3FB" opacity="1.000000" stroke="none" 
	d="
M1.000000,59.468658 
	C1.166618,58.951309 1.333235,58.902618 1.846247,58.785271 
	C2.192641,58.716614 2.250716,58.917282 2.148540,59.381351 
	C2.085197,88.562775 2.124030,117.280128 2.091981,146.461548 
	C1.947613,160.626785 1.874127,174.327972 1.599549,188.047485 
	C1.398456,188.065796 1.000000,188.000000 1.000000,188.000000 
	C1.000000,145.312439 1.000000,102.624878 1.000000,59.468658 
z"/>
<path fill="#F8FAFE" opacity="1.000000" stroke="none" 
	d="
M1.000000,188.471191 
	C1.000000,188.000000 1.398456,188.065796 1.675422,188.369400 
	C2.026468,189.106750 2.100548,189.540497 2.174629,189.974243 
	C3.494984,197.510437 8.237009,201.739838 15.692624,203.821899 
	C11.072524,204.000000 6.145049,204.000000 1.000000,204.000000 
	C1.000000,198.982193 1.000000,193.962296 1.000000,188.471191 
z"/>
<path fill="#FEFEFF" opacity="1.000000" stroke="none" 
	d="
M60.251053,146.204773 
	C59.763836,146.250671 59.514099,145.960144 59.360424,145.679108 
	C59.206749,145.398087 59.060410,144.985657 59.167557,144.528229 
	C59.293911,133.456100 59.356232,122.841248 59.322582,112.226700 
	C59.267399,94.819923 59.149887,77.413345 59.120155,59.771988 
	C59.181648,59.537296 59.099434,59.058949 59.212555,58.974709 
	C59.325680,58.890472 59.489269,58.660664 59.489269,58.660664 
	C86.446236,58.660664 113.403206,58.660664 141.239960,58.660664 
	C141.239960,73.092377 141.239960,87.154922 141.263916,101.988205 
	C141.336853,103.159157 141.385818,103.559372 141.434799,103.959579 
	C141.434799,117.855331 141.434799,131.751083 141.434799,146.158875 
	C114.082436,146.158875 87.410355,146.158875 60.251053,146.204773 
z"/>
<path fill="#00842D" opacity="1.000000" stroke="none" 
	d="
M141.758270,104.019035 
	C141.385818,103.559372 141.336853,103.159157 141.350342,102.459595 
	C159.939102,86.876015 178.465424,71.591782 197.241760,56.037285 
	C197.491776,55.767017 197.707901,55.669563 197.823517,55.696224 
	C197.939133,86.893990 197.939133,118.065086 197.939133,150.743942 
	C192.086044,145.914810 187.371689,142.150101 182.794876,138.225006 
	C170.337921,127.541893 157.950012,116.778297 145.496475,106.091179 
	C144.509399,105.244110 143.226929,104.741295 141.758270,104.019035 
z"/>
<path fill="#00A737" opacity="1.000000" stroke="none" 
	d="
M248.120407,30.719608 
	C248.130966,44.919136 248.017487,58.882587 248.009705,72.846100 
	C247.990891,106.603210 248.021393,140.360352 248.121063,174.581726 
	C248.134323,175.482925 248.058533,175.919861 247.853821,176.664093 
	C247.483322,175.517105 247.031754,174.063034 247.030594,172.608582 
	C246.993637,126.458672 246.997421,80.308716 247.017426,34.158779 
	C247.017929,33.010197 247.270752,31.861719 247.630188,30.369316 
	C247.854477,30.025436 248.044449,30.483557 248.120407,30.719608 
z"/>
<path fill="#00A737" opacity="1.000000" stroke="none" 
	d="
M196.987427,151.357117 
	C197.122757,164.709610 196.948593,178.341583 196.449005,192.315704 
	C196.083160,180.094910 196.025513,167.531967 196.032150,154.969070 
	C196.032745,153.858124 196.452728,152.747406 196.987427,151.357117 
z"/>
<path fill="#E84236" opacity="1.000000" stroke="none" 
	d="
M2.090461,58.694954 
	C20.807676,39.803905 39.627068,20.934519 58.776043,1.934842 
	C59.182812,20.463694 59.260002,39.122841 59.413231,58.221325 
	C59.489269,58.660664 59.325680,58.890472 58.931976,58.926834 
	C58.355068,59.009838 58.171864,59.056484 57.527298,59.019444 
	C38.794193,58.929600 20.522455,58.923439 2.250716,58.917282 
	C2.250716,58.917282 2.192641,58.716614 2.090461,58.694954 
z"/>
<path fill="#2684FC" opacity="1.000000" stroke="none" 
	d="
M59.058662,60.006683 
	C59.149887,77.413345 59.267399,94.819923 59.322582,112.226700 
	C59.356232,122.841248 59.293911,133.456100 58.960556,144.657135 
	C58.378407,145.436813 58.163177,145.677368 58.000721,145.965149 
	C39.971977,145.992752 21.943235,146.020340 3.456673,146.028961 
	C2.998853,146.009979 3.018047,145.954987 3.012450,145.490814 
	C3.005091,118.385765 3.067708,91.744568 2.930576,65.104385 
	C2.910531,61.210484 4.067657,59.878269 8.050506,59.922459 
	C24.699011,60.107170 41.350746,60.000713 58.265633,60.003593 
	C58.706200,60.006367 58.882431,60.006527 59.058662,60.006683 
z"/>
<path fill="#005BD8" opacity="1.000000" stroke="none" 
	d="
M2.390275,189.625717 
	C2.100548,189.540497 2.026468,189.106750 1.876515,188.351074 
	C1.874127,174.327972 1.947613,160.626785 2.305981,146.455200 
	C2.590862,145.984787 3.018047,145.954987 3.018047,145.954987 
	C3.018047,145.954987 2.998853,146.009979 2.986479,146.037048 
	C2.851377,160.468475 2.728649,174.872833 2.390275,189.625717 
z"/>
<path fill="#0F7EFC" opacity="1.000000" stroke="none" 
	d="
M58.290604,145.946457 
	C58.163177,145.677368 58.378407,145.436813 58.853409,145.114563 
	C59.060410,144.985657 59.206749,145.398087 59.180054,145.614609 
	C58.962402,145.863358 58.771446,145.895569 58.290604,145.946457 
z"/>
<path fill="#0080FD" opacity="1.000000" stroke="none" 
	d="
M3.012450,145.490814 
	C3.018047,145.954987 2.590862,145.984787 2.376862,145.991135 
	C2.124030,117.280128 2.085197,88.562775 2.148540,59.381351 
	C20.522455,58.923439 38.794193,58.929600 57.531715,59.243889 
	C57.997498,59.552017 58.001297,60.000973 58.001297,60.000973 
	C41.350746,60.000713 24.699011,60.107170 8.050506,59.922459 
	C4.067657,59.878269 2.910531,61.210484 2.930576,65.104385 
	C3.067708,91.744568 3.005091,118.385765 3.012450,145.490814 
z"/>
<path fill="#0F7EFC" opacity="1.000000" stroke="none" 
	d="
M58.265633,60.003593 
	C58.001297,60.000973 57.997498,59.552017 57.993080,59.327572 
	C58.171864,59.056484 58.355068,59.009838 58.818855,59.011070 
	C59.099434,59.058949 59.181648,59.537296 59.120155,59.771988 
	C58.882431,60.006527 58.706200,60.006367 58.265633,60.003593 
z"/>
</svg>