<?xml version="1.0" encoding="UTF-8" standalone="no"?>
<svg
   width="176"
   height="138"
   fill="none"
   viewBox="0 0 176 138"
   version="1.1"
   id="svg39"
   sodipodi:docname="Google_Meet_icon_(2026).svg"
   inkscape:version="1.2.2 (b0a8486541, 2022-12-01)"
   xmlns:inkscape="http://www.inkscape.org/namespaces/inkscape"
   xmlns:sodipodi="http://sodipodi.sourceforge.net/DTD/sodipodi-0.dtd"
   xmlns="http://www.w3.org/2000/svg"
   xmlns:svg="http://www.w3.org/2000/svg">
  <sodipodi:namedview
     id="namedview41"
     pagecolor="#ffffff"
     bordercolor="#000000"
     borderopacity="0.25"
     inkscape:showpageshadow="2"
     inkscape:pageopacity="0.0"
     inkscape:pagecheckerboard="0"
     inkscape:deskcolor="#d1d1d1"
     showgrid="false"
     inkscape:zoom="2.4791667"
     inkscape:cx="97.411765"
     inkscape:cy="96.403361"
     inkscape:window-width="1366"
     inkscape:window-height="683"
     inkscape:window-x="0"
     inkscape:window-y="0"
     inkscape:window-maximized="1"
     inkscape:current-layer="svg39" />
  <path
     fill="url(#a)"
     d="M 102.015,81.88 C 95.186,77.162 95.094,67.102 101.836,62.26 L 157,22.643 c 7.94,-5.701 19,-0.038 19,9.737 v 77.755 c 0,9.675 -10.861,15.359 -18.821,9.859 z"
     id="path2"
     style="fill:url(#a)" />
  <path
     fill="url(#b)"
     d="M 0,44 C 0,19.7 19.7,0 44,0 h 64 c 11.046,0 20,8.954 20,20 v 98 c 0,11.046 -8.954,20 -20,20 H 20 C 8.9539999,138 0,129.046 0,118 Z"
     id="path4"
     style="fill:url(#b)" />
  <mask
     id="e"
     width="129"
     height="138"
     x="8"
     y="27"
     maskUnits="userSpaceOnUse">
    <path
       fill="#ffffff"
       d="M 8,71 C 8,46.7 27.7,27 52,27 h 64 c 11.046,0 20,8.954 20,20 v 98 c 0,11.046 -8.954,20 -20,20 H 28 C 16.954,165 8,156.046 8,145 Z"
       id="path6" />
  </mask>
  <g
     filter="url(#c)"
     mask="url(#e)"
     id="g11"
     transform="translate(-8,-27)">
    <path
       fill="url(#f)"
       d="M 73.906,99.198 183.906,36 v 124 z"
       id="path9"
       style="fill:url(#f)" />
  </g>
  <circle
     cx="30"
     cy="108"
     r="14"
     fill="#ffffff"
     id="circle13" />
  <defs
     id="defs37">
    <linearGradient
       id="a"
       x1="128.8"
       x2="227.2"
       y1="104.44"
       y2="104.44"
       gradientUnits="userSpaceOnUse"
       gradientTransform="translate(-8,-27)">
      <stop
         stop-color="#f6a100"
         id="stop15" />
      <stop
         offset="1"
         stop-color="#ffbe00"
         id="stop17" />
    </linearGradient>
    <linearGradient
       id="f"
       x1="136.22"
       x2="78.5"
       y1="91.32"
       y2="91.190002"
       gradientUnits="userSpaceOnUse">
      <stop
         offset=".15"
         stop-color="#ffb5e8"
         id="stop20" />
      <stop
         offset="1"
         stop-color="#ffdbf5"
         stop-opacity="0"
         id="stop22" />
    </linearGradient>
    <radialGradient
       id="b"
       cx="0"
       cy="0"
       r="1"
       gradientTransform="matrix(-159.725,0,0,-135.852,152.325,69)"
       gradientUnits="userSpaceOnUse">
      <stop
         offset=".15"
         stop-color="#ffe921"
         id="stop25" />
      <stop
         offset="1"
         stop-color="#fec700"
         id="stop27" />
    </radialGradient>
    <filter
       id="c"
       width="166"
       height="180"
       x="45.91"
       y="8"
       color-interpolation-filters="sRGB"
       filterUnits="userSpaceOnUse">
      <feFlood
         flood-opacity="0"
         result="BackgroundImageFix"
         id="feFlood30" />
      <feBlend
         in="SourceGraphic"
         in2="BackgroundImageFix"
         result="shape"
         id="feBlend32"
         mode="normal" />
      <feGaussianBlur
         result="effect1_foregroundBlur_37584_9338"
         stdDeviation="14"
         id="feGaussianBlur34" />
    </filter>
  </defs>
</svg>
