<?xml version="1.0" ?><svg id="Layer_1" style="enable-background:new 0 0 1024 1024;" version="1.1" viewBox="0 0 1024 1024" xml:space="preserve" xmlns="http://www.w3.org/2000/svg" xmlns:xlink="http://www.w3.org/1999/xlink"><g id="XMLID_3_"><g id="XMLID_1_"><g id="XMLID_35_"><path d="M907.9,816.1c-5.6,0-11.2,0-16.8,0c-15.4,0-30.9,0-46.3,0c-23.4,0-46.7,0-70.1,0c-29,0-57.9,0-86.9,0     c-32.6,0-65.2,0-97.8,0c-34.2,0-68.3,0-102.5,0c-33.8,0-67.7,0-101.5,0c-31.1,0-62.2,0-93.3,0c-26.5,0-53,0-79.4,0     c-19.8,0-39.6,0-59.3,0c-11,0-22,0-33.1,0c-1.6,0-3.2,0-4.8,0c-1.9,0-3.7-0.1-5.6-0.3c-3.8-0.3,3.6,0.8-0.1-0.1     c-1.5-0.4-3.1-0.7-4.6-1.1c-1.5-0.4-3-1-4.4-1.5c-3.5-1.2,3.1,1.7-0.1-0.1c-2.5-1.4-5-2.7-7.4-4.3c-0.2-0.1-1.6-1-1.6-1.1     c0-0.2,3.1,2.7,1.5,1.1c-1.1-1.1-2.3-2-3.4-3.1c-0.9-0.9-1.8-1.9-2.7-2.8c-0.4-0.5-0.8-1-1.3-1.5c-1.8-1.7,2,3.1,0.7,0.9     c-1.4-2.3-2.9-4.3-4.2-6.7c-0.3-0.6-0.6-1.2-0.9-1.8c-1.5-2.6,0.2,1,0.4,1.1c-0.6-0.3-1.3-3.7-1.6-4.4c-0.4-1.3-0.7-2.6-1.1-3.9     c-0.2-0.8-0.8-5.1-0.5-2c0.3,3.2-0.1-1.4-0.1-2.1c-0.1-1.2-0.1-2.3-0.1-3.5c0-0.2,0-0.3,0-0.5c0-1.1,0-2.2,0-3.4     c0-5.1,0-10.3,0-15.4c0-19.9,0-39.8,0-59.7c0-29,0-58,0-87c0-33.7,0-67.4,0-101.1c0-33.5,0-67.1,0-100.6c0-29,0-58,0-87     c0-20,0-39.9,0-59.9c0-5.2,0-10.3,0-15.5c0-1.1,0-2.3,0-3.4c0-0.2,0-0.3,0-0.5c0-2.1,0.2-4.2,0.3-6.3c0.2-2.3-0.2,1.9-0.2,1.9     c0.3-0.4,0.3-1.5,0.4-2c0.4-1.8,0.8-3.5,1.3-5.2c0.4-1.3,0.9-2.5,1.3-3.8c0.7-2.2-0.6,1.8-0.7,1.7c-0.1-0.1,0.8-1.6,0.9-1.8     c1.4-2.5,2.8-4.9,4.4-7.3c2-3-2.4,2.6,0.1-0.1c1-1.1,2-2.3,3.1-3.4c0.9-0.9,1.9-1.8,2.9-2.7c0.1-0.1,1.4-1.3,1.5-1.3     c-0.1,0-3.6,2.5-0.9,0.8c2.2-1.4,4.4-2.9,6.7-4.1c-0.1,0.1,2.3-1.2,2.4-1.2c0.1,0.1-3.9,1.4-1.7,0.7c1.5-0.5,2.9-1.1,4.4-1.5     c1.3-0.4,2.6-0.7,3.9-1c0.7-0.1,1.3-0.2,2-0.4c2.1-0.5-1.9,0.2-1.9,0.2c2.3,0.1,4.7-0.4,7-0.4c1.6,0,3.1,0,4.7,0     c11,0,22,0,32.9,0c19.7,0,39.5,0,59.2,0c26.4,0,52.9,0,79.3,0c31.2,0,62.5,0,93.7,0c33.7,0,67.3,0,101,0c34.2,0,68.3,0,102.5,0     c32.6,0,65.2,0,97.8,0c29.1,0,58.2,0,87.3,0c23.3,0,46.5,0,69.8,0c15.5,0,31,0,46.5,0c5.7,0,11.3-0.1,17,0c1.2,0,2.3,0,3.5,0.1     c0.7,0,1.4,0.1,2.1,0.2c3.7,0.3-0.9,0.1-1.2-0.2c2,1.3,6.1,1.3,8.5,2.1c0.6,0.2,1.3,0.4,1.9,0.7c1.1,0.4,1.7,1.3,0.1,0     c-2.1-1.7,0.9,0.5,1.8,1c1.4,0.7,2.7,1.5,4,2.3c0.8,0.5,4.3,3.4,2.3,1.5c-2.2-2.1,0.9,0.9,1.5,1.4c1,0.9,1.9,1.8,2.8,2.7     c0.9,0.9,1.7,2,2.6,2.9c1.6,1.6-1.3-1.5-1.1-1.5c0.4,0,1.7,2.4,1.9,2.7c1.5,2.2,2.5,4.6,3.9,6.9c1.2,2-0.9-1.8-0.7-1.7     c0.2,0.1,0.6,1.6,0.7,1.9c0.5,1.5,1,3,1.4,4.5c0.4,1.5,0.7,3.1,1,4.6c0.5,2.2-0.2-1.9-0.2-1.9c0,0.7,0.2,1.4,0.2,2.1     c0.1,1.6,0.2,3.3,0.2,4.9c0,0.2,0,0.4,0,0.6c0,1.2,0,2.3,0,3.5c0,14,0,27.9,0,41.9c0,25.2,0,50.4,0,75.6c0,31.9,0,63.8,0,95.7     c0,34.1,0,68.2,0,102.3c0,31.9,0,63.8,0,95.8c0,24.9,0,49.8,0,74.6c0,13.5,0,27,0,40.4c0,1,0,2.1,0,3.1c0,0.1,0,0.3,0,0.4     c0,2.3-0.5,4.7-0.4,7c0-0.1,0.7-4.1,0.2-1.9c-0.2,0.7-0.3,1.3-0.4,2c-0.3,1.3-0.6,2.6-1,3.9c-0.4,1.3-0.8,2.5-1.3,3.8     c-1.2,3.5,1.7-3.1-0.1,0.1c-1.4,2.5-2.7,5-4.3,7.4c-0.1,0.2-1,1.6-1.1,1.6c-0.2,0,2.7-3.1,1.1-1.5c-0.9,0.9-1.7,2-2.6,2.9     c-0.9,0.9-1.8,1.9-2.8,2.7c-0.5,0.4-1,0.9-1.5,1.3c-2.2,2.1,1-0.6,1-0.7c0,1-5.7,3.7-6.6,4.2c-0.3,0.2-3.3,2-3.5,1.8     c-0.1-0.1,3.9-1.4,1.7-0.7c-0.6,0.2-1.2,0.5-1.9,0.7c-2.8,1-5.6,1.5-8.5,2.2c-2.1,0.5,1.9-0.2,1.9-0.2c-0.7,0-1.4,0.2-2.1,0.2     C911.2,816,909.6,816.1,907.9,816.1c-10.5,0.1-20.5,9.1-20,20c0.5,10.7,8.8,20.1,20,20c28.3-0.3,56-16.2,68.6-42     c5.8-11.8,8.4-24.3,8.4-37.4c0-12.7,0-25.5,0-38.2c0-24.8,0-49.5,0-74.3c0-31.9,0-63.8,0-95.6c0-34.6,0-69.2,0-103.8     c0-32.3,0-64.6,0-96.9c0-25.6,0-51.2,0-76.8c0-14,0-28.1,0-42.1c0-7.9-0.5-15.8-2.5-23.6c-7-27.1-30-49.8-57.6-55.5     c-10.5-2.2-20.8-1.9-31.4-1.9c-14.9,0-29.9,0-44.8,0c-23.1,0-46.3,0-69.4,0c-29,0-58,0-87,0c-33,0-65.9,0-98.9,0     c-34.6,0-69.3,0-103.9,0c-34,0-68.1,0-102.1,0c-31.6,0-63.2,0-94.7,0c-26.7,0-53.4,0-80.1,0c-19.9,0-39.9,0-59.8,0     c-10.8,0-21.7,0-32.5,0c-2.3,0-4.7,0-7,0.1c-28.2,1.4-55.4,18.1-66.9,44.4c-7.2,16.5-7.3,32.3-7.3,49.5c0,19.5,0,39,0,58.4     c0,29.1,0,58.2,0,87.3c0,33.8,0,67.6,0,101.4c0,34.1,0,68.1,0,102.2c0,29.4,0,58.7,0,88.1c0,20.2,0,40.4,0,60.7     c0,13.7-0.9,28,3.3,41.3c8.3,26.7,31.5,48.9,59.5,53.4c5.9,0.9,11.6,1.4,17.6,1.4c10.3,0,20.7,0,31,0c19.4,0,38.8,0,58.2,0     c26.5,0,53,0,79.5,0c31.2,0,62.5,0,93.7,0c34.1,0,68.2,0,102.3,0c34.5,0,69,0,103.5,0c33.1,0,66.2,0,99.3,0c29.4,0,58.8,0,88.2,0     c23.4,0,46.8,0,70.2,0c15.5,0,31,0,46.6,0c5.3,0,10.7,0,16,0c10.5,0,20.5-9.2,20-20C927.4,825.3,919.1,816.1,907.9,816.1z" id="XMLID_39_"/></g></g><g id="XMLID_2_"><g id="XMLID_29_"><path d="M930.5,194.1c-13.9,12.5-27.9,25-41.8,37.5c-32.8,29.5-65.7,58.9-98.5,88.4c-39,35-78,70-117,104.9     c-32.1,28.8-64.1,57.5-96.2,86.3c-9.4,8.4-18.7,16.8-28.1,25.2c-2.3,2.1-4.7,4.2-7,6.3c-0.5,0.4-0.9,0.9-1.4,1.3     c-0.1,0.1-0.1,0.1-0.2,0.2c-0.4,0.4-1.6,1.7-2.3,1.9c0.6-0.4,1.1-0.9,1.7-1.3c-0.8,0.6-1.6,1.2-2.4,1.7c-2,1.4-4.1,2.6-6.2,3.7     c-1.2,0.6-2.6,1.5-3.9,1.9c0.5-0.1,4.2-1.5,0.8-0.4c-2.3,0.7-4.5,1.5-6.8,2c-0.9,0.2-1.8,0.4-2.8,0.6c-4.7,1.2,4.5-0.2-0.2,0.1     c-2.3,0.2-4.7,0.3-7,0.3c-1.8,0-5.3,0.3-7-0.5c3.1,1.4,2.9,0.5,1.1,0.1c-1.4-0.3-2.8-0.6-4.1-0.9c-2.1-0.5-4-1.3-6.1-1.9     c-2.8-0.8,4.4,2.2,0.2,0.1c-1.3-0.6-2.6-1.3-3.8-1.9c-2.1-1.2-4.1-2.5-6.2-3.9c-3.1-2.1,0.1,0.3,0.5,0.4     c-0.1-0.1-2.2-1.9-2.3-1.9c-0.1-0.1-0.1-0.1-0.2-0.2c-0.5-0.5-1-0.9-1.5-1.4c-6.4-5.8-12.9-11.6-19.3-17.3     c-28.4-25.5-56.8-50.9-85.2-76.4c-38.5-34.6-77-69.1-115.5-103.7c-35.6-31.9-71.1-63.8-106.7-95.8     c-19.6-17.6-39.3-35.2-58.9-52.8c-0.9-0.8-1.9-1.7-2.8-2.5c-7.8-7-20.7-8.3-28.3,0c-7,7.6-8.3,20.8,0,28.3     c14.1,12.7,28.2,25.3,42.3,38c33.3,29.9,66.6,59.7,99.8,89.6c39.2,35.2,78.4,70.4,117.6,105.6c31.9,28.6,63.8,57.3,95.7,85.9     c9.1,8.2,18.2,16.3,27.3,24.5c9.2,8.2,18.3,16.3,29.8,21.3c22.7,9.8,47.1,9.6,69.7-0.6c8.3-3.7,15.6-9.2,22.3-15.2     c6-5.4,12.1-10.8,18.1-16.3c28.1-25.2,56.2-50.4,84.3-75.6c38.8-34.8,77.6-69.6,116.3-104.4c35.8-32.1,71.6-64.3,107.4-96.4     c20-17.9,40-35.9,60-53.8c0.9-0.8,1.9-1.7,2.8-2.5c7.8-7,7.7-21.2,0-28.3C950.4,186.4,938.8,186.6,930.5,194.1L930.5,194.1z" id="XMLID_33_"/></g></g><g id="XMLID_9_"><g id="XMLID_23_"><path d="M958.8,801.6c-11.3-10.1-22.5-20.2-33.8-30.3c-27-24.2-54.1-48.5-81.1-72.7     c-32.6-29.2-65.1-58.4-97.7-87.6c-28.2-25.2-56.3-50.5-84.5-75.7c-13.7-12.3-27.3-24.9-41.3-37c-0.2-0.2-0.4-0.3-0.6-0.5     c-7.8-7-20.7-8.3-28.3,0c-7,7.6-8.3,20.8,0,28.3c11.3,10.1,22.5,20.2,33.8,30.3c27,24.2,54.1,48.5,81.1,72.7     c32.6,29.2,65.1,58.4,97.7,87.6c28.2,25.2,56.3,50.5,84.5,75.7c13.7,12.3,27.3,24.9,41.3,37c0.2,0.2,0.4,0.3,0.6,0.5     c7.8,7,20.7,8.3,28.3,0C965.8,822.3,967.1,809.1,958.8,801.6L958.8,801.6z" id="XMLID_27_"/></g></g><g id="XMLID_8_"><g id="XMLID_17_"><path d="M404.1,497.9c-11.3,10.1-22.5,20.2-33.8,30.3c-27,24.2-54.1,48.5-81.1,72.7     c-32.6,29.2-65.1,58.4-97.7,87.6c-28.2,25.2-56.3,50.5-84.5,75.7c-13.7,12.3-28,24.2-41.3,37c-0.2,0.2-0.4,0.3-0.6,0.5     c-7.8,7-7.7,21.2,0,28.3c8.3,7.7,20,7.5,28.3,0c11.3-10.1,22.5-20.2,33.8-30.3c27-24.2,54.1-48.5,81.1-72.7     c32.6-29.2,65.1-58.4,97.7-87.6c28.2-25.2,56.3-50.5,84.5-75.7c13.7-12.3,28-24.2,41.3-37c0.2-0.2,0.4-0.3,0.6-0.5     c7.8-7,7.7-21.2,0-28.3C424,490.2,412.4,490.4,404.1,497.9L404.1,497.9z" id="XMLID_21_"/></g></g></g></svg>