<?xml version="1.0" encoding="UTF-8"?>
<!DOCTYPE svg PUBLIC "-//W3C//DTD SVG 1.1//EN" "http://www.w3.org/Graphics/SVG/1.1/DTD/svg11.dtd">
<svg xmlns="http://www.w3.org/2000/svg" version="1.1" width="435px" height="359px" style="shape-rendering:geometricPrecision; text-rendering:geometricPrecision; image-rendering:optimizeQuality; fill-rule:evenodd; clip-rule:evenodd" xmlns:xlink="http://www.w3.org/1999/xlink">
<g><path style="opacity:0.163" fill="#eef8fc" d="M 218.5,14.5 C 219.492,14.3284 220.158,14.6618 220.5,15.5C 219.673,16.4387 219.006,16.1054 218.5,14.5 Z"/></g>
<g><path style="opacity:1" fill="#46b7e6" d="M 218.5,14.5 C 219.006,16.1054 219.673,16.4387 220.5,15.5C 224.167,17.1667 226.833,19.8333 228.5,23.5C 227.561,24.3274 227.895,24.9941 229.5,25.5C 229.948,35.3847 225.282,41.0513 215.5,42.5C 212.483,42.2742 209.816,41.2742 207.5,39.5C 207.5,37.5 206.5,36.5 204.5,36.5C 199.464,27.1036 201.798,19.9369 211.5,15C 213.81,14.5034 216.143,14.3367 218.5,14.5 Z"/></g>
<g><path style="opacity:0.163" fill="#eaf7fc" d="M 228.5,23.5 C 229.338,23.8417 229.672,24.5084 229.5,25.5C 227.895,24.9941 227.561,24.3274 228.5,23.5 Z"/></g>
<g><path style="opacity:0.6" fill="#d6f0f9" d="M 204.5,36.5 C 206.5,36.5 207.5,37.5 207.5,39.5C 206.167,38.8333 205.167,37.8333 204.5,36.5 Z"/></g>
<g><path style="opacity:0.151" fill="#f8fcfe" d="M 212.5,53.5 C 214.833,52.1667 217.167,52.1667 219.5,53.5C 217.477,53.7153 215.144,53.7153 212.5,53.5 Z"/></g>
<g><path style="opacity:0.999" fill="#42b7e6" d="M 212.5,53.5 C 215.144,53.7153 217.477,53.7153 219.5,53.5C 233.363,57.2137 239.196,66.2137 237,80.5C 232.272,92.7424 223.439,98.0757 210.5,96.5C 209.994,94.8946 209.327,94.5613 208.5,95.5C 195.672,89.8919 191.172,80.2252 195,66.5C 198.442,58.8842 204.276,54.5509 212.5,53.5 Z"/></g>
<g><path style="opacity:0.125" fill="#ebf7fc" d="M 168.5,87.5 C 169.492,87.3284 170.158,87.6618 170.5,88.5C 169.673,89.4387 169.006,89.1054 168.5,87.5 Z"/></g>
<g><path style="opacity:0.151" fill="#f3fbfd" d="M 262.5,87.5 C 261.994,89.1054 261.327,89.4387 260.5,88.5C 260.842,87.6618 261.508,87.3284 262.5,87.5 Z"/></g>
<g><path style="opacity:0.999" fill="#43b7e6" d="M 248.5,114.5 C 249.439,113.673 249.105,113.006 247.5,112.5C 245.066,100.784 249.399,92.784 260.5,88.5C 261.327,89.4387 261.994,89.1054 262.5,87.5C 276.792,86.4493 284.792,93.1159 286.5,107.5C 286.533,114.597 283.533,120.097 277.5,124C 269.6,128.849 261.933,128.516 254.5,123C 251.619,120.721 249.619,117.888 248.5,114.5 Z"/></g>
<g><path style="opacity:1" fill="#40b6e6" d="M 168.5,87.5 C 169.006,89.1054 169.673,89.4387 170.5,88.5C 171.791,88.2627 172.791,88.596 173.5,89.5C 173.586,90.4959 173.252,91.3292 172.5,92C 175.89,92.9319 178.89,94.4319 181.5,96.5C 184.038,100.431 185.038,104.765 184.5,109.5C 183.733,110.172 183.066,111.005 182.5,112C 182.728,112.399 183.062,112.565 183.5,112.5C 177.531,126.646 167.531,130.479 153.5,124C 148.962,120.975 146.296,116.809 145.5,111.5C 145.5,108.5 145.5,105.5 145.5,102.5C 145.5,102.167 145.5,101.833 145.5,101.5C 147.105,100.994 147.439,100.327 146.5,99.5C 150.696,90.0098 158.029,86.0098 168.5,87.5 Z"/></g>
<g><path style="opacity:0.166" fill="#f5fcfe" d="M 83.5,93.5 C 82.828,94.2674 81.9947,94.9341 81,95.5C 80.6012,95.2716 80.4346,94.9382 80.5,94.5C 81.209,93.596 82.209,93.2627 83.5,93.5 Z"/></g>
<g><path style="opacity:0.675" fill="#80caea" d="M 173.5,89.5 C 176.784,91.117 179.451,93.4503 181.5,96.5C 178.89,94.4319 175.89,92.9319 172.5,92C 173.252,91.3292 173.586,90.4959 173.5,89.5 Z"/></g>
<g><path style="opacity:0.163" fill="#eaf7fc" d="M 348.5,93.5 C 349.492,93.3284 350.158,93.6618 350.5,94.5C 349.673,95.4387 349.006,95.1054 348.5,93.5 Z"/></g>
<g><path style="opacity:0.996" fill="#4ab8e6" d="M 348.5,93.5 C 349.006,95.1054 349.673,95.4387 350.5,94.5C 362.179,102.091 362.179,109.925 350.5,118C 343.989,119.874 338.822,118.041 335,112.5C 331.543,100.463 336.043,94.1293 348.5,93.5 Z"/></g>
<g><path style="opacity:0.999" fill="#49b8e6" d="M 83.5,93.5 C 94.1023,94.2727 98.6023,99.9394 97,110.5C 93.5896,117.453 88.0896,119.953 80.5,118C 78.0772,117.303 76.4105,115.803 75.5,113.5C 75.1667,112.5 74.5,111.833 73.5,111.5C 70.974,103.729 73.3073,98.0623 80.5,94.5C 80.4346,94.9382 80.6012,95.2716 81,95.5C 81.9947,94.9341 82.828,94.2674 83.5,93.5 Z"/></g>
<g><path style="opacity:0.12" fill="#ebf7fc" d="M 210.5,96.5 C 209.508,96.6716 208.842,96.3382 208.5,95.5C 209.327,94.5613 209.994,94.8946 210.5,96.5 Z"/></g>
<g><path style="opacity:0.155" fill="#edf8fc" d="M 146.5,99.5 C 147.439,100.327 147.105,100.994 145.5,101.5C 145.328,100.508 145.662,99.8417 146.5,99.5 Z"/></g>
<g><path style="opacity:0.168" fill="#f2fafd" d="M 145.5,102.5 C 145.5,105.5 145.5,108.5 145.5,111.5C 144.167,108.5 144.167,105.5 145.5,102.5 Z"/></g>
<g><path style="opacity:0.166" fill="#f1f9fd" d="M 184.5,109.5 C 184.737,110.791 184.404,111.791 183.5,112.5C 183.062,112.565 182.728,112.399 182.5,112C 183.066,111.005 183.733,110.172 184.5,109.5 Z"/></g>
<g><path style="opacity:0.166" fill="#f0f9fc" d="M 218.5,109.5 C 219.791,109.263 220.791,109.596 221.5,110.5C 221.565,110.938 221.399,111.272 221,111.5C 220.005,110.934 219.172,110.267 218.5,109.5 Z"/></g>
<g><path style="opacity:0.122" fill="#f2fafd" d="M 208.5,110.5 C 207.994,112.105 207.327,112.439 206.5,111.5C 206.842,110.662 207.508,110.328 208.5,110.5 Z"/></g>
<g><path style="opacity:0.999" fill="#40b6e6" d="M 218.5,109.5 C 219.172,110.267 220.005,110.934 221,111.5C 221.399,111.272 221.565,110.938 221.5,110.5C 228.009,111.676 233.176,115.009 237,120.5C 242.824,134.481 253.324,142.147 268.5,143.5C 283.061,138.517 294.227,142.517 302,155.5C 302.818,158.107 303.318,160.774 303.5,163.5C 294.45,186.698 300.783,204.031 322.5,215.5C 329.402,223.181 330.235,231.515 325,240.5C 307.233,252.634 301.733,268.967 308.5,289.5C 308.517,296.63 305.184,301.463 298.5,304C 285.432,303.58 278.099,309.747 276.5,322.5C 275.751,323.531 275.085,324.698 274.5,326C 274.728,326.399 275.062,326.565 275.5,326.5C 273.386,334.733 268.053,338.233 259.5,337C 251.625,334.739 248.125,329.573 249,321.5C 250.473,317.221 252.473,313.221 255,309.5C 264,298.5 273,287.5 282,276.5C 285.243,270.084 287.743,263.751 289.5,257.5C 290.267,256.828 290.934,255.995 291.5,255C 291.272,254.601 290.938,254.435 290.5,254.5C 291.317,245.191 291.65,235.857 291.5,226.5C 291.938,226.565 292.272,226.399 292.5,226C 291.934,225.005 291.267,224.172 290.5,223.5C 289.518,220.237 288.851,216.903 288.5,213.5C 289.439,212.673 289.105,212.006 287.5,211.5C 271.362,173.588 242.695,157.088 201.5,162C 171.244,168.78 151.578,186.947 142.5,216.5C 140.895,217.006 140.561,217.673 141.5,218.5C 136.962,240.579 140.462,261.246 152,280.5C 160.71,290.208 169.043,300.208 177,310.5C 180.077,314.488 181.91,318.988 182.5,324C 179.424,336.205 172.091,339.871 160.5,335C 156.802,332.081 155.136,328.247 155.5,323.5C 155.938,323.565 156.272,323.399 156.5,323C 155.915,321.698 155.249,320.531 154.5,319.5C 154.5,318.833 154.5,318.167 154.5,317.5C 155.439,316.673 155.105,316.006 153.5,315.5C 152.094,312.586 150.094,310.086 147.5,308C 142.657,306.136 137.657,304.803 132.5,304C 126.386,300.881 123.053,295.881 122.5,289C 127.531,275.323 126.031,262.49 118,250.5C 113.326,246.657 108.826,242.657 104.5,238.5C 100.928,228.956 102.928,220.79 110.5,214C 127.686,205.795 134.352,192.295 130.5,173.5C 131.439,172.673 131.105,172.006 129.5,171.5C 128.781,169.236 128.448,166.903 128.5,164.5C 129.506,164.062 129.506,163.396 128.5,162.5C 128.247,157.353 129.913,153.02 133.5,149.5C 135.5,149.5 136.5,148.5 136.5,146.5C 138.216,144.975 140.216,143.975 142.5,143.5C 143.327,144.439 143.994,144.105 144.5,142.5C 146.076,141.925 147.742,141.592 149.5,141.5C 155.152,142.355 160.819,143.022 166.5,143.5C 167.779,144.715 168.779,144.382 169.5,142.5C 182.262,138.907 191.096,130.907 196,118.5C 198.612,114.781 202.112,112.448 206.5,111.5C 207.327,112.439 207.994,112.105 208.5,110.5C 211.764,109.676 215.098,109.342 218.5,109.5 Z"/></g>
<g><path style="opacity:0.004" fill="#e8eff2" d="M 73.5,111.5 C 74.5,111.833 75.1667,112.5 75.5,113.5C 74.1667,113.5 73.5,112.833 73.5,111.5 Z"/></g>
<g><path style="opacity:0.125" fill="#eff8fd" d="M 247.5,112.5 C 249.105,113.006 249.439,113.673 248.5,114.5C 247.662,114.158 247.328,113.492 247.5,112.5 Z"/></g>
<g><path style="opacity:0.166" fill="#f5fcfe" d="M 111.5,114.5 C 110.828,115.267 109.995,115.934 109,116.5C 108.601,116.272 108.435,115.938 108.5,115.5C 109.209,114.596 110.209,114.263 111.5,114.5 Z"/></g>
<g><path style="opacity:0.166" fill="#f3fafd" d="M 115.5,114.5 C 116.791,114.263 117.791,114.596 118.5,115.5C 118.565,115.938 118.399,116.272 118,116.5C 117.005,115.934 116.172,115.267 115.5,114.5 Z"/></g>
<g><path style="opacity:0.166" fill="#eef8fc" d="M 319.5,114.5 C 320.791,114.263 321.791,114.596 322.5,115.5C 322.565,115.938 322.399,116.272 322,116.5C 321.005,115.934 320.172,115.267 319.5,114.5 Z"/></g>
<g><path style="opacity:1" fill="#44b7e6" d="M 111.5,114.5 C 112.833,114.5 114.167,114.5 115.5,114.5C 116.172,115.267 117.005,115.934 118,116.5C 118.399,116.272 118.565,115.938 118.5,115.5C 128.712,119.592 132.212,126.925 129,137.5C 123.199,147.648 115.032,150.148 104.5,145C 101.882,142.894 99.8823,140.394 98.5,137.5C 99.4387,136.673 99.1054,136.006 97.5,135.5C 95.8978,126.044 99.5645,119.377 108.5,115.5C 108.435,115.938 108.601,116.272 109,116.5C 109.995,115.934 110.828,115.267 111.5,114.5 Z"/></g>
<g><path style="opacity:1" fill="#45b7e6" d="M 319.5,114.5 C 320.172,115.267 321.005,115.934 322,116.5C 322.399,116.272 322.565,115.938 322.5,115.5C 328.384,116.881 332.217,120.547 334,126.5C 334.987,141.846 327.82,148.679 312.5,147C 307.59,144.925 304.257,141.425 302.5,136.5C 303.439,135.673 303.105,135.006 301.5,134.5C 300.839,129.644 301.839,125.31 304.5,121.5C 306.833,121.167 308.167,119.833 308.5,117.5C 311.726,115.123 315.393,114.123 319.5,114.5 Z"/></g>
<g><path style="opacity:0.635" fill="#c0e6f5" d="M 308.5,117.5 C 308.167,119.833 306.833,121.167 304.5,121.5C 305.5,119.833 306.833,118.5 308.5,117.5 Z"/></g>
<g><path style="opacity:0.163" fill="#eef8fc" d="M 301.5,134.5 C 303.105,135.006 303.439,135.673 302.5,136.5C 301.662,136.158 301.328,135.492 301.5,134.5 Z"/></g>
<g><path style="opacity:0.139" fill="#ebf7fc" d="M 97.5,135.5 C 99.1054,136.006 99.4387,136.673 98.5,137.5C 97.6618,137.158 97.3284,136.492 97.5,135.5 Z"/></g>
<g><path style="opacity:0.143" fill="#ecf8fc" d="M 144.5,142.5 C 143.994,144.105 143.327,144.439 142.5,143.5C 142.842,142.662 143.508,142.328 144.5,142.5 Z"/></g>
<g><path style="opacity:0.839" fill="#b8e3f5" d="M 169.5,142.5 C 168.779,144.382 167.779,144.715 166.5,143.5C 167.209,142.596 168.209,142.263 169.5,142.5 Z"/></g>
<g><path style="opacity:0.588" fill="#d9f0fa" d="M 136.5,146.5 C 136.5,148.5 135.5,149.5 133.5,149.5C 134.167,148.167 135.167,147.167 136.5,146.5 Z"/></g>
<g><path style="opacity:0.065" fill="#eaf7fb" d="M 128.5,162.5 C 129.506,163.396 129.506,164.062 128.5,164.5C 127.167,163.833 127.167,163.167 128.5,162.5 Z"/></g>
<g><path style="opacity:0.166" fill="#f5fcfe" d="M 335.5,163.5 C 336.791,163.263 337.791,163.596 338.5,164.5C 338.565,164.938 338.399,165.272 338,165.5C 337.005,164.934 336.172,164.267 335.5,163.5 Z"/></g>
<g><path style="opacity:1" fill="#44b7e6" d="M 105.5,200.5 C 104.673,199.561 104.006,199.895 103.5,201.5C 92.4459,203.795 84.7792,199.461 80.5,188.5C 81.4387,187.673 81.1054,187.006 79.5,186.5C 79.1502,181.964 79.8169,177.631 81.5,173.5C 82.8333,173.5 83.5,172.833 83.5,171.5C 89.4222,163.624 97.0889,161.457 106.5,165C 116.407,170.38 119.907,178.547 117,189.5C 114.594,194.741 110.761,198.408 105.5,200.5 Z"/></g>
<g><path style="opacity:0.999" fill="#43b7e6" d="M 335.5,163.5 C 336.172,164.267 337.005,164.934 338,165.5C 338.399,165.272 338.565,164.938 338.5,164.5C 349.208,168.546 353.542,176.213 351.5,187.5C 349.895,188.006 349.561,188.673 350.5,189.5C 347.415,197.406 341.581,201.739 333,202.5C 323.721,201.793 317.554,197.126 314.5,188.5C 314.938,188.565 315.272,188.399 315.5,188C 314.934,187.005 314.267,186.172 313.5,185.5C 313.012,176.476 316.679,169.643 324.5,165C 328.06,163.763 331.727,163.263 335.5,163.5 Z"/></g>
<g><path style="opacity:0.127" fill="#eff8fd" d="M 129.5,171.5 C 131.105,172.006 131.439,172.673 130.5,173.5C 129.662,173.158 129.328,172.492 129.5,171.5 Z"/></g>
<g><path style="opacity:0.682" fill="#e0f4fb" d="M 83.5,171.5 C 83.5,172.833 82.8333,173.5 81.5,173.5C 81.8333,172.5 82.5,171.833 83.5,171.5 Z"/></g>
<g><path style="opacity:0.166" fill="#f5fcfe" d="M 313.5,185.5 C 314.267,186.172 314.934,187.005 315.5,188C 315.272,188.399 314.938,188.565 314.5,188.5C 313.596,187.791 313.263,186.791 313.5,185.5 Z"/></g>
<g><path style="opacity:0.163" fill="#eef8fc" d="M 79.5,186.5 C 81.1054,187.006 81.4387,187.673 80.5,188.5C 79.6618,188.158 79.3284,187.492 79.5,186.5 Z"/></g>
<g><path style="opacity:0.129" fill="#ecf8fc" d="M 351.5,187.5 C 351.672,188.492 351.338,189.158 350.5,189.5C 349.561,188.673 349.895,188.006 351.5,187.5 Z"/></g>
<g><path style="opacity:0.163" fill="#eaf7fc" d="M 105.5,200.5 C 105.158,201.338 104.492,201.672 103.5,201.5C 104.006,199.895 104.673,199.561 105.5,200.5 Z"/></g>
<g><path style="opacity:0.12" fill="#ebf7fc" d="M 287.5,211.5 C 289.105,212.006 289.439,212.673 288.5,213.5C 287.662,213.158 287.328,212.492 287.5,211.5 Z"/></g>
<g><path style="opacity:0.165" fill="#f5fbfd" d="M 47.5,214.5 C 45.5248,214.822 43.8582,214.822 42.5,214.5C 44.1667,213.167 45.8333,213.167 47.5,214.5 Z"/></g>
<g><path style="opacity:0.121" fill="#f8fcfd" d="M 389.5,214.5 C 387.19,214.758 385.19,214.758 383.5,214.5C 385.5,213.167 387.5,213.167 389.5,214.5 Z"/></g>
<g><path style="opacity:1" fill="#4db9e7" d="M 76.5,212.5 C 91.7502,212.899 96.9169,220.233 92,234.5C 84,243.833 76,243.833 68,234.5C 63.8303,224.501 66.6637,217.167 76.5,212.5 Z"/></g>
<g><path style="opacity:1" fill="#4ab8e6" d="M 358.5,214.5 C 358.343,215.873 358.51,217.207 359,218.5C 359.667,217.167 360.333,217.167 361,218.5C 361.483,219.448 361.649,220.448 361.5,221.5C 362.5,221.5 363.5,221.5 364.5,221.5C 367.02,230.796 363.853,237.463 355,241.5C 352.6,241.692 350.1,241.359 347.5,240.5C 346.994,238.895 346.327,238.561 345.5,239.5C 345.167,239.5 344.833,239.5 344.5,239.5C 344.158,238.662 343.492,238.328 342.5,238.5C 333.995,230.252 334.662,222.086 344.5,214C 349.273,211.946 353.939,212.113 358.5,214.5 Z"/></g>
<g><path style="opacity:1" fill="#4cb9e6" d="M 42.5,214.5 C 43.8582,214.822 45.5248,214.822 47.5,214.5C 53.538,216.246 56.3713,220.246 56,226.5C 55.6264,228.491 54.793,230.158 53.5,231.5C 52.1667,231.5 51.5,232.167 51.5,233.5C 43.8075,237.42 37.9742,235.42 34,227.5C 33.3239,220.848 36.1572,216.515 42.5,214.5 Z"/></g>
<g><path style="opacity:0.163" fill="#eaf7fc" d="M 142.5,216.5 C 142.672,217.492 142.338,218.158 141.5,218.5C 140.561,217.673 140.895,217.006 142.5,216.5 Z"/></g>
<g><path style="opacity:0.282" fill="#dff0f7" d="M 380.5,215.5 C 380.5,217.5 379.5,218.5 377.5,218.5C 377.81,216.856 378.81,215.856 380.5,215.5 Z"/></g>
<g><path style="opacity:1" fill="#48b8e6" d="M 383.5,214.5 C 385.19,214.758 387.19,214.758 389.5,214.5C 397.661,218.151 399.495,223.818 395,231.5C 388.708,237.048 382.708,236.715 377,230.5C 374.946,226.387 375.113,222.387 377.5,218.5C 379.5,218.5 380.5,217.5 380.5,215.5C 381.391,214.89 382.391,214.557 383.5,214.5 Z"/></g>
<g><path style="opacity:1" fill="#8bcded" d="M 358.5,214.5 C 361.219,216.219 363.219,218.553 364.5,221.5C 363.5,221.5 362.5,221.5 361.5,221.5C 361.649,220.448 361.483,219.448 361,218.5C 360.333,217.167 359.667,217.167 359,218.5C 358.51,217.207 358.343,215.873 358.5,214.5 Z"/></g>
<g><path style="opacity:0.163" fill="#f0f9fc" d="M 290.5,223.5 C 291.267,224.172 291.934,225.005 292.5,226C 292.272,226.399 291.938,226.565 291.5,226.5C 290.596,225.791 290.263,224.791 290.5,223.5 Z"/></g>
<g><path style="opacity:0.153" fill="#eaf7fb" d="M 53.5,231.5 C 53.1667,232.5 52.5,233.167 51.5,233.5C 51.5,232.167 52.1667,231.5 53.5,231.5 Z"/></g>
<g><path style="opacity:0.035" fill="#e5edf0" d="M 342.5,238.5 C 343.492,238.328 344.158,238.662 344.5,239.5C 343.673,240.439 343.006,240.105 342.5,238.5 Z"/></g>
<g><path style="opacity:0.129" fill="#eff8fd" d="M 347.5,240.5 C 346.508,240.672 345.842,240.338 345.5,239.5C 346.327,238.561 346.994,238.895 347.5,240.5 Z"/></g>
<g><path style="opacity:0.151" fill="#eff9fd" d="M 93.5,253.5 C 92.9941,255.105 92.3274,255.439 91.5,254.5C 91.8417,253.662 92.5084,253.328 93.5,253.5 Z"/></g>
<g><path style="opacity:1" fill="#4ab8e6" d="M 91.5,254.5 C 92.3274,255.439 92.9941,255.105 93.5,253.5C 102.199,251.262 109.032,253.929 114,261.5C 117.851,273.298 114.017,281.465 102.5,286C 87.0201,286.182 80.5201,278.682 83,263.5C 84.6591,259.342 87.4924,256.342 91.5,254.5 Z"/></g>
<g><path style="opacity:0.157" fill="#f3fafd" d="M 290.5,254.5 C 290.938,254.435 291.272,254.601 291.5,255C 290.934,255.995 290.267,256.828 289.5,257.5C 289.263,256.209 289.596,255.209 290.5,254.5 Z"/></g>
<g><path style="opacity:1" fill="#4bb9e7" d="M 328.5,252.5 C 338.24,251.576 345.073,255.576 349,264.5C 350.891,275.221 346.724,282.387 336.5,286C 326.502,287.082 319.669,282.916 316,273.5C 314.579,263.104 318.745,256.104 328.5,252.5 Z"/></g>
<g><path style="opacity:0.092" fill="#f8fcfd" d="M 112.5,297.5 C 110.525,297.822 108.858,297.822 107.5,297.5C 109.167,296.167 110.833,296.167 112.5,297.5 Z"/></g>
<g><path style="opacity:0.151" fill="#edf8fc" d="M 318.5,297.5 C 317.994,299.105 317.327,299.439 316.5,298.5C 316.842,297.662 317.508,297.328 318.5,297.5 Z"/></g>
<g><path style="opacity:0.808" fill="#c3e8f6" d="M 323.5,297.5 C 322.167,298.833 320.833,298.833 319.5,297.5C 320.833,296.167 322.167,296.167 323.5,297.5 Z"/></g>
<g><path style="opacity:1" fill="#4fbae7" d="M 107.5,297.5 C 108.858,297.822 110.525,297.822 112.5,297.5C 123.533,302.497 125.199,309.664 117.5,319C 113.363,321.559 109.03,322.059 104.5,320.5C 104.179,318.952 103.179,318.285 101.5,318.5C 95.9118,311.756 96.2451,305.256 102.5,299C 104.025,297.991 105.692,297.491 107.5,297.5 Z"/></g>
<g><path style="opacity:0.999" fill="#49b8e6" d="M 318.5,297.5 C 318.833,297.5 319.167,297.5 319.5,297.5C 320.833,298.833 322.167,298.833 323.5,297.5C 332.325,299.804 335.492,305.471 333,314.5C 326.028,323.373 318.694,323.706 311,315.5C 308.932,311.056 309.099,306.723 311.5,302.5C 312.833,302.5 313.5,301.833 313.5,300.5C 314.29,299.599 315.29,298.932 316.5,298.5C 317.327,299.439 317.994,299.105 318.5,297.5 Z"/></g>
<g><path style="opacity:0.282" fill="#e4f1f7" d="M 313.5,300.5 C 313.5,301.833 312.833,302.5 311.5,302.5C 311.5,301.167 312.167,300.5 313.5,300.5 Z"/></g>
<g><path style="opacity:0.163" fill="#ecf7fc" d="M 291.5,313.5 C 290.994,315.105 290.327,315.439 289.5,314.5C 289.842,313.662 290.508,313.328 291.5,313.5 Z"/></g>
<g><path style="opacity:0.998" fill="#49b8e6" d="M 291.5,313.5 C 300.167,313.5 304.5,317.833 304.5,326.5C 302.895,327.006 302.561,327.673 303.5,328.5C 301.626,333.198 298.126,335.865 293,336.5C 290.553,335.594 288.053,334.761 285.5,334C 279.675,325.985 281.008,319.485 289.5,314.5C 290.327,315.439 290.994,315.105 291.5,313.5 Z"/></g>
<g><path style="opacity:0.996" fill="#4ab8e6" d="M 127.5,327.5 C 127.822,326.142 127.822,324.475 127.5,322.5C 129.449,315.411 134.116,312.577 141.5,314C 148.823,317.478 150.989,322.978 148,330.5C 141.953,336.728 135.62,337.062 129,331.5C 128.209,330.255 127.709,328.922 127.5,327.5 Z"/></g>
<g><path style="opacity:0.159" fill="#eff9fd" d="M 153.5,315.5 C 155.105,316.006 155.439,316.673 154.5,317.5C 153.662,317.158 153.328,316.492 153.5,315.5 Z"/></g>
<g><path style="opacity:0.165" fill="#f8fcfe" d="M 343.5,317.5 C 345.167,316.167 346.833,316.167 348.5,317.5C 347.142,317.822 345.475,317.822 343.5,317.5 Z"/></g>
<g><path style="opacity:0.204" fill="#e6f2f7" d="M 101.5,318.5 C 103.179,318.285 104.179,318.952 104.5,320.5C 103.29,320.068 102.29,319.401 101.5,318.5 Z"/></g>
<g><path style="opacity:0.998" fill="#52bae7" d="M 94.5,328.5 C 92.8946,329.006 92.5613,329.673 93.5,330.5C 89.5484,335.629 84.5484,336.796 78.5,334C 73.2242,323.791 76.2242,318.124 87.5,317C 93.0148,318.858 95.3481,322.692 94.5,328.5 Z"/></g>
<g><path style="opacity:0.168" fill="#f1f9fd" d="M 154.5,319.5 C 155.249,320.531 155.915,321.698 156.5,323C 156.272,323.399 155.938,323.565 155.5,323.5C 154.566,322.432 154.232,321.099 154.5,319.5 Z"/></g>
<g><path style="opacity:0.997" fill="#51bae7" d="M 343.5,317.5 C 345.475,317.822 347.142,317.822 348.5,317.5C 355.002,319.688 357.002,324.021 354.5,330.5C 353.167,330.5 352.5,331.167 352.5,332.5C 347.422,336.764 342.588,336.431 338,331.5C 335.117,324.937 336.951,320.271 343.5,317.5 Z"/></g>
<g><path style="opacity:0.111" fill="#f8fcfd" d="M 127.5,322.5 C 127.822,324.475 127.822,326.142 127.5,327.5C 126.167,325.833 126.167,324.167 127.5,322.5 Z"/></g>
<g><path style="opacity:0.155" fill="#f2fafd" d="M 276.5,322.5 C 276.768,324.099 276.434,325.432 275.5,326.5C 275.062,326.565 274.728,326.399 274.5,326C 275.085,324.698 275.751,323.531 276.5,322.5 Z"/></g>
<g><path style="opacity:0.163" fill="#eaf7fc" d="M 304.5,326.5 C 304.672,327.492 304.338,328.158 303.5,328.5C 302.561,327.673 302.895,327.006 304.5,326.5 Z"/></g>
<g><path style="opacity:0.163" fill="#e9f6fb" d="M 94.5,328.5 C 94.6716,329.492 94.3382,330.158 93.5,330.5C 92.5613,329.673 92.8946,329.006 94.5,328.5 Z"/></g>
<g><path style="opacity:0.11" fill="#eaf7fc" d="M 354.5,330.5 C 354.167,331.5 353.5,332.167 352.5,332.5C 352.5,331.167 353.167,330.5 354.5,330.5 Z"/></g>
</svg>
