<svg xmlns="http://www.w3.org/2000/svg" width="48" height="48" fill="none" viewBox="0 0 48 48" id="asana"><path fill="url(#paint0_radial_147648_1439)" d="M37.5611 25.4881C31.7952 25.4881 27.1218 30.1616 27.1218 35.927C27.1218 41.6927 31.7952 46.3666 37.5611 46.3666C43.3263 46.3666 48 41.6927 48 35.927C48 30.1616 43.3263 25.4881 37.5611 25.4881ZM10.4391 25.4888C4.67392 25.4888 0 30.1616 0 35.9275C0 41.6927 4.67392 46.3666 10.4391 46.3666C16.2047 46.3666 20.8788 41.6927 20.8788 35.9275C20.8788 30.1616 16.2047 25.4888 10.4391 25.4888ZM34.4388 12.4389C34.4388 18.2043 29.7655 22.879 24.0003 22.879C18.2345 22.879 13.561 18.2043 13.561 12.4389C13.561 6.67392 18.2345 2 24.0003 2C29.7655 2 34.4388 6.67392 34.4388 12.4389Z"></path><defs><radialGradient id="paint0_radial_147648_1439" cx="0" cy="0" r="1" gradientTransform="matrix(31.8064 0 0 29.3988 24 26.247)" gradientUnits="userSpaceOnUse"><stop stop-color="#FFB900"></stop><stop offset=".6" stop-color="#F95D8F"></stop><stop offset=".999" stop-color="#F95353"></stop></radialGradient></defs></svg>