<?xml version="1.0" ?><svg viewBox="0 0 32 32" xmlns="http://www.w3.org/2000/svg"><title/><g id="planning"><path d="M9.32,15.29,7.71,13.68A1,1,0,0,0,6,14.39V15a1,1,0,0,1-1-1V9A1,1,0,0,1,6,8H8A1,1,0,0,0,8,6H6A3,3,0,0,0,3,9v5a3,3,0,0,0,3,3v.61a1,1,0,0,0,1.71.71l1.61-1.61A1,1,0,0,0,9.32,15.29Z"/><path d="M26,15H24a1,1,0,0,0,0,2h2a1,1,0,0,1,1,1v5a1,1,0,0,1-1,1v-.61a1,1,0,0,0-1.71-.71l-1.61,1.61a1,1,0,0,0,0,1.41l1.61,1.61A1,1,0,0,0,26,26.61V26a3,3,0,0,0,3-3V18A3,3,0,0,0,26,15Z"/><path d="M13,10h6a3,3,0,0,0,0-6H13a3,3,0,0,0,0,6Zm0-4h6a1,1,0,0,1,0,2H13a1,1,0,0,1,0-2Z"/><path d="M19,13H13a3,3,0,0,0,0,6h6a3,3,0,0,0,0-6Zm0,4H13a1,1,0,0,1,0-2h6a1,1,0,0,1,0,2Z"/><path d="M19,22H13a3,3,0,0,0,0,6h6a3,3,0,0,0,0-6Zm0,4H13a1,1,0,0,1,0-2h6a1,1,0,0,1,0,2Z"/></g></svg>