<?xml version="1.0" ?><svg height="48" viewBox="0 0 48 48" width="48" xmlns="http://www.w3.org/2000/svg"><defs><style>.cls-1{fill:none;stroke:#000;stroke-linecap:round;stroke-linejoin:round;stroke-width:2px;}</style></defs><title/><g data-name="20-Workflow" id="_20-Workflow"><path class="cls-1" d="M16,9a2,2,0,0,0,2,2H30a2,2,0,0,0,2-2"/><path class="cls-1" d="M32,3a2,2,0,0,0-2-2H18a2,2,0,0,0-2,2"/><path class="cls-1" d="M32,21a2,2,0,0,0-2-2H18a2,2,0,0,0-2,2"/><path class="cls-1" d="M16,27a2,2,0,0,0,2,2H30a2,2,0,0,0,2-2"/><rect class="cls-1" height="10" rx="2" ry="2" width="16" x="16" y="37"/><path class="cls-1" d="M16,6H43a1.959,1.959,0,0,1,2,2V22a1.959,1.959,0,0,1-2,2H37"/><polyline class="cls-1" points="40 21 37 24 40 27"/><path class="cls-1" d="M32,24H5a1.959,1.959,0,0,0-2,2V40a1.959,1.959,0,0,0,2,2h6"/><polyline class="cls-1" points="8 39 11 42 8 45"/><line class="cls-1" x1="24" x2="24" y1="11" y2="19"/><line class="cls-1" x1="24" x2="24" y1="29" y2="37"/><line class="cls-1" x1="21" x2="22" y1="42" y2="42"/><line class="cls-1" x1="26" x2="27" y1="42" y2="42"/></g></svg>