<svg id="svg" version="1.1" xmlns="http://www.w3.org/2000/svg" xmlns:xlink="http://www.w3.org/1999/xlink" width="400" height="432.83582089552243" viewBox="0, 0, 400,432.83582089552243"><g id="svgg"><path id="path0" d="M0.000 1.800 C 0.000 2.790,0.180 3.600,0.400 3.600 C 0.620 3.600,0.800 3.960,0.800 4.400 C 0.800 4.933,1.067 5.200,1.600 5.200 C 2.133 5.200,2.400 5.467,2.400 6.000 C 2.400 6.444,2.667 6.800,3.000 6.800 C 3.330 6.800,3.600 7.070,3.600 7.400 C 3.600 7.733,3.956 8.000,4.400 8.000 C 4.933 8.000,5.200 8.267,5.200 8.800 C 5.200 9.333,5.467 9.600,6.000 9.600 C 6.533 9.600,6.800 9.867,6.800 10.400 C 6.800 10.933,7.067 11.200,7.600 11.200 C 8.133 11.200,8.400 11.467,8.400 12.000 C 8.400 12.444,8.667 12.800,9.000 12.800 C 9.330 12.800,9.600 13.070,9.600 13.400 C 9.600 13.733,9.956 14.000,10.400 14.000 C 10.933 14.000,11.200 14.267,11.200 14.800 C 11.200 15.333,11.467 15.600,12.000 15.600 C 12.533 15.600,12.800 15.867,12.800 16.400 C 12.800 16.840,13.058 17.200,13.373 17.200 C 13.688 17.200,14.064 17.573,14.209 18.029 C 14.367 18.527,14.697 18.772,15.036 18.641 C 15.404 18.500,15.600 18.699,15.600 19.213 C 15.600 19.733,15.871 20.000,16.400 20.000 C 16.933 20.000,17.200 20.267,17.200 20.800 C 17.200 21.240,17.335 21.579,17.500 21.553 C 18.384 21.413,18.800 21.684,18.800 22.400 C 18.800 22.929,19.067 23.200,19.587 23.200 C 20.101 23.200,20.300 23.396,20.159 23.764 C 20.028 24.103,20.273 24.433,20.771 24.591 C 21.227 24.736,21.600 25.112,21.600 25.427 C 21.600 25.742,21.960 26.000,22.400 26.000 C 22.933 26.000,23.200 26.267,23.200 26.800 C 23.200 27.333,23.467 27.600,24.000 27.600 C 24.440 27.600,24.800 27.864,24.800 28.186 C 24.800 28.508,25.165 28.967,25.611 29.206 C 26.057 29.445,26.317 29.811,26.188 30.020 C 26.058 30.229,26.323 30.400,26.776 30.400 C 27.513 30.400,27.788 30.810,27.647 31.700 C 27.621 31.865,27.960 32.000,28.400 32.000 C 28.933 32.000,29.200 32.267,29.200 32.800 C 29.200 33.240,29.335 33.579,29.500 33.553 C 30.384 33.413,30.800 33.684,30.800 34.400 C 30.800 34.929,31.067 35.200,31.587 35.200 C 32.123 35.200,32.301 35.392,32.145 35.800 C 31.985 36.216,32.172 36.400,32.757 36.400 C 33.333 36.400,33.600 36.653,33.600 37.200 C 33.600 37.733,33.867 38.000,34.400 38.000 C 34.933 38.000,35.200 38.267,35.200 38.800 C 35.200 39.240,35.372 39.600,35.582 39.600 C 35.792 39.600,36.422 40.058,36.982 40.618 C 37.542 41.178,38.000 41.808,38.000 42.018 C 38.000 42.228,38.360 42.400,38.800 42.400 C 39.333 42.400,39.600 42.667,39.600 43.200 C 39.600 43.733,39.867 44.000,40.400 44.000 C 40.939 44.000,41.200 44.267,41.200 44.818 C 41.200 45.374,41.423 45.598,41.900 45.518 C 42.313 45.448,42.554 45.619,42.489 45.934 C 42.427 46.228,42.726 46.560,43.152 46.671 C 43.578 46.783,44.019 47.228,44.132 47.662 C 44.245 48.095,44.577 48.417,44.869 48.377 C 46.138 48.205,46.639 48.387,46.003 48.789 C 45.495 49.111,45.489 49.243,45.962 49.683 C 46.422 50.111,46.460 50.097,46.182 49.600 C 45.893 49.083,45.940 49.076,46.523 49.549 C 46.895 49.851,47.200 50.357,47.200 50.673 C 47.200 50.989,47.335 51.175,47.500 51.087 C 47.893 50.877,49.204 52.263,48.900 52.567 C 48.772 52.695,48.945 52.800,49.284 52.800 C 49.624 52.800,50.149 53.105,50.451 53.477 C 50.924 54.060,50.917 54.107,50.400 53.818 C 49.903 53.540,49.889 53.578,50.317 54.038 C 50.757 54.511,50.889 54.505,51.211 53.997 C 51.609 53.367,51.792 53.852,51.629 55.103 C 51.593 55.380,52.033 55.784,52.606 56.002 C 53.179 56.220,53.534 56.583,53.394 56.809 C 53.255 57.035,53.289 57.194,53.470 57.163 C 54.341 57.011,54.754 57.255,54.546 57.797 C 54.297 58.445,55.892 59.283,56.600 58.876 C 56.820 58.750,56.777 58.923,56.503 59.260 C 55.890 60.019,56.328 60.557,57.063 59.948 C 57.489 59.594,57.600 59.720,57.600 60.561 C 57.600 61.329,57.881 61.727,58.624 62.009 C 59.247 62.246,59.536 62.580,59.362 62.861 C 59.185 63.148,59.252 63.215,59.539 63.038 C 59.820 62.864,60.154 63.153,60.391 63.776 C 60.707 64.607,61.045 64.800,62.190 64.800 C 63.333 64.800,63.600 64.951,63.600 65.600 C 63.600 66.040,63.858 66.400,64.173 66.400 C 64.488 66.400,64.860 66.760,65.000 67.200 C 65.140 67.640,65.512 68.000,65.827 68.000 C 66.142 68.000,66.400 68.270,66.400 68.600 C 66.400 68.933,66.756 69.200,67.200 69.200 C 67.733 69.200,68.000 69.467,68.000 70.000 C 68.000 70.533,68.267 70.800,68.800 70.800 C 69.333 70.800,69.600 71.067,69.600 71.600 C 69.600 72.044,69.867 72.400,70.200 72.400 C 70.530 72.400,70.800 72.658,70.800 72.973 C 70.800 73.288,71.160 73.660,71.600 73.800 C 72.040 73.940,72.400 74.312,72.400 74.627 C 72.400 74.942,72.760 75.200,73.200 75.200 C 73.733 75.200,74.000 75.467,74.000 76.000 C 74.000 76.529,74.267 76.800,74.787 76.800 C 75.336 76.800,75.502 76.989,75.335 77.424 C 75.177 77.836,75.373 78.120,75.911 78.261 C 76.359 78.378,76.816 78.817,76.926 79.237 C 77.035 79.657,77.412 80.000,77.763 80.000 C 78.113 80.000,78.400 80.270,78.400 80.600 C 78.400 80.933,78.756 81.200,79.200 81.200 C 79.733 81.200,80.000 81.467,80.000 82.000 C 80.000 82.444,80.267 82.800,80.600 82.800 C 80.930 82.800,81.200 83.076,81.200 83.413 C 81.200 83.749,81.490 84.136,81.844 84.272 C 82.763 84.625,84.400 86.209,84.400 86.746 C 84.400 86.996,84.760 87.200,85.200 87.200 C 85.733 87.200,86.000 87.467,86.000 88.000 C 86.000 88.440,86.249 88.800,86.553 88.800 C 86.858 88.800,87.201 89.160,87.316 89.600 C 87.431 90.040,87.812 90.400,88.163 90.400 C 88.513 90.400,88.800 90.670,88.800 91.000 C 88.800 91.333,89.156 91.600,89.600 91.600 C 90.133 91.600,90.400 91.867,90.400 92.400 C 90.400 92.840,90.604 93.200,90.854 93.200 C 91.391 93.200,92.975 94.837,93.328 95.756 C 93.464 96.110,93.851 96.400,94.187 96.400 C 94.524 96.400,94.800 96.670,94.800 97.000 C 94.800 97.333,95.156 97.600,95.600 97.600 C 96.052 97.600,96.400 97.867,96.400 98.213 C 96.400 98.549,96.663 98.926,96.985 99.050 C 97.306 99.173,97.679 99.620,97.814 100.043 C 97.948 100.466,98.204 100.721,98.383 100.610 C 98.804 100.350,99.677 101.390,99.330 101.737 C 99.185 101.882,99.360 102.000,99.719 102.000 C 100.078 102.000,100.565 102.360,100.800 102.800 C 101.035 103.240,101.492 103.600,101.814 103.600 C 102.136 103.600,102.400 103.876,102.400 104.213 C 102.400 104.549,102.652 104.922,102.961 105.040 C 103.269 105.159,103.618 105.626,103.737 106.080 C 103.872 106.598,104.169 106.821,104.537 106.680 C 104.897 106.541,105.199 106.751,105.323 107.228 C 105.434 107.652,105.791 108.000,106.116 108.000 C 106.441 108.000,106.801 108.360,106.916 108.800 C 107.031 109.240,107.391 109.600,107.716 109.600 C 108.041 109.600,108.401 109.960,108.516 110.400 C 108.631 110.840,109.006 111.200,109.350 111.200 C 109.752 111.200,109.889 111.423,109.735 111.824 C 109.577 112.237,109.775 112.521,110.320 112.663 C 110.774 112.782,111.241 113.131,111.360 113.439 C 111.478 113.748,111.838 114.000,112.160 114.000 C 112.483 114.000,112.860 114.360,113.000 114.800 C 113.140 115.240,113.517 115.600,113.840 115.600 C 114.162 115.600,114.544 115.915,114.690 116.300 C 115.027 117.189,115.611 117.773,116.500 118.110 C 116.885 118.256,117.200 118.670,117.200 119.030 C 117.200 119.436,117.419 119.602,117.776 119.465 C 118.147 119.322,118.538 119.664,118.874 120.422 C 119.161 121.070,119.627 121.600,119.910 121.600 C 120.193 121.600,120.544 121.915,120.690 122.300 C 120.836 122.685,121.145 123.190,121.378 123.422 C 121.610 123.655,122.115 123.964,122.500 124.110 C 122.885 124.256,123.200 124.655,123.200 124.997 C 123.200 125.340,123.650 125.791,124.200 126.000 C 124.750 126.209,125.200 126.665,125.200 127.014 C 125.200 127.362,125.335 127.572,125.500 127.480 C 125.884 127.266,127.993 129.473,127.692 129.774 C 127.568 129.898,127.771 130.000,128.143 130.000 C 128.515 130.000,128.991 130.450,129.200 131.000 C 129.490 131.762,129.868 132.000,130.790 132.000 C 131.733 132.000,132.000 132.176,132.000 132.800 C 132.000 133.333,132.267 133.600,132.800 133.600 C 133.325 133.600,133.600 133.867,133.600 134.377 C 133.600 134.939,133.822 135.111,134.400 135.000 C 134.964 134.891,135.200 135.061,135.200 135.576 C 135.200 135.985,135.575 136.405,136.052 136.529 C 136.621 136.678,136.824 136.959,136.665 137.376 C 136.498 137.811,136.664 138.000,137.213 138.000 C 137.733 138.000,138.000 138.271,138.000 138.800 C 138.000 139.333,138.267 139.600,138.800 139.600 C 139.329 139.600,139.600 139.867,139.600 140.387 C 139.600 140.936,139.789 141.102,140.224 140.935 C 140.641 140.776,140.922 140.979,141.071 141.548 C 141.195 142.025,141.615 142.400,142.024 142.400 C 142.539 142.400,142.709 142.636,142.600 143.200 C 142.489 143.778,142.661 144.000,143.223 144.000 C 143.733 144.000,144.000 144.275,144.000 144.800 C 144.000 145.333,144.267 145.600,144.800 145.600 C 145.244 145.600,145.600 145.867,145.600 146.200 C 145.600 146.533,145.956 146.800,146.400 146.800 C 146.852 146.800,147.200 147.067,147.200 147.413 C 147.200 147.749,147.470 148.129,147.800 148.255 C 148.130 148.382,148.400 148.826,148.400 149.243 C 148.400 149.733,148.682 150.000,149.200 150.000 C 149.733 150.000,150.000 150.267,150.000 150.800 C 150.000 151.333,150.267 151.600,150.800 151.600 C 151.244 151.600,151.600 151.867,151.600 152.200 C 151.600 152.530,151.858 152.800,152.173 152.800 C 152.488 152.800,152.860 153.160,153.000 153.600 C 153.140 154.040,153.512 154.400,153.827 154.400 C 154.345 154.400,154.576 154.885,154.447 155.700 C 154.421 155.865,154.739 156.000,155.153 156.000 C 155.570 156.000,156.000 156.357,156.116 156.800 C 156.231 157.240,156.612 157.600,156.963 157.600 C 157.313 157.600,157.600 157.870,157.600 158.200 C 157.600 158.530,157.954 158.800,158.387 158.800 C 158.936 158.800,159.102 158.989,158.935 159.424 C 158.776 159.841,158.979 160.122,159.548 160.271 C 160.037 160.398,160.400 160.814,160.400 161.247 C 160.400 161.733,160.683 162.000,161.200 162.000 C 161.640 162.000,162.000 162.258,162.000 162.573 C 162.000 162.888,162.360 163.260,162.800 163.400 C 163.240 163.540,163.600 163.891,163.600 164.180 C 163.600 164.470,163.978 164.806,164.440 164.926 C 164.937 165.056,165.166 165.332,165.000 165.600 C 164.836 165.866,165.052 166.141,165.523 166.264 C 165.965 166.379,166.422 166.841,166.539 167.289 C 166.680 167.827,166.964 168.023,167.376 167.865 C 167.811 167.698,168.000 167.864,168.000 168.413 C 168.000 168.933,168.271 169.200,168.800 169.200 C 169.333 169.200,169.600 169.467,169.600 170.000 C 169.600 170.440,169.849 170.800,170.153 170.800 C 170.458 170.800,170.801 171.160,170.916 171.600 C 171.031 172.040,171.391 172.400,171.716 172.400 C 172.041 172.400,172.401 172.760,172.516 173.200 C 172.631 173.640,173.012 174.000,173.363 174.000 C 173.713 174.000,174.000 174.270,174.000 174.600 C 174.000 174.930,174.258 175.200,174.573 175.200 C 174.888 175.200,175.260 175.560,175.400 176.000 C 175.540 176.440,175.867 176.803,176.127 176.807 C 176.702 176.815,178.400 178.550,178.400 179.129 C 178.400 179.359,178.760 179.660,179.200 179.800 C 179.640 179.940,180.000 180.312,180.000 180.627 C 180.000 180.942,180.360 181.200,180.800 181.200 C 181.333 181.200,181.600 181.467,181.600 182.000 C 181.600 182.541,181.867 182.800,182.424 182.800 C 182.877 182.800,183.149 182.960,183.028 183.155 C 182.739 183.623,183.856 184.536,184.347 184.233 C 184.558 184.103,184.681 184.312,184.622 184.698 C 184.557 185.128,184.841 185.488,185.357 185.627 C 185.862 185.762,186.153 186.121,186.084 186.520 C 186.008 186.956,186.165 187.112,186.535 186.970 C 186.904 186.828,187.192 187.114,187.362 187.791 C 187.535 188.480,187.855 188.791,188.311 188.715 C 188.760 188.640,188.963 188.828,188.893 189.255 C 188.824 189.673,189.163 190.004,189.829 190.172 C 190.541 190.350,190.800 190.624,190.643 191.033 C 190.487 191.438,190.629 191.594,191.080 191.516 C 191.479 191.447,191.838 191.738,191.973 192.243 C 192.108 192.742,192.474 193.043,192.872 192.982 C 193.293 192.917,193.468 193.079,193.339 193.415 C 193.226 193.710,193.508 194.186,193.967 194.472 C 194.425 194.758,194.800 195.207,194.800 195.468 C 194.800 195.730,195.205 196.002,195.700 196.072 C 196.235 196.149,196.581 196.462,196.553 196.847 C 196.527 197.211,196.789 197.473,197.153 197.447 C 197.538 197.419,197.851 197.765,197.928 198.300 C 198.032 199.034,198.309 199.200,199.428 199.200 C 200.533 199.200,200.800 199.355,200.800 200.000 C 200.800 200.533,201.067 200.800,201.600 200.800 C 202.133 200.800,202.400 201.067,202.400 201.600 C 202.400 202.040,202.651 202.400,202.957 202.400 C 203.264 202.400,203.618 202.670,203.745 203.000 C 203.871 203.330,204.251 203.600,204.587 203.600 C 204.924 203.600,205.200 203.887,205.200 204.237 C 205.200 204.588,205.560 204.969,206.000 205.084 C 206.443 205.200,206.800 205.630,206.800 206.047 C 206.800 206.533,207.083 206.800,207.600 206.800 C 208.044 206.800,208.400 207.067,208.400 207.400 C 208.400 207.730,208.670 208.000,209.000 208.000 C 209.333 208.000,209.600 208.356,209.600 208.800 C 209.600 209.317,209.867 209.600,210.353 209.600 C 210.770 209.600,211.200 209.957,211.316 210.400 C 211.431 210.840,211.812 211.200,212.163 211.200 C 212.513 211.200,212.800 211.476,212.800 211.813 C 212.800 212.149,213.070 212.529,213.400 212.655 C 213.730 212.782,214.000 213.136,214.000 213.443 C 214.000 213.749,214.360 214.000,214.800 214.000 C 215.333 214.000,215.600 214.267,215.600 214.800 C 215.600 215.333,215.867 215.600,216.400 215.600 C 216.939 215.600,217.200 215.867,217.200 216.418 C 217.200 216.974,217.423 217.198,217.900 217.118 C 218.367 217.039,218.642 217.299,218.728 217.900 C 218.813 218.497,219.130 218.800,219.671 218.800 C 220.231 218.800,220.414 218.988,220.255 219.400 C 220.102 219.800,220.272 220.000,220.766 220.000 C 221.173 220.000,221.601 220.360,221.716 220.800 C 221.831 221.240,222.212 221.600,222.563 221.600 C 222.933 221.600,223.200 221.935,223.200 222.400 C 223.200 222.844,223.467 223.200,223.800 223.200 C 224.130 223.200,224.760 223.560,225.200 224.000 C 225.640 224.440,226.000 225.070,226.000 225.400 C 226.000 225.730,226.339 226.000,226.753 226.000 C 227.170 226.000,227.600 226.357,227.716 226.800 C 227.831 227.240,228.212 227.600,228.563 227.600 C 228.939 227.600,229.200 227.937,229.200 228.424 C 229.200 228.877,229.357 229.150,229.550 229.031 C 230.032 228.733,232.000 230.620,232.000 231.381 C 232.000 231.733,232.345 232.000,232.800 232.000 C 233.516 232.000,233.787 232.416,233.647 233.300 C 233.621 233.465,233.939 233.600,234.353 233.600 C 234.786 233.600,235.202 233.963,235.329 234.452 C 235.477 235.018,235.760 235.224,236.171 235.066 C 236.512 234.936,236.771 234.957,236.748 235.114 C 236.626 235.933,236.863 236.400,237.400 236.400 C 237.739 236.400,238.000 236.758,238.000 237.224 C 238.000 237.677,238.165 237.945,238.368 237.820 C 238.847 237.524,240.076 238.753,239.780 239.232 C 239.655 239.435,239.923 239.600,240.376 239.600 C 240.842 239.600,241.200 239.861,241.200 240.200 C 241.200 240.543,241.560 240.800,242.043 240.800 C 242.649 240.800,242.817 240.979,242.641 241.437 C 242.478 241.862,242.664 242.144,243.198 242.284 C 243.643 242.400,244.000 242.829,244.000 243.247 C 244.000 243.661,244.135 243.979,244.300 243.953 C 245.200 243.811,245.600 244.092,245.600 244.867 C 245.600 245.343,245.714 245.620,245.853 245.481 C 246.230 245.104,247.660 245.979,247.388 246.420 C 247.258 246.629,247.518 246.800,247.964 246.800 C 248.534 246.800,248.704 246.985,248.535 247.424 C 248.377 247.836,248.573 248.120,249.111 248.261 C 249.559 248.378,250.019 248.828,250.132 249.262 C 250.261 249.753,250.613 250.002,251.069 249.925 C 251.559 249.841,251.765 250.015,251.694 250.452 C 251.633 250.825,251.932 251.193,252.394 251.314 C 252.837 251.430,253.200 251.812,253.200 252.163 C 253.200 252.513,253.458 252.800,253.773 252.800 C 254.088 252.800,254.461 253.163,254.602 253.606 C 254.743 254.049,255.004 254.321,255.183 254.210 C 255.540 253.990,256.309 254.761,256.370 255.400 C 256.407 255.779,256.570 255.835,258.000 255.960 C 258.525 256.006,258.527 256.059,258.012 256.384 C 257.312 256.827,257.605 257.220,258.696 257.302 C 259.244 257.343,259.426 257.579,259.295 258.081 C 259.191 258.476,259.308 258.800,259.553 258.800 C 259.799 258.800,260.000 258.590,260.000 258.333 C 260.000 257.484,260.507 258.357,260.554 259.287 C 260.579 259.789,260.780 260.203,261.000 260.206 C 261.676 260.216,262.425 260.836,262.201 261.199 C 262.084 261.388,262.351 261.657,262.794 261.798 C 263.237 261.939,263.600 262.291,263.600 262.580 C 263.600 262.870,263.960 263.201,264.400 263.316 C 264.840 263.431,265.200 263.820,265.200 264.180 C 265.200 264.579,265.470 264.789,265.891 264.718 C 266.351 264.639,266.584 264.866,266.591 265.400 C 266.598 266.034,266.912 266.226,268.100 266.324 C 269.275 266.421,269.600 266.616,269.600 267.224 C 269.600 267.651,269.851 268.000,270.157 268.000 C 270.464 268.000,270.818 268.270,270.945 268.600 C 271.071 268.930,271.451 269.200,271.787 269.200 C 272.133 269.200,272.400 269.548,272.400 270.000 C 272.400 270.533,272.667 270.800,273.200 270.800 C 273.733 270.800,274.000 271.067,274.000 271.600 C 274.000 272.129,274.267 272.400,274.787 272.400 C 275.301 272.400,275.500 272.596,275.359 272.964 C 275.228 273.303,275.473 273.633,275.971 273.791 C 276.427 273.936,276.800 274.312,276.800 274.627 C 276.800 274.942,277.160 275.200,277.600 275.200 C 278.133 275.200,278.400 275.467,278.400 276.000 C 278.400 276.533,278.667 276.800,279.200 276.800 C 279.733 276.800,280.000 277.067,280.000 277.600 C 280.000 278.040,280.258 278.400,280.573 278.400 C 280.888 278.400,281.264 278.773,281.409 279.229 C 281.567 279.727,281.897 279.972,282.236 279.841 C 282.604 279.700,282.800 279.899,282.800 280.413 C 282.800 280.933,283.071 281.200,283.600 281.200 C 284.133 281.200,284.400 281.467,284.400 282.000 C 284.400 282.533,284.667 282.800,285.200 282.800 C 285.652 282.800,286.000 283.067,286.000 283.413 C 286.000 283.749,286.270 284.129,286.600 284.255 C 286.930 284.382,287.200 284.736,287.200 285.043 C 287.200 285.349,287.560 285.600,288.000 285.600 C 288.533 285.600,288.800 285.867,288.800 286.400 C 288.800 286.933,289.067 287.200,289.600 287.200 C 290.133 287.200,290.400 287.467,290.400 288.000 C 290.400 288.465,290.667 288.800,291.037 288.800 C 291.388 288.800,291.769 289.158,291.883 289.596 C 291.997 290.033,292.263 290.285,292.472 290.155 C 292.682 290.026,292.953 290.298,293.074 290.760 C 293.199 291.238,293.618 291.600,294.047 291.600 C 294.533 291.600,294.800 291.883,294.800 292.400 C 294.800 292.933,295.067 293.200,295.600 293.200 C 296.133 293.200,296.400 293.467,296.400 294.000 C 296.400 294.440,296.649 294.800,296.953 294.800 C 297.258 294.800,297.606 295.178,297.726 295.640 C 297.856 296.137,298.132 296.366,298.400 296.200 C 298.668 296.034,298.944 296.263,299.074 296.760 C 299.194 297.222,299.611 297.600,300.000 297.600 C 300.389 297.600,300.801 297.960,300.916 298.400 C 301.031 298.840,301.412 299.200,301.763 299.200 C 302.133 299.200,302.400 299.535,302.400 300.000 C 302.400 300.444,302.667 300.800,303.000 300.800 C 303.330 300.800,303.600 301.070,303.600 301.400 C 303.600 301.733,303.956 302.000,304.400 302.000 C 305.116 302.000,305.387 302.416,305.247 303.300 C 305.221 303.465,305.560 303.600,306.000 303.600 C 306.533 303.600,306.800 303.867,306.800 304.400 C 306.800 304.840,306.935 305.179,307.100 305.153 C 307.984 305.013,308.400 305.284,308.400 306.000 C 308.400 306.440,308.535 306.779,308.700 306.753 C 309.608 306.609,310.061 306.863,309.855 307.400 C 309.699 307.808,309.877 308.000,310.413 308.000 C 311.127 308.000,311.249 308.175,311.176 309.100 C 311.163 309.265,311.568 309.502,312.076 309.627 C 312.686 309.776,312.957 310.096,312.873 310.567 C 312.801 310.974,312.922 311.172,313.156 311.027 C 313.381 310.888,313.862 311.229,314.226 311.784 C 314.590 312.339,315.048 312.694,315.244 312.573 C 315.440 312.452,315.600 312.723,315.600 313.176 C 315.600 313.733,315.859 314.000,316.400 314.000 C 316.933 314.000,317.200 314.267,317.200 314.800 C 317.200 315.317,317.467 315.600,317.953 315.600 C 318.386 315.600,318.802 315.963,318.929 316.452 C 319.078 317.021,319.359 317.224,319.776 317.065 C 320.343 316.847,320.591 317.246,320.437 318.130 C 320.406 318.311,320.565 318.345,320.791 318.206 C 321.017 318.066,321.377 318.413,321.591 318.976 C 321.878 319.732,322.270 320.002,323.090 320.006 C 323.942 320.011,324.061 320.100,323.603 320.389 C 323.095 320.711,323.089 320.843,323.562 321.283 C 324.022 321.711,324.060 321.697,323.782 321.200 C 323.493 320.683,323.540 320.676,324.123 321.149 C 324.495 321.451,324.800 321.957,324.800 322.273 C 324.800 322.589,324.935 322.775,325.100 322.687 C 325.531 322.457,326.786 323.875,326.467 324.231 C 326.320 324.394,326.425 324.399,326.701 324.240 C 327.022 324.055,327.344 324.326,327.598 324.994 C 327.852 325.662,328.246 325.994,328.697 325.918 C 329.178 325.837,329.363 326.022,329.282 326.503 C 329.206 326.954,329.538 327.348,330.206 327.602 C 330.842 327.844,331.137 328.179,330.962 328.461 C 330.805 328.715,330.839 328.834,331.038 328.725 C 331.471 328.488,332.835 329.832,332.500 330.167 C 332.372 330.295,332.545 330.400,332.884 330.400 C 333.224 330.400,333.749 330.705,334.051 331.077 C 334.524 331.660,334.517 331.707,334.000 331.418 C 333.503 331.140,333.489 331.178,333.917 331.638 C 334.357 332.112,334.485 332.110,334.783 331.627 C 335.041 331.210,335.169 331.370,335.267 332.230 C 335.379 333.215,335.599 333.419,336.659 333.522 C 337.507 333.605,337.985 333.899,338.122 334.422 C 338.234 334.850,338.612 335.200,338.963 335.200 C 339.313 335.200,339.600 335.470,339.600 335.800 C 339.600 336.133,339.956 336.400,340.400 336.400 C 340.933 336.400,341.200 336.667,341.200 337.200 C 341.200 337.640,341.449 338.000,341.753 338.000 C 342.058 338.000,342.401 338.360,342.516 338.800 C 342.631 339.240,342.991 339.600,343.316 339.600 C 343.641 339.600,344.007 339.983,344.129 340.452 C 344.278 341.021,344.559 341.224,344.976 341.065 C 345.411 340.898,345.600 341.064,345.600 341.613 C 345.600 342.133,345.871 342.400,346.400 342.400 C 346.933 342.400,347.200 342.667,347.200 343.200 C 347.200 343.644,347.467 344.000,347.800 344.000 C 348.133 344.000,348.400 344.356,348.400 344.800 C 348.400 345.333,348.667 345.600,349.200 345.600 C 349.644 345.600,350.000 345.867,350.000 346.200 C 350.000 346.533,350.356 346.800,350.800 346.800 C 351.333 346.800,351.600 347.067,351.600 347.600 C 351.600 348.040,351.858 348.400,352.173 348.400 C 352.488 348.400,352.860 348.760,353.000 349.200 C 353.140 349.640,353.491 350.000,353.780 350.000 C 354.070 350.000,354.406 350.378,354.526 350.840 C 354.656 351.337,354.932 351.566,355.200 351.400 C 355.468 351.234,355.744 351.463,355.874 351.960 C 355.999 352.438,356.418 352.800,356.847 352.800 C 357.333 352.800,357.600 353.083,357.600 353.600 C 357.600 354.129,357.867 354.400,358.387 354.400 C 358.901 354.400,359.100 354.596,358.959 354.964 C 358.829 355.300,359.068 355.631,359.551 355.784 C 359.995 355.925,360.470 356.392,360.606 356.820 C 360.743 357.249,361.112 357.600,361.427 357.600 C 361.742 357.600,362.000 357.870,362.000 358.200 C 362.000 358.533,362.356 358.800,362.800 358.800 C 363.317 358.800,363.600 359.067,363.600 359.553 C 363.600 359.970,363.957 360.400,364.400 360.516 C 364.840 360.631,365.200 361.012,365.200 361.363 C 365.200 361.713,365.470 362.000,365.800 362.000 C 366.130 362.000,366.400 362.270,366.400 362.600 C 366.400 362.933,366.756 363.200,367.200 363.200 C 367.733 363.200,368.000 363.467,368.000 364.000 C 368.000 364.533,368.267 364.800,368.800 364.800 C 369.333 364.800,369.600 365.067,369.600 365.600 C 369.600 366.118,369.867 366.400,370.356 366.400 C 370.830 366.400,371.090 366.661,371.056 367.100 C 371.025 367.485,371.220 367.757,371.488 367.704 C 371.756 367.651,372.168 367.966,372.402 368.404 C 372.636 368.842,373.092 369.200,373.414 369.200 C 373.736 369.200,374.000 369.539,374.000 369.953 C 374.000 370.370,374.357 370.800,374.800 370.916 C 375.240 371.031,375.600 371.423,375.600 371.786 C 375.600 372.150,375.780 372.336,376.001 372.200 C 376.221 372.063,376.584 372.431,376.806 373.017 C 377.057 373.677,377.422 374.000,377.766 373.868 C 378.093 373.743,378.404 373.973,378.523 374.428 C 378.634 374.852,378.991 375.200,379.316 375.200 C 379.641 375.200,380.001 375.560,380.116 376.000 C 380.231 376.440,380.606 376.800,380.950 376.800 C 381.339 376.800,381.489 377.025,381.347 377.394 C 381.197 377.786,381.482 378.127,382.183 378.394 C 382.769 378.616,383.145 378.966,383.018 379.171 C 382.892 379.375,383.196 379.601,383.694 379.671 C 384.300 379.757,384.561 380.032,384.482 380.500 C 384.402 380.977,384.626 381.200,385.182 381.200 C 385.632 381.200,386.000 381.398,386.000 381.640 C 386.000 382.164,388.321 384.400,388.866 384.400 C 389.076 384.400,389.136 384.580,389.000 384.800 C 388.864 385.020,389.038 385.200,389.386 385.200 C 389.735 385.200,390.182 385.625,390.379 386.145 C 390.577 386.665,391.112 387.188,391.569 387.308 C 392.026 387.427,392.400 387.823,392.400 388.186 C 392.400 388.550,392.580 388.736,392.800 388.600 C 393.020 388.464,393.200 388.591,393.200 388.882 C 393.200 389.172,393.605 389.588,394.100 389.805 C 394.595 390.022,394.942 390.371,394.870 390.580 C 394.799 390.789,395.131 391.105,395.608 391.281 C 396.085 391.458,396.565 391.945,396.675 392.364 C 396.784 392.783,397.217 393.216,397.637 393.326 C 398.057 393.435,398.400 393.831,398.400 394.205 C 398.400 394.661,398.609 394.806,399.033 394.643 C 399.381 394.509,399.741 394.400,399.833 394.400 C 399.925 394.400,400.000 305.660,400.000 197.200 L 400.000 0.000 200.000 0.000 L 0.000 0.000 0.000 1.800 " stroke="none" fill="#d4ac5c" fill-rule="evenodd"></path><path id="path1" d="M9.867 256.267 C 9.262 256.871,9.617 258.479,10.400 258.684 C 10.843 258.800,11.200 259.230,11.200 259.647 C 11.200 260.133,11.483 260.400,12.000 260.400 C 12.533 260.400,12.800 260.667,12.800 261.200 C 12.800 261.644,13.067 262.000,13.400 262.000 C 13.730 262.000,14.000 262.258,14.000 262.573 C 14.000 262.888,14.360 263.260,14.800 263.400 C 15.240 263.540,15.600 263.912,15.600 264.227 C 15.600 264.542,15.960 264.800,16.400 264.800 C 16.933 264.800,17.200 265.067,17.200 265.600 C 17.200 266.133,17.467 266.400,18.000 266.400 C 18.533 266.400,18.800 266.667,18.800 267.200 C 18.800 267.644,19.067 268.000,19.400 268.000 C 19.730 268.000,20.000 268.270,20.000 268.600 C 20.000 268.933,20.356 269.200,20.800 269.200 C 21.333 269.200,21.600 269.467,21.600 270.000 C 21.600 270.533,21.867 270.800,22.400 270.800 C 22.933 270.800,23.200 271.067,23.200 271.600 C 23.200 272.133,23.467 272.400,24.000 272.400 C 24.533 272.400,24.800 272.667,24.800 273.200 C 24.800 273.644,25.067 274.000,25.400 274.000 C 25.730 274.000,26.000 274.270,26.000 274.600 C 26.000 274.933,26.356 275.200,26.800 275.200 C 27.333 275.200,27.600 275.467,27.600 276.000 C 27.600 276.533,27.867 276.800,28.400 276.800 C 28.917 276.800,29.200 277.067,29.200 277.553 C 29.200 277.970,29.557 278.400,30.000 278.516 C 30.440 278.631,30.800 279.012,30.800 279.363 C 30.800 279.713,31.070 280.000,31.400 280.000 C 31.730 280.000,32.000 280.270,32.000 280.600 C 32.000 280.933,32.356 281.200,32.800 281.200 C 33.333 281.200,33.600 281.467,33.600 282.000 C 33.600 282.533,33.867 282.800,34.400 282.800 C 34.933 282.800,35.200 283.067,35.200 283.600 C 35.200 284.044,35.467 284.400,35.800 284.400 C 36.130 284.400,36.400 284.670,36.400 285.000 C 36.400 285.333,36.756 285.600,37.200 285.600 C 37.733 285.600,38.000 285.867,38.000 286.400 C 38.000 286.933,38.267 287.200,38.800 287.200 C 39.333 287.200,39.600 287.467,39.600 288.000 C 39.600 288.533,39.867 288.800,40.400 288.800 C 40.933 288.800,41.200 289.067,41.200 289.600 C 41.200 290.044,41.467 290.400,41.800 290.400 C 42.130 290.400,42.400 290.670,42.400 291.000 C 42.400 291.333,42.756 291.600,43.200 291.600 C 43.733 291.600,44.000 291.867,44.000 292.400 C 44.000 292.933,44.267 293.200,44.800 293.200 C 45.333 293.200,45.600 293.467,45.600 294.000 C 45.600 294.533,45.867 294.800,46.400 294.800 C 46.933 294.800,47.200 295.067,47.200 295.600 C 47.200 296.044,47.467 296.400,47.800 296.400 C 48.130 296.400,48.400 296.670,48.400 297.000 C 48.400 297.333,48.756 297.600,49.200 297.600 C 49.733 297.600,50.000 297.867,50.000 298.400 C 50.000 298.933,50.267 299.200,50.800 299.200 C 51.333 299.200,51.600 299.467,51.600 300.000 C 51.600 300.444,51.867 300.800,52.200 300.800 C 52.530 300.800,52.800 301.058,52.800 301.373 C 52.800 301.688,53.160 302.060,53.600 302.200 C 54.040 302.340,54.400 302.712,54.400 303.027 C 54.400 303.342,54.760 303.600,55.200 303.600 C 55.733 303.600,56.000 303.867,56.000 304.400 C 56.000 304.933,56.267 305.200,56.800 305.200 C 57.333 305.200,57.600 305.467,57.600 306.000 C 57.600 306.444,57.867 306.800,58.200 306.800 C 58.530 306.800,58.800 307.070,58.800 307.400 C 58.800 307.733,59.156 308.000,59.600 308.000 C 60.133 308.000,60.400 308.267,60.400 308.800 C 60.400 309.333,60.667 309.600,61.200 309.600 C 61.733 309.600,62.000 309.867,62.000 310.400 C 62.000 310.933,62.267 311.200,62.800 311.200 C 63.333 311.200,63.600 311.467,63.600 312.000 C 63.600 312.444,63.867 312.800,64.200 312.800 C 64.530 312.800,64.800 313.070,64.800 313.400 C 64.800 313.733,65.156 314.000,65.600 314.000 C 66.133 314.000,66.400 314.267,66.400 314.800 C 66.400 315.333,66.667 315.600,67.200 315.600 C 67.733 315.600,68.000 315.867,68.000 316.400 C 68.000 316.933,68.267 317.200,68.800 317.200 C 69.333 317.200,69.600 317.467,69.600 318.000 C 69.600 318.444,69.867 318.800,70.200 318.800 C 70.530 318.800,70.800 319.070,70.800 319.400 C 70.800 319.733,71.156 320.000,71.600 320.000 C 72.133 320.000,72.400 320.267,72.400 320.800 C 72.400 321.333,72.667 321.600,73.200 321.600 C 73.733 321.600,74.000 321.867,74.000 322.400 C 74.000 322.844,74.267 323.200,74.600 323.200 C 74.930 323.200,75.200 323.470,75.200 323.800 C 75.200 324.133,75.556 324.400,76.000 324.400 C 76.533 324.400,76.800 324.667,76.800 325.200 C 76.800 325.733,77.067 326.000,77.600 326.000 C 78.133 326.000,78.400 326.267,78.400 326.800 C 78.400 327.333,78.667 327.600,79.200 327.600 C 79.733 327.600,80.000 327.867,80.000 328.400 C 80.000 328.844,80.267 329.200,80.600 329.200 C 80.930 329.200,81.200 329.470,81.200 329.800 C 81.200 330.133,81.556 330.400,82.000 330.400 C 82.533 330.400,82.800 330.667,82.800 331.200 C 82.800 331.733,83.067 332.000,83.600 332.000 C 84.133 332.000,84.400 332.267,84.400 332.800 C 84.400 333.333,84.667 333.600,85.200 333.600 C 85.733 333.600,86.000 333.867,86.000 334.400 C 86.000 334.844,86.267 335.200,86.600 335.200 C 86.930 335.200,87.200 335.470,87.200 335.800 C 87.200 336.133,87.556 336.400,88.000 336.400 C 88.533 336.400,88.800 336.667,88.800 337.200 C 88.800 337.733,89.067 338.000,89.600 338.000 C 90.133 338.000,90.400 338.267,90.400 338.800 C 90.400 339.240,90.658 339.600,90.973 339.600 C 91.288 339.600,91.660 339.960,91.800 340.400 C 91.940 340.840,92.312 341.200,92.627 341.200 C 92.942 341.200,93.200 341.470,93.200 341.800 C 93.200 342.133,93.556 342.400,94.000 342.400 C 94.533 342.400,94.800 342.667,94.800 343.200 C 94.800 343.733,95.067 344.000,95.600 344.000 C 96.133 344.000,96.400 344.267,96.400 344.800 C 96.400 345.244,96.667 345.600,97.000 345.600 C 97.330 345.600,97.600 345.870,97.600 346.200 C 97.600 346.533,97.956 346.800,98.400 346.800 C 98.933 346.800,99.200 347.067,99.200 347.600 C 99.200 348.133,99.467 348.400,100.000 348.400 C 100.533 348.400,100.800 348.667,100.800 349.200 C 100.800 349.733,101.067 350.000,101.600 350.000 C 102.133 350.000,102.400 350.267,102.400 350.800 C 102.400 351.244,102.667 351.600,103.000 351.600 C 103.330 351.600,103.600 351.870,103.600 352.200 C 103.600 352.533,103.956 352.800,104.400 352.800 C 104.933 352.800,105.200 353.067,105.200 353.600 C 105.200 354.133,105.467 354.400,106.000 354.400 C 106.533 354.400,106.800 354.667,106.800 355.200 C 106.800 355.733,107.067 356.000,107.600 356.000 C 108.133 356.000,108.400 356.267,108.400 356.800 C 108.400 357.244,108.667 357.600,109.000 357.600 C 109.330 357.600,109.600 357.870,109.600 358.200 C 109.600 358.533,109.956 358.800,110.400 358.800 C 110.933 358.800,111.200 359.067,111.200 359.600 C 111.200 360.133,111.467 360.400,112.000 360.400 C 112.533 360.400,112.800 360.667,112.800 361.200 C 112.800 361.644,113.067 362.000,113.400 362.000 C 113.730 362.000,114.000 362.270,114.000 362.600 C 114.000 362.933,114.356 363.200,114.800 363.200 C 115.333 363.200,115.600 363.467,115.600 364.000 C 115.600 364.533,115.867 364.800,116.400 364.800 C 116.933 364.800,117.200 365.067,117.200 365.600 C 117.200 366.133,117.467 366.400,118.000 366.400 C 118.533 366.400,118.800 366.667,118.800 367.200 C 118.800 367.644,119.067 368.000,119.400 368.000 C 119.730 368.000,120.000 368.270,120.000 368.600 C 120.000 368.933,120.356 369.200,120.800 369.200 C 121.333 369.200,121.600 369.467,121.600 370.000 C 121.600 370.533,121.867 370.800,122.400 370.800 C 122.933 370.800,123.200 371.067,123.200 371.600 C 123.200 372.133,123.467 372.400,124.000 372.400 C 124.533 372.400,124.800 372.667,124.800 373.200 C 124.800 373.644,125.067 374.000,125.400 374.000 C 125.730 374.000,126.000 374.270,126.000 374.600 C 126.000 374.933,126.356 375.200,126.800 375.200 C 127.333 375.200,127.600 375.467,127.600 376.000 C 127.600 376.533,127.867 376.800,128.400 376.800 C 128.917 376.800,129.200 377.067,129.200 377.553 C 129.200 377.970,129.557 378.400,130.000 378.516 C 130.440 378.631,130.800 379.012,130.800 379.363 C 130.800 379.713,131.070 380.000,131.400 380.000 C 131.730 380.000,132.000 380.270,132.000 380.600 C 132.000 380.933,132.356 381.200,132.800 381.200 C 133.333 381.200,133.600 381.467,133.600 382.000 C 133.600 382.533,133.867 382.800,134.400 382.800 C 134.933 382.800,135.200 383.067,135.200 383.600 C 135.200 384.044,135.467 384.400,135.800 384.400 C 136.130 384.400,136.400 384.670,136.400 385.000 C 136.400 385.333,136.756 385.600,137.200 385.600 C 137.733 385.600,138.000 385.867,138.000 386.400 C 138.000 386.933,138.267 387.200,138.800 387.200 C 139.333 387.200,139.600 387.467,139.600 388.000 C 139.600 388.533,139.867 388.800,140.400 388.800 C 140.933 388.800,141.200 389.067,141.200 389.600 C 141.200 390.044,141.467 390.400,141.800 390.400 C 142.130 390.400,142.400 390.670,142.400 391.000 C 142.400 391.333,142.756 391.600,143.200 391.600 C 143.733 391.600,144.000 391.867,144.000 392.400 C 144.000 392.933,144.267 393.200,144.800 393.200 C 145.333 393.200,145.600 393.467,145.600 394.000 C 145.600 394.533,145.867 394.800,146.400 394.800 C 146.933 394.800,147.200 395.067,147.200 395.600 C 147.200 396.044,147.467 396.400,147.800 396.400 C 148.130 396.400,148.400 396.670,148.400 397.000 C 148.400 397.333,148.756 397.600,149.200 397.600 C 149.733 397.600,150.000 397.867,150.000 398.400 C 150.000 398.933,150.267 399.200,150.800 399.200 C 151.333 399.200,151.600 399.467,151.600 400.000 C 151.600 400.444,151.867 400.800,152.200 400.800 C 152.530 400.800,152.800 401.049,152.800 401.353 C 152.800 401.658,153.160 402.001,153.600 402.116 C 154.040 402.231,154.400 402.612,154.400 402.963 C 154.400 403.333,154.735 403.600,155.200 403.600 C 155.733 403.600,156.000 403.867,156.000 404.400 C 156.000 404.933,156.267 405.200,156.800 405.200 C 157.333 405.200,157.600 405.467,157.600 406.000 C 157.600 406.444,157.867 406.800,158.200 406.800 C 158.530 406.800,158.800 407.070,158.800 407.400 C 158.800 407.733,159.156 408.000,159.600 408.000 C 160.133 408.000,160.400 408.267,160.400 408.800 C 160.400 409.333,160.667 409.600,161.200 409.600 C 161.733 409.600,162.000 409.867,162.000 410.400 C 162.000 410.933,162.267 411.200,162.800 411.200 C 163.333 411.200,163.600 411.467,163.600 412.000 C 163.600 412.444,163.867 412.800,164.200 412.800 C 164.530 412.800,164.800 413.070,164.800 413.400 C 164.800 413.733,165.156 414.000,165.600 414.000 C 166.133 414.000,166.400 414.267,166.400 414.800 C 166.400 415.333,166.667 415.600,167.200 415.600 C 167.733 415.600,168.000 415.867,168.000 416.400 C 168.000 416.933,168.267 417.200,168.800 417.200 C 169.333 417.200,169.600 417.467,169.600 418.000 C 169.600 418.444,169.867 418.800,170.200 418.800 C 170.530 418.800,170.800 419.070,170.800 419.400 C 170.800 419.733,171.156 420.000,171.600 420.000 C 172.133 420.000,172.400 420.267,172.400 420.800 C 172.400 421.333,172.667 421.600,173.200 421.600 C 173.733 421.600,174.000 421.867,174.000 422.400 C 174.000 422.844,174.267 423.200,174.600 423.200 C 174.930 423.200,175.200 423.470,175.200 423.800 C 175.200 424.133,175.556 424.400,176.000 424.400 C 176.533 424.400,176.800 424.667,176.800 425.200 C 176.800 425.733,177.067 426.000,177.600 426.000 C 178.133 426.000,178.400 426.267,178.400 426.800 C 178.400 427.333,178.667 427.600,179.200 427.600 C 179.733 427.600,180.000 427.867,180.000 428.400 C 180.000 428.844,180.267 429.200,180.600 429.200 C 180.930 429.200,181.200 429.470,181.200 429.800 C 181.200 430.133,181.556 430.400,182.000 430.400 C 182.533 430.400,182.800 430.667,182.800 431.200 C 182.800 431.733,183.067 432.000,183.600 432.000 C 184.040 432.000,184.400 432.180,184.400 432.400 C 184.400 432.620,185.030 432.800,185.800 432.800 L 187.200 432.800 187.200 344.400 L 187.200 256.000 98.667 256.000 C 49.973 256.000,10.013 256.120,9.867 256.267 " stroke="none" fill="#04343c" fill-rule="evenodd"></path><path id="path2" d="M56.270 59.063 C 55.967 59.366,56.724 60.400,57.249 60.400 C 57.442 60.400,57.600 60.220,57.600 60.000 C 57.600 59.780,57.375 59.645,57.100 59.700 C 56.825 59.755,56.645 59.575,56.700 59.300 C 56.811 58.745,56.668 58.666,56.270 59.063 " stroke="none" fill="#a0b04c" fill-rule="evenodd"></path><path id="path3" d="M56.270 59.063 C 55.967 59.366,56.724 60.400,57.249 60.400 C 57.442 60.400,57.600 60.220,57.600 60.000 C 57.600 59.780,57.375 59.645,57.100 59.700 C 56.825 59.755,56.645 59.575,56.700 59.300 C 56.811 58.745,56.668 58.666,56.270 59.063 " stroke="none" fill="#a0b04c" fill-rule="evenodd"></path><path id="path4" d="M56.270 59.063 C 55.967 59.366,56.724 60.400,57.249 60.400 C 57.442 60.400,57.600 60.220,57.600 60.000 C 57.600 59.780,57.375 59.645,57.100 59.700 C 56.825 59.755,56.645 59.575,56.700 59.300 C 56.811 58.745,56.668 58.666,56.270 59.063 " stroke="none" fill="#a0b04c" fill-rule="evenodd"></path></g></svg>