<svg version="1.1" id="Layer_1" xmlns="http://www.w3.org/2000/svg" xmlns:xlink="http://www.w3.org/1999/xlink" x="0px" y="0px"
	 width="100%" viewBox="0 0 225 225" enable-background="new 0 0 225 225" xml:space="preserve">
<path fill="#0D996F" opacity="1.000000" stroke="none" 
	d="
M1.000001,128.000000 
	C1.000000,118.979103 1.000000,109.958214 1.346750,100.278755 
	C10.020869,50.483170 37.868942,18.568649 85.787689,4.432138 
	C90.456314,3.054846 95.259354,2.133167 100.000000,1.000000 
	C108.687561,1.000000 117.375130,1.000000 126.706177,1.356635 
	C173.157104,9.152307 204.390991,34.416153 220.204742,78.161026 
	C222.862030,85.511734 224.104065,93.374062 226.000000,101.000000 
	C226.000000,109.354233 226.000000,117.708466 225.652710,126.720657 
	C217.401062,174.831558 190.854691,206.430740 145.027390,221.482346 
	C139.156937,223.410461 133.015762,224.514313 127.000000,226.000000 
	C118.312439,226.000000 109.624870,226.000000 100.284912,225.649139 
	C47.335617,218.168808 12.249478,179.473923 3.379390,136.839920 
	C2.758863,133.857361 1.800999,130.945007 1.000001,128.000000 
M122.787422,187.818939 
	C134.720840,186.643234 145.956863,183.416855 155.985352,176.594620 
	C182.965729,158.240234 184.133896,121.875137 158.384979,101.940140 
	C157.408157,101.183861 156.523209,100.308914 155.615051,99.506592 
	C163.979294,88.991936 166.974838,79.954254 165.583405,69.834259 
	C163.028351,51.250996 149.506836,39.472088 129.707275,39.178612 
	C111.222786,38.904629 92.731064,39.114182 74.242538,39.132370 
	C73.625908,39.132977 73.009499,39.366966 72.050476,39.561726 
	C72.050476,41.518139 72.050468,43.318943 72.050468,45.119747 
	C72.050461,73.435669 72.072540,101.751610 72.042641,130.067490 
	C72.022942,148.718155 71.928413,167.368744 71.706268,186.247421 
	C71.600189,186.524002 71.665352,186.769592 72.445114,187.662491 
	C88.634384,187.796295 104.823662,187.930099 121.236023,188.243530 
	C121.236023,188.243530 121.637314,188.286774 121.637314,188.286774 
	C121.637314,188.286774 121.988358,188.053833 122.787422,187.818939 
z"/>
<path fill="#FDFEFE" opacity="1.000000" stroke="none" 
	d="
M99.531342,1.000000 
	C95.259354,2.133167 90.456314,3.054846 85.787689,4.432138 
	C37.868942,18.568649 10.020869,50.483170 1.346750,99.810097 
	C1.000000,67.073067 1.000000,34.146133 1.000000,1.000000 
	C33.687233,1.000000 66.374962,1.000000 99.531342,1.000000 
z"/>
<path fill="#FDFEFE" opacity="1.000000" stroke="none" 
	d="
M226.000000,100.531342 
	C224.104065,93.374062 222.862030,85.511734 220.204742,78.161026 
	C204.390991,34.416153 173.157104,9.152307 127.174835,1.356635 
	C159.927292,1.000000 192.854599,1.000000 226.000000,1.000000 
	C226.000000,34.020573 226.000000,67.041626 226.000000,100.531342 
z"/>
<path fill="#FDFEFE" opacity="1.000000" stroke="none" 
	d="
M1.000001,128.468658 
	C1.800999,130.945007 2.758863,133.857361 3.379390,136.839920 
	C12.249478,179.473923 47.335617,218.168808 99.816254,225.649139 
	C67.073441,226.000000 34.146881,226.000000 1.000000,226.000000 
	C1.000000,193.646103 1.000000,161.291718 1.000001,128.468658 
z"/>
<path fill="#FDFEFE" opacity="1.000000" stroke="none" 
	d="
M127.468658,226.000000 
	C133.015762,224.514313 139.156937,223.410461 145.027390,221.482346 
	C190.854691,206.430740 217.401062,174.831558 225.652710,127.189316 
	C226.000000,159.926926 226.000000,192.853867 226.000000,226.000000 
	C193.312759,226.000000 160.625046,226.000000 127.468658,226.000000 
z"/>
<path fill="#FCFEFD" opacity="1.000000" stroke="none" 
	d="
M71.867386,186.019363 
	C71.928413,167.368744 72.022942,148.718155 72.042641,130.067490 
	C72.072540,101.751610 72.050461,73.435669 72.050468,45.119747 
	C72.050468,43.318943 72.050476,41.518139 72.050476,39.561726 
	C73.009499,39.366966 73.625908,39.132977 74.242538,39.132370 
	C92.731064,39.114182 111.222786,38.904629 129.707275,39.178612 
	C149.506836,39.472088 163.028351,51.250996 165.583405,69.834259 
	C166.974838,79.954254 163.979294,88.991936 155.615051,99.506592 
	C156.523209,100.308914 157.408157,101.183861 158.384979,101.940140 
	C184.133896,121.875137 182.965729,158.240234 155.985352,176.594620 
	C145.956863,183.416855 134.720840,186.643234 122.143394,187.874146 
	C121.337219,187.974197 121.175079,188.019058 121.012932,188.063904 
	C104.823662,187.930099 88.634384,187.796295 72.214539,187.080368 
	C71.983955,186.498245 71.867393,186.019363 71.867386,186.019363 
M131.310394,59.109447 
	C130.541534,59.067123 129.772659,59.024799 128.218689,58.760860 
	C116.328590,58.760860 104.438492,58.760860 92.661865,58.760860 
	C92.661865,77.141586 92.661865,94.830093 92.661865,113.612679 
	C93.615654,112.186455 93.949684,111.686966 94.863571,110.858749 
	C98.871338,108.573181 102.721786,105.928513 106.924301,104.087509 
	C112.996193,101.427582 119.441795,99.619766 125.509811,96.952194 
	C132.256393,93.986305 138.525970,90.160706 142.144089,83.290024 
	C147.198380,73.692131 143.179245,63.356010 132.818939,59.635300 
	C132.578659,59.443512 132.308334,59.380459 131.310394,59.109447 
M142.881378,160.461761 
	C160.843094,147.904144 158.356903,124.157173 142.557922,112.839470 
	C141.257568,111.907951 138.830460,111.482742 137.366913,112.020309 
	C128.493698,115.279442 119.700966,118.772980 110.973389,122.409103 
	C101.977875,126.156868 94.330345,131.870712 93.032036,142.068146 
	C91.953773,150.537308 92.811295,159.252930 92.811295,168.239960 
	C101.071785,168.239960 109.193253,168.242996 117.314720,168.239182 
	C126.361008,168.234909 134.679764,165.751678 142.881378,160.461761 
z"/>
<path fill="#009160" opacity="1.000000" stroke="none" 
	d="
M71.786835,186.133392 
	C71.867393,186.019363 71.983955,186.498245 71.942856,186.741241 
	C71.665352,186.769592 71.600189,186.524002 71.786835,186.133392 
z"/>
<path fill="#00976B" opacity="1.000000" stroke="none" 
	d="
M121.124481,188.153717 
	C121.175079,188.019058 121.337219,187.974197 121.743866,187.991592 
	C121.988358,188.053833 121.637314,188.286774 121.637314,188.286774 
	C121.637314,188.286774 121.236023,188.243530 121.124481,188.153717 
z"/>
<path fill="#0E9A70" opacity="1.000000" stroke="none" 
	d="
M142.589539,160.675522 
	C134.679764,165.751678 126.361008,168.234909 117.314720,168.239182 
	C109.193253,168.242996 101.071785,168.239960 92.811295,168.239960 
	C92.811295,159.252930 91.953773,150.537308 93.032036,142.068146 
	C94.330345,131.870712 101.977875,126.156868 110.973389,122.409103 
	C119.700966,118.772980 128.493698,115.279442 137.366913,112.020309 
	C138.830460,111.482742 141.257568,111.907951 142.557922,112.839470 
	C158.356903,124.157173 160.843094,147.904144 142.589539,160.675522 
z"/>
<path fill="#0D996F" opacity="1.000000" stroke="none" 
	d="
M129.003799,58.982479 
	C129.772659,59.024799 130.541534,59.067123 131.795319,59.447582 
	C132.280258,59.785717 132.679077,59.960571 132.679077,59.960571 
	C132.679077,59.960571 133.114304,59.945911 133.114304,59.945911 
	C143.179245,63.356010 147.198380,73.692131 142.144089,83.290024 
	C138.525970,90.160706 132.256393,93.986305 125.509811,96.952194 
	C119.441795,99.619766 112.996193,101.427582 106.924301,104.087509 
	C102.721786,105.928513 98.871338,108.573181 94.326477,110.742920 
	C93.816017,107.497902 93.863068,104.368721 93.865669,101.239517 
	C93.875763,89.105598 93.953079,76.970795 93.823021,64.838272 
	C93.784325,61.228218 95.051392,59.659637 98.750977,59.825008 
	C102.898087,60.010391 107.063461,59.972824 111.214584,59.838017 
	C117.147331,59.645340 123.074341,59.276234 129.003799,58.982479 
z"/>
<path fill="#32A582" opacity="1.000000" stroke="none" 
	d="
M128.611237,58.871670 
	C123.074341,59.276234 117.147331,59.645340 111.214584,59.838017 
	C107.063461,59.972824 102.898087,60.010391 98.750977,59.825008 
	C95.051392,59.659637 93.784325,61.228218 93.823021,64.838272 
	C93.953079,76.970795 93.875763,89.105598 93.865669,101.239517 
	C93.863068,104.368721 93.816017,107.497902 94.036545,110.907288 
	C93.949684,111.686966 93.615654,112.186455 92.661865,113.612679 
	C92.661865,94.830093 92.661865,77.141586 92.661865,58.760860 
	C104.438492,58.760860 116.328590,58.760860 128.611237,58.871670 
z"/>
<path fill="#32A582" opacity="1.000000" stroke="none" 
	d="
M132.966614,59.790604 
	C133.114304,59.945911 132.679077,59.960571 132.679077,59.960571 
	C132.679077,59.960571 132.280258,59.785717 132.144135,59.615929 
	C132.308334,59.380459 132.578659,59.443512 132.966614,59.790604 
z"/>
</svg>