<svg xmlns="http://www.w3.org/2000/svg" width="24" height="24" fill="none" viewBox="0 0 24 24" id="google-sheets">
  <rect width="13" height="13" x="1" y="5.5" fill="#029853" rx="2.5"></rect>
  <path fill="url(#paint0_linear_9_7)" d="M3 6.5C3 5.11929 4.11929 4 5.5 4H20.75C22.1307 4 23.25 5.11929 23.25 6.5V17.5C23.25 18.8807 22.1307 20 20.75 20H5.5C4.11929 20 3 18.8807 3 17.5V6.5Z"></path>
  <path fill="url(#paint1_linear_9_7)" d="M3 6.5C3 5.11929 4.11929 4 5.5 4H20.75C22.1307 4 23.25 5.11929 23.25 6.5V17.5C23.25 18.8807 22.1307 20 20.75 20H5.5C4.11929 20 3 18.8807 3 17.5V6.5Z"></path>
  <path stroke="#fff" stroke-linecap="round" stroke-width="1.5" d="M18.125 9.5V17.5M20.75 15.125H10"></path>
  <defs>
    <linearGradient id="paint0_linear_9_7" x1="3" x2="23.25" y1="12" y2="12" gradientUnits="userSpaceOnUse">
      <stop stop-color="#7BC8FE"></stop>
      <stop offset=".677" stop-color="#11BC5C"></stop>
    </linearGradient>
    <linearGradient id="paint1_linear_9_7" x1="13.197" x2="13.197" y1="20" y2="4" gradientUnits="userSpaceOnUse">
      <stop stop-color="#14BA61"></stop>
      <stop offset=".19" stop-color="#14BA61" stop-opacity="0"></stop>
      <stop offset=".81" stop-color="#14BA61" stop-opacity="0"></stop>
      <stop offset="1" stop-color="#14BA61"></stop>
    </linearGradient>
  </defs>
</svg>
