<?xml version="1.0" encoding="utf-8"?><svg version="1.1" id="Layer_1" xmlns="http://www.w3.org/2000/svg" xmlns:xlink="http://www.w3.org/1999/xlink" x="0px" y="0px" viewBox="0 0 230.81 244.96" style="enable-background:new 0 0 230.81 244.96" xml:space="preserve"><g><g><g><g><path d="M173.62,115.76c1.79-0.21,3.5-0.22,5.07,0c0.91-2.09,1.07-5.69,0.25-9.61c-1.22-5.83-2.87-9.36-6.27-8.81 c-3.41,0.55-3.53,4.77-2.31,10.6C171.04,111.22,172.26,114.02,173.62,115.76z"/><path d="M144.37,120.37c2.44,1.07,3.94,1.78,4.52,1.16c0.38-0.39,0.26-1.12-0.32-2.07c-1.2-1.96-3.68-3.96-6.3-5.07 c-5.37-2.31-11.77-1.54-16.71,2.01c-1.63,1.19-3.18,2.85-2.96,3.85c0.07,0.33,0.32,0.57,0.89,0.65 c1.34,0.15,6.04-2.22,11.45-2.55C138.77,118.11,141.93,119.3,144.37,120.37z"/><path d="M139.47,123.17c-3.17,0.5-4.93,1.55-6.05,2.52c-0.96,0.84-1.55,1.77-1.55,2.42c0,0.31,0.14,0.49,0.24,0.58 c0.14,0.13,0.32,0.2,0.52,0.2c0.72,0,2.32-0.64,2.32-0.64c4.42-1.58,7.33-1.39,10.22-1.06c1.6,0.18,2.35,0.28,2.7-0.27 c0.1-0.16,0.23-0.5-0.09-1.01C147.05,124.69,143.84,122.65,139.47,123.17z"/><path d="M163.74,133.44c2.16,1.06,4.53,0.64,5.3-0.93c0.77-1.57-0.35-3.7-2.5-4.76c-2.16-1.06-4.53-0.64-5.3,0.93 C160.46,130.25,161.59,132.38,163.74,133.44z"/><path d="M177.6,121.33c-1.75-0.03-3.2,1.89-3.24,4.29c-0.04,2.4,1.35,4.37,3.1,4.4c1.75,0.03,3.2-1.89,3.24-4.29 C180.74,123.33,179.35,121.36,177.6,121.33z"/><path d="M59.98,164.63c-0.44-0.55-1.15-0.38-1.84-0.22c-0.48,0.11-1.03,0.24-1.63,0.23c-1.29-0.02-2.38-0.58-2.99-1.52 c-0.8-1.22-0.75-3.05,0.13-5.14c0.12-0.28,0.26-0.59,0.41-0.94c1.4-3.15,3.76-8.42,1.12-13.45c-1.99-3.78-5.23-6.14-9.12-6.63 c-3.74-0.47-7.59,0.91-10.04,3.62c-3.87,4.27-4.48,10.09-3.73,12.14c0.27,0.75,0.7,0.96,1.02,1c0.66,0.09,1.63-0.39,2.24-2.03 c0.04-0.12,0.1-0.3,0.17-0.53c0.27-0.87,0.78-2.49,1.61-3.78c1-1.56,2.56-2.64,4.39-3.03c1.86-0.4,3.77-0.04,5.36,1 c2.71,1.78,3.76,5.1,2.6,8.27c-0.6,1.64-1.57,4.78-1.36,7.36c0.43,5.22,3.64,7.31,6.53,7.54c2.8,0.11,4.76-1.47,5.26-2.62 C60.39,165.22,60.14,164.81,59.98,164.63z"/><path d="M221.78,155.09c-0.11-0.38-0.8-2.92-1.76-5.98c-0.96-3.06-1.94-5.22-1.94-5.22c3.83-5.74,3.9-10.87,3.39-13.77 c-0.54-3.6-2.04-6.67-5.07-9.84c-3.02-3.17-9.2-6.42-17.89-8.86c-0.99-0.28-4.27-1.18-4.56-1.27 c-0.02-0.19-0.24-10.74-0.44-15.28c-0.14-3.28-0.43-8.39-2.01-13.43c-1.89-6.82-5.19-12.78-9.3-16.6 c11.35-11.76,18.43-24.72,18.42-35.84c-0.03-21.38-26.29-27.85-58.65-14.45c-0.03,0.01-6.81,2.89-6.86,2.91 c-0.03-0.03-12.39-12.16-12.58-12.32C85.65-27.04-29.7,101.18,7.18,132.32l8.06,6.83c-2.09,5.42-2.91,11.62-2.24,18.29 c0.86,8.57,5.28,16.79,12.45,23.13c6.8,6.03,15.74,9.84,24.42,9.83c14.35,33.07,47.14,53.36,85.59,54.5 c41.24,1.23,75.86-18.13,90.37-52.89c0.95-2.44,4.98-13.43,4.98-23.14C230.81,159.13,225.3,155.09,221.78,155.09z M53.04,181.12 c-1.25,0.21-2.53,0.3-3.82,0.27c-12.46-0.33-25.91-11.55-27.25-24.85c-1.48-14.7,6.03-26.01,19.33-28.7 c1.59-0.32,3.51-0.51,5.58-0.4c7.45,0.41,18.43,6.13,20.94,22.36C70.05,164.18,66.52,178.82,53.04,181.12z M39.13,119.05 c-8.28,1.61-15.58,6.3-20.04,12.78c-2.67-2.22-7.64-6.53-8.51-8.21c-7.12-13.53,7.77-39.83,18.18-54.68 c25.72-36.7,66-64.49,84.65-59.45c3.03,0.86,13.07,12.5,13.07,12.5s-18.64,10.34-35.93,24.76 C67.27,64.69,49.67,90.76,39.13,119.05z M169.88,175.62c0.27-0.11,0.46-0.42,0.43-0.73c-0.04-0.38-0.38-0.65-0.75-0.61 c0,0-19.51,2.89-37.95-3.86c2.01-6.53,7.35-4.17,15.42-3.52c14.55,0.87,27.58-1.26,37.22-4.02c8.35-2.4,19.31-7.12,27.83-13.84 c2.87,6.31,3.89,13.25,3.89,13.25s2.22-0.4,4.08,0.75c1.76,1.08,3.04,3.33,2.16,9.13c-1.79,10.85-6.4,19.66-14.15,27.76 c-4.72,5.08-10.45,9.5-17,12.71c-3.48,1.83-7.19,3.41-11.1,4.69c-29.22,9.54-59.13-0.95-68.77-23.48 c-0.77-1.69-1.42-3.47-1.93-5.32c-4.11-14.85-0.62-32.66,10.28-43.88c0,0,0,0,0-0.01c0.67-0.71,1.36-1.55,1.36-2.61 c0-0.89-0.56-1.82-1.05-2.48c-3.81-5.53-17.03-14.96-14.38-33.21c1.9-13.11,13.37-22.34,24.06-21.79 c0.9,0.05,1.81,0.1,2.71,0.16c4.63,0.27,8.67,0.87,12.49,1.03c6.38,0.28,12.12-0.65,18.92-6.32c2.29-1.91,4.13-3.57,7.24-4.09 c0.33-0.06,1.14-0.35,2.77-0.27c1.66,0.09,3.24,0.54,4.66,1.49c5.45,3.63,6.22,12.41,6.5,18.83c0.16,3.67,0.6,12.54,0.76,15.09 c0.35,5.82,1.88,6.65,4.97,7.67c1.74,0.57,3.36,1,5.74,1.67c7.21,2.03,11.49,4.08,14.19,6.72c1.61,1.65,2.36,3.4,2.59,5.07 c0.85,6.2-4.82,13.87-19.82,20.83c-16.4,7.61-36.3,9.54-50.05,8.01c-1.05-0.12-4.8-0.54-4.82-0.54 c-11-1.48-17.27,12.73-10.67,22.47c4.25,6.28,15.84,10.36,27.43,10.36c26.58,0,47.01-11.35,54.61-21.15 c0.23-0.29,0.25-0.33,0.61-0.87c0.37-0.56,0.07-0.87-0.4-0.56c-6.21,4.25-33.79,21.11-63.28,16.04c0,0-3.58-0.59-6.86-1.86 c-2.6-1.01-8.04-3.51-8.7-9.1C154.89,182.58,169.88,175.62,169.88,175.62z M132.17,171.17 C132.17,171.17,132.18,171.17,132.17,171.17c0.01,0.01,0.01,0.01,0.01,0.02C132.18,171.18,132.18,171.17,132.17,171.17z M86.63,68.79c9.14-10.57,20.4-19.75,30.48-24.91c0.35-0.18,0.72,0.2,0.53,0.54c-0.8,1.45-2.34,4.55-2.83,6.91 c-0.08,0.37,0.32,0.64,0.63,0.43c6.27-4.28,17.19-8.86,26.76-9.45c0.41-0.03,0.61,0.5,0.28,0.75c-1.46,1.12-3.05,2.66-4.21,4.22 c-0.2,0.27-0.01,0.65,0.32,0.65c6.72,0.05,16.2,2.4,22.37,5.86c0.42,0.23,0.12,1.04-0.35,0.94c-9.34-2.14-24.64-3.77-40.53,0.11 c-14.18,3.46-25.01,8.8-32.91,14.55C86.79,69.69,86.31,69.17,86.63,68.79z"/></g></g></g></g></svg>