<svg version="1.1" id="Layer_1" xmlns="http://www.w3.org/2000/svg" xmlns:xlink="http://www.w3.org/1999/xlink" x="0px" y="0px"
	 width="100%" viewBox="0 0 400 400" enable-background="new 0 0 400 400" xml:space="preserve">
<path fill="#FFFEFE" opacity="1.000000" stroke="none" 
	d="
M222.000000,401.000000 
	C148.022964,401.000000 74.545929,401.000000 1.034447,401.000000 
	C1.034447,267.731293 1.034447,134.462585 1.034447,1.096937 
	C134.226990,1.096937 267.454071,1.096937 400.840576,1.096937 
	C400.840576,134.333176 400.840576,267.666565 400.840576,401.000000 
	C341.462677,401.000000 281.981323,401.000000 222.000000,401.000000 
M372.393616,213.890167 
	C373.844086,199.196396 372.705414,184.634567 370.162537,170.144577 
	C356.927246,94.726013 292.638885,35.251225 216.674622,29.298088 
	C158.470261,24.736752 109.137199,44.098328 70.379311,88.086212 
	C21.009184,144.118332 14.182018,226.665894 52.960350,290.405945 
	C99.337051,366.635468 196.302673,395.680389 276.028778,355.784241 
	C333.728363,326.910522 365.777832,279.261810 372.393616,213.890167 
z"/>
<path fill="#E15A47" opacity="1.000000" stroke="none" 
	d="
M372.340210,214.346985 
	C365.777832,279.261810 333.728363,326.910522 276.028778,355.784241 
	C196.302673,395.680389 99.337051,366.635468 52.960350,290.405945 
	C14.182018,226.665894 21.009184,144.118332 70.379311,88.086212 
	C109.137199,44.098328 158.470261,24.736752 216.674622,29.298088 
	C292.638885,35.251225 356.927246,94.726013 370.162537,170.144577 
	C372.705414,184.634567 373.844086,199.196396 372.340210,214.346985 
M251.998779,217.001221 
	C251.998779,217.001221 251.960953,217.032043 251.766983,216.542084 
	C251.458359,216.400681 251.149750,216.259277 250.399063,215.948181 
	C250.128159,215.765457 249.933319,215.521896 249.914185,214.318527 
	C250.055298,212.681702 249.915207,210.959274 250.383087,209.421906 
	C253.462006,199.304855 253.285629,188.955826 252.696884,178.070129 
	C252.783020,177.737183 252.869171,177.404236 253.554031,176.468765 
	C253.343307,170.962311 253.132599,165.455856 252.748535,159.466354 
	C252.809586,159.137329 252.870651,158.808289 252.945389,157.606430 
	C252.602081,156.070679 252.258774,154.534912 251.986374,153.008728 
	C251.986374,153.008728 251.963501,153.076523 251.961319,152.276398 
	C251.600052,150.823563 251.238785,149.370728 250.467697,147.305908 
	C248.031265,141.489838 245.594849,135.673752 243.061417,129.994385 
	C243.061417,129.994385 243.190994,129.888016 243.132095,129.169510 
	C241.415833,126.459694 239.699570,123.749886 238.005188,121.003250 
	C238.005188,121.003250 237.963409,121.012596 237.874695,120.374886 
	C236.916809,119.250999 235.958923,118.127113 235.000000,117.000000 
	C235.000000,117.000000 234.997635,116.998398 234.901276,116.359940 
	C233.913025,115.278221 232.924774,114.196503 231.966644,113.032845 
	C231.966644,113.032845 231.883881,113.060600 231.739777,112.493187 
	C231.154434,112.004166 230.569092,111.515144 230.000610,110.999580 
	C230.000610,110.999580 229.973572,111.015564 229.845703,110.370270 
	C228.224564,108.922531 226.603439,107.474785 225.000687,106.000114 
	C225.000687,106.000114 224.973572,106.017647 224.752747,105.408844 
	C223.550308,104.550522 222.347870,103.692207 220.998672,102.966637 
	C220.998672,102.966637 221.162079,102.855362 220.955566,102.223549 
	C211.483154,94.016472 200.427032,88.922760 188.365128,85.966011 
	C176.677887,83.101097 164.895325,81.967285 152.362762,85.115204 
	C151.928436,85.226845 151.494125,85.338493 150.293991,85.306915 
	C140.434280,87.530296 130.902588,90.533890 122.236671,96.988434 
	C121.822456,97.319862 121.408241,97.651299 120.311150,98.097786 
	C110.796944,104.358536 102.580994,111.882355 96.846504,122.276314 
	C96.846504,122.276314 96.801910,122.602760 96.204597,122.943100 
	C89.040207,133.567764 84.470116,145.117111 83.391121,158.731323 
	C83.343445,159.500229 83.295769,160.269119 83.036102,161.947128 
	C83.092613,168.081223 83.149132,174.215317 83.099190,181.362534 
	C81.359627,206.012482 88.884308,227.668533 105.472168,245.719467 
	C119.593933,261.086823 137.319916,269.730774 158.401703,272.220001 
	C177.189011,274.438293 194.394272,270.728455 210.449097,261.493561 
	C214.918060,258.922943 217.111816,259.397064 220.465027,262.811920 
	C237.499908,280.160034 254.760406,297.286957 271.994507,314.438446 
	C273.864838,316.299774 275.932648,318.042480 278.152618,319.457794 
	C284.972321,323.805725 296.570068,322.587433 302.364044,317.094513 
	C309.272827,310.544708 310.936066,301.236847 306.696533,292.841705 
	C309.805908,284.922577 310.072021,277.216644 304.499084,270.209656 
	C302.336792,267.490906 299.749542,265.102661 297.290894,262.628418 
	C282.520264,247.764130 267.730682,232.918640 252.799011,217.579346 
	C252.522171,217.399399 252.245331,217.219452 251.998779,217.001221 
z"/>
<path fill="#E4E6E9" opacity="1.000000" stroke="none" 
	d="
M83.248093,161.038025 
	C83.295769,160.269119 83.343445,159.500229 83.834808,158.231262 
	C84.838486,156.207504 85.726982,154.721115 85.904778,153.154068 
	C86.999031,143.509430 90.885612,134.953110 95.729256,126.709831 
	C96.418983,125.535988 96.460426,123.981224 96.801910,122.602760 
	C96.801910,122.602760 96.846504,122.276314 97.289764,122.108658 
	C98.532066,121.389008 99.439995,120.945267 100.113251,120.268188 
	C106.539268,113.805664 112.944252,107.321823 119.298088,100.788483 
	C120.040314,100.025276 120.437088,98.926125 120.994019,97.982727 
	C121.408241,97.651299 121.822456,97.319862 122.899261,96.972763 
	C124.057770,96.911278 124.593536,96.972046 125.043701,96.803802 
	C132.976547,93.839035 140.916458,90.890953 148.800064,87.799614 
	C149.719086,87.439232 150.314407,86.253319 151.059799,85.450134 
	C151.494125,85.338493 151.928436,85.226845 152.997620,85.388443 
	C155.765961,85.707428 157.947174,86.065971 160.025299,85.748894 
	C175.208221,83.432236 189.480164,86.505585 203.091599,93.073334 
	C209.253738,96.046661 215.146896,99.577469 221.162079,102.855362 
	C221.162079,102.855362 220.998672,102.966637 221.033569,103.293419 
	C222.370178,104.419350 223.671875,105.218498 224.973572,106.017647 
	C224.973572,106.017647 225.000687,106.000114 225.021942,106.355865 
	C226.686676,108.146263 228.330124,109.580910 229.973572,111.015564 
	C229.973572,111.015564 230.000610,110.999580 230.023499,111.326584 
	C230.658875,112.122589 231.271378,112.591599 231.883881,113.060608 
	C231.883881,113.060600 231.966644,113.032845 231.966248,113.428055 
	C232.976440,114.881638 233.987045,115.940018 234.997635,116.998398 
	C234.997635,116.998398 235.000000,117.000000 234.993713,117.363480 
	C235.979416,118.822174 236.971420,119.917381 237.963409,121.012596 
	C237.963409,121.012596 238.005188,121.003250 237.992889,121.391899 
	C239.717392,124.483040 241.454193,127.185524 243.190994,129.888016 
	C243.190994,129.888016 243.061417,129.994385 243.055054,130.317444 
	C245.595596,139.591522 248.172470,148.534195 250.671890,157.498459 
	C251.459610,160.323624 252.039780,163.206680 252.801453,166.493988 
	C252.784775,169.270294 252.681610,171.615845 252.238861,174.098038 
	C251.021103,180.002106 250.142929,185.769516 249.337158,191.652832 
	C249.409561,191.768723 249.279800,192.009262 248.952148,192.182297 
	C247.466248,195.950378 246.308014,199.545410 245.120636,203.080750 
	C245.091476,203.021057 245.198044,203.100418 244.850143,203.214539 
	C244.001328,204.852417 243.500397,206.376160 243.002686,208.154022 
	C243.007111,208.577515 243.008316,208.746918 242.736725,209.125793 
	C236.019638,221.380859 226.759262,230.912537 215.617126,239.163239 
	C207.470917,242.853134 199.644897,246.429947 191.725159,250.000885 
	C191.631439,249.995010 191.292419,250.138107 190.937622,250.340881 
	C190.048477,250.630203 189.514114,250.716736 188.694183,250.563431 
	C185.605042,251.080719 182.801514,251.837860 179.673004,252.718719 
	C178.887451,252.857193 178.426880,252.871918 177.657654,252.615784 
	C169.448776,251.898178 161.549377,251.435776 153.647781,251.014755 
	C151.456192,250.897995 149.258072,250.904114 146.702759,250.857239 
	C145.903625,250.686386 145.464676,250.512146 144.898071,250.041718 
	C142.791504,249.231873 140.812592,248.718170 138.908417,248.162613 
	C138.983185,248.120758 138.869781,248.249222 138.712769,247.922623 
	C137.867508,247.483002 137.179260,247.369995 136.352448,247.286789 
	C136.213882,247.316605 135.985046,247.149261 135.855637,246.830505 
	C134.149796,246.011200 132.573349,245.510635 130.707794,244.971680 
	C129.937073,244.626297 129.455490,244.319290 128.817856,243.762604 
	C128.294647,243.405487 127.927498,243.298050 127.399368,243.177902 
	C127.238388,243.165207 126.995361,242.952515 126.940338,242.606201 
	C125.889450,241.871033 124.893578,241.482162 123.935806,241.057236 
	C123.973915,241.021179 123.943062,241.121475 123.812668,240.849915 
	C123.135345,240.382584 122.588425,240.186813 122.023407,240.000641 
	C122.005310,240.010223 122.002106,239.969391 121.963127,239.612183 
	C120.825966,238.700745 119.727791,238.146515 118.610947,237.543060 
	C118.592270,237.493835 118.491684,237.462723 118.551834,237.098114 
	C116.707794,235.516571 114.803604,234.299606 112.947929,233.049835 
	C112.996437,233.017014 112.922348,233.107758 112.919548,232.754593 
	C109.885651,229.650314 106.854553,226.899216 103.866737,224.093506 
	C103.910019,224.038910 103.878105,224.174545 103.817169,223.911407 
	C103.466270,223.453308 103.176315,223.258377 102.929504,223.046082 
	C102.972641,223.028732 102.930664,223.111725 102.863724,222.860443 
	C102.524414,222.408661 102.252052,222.208160 101.990494,222.003815 
	C102.001305,221.999969 101.988678,222.019485 101.974380,221.703796 
	C101.546211,220.985916 101.132339,220.583710 100.799934,220.163300 
	C100.881409,220.145081 100.749893,220.247955 100.802353,219.878357 
	C99.545135,218.021469 98.235466,216.534149 96.961334,215.025818 
	C96.996880,215.004807 96.946533,215.070267 96.968567,214.710678 
	C96.323982,213.568405 95.657364,212.785721 94.886414,211.904770 
	C94.782074,211.806488 94.768303,211.520126 94.816223,211.122910 
	C93.123055,207.562347 91.381973,204.398987 89.635605,201.170532 
	C89.630310,201.105408 89.674324,201.227722 89.775391,200.842438 
	C88.829277,198.014160 87.782089,195.571167 86.789551,193.083954 
	C86.844193,193.039749 86.793602,193.170898 86.864838,192.735535 
	C86.283783,188.075516 85.494644,183.866409 85.011681,179.622467 
	C84.308212,173.440811 83.825127,167.234070 83.248093,161.038025 
M225.877060,170.191772 
	C225.817108,169.145538 225.757156,168.099319 225.795486,166.209778 
	C223.258362,121.242043 175.248978,96.808319 137.705475,119.168205 
	C118.467392,130.625885 106.781197,154.885880 110.597725,175.992584 
	C114.423515,208.244827 145.055237,231.202240 177.083115,225.821106 
	C202.329971,221.579254 222.968536,200.445404 225.035568,176.192596 
	C225.237610,174.444458 225.439651,172.696320 225.877060,170.191772 
z"/>
<path fill="#B44A3A" opacity="1.000000" stroke="none" 
	d="
M94.768303,211.520126 
	C94.768303,211.520126 94.782074,211.806488 94.921387,212.217346 
	C95.689308,213.442230 96.317917,214.256241 96.946533,215.070267 
	C96.946533,215.070267 96.996880,215.004807 97.018791,215.358368 
	C98.277100,217.223953 99.513496,218.735962 100.749893,220.247955 
	C100.749893,220.247955 100.881409,220.145081 100.857033,220.451874 
	C101.217995,221.178940 101.603333,221.599213 101.988678,222.019485 
	C101.988678,222.019485 102.001305,221.999969 102.058960,222.254517 
	C102.387962,222.709946 102.659309,222.910843 102.930664,223.111725 
	C102.930664,223.111725 102.972641,223.028732 102.997475,223.305115 
	C103.307579,223.779175 103.592842,223.976852 103.878105,224.174545 
	C103.878105,224.174545 103.910019,224.038910 103.966202,224.412552 
	C106.989029,227.560059 109.955688,230.333908 112.922348,233.107758 
	C112.922348,233.107758 112.996437,233.017014 113.083328,233.356461 
	C114.944038,234.951508 116.717865,236.207108 118.491684,237.462723 
	C118.491684,237.462723 118.592270,237.493835 118.761261,237.796753 
	C119.954201,238.722916 120.978149,239.346161 122.002106,239.969391 
	C122.002106,239.969391 122.005310,240.010223 122.180031,240.246490 
	C122.884186,240.695679 123.413628,240.908569 123.943069,241.121460 
	C123.943062,241.121475 123.973915,241.021179 124.102707,241.321411 
	C125.152779,242.065262 126.074066,242.508896 126.995361,242.952515 
	C126.995361,242.952515 127.238388,243.165207 127.571281,243.410461 
	C128.260742,243.774582 128.617325,243.893433 128.973907,244.012299 
	C129.455490,244.319290 129.937073,244.626297 130.934921,245.228424 
	C132.962479,246.065460 134.473755,246.607361 135.985046,247.149261 
	C135.985046,247.149261 136.213882,247.316605 136.582993,247.533066 
	C137.591324,247.916092 138.230560,248.082657 138.869781,248.249222 
	C138.869781,248.249222 138.983185,248.120758 139.125763,248.419739 
	C141.187469,249.258438 143.106583,249.798157 145.025711,250.337891 
	C145.464676,250.512146 145.903625,250.686386 147.010681,251.073685 
	C157.675110,253.704010 167.742020,254.785141 177.966324,252.886627 
	C178.426880,252.871918 178.887451,252.857193 180.053833,252.788361 
	C183.499680,252.090591 186.239731,251.446930 188.979767,250.803284 
	C189.514114,250.716736 190.048477,250.630203 191.024414,250.434937 
	C191.672272,250.318192 191.789902,250.211716 191.818893,250.006775 
	C199.644897,246.429947 207.470917,242.853134 215.770294,239.457840 
	C224.501373,247.854706 232.766968,256.062164 241.014603,264.287598 
	C249.227722,272.478638 257.329498,280.784119 265.663879,288.849548 
	C270.053650,293.097687 274.302216,297.938721 279.557556,300.747772 
	C289.018860,305.805084 296.965668,303.169556 306.564392,293.588165 
	C310.936066,301.236847 309.272827,310.544708 302.364044,317.094513 
	C296.570068,322.587433 284.972321,323.805725 278.152618,319.457794 
	C275.932648,318.042480 273.864838,316.299774 271.994507,314.438446 
	C254.760406,297.286957 237.499908,280.160034 220.465027,262.811920 
	C217.111816,259.397064 214.918060,258.922943 210.449097,261.493561 
	C194.394272,270.728455 177.189011,274.438293 158.401703,272.220001 
	C137.319916,269.730774 119.593933,261.086823 105.472168,245.719467 
	C88.884308,227.668533 81.359627,206.012482 83.355103,181.242859 
	C84.671875,185.139084 85.732735,189.154984 86.793602,193.170898 
	C86.793602,193.170898 86.844193,193.039749 86.791595,193.464508 
	C87.717438,196.335434 88.695877,198.781570 89.674324,201.227722 
	C89.674324,201.227722 89.630310,201.105408 89.667969,201.538544 
	C91.393188,205.154510 93.080750,208.337311 94.768303,211.520126 
z"/>
<path fill="#2C4556" opacity="1.000000" stroke="none" 
	d="
M306.630463,293.214935 
	C296.965668,303.169556 289.018860,305.805084 279.557556,300.747772 
	C274.302216,297.938721 270.053650,293.097687 265.663879,288.849548 
	C257.329498,280.784119 249.227722,272.478638 241.014603,264.287598 
	C232.766968,256.062164 224.501373,247.854706 216.090485,239.344788 
	C226.759262,230.912537 236.019638,221.380859 243.026779,209.291809 
	C245.664612,211.238037 247.739594,213.227753 249.814575,215.217468 
	C249.933319,215.521896 250.128159,215.765457 250.744781,216.253418 
	C251.380646,216.716446 251.670807,216.874237 251.960953,217.032043 
	C251.960953,217.032043 251.998779,217.001221 252.061005,217.261124 
	C252.397995,217.702957 252.672729,217.884903 252.947479,218.066833 
	C267.730682,232.918640 282.520264,247.764130 297.290894,262.628418 
	C299.749542,265.102661 302.336792,267.490906 304.499084,270.209656 
	C310.072021,277.216644 309.805908,284.922577 306.630463,293.214935 
z"/>
<path fill="#F3D3CD" opacity="1.000000" stroke="none" 
	d="
M221.058823,102.539459 
	C215.146896,99.577469 209.253738,96.046661 203.091599,93.073334 
	C189.480164,86.505585 175.208221,83.432236 160.025299,85.748894 
	C157.947174,86.065971 155.765961,85.707428 153.336212,85.398331 
	C164.895325,81.967285 176.677887,83.101097 188.365128,85.966011 
	C200.427032,88.922760 211.483154,94.016472 221.058823,102.539459 
z"/>
<path fill="#B25144" opacity="1.000000" stroke="none" 
	d="
M249.864380,214.768005 
	C247.739594,213.227753 245.664612,211.238037 243.299591,209.082336 
	C243.008316,208.746918 243.007111,208.577515 243.262115,207.947754 
	C244.078217,206.025055 244.638123,204.562729 245.198029,203.100418 
	C245.198044,203.100418 245.091476,203.021057 245.397369,202.861664 
	C246.895462,199.137939 248.087631,195.573608 249.279816,192.009262 
	C249.279800,192.009262 249.409561,191.768723 249.597290,191.355896 
	C250.794312,186.819870 251.803589,182.696655 252.812866,178.573441 
	C253.285629,188.955826 253.462006,199.304855 250.383087,209.421906 
	C249.915207,210.959274 250.055298,212.681702 249.864380,214.768005 
z"/>
<path fill="#F3D3CD" opacity="1.000000" stroke="none" 
	d="
M96.503250,122.772934 
	C96.460426,123.981224 96.418983,125.535988 95.729256,126.709831 
	C90.885612,134.953110 86.999031,143.509430 85.904778,153.154068 
	C85.726982,154.721115 84.838486,156.207504 83.990128,157.876343 
	C84.470116,145.117111 89.040207,133.567764 96.503250,122.772934 
z"/>
<path fill="#F3D3CD" opacity="1.000000" stroke="none" 
	d="
M120.652580,98.040253 
	C120.437088,98.926125 120.040314,100.025276 119.298088,100.788483 
	C112.944252,107.321823 106.539268,113.805664 100.113251,120.268188 
	C99.439995,120.945267 98.532066,121.389008 97.388603,121.976868 
	C102.580994,111.882355 110.796944,104.358536 120.652580,98.040253 
z"/>
<path fill="#F3D3CD" opacity="1.000000" stroke="none" 
	d="
M252.714951,166.063232 
	C252.039780,163.206680 251.459610,160.323624 250.671890,157.498459 
	C248.172470,148.534195 245.595596,139.591522 243.103546,130.249084 
	C245.594849,135.673752 248.031265,141.489838 250.661575,148.006439 
	C251.224808,150.163483 251.594147,151.619995 251.963501,153.076523 
	C251.963501,153.076523 251.986374,153.008728 251.932220,153.406006 
	C252.229279,155.361938 252.580505,156.920609 252.931732,158.479263 
	C252.870651,158.808289 252.809586,159.137329 252.800674,160.146118 
	C252.806854,162.571671 252.760895,164.317459 252.714951,166.063232 
z"/>
<path fill="#F3D3CD" opacity="1.000000" stroke="none" 
	d="
M150.676895,85.378525 
	C150.314407,86.253319 149.719086,87.439232 148.800064,87.799614 
	C140.916458,90.890953 132.976547,93.839035 125.043701,96.803802 
	C124.593536,96.972046 124.057770,96.911278 123.168365,96.916977 
	C130.902588,90.533890 140.434280,87.530296 150.676895,85.378525 
z"/>
<path fill="#F3D3CD" opacity="1.000000" stroke="none" 
	d="
M86.864838,192.735535 
	C85.732735,189.154984 84.671875,185.139084 83.408325,180.736298 
	C83.149132,174.215317 83.092613,168.081223 83.142090,161.492584 
	C83.825127,167.234070 84.308212,173.440811 85.011681,179.622467 
	C85.494644,183.866409 86.283783,188.075516 86.864838,192.735535 
z"/>
<path fill="#F3D3CD" opacity="1.000000" stroke="none" 
	d="
M252.754883,178.321777 
	C251.803589,182.696655 250.794312,186.819870 249.524887,191.240005 
	C250.142929,185.769516 251.021103,180.002106 252.351212,174.474457 
	C252.853867,175.499908 252.904587,176.285599 252.955292,177.071274 
	C252.869171,177.404236 252.783020,177.737183 252.754883,178.321777 
z"/>
<path fill="#F3D3CD" opacity="1.000000" stroke="none" 
	d="
M243.161545,129.528763 
	C241.454193,127.185524 239.717392,124.483040 237.981949,121.410309 
	C239.699570,123.749886 241.415833,126.459694 243.161545,129.528763 
z"/>
<path fill="#B25144" opacity="1.000000" stroke="none" 
	d="
M253.254669,176.770020 
	C252.904587,176.285599 252.853867,175.499908 252.690796,174.337799 
	C252.681610,171.615845 252.784775,169.270294 252.801453,166.493988 
	C252.760895,164.317459 252.806854,162.571671 252.887344,160.387650 
	C253.132599,165.455856 253.343307,170.962311 253.254669,176.770020 
z"/>
<path fill="#F3D3CD" opacity="1.000000" stroke="none" 
	d="
M229.909637,110.692917 
	C228.330124,109.580910 226.686676,108.146263 225.012756,106.369324 
	C226.603439,107.474785 228.224564,108.922531 229.909637,110.692917 
z"/>
<path fill="#F3D3CD" opacity="1.000000" stroke="none" 
	d="
M224.863159,105.713242 
	C223.671875,105.218498 222.370178,104.419350 221.106949,103.227043 
	C222.347870,103.692207 223.550308,104.550522 224.863159,105.713242 
z"/>
<path fill="#F3D3CD" opacity="1.000000" stroke="none" 
	d="
M234.949463,116.679169 
	C233.987045,115.940018 232.976440,114.881638 231.951172,113.469017 
	C232.924774,114.196503 233.913025,115.278221 234.949463,116.679169 
z"/>
<path fill="#F3D3CD" opacity="1.000000" stroke="none" 
	d="
M237.919052,120.693741 
	C236.971420,119.917381 235.979416,118.822174 234.994232,117.365097 
	C235.958923,118.127113 236.916809,119.250999 237.919052,120.693741 
z"/>
<path fill="#B25144" opacity="1.000000" stroke="none" 
	d="
M251.962402,152.676453 
	C251.594147,151.619995 251.224808,150.163483 250.866486,148.312408 
	C251.238785,149.370728 251.600052,150.823563 251.962402,152.676453 
z"/>
<path fill="#B25144" opacity="1.000000" stroke="none" 
	d="
M252.938568,158.042847 
	C252.580505,156.920609 252.229279,155.361938 251.896759,153.401215 
	C252.258774,154.534912 252.602081,156.070679 252.938568,158.042847 
z"/>
<path fill="#F3D3CD" opacity="1.000000" stroke="none" 
	d="
M231.811829,112.776901 
	C231.271378,112.591599 230.658875,112.122589 230.015076,111.339851 
	C230.569092,111.515144 231.154434,112.004166 231.811829,112.776901 
z"/>
<path fill="#B25144" opacity="1.000000" stroke="none" 
	d="
M251.863968,216.787064 
	C251.670807,216.874237 251.380646,216.716446 250.965820,216.338257 
	C251.149750,216.259277 251.458359,216.400681 251.863968,216.787064 
z"/>
<path fill="#B25144" opacity="1.000000" stroke="none" 
	d="
M252.873245,217.823090 
	C252.672729,217.884903 252.397995,217.702957 252.045868,217.280273 
	C252.245331,217.219452 252.522171,217.399399 252.873245,217.823090 
z"/>
<path fill="#3C637D" opacity="1.000000" stroke="none" 
	d="
M224.833374,176.924942 
	C222.968536,200.445404 202.329971,221.579254 177.083115,225.821106 
	C145.055237,231.202240 114.423515,208.244827 111.011086,175.285675 
	C111.917297,170.328018 111.778000,165.884277 113.007324,161.858429 
	C120.089745,138.664505 142.950592,121.985008 167.763702,121.797050 
	C192.230942,121.611710 216.829681,139.490677 223.132736,163.289902 
	C224.294724,167.677307 224.296234,172.372055 224.833374,176.924942 
M174.196198,146.612091 
	C173.776459,134.805557 160.757080,127.696434 150.746460,133.807541 
	C143.683044,138.119492 140.834274,145.725327 143.506546,153.137161 
	C146.522049,161.500946 153.695557,165.019501 163.780960,163.081619 
	C170.017593,161.883286 174.132050,155.733627 174.196198,146.612091 
z"/>
<path fill="#2A4B5E" opacity="1.000000" stroke="none" 
	d="
M224.934479,176.558777 
	C224.296234,172.372055 224.294724,167.677307 223.132736,163.289902 
	C216.829681,139.490677 192.230942,121.611710 167.763702,121.797050 
	C142.950592,121.985008 120.089745,138.664505 113.007324,161.858429 
	C111.778000,165.884277 111.917297,170.328018 111.102722,174.867279 
	C106.781197,154.885880 118.467392,130.625885 137.705475,119.168205 
	C175.248978,96.808319 223.258362,121.242043 225.537766,166.855530 
	C225.400589,168.650253 225.521133,169.799225 225.641693,170.948181 
	C225.439651,172.696320 225.237610,174.444458 224.934479,176.558777 
z"/>
<path fill="#F3D3CD" opacity="1.000000" stroke="none" 
	d="
M177.657654,252.615784 
	C167.742020,254.785141 157.675110,253.704010 147.370865,251.070282 
	C149.258072,250.904114 151.456192,250.897995 153.647781,251.014755 
	C161.549377,251.435776 169.448776,251.898178 177.657654,252.615784 
z"/>
<path fill="#F3D3CD" opacity="1.000000" stroke="none" 
	d="
M112.919548,232.754593 
	C109.955688,230.333908 106.989029,227.560059 103.922913,224.467148 
	C106.854553,226.899216 109.885651,229.650314 112.919548,232.754593 
z"/>
<path fill="#F3D3CD" opacity="1.000000" stroke="none" 
	d="
M188.694183,250.563416 
	C186.239731,251.446930 183.499680,252.090591 180.378815,252.664627 
	C182.801514,251.837860 185.605042,251.080719 188.694183,250.563416 
z"/>
<path fill="#F3D3CD" opacity="1.000000" stroke="none" 
	d="
M94.816223,211.122910 
	C93.080750,208.337311 91.393188,205.154510 89.673264,201.603668 
	C91.381973,204.398987 93.123055,207.562347 94.816223,211.122910 
z"/>
<path fill="#F3D3CD" opacity="1.000000" stroke="none" 
	d="
M248.952148,192.182297 
	C248.087631,195.573608 246.895462,199.137939 245.426529,202.921356 
	C246.308014,199.545410 247.466248,195.950378 248.952148,192.182297 
z"/>
<path fill="#F3D3CD" opacity="1.000000" stroke="none" 
	d="
M118.551834,237.098114 
	C116.717865,236.207108 114.944038,234.951508 113.034821,233.389282 
	C114.803604,234.299606 116.707794,235.516571 118.551834,237.098114 
z"/>
<path fill="#F3D3CD" opacity="1.000000" stroke="none" 
	d="
M89.775391,200.842438 
	C88.695877,198.781570 87.717438,196.335434 86.736946,193.508728 
	C87.782089,195.571167 88.829277,198.014160 89.775391,200.842438 
z"/>
<path fill="#F3D3CD" opacity="1.000000" stroke="none" 
	d="
M100.802345,219.878357 
	C99.513496,218.735962 98.277100,217.223953 96.983246,215.379395 
	C98.235466,216.534149 99.545135,218.021469 100.802345,219.878357 
z"/>
<path fill="#F3D3CD" opacity="1.000000" stroke="none" 
	d="
M135.855637,246.830505 
	C134.473755,246.607361 132.962479,246.065460 131.224060,245.266815 
	C132.573349,245.510635 134.149796,246.011200 135.855637,246.830505 
z"/>
<path fill="#F3D3CD" opacity="1.000000" stroke="none" 
	d="
M144.898071,250.041718 
	C143.106583,249.798157 141.187469,249.258438 139.050995,248.461578 
	C140.812592,248.718170 142.791504,249.231873 144.898071,250.041718 
z"/>
<path fill="#F3D3CD" opacity="1.000000" stroke="none" 
	d="
M121.963120,239.612183 
	C120.978149,239.346161 119.954201,238.722916 118.779938,237.845978 
	C119.727791,238.146515 120.825966,238.700745 121.963120,239.612183 
z"/>
<path fill="#F3D3CD" opacity="1.000000" stroke="none" 
	d="
M244.850128,203.214539 
	C244.638123,204.562729 244.078217,206.025055 243.258881,207.693649 
	C243.500397,206.376160 244.001328,204.852417 244.850128,203.214539 
z"/>
<path fill="#F3D3CD" opacity="1.000000" stroke="none" 
	d="
M126.940338,242.606201 
	C126.074066,242.508896 125.152779,242.065262 124.064598,241.357468 
	C124.893578,241.482162 125.889450,241.871033 126.940338,242.606201 
z"/>
<path fill="#F3D3CD" opacity="1.000000" stroke="none" 
	d="
M96.968567,214.710678 
	C96.317917,214.256241 95.689308,213.442230 95.025719,212.315628 
	C95.657364,212.785721 96.323982,213.568405 96.968567,214.710678 
z"/>
<path fill="#3C637D" opacity="1.000000" stroke="none" 
	d="
M225.759369,170.569977 
	C225.521133,169.799225 225.400589,168.650253 225.488632,167.277191 
	C225.757156,168.099319 225.817108,169.145538 225.759369,170.569977 
z"/>
<path fill="#F3D3CD" opacity="1.000000" stroke="none" 
	d="
M123.812668,240.849915 
	C123.413628,240.908569 122.884186,240.695679 122.198128,240.236908 
	C122.588425,240.186813 123.135345,240.382584 123.812668,240.849915 
z"/>
<path fill="#F3D3CD" opacity="1.000000" stroke="none" 
	d="
M138.712769,247.922623 
	C138.230560,248.082657 137.591324,247.916092 136.721558,247.503250 
	C137.179260,247.369995 137.867508,247.483002 138.712769,247.922623 
z"/>
<path fill="#F3D3CD" opacity="1.000000" stroke="none" 
	d="
M101.974380,221.703796 
	C101.603333,221.599213 101.217995,221.178940 100.775558,220.470078 
	C101.132339,220.583710 101.546211,220.985916 101.974380,221.703796 
z"/>
<path fill="#F3D3CD" opacity="1.000000" stroke="none" 
	d="
M128.817841,243.762604 
	C128.617325,243.893433 128.260742,243.774582 127.732254,243.423157 
	C127.927498,243.298050 128.294647,243.405487 128.817841,243.762604 
z"/>
<path fill="#F3D3CD" opacity="1.000000" stroke="none" 
	d="
M103.817169,223.911407 
	C103.592842,223.976852 103.307579,223.779175 102.954338,223.322464 
	C103.176315,223.258377 103.466270,223.453308 103.817169,223.911407 
z"/>
<path fill="#F3D3CD" opacity="1.000000" stroke="none" 
	d="
M102.863724,222.860443 
	C102.659309,222.910843 102.387962,222.709946 102.048149,222.258362 
	C102.252052,222.208160 102.524414,222.408661 102.863724,222.860443 
z"/>
<path fill="#F3D3CD" opacity="1.000000" stroke="none" 
	d="
M191.725159,250.000900 
	C191.789902,250.211716 191.672272,250.318192 191.379211,250.232147 
	C191.292419,250.138107 191.631439,249.995010 191.725159,250.000900 
z"/>
<path fill="#9CB1BF" opacity="1.000000" stroke="none" 
	d="
M174.196930,147.062210 
	C174.132050,155.733627 170.017593,161.883286 163.780960,163.081619 
	C153.695557,165.019501 146.522049,161.500946 143.506546,153.137161 
	C140.834274,145.725327 143.683044,138.119492 150.746460,133.807541 
	C160.757080,127.696434 173.776459,134.805557 174.196930,147.062210 
z"/>
</svg>