<?xml version="1.0" encoding="utf-8"?>

<!DOCTYPE svg PUBLIC "-//W3C//DTD SVG 1.1//EN" "http://www.w3.org/Graphics/SVG/1.1/DTD/svg11.dtd">
<!-- Uploaded to: SVG Repo, www.svgrepo.com, Generator: SVG Repo Mixer Tools -->
<svg height="800px" width="800px" version="1.1" id="_x32_" xmlns="http://www.w3.org/2000/svg" xmlns:xlink="http://www.w3.org/1999/xlink" 
	 viewBox="0 0 512 512"  xml:space="preserve">
<style type="text/css">
	.st0{fill:#000000;}
</style>
<g>
	<path class="st0" d="M386.8,291.064c-16.951-9.852-36.163-21.017-65.082-21.017c-25.516,0-42.931,7.648-59.771,15.043
		c-16.539,7.263-33.643,14.771-58.49,14.771c-24.548,0-39.89-14.037-56.134-28.897c-15.976-14.62-32.498-29.736-58.28-29.736h-1.59
		V388.51h337.093v-83.68h-1.59C410.492,304.83,399.514,298.452,386.8,291.064z"/>
	<path class="st0" d="M294.634,232.267c26.052,0,48.517-18.54,53.416-44.084l0.939-4.903l-3.602,3.455
		c-6.728,6.452-15.592,10.004-24.965,10.004c-19.992,0-36.258-16.238-36.258-36.2c0-14.237,8.4-27.193,21.399-33.006l4.546-2.034
		l-4.882-0.976c-3.422-0.685-6.986-1.032-10.594-1.032c-29.99,0-54.389,24.398-54.389,54.387S264.643,232.267,294.634,232.267z"/>
	<path class="st0" d="M0,47.702v416.596h512V47.702H0z M50.881,413.413V98.583h410.238v314.83H50.881z"/>
</g>
</svg>