<svg version="1.1" id="Layer_1" xmlns="http://www.w3.org/2000/svg" xmlns:xlink="http://www.w3.org/1999/xlink" x="0px" y="0px"
	 width="100%" viewBox="0 0 200 200" enable-background="new 0 0 200 200" xml:space="preserve">
<path fill="#020202" opacity="1.000000" stroke="none" 
	d="
M120.000000,201.000000 
	C80.024696,201.000000 40.549400,201.000000 1.037050,201.000000 
	C1.037050,134.399734 1.037050,67.799454 1.037050,1.099581 
	C67.558464,1.099581 134.117126,1.099581 200.837891,1.099581 
	C200.837891,67.666351 200.837891,134.333145 200.837891,201.000000 
	C174.133072,201.000000 147.316528,201.000000 120.000000,201.000000 
M82.889175,171.692993 
	C76.094460,166.078781 68.870590,161.858276 59.487514,164.014359 
	C58.252579,164.298126 56.833687,163.922638 55.522690,163.711517 
	C45.823971,162.149719 39.691994,157.041138 38.914612,147.275772 
	C38.296093,139.505966 38.726177,131.156601 40.953648,123.744568 
	C49.370842,95.735817 67.523605,74.597580 90.742447,57.606316 
	C103.719215,48.110081 117.794922,40.696747 134.103775,38.682289 
	C156.220200,35.950478 165.969727,45.638660 163.701233,67.947281 
	C163.571945,69.218781 163.228302,70.837746 163.820984,71.753639 
	C167.752075,77.828362 171.911667,83.755234 176.345459,90.240021 
	C180.994705,77.217278 183.563889,64.569168 180.971283,51.291748 
	C177.648697,34.275890 165.692184,23.151958 148.504257,20.760277 
	C138.219803,19.329210 128.179199,20.516832 118.463928,23.721352 
	C79.539421,36.560364 51.676926,62.511528 32.080585,97.842659 
	C24.413511,111.665970 19.680283,126.531342 20.070192,142.580658 
	C20.545401,162.141052 31.123207,176.184296 48.658615,180.535690 
	C62.681797,184.015503 76.188431,181.472839 90.349228,176.363113 
	C87.625626,174.635529 85.584061,173.340561 82.889175,171.692993 
M150.500290,181.136597 
	C164.964569,178.407745 174.940979,170.296295 179.653534,156.262558 
	C182.975204,146.370712 182.735107,136.206757 180.439636,126.156395 
	C173.278931,94.804375 154.827866,70.712852 131.039978,50.144207 
	C130.154129,49.378235 128.479706,48.656319 127.528648,48.975220 
	C121.563850,50.975281 115.700111,53.276749 109.142067,55.725243 
	C132.310257,73.701492 145.734314,89.095367 155.311493,108.489525 
	C160.817810,119.640038 164.766937,131.227097 163.896286,143.915421 
	C163.037155,156.435577 155.995834,163.721848 143.470200,163.863708 
	C136.762695,163.939697 129.758728,163.147827 123.364845,161.191162 
	C96.769699,153.052475 76.492676,135.999832 59.652168,114.410049 
	C58.504887,112.939217 57.310036,111.505486 55.588799,109.375839 
	C53.235722,115.323669 50.946690,120.311516 49.374928,125.515984 
	C48.825752,127.334427 49.353642,130.266357 50.561905,131.705826 
	C63.085831,146.626221 77.664940,159.218185 94.805229,168.570511 
	C111.854912,177.873367 129.705688,184.244690 150.500290,181.136597 
M42.272896,45.930046 
	C48.512241,38.283207 57.022511,37.778175 65.907204,38.366776 
	C67.845688,38.495193 70.256065,39.131168 71.667572,38.262886 
	C77.786842,34.498631 83.616600,30.263723 90.127838,25.805399 
	C77.648651,21.407345 65.612999,18.848293 52.959534,20.888283 
	C39.979210,22.980968 29.730484,29.267633 24.241566,41.495102 
	C16.967321,57.699677 19.962994,73.779320 25.721138,90.354202 
	C29.655243,84.492615 33.324944,79.392738 36.548637,74.024994 
	C37.697285,72.112404 38.352932,69.514229 38.216949,67.291191 
	C37.773273,60.037903 37.805344,52.975800 42.272896,45.930046 
M140.004044,117.487991 
	C130.263412,127.318375 120.522781,137.148743 110.600731,147.162216 
	C115.397697,149.009705 120.588173,151.234314 125.946083,152.929749 
	C127.479736,153.415054 130.077530,152.982742 131.199722,151.924179 
	C138.217682,145.304123 145.000961,138.431396 151.733368,131.517136 
	C152.645126,130.580765 153.578171,128.699936 153.240112,127.670715 
	C151.263794,121.653793 148.911835,115.760246 146.429260,109.138512 
	C143.882156,112.456207 142.163239,114.695152 140.004044,117.487991 
z"/>
<path fill="#FBFBFB" opacity="1.000000" stroke="none" 
	d="
M83.215836,171.869293 
	C85.584061,173.340561 87.625626,174.635529 90.349228,176.363113 
	C76.188431,181.472839 62.681797,184.015503 48.658615,180.535690 
	C31.123207,176.184296 20.545401,162.141052 20.070192,142.580658 
	C19.680283,126.531342 24.413511,111.665970 32.080585,97.842659 
	C51.676926,62.511528 79.539421,36.560364 118.463928,23.721352 
	C128.179199,20.516832 138.219803,19.329210 148.504257,20.760277 
	C165.692184,23.151958 177.648697,34.275890 180.971283,51.291748 
	C183.563889,64.569168 180.994705,77.217278 176.345459,90.240021 
	C171.911667,83.755234 167.752075,77.828362 163.820984,71.753639 
	C163.228302,70.837746 163.571945,69.218781 163.701233,67.947281 
	C165.969727,45.638660 156.220200,35.950478 134.103775,38.682289 
	C117.794922,40.696747 103.719215,48.110081 90.742447,57.606316 
	C67.523605,74.597580 49.370842,95.735817 40.953648,123.744568 
	C38.726177,131.156601 38.296093,139.505966 38.914612,147.275772 
	C39.691994,157.041138 45.823971,162.149719 55.522690,163.711517 
	C56.833687,163.922638 58.252579,164.298126 59.487514,164.014359 
	C68.870590,161.858276 76.094460,166.078781 83.215836,171.869293 
z"/>
<path fill="#FBFBFB" opacity="1.000000" stroke="none" 
	d="
M150.077087,181.235992 
	C129.705688,184.244690 111.854912,177.873367 94.805229,168.570511 
	C77.664940,159.218185 63.085831,146.626221 50.561905,131.705826 
	C49.353642,130.266357 48.825752,127.334427 49.374928,125.515984 
	C50.946690,120.311516 53.235722,115.323669 55.588799,109.375839 
	C57.310036,111.505486 58.504887,112.939217 59.652168,114.410049 
	C76.492676,135.999832 96.769699,153.052475 123.364845,161.191162 
	C129.758728,163.147827 136.762695,163.939697 143.470200,163.863708 
	C155.995834,163.721848 163.037155,156.435577 163.896286,143.915421 
	C164.766937,131.227097 160.817810,119.640038 155.311493,108.489525 
	C145.734314,89.095367 132.310257,73.701492 109.142067,55.725243 
	C115.700111,53.276749 121.563850,50.975281 127.528648,48.975220 
	C128.479706,48.656319 130.154129,49.378235 131.039978,50.144207 
	C154.827866,70.712852 173.278931,94.804375 180.439636,126.156395 
	C182.735107,136.206757 182.975204,146.370712 179.653534,156.262558 
	C174.940979,170.296295 164.964569,178.407745 150.077087,181.235992 
z"/>
<path fill="#FAFAFA" opacity="1.000000" stroke="none" 
	d="
M42.080700,46.249252 
	C37.805344,52.975800 37.773273,60.037903 38.216949,67.291191 
	C38.352932,69.514229 37.697285,72.112404 36.548637,74.024994 
	C33.324944,79.392738 29.655243,84.492615 25.721138,90.354202 
	C19.962994,73.779320 16.967321,57.699677 24.241566,41.495102 
	C29.730484,29.267633 39.979210,22.980968 52.959534,20.888283 
	C65.612999,18.848293 77.648651,21.407345 90.127838,25.805399 
	C83.616600,30.263723 77.786842,34.498631 71.667572,38.262886 
	C70.256065,39.131168 67.845688,38.495193 65.907204,38.366776 
	C57.022511,37.778175 48.512241,38.283207 42.080700,46.249252 
z"/>
<path fill="#F9F9F9" opacity="1.000000" stroke="none" 
	d="
M140.224182,117.211044 
	C142.163239,114.695152 143.882156,112.456207 146.429260,109.138512 
	C148.911835,115.760246 151.263794,121.653793 153.240112,127.670715 
	C153.578171,128.699936 152.645126,130.580765 151.733368,131.517136 
	C145.000961,138.431396 138.217682,145.304123 131.199722,151.924179 
	C130.077530,152.982742 127.479736,153.415054 125.946083,152.929749 
	C120.588173,151.234314 115.397697,149.009705 110.600731,147.162216 
	C120.522781,137.148743 130.263412,127.318375 140.224182,117.211044 
z"/>
</svg>