<svg id="svg" version="1.1" xmlns="http://www.w3.org/2000/svg" xmlns:xlink="http://www.w3.org/1999/xlink" width="400" height="400" viewBox="0, 0, 400,400"><g id="svgg"><path id="path0" d="M121.800 71.593 C 120.700 71.778,118.318 71.946,116.507 71.965 C 111.560 72.018,101.485 73.637,93.400 75.679 C 64.196 83.056,37.364 101.780,20.237 126.735 C 17.499 130.724,17.229 131.301,18.255 130.967 C 18.849 130.774,18.882 130.808,18.419 131.136 C 18.100 131.362,17.708 131.467,17.549 131.368 C 17.130 131.109,13.678 136.984,10.715 143.000 C 4.208 156.212,-1.118 173.563,0.440 176.475 C 0.750 177.055,0.752 177.218,0.447 177.029 C 0.137 176.838,0.013 183.419,0.013 200.000 C 0.013 212.781,0.160 223.148,0.340 223.037 C 0.520 222.926,0.667 223.097,0.667 223.418 C 0.667 223.738,0.517 224.000,0.333 224.000 C -1.909 224.000,4.923 245.423,11.049 257.600 C 38.459 312.086,99.019 339.428,158.600 324.217 C 168.910 321.585,174.078 315.118,172.394 306.959 C 170.521 297.884,162.616 293.507,152.800 296.110 C 98.983 310.377,45.034 280.121,29.815 227.136 C 27.258 218.235,26.736 214.092,26.521 201.000 C 26.343 190.158,26.449 188.390,27.662 182.000 C 42.095 105.983,131.666 74.412,191.000 124.429 C 195.554 128.268,266.047 199.031,267.478 201.200 C 272.892 209.408,269.644 220.286,260.400 224.902 C 257.932 226.134,257.577 226.199,253.400 226.184 C 245.999 226.158,249.329 228.953,209.800 189.602 C 174.097 154.060,173.203 153.226,167.600 150.255 C 126.857 128.650,84.366 174.495,108.333 214.200 C 110.639 218.021,185.408 293.554,192.671 299.400 C 220.401 321.721,254.809 331.760,289.200 327.566 C 325.184 323.178,355.961 305.215,377.729 275.898 C 378.342 275.071,378.717 274.189,378.560 273.936 C 378.389 273.659,378.452 273.585,378.719 273.750 C 378.980 273.911,379.747 273.156,380.581 271.917 C 382.062 269.718,382.346 268.954,381.500 269.441 C 381.210 269.608,381.140 269.576,381.333 269.364 C 381.517 269.164,381.862 269.000,382.101 269.000 C 385.601 269.000,402.515 226.034,399.785 224.076 C 399.265 223.703,399.074 222.675,399.583 222.990 C 399.853 223.156,399.987 215.518,399.987 200.000 C 399.987 183.419,399.863 176.838,399.553 177.029 C 399.279 177.199,399.297 176.966,399.604 176.392 C 401.763 172.359,387.260 133.925,383.365 133.354 C 383.014 133.302,382.608 133.128,382.463 132.966 C 382.319 132.805,382.535 132.793,382.945 132.941 C 383.962 133.308,383.686 132.687,381.144 128.901 C 352.091 85.634,301.823 64.358,250.600 73.650 C 232.599 76.915,227.443 80.641,227.412 90.408 C 227.377 101.315,235.751 106.761,247.802 103.668 C 288.994 93.098,328.807 107.010,354.636 141.000 C 356.308 143.200,357.824 145.000,358.005 145.000 C 358.185 145.000,358.483 145.164,358.667 145.364 C 358.860 145.576,358.790 145.608,358.500 145.441 C 357.890 145.089,357.865 145.400,358.420 146.437 C 358.651 146.869,358.975 147.139,359.139 147.038 C 359.304 146.936,359.700 147.038,360.019 147.264 C 360.493 147.599,360.471 147.634,359.900 147.450 C 358.910 147.132,358.986 147.363,360.977 150.765 C 361.954 152.434,363.328 155.031,364.031 156.536 C 364.797 158.175,365.425 159.083,365.599 158.802 C 365.803 158.472,365.963 158.527,366.140 158.987 C 366.286 159.370,366.227 159.540,365.995 159.397 C 365.326 158.983,365.536 159.759,367.369 164.461 C 370.201 171.726,371.625 177.222,373.209 187.000 C 373.747 190.317,373.512 210.804,372.891 214.800 C 369.802 234.670,360.877 253.146,347.400 267.568 C 344.522 270.648,339.826 275.205,338.296 276.401 C 337.689 276.876,337.282 277.409,337.392 277.587 C 337.501 277.764,337.323 278.132,336.996 278.404 C 336.668 278.676,336.386 279.191,336.368 279.549 C 336.347 279.998,336.272 280.038,336.127 279.677 C 336.012 279.389,336.234 278.804,336.621 278.377 C 337.870 276.996,336.919 277.542,333.120 280.383 C 309.869 297.775,278.738 303.817,249.600 296.592 C 235.390 293.068,222.953 286.812,210.800 277.074 C 206.744 273.824,135.650 202.869,133.205 199.630 C 125.133 188.939,133.001 173.786,146.600 173.832 C 153.557 173.855,150.586 171.345,189.400 209.994 C 228.060 248.489,228.751 249.091,238.000 252.320 C 265.116 261.785,293.186 245.337,298.180 217.055 C 299.084 211.939,298.256 200.937,296.613 196.220 C 292.736 185.090,295.370 188.111,249.830 142.559 C 222.047 114.768,208.462 101.460,205.426 99.059 C 201.358 95.842,199.605 94.760,200.808 96.210 C 201.086 96.545,201.198 96.935,201.057 97.076 C 200.916 97.218,200.787 97.078,200.772 96.767 C 200.755 96.424,200.600 96.517,200.380 97.000 C 200.093 97.631,200.049 97.522,200.174 96.490 C 200.324 95.253,200.172 95.071,197.467 93.262 C 182.590 83.308,164.517 76.091,147.806 73.431 C 145.823 73.115,143.480 72.738,142.600 72.593 C 141.089 72.345,134.782 71.876,127.200 71.448 C 125.330 71.343,122.900 71.408,121.800 71.593 M123.600 72.153 C 123.600 72.238,123.150 72.393,122.600 72.498 C 122.050 72.603,121.600 72.534,121.600 72.345 C 121.600 72.155,122.050 72.000,122.600 72.000 C 123.150 72.000,123.600 72.069,123.600 72.153 M130.623 72.362 C 130.500 72.562,130.039 72.631,129.600 72.516 C 128.499 72.228,128.598 72.000,129.824 72.000 C 130.387 72.000,130.746 72.163,130.623 72.362 M269.600 72.153 C 269.600 72.238,269.150 72.393,268.600 72.498 C 268.050 72.603,267.600 72.534,267.600 72.345 C 267.600 72.155,268.050 72.000,268.600 72.000 C 269.150 72.000,269.600 72.069,269.600 72.153 M280.623 72.362 C 280.500 72.562,280.039 72.631,279.600 72.516 C 278.499 72.228,278.598 72.000,279.824 72.000 C 280.387 72.000,280.746 72.163,280.623 72.362 M117.400 72.810 C 115.859 72.974,114.429 72.948,114.220 72.753 C 113.998 72.547,115.162 72.424,117.020 72.457 L 120.200 72.514 117.400 72.810 M136.980 72.735 C 136.771 72.920,135.520 72.946,134.200 72.794 L 131.800 72.518 134.580 72.459 C 136.109 72.426,137.189 72.551,136.980 72.735 M264.320 72.811 C 263.286 72.985,262.281 73.226,262.087 73.346 C 261.892 73.467,261.733 73.303,261.733 72.982 C 261.733 72.536,262.257 72.411,263.967 72.447 L 266.200 72.494 264.320 72.811 M286.667 72.982 C 286.667 73.303,286.498 73.461,286.293 73.334 C 286.087 73.207,284.992 72.967,283.860 72.801 L 281.800 72.500 284.233 72.450 C 286.120 72.411,286.667 72.531,286.667 72.982 M109.200 73.486 C 108.870 73.608,108.289 73.868,107.909 74.063 C 107.375 74.338,107.271 74.280,107.452 73.809 C 107.585 73.463,108.142 73.214,108.743 73.232 C 109.363 73.250,109.552 73.355,109.200 73.486 M144.000 73.600 C 144.000 74.069,143.693 74.069,142.600 73.600 C 141.891 73.295,141.925 73.253,142.900 73.228 C 143.505 73.213,144.000 73.380,144.000 73.600 M256.600 73.600 C 255.507 74.069,255.200 74.069,255.200 73.600 C 255.200 73.380,255.695 73.213,256.300 73.228 C 257.275 73.253,257.309 73.295,256.600 73.600 M293.200 73.600 C 293.200 74.069,292.893 74.069,291.800 73.600 C 291.091 73.295,291.125 73.253,292.100 73.228 C 292.705 73.213,293.200 73.380,293.200 73.600 M104.238 74.462 C 104.419 74.754,104.348 74.815,104.044 74.627 C 103.781 74.464,103.299 74.552,102.973 74.822 C 102.486 75.227,102.426 75.198,102.634 74.657 C 102.925 73.897,103.822 73.788,104.238 74.462 M148.966 74.657 C 149.174 75.198,149.114 75.227,148.627 74.822 C 148.301 74.552,147.819 74.464,147.556 74.627 C 147.252 74.815,147.181 74.754,147.362 74.462 C 147.778 73.788,148.675 73.897,148.966 74.657 M252.138 74.300 C 252.240 74.465,251.891 74.626,251.362 74.658 C 250.833 74.689,250.400 74.554,250.400 74.358 C 250.400 73.925,251.877 73.876,252.138 74.300 M298.000 74.358 C 298.000 74.554,297.567 74.689,297.038 74.658 C 296.509 74.626,296.160 74.465,296.262 74.300 C 296.523 73.876,298.000 73.925,298.000 74.358 M99.967 74.913 C 99.875 74.975,99.485 75.267,99.100 75.562 C 98.501 76.021,98.400 76.004,98.400 75.449 C 98.400 75.050,98.734 74.800,99.267 74.800 C 99.743 74.800,100.058 74.851,99.967 74.913 M153.200 75.449 C 153.200 75.947,153.075 75.994,152.663 75.652 C 152.368 75.407,151.979 75.340,151.799 75.503 C 151.619 75.667,151.601 75.575,151.759 75.300 C 152.175 74.579,153.200 74.685,153.200 75.449 M248.000 74.953 C 248.000 75.308,246.382 75.494,246.177 75.162 C 246.054 74.963,246.413 74.800,246.976 74.800 C 247.539 74.800,248.000 74.869,248.000 74.953 M232.622 80.535 C 232.062 81.270,231.693 81.990,231.802 82.135 C 231.911 82.281,231.886 82.316,231.747 82.214 C 231.608 82.112,231.113 82.223,230.647 82.462 C 230.181 82.701,230.602 82.064,231.583 81.048 C 233.692 78.863,234.022 78.700,232.622 80.535 M63.906 88.152 C 63.525 88.442,63.330 88.796,63.473 88.940 C 63.616 89.083,63.523 89.200,63.267 89.200 C 62.565 89.200,62.706 88.495,63.500 88.032 C 64.489 87.456,64.730 87.527,63.906 88.152 M53.163 94.922 C 52.634 95.429,52.110 95.773,52.000 95.687 C 51.793 95.526,53.519 94.000,53.908 94.000 C 54.028 94.000,53.693 94.415,53.163 94.922 M49.897 97.695 C 49.950 98.398,49.884 98.463,49.588 97.995 C 49.277 97.502,49.211 97.497,49.206 97.967 C 49.203 98.278,49.084 98.418,48.943 98.276 C 48.802 98.135,48.914 97.745,49.192 97.410 C 49.833 96.638,49.817 96.632,49.897 97.695 M129.800 99.200 C 129.658 99.429,127.983 99.567,125.876 99.523 L 122.200 99.447 126.000 99.200 C 128.090 99.064,129.856 98.919,129.924 98.877 C 129.992 98.834,129.936 98.980,129.800 99.200 M274.232 99.511 C 271.390 99.574,268.924 99.484,268.751 99.312 C 268.579 99.141,270.904 99.089,273.919 99.198 L 279.400 99.397 274.232 99.511 M121.200 99.600 C 121.200 99.820,120.345 99.974,119.300 99.943 L 117.400 99.886 119.000 99.600 C 119.880 99.442,120.735 99.288,120.900 99.257 C 121.065 99.226,121.200 99.380,121.200 99.600 M134.367 99.856 C 134.458 99.935,133.693 100.000,132.667 100.000 C 131.640 100.000,130.800 99.818,130.800 99.595 C 130.800 99.232,133.909 99.459,134.367 99.856 M267.600 99.600 C 267.600 99.820,267.015 99.982,266.300 99.960 C 265.068 99.922,265.053 99.903,266.000 99.600 C 267.412 99.148,267.600 99.148,267.600 99.600 M283.567 99.857 C 283.658 99.935,282.883 100.000,281.843 100.000 C 280.774 100.000,280.053 99.838,280.184 99.626 C 280.388 99.296,283.133 99.483,283.567 99.857 M45.755 100.612 C 45.390 101.169,44.997 101.530,44.882 101.415 C 44.689 101.223,45.932 99.600,46.271 99.600 C 46.352 99.600,46.120 100.056,45.755 100.612 M138.200 100.000 C 138.336 100.220,138.077 100.400,137.624 100.400 C 137.171 100.400,136.800 100.220,136.800 100.000 C 136.800 99.780,137.059 99.600,137.376 99.600 C 137.693 99.600,138.064 99.780,138.200 100.000 M287.200 100.000 C 287.685 100.314,287.628 100.389,286.900 100.394 C 286.405 100.397,286.000 100.220,286.000 100.000 C 286.000 99.499,286.424 99.499,287.200 100.000 M43.482 102.546 C 42.997 103.286,42.536 103.723,42.457 103.517 C 42.338 103.206,43.892 101.200,44.251 101.200 C 44.313 101.200,43.966 101.805,43.482 102.546 M209.187 103.362 C 209.180 103.603,208.928 103.475,208.628 103.079 C 208.220 102.542,208.030 102.491,207.881 102.879 C 207.771 103.165,207.701 103.001,207.725 102.514 C 207.772 101.545,209.216 102.382,209.187 103.362 M358.788 104.578 C 358.782 104.810,358.253 104.425,357.613 103.722 C 356.654 102.667,356.419 102.562,356.270 103.122 C 356.170 103.495,356.108 103.308,356.131 102.706 L 356.174 101.611 357.487 102.884 C 358.209 103.584,358.795 104.347,358.788 104.578 M39.584 106.023 C 39.105 106.696,38.612 107.145,38.488 107.021 C 38.284 106.817,39.927 104.800,40.297 104.800 C 40.384 104.800,40.063 105.350,39.584 106.023 M215.698 109.400 C 216.410 110.427,216.285 110.370,214.831 109.000 C 213.897 108.120,212.759 106.860,212.302 106.200 C 211.590 105.173,211.715 105.230,213.169 106.600 C 214.103 107.480,215.241 108.740,215.698 109.400 M88.800 106.470 C 88.800 106.678,88.635 106.745,88.434 106.621 C 88.233 106.497,87.995 106.616,87.904 106.887 C 87.814 107.158,87.641 107.002,87.521 106.540 C 87.345 105.870,87.452 105.741,88.051 105.897 C 88.463 106.005,88.800 106.263,88.800 106.470 M312.492 106.490 C 312.364 106.979,312.186 107.158,312.096 106.887 C 312.005 106.616,311.767 106.497,311.566 106.621 C 311.365 106.745,311.200 106.670,311.200 106.453 C 311.200 106.236,311.515 105.976,311.900 105.876 C 312.285 105.775,312.628 105.672,312.663 105.646 C 312.697 105.621,312.620 106.000,312.492 106.490 M84.000 108.424 C 84.000 108.657,83.820 108.736,83.600 108.600 C 83.380 108.464,83.200 108.554,83.200 108.800 C 83.200 109.046,83.020 109.136,82.800 109.000 C 82.580 108.864,82.400 108.954,82.400 109.200 C 82.400 109.446,82.220 109.536,82.000 109.400 C 81.780 109.264,81.600 109.354,81.600 109.600 C 81.600 109.846,81.420 109.936,81.200 109.800 C 80.980 109.664,80.800 109.754,80.800 110.000 C 80.800 110.246,80.620 110.336,80.400 110.200 C 80.180 110.064,80.000 110.154,80.000 110.400 C 80.000 110.646,79.820 110.736,79.600 110.600 C 79.380 110.464,79.200 110.554,79.200 110.800 C 79.200 111.046,79.020 111.136,78.800 111.000 C 78.580 110.864,78.400 110.954,78.400 111.200 C 78.400 111.446,78.235 111.545,78.034 111.421 C 77.833 111.297,77.577 111.421,77.466 111.698 C 77.308 112.089,77.256 112.091,77.232 111.705 C 77.214 111.433,78.595 110.497,80.300 109.625 C 83.682 107.896,84.000 107.793,84.000 108.424 M319.210 109.405 C 320.744 110.178,321.986 111.033,321.968 111.305 C 321.944 111.690,321.892 111.689,321.734 111.298 C 321.623 111.021,321.367 110.897,321.166 111.021 C 320.965 111.145,320.800 111.046,320.800 110.800 C 320.800 110.554,320.620 110.464,320.400 110.600 C 320.180 110.736,320.000 110.646,320.000 110.400 C 320.000 110.154,319.820 110.064,319.600 110.200 C 319.380 110.336,319.200 110.246,319.200 110.000 C 319.200 109.754,319.020 109.664,318.800 109.800 C 318.580 109.936,318.400 109.846,318.400 109.600 C 318.400 109.354,318.220 109.264,318.000 109.400 C 317.780 109.536,317.600 109.446,317.600 109.200 C 317.600 108.954,317.420 108.864,317.200 109.000 C 316.980 109.136,316.800 109.046,316.800 108.800 C 316.800 108.554,316.620 108.464,316.400 108.600 C 316.180 108.736,316.000 108.657,316.000 108.424 C 316.000 107.814,316.130 107.854,319.210 109.405 M364.000 109.000 C 364.517 109.550,364.749 110.000,364.516 110.000 C 364.283 110.000,363.797 109.550,363.437 109.000 C 363.076 108.450,362.844 108.000,362.921 108.000 C 362.998 108.000,363.483 108.450,364.000 109.000 M218.629 112.171 C 218.943 112.486,219.200 112.859,219.200 113.000 C 219.200 113.293,220.248 114.400,220.526 114.400 C 220.941 114.400,232.800 126.132,232.800 126.542 C 232.800 126.788,230.413 124.606,227.495 121.694 C 224.577 118.782,222.053 116.400,221.886 116.400 C 221.383 116.400,217.239 112.094,217.496 111.838 C 217.842 111.492,217.993 111.536,218.629 112.171 M370.800 116.200 C 371.114 116.578,371.141 116.800,370.873 116.800 C 370.639 116.800,370.334 116.617,370.196 116.393 C 370.058 116.170,369.790 116.083,369.600 116.200 C 369.410 116.317,369.142 116.230,369.004 116.007 C 368.604 115.359,370.249 115.536,370.800 116.200 M187.631 119.950 C 187.867 119.568,187.945 119.666,187.899 120.285 C 187.849 120.951,187.710 121.057,187.316 120.731 C 187.032 120.495,186.814 120.099,186.832 119.851 C 186.849 119.603,186.961 119.645,187.080 119.945 C 187.262 120.402,187.351 120.403,187.631 119.950 M336.119 120.266 C 335.967 120.662,336.026 120.831,336.265 120.683 C 336.486 120.547,336.667 120.706,336.667 121.037 C 336.667 121.562,336.594 121.565,336.086 121.057 C 335.767 120.738,335.627 120.279,335.776 120.038 C 336.189 119.371,336.407 119.516,336.119 120.266 M62.544 122.033 C 61.912 122.666,61.733 122.711,61.733 122.240 C 61.733 121.907,61.885 121.729,62.069 121.843 C 62.254 121.957,62.517 121.762,62.652 121.408 C 62.788 121.055,63.002 120.868,63.127 120.994 C 63.253 121.119,62.991 121.587,62.544 122.033 M341.016 124.700 L 341.724 125.800 340.862 125.038 C 340.388 124.619,340.000 124.124,340.000 123.938 C 340.000 123.351,340.286 123.566,341.016 124.700 M55.000 128.800 C 53.263 130.547,51.749 131.883,51.635 131.769 C 51.390 131.524,57.717 125.242,57.979 125.469 C 58.077 125.554,56.737 127.053,55.000 128.800 M202.300 133.701 C 202.835 134.307,203.441 134.698,203.646 134.571 C 203.852 134.444,203.970 134.579,203.910 134.870 C 203.849 135.162,204.025 135.355,204.300 135.300 C 204.575 135.245,204.755 135.425,204.700 135.700 C 204.645 135.975,204.825 136.155,205.100 136.100 C 205.375 136.045,205.555 136.225,205.500 136.500 C 205.445 136.775,205.638 136.951,205.930 136.890 C 206.221 136.830,206.365 136.932,206.250 137.119 C 205.960 137.588,220.579 152.087,220.959 151.707 C 221.128 151.538,221.207 151.670,221.133 152.000 C 221.060 152.330,221.225 152.555,221.500 152.500 C 221.775 152.445,221.955 152.625,221.900 152.900 C 221.845 153.175,222.025 153.355,222.300 153.300 C 222.575 153.245,222.755 153.425,222.700 153.700 C 222.645 153.975,222.838 154.151,223.130 154.090 C 223.421 154.030,223.566 154.131,223.452 154.316 C 223.159 154.790,236.969 168.498,237.352 168.115 C 237.525 167.942,237.607 168.070,237.533 168.400 C 237.460 168.730,237.625 168.955,237.900 168.900 C 238.175 168.845,238.355 169.025,238.300 169.300 C 238.245 169.575,238.425 169.755,238.700 169.700 C 238.975 169.645,239.155 169.825,239.100 170.100 C 239.045 170.375,239.238 170.551,239.530 170.490 C 239.821 170.430,239.965 170.533,239.850 170.720 C 239.560 171.189,253.381 184.886,253.761 184.506 C 253.929 184.338,254.007 184.470,253.933 184.800 C 253.860 185.130,254.025 185.355,254.300 185.300 C 254.575 185.245,254.755 185.425,254.700 185.700 C 254.645 185.975,254.825 186.155,255.100 186.100 C 255.375 186.045,255.555 186.225,255.500 186.500 C 255.445 186.775,255.670 186.940,256.000 186.867 C 256.330 186.793,256.459 186.875,256.286 187.047 C 256.114 187.220,258.274 189.704,261.086 192.568 C 263.899 195.431,265.660 197.330,265.000 196.787 C 263.016 195.155,194.000 126.096,194.000 125.743 C 194.000 125.420,200.426 131.581,202.300 133.701 M345.461 128.500 C 346.253 129.215,347.103 129.742,347.350 129.671 C 347.630 129.591,347.609 129.737,347.293 130.058 C 346.881 130.478,346.471 130.259,345.099 128.887 C 343.114 126.902,343.378 126.619,345.461 128.500 M235.029 128.571 C 235.343 128.886,235.600 129.346,235.600 129.595 C 235.600 129.844,235.780 129.936,236.000 129.800 C 236.220 129.664,236.400 129.833,236.400 130.176 C 236.400 130.519,236.560 130.800,236.755 130.800 C 237.285 130.800,249.200 142.425,249.200 142.942 C 249.200 143.188,246.813 141.006,243.895 138.094 C 240.977 135.182,238.453 132.800,238.286 132.800 C 237.783 132.800,233.639 128.494,233.896 128.238 C 234.242 127.892,234.393 127.936,235.029 128.571 M350.200 133.600 C 350.598 134.040,350.744 134.400,350.524 134.400 C 350.304 134.400,349.798 134.040,349.400 133.600 C 349.002 133.160,348.856 132.800,349.076 132.800 C 349.296 132.800,349.802 133.160,350.200 133.600 M50.000 134.200 C 49.726 134.530,49.322 134.800,49.102 134.800 C 48.879 134.800,48.922 134.535,49.200 134.200 C 49.474 133.870,49.878 133.600,50.098 133.600 C 50.321 133.600,50.278 133.865,50.000 134.200 M252.298 145.871 C 252.574 146.131,252.800 146.536,252.800 146.771 C 252.800 147.007,252.949 147.200,253.131 147.200 C 253.630 147.200,264.709 157.940,265.675 159.361 C 266.138 160.043,264.021 158.170,260.971 155.200 C 257.920 152.230,255.359 149.665,255.279 149.500 C 255.199 149.335,254.964 149.200,254.756 149.200 C 254.223 149.200,251.010 145.923,250.667 145.030 C 250.371 144.258,250.839 144.500,252.298 145.871 M130.452 148.937 C 130.207 149.232,130.140 149.631,130.303 149.824 C 130.467 150.016,130.285 149.933,129.900 149.638 C 129.155 149.068,128.928 148.585,129.600 149.000 C 129.820 149.136,130.000 149.057,130.000 148.824 C 130.000 148.591,130.202 148.400,130.449 148.400 C 130.779 148.400,130.780 148.542,130.452 148.937 M119.467 154.982 C 119.467 155.303,119.317 155.472,119.133 155.359 C 118.950 155.245,118.800 155.343,118.800 155.576 C 118.800 155.809,118.592 156.000,118.338 156.000 C 118.076 156.000,118.189 155.654,118.600 155.200 C 119.465 154.244,119.467 154.244,119.467 154.982 M242.626 223.507 C 242.440 223.693,176.400 157.662,176.400 157.289 C 176.400 157.131,191.333 171.934,209.584 190.184 C 227.835 208.434,242.704 223.429,242.626 223.507 M112.800 161.754 C 112.800 161.839,112.305 162.227,111.700 162.616 L 110.600 163.324 111.362 162.462 C 112.036 161.699,112.800 161.323,112.800 161.754 M268.629 162.171 C 268.943 162.486,269.200 162.859,269.200 163.000 C 269.200 163.293,270.248 164.400,270.526 164.400 C 270.941 164.400,282.800 176.132,282.800 176.542 C 282.800 176.788,280.413 174.606,277.495 171.694 C 274.577 168.782,272.053 166.400,271.886 166.400 C 271.383 166.400,267.239 162.094,267.496 161.838 C 267.842 161.492,267.993 161.536,268.629 162.171 M396.733 164.905 C 396.660 165.000,396.834 165.359,397.119 165.703 C 397.478 166.135,397.506 166.411,397.210 166.594 C 396.973 166.740,396.806 166.711,396.837 166.530 C 396.869 166.348,396.860 166.110,396.817 166.000 C 396.600 165.444,396.486 164.353,396.663 164.530 C 396.775 164.642,396.807 164.811,396.733 164.905 M286.077 179.581 C 287.466 180.889,287.609 181.151,286.905 181.098 C 286.438 181.063,286.144 180.891,286.251 180.717 C 286.359 180.543,286.248 180.400,286.005 180.400 C 285.405 180.400,283.588 178.546,283.891 178.242 C 284.258 177.875,284.279 177.888,286.077 179.581 M26.788 184.500 C 26.778 185.534,26.696 185.664,26.387 185.134 C 26.174 184.768,26.108 184.183,26.242 183.834 C 26.618 182.854,26.801 183.077,26.788 184.500 M374.030 183.782 C 374.228 183.659,374.284 183.838,374.153 184.179 C 373.796 185.109,373.196 184.927,373.232 183.900 C 373.249 183.405,373.354 183.226,373.466 183.502 C 373.577 183.779,373.831 183.905,374.030 183.782 M102.916 185.201 C 103.031 185.641,102.962 185.900,102.763 185.777 C 102.563 185.654,102.400 185.908,102.400 186.343 C 102.400 186.778,102.585 187.225,102.810 187.337 C 103.036 187.449,102.990 187.494,102.710 187.439 C 102.145 187.326,101.815 185.859,102.156 184.971 C 102.455 184.190,102.669 184.254,102.916 185.201 M129.490 190.893 C 129.401 191.612,129.326 191.120,129.324 189.800 C 129.322 188.480,129.395 187.892,129.486 188.493 C 129.577 189.094,129.579 190.174,129.490 190.893 M102.243 190.014 C 102.287 190.886,102.161 191.600,101.962 191.600 C 101.763 191.600,101.600 190.760,101.600 189.733 C 101.600 187.510,102.126 187.740,102.243 190.014 M374.727 190.245 C 374.877 190.152,375.000 190.689,375.000 191.438 C 375.000 192.261,374.802 192.800,374.500 192.800 C 374.151 192.800,374.018 192.105,374.060 190.500 C 374.093 189.235,374.195 188.698,374.287 189.307 C 374.379 189.916,374.577 190.338,374.727 190.245 M25.927 191.890 L 25.800 192.981 25.297 191.865 C 25.020 191.251,24.975 190.861,25.197 190.998 C 25.433 191.144,25.625 190.699,25.660 189.924 C 25.715 188.713,25.734 188.694,25.887 189.700 C 25.978 190.305,25.996 191.291,25.927 191.890 M102.880 192.480 C 102.363 192.997,102.204 194.568,102.700 194.262 C 102.865 194.160,103.000 194.509,103.000 195.038 C 103.000 195.567,102.775 196.000,102.500 196.000 C 102.175 196.000,102.000 195.380,102.000 194.233 C 102.000 192.687,102.265 192.192,103.180 192.032 C 103.279 192.014,103.144 192.216,102.880 192.480 M170.749 238.717 C 189.752 257.702,205.224 273.310,205.132 273.402 C 205.040 273.494,203.088 271.700,200.795 269.414 C 198.503 267.129,196.481 265.350,196.303 265.460 C 196.126 265.570,196.030 265.421,196.090 265.130 C 196.151 264.838,195.975 264.645,195.700 264.700 C 195.425 264.755,195.245 264.575,195.300 264.300 C 195.355 264.025,195.175 263.845,194.900 263.900 C 194.625 263.955,194.445 263.775,194.500 263.500 C 194.555 263.225,194.362 263.049,194.070 263.110 C 193.779 263.170,193.635 263.068,193.750 262.881 C 194.040 262.412,179.421 247.913,179.041 248.293 C 178.872 248.462,178.793 248.330,178.867 248.000 C 178.940 247.670,178.775 247.445,178.500 247.500 C 178.225 247.555,178.045 247.375,178.100 247.100 C 178.155 246.825,177.975 246.645,177.700 246.700 C 177.425 246.755,177.245 246.575,177.300 246.300 C 177.355 246.025,177.130 245.860,176.800 245.933 C 176.470 246.007,176.342 245.925,176.515 245.752 C 176.898 245.369,163.190 231.559,162.716 231.852 C 162.531 231.966,162.430 231.821,162.490 231.530 C 162.551 231.238,162.375 231.045,162.100 231.100 C 161.825 231.155,161.645 230.975,161.700 230.700 C 161.755 230.425,161.575 230.245,161.300 230.300 C 161.025 230.355,160.845 230.175,160.900 229.900 C 160.955 229.625,160.762 229.449,160.470 229.510 C 160.179 229.570,160.035 229.467,160.150 229.280 C 160.440 228.811,146.619 215.114,146.239 215.494 C 146.071 215.662,145.993 215.530,146.067 215.200 C 146.140 214.870,145.975 214.645,145.700 214.700 C 145.425 214.755,145.245 214.575,145.300 214.300 C 145.355 214.025,145.175 213.845,144.900 213.900 C 144.625 213.955,144.445 213.775,144.500 213.500 C 144.555 213.225,144.330 213.060,144.000 213.133 C 143.670 213.207,143.541 213.125,143.714 212.953 C 143.886 212.780,141.726 210.296,138.914 207.432 C 136.101 204.569,134.340 202.670,135.000 203.213 C 135.660 203.756,151.747 219.733,170.749 238.717 M297.950 206.500 L 297.900 209.000 297.599 206.940 C 297.433 205.808,297.175 204.683,297.025 204.440 C 296.871 204.192,297.024 204.000,297.376 204.000 C 297.880 204.000,297.990 204.481,297.950 206.500 M270.690 205.600 C 270.723 206.040,270.581 206.400,270.375 206.400 C 269.945 206.400,269.869 205.465,270.267 205.067 C 270.629 204.705,270.622 204.696,270.690 205.600 M25.936 208.900 C 25.900 210.297,25.801 210.823,25.710 210.092 C 25.621 209.373,25.409 208.871,25.239 208.976 C 25.069 209.081,25.125 208.544,25.363 207.784 C 25.952 205.900,26.010 206.013,25.936 208.900 M375.029 208.371 C 375.029 208.794,374.899 209.061,374.740 208.963 C 374.582 208.865,374.379 209.373,374.290 210.092 C 374.146 211.259,374.121 211.220,374.064 209.733 C 374.025 208.721,374.196 207.987,374.500 207.865 C 374.775 207.754,375.006 207.649,375.014 207.632 C 375.022 207.614,375.029 207.947,375.029 208.371 M271.467 211.382 C 271.467 211.703,271.332 211.882,271.167 211.780 C 271.003 211.678,270.777 211.821,270.666 212.098 C 270.554 212.374,270.449 212.195,270.432 211.700 C 270.414 211.201,270.638 210.800,270.933 210.800 C 271.227 210.800,271.467 211.062,271.467 211.382 M297.836 215.049 C 297.498 215.931,297.000 215.686,297.000 214.638 C 297.000 214.109,297.135 213.760,297.300 213.862 C 297.465 213.964,297.632 213.272,297.672 212.324 L 297.744 210.600 297.896 212.549 C 297.980 213.621,297.953 214.746,297.836 215.049 M270.641 214.604 C 270.592 214.936,270.338 215.386,270.076 215.604 C 269.742 215.882,269.710 215.866,269.969 215.551 C 270.172 215.304,270.242 214.854,270.126 214.551 C 270.010 214.248,270.098 214.000,270.322 214.000 C 270.546 214.000,270.689 214.272,270.641 214.604 M26.794 215.500 C 26.789 216.301,26.691 216.447,26.431 216.036 C 26.235 215.726,26.167 215.231,26.280 214.936 C 26.604 214.090,26.801 214.306,26.794 215.500 M373.720 214.936 C 373.833 215.231,373.765 215.726,373.569 216.036 C 373.309 216.447,373.211 216.301,373.206 215.500 C 373.199 214.306,373.396 214.090,373.720 214.936 M113.749 219.283 C 113.641 219.457,113.752 219.600,113.995 219.600 C 114.672 219.600,116.444 221.525,116.012 221.792 C 115.803 221.922,114.869 221.310,113.938 220.433 C 112.540 219.116,112.393 218.849,113.095 218.902 C 113.562 218.937,113.856 219.109,113.749 219.283 M128.114 233.600 C 128.718 233.600,132.772 237.970,132.388 238.208 C 132.007 238.443,130.800 237.524,130.800 237.000 C 130.800 236.711,129.753 235.600,129.481 235.600 C 129.094 235.600,117.901 224.581,117.120 223.431 C 116.660 222.754,118.877 224.765,122.047 227.900 C 125.216 231.035,127.947 233.600,128.114 233.600 M29.533 229.705 C 29.460 229.800,29.647 230.175,29.949 230.539 C 30.251 230.902,30.364 231.200,30.200 231.200 C 30.036 231.200,30.101 231.440,30.345 231.733 C 30.680 232.138,30.641 232.267,30.180 232.267 C 29.846 232.267,29.599 231.982,29.632 231.633 C 29.665 231.285,29.658 230.910,29.615 230.800 C 29.399 230.235,29.287 229.154,29.463 229.330 C 29.575 229.442,29.607 229.611,29.533 229.705 M291.698 232.666 C 291.421 232.777,291.316 233.064,291.463 233.302 C 291.636 233.582,291.484 233.641,291.033 233.468 C 290.649 233.321,290.214 233.187,290.067 233.172 C 289.680 233.131,291.324 232.456,291.800 232.460 C 292.020 232.462,291.974 232.554,291.698 232.666 M397.313 234.128 C 397.147 234.387,397.009 234.720,397.006 234.867 C 397.003 235.013,396.879 235.255,396.730 235.403 C 396.502 235.631,396.563 234.651,396.817 234.000 C 396.860 233.890,396.869 233.652,396.837 233.470 C 396.806 233.289,396.968 233.256,397.197 233.398 C 397.426 233.539,397.478 233.868,397.313 234.128 M144.721 250.500 C 144.801 250.665,145.036 250.800,145.244 250.800 C 145.777 250.800,148.990 254.077,149.333 254.970 C 149.587 255.632,149.541 255.652,148.911 255.157 C 147.634 254.152,147.200 253.663,147.200 253.229 C 147.200 252.993,147.051 252.800,146.869 252.800 C 146.370 252.800,135.291 242.060,134.325 240.639 C 133.862 239.957,135.979 241.830,139.029 244.800 C 142.080 247.770,144.641 250.335,144.721 250.500 M224.868 243.399 C 224.977 243.289,225.067 243.476,225.067 243.814 C 225.067 244.230,224.637 244.011,223.733 243.135 C 223.000 242.425,222.400 241.666,222.400 241.449 C 222.400 241.233,222.911 241.628,223.535 242.327 C 224.159 243.026,224.759 243.508,224.868 243.399 M282.000 244.138 C 282.000 244.214,281.670 244.575,281.267 244.940 C 280.660 245.489,280.533 245.502,280.533 245.019 C 280.533 244.698,280.683 244.528,280.867 244.641 C 281.050 244.755,281.200 244.657,281.200 244.424 C 281.200 244.191,281.380 244.000,281.600 244.000 C 281.820 244.000,282.000 244.062,282.000 244.138 M270.451 250.677 C 270.824 251.137,270.840 251.257,270.500 251.053 C 270.225 250.888,270.000 250.943,270.000 251.176 C 270.000 251.409,269.798 251.600,269.551 251.600 C 269.221 251.600,269.220 251.458,269.548 251.063 C 269.793 250.768,269.875 250.408,269.730 250.263 C 269.585 250.118,269.565 250.000,269.684 250.000 C 269.804 250.000,270.149 250.305,270.451 250.677 M254.500 254.682 C 254.005 254.778,253.195 254.778,252.700 254.682 C 252.205 254.587,252.610 254.509,253.600 254.509 C 254.590 254.509,254.995 254.587,254.500 254.682 M161.714 267.200 C 162.318 267.200,166.371 271.570,165.988 271.808 C 165.537 272.086,164.400 271.082,164.400 270.405 C 164.400 270.156,164.220 270.064,164.000 270.200 C 163.780 270.336,163.600 270.167,163.600 269.824 C 163.600 269.481,163.440 269.200,163.245 269.200 C 162.715 269.200,150.800 257.575,150.800 257.058 C 150.800 256.812,153.187 258.994,156.105 261.906 C 159.023 264.818,161.547 267.200,161.714 267.200 M17.351 266.674 C 17.635 266.565,17.866 266.891,17.914 267.467 C 17.961 268.039,17.827 268.340,17.591 268.194 C 17.369 268.057,17.279 267.796,17.391 267.614 C 17.504 267.433,17.326 267.181,16.998 267.054 C 16.669 266.928,16.421 266.504,16.446 266.113 C 16.490 265.447,16.505 265.448,16.681 266.129 C 16.785 266.531,17.087 266.776,17.351 266.674 M51.038 266.858 C 51.796 267.712,51.795 267.714,50.900 267.244 C 50.405 266.984,50.000 266.598,50.000 266.386 C 50.000 265.818,50.191 265.905,51.038 266.858 M178.114 283.600 C 178.718 283.600,182.771 287.970,182.388 288.208 C 182.007 288.443,180.800 287.524,180.800 287.000 C 180.800 286.707,179.752 285.600,179.474 285.600 C 179.059 285.600,167.200 273.868,167.200 273.458 C 167.200 273.212,169.587 275.394,172.505 278.306 C 175.423 281.218,177.947 283.600,178.114 283.600 M59.132 275.401 C 59.009 275.524,58.592 275.124,58.206 274.512 L 57.504 273.400 58.430 274.289 C 58.939 274.778,59.255 275.278,59.132 275.401 M342.267 274.182 C 342.267 274.503,342.149 274.692,342.006 274.604 C 341.863 274.515,341.493 274.793,341.185 275.221 C 340.876 275.650,340.449 276.000,340.237 276.000 C 340.024 276.000,340.368 275.460,341.000 274.800 C 342.340 273.402,342.267 273.437,342.267 274.182 M208.800 276.559 C 208.800 276.789,208.518 276.575,208.173 276.082 C 207.828 275.590,207.408 275.272,207.239 275.376 C 207.071 275.480,206.933 275.300,206.933 274.975 C 206.933 274.538,207.174 274.612,207.867 275.263 C 208.380 275.745,208.800 276.328,208.800 276.559 M68.794 282.949 C 68.790 283.213,68.645 283.174,68.442 282.855 C 68.151 282.394,68.065 282.394,67.889 282.855 C 67.775 283.155,67.701 283.004,67.724 282.520 C 67.770 281.591,68.807 282.007,68.794 282.949 M332.297 282.495 C 332.350 283.198,332.284 283.263,331.988 282.795 C 331.677 282.302,331.611 282.297,331.606 282.767 C 331.603 283.078,331.484 283.218,331.343 283.076 C 331.202 282.935,331.314 282.545,331.592 282.210 C 332.233 281.438,332.217 281.432,332.297 282.495 M30.601 284.402 C 31.064 285.150,30.125 284.802,29.362 283.942 C 28.605 283.090,28.606 283.087,29.478 283.544 C 29.960 283.797,30.466 284.183,30.601 284.402 M77.200 288.038 C 77.200 288.263,77.380 288.336,77.600 288.200 C 77.820 288.064,78.000 288.143,78.000 288.376 C 78.000 289.070,77.462 288.852,76.400 287.728 C 75.449 286.723,75.444 286.694,76.300 287.149 C 76.795 287.413,77.200 287.812,77.200 288.038 M323.542 287.793 C 322.513 288.878,322.000 289.058,322.000 288.333 C 322.000 288.077,322.105 287.972,322.233 288.100 C 322.362 288.228,322.812 287.988,323.233 287.567 C 324.367 286.433,324.641 286.635,323.542 287.793 M187.715 293.351 C 187.799 293.268,187.867 293.476,187.867 293.814 C 187.867 294.539,185.579 292.465,184.321 290.600 C 183.821 289.858,184.286 290.183,185.538 291.451 C 186.652 292.580,187.632 293.435,187.715 293.351 M84.834 291.779 C 85.035 291.655,85.200 291.743,85.200 291.976 C 85.200 292.209,84.930 292.400,84.600 292.400 C 84.270 292.400,84.014 292.085,84.032 291.700 C 84.051 291.278,84.144 291.199,84.266 291.502 C 84.377 291.779,84.633 291.903,84.834 291.779 M42.400 296.466 C 42.400 296.676,42.625 296.718,42.900 296.559 C 43.175 296.401,43.267 296.419,43.103 296.599 C 42.940 296.779,43.024 297.213,43.288 297.563 C 43.553 297.913,43.191 297.671,42.485 297.025 C 41.043 295.707,40.936 295.524,41.800 295.855 C 42.130 295.982,42.400 296.257,42.400 296.466 M167.935 299.722 C 169.023 300.854,169.191 302.524,168.107 301.440 C 167.975 301.308,168.056 301.200,168.287 301.200 C 168.519 301.200,168.131 300.570,167.426 299.800 C 166.720 299.030,165.931 298.400,165.672 298.400 C 165.412 298.400,165.200 298.214,165.200 297.986 C 165.200 297.362,166.393 298.119,167.935 299.722 M193.600 298.824 C 193.600 299.057,193.750 299.155,193.933 299.041 C 194.117 298.928,194.267 299.097,194.267 299.418 C 194.267 300.156,194.265 300.156,193.400 299.200 C 192.989 298.746,192.876 298.400,193.138 298.400 C 193.392 298.400,193.600 298.591,193.600 298.824 M353.219 300.542 L 352.345 301.400 353.072 300.109 C 353.473 299.399,353.866 299.013,353.947 299.251 C 354.028 299.489,353.701 300.070,353.219 300.542 M115.200 300.000 C 115.200 300.506,114.383 300.506,113.600 300.000 C 113.132 299.698,113.243 299.611,114.100 299.606 C 114.705 299.603,115.200 299.780,115.200 300.000 M138.200 300.000 C 138.064 300.220,137.693 300.400,137.376 300.400 C 137.059 300.400,136.800 300.220,136.800 300.000 C 136.800 299.780,137.171 299.600,137.624 299.600 C 138.077 299.600,138.336 299.780,138.200 300.000 M263.600 300.000 C 263.600 300.501,263.176 300.501,262.400 300.000 C 261.915 299.686,261.972 299.611,262.700 299.606 C 263.195 299.603,263.600 299.780,263.600 300.000 M285.800 300.000 C 285.664 300.220,285.293 300.400,284.976 300.400 C 284.659 300.400,284.400 300.220,284.400 300.000 C 284.400 299.780,284.771 299.600,285.224 299.600 C 285.677 299.600,285.936 299.780,285.800 300.000 M122.179 300.381 C 121.948 300.612,121.009 300.630,119.799 300.428 L 117.800 300.094 120.180 300.047 C 121.688 300.017,122.420 300.140,122.179 300.381 M131.614 300.438 C 130.491 300.658,129.681 300.641,129.434 300.394 C 129.175 300.135,129.789 300.015,131.220 300.044 L 133.400 300.088 131.614 300.438 M280.689 300.245 C 280.393 300.540,267.572 300.505,267.275 300.208 C 267.160 300.094,270.187 300.000,274.000 300.000 C 277.813 300.000,280.823 300.110,280.689 300.245 M128.138 300.700 C 128.240 300.865,127.188 301.000,125.800 301.000 C 124.412 301.000,123.360 300.865,123.462 300.700 C 123.564 300.535,124.616 300.400,125.800 300.400 C 126.984 300.400,128.036 300.535,128.138 300.700 M351.642 301.145 C 351.845 300.826,351.990 300.787,351.994 301.051 C 352.007 301.993,350.970 302.409,350.924 301.480 C 350.901 300.996,350.975 300.845,351.089 301.145 C 351.265 301.606,351.351 301.606,351.642 301.145 M171.972 311.500 C 171.987 311.775,171.865 312.000,171.700 311.999 C 171.535 311.999,171.370 311.414,171.333 310.699 C 171.278 309.657,171.332 309.559,171.604 310.200 C 171.791 310.640,171.956 311.225,171.972 311.500 M65.018 311.971 C 64.892 312.175,65.165 312.462,65.624 312.608 C 66.084 312.754,66.372 312.961,66.264 313.069 C 65.978 313.355,64.400 312.439,64.400 311.986 C 64.400 311.774,64.591 311.600,64.824 311.600 C 65.057 311.600,65.144 311.767,65.018 311.971 M77.249 317.870 C 76.998 318.302,76.819 318.386,76.812 318.076 C 76.805 317.788,76.575 317.667,76.300 317.806 C 76.025 317.945,76.147 317.778,76.571 317.434 C 77.507 316.674,77.825 316.879,77.249 317.870 M166.618 320.371 C 166.473 320.605,165.960 320.987,165.478 321.220 C 164.686 321.603,164.668 321.589,165.294 321.083 C 165.675 320.774,165.855 320.375,165.694 320.196 C 165.532 320.018,165.625 320.001,165.900 320.159 C 166.185 320.323,166.400 320.236,166.400 319.957 C 166.400 319.687,166.508 319.575,166.640 319.707 C 166.772 319.839,166.762 320.138,166.618 320.371 M99.967 325.087 C 100.058 325.149,99.743 325.200,99.267 325.200 C 98.734 325.200,98.400 324.950,98.400 324.551 C 98.400 323.996,98.501 323.979,99.100 324.438 C 99.485 324.733,99.875 325.025,99.967 325.087 M153.200 324.600 C 153.200 324.951,152.836 325.200,152.324 325.200 C 151.467 325.200,151.465 325.187,152.224 324.613 C 153.197 323.876,153.200 323.876,153.200 324.600 M248.201 324.497 C 248.381 324.333,248.399 324.425,248.241 324.700 C 247.825 325.421,246.800 325.315,246.800 324.551 C 246.800 324.053,246.925 324.006,247.337 324.348 C 247.632 324.593,248.021 324.660,248.201 324.497 M301.600 324.600 C 301.600 324.951,301.236 325.200,300.724 325.200 C 299.867 325.200,299.865 325.187,300.624 324.613 C 301.597 323.876,301.600 323.876,301.600 324.600 M252.444 325.373 C 252.748 325.185,252.819 325.246,252.638 325.538 C 252.222 326.212,251.325 326.103,251.034 325.343 C 250.826 324.802,250.886 324.773,251.373 325.178 C 251.699 325.448,252.181 325.536,252.444 325.373 M297.345 325.400 C 297.084 326.079,296.171 326.200,295.803 325.605 C 295.666 325.384,295.815 325.307,296.139 325.432 C 296.458 325.554,296.838 325.462,296.983 325.227 C 297.373 324.596,297.610 324.709,297.345 325.400 M109.200 326.514 C 109.552 326.645,109.363 326.750,108.743 326.768 C 108.142 326.786,107.585 326.537,107.452 326.191 C 107.271 325.720,107.375 325.662,107.909 325.937 C 108.289 326.132,108.870 326.392,109.200 326.514 M292.545 326.200 C 292.417 326.532,291.841 326.792,291.257 326.782 L 290.200 326.764 291.400 326.214 C 292.060 325.912,292.639 325.650,292.687 325.632 C 292.736 325.615,292.671 325.870,292.545 326.200 M144.000 326.400 C 144.000 326.620,143.505 326.787,142.900 326.772 C 141.925 326.747,141.891 326.705,142.600 326.400 C 143.693 325.931,144.000 325.931,144.000 326.400 M257.400 326.400 C 258.109 326.705,258.075 326.747,257.100 326.772 C 256.495 326.787,256.000 326.620,256.000 326.400 C 256.000 325.931,256.307 325.931,257.400 326.400 M116.213 326.779 C 116.081 326.993,116.897 327.222,118.090 327.305 C 120.080 327.444,120.046 327.456,117.500 327.526 C 115.007 327.594,113.857 327.105,115.500 326.676 C 115.885 326.575,116.256 326.472,116.324 326.446 C 116.392 326.421,116.342 326.570,116.213 326.779 M137.467 327.000 C 137.467 327.482,136.910 327.589,134.633 327.545 L 131.800 327.491 134.306 327.206 C 135.685 327.049,136.930 326.803,137.073 326.660 C 137.437 326.296,137.467 326.322,137.467 327.000 M267.800 327.400 C 268.020 327.475,266.974 327.551,265.476 327.568 C 263.978 327.586,262.848 327.446,262.964 327.258 C 263.154 326.951,266.799 327.058,267.800 327.400 M285.400 327.200 C 285.558 327.455,284.587 327.576,282.724 327.533 L 279.800 327.466 282.200 327.200 C 283.520 327.054,284.724 326.904,284.876 326.867 C 285.028 326.830,285.264 326.980,285.400 327.200 M130.600 327.600 C 130.744 327.832,130.376 327.988,129.724 327.972 C 128.651 327.945,128.772 327.782,130.276 327.228 C 130.318 327.213,130.464 327.380,130.600 327.600 M271.200 327.847 C 271.200 327.931,270.739 328.000,270.176 328.000 C 269.613 328.000,269.254 327.837,269.377 327.638 C 269.582 327.306,271.200 327.492,271.200 327.847 " stroke="none" fill="#246cb4" fill-rule="evenodd"></path><path id="path1" d="M121.600 72.345 C 121.600 72.534,122.050 72.603,122.600 72.498 C 123.150 72.393,123.600 72.238,123.600 72.153 C 123.600 72.069,123.150 72.000,122.600 72.000 C 122.050 72.000,121.600 72.155,121.600 72.345 M128.800 72.153 C 128.800 72.508,130.418 72.694,130.623 72.362 C 130.746 72.163,130.387 72.000,129.824 72.000 C 129.261 72.000,128.800 72.069,128.800 72.153 M267.600 72.345 C 267.600 72.534,268.050 72.603,268.600 72.498 C 269.150 72.393,269.600 72.238,269.600 72.153 C 269.600 72.069,269.150 72.000,268.600 72.000 C 268.050 72.000,267.600 72.155,267.600 72.345 M278.800 72.153 C 278.800 72.508,280.418 72.694,280.623 72.362 C 280.746 72.163,280.387 72.000,279.824 72.000 C 279.261 72.000,278.800 72.069,278.800 72.153 M114.220 72.753 C 114.429 72.948,115.859 72.974,117.400 72.810 L 120.200 72.514 117.020 72.457 C 115.162 72.424,113.998 72.547,114.220 72.753 M134.200 72.794 C 135.520 72.946,136.771 72.920,136.980 72.735 C 137.189 72.551,136.109 72.426,134.580 72.459 L 131.800 72.518 134.200 72.794 M261.733 72.982 C 261.733 73.303,261.892 73.467,262.087 73.346 C 262.281 73.226,263.286 72.985,264.320 72.811 L 266.200 72.494 263.967 72.447 C 262.257 72.411,261.733 72.536,261.733 72.982 M283.860 72.801 C 284.992 72.967,286.087 73.207,286.293 73.334 C 286.498 73.461,286.667 73.303,286.667 72.982 C 286.667 72.531,286.120 72.411,284.233 72.450 L 281.800 72.500 283.860 72.801 M107.452 73.809 C 107.271 74.280,107.375 74.338,107.909 74.063 C 108.289 73.868,108.870 73.608,109.200 73.486 C 109.552 73.355,109.363 73.250,108.743 73.232 C 108.142 73.214,107.585 73.463,107.452 73.809 M142.600 73.600 C 143.693 74.069,144.000 74.069,144.000 73.600 C 144.000 73.380,143.505 73.213,142.900 73.228 C 141.925 73.253,141.891 73.295,142.600 73.600 M255.200 73.600 C 255.200 74.069,255.507 74.069,256.600 73.600 C 257.309 73.295,257.275 73.253,256.300 73.228 C 255.695 73.213,255.200 73.380,255.200 73.600 M291.800 73.600 C 292.893 74.069,293.200 74.069,293.200 73.600 C 293.200 73.380,292.705 73.213,292.100 73.228 C 291.125 73.253,291.091 73.295,291.800 73.600 M102.634 74.657 C 102.426 75.198,102.486 75.227,102.973 74.822 C 103.299 74.552,103.781 74.464,104.044 74.627 C 104.348 74.815,104.419 74.754,104.238 74.462 C 103.822 73.788,102.925 73.897,102.634 74.657 M147.362 74.462 C 147.181 74.754,147.252 74.815,147.556 74.627 C 147.819 74.464,148.301 74.552,148.627 74.822 C 149.114 75.227,149.174 75.198,148.966 74.657 C 148.675 73.897,147.778 73.788,147.362 74.462 M250.400 74.358 C 250.400 74.554,250.833 74.689,251.362 74.658 C 251.891 74.626,252.240 74.465,252.138 74.300 C 251.877 73.876,250.400 73.925,250.400 74.358 M296.262 74.300 C 296.160 74.465,296.509 74.626,297.038 74.658 C 297.567 74.689,298.000 74.554,298.000 74.358 C 298.000 73.925,296.523 73.876,296.262 74.300 M98.400 75.449 C 98.400 76.004,98.501 76.021,99.100 75.562 C 99.485 75.267,99.875 74.975,99.967 74.913 C 100.058 74.851,99.743 74.800,99.267 74.800 C 98.734 74.800,98.400 75.050,98.400 75.449 M151.759 75.300 C 151.601 75.575,151.619 75.667,151.799 75.503 C 151.979 75.340,152.368 75.407,152.663 75.652 C 153.075 75.994,153.200 75.947,153.200 75.449 C 153.200 74.685,152.175 74.579,151.759 75.300 M246.177 75.162 C 246.300 75.362,246.761 75.431,247.200 75.316 C 248.301 75.028,248.202 74.800,246.976 74.800 C 246.413 74.800,246.054 74.963,246.177 75.162 M231.583 81.048 C 230.602 82.064,230.181 82.701,230.647 82.462 C 231.113 82.223,231.608 82.112,231.747 82.214 C 231.886 82.316,231.911 82.281,231.802 82.135 C 231.693 81.990,232.062 81.270,232.622 80.535 C 234.022 78.700,233.692 78.863,231.583 81.048 M63.500 88.032 C 62.706 88.495,62.565 89.200,63.267 89.200 C 63.523 89.200,63.616 89.083,63.473 88.940 C 63.330 88.796,63.525 88.442,63.906 88.152 C 64.730 87.527,64.489 87.456,63.500 88.032 M52.744 94.766 C 52.225 95.187,51.890 95.601,52.000 95.687 C 52.110 95.773,52.634 95.429,53.163 94.922 C 54.330 93.806,54.055 93.703,52.744 94.766 M200.130 96.722 C 200.104 97.402,200.162 97.520,200.285 97.042 C 200.443 96.433,200.550 96.393,200.834 96.842 C 201.035 97.160,201.190 97.206,201.194 96.949 C 201.209 95.865,200.171 95.643,200.130 96.722 M49.192 97.410 C 48.914 97.745,48.802 98.135,48.943 98.276 C 49.084 98.418,49.203 98.278,49.206 97.967 C 49.211 97.497,49.277 97.502,49.588 97.995 C 49.884 98.463,49.950 98.398,49.897 97.695 C 49.817 96.632,49.833 96.638,49.192 97.410 M126.000 99.200 L 122.200 99.447 125.876 99.523 C 127.983 99.567,129.658 99.429,129.800 99.200 C 129.936 98.980,129.992 98.834,129.924 98.877 C 129.856 98.919,128.090 99.064,126.000 99.200 M268.751 99.312 C 268.924 99.484,271.390 99.574,274.232 99.511 L 279.400 99.397 273.919 99.198 C 270.904 99.089,268.579 99.141,268.751 99.312 M119.000 99.600 L 117.400 99.886 119.300 99.943 C 120.345 99.974,121.200 99.820,121.200 99.600 C 121.200 99.380,121.065 99.226,120.900 99.257 C 120.735 99.288,119.880 99.442,119.000 99.600 M130.800 99.595 C 130.800 99.818,131.640 100.000,132.667 100.000 C 134.888 100.000,134.830 99.808,132.500 99.451 C 131.449 99.290,130.800 99.345,130.800 99.595 M266.000 99.600 C 265.053 99.903,265.068 99.922,266.300 99.960 C 267.015 99.982,267.600 99.820,267.600 99.600 C 267.600 99.148,267.412 99.148,266.000 99.600 M280.184 99.626 C 280.053 99.838,280.774 100.000,281.843 100.000 C 284.022 100.000,284.045 99.813,281.907 99.483 C 281.086 99.356,280.311 99.421,280.184 99.626 M45.398 100.402 C 44.998 100.844,44.766 101.299,44.882 101.415 C 44.997 101.530,45.390 101.169,45.755 100.612 C 46.552 99.396,46.393 99.302,45.398 100.402 M136.800 100.000 C 136.800 100.220,137.171 100.400,137.624 100.400 C 138.077 100.400,138.336 100.220,138.200 100.000 C 138.064 99.780,137.693 99.600,137.376 99.600 C 137.059 99.600,136.800 99.780,136.800 100.000 M286.000 100.000 C 286.000 100.220,286.405 100.397,286.900 100.394 C 287.628 100.389,287.685 100.314,287.200 100.000 C 286.424 99.499,286.000 99.499,286.000 100.000 M43.227 102.171 C 42.725 102.706,42.379 103.311,42.457 103.517 C 42.536 103.723,42.997 103.286,43.482 102.546 C 44.527 100.949,44.463 100.855,43.227 102.171 M207.725 102.514 C 207.701 103.001,207.771 103.165,207.881 102.879 C 208.030 102.491,208.220 102.542,208.628 103.079 C 208.928 103.475,209.180 103.603,209.187 103.362 C 209.216 102.382,207.772 101.545,207.725 102.514 M356.131 102.706 C 356.108 103.308,356.170 103.495,356.270 103.122 C 356.419 102.562,356.654 102.667,357.613 103.722 C 358.253 104.425,358.782 104.810,358.788 104.578 C 358.795 104.347,358.209 103.584,357.487 102.884 L 356.174 101.611 356.131 102.706 M39.201 105.798 C 38.686 106.348,38.365 106.898,38.488 107.021 C 38.612 107.145,39.105 106.696,39.584 106.023 C 40.638 104.542,40.473 104.445,39.201 105.798 M212.302 106.200 C 212.759 106.860,213.897 108.120,214.831 109.000 C 216.285 110.370,216.410 110.427,215.698 109.400 C 215.241 108.740,214.103 107.480,213.169 106.600 C 211.715 105.230,211.590 105.173,212.302 106.200 M87.521 106.540 C 87.641 107.002,87.814 107.158,87.904 106.887 C 87.995 106.616,88.233 106.497,88.434 106.621 C 88.635 106.745,88.800 106.678,88.800 106.470 C 88.800 106.263,88.463 106.005,88.051 105.897 C 87.452 105.741,87.345 105.870,87.521 106.540 M311.900 105.876 C 311.515 105.976,311.200 106.236,311.200 106.453 C 311.200 106.670,311.365 106.745,311.566 106.621 C 311.767 106.497,312.005 106.616,312.096 106.887 C 312.186 107.158,312.364 106.979,312.492 106.490 C 312.620 106.000,312.697 105.621,312.663 105.646 C 312.628 105.672,312.285 105.775,311.900 105.876 M80.300 109.625 C 78.595 110.497,77.214 111.433,77.232 111.705 C 77.256 112.091,77.308 112.089,77.466 111.698 C 77.577 111.421,77.833 111.297,78.034 111.421 C 78.235 111.545,78.400 111.446,78.400 111.200 C 78.400 110.954,78.580 110.864,78.800 111.000 C 79.020 111.136,79.200 111.046,79.200 110.800 C 79.200 110.554,79.380 110.464,79.600 110.600 C 79.820 110.736,80.000 110.646,80.000 110.400 C 80.000 110.154,80.180 110.064,80.400 110.200 C 80.620 110.336,80.800 110.246,80.800 110.000 C 80.800 109.754,80.980 109.664,81.200 109.800 C 81.420 109.936,81.600 109.846,81.600 109.600 C 81.600 109.354,81.780 109.264,82.000 109.400 C 82.220 109.536,82.400 109.446,82.400 109.200 C 82.400 108.954,82.580 108.864,82.800 109.000 C 83.020 109.136,83.200 109.046,83.200 108.800 C 83.200 108.554,83.380 108.464,83.600 108.600 C 83.820 108.736,84.000 108.657,84.000 108.424 C 84.000 107.793,83.682 107.896,80.300 109.625 M316.000 108.424 C 316.000 108.657,316.180 108.736,316.400 108.600 C 316.620 108.464,316.800 108.554,316.800 108.800 C 316.800 109.046,316.980 109.136,317.200 109.000 C 317.420 108.864,317.600 108.954,317.600 109.200 C 317.600 109.446,317.780 109.536,318.000 109.400 C 318.220 109.264,318.400 109.354,318.400 109.600 C 318.400 109.846,318.580 109.936,318.800 109.800 C 319.020 109.664,319.200 109.754,319.200 110.000 C 319.200 110.246,319.380 110.336,319.600 110.200 C 319.820 110.064,320.000 110.154,320.000 110.400 C 320.000 110.646,320.180 110.736,320.400 110.600 C 320.620 110.464,320.800 110.554,320.800 110.800 C 320.800 111.046,320.965 111.145,321.166 111.021 C 321.367 110.897,321.623 111.021,321.734 111.298 C 321.892 111.689,321.944 111.690,321.968 111.305 C 321.986 111.033,320.744 110.178,319.210 109.405 C 316.130 107.854,316.000 107.814,316.000 108.424 M363.437 109.000 C 363.797 109.550,364.283 110.000,364.516 110.000 C 364.749 110.000,364.517 109.550,364.000 109.000 C 363.483 108.450,362.998 108.000,362.921 108.000 C 362.844 108.000,363.076 108.450,363.437 109.000 M217.496 111.838 C 217.239 112.094,221.383 116.400,221.886 116.400 C 222.053 116.400,224.577 118.782,227.495 121.694 C 230.413 124.606,232.800 126.788,232.800 126.542 C 232.800 126.132,220.941 114.400,220.526 114.400 C 220.248 114.400,219.200 113.293,219.200 113.000 C 219.200 112.320,217.900 111.433,217.496 111.838 M369.004 116.007 C 369.142 116.230,369.410 116.317,369.600 116.200 C 369.790 116.083,370.058 116.170,370.196 116.393 C 370.334 116.617,370.639 116.800,370.873 116.800 C 371.141 116.800,371.114 116.578,370.800 116.200 C 370.249 115.536,368.604 115.359,369.004 116.007 M186.832 119.851 C 186.814 120.099,187.032 120.495,187.316 120.731 C 187.710 121.057,187.849 120.951,187.899 120.285 C 187.945 119.666,187.867 119.568,187.631 119.950 C 187.351 120.403,187.262 120.402,187.080 119.945 C 186.961 119.645,186.849 119.603,186.832 119.851 M335.776 120.038 C 335.627 120.279,335.767 120.738,336.086 121.057 C 336.594 121.565,336.667 121.562,336.667 121.037 C 336.667 120.706,336.486 120.547,336.265 120.683 C 336.026 120.831,335.967 120.662,336.119 120.266 C 336.407 119.516,336.189 119.371,335.776 120.038 M62.652 121.408 C 62.517 121.762,62.254 121.957,62.069 121.843 C 61.885 121.729,61.733 121.907,61.733 122.240 C 61.733 122.711,61.912 122.666,62.544 122.033 C 62.991 121.587,63.253 121.119,63.127 120.994 C 63.002 120.868,62.788 121.055,62.652 121.408 M340.000 123.938 C 340.000 124.124,340.388 124.619,340.862 125.038 L 341.724 125.800 341.016 124.700 C 340.286 123.566,340.000 123.351,340.000 123.938 M54.614 128.437 C 52.861 130.155,51.521 131.654,51.635 131.769 C 51.749 131.883,53.263 130.547,55.000 128.800 C 56.737 127.053,58.077 125.554,57.979 125.469 C 57.880 125.384,56.366 126.720,54.614 128.437 M194.000 125.743 C 194.000 126.096,263.016 195.155,265.000 196.787 C 265.660 197.330,263.899 195.431,261.086 192.568 C 258.274 189.704,256.114 187.220,256.286 187.047 C 256.459 186.875,256.330 186.793,256.000 186.867 C 255.670 186.940,255.445 186.775,255.500 186.500 C 255.555 186.225,255.375 186.045,255.100 186.100 C 254.825 186.155,254.645 185.975,254.700 185.700 C 254.755 185.425,254.575 185.245,254.300 185.300 C 254.025 185.355,253.860 185.130,253.933 184.800 C 254.007 184.470,253.929 184.338,253.761 184.506 C 253.381 184.886,239.560 171.189,239.850 170.720 C 239.965 170.533,239.821 170.430,239.530 170.490 C 239.238 170.551,239.045 170.375,239.100 170.100 C 239.155 169.825,238.975 169.645,238.700 169.700 C 238.425 169.755,238.245 169.575,238.300 169.300 C 238.355 169.025,238.175 168.845,237.900 168.900 C 237.625 168.955,237.460 168.730,237.533 168.400 C 237.607 168.070,237.525 167.942,237.352 168.115 C 236.969 168.498,223.159 154.790,223.452 154.316 C 223.566 154.131,223.421 154.030,223.130 154.090 C 222.838 154.151,222.645 153.975,222.700 153.700 C 222.755 153.425,222.575 153.245,222.300 153.300 C 222.025 153.355,221.845 153.175,221.900 152.900 C 221.955 152.625,221.775 152.445,221.500 152.500 C 221.225 152.555,221.060 152.330,221.133 152.000 C 221.207 151.670,221.128 151.538,220.959 151.707 C 220.579 152.087,205.960 137.588,206.250 137.119 C 206.365 136.932,206.221 136.830,205.930 136.890 C 205.638 136.951,205.445 136.775,205.500 136.500 C 205.555 136.225,205.375 136.045,205.100 136.100 C 204.825 136.155,204.645 135.975,204.700 135.700 C 204.755 135.425,204.575 135.245,204.300 135.300 C 204.025 135.355,203.849 135.162,203.910 134.870 C 203.970 134.579,203.852 134.444,203.646 134.571 C 203.441 134.698,202.835 134.307,202.300 133.701 C 200.426 131.581,194.000 125.420,194.000 125.743 M345.099 128.887 C 346.471 130.259,346.881 130.478,347.293 130.058 C 347.609 129.737,347.630 129.591,347.350 129.671 C 347.103 129.742,346.253 129.215,345.461 128.500 C 343.378 126.619,343.114 126.902,345.099 128.887 M233.896 128.238 C 233.639 128.494,237.783 132.800,238.286 132.800 C 238.453 132.800,240.977 135.182,243.895 138.094 C 246.813 141.006,249.200 143.188,249.200 142.942 C 249.200 142.425,237.285 130.800,236.755 130.800 C 236.560 130.800,236.400 130.519,236.400 130.176 C 236.400 129.833,236.220 129.664,236.000 129.800 C 235.780 129.936,235.600 129.844,235.600 129.595 C 235.600 128.759,234.361 127.772,233.896 128.238 M349.400 133.600 C 349.798 134.040,350.304 134.400,350.524 134.400 C 350.744 134.400,350.598 134.040,350.200 133.600 C 349.802 133.160,349.296 132.800,349.076 132.800 C 348.856 132.800,349.002 133.160,349.400 133.600 M49.200 134.200 C 48.922 134.535,48.879 134.800,49.102 134.800 C 49.322 134.800,49.726 134.530,50.000 134.200 C 50.278 133.865,50.321 133.600,50.098 133.600 C 49.878 133.600,49.474 133.870,49.200 134.200 M250.667 145.030 C 251.010 145.923,254.223 149.200,254.756 149.200 C 254.964 149.200,255.199 149.335,255.279 149.500 C 255.359 149.665,257.920 152.230,260.971 155.200 C 264.021 158.170,266.138 160.043,265.675 159.361 C 264.709 157.940,253.630 147.200,253.131 147.200 C 252.949 147.200,252.800 147.007,252.800 146.771 C 252.800 146.337,252.366 145.848,251.089 144.843 C 250.459 144.348,250.413 144.368,250.667 145.030 M130.000 148.824 C 130.000 149.057,129.820 149.136,129.600 149.000 C 128.928 148.585,129.155 149.068,129.900 149.638 C 130.285 149.933,130.467 150.016,130.303 149.824 C 130.140 149.631,130.207 149.232,130.452 148.937 C 130.780 148.542,130.779 148.400,130.449 148.400 C 130.202 148.400,130.000 148.591,130.000 148.824 M118.600 155.200 C 118.189 155.654,118.076 156.000,118.338 156.000 C 118.592 156.000,118.800 155.809,118.800 155.576 C 118.800 155.343,118.950 155.245,119.133 155.359 C 119.317 155.472,119.467 155.303,119.467 154.982 C 119.467 154.244,119.465 154.244,118.600 155.200 M176.400 157.289 C 176.400 157.662,242.440 223.693,242.626 223.507 C 242.704 223.429,227.835 208.434,209.584 190.184 C 191.333 171.934,176.400 157.131,176.400 157.289 M111.362 162.462 L 110.600 163.324 111.700 162.616 C 112.834 161.886,113.049 161.600,112.462 161.600 C 112.276 161.600,111.781 161.988,111.362 162.462 M267.496 161.838 C 267.239 162.094,271.383 166.400,271.886 166.400 C 272.053 166.400,274.577 168.782,277.495 171.694 C 280.413 174.606,282.800 176.788,282.800 176.542 C 282.800 176.132,270.941 164.400,270.526 164.400 C 270.248 164.400,269.200 163.293,269.200 163.000 C 269.200 162.320,267.900 161.433,267.496 161.838 M396.599 165.063 C 396.676 165.469,396.774 165.890,396.817 166.000 C 396.860 166.110,396.869 166.348,396.837 166.530 C 396.806 166.711,396.973 166.740,397.210 166.594 C 397.506 166.411,397.478 166.135,397.119 165.703 C 396.834 165.359,396.660 165.000,396.733 164.905 C 396.807 164.811,396.775 164.642,396.663 164.530 C 396.552 164.418,396.523 164.658,396.599 165.063 M283.891 178.242 C 283.588 178.546,285.405 180.400,286.005 180.400 C 286.248 180.400,286.359 180.543,286.251 180.717 C 286.144 180.891,286.438 181.063,286.905 181.098 C 287.609 181.151,287.466 180.889,286.077 179.581 C 284.279 177.888,284.258 177.875,283.891 178.242 M26.242 183.834 C 26.108 184.183,26.174 184.768,26.387 185.134 C 26.696 185.664,26.778 185.534,26.788 184.500 C 26.801 183.077,26.618 182.854,26.242 183.834 M373.232 183.900 C 373.196 184.927,373.796 185.109,374.153 184.179 C 374.284 183.838,374.228 183.659,374.030 183.782 C 373.831 183.905,373.577 183.779,373.466 183.502 C 373.354 183.226,373.249 183.405,373.232 183.900 M102.156 184.971 C 101.815 185.859,102.145 187.326,102.710 187.439 C 102.990 187.494,103.036 187.449,102.810 187.337 C 102.585 187.225,102.400 186.778,102.400 186.343 C 102.400 185.908,102.563 185.654,102.763 185.777 C 102.962 185.900,103.031 185.641,102.916 185.201 C 102.669 184.254,102.455 184.190,102.156 184.971 M129.324 189.800 C 129.326 191.120,129.401 191.612,129.490 190.893 C 129.579 190.174,129.577 189.094,129.486 188.493 C 129.395 187.892,129.322 188.480,129.324 189.800 M101.600 189.733 C 101.600 190.760,101.763 191.600,101.962 191.600 C 102.377 191.600,102.305 188.572,101.881 188.147 C 101.726 187.993,101.600 188.707,101.600 189.733 M374.060 190.500 C 374.018 192.105,374.151 192.800,374.500 192.800 C 374.802 192.800,375.000 192.261,375.000 191.438 C 375.000 190.689,374.877 190.152,374.727 190.245 C 374.577 190.338,374.379 189.916,374.287 189.307 C 374.195 188.698,374.093 189.235,374.060 190.500 M25.660 189.924 C 25.625 190.699,25.433 191.144,25.197 190.998 C 24.975 190.861,25.020 191.251,25.297 191.865 L 25.800 192.981 25.927 191.890 C 25.996 191.291,25.978 190.305,25.887 189.700 C 25.734 188.694,25.715 188.713,25.660 189.924 M102.500 192.265 C 102.206 192.384,102.000 193.194,102.000 194.233 C 102.000 195.380,102.175 196.000,102.500 196.000 C 102.775 196.000,103.000 195.567,103.000 195.038 C 103.000 194.509,102.865 194.160,102.700 194.262 C 102.204 194.568,102.363 192.997,102.880 192.480 C 103.386 191.974,103.317 191.935,102.500 192.265 M138.914 207.432 C 141.726 210.296,143.886 212.780,143.714 212.953 C 143.541 213.125,143.670 213.207,144.000 213.133 C 144.330 213.060,144.555 213.225,144.500 213.500 C 144.445 213.775,144.625 213.955,144.900 213.900 C 145.175 213.845,145.355 214.025,145.300 214.300 C 145.245 214.575,145.425 214.755,145.700 214.700 C 145.975 214.645,146.140 214.870,146.067 215.200 C 145.993 215.530,146.071 215.662,146.239 215.494 C 146.619 215.114,160.440 228.811,160.150 229.280 C 160.035 229.467,160.179 229.570,160.470 229.510 C 160.762 229.449,160.955 229.625,160.900 229.900 C 160.845 230.175,161.025 230.355,161.300 230.300 C 161.575 230.245,161.755 230.425,161.700 230.700 C 161.645 230.975,161.825 231.155,162.100 231.100 C 162.375 231.045,162.551 231.238,162.490 231.530 C 162.430 231.821,162.531 231.966,162.716 231.852 C 163.190 231.559,176.898 245.369,176.515 245.752 C 176.342 245.925,176.470 246.007,176.800 245.933 C 177.130 245.860,177.355 246.025,177.300 246.300 C 177.245 246.575,177.425 246.755,177.700 246.700 C 177.975 246.645,178.155 246.825,178.100 247.100 C 178.045 247.375,178.225 247.555,178.500 247.500 C 178.775 247.445,178.940 247.670,178.867 248.000 C 178.793 248.330,178.872 248.462,179.041 248.293 C 179.421 247.913,194.040 262.412,193.750 262.881 C 193.635 263.068,193.779 263.170,194.070 263.110 C 194.362 263.049,194.555 263.225,194.500 263.500 C 194.445 263.775,194.625 263.955,194.900 263.900 C 195.175 263.845,195.355 264.025,195.300 264.300 C 195.245 264.575,195.425 264.755,195.700 264.700 C 195.975 264.645,196.151 264.838,196.090 265.130 C 196.030 265.421,196.126 265.570,196.303 265.460 C 196.481 265.350,198.503 267.129,200.795 269.414 C 203.088 271.700,205.040 273.494,205.132 273.402 C 205.311 273.223,137.012 204.868,135.000 203.213 C 134.340 202.670,136.101 204.569,138.914 207.432 M297.025 204.440 C 297.175 204.683,297.433 205.808,297.599 206.940 L 297.900 209.000 297.950 206.500 C 297.990 204.481,297.880 204.000,297.376 204.000 C 297.024 204.000,296.871 204.192,297.025 204.440 M270.267 205.067 C 269.869 205.465,269.945 206.400,270.375 206.400 C 270.581 206.400,270.723 206.040,270.690 205.600 C 270.622 204.696,270.629 204.705,270.267 205.067 M25.363 207.784 C 25.125 208.544,25.069 209.081,25.239 208.976 C 25.409 208.871,25.621 209.373,25.710 210.092 C 25.801 210.823,25.900 210.297,25.936 208.900 C 26.010 206.013,25.952 205.900,25.363 207.784 M374.500 207.865 C 374.196 207.987,374.025 208.721,374.064 209.733 C 374.121 211.220,374.146 211.259,374.290 210.092 C 374.379 209.373,374.582 208.865,374.740 208.963 C 374.899 209.061,375.029 208.794,375.029 208.371 C 375.029 207.947,375.022 207.614,375.014 207.632 C 375.006 207.649,374.775 207.754,374.500 207.865 M270.432 211.700 C 270.449 212.195,270.554 212.374,270.666 212.098 C 270.777 211.821,271.003 211.678,271.167 211.780 C 271.332 211.882,271.467 211.703,271.467 211.382 C 271.467 211.062,271.227 210.800,270.933 210.800 C 270.638 210.800,270.414 211.201,270.432 211.700 M297.672 212.324 C 297.632 213.272,297.465 213.964,297.300 213.862 C 297.135 213.760,297.000 214.109,297.000 214.638 C 297.000 215.167,297.141 215.600,297.313 215.600 C 297.855 215.600,298.053 214.563,297.896 212.549 L 297.744 210.600 297.672 212.324 M270.126 214.551 C 270.242 214.854,270.172 215.304,269.969 215.551 C 269.710 215.866,269.742 215.882,270.076 215.604 C 270.686 215.096,270.854 214.000,270.322 214.000 C 270.098 214.000,270.010 214.248,270.126 214.551 M26.280 214.936 C 26.167 215.231,26.235 215.726,26.431 216.036 C 26.691 216.447,26.789 216.301,26.794 215.500 C 26.801 214.306,26.604 214.090,26.280 214.936 M373.206 215.500 C 373.211 216.301,373.309 216.447,373.569 216.036 C 373.765 215.726,373.833 215.231,373.720 214.936 C 373.396 214.090,373.199 214.306,373.206 215.500 M113.938 220.433 C 114.869 221.310,115.803 221.922,116.012 221.792 C 116.444 221.525,114.672 219.600,113.995 219.600 C 113.752 219.600,113.641 219.457,113.749 219.283 C 113.856 219.109,113.562 218.937,113.095 218.902 C 112.393 218.849,112.540 219.116,113.938 220.433 M117.120 223.431 C 117.901 224.581,129.094 235.600,129.481 235.600 C 129.753 235.600,130.800 236.711,130.800 237.000 C 130.800 237.524,132.007 238.443,132.388 238.208 C 132.772 237.970,128.718 233.600,128.114 233.600 C 127.947 233.600,125.216 231.035,122.047 227.900 C 118.877 224.765,116.660 222.754,117.120 223.431 M29.399 229.863 C 29.476 230.269,29.573 230.690,29.615 230.800 C 29.658 230.910,29.665 231.285,29.632 231.633 C 29.599 231.982,29.846 232.267,30.180 232.267 C 30.641 232.267,30.680 232.138,30.345 231.733 C 30.101 231.440,30.036 231.200,30.200 231.200 C 30.364 231.200,30.251 230.902,29.949 230.539 C 29.647 230.175,29.460 229.800,29.533 229.705 C 29.607 229.611,29.575 229.442,29.463 229.330 C 29.352 229.218,29.323 229.458,29.399 229.863 M290.600 232.800 C 290.160 232.989,289.920 233.156,290.067 233.172 C 290.214 233.187,290.649 233.321,291.033 233.468 C 291.484 233.641,291.636 233.582,291.463 233.302 C 291.316 233.064,291.421 232.777,291.698 232.666 C 291.974 232.554,292.020 232.462,291.800 232.460 C 291.580 232.458,291.040 232.611,290.600 232.800 M396.837 233.470 C 396.869 233.652,396.860 233.890,396.817 234.000 C 396.563 234.651,396.502 235.631,396.730 235.403 C 396.879 235.255,397.003 235.013,397.006 234.867 C 397.009 234.720,397.147 234.387,397.313 234.128 C 397.478 233.868,397.426 233.539,397.197 233.398 C 396.968 233.256,396.806 233.289,396.837 233.470 M134.325 240.639 C 135.291 242.060,146.370 252.800,146.869 252.800 C 147.051 252.800,147.200 252.993,147.200 253.229 C 147.200 253.663,147.634 254.152,148.911 255.157 C 149.541 255.652,149.587 255.632,149.333 254.970 C 148.990 254.077,145.777 250.800,145.244 250.800 C 145.036 250.800,144.801 250.665,144.721 250.500 C 144.641 250.335,142.080 247.770,139.029 244.800 C 135.979 241.830,133.862 239.957,134.325 240.639 M222.400 241.449 C 222.400 241.666,223.000 242.425,223.733 243.135 C 224.637 244.011,225.067 244.230,225.067 243.814 C 225.067 243.476,224.977 243.289,224.868 243.399 C 224.759 243.508,224.159 243.026,223.535 242.327 C 222.911 241.628,222.400 241.233,222.400 241.449 M281.200 244.424 C 281.200 244.657,281.050 244.755,280.867 244.641 C 280.683 244.528,280.533 244.698,280.533 245.019 C 280.533 245.502,280.660 245.489,281.267 244.940 C 282.102 244.184,282.167 244.000,281.600 244.000 C 281.380 244.000,281.200 244.191,281.200 244.424 M269.730 250.263 C 269.875 250.408,269.793 250.768,269.548 251.063 C 269.220 251.458,269.221 251.600,269.551 251.600 C 269.798 251.600,270.000 251.409,270.000 251.176 C 270.000 250.943,270.225 250.888,270.500 251.053 C 270.840 251.257,270.824 251.137,270.451 250.677 C 270.149 250.305,269.804 250.000,269.684 250.000 C 269.565 250.000,269.585 250.118,269.730 250.263 M252.700 254.682 C 253.195 254.778,254.005 254.778,254.500 254.682 C 254.995 254.587,254.590 254.509,253.600 254.509 C 252.610 254.509,252.205 254.587,252.700 254.682 M150.800 257.058 C 150.800 257.575,162.715 269.200,163.245 269.200 C 163.440 269.200,163.600 269.481,163.600 269.824 C 163.600 270.167,163.780 270.336,164.000 270.200 C 164.220 270.064,164.400 270.156,164.400 270.405 C 164.400 271.082,165.537 272.086,165.988 271.808 C 166.371 271.570,162.318 267.200,161.714 267.200 C 161.547 267.200,159.023 264.818,156.105 261.906 C 153.187 258.994,150.800 256.812,150.800 257.058 M16.446 266.113 C 16.421 266.504,16.669 266.928,16.998 267.054 C 17.326 267.181,17.504 267.433,17.391 267.614 C 17.279 267.796,17.369 268.057,17.591 268.194 C 17.827 268.340,17.961 268.039,17.914 267.467 C 17.866 266.891,17.635 266.565,17.351 266.674 C 17.087 266.776,16.785 266.531,16.681 266.129 C 16.505 265.448,16.490 265.447,16.446 266.113 M50.000 266.386 C 50.000 266.598,50.405 266.984,50.900 267.244 C 51.795 267.714,51.796 267.712,51.038 266.858 C 50.191 265.905,50.000 265.818,50.000 266.386 M167.200 273.458 C 167.200 273.868,179.059 285.600,179.474 285.600 C 179.752 285.600,180.800 286.707,180.800 287.000 C 180.800 287.524,182.007 288.443,182.388 288.208 C 182.771 287.970,178.718 283.600,178.114 283.600 C 177.947 283.600,175.423 281.218,172.505 278.306 C 169.587 275.394,167.200 273.212,167.200 273.458 M58.206 274.512 C 58.592 275.124,59.009 275.524,59.132 275.401 C 59.255 275.278,58.939 274.778,58.430 274.289 L 57.504 273.400 58.206 274.512 M341.000 274.800 C 340.368 275.460,340.024 276.000,340.237 276.000 C 340.449 276.000,340.876 275.650,341.185 275.221 C 341.493 274.793,341.863 274.515,342.006 274.604 C 342.149 274.692,342.267 274.503,342.267 274.182 C 342.267 273.437,342.340 273.402,341.000 274.800 M206.933 274.975 C 206.933 275.300,207.071 275.480,207.239 275.376 C 207.408 275.272,207.828 275.590,208.173 276.082 C 208.518 276.575,208.800 276.789,208.800 276.559 C 208.800 276.328,208.380 275.745,207.867 275.263 C 207.174 274.612,206.933 274.538,206.933 274.975 M336.621 278.377 C 336.234 278.804,336.012 279.389,336.127 279.677 C 336.289 280.080,336.344 280.069,336.368 279.631 C 336.386 279.319,336.698 278.734,337.062 278.331 C 337.426 277.929,337.634 277.600,337.524 277.600 C 337.414 277.600,337.008 277.950,336.621 278.377 M67.724 282.520 C 67.701 283.004,67.775 283.155,67.889 282.855 C 68.065 282.394,68.151 282.394,68.442 282.855 C 68.645 283.174,68.790 283.213,68.794 282.949 C 68.807 282.007,67.770 281.591,67.724 282.520 M331.592 282.210 C 331.314 282.545,331.202 282.935,331.343 283.076 C 331.484 283.218,331.603 283.078,331.606 282.767 C 331.611 282.297,331.677 282.302,331.988 282.795 C 332.284 283.263,332.350 283.198,332.297 282.495 C 332.217 281.432,332.233 281.438,331.592 282.210 M29.362 283.942 C 29.781 284.414,30.287 284.800,30.486 284.800 C 31.049 284.800,30.450 284.054,29.478 283.544 C 28.606 283.087,28.605 283.090,29.362 283.942 M76.400 287.728 C 77.462 288.852,78.000 289.070,78.000 288.376 C 78.000 288.143,77.820 288.064,77.600 288.200 C 77.380 288.336,77.200 288.263,77.200 288.038 C 77.200 287.812,76.795 287.413,76.300 287.149 C 75.444 286.694,75.449 286.723,76.400 287.728 M323.233 287.567 C 322.812 287.988,322.362 288.228,322.233 288.100 C 322.105 287.972,322.000 288.077,322.000 288.333 C 322.000 289.058,322.513 288.878,323.542 287.793 C 324.641 286.635,324.367 286.433,323.233 287.567 M184.321 290.600 C 185.579 292.465,187.867 294.539,187.867 293.814 C 187.867 293.476,187.799 293.268,187.715 293.351 C 187.632 293.435,186.652 292.580,185.538 291.451 C 184.286 290.183,183.821 289.858,184.321 290.600 M84.032 291.700 C 84.014 292.085,84.270 292.400,84.600 292.400 C 84.930 292.400,85.200 292.209,85.200 291.976 C 85.200 291.743,85.035 291.655,84.834 291.779 C 84.633 291.903,84.377 291.779,84.266 291.502 C 84.144 291.199,84.051 291.278,84.032 291.700 M41.200 295.738 C 41.200 295.800,41.778 296.379,42.485 297.025 C 43.191 297.671,43.553 297.913,43.288 297.563 C 43.024 297.213,42.940 296.779,43.103 296.599 C 43.267 296.419,43.175 296.401,42.900 296.559 C 42.625 296.718,42.400 296.676,42.400 296.466 C 42.400 296.257,42.130 295.982,41.800 295.855 C 41.470 295.729,41.200 295.676,41.200 295.738 M165.200 297.986 C 165.200 298.214,165.412 298.400,165.672 298.400 C 165.931 298.400,166.720 299.030,167.426 299.800 C 168.131 300.570,168.519 301.200,168.287 301.200 C 168.056 301.200,167.975 301.308,168.107 301.440 C 169.191 302.524,169.023 300.854,167.935 299.722 C 166.393 298.119,165.200 297.362,165.200 297.986 M193.400 299.200 C 194.265 300.156,194.267 300.156,194.267 299.418 C 194.267 299.097,194.117 298.928,193.933 299.041 C 193.750 299.155,193.600 299.057,193.600 298.824 C 193.600 298.591,193.392 298.400,193.138 298.400 C 192.876 298.400,192.989 298.746,193.400 299.200 M353.072 300.109 L 352.345 301.400 353.219 300.542 C 353.701 300.070,354.028 299.489,353.947 299.251 C 353.866 299.013,353.473 299.399,353.072 300.109 M113.600 300.000 C 114.383 300.506,115.200 300.506,115.200 300.000 C 115.200 299.780,114.705 299.603,114.100 299.606 C 113.243 299.611,113.132 299.698,113.600 300.000 M136.800 300.000 C 136.800 300.220,137.059 300.400,137.376 300.400 C 137.693 300.400,138.064 300.220,138.200 300.000 C 138.336 299.780,138.077 299.600,137.624 299.600 C 137.171 299.600,136.800 299.780,136.800 300.000 M262.400 300.000 C 263.176 300.501,263.600 300.501,263.600 300.000 C 263.600 299.780,263.195 299.603,262.700 299.606 C 261.972 299.611,261.915 299.686,262.400 300.000 M284.400 300.000 C 284.400 300.220,284.659 300.400,284.976 300.400 C 285.293 300.400,285.664 300.220,285.800 300.000 C 285.936 299.780,285.677 299.600,285.224 299.600 C 284.771 299.600,284.400 299.780,284.400 300.000 M119.799 300.428 C 121.009 300.630,121.948 300.612,122.179 300.381 C 122.420 300.140,121.688 300.017,120.180 300.047 L 117.800 300.094 119.799 300.428 M129.434 300.394 C 129.681 300.641,130.491 300.658,131.614 300.438 L 133.400 300.088 131.220 300.044 C 129.789 300.015,129.175 300.135,129.434 300.394 M267.275 300.208 C 267.572 300.505,280.393 300.540,280.689 300.245 C 280.823 300.110,277.813 300.000,274.000 300.000 C 270.187 300.000,267.160 300.094,267.275 300.208 M123.462 300.700 C 123.360 300.865,124.412 301.000,125.800 301.000 C 127.188 301.000,128.240 300.865,128.138 300.700 C 128.036 300.535,126.984 300.400,125.800 300.400 C 124.616 300.400,123.564 300.535,123.462 300.700 M350.924 301.480 C 350.970 302.409,352.007 301.993,351.994 301.051 C 351.990 300.787,351.845 300.826,351.642 301.145 C 351.351 301.606,351.265 301.606,351.089 301.145 C 350.975 300.845,350.901 300.996,350.924 301.480 M171.333 310.699 C 171.370 311.414,171.535 311.999,171.700 311.999 C 172.081 312.000,172.040 311.228,171.604 310.200 C 171.332 309.559,171.278 309.657,171.333 310.699 M64.400 311.986 C 64.400 312.439,65.978 313.355,66.264 313.069 C 66.372 312.961,66.084 312.754,65.624 312.608 C 65.165 312.462,64.892 312.175,65.018 311.971 C 65.144 311.767,65.057 311.600,64.824 311.600 C 64.591 311.600,64.400 311.774,64.400 311.986 M76.571 317.434 C 76.147 317.778,76.025 317.945,76.300 317.806 C 76.575 317.667,76.805 317.788,76.812 318.076 C 76.819 318.386,76.998 318.302,77.249 317.870 C 77.825 316.879,77.507 316.674,76.571 317.434 M166.400 319.957 C 166.400 320.236,166.185 320.323,165.900 320.159 C 165.625 320.001,165.532 320.018,165.694 320.196 C 165.855 320.375,165.675 320.774,165.294 321.083 C 164.668 321.589,164.686 321.603,165.478 321.220 C 166.475 320.738,166.995 320.061,166.640 319.707 C 166.508 319.575,166.400 319.687,166.400 319.957 M98.400 324.551 C 98.400 324.950,98.734 325.200,99.267 325.200 C 99.743 325.200,100.058 325.149,99.967 325.087 C 99.875 325.025,99.485 324.733,99.100 324.438 C 98.501 323.979,98.400 323.996,98.400 324.551 M152.224 324.613 C 151.465 325.187,151.467 325.200,152.324 325.200 C 152.836 325.200,153.200 324.951,153.200 324.600 C 153.200 323.876,153.197 323.876,152.224 324.613 M246.800 324.551 C 246.800 325.315,247.825 325.421,248.241 324.700 C 248.399 324.425,248.381 324.333,248.201 324.497 C 248.021 324.660,247.632 324.593,247.337 324.348 C 246.925 324.006,246.800 324.053,246.800 324.551 M300.624 324.613 C 299.865 325.187,299.867 325.200,300.724 325.200 C 301.236 325.200,301.600 324.951,301.600 324.600 C 301.600 323.876,301.597 323.876,300.624 324.613 M251.034 325.343 C 251.325 326.103,252.222 326.212,252.638 325.538 C 252.819 325.246,252.748 325.185,252.444 325.373 C 252.181 325.536,251.699 325.448,251.373 325.178 C 250.886 324.773,250.826 324.802,251.034 325.343 M296.983 325.227 C 296.838 325.462,296.458 325.554,296.139 325.432 C 295.815 325.307,295.666 325.384,295.803 325.605 C 296.171 326.200,297.084 326.079,297.345 325.400 C 297.610 324.709,297.373 324.596,296.983 325.227 M107.452 326.191 C 107.585 326.537,108.142 326.786,108.743 326.768 C 109.363 326.750,109.552 326.645,109.200 326.514 C 108.870 326.392,108.289 326.132,107.909 325.937 C 107.375 325.662,107.271 325.720,107.452 326.191 M291.400 326.214 L 290.200 326.764 291.257 326.782 C 291.841 326.792,292.417 326.532,292.545 326.200 C 292.671 325.870,292.736 325.615,292.687 325.632 C 292.639 325.650,292.060 325.912,291.400 326.214 M142.600 326.400 C 141.891 326.705,141.925 326.747,142.900 326.772 C 143.505 326.787,144.000 326.620,144.000 326.400 C 144.000 325.931,143.693 325.931,142.600 326.400 M256.000 326.400 C 256.000 326.620,256.495 326.787,257.100 326.772 C 258.075 326.747,258.109 326.705,257.400 326.400 C 256.307 325.931,256.000 325.931,256.000 326.400 M115.500 326.676 C 113.857 327.105,115.007 327.594,117.500 327.526 C 120.046 327.456,120.080 327.444,118.090 327.305 C 116.897 327.222,116.081 326.993,116.213 326.779 C 116.342 326.570,116.392 326.421,116.324 326.446 C 116.256 326.472,115.885 326.575,115.500 326.676 M137.073 326.660 C 136.930 326.803,135.685 327.049,134.306 327.206 L 131.800 327.491 134.633 327.545 C 136.910 327.589,137.467 327.482,137.467 327.000 C 137.467 326.322,137.437 326.296,137.073 326.660 M262.964 327.258 C 262.848 327.446,263.978 327.586,265.476 327.568 C 268.526 327.533,268.454 327.350,265.288 327.089 C 264.126 326.993,263.081 327.069,262.964 327.258 M282.200 327.200 L 279.800 327.466 282.724 327.533 C 284.587 327.576,285.558 327.455,285.400 327.200 C 285.264 326.980,285.028 326.830,284.876 326.867 C 284.724 326.904,283.520 327.054,282.200 327.200 M129.400 327.600 C 128.696 327.902,128.735 327.947,129.724 327.972 C 130.376 327.988,130.744 327.832,130.600 327.600 C 130.464 327.380,130.318 327.213,130.276 327.228 C 130.234 327.244,129.840 327.411,129.400 327.600 M269.377 327.638 C 269.254 327.837,269.613 328.000,270.176 328.000 C 271.402 328.000,271.501 327.772,270.400 327.484 C 269.961 327.369,269.500 327.438,269.377 327.638 " stroke="none" fill="#286cb4" fill-rule="evenodd"></path></g></svg>