<svg id="svg" version="1.1" xmlns="http://www.w3.org/2000/svg" xmlns:xlink="http://www.w3.org/1999/xlink" width="400" height="283.0188679245283" viewBox="0, 0, 400,283.0188679245283"><g id="svgg"><path id="path0" d="M147.511 68.796 C 139.176 70.553,136.052 73.993,129.779 88.323 C 127.496 93.539,123.844 101.883,121.665 106.865 C 119.485 111.847,117.447 116.369,117.134 116.914 C 115.780 119.278,108.326 136.498,107.833 138.403 C 105.863 146.011,108.828 154.353,115.195 159.111 C 116.570 160.138,121.960 162.935,122.148 162.719 C 124.188 160.376,123.655 151.214,121.362 149.201 C 118.803 146.953,118.132 143.310,119.579 139.509 C 120.622 136.770,128.552 118.794,128.798 118.613 C 128.903 118.535,132.411 110.780,136.592 101.379 C 145.622 81.081,145.423 81.409,149.280 80.371 C 152.284 79.562,150.046 78.662,195.537 98.974 L 197.019 99.635 197.489 98.721 C 198.698 96.369,201.458 93.441,204.339 91.451 C 204.857 91.094,205.175 90.705,205.047 90.588 C 204.599 90.181,158.377 69.696,156.829 69.219 C 155.007 68.657,149.381 68.402,147.511 68.796 M215.528 99.651 C 211.318 100.288,210.014 100.889,208.279 102.994 C 207.249 104.243,207.252 104.251,209.128 105.028 C 215.216 107.552,215.840 111.517,211.637 120.988 C 210.141 124.358,208.917 127.226,208.917 127.360 C 208.917 127.680,201.853 143.476,199.663 148.054 C 198.732 150.000,195.952 156.150,193.486 161.720 C 187.798 174.567,187.083 175.461,182.279 175.739 L 180.062 175.868 157.731 165.924 C 145.449 160.455,135.317 155.980,135.216 155.980 C 135.115 155.980,135.032 156.797,135.032 157.795 C 135.032 160.699,134.353 163.690,132.931 167.049 C 132.686 167.627,173.502 185.924,177.074 186.837 C 185.342 188.952,194.559 185.149,198.794 177.876 C 199.791 176.163,202.972 169.213,202.972 168.747 C 202.972 168.446,211.704 148.877,212.014 148.485 C 212.708 147.605,225.337 118.488,225.645 117.056 C 226.848 111.464,225.553 105.520,222.111 100.849 C 220.595 98.791,220.874 98.841,215.528 99.651 " stroke="none" fill="#0c9a4d" fill-rule="evenodd"></path><path id="path1" d="M246.709 83.791 C 209.375 88.894,210.028 88.796,207.877 89.600 C 200.581 92.328,195.059 100.110,195.040 107.689 C 195.035 109.869,199.656 145.351,200.085 146.428 C 200.355 147.106,208.917 127.973,208.917 126.691 C 208.917 126.188,208.408 122.059,207.785 117.516 C 205.770 102.812,206.686 100.874,216.247 99.615 C 218.521 99.315,232.229 97.472,246.709 95.518 C 277.251 91.398,276.166 91.474,278.881 93.271 C 280.217 94.155,280.282 94.154,281.125 93.245 C 282.650 91.603,286.929 89.235,289.243 88.753 C 290.355 88.521,290.354 88.536,289.384 87.262 C 288.226 85.740,285.268 83.404,283.229 82.400 C 277.595 79.626,277.029 79.648,246.709 83.791 M292.808 99.397 C 291.174 99.690,289.638 100.537,288.425 101.816 C 286.067 104.300,285.835 105.774,285.982 117.382 L 286.095 126.398 288.424 143.081 C 290.974 161.346,290.968 161.218,289.470 163.759 C 287.586 166.953,285.906 167.676,278.273 168.582 C 276.016 168.850,262.958 170.592,249.257 172.452 C 219.297 176.521,220.138 176.498,216.989 173.349 C 215.253 171.613,215.037 170.744,213.453 159.113 C 212.683 153.458,212.006 148.784,211.950 148.727 C 211.893 148.670,209.854 153.113,207.419 158.601 L 202.991 168.577 203.400 170.819 C 205.177 180.562,213.044 187.379,222.534 187.398 C 224.581 187.402,265.565 182.009,282.803 179.467 C 291.735 178.150,297.058 174.737,300.155 168.342 C 302.758 162.965,302.764 163.075,298.220 128.946 C 293.887 96.398,294.384 99.114,292.808 99.397 " stroke="none" fill="#246cb4" fill-rule="evenodd"></path><path id="path2" d="M291.720 87.947 C 291.253 88.009,290.616 88.177,290.304 88.321 C 289.993 88.465,288.702 88.973,287.436 89.451 C 281.519 91.684,277.089 96.411,275.231 102.477 C 274.689 104.245,274.303 169.002,274.834 169.002 C 275.775 169.002,284.800 167.570,285.467 167.315 L 286.292 166.999 286.114 137.070 C 285.969 112.702,286.006 106.840,286.312 105.523 C 286.862 103.160,288.561 101.089,290.904 99.927 C 292.479 99.146,354.314 99.025,356.918 99.798 C 359.043 100.429,360.632 101.776,361.711 103.859 L 362.633 105.640 362.630 137.675 L 362.627 169.710 361.965 171.131 C 361.107 172.973,359.762 174.296,357.822 175.207 L 356.263 175.938 324.908 176.007 L 293.552 176.076 291.645 177.029 C 288.902 178.399,287.383 178.832,283.129 179.453 C 278.460 180.134,278.565 179.993,281.022 182.301 C 283.278 184.420,286.534 186.210,289.496 186.962 C 292.134 187.631,356.710 187.629,359.336 186.959 C 364.803 185.566,369.580 181.698,372.075 176.645 C 374.372 171.993,374.263 174.070,374.175 136.787 L 374.098 103.751 373.436 101.769 C 371.358 95.549,366.183 90.427,360.085 88.557 L 357.962 87.906 325.265 87.870 C 307.282 87.851,292.187 87.885,291.720 87.947 " stroke="none" fill="#fbb41c" fill-rule="evenodd"></path><path id="path3" d="M73.269 83.924 C 42.014 88.994,40.962 89.181,38.693 90.063 C 31.797 92.747,26.620 100.435,26.612 108.003 C 26.610 110.004,36.101 169.749,36.948 173.068 C 38.969 180.983,46.532 186.987,54.919 187.334 C 58.614 187.487,117.738 178.130,121.727 176.761 C 129.678 174.033,134.605 167.141,134.907 158.328 C 134.999 155.670,129.251 118.478,128.793 118.761 C 128.692 118.823,126.729 123.079,124.429 128.218 L 120.248 137.562 121.437 144.436 C 122.091 148.216,122.876 152.774,123.183 154.565 C 124.318 161.193,122.150 165.022,116.631 166.137 C 111.015 167.272,57.301 175.796,55.782 175.793 C 52.728 175.789,50.025 174.166,48.680 171.528 C 48.062 170.317,38.217 110.711,38.217 108.182 C 38.217 104.769,40.741 101.340,43.877 100.496 C 47.255 99.586,104.741 90.553,106.442 90.664 C 111.975 91.027,112.993 92.862,115.246 106.531 C 117.130 117.960,116.991 117.440,117.721 115.751 C 118.017 115.068,119.867 110.893,121.833 106.475 C 125.666 97.858,125.669 97.847,124.981 94.498 C 123.494 87.259,117.211 80.942,109.971 79.409 C 106.272 78.625,104.887 78.796,73.269 83.924 " stroke="none" fill="#e42424" fill-rule="evenodd"></path><path id="path4" d="M176.079 200.174 C 171.527 200.950,168.443 205.630,169.268 210.509 C 171.136 221.564,187.155 220.266,187.155 209.059 C 187.155 202.786,182.528 199.074,176.079 200.174 M256.736 200.135 C 249.734 201.372,247.142 211.061,252.510 215.931 C 255.840 218.952,262.589 218.598,265.530 215.248 C 271.398 208.565,265.584 198.572,256.736 200.135 M134.239 200.481 C 134.052 200.668,133.900 201.231,133.900 201.732 C 133.900 203.545,133.886 203.539,137.904 203.539 L 141.565 203.539 137.308 209.845 C 131.509 218.435,131.357 217.976,140.008 217.976 C 147.076 217.976,147.015 217.994,146.868 215.944 L 146.780 214.720 142.902 214.579 L 139.025 214.437 143.115 208.220 C 148.700 199.730,148.830 200.142,140.552 200.142 C 136.284 200.142,134.482 200.238,134.239 200.481 M211.253 200.329 C 210.980 200.439,210.899 202.459,210.899 209.082 L 210.899 217.693 212.850 217.693 C 215.214 217.693,215.145 217.812,215.145 213.707 L 215.145 210.616 218.533 210.616 L 221.922 210.616 222.001 214.084 L 222.081 217.551 224.062 217.551 L 226.044 217.551 226.119 209.235 C 226.204 199.827,226.274 200.142,224.084 200.142 C 222.029 200.142,221.939 200.303,221.939 204.020 L 221.939 207.219 218.401 207.219 L 214.862 207.219 214.862 203.852 C 214.862 201.043,214.788 200.457,214.414 200.313 C 213.889 200.112,211.765 200.122,211.253 200.329 M179.524 203.547 C 182.922 204.491,184.050 210.310,181.417 213.309 C 179.104 215.942,174.768 214.721,173.811 211.168 C 172.517 206.364,175.472 202.422,179.524 203.547 M260.720 203.892 C 264.041 205.583,264.268 212.084,261.076 214.057 C 257.185 216.461,253.054 212.419,254.195 207.322 C 254.963 203.891,257.794 202.402,260.720 203.892 " stroke="none" fill="#040404" fill-rule="evenodd"></path></g></svg>