<?xml version="1.0" standalone="no"?>
<!DOCTYPE svg PUBLIC "-//W3C//DTD SVG 20010904//EN"
 "http://www.w3.org/TR/2001/REC-SVG-20010904/DTD/svg10.dtd">
<svg version="1.0" xmlns="http://www.w3.org/2000/svg"
 width="512.000000pt" height="512.000000pt" viewBox="0 0 512.000000 512.000000"
 preserveAspectRatio="xMidYMid meet">

<g transform="translate(0.000000,512.000000) scale(0.100000,-0.100000)"
fill="#000000" stroke="none">
<path d="M2740 4689 c-285 -24 -511 -118 -705 -293 -60 -54 -75 -60 -75 -28 0
37 -49 120 -95 160 -101 88 -190 102 -682 102 l-353 0 0 -375 0 -375 160 0
c147 0 162 -2 180 -20 20 -20 20 -33 20 -1745 l0 -1725 420 0 420 0 0 685 c0
377 2 685 4 685 3 0 38 -25 78 -55 199 -151 434 -225 707 -225 381 1 693 128
952 390 340 343 499 883 434 1468 -60 538 -298 952 -679 1180 -217 130 -513
194 -786 171z m98 -764 c108 -26 198 -78 287 -169 171 -173 245 -408 232 -744
-4 -111 -11 -170 -30 -243 -74 -283 -256 -477 -502 -535 -92 -21 -255 -14
-338 15 -239 84 -397 302 -453 625 -24 137 -15 387 20 521 77 302 254 481 531
539 48 9 195 4 253 -9z"/>
</g>
</svg>
