<?xml version="1.0" encoding="UTF-8"?>
<svg xmlns="http://www.w3.org/2000/svg" xmlns:xlink="http://www.w3.org/1999/xlink" width="200px" height="200px" viewBox="0 0 50 50" version="1.1">
<g id="surface1">
<path style=" stroke:none;fill-rule:nonzero;fill:rgb(23.921569%,26.274511%,83.529413%);fill-opacity:1;" d="M 6.25 0 L 43.75 0 C 47.203125 0 50 2.796875 50 6.25 L 50 43.75 C 50 47.203125 47.203125 50 43.75 50 L 6.25 50 C 2.796875 50 0 47.203125 0 43.75 L 0 6.25 C 0 2.796875 2.796875 0 6.25 0 Z M 6.25 0 "/>
<path style=" stroke:none;fill-rule:nonzero;fill:rgb(100%,100%,100%);fill-opacity:1;" d="M 9.5 23.476562 L 16.941406 30.726562 L 16.941406 42.207031 L 9.5 42.207031 Z M 40.75 8.058594 L 40.75 39.414062 C 40.75 41.433594 39.625 42.25 37.816406 42.25 C 37.480469 42.25 36.882812 42.125 36.367188 41.625 L 9.5 16.332031 L 9.5 10.710938 C 9.5 8.691406 10.339844 7.875 12.429688 7.875 C 12.765625 7.875 13.433594 8.003906 13.945312 8.5 L 33.304688 26.480469 L 33.304688 8.058594 Z M 40.75 8.058594 "/>
</g>
</svg>
