<?xml version="1.0" encoding="utf-8"?><!-- Uploaded to: SVG Repo, www.svgrepo.com, Generator: SVG Repo Mixer Tools -->
<svg fill="#000000" width="800px" height="800px" viewBox="0 0 14 14" role="img" focusable="false" aria-hidden="true" xmlns="http://www.w3.org/2000/svg"><path d="m 6.2470839,12.243903 c -0.032,0 -0.1432,-0.013 -0.2465,-0.023 -0.9733,-0.095 -1.9131,-0.4726 -2.6962,-1.0827 l -0.1136,-0.089 0.054,-0.063 c 0.047,-0.055 0.056,-0.061 0.075,-0.048 0.012,0.01 0.073,0.055 0.1362,0.1041 1.212,0.9368 2.845,1.2677 4.3414,0.8798 0.6613,-0.1714 1.2868,-0.4747 1.8136,-0.8794 0.5439001,-0.4177 1.0139001,-0.9569 1.3481001,-1.5466 0.3408,-0.6014 0.5636,-1.3148 0.6299,-2.0166 0.023,-0.2426 0.023,-0.7104 0,-0.953 -0.044,-0.4696 -0.1706,-0.9958 -0.3362,-1.4013 l -0.045,-0.1112 0.061,-0.062 c 0.034,-0.034 0.065,-0.058 0.069,-0.053 0.016,0.017 0.138,0.3399 0.1909,0.5049 0.332,1.0358 0.3299,2.1785 -0.01,3.2157 -0.432,1.3341 -1.3908,2.4489 -2.6457001,3.0761 -0.5681,0.284 -1.1529,0.454 -1.8096,0.5261 -0.1554,0.017 -0.6967,0.031 -0.8199,0.021 z m -3.7203,-0.5583 c 0,-0.01 -0.01,-0.049 -0.012,-0.09 l -0.01,-0.074 0.066,-0.087 c 0.4143,-0.5503 1.1156,-1.2183 1.8653,-1.7766 0.4613,-0.3435 1.7319,-1.2186 2.217,-1.5268 0.076,-0.048 0.138,-0.092 0.138,-0.097 0,0 -0.2442,-0.01 -0.5427,-0.01 l -0.5426,0 0.092,-0.093 0.092,-0.093 -0.05,-0.1304 -0.05,-0.1305 -0.3241,0 -0.324,0 -0.019,0.1291 -0.02,0.1291 0.027,0.041 c 0.015,0.023 0.044,0.063 0.065,0.091 l 0.037,0.05 -0.2972,0 -0.2973,0 0.076,-0.069 c 0.042,-0.038 0.09,-0.081 0.1069,-0.097 0.025,-0.023 0.047,-0.083 0.1159,-0.3164 l 0.085,-0.2881 -0.1079,-0.1932 c -0.5942,-1.0628 -0.8876,-2.0481 -0.7935,-2.6642 0.058,-0.3813 0.2282,-0.5773 0.5815,-0.671 0.1319,-0.035 0.3899,-0.038 0.54,-0.01 0.6645,0.141 1.4304,0.7078 2.2558,1.6696 0.067,0.078 0.1778,0.2045 0.2468,0.2817 0.8381,0.9374 1.4663,2.1888 1.6084,3.2041 0.022,0.1582 0.019,0.4935 -0.01,0.6207 -0.06,0.3058 -0.1993,0.5142 -0.412,0.6183 -0.1348,0.066 -0.2114,0.083 -0.3762,0.084 -0.2213,0 -0.4311,-0.048 -0.6985,-0.1633 -0.1306,-0.056 -0.3404,-0.1668 -0.3404,-0.1792 0,0 0.01,-0.017 0.015,-0.028 0.014,-0.019 0.022,-0.017 0.1127,0.034 0.2241,0.124 0.4928,0.2241 0.6965,0.2596 0.1287,0.022 0.359,0.017 0.4455,-0.011 0.1134,-0.037 0.192,-0.084 0.2752,-0.1668 0.4093,-0.4065 0.3115,-1.3975 -0.2527,-2.5584 -0.3168,-0.652 -0.7084,-1.2285 -1.2043,-1.7726 -0.088,-0.097 -0.222,-0.2447 -0.2972,-0.3287 -0.681,-0.7599 -1.3127,-1.2465 -1.8568,-1.4301 -0.1961,-0.066 -0.2892,-0.082 -0.4813,-0.082 -0.1512,1e-4 -0.1819,0 -0.2754,0.032 -0.2192,0.066 -0.3478,0.1626 -0.4231,0.317 -0.077,0.1586 -0.1062,0.3378 -0.096,0.5998 0.02,0.5257 0.2265,1.1869 0.6046,1.9369 0.1445,0.2867 0.254,0.4822 0.2672,0.4769 0.01,0 0.065,-0.1843 0.1302,-0.4042 l 0.1193,-0.3998 -0.1103,-0.1182 -0.1102,-0.1182 0.4422,0 c 0.2432,0 0.4462,10e-4 0.4511,0.01 0,0 0.1523,0.3893 0.3274,0.8541 l 0.3183,0.8452 0.109,0.1097 0.109,0.1098 0.2922,-0.1904 c 0.3385,-0.2205 0.7663,-0.5081 1.1042,-0.7422 0.1303,-0.09 0.2412,-0.1643 0.2466,-0.1646 0.01,-6e-4 0.068,0.096 0.061,0.1018 0,0 -0.3581,0.2455 -0.7907,0.5414 -2.0448,1.3987 -3.2203,2.2103 -3.4104,2.3545 -0.59,0.4476 -1.2234,1.0632 -1.7,1.652 -0.06,0.075 -0.1098,0.1262 -0.1125,0.1174 z m 3.1725,-4.3864 c -0.091,-0.2276 -0.2633,-0.6359 -0.2685,-0.6359 0,0 -0.034,0.089 -0.068,0.1967 -0.034,0.1081 -0.079,0.2534 -0.1008,0.3228 l -0.04,0.1262 0.2405,0 c 0.1324,0 0.2389,0 0.2367,-0.01 z m -0.3558,-0.1457 c 0.047,-0.1589 0.093,-0.2898 0.1004,-0.2823 0.01,0.011 0.1048,0.2363 0.1048,0.2499 0,0.01 -0.1805,0.059 -0.2058,0.059 0,0 0,-0.012 6e-4,-0.026 z m -0.5579,4.1164 c 0,-0.034 -0.051,-0.2946 -0.06,-0.3055 -0.01,-0.01 -0.084,-0.025 -0.175,-0.04 -0.091,-0.015 -0.1629,-0.028 -0.1608,-0.03 0,0 0.075,-0.015 0.1616,-0.028 0.087,-0.014 0.1639,-0.031 0.171,-0.039 0.01,-0.01 0.025,-0.083 0.039,-0.1666 0.023,-0.1325 0.036,-0.1889 0.036,-0.1518 0,0.047 0.051,0.3073 0.062,0.3186 0.01,0.01 0.088,0.025 0.1779,0.038 0.09,0.013 0.1653,0.026 0.1676,0.028 0,0 -0.072,0.016 -0.1663,0.03 -0.096,0.015 -0.1759,0.033 -0.1831,0.042 -0.01,0.01 -0.023,0.08 -0.036,0.1594 -0.02,0.1233 -0.034,0.1837 -0.034,0.1442 z m -1.9785,-0.5745 c -0.562,-0.5689 -0.983,-1.2473 -1.2372,-1.994 -0.033,-0.096 -0.06,-0.1792 -0.06,-0.1847 0,-0.01 0.1407,-0.086 0.1461,-0.079 0,0 0.032,0.091 0.068,0.1974 0.227,0.6749 0.5997,1.2996 1.089,1.8254 0.066,0.071 0.1552,0.1615 0.198,0.201 l 0.078,0.072 -0.053,0.059 c -0.029,0.032 -0.057,0.06 -0.063,0.06 -0.01,6e-4 -0.08,-0.07 -0.1667,-0.1576 z m 5.2967,0.1275 c -0.014,-0.014 -0.01,-0.06 0.01,-0.075 0.014,-0.011 0.025,-0.012 0.047,0 0.029,0.013 0.035,0.031 0.022,0.066 -0.01,0.019 -0.064,0.026 -0.079,0.011 z m 0.8537,-0.1219 c -0.045,-0.017 -0.042,-0.1035 0,-0.1065 0.058,0 0.076,0.012 0.071,0.065 0,0.038 -0.036,0.056 -0.075,0.042 z m -3.8427,-0.3334 c -0.021,-0.025 0,-0.065 0.028,-0.065 0.039,0 0.059,0.027 0.042,0.058 -0.015,0.028 -0.05,0.032 -0.07,0.01 z m -0.569,-0.072 c -0.034,-0.034 -0.014,-0.075 0.036,-0.075 0.038,0 0.055,0.036 0.032,0.069 -0.021,0.03 -0.043,0.032 -0.068,0.01 z m 1.7283,-0.017 c -0.029,-0.024 -0.023,-0.05 0.018,-0.076 0.03,-0.019 0.074,0.028 0.057,0.061 -0.019,0.035 -0.044,0.04 -0.074,0.015 z m 3.5752,-0.3554 c -0.021,-0.059 -0.025,-0.062 -0.092,-0.086 l -0.07,-0.025 0.061,-0.02 c 0.065,-0.021 0.084,-0.043 0.1072,-0.1152 0.017,-0.054 0.028,-0.049 0.047,0.02 0.017,0.061 0.024,0.069 0.088,0.089 0.026,0.01 0.051,0.018 0.055,0.022 0,0 -0.022,0.02 -0.06,0.034 -0.064,0.025 -0.07,0.03 -0.083,0.079 -0.01,0.029 -0.019,0.055 -0.024,0.058 0,0 -0.019,-0.022 -0.031,-0.056 z m -2.6254,0.01 c -0.015,-0.015 -0.01,-0.06 0.01,-0.067 0.031,-0.012 0.054,0.01 0.051,0.038 0,0.03 -0.041,0.048 -0.06,0.029 z m -2.1727,-0.034 c -0.041,-0.041 -8e-4,-0.1093 0.057,-0.095 0.034,0.01 0.052,0.058 0.034,0.088 -0.016,0.026 -0.067,0.03 -0.09,0.01 z m 5.1827001,-0.08 c -0.01,-0.012 -0.01,-0.019 0,-0.03 0.012,-0.01 0.019,-0.01 0.03,0 0.01,0.012 0.01,0.019 0,0.03 -0.012,0.01 -0.019,0.01 -0.03,0 z m -6.7798001,-0.097 c -0.035,-0.035 -0.01,-0.099 0.039,-0.099 0.025,0 0.06,0.036 0.06,0.061 0,0.023 -0.037,0.057 -0.062,0.057 -0.01,0 -0.027,-0.01 -0.037,-0.018 z m 5.2347,-0.099 c -0.011,-0.018 0,-0.035 0.03,-0.035 0.015,0 0.023,0.01 0.023,0.023 0,0.025 -0.039,0.034 -0.053,0.012 z m 1.0272,-0.033 c -0.043,-0.015 -0.047,-0.068 -0.01,-0.087 0.022,-0.01 0.033,-0.01 0.047,0 0.04,0.033 0.01,0.1014 -0.041,0.085 z m -5.5598,-0.02 c -0.01,-0.023 0,-0.042 0.03,-0.042 0.023,0 0.036,0.02 0.027,0.044 -0.01,0.02 -0.049,0.018 -0.057,0 z m -0.8899,-0.072 c -0.022,-0.022 -0.024,-0.065 0,-0.085 0.031,-0.031 0.1033,0 0.1033,0.04 0,0.022 -0.042,0.064 -0.064,0.064 -0.01,0 -0.025,-0.01 -0.035,-0.018 z m 3.2802,-0.2383 c -0.029,-0.011 -0.077,-0.036 -0.1057,-0.054 -0.069,-0.044 -0.1903,-0.1653 -0.2169,-0.2174 -0.011,-0.023 -0.049,-0.076 -0.083,-0.1191 l -0.063,-0.078 0.063,-0.043 0.063,-0.043 0.06,0.048 c 0.033,0.026 0.099,0.068 0.145,0.092 0.1522,0.08 0.3132,0.2674 0.3132,0.365 0,0.07 -0.073,0.091 -0.176,0.051 z m -3.1613,-0.021 c 0,0 -0.01,-0.018 -0.01,-0.03 0,-0.015 0.01,-0.022 0.03,-0.022 0.024,0 0.03,0 0.026,0.026 0,0.026 -0.032,0.041 -0.048,0.025 z m -0.5487,-0.058 c -0.013,-0.015 -0.012,-0.022 0,-0.038 0.018,-0.018 0.021,-0.018 0.039,0 0.016,0.016 0.017,0.023 0,0.038 -0.01,0.01 -0.019,0.018 -0.024,0.018 0,0 -0.016,-0.01 -0.024,-0.018 z m 1.9102,-0.021 c -0.01,-0.022 0.021,-0.047 0.045,-0.038 0.01,0 0.017,0.016 0.015,0.028 0,0.026 -0.051,0.034 -0.06,0.01 z m 4.2819,0 c 0,-0.01 1e-4,-0.021 0.01,-0.031 0.021,-0.021 0.044,-0.011 0.044,0.021 0,0.025 -0.04,0.032 -0.053,0.01 z m 1.1503001,0 c -0.023,-0.017 -0.016,-0.05 0.013,-0.062 0.024,-0.01 0.055,0.022 0.046,0.046 -0.01,0.027 -0.035,0.033 -0.059,0.016 z m 0.1593,-0.071 c 0,-0.046 -0.052,-0.2973 -0.064,-0.3094 -0.01,-0.01 -0.089,-0.028 -0.1784,-0.042 -0.1803001,-0.029 -0.1796001,-0.031 0.031,-0.06 0.074,-0.01 0.1411,-0.025 0.1485,-0.033 0.01,-0.01 0.025,-0.082 0.039,-0.166 0.022,-0.1323 0.035,-0.189 0.036,-0.152 8e-4,0.053 0.049,0.3058 0.061,0.3172 0.01,0.01 0.079,0.023 0.156,0.034 0.204,0.028 0.2082,0.034 0.04,0.058 -0.08,0.011 -0.16,0.026 -0.1774,0.033 -0.035,0.013 -0.035,0.013 -0.063,0.1976 -0.016,0.1053 -0.028,0.1582 -0.028,0.1236 z m -1.6867001,-0.037 c -0.01,-0.026 0.021,-0.043 0.042,-0.023 0.01,0.01 0.013,0.022 0.01,0.029 -0.012,0.019 -0.042,0.015 -0.05,-0.01 z m 1.7694001,-0.022 c -0.01,-0.01 -0.012,-0.029 -0.01,-0.044 0,-0.022 0.011,-0.027 0.045,-0.027 0.037,0 0.042,0 0.045,0.034 0.01,0.05 -0.048,0.075 -0.08,0.037 z m -1.4283001,-0.2242 c -0.016,-0.024 -0.017,-0.036 -0.01,-0.059 0.025,-0.054 0.1193,-0.033 0.1193,0.026 0,0.023 -0.044,0.062 -0.07,0.062 -0.013,0 -0.032,-0.014 -0.043,-0.03 z m 0.7197,0 c -0.025,-0.014 -0.026,-0.061 0,-0.081 0.024,-0.02 0.076,0 0.076,0.032 -3e-4,0.042 -0.039,0.068 -0.074,0.048 z m -8.6773,-0.2043 c 0.1466,-0.1211 0.5296,-0.3614 0.8496,-0.533 0.2288,-0.1227 0.5448,-0.2738 0.5339,-0.2553 0,0.01 -0.04,0.053 -0.08,0.1009 -0.051,0.063 -0.071,0.096 -0.071,0.1213 0,0.034 -0.01,0.038 -0.2172,0.1313 -0.2674,0.1193 -0.5443,0.2592 -0.7443,0.3762 -0.1477,0.086 -0.1535,0.089 -0.2289,0.088 l -0.077,-4e-4 0.035,-0.029 z m 4.8037,-0.1314 c -0.07,-0.092 -0.3323,-0.4662 -0.4642,-0.6633 l -0.108,-0.1614 0.044,0 c 0.034,0 0.048,0.01 0.06,0.026 0.032,0.052 0.257,0.3652 0.4262,0.5918 l 0.1724,0.2308 -0.027,0.022 c -0.015,0.012 -0.033,0.022 -0.04,0.022 -0.01,0 -0.035,-0.03 -0.064,-0.068 z m 3.7716,0.021 c 0,-0.032 0.022,-0.042 0.044,-0.021 0.021,0.021 0.011,0.044 -0.021,0.044 -0.015,0 -0.023,-0.01 -0.023,-0.023 z m -8.1747,-0.2567 c -0.02,-0.034 -0.092,-0.4424 -0.1207,-0.689 -0.029,-0.2467 -0.029,-0.8442 -2e-4,-1.0917 0.099,-0.8541 0.3714,-1.6259 0.8139,-2.305 1.1146,-1.7104 3.0836,-2.6163 5.104,-2.3483 1.2418,0.1648 2.4002,0.7837 3.2277001,1.7244 0.1825,0.2075 0.4648,0.5818 0.4648,0.6163 0,0.013 -0.109,0.088 -0.127,0.088 0,-10e-5 -0.032,-0.035 -0.061,-0.079 -0.4722,-0.699 -1.1372001,-1.2867 -1.8958001,-1.6757 -1.2928,-0.6627 -2.8206,-0.7349 -4.1848,-0.1979 -0.1956,0.077 -0.556,0.2562 -0.7429,0.3695 -1.0469,0.6341 -1.833,1.6218 -2.2108,2.7779 -0.2616,0.8006 -0.318,1.6822 -0.1607,2.5145 0.016,0.087 0.032,0.1721 0.035,0.1888 0,0.027 0,0.035 -0.066,0.073 -0.039,0.023 -0.073,0.039 -0.076,0.034 z m 5.6766,-0.091 0,-0.07 0.1818,-0.125 0.1818,-0.125 0.1647,0.01 c 0.1326,0 0.1779,0 0.232,-0.013 0.1094,-0.032 0.1847,-0.1153 0.1847,-0.2049 0,-0.025 -0.013,-0.046 -0.047,-0.076 l -0.047,-0.042 0.038,-0.028 c 0.077,-0.057 0.527,-0.3617 0.5425,-0.3676 0.01,0 0.028,0.012 0.047,0.04 0.084,0.1267 0.1073,0.2857 0.066,0.4483 -0.027,0.1073 -0.057,0.161 -0.1411,0.2505 -0.1969,0.2107 -0.4986,0.313 -0.8233,0.279 -0.1102,-0.012 -0.3037,-0.052 -0.3643,-0.077 -0.012,-0.01 -0.044,0.015 -0.094,0.06 -0.042,0.037 -0.088,0.078 -0.1027,0.091 l -0.027,0.023 0,-0.07 z m -4.7683,-0.1199 c 0,0 0.037,-0.054 0.082,-0.1086 l 0.082,-0.1 3e-4,-0.7457 2e-4,-0.7458 -0.07,-0.1089 c -0.039,-0.06 -0.07,-0.1113 -0.07,-0.1141 0,0 0.1817,-0.01 0.4037,-0.01 l 0.4037,0 0.3447,0.5805 0.3446,0.5805 0,-0.5113 0,-0.5112 -0.06,-0.069 -0.06,-0.069 0.2476,0 c 0.1363,0 0.2477,0 0.2477,0.01 0,0 -0.026,0.045 -0.059,0.093 l -0.059,0.087 0,0.7705 0,0.7705 0.088,0.096 0.088,0.096 -0.4015,0 c -0.2208,0 -0.4051,-9e-4 -0.4096,-0.01 0,0 -0.1573,-0.2678 -0.3396,-0.5841 -0.1823,-0.3164 -0.3361,-0.5803 -0.3418,-0.5864 -0.01,-0.01 -0.01,0.1999 -0.01,0.4908 l 0,0.5019 0.07,0.093 c 0.039,0.051 0.07,0.095 0.07,0.099 0,0 -0.1347,0.01 -0.2994,0.01 -0.1646,0 -0.2993,0 -0.2993,-0.01 z m 6.5503,-0.067 c 0.035,-0.035 0.067,-0.061 0.071,-0.056 0,0 0.013,0.025 0.02,0.044 0.01,0.019 0.016,0.044 0.02,0.056 0.01,0.019 -7e-4,0.021 -0.083,0.021 l -0.092,0 0.064,-0.064 z m 0.2554,-0.1169 c -0.037,-0.1 -0.068,-0.1864 -0.068,-0.1927 0,-0.01 0.092,-0.3059 0.2055,-0.6658 0.1982,-0.6315 0.2047,-0.6553 0.1851,-0.6789 -0.011,-0.014 -0.06,-0.067 -0.1087,-0.1184 l -0.088,-0.094 0.4336,0 c 0.2385,0 0.4370001,0.001 0.4412001,0.01 0,0 0.1647,0.3893 0.3566,0.8542 l 0.349,0.8452 0.1196,0.1144 0.1195,0.1145 -0.5984,0 -0.5984001,0 0.091,-0.091 c 0.05,-0.05 0.091,-0.097 0.091,-0.1033 0,-0.01 -0.021,-0.065 -0.045,-0.1289 l -0.046,-0.1167 -0.3261,0 -0.3262,0 -0.033,0.1173 c -0.018,0.065 -0.033,0.1259 -0.033,0.1362 0,0.01 0.026,0.054 0.059,0.096 0.032,0.043 0.059,0.08 0.059,0.084 0,0 -0.038,0.01 -0.085,0.01 l -0.085,0 -0.067,-0.1813 z m 0.7425,-0.5435 c 0,-0.028 -0.2646,-0.646 -0.2713,-0.6339 -0.012,0.021 -0.1983,0.614 -0.1983,0.6296 0,0.01 0.07,0.013 0.2348,0.013 0.1291,0 0.2348,0 0.2348,-0.01 z m -2.7822,0.3719 0,-0.083 0.054,0.039 c 0.03,0.021 0.056,0.042 0.059,0.047 0,0 -0.022,0.024 -0.054,0.044 l -0.059,0.036 0,-0.083 z m -2.9112,-0.3862 0,-0.1405 0.1027,-0.031 c 0.057,-0.017 0.1866,-0.057 0.2891,-0.089 0.1025,-0.032 0.1906,-0.054 0.1957,-0.049 0.021,0.022 0.1656,0.2876 0.1596,0.2936 -0.012,0.012 -0.6872,0.1563 -0.7301,0.1563 -0.014,0 -0.017,-0.026 -0.017,-0.1405 z m 3.3573,0.03 c -0.2721,-0.098 -0.4255,-0.2317 -0.483,-0.4213 -0.049,-0.1613 -0.01,-0.4014 0.088,-0.5328 0.093,-0.125 0.2051,-0.2139 0.325,-0.2569 0.066,-0.024 0.2307,-0.059 0.3224,-0.069 l 0.07,-0.01 0.071,0.091 c 0.079,0.1022 0.1585,0.2115 0.1584,0.2173 0,0 -0.067,0 -0.1496,0 -0.1773,0 -0.2152,0.015 -0.2583,0.1 -0.028,0.056 -0.036,0.16 -0.014,0.2002 0.022,0.042 0.1111,0.08 0.2815,0.122 0.1731,0.042 0.4031,0.1378 0.3805,0.158 -0.01,0.01 -0.1732,0.1217 -0.5,0.3455 -0.082,0.056 -0.1506,0.1013 -0.1526,0.1005 0,-8e-4 -0.065,-0.023 -0.1388,-0.05 z m -2.5527,-0.3819 c -0.017,-0.034 -0.017,-0.034 0.019,-0.047 0.02,-0.01 0.038,-0.013 0.04,-0.013 0,0 0,0.021 -0.01,0.047 -0.014,0.056 -0.026,0.059 -0.05,0.013 z m 1.3428,-0.057 c -0.01,-0.018 -0.028,-0.075 -0.048,-0.1262 -0.02,-0.052 -0.051,-0.1342 -0.069,-0.1835 l -0.033,-0.09 0.2722,-0.1029 c 0.2875,-0.1088 0.9373,-0.3664 1.1493,-0.4557 l 0.126,-0.053 0.047,0.055 0.047,0.055 -0.1048,0.01 c -0.2122,0.017 -0.3737,0.081 -0.5016,0.2006 -0.133,0.124 -0.1964,0.2439 -0.2365,0.4476 l -0.021,0.1042 -0.052,0.016 c -0.1872,0.057 -0.534,0.1565 -0.5475,0.1565 -0.01,0 -0.022,-0.015 -0.028,-0.032 z m 2.3307,-0.027 c -0.016,-0.026 -0.027,-0.052 -0.023,-0.058 0,-0.01 0.069,-0.055 0.1442,-0.1099 0.076,-0.054 0.2291,-0.1681 0.3411,-0.2527 0.112,-0.085 0.2074,-0.1538 0.212,-0.1538 0,0 0.021,0.017 0.036,0.037 0.026,0.035 0.027,0.04 0.011,0.085 -0.015,0.044 -0.042,0.065 -0.3453,0.2733 -0.1807,0.1242 -0.3326,0.2262 -0.3373,0.2265 0,3e-4 -0.022,-0.021 -0.039,-0.047 z m -0.2088,-0.3429 c -0.029,-0.047 -0.1091,-0.1638 -0.1776,-0.2599 -0.068,-0.096 -0.1227,-0.1766 -0.1206,-0.1788 0,0 0.044,0.01 0.094,0.021 l 0.09,0.024 0.088,-0.049 0.088,-0.049 0,0.2879 c 0,0.1584 0,0.2879 0,0.2879 0,0 -0.029,-0.038 -0.058,-0.085 z m -0.7242,-0.031 c 0,-0.02 0.055,-0.059 0.1,-0.071 0.045,-0.012 0.1442,-0.018 0.1338,-0.01 -0.012,0.012 -0.2336,0.087 -0.2336,0.079 z m 0.857,-0.399 c 0,-0.074 0,-0.096 -0.022,-0.1114 -0.032,-0.029 -0.054,-0.024 -0.1599,0.033 l -0.097,0.053 -0.1044,-0.024 -0.1044,-0.024 -0.086,-0.1062 c -0.047,-0.058 -0.082,-0.1104 -0.076,-0.1155 0.01,-0.01 0.1233,-0.059 0.2621,-0.1205 1.008,-0.4444 1.9063001,-0.9138 2.6530001,-1.3862 0.2026,-0.1282 0.4043,-0.2874 0.8628,-0.6811 0.6094,-0.5233 1.0176,-0.9375 1.2118,-1.2295 0.03,-0.044 0.055,-0.081 0.058,-0.081 0.015,0 -0.1221,0.3139 -0.2308,0.5279 -0.5273,1.0378 -1.4912,2.1628 -2.6486,3.0914 l -0.1427001,0.1144 -0.1528,0 -0.1529,0 0.1132,-0.094 c 0.1249,-0.1036 0.4849001,-0.4557 0.5046001,-0.4934 0.01,-0.017 -0.077,0.021 -0.3065001,0.1353 -0.3899,0.1947 -0.9025,0.4222 -1.3197,0.586 l -0.062,0.024 0,-0.092 z m -3.3195,-0.943 c 0.01,-0.022 0.033,-0.025 0.033,0 0,0.01 -0.01,0.019 -0.019,0.019 -0.01,0 -0.017,-0.01 -0.014,-0.014 z m 0.041,-0.2796 c 0,-0.01 -0.016,-0.073 -0.026,-0.1408 -0.011,-0.068 -0.026,-0.1341 -0.035,-0.1473 -0.012,-0.02 -0.041,-0.028 -0.1544,-0.046 -0.2125,-0.033 -0.2129,-0.034 -0.028,-0.062 0.092,-0.014 0.1723,-0.03 0.1782,-0.036 0.01,-0.01 0.022,-0.076 0.035,-0.1564 0.013,-0.08 0.028,-0.1499 0.033,-0.1549 0,0 0.018,0.057 0.03,0.1381 0.012,0.081 0.027,0.1554 0.035,0.1655 0.01,0.013 0.065,0.026 0.1884,0.043 0.194,0.027 0.1934,0.029 -0.026,0.061 -0.095,0.014 -0.1493,0.028 -0.1603,0.04 -0.01,0.01 -0.027,0.085 -0.04,0.1654 -0.013,0.081 -0.026,0.1388 -0.03,0.1291 z m -0.4313,-0.2175 c -0.021,-0.026 -7e-4,-0.058 0.037,-0.058 0.023,0 0.028,0.01 0.028,0.035 0,0.027 -0.01,0.036 -0.024,0.039 -0.013,0 -0.032,-0.01 -0.04,-0.016 z m -0.1369,-0.2243 c -0.01,-0.025 0.011,-0.057 0.037,-0.057 0.012,0 0.026,0.01 0.033,0.019 0.018,0.028 0,0.057 -0.033,0.057 -0.017,0 -0.033,-0.01 -0.037,-0.019 z m 2.8157,-0.1554 c -0.01,-0.01 -0.014,-0.023 -0.012,-0.038 0.01,-0.039 0.063,-0.047 0.074,-0.011 0.013,0.042 -0.026,0.072 -0.063,0.049 z m -0.7018,-0.535 c -0.01,-0.023 0,-0.042 0.03,-0.042 0.023,0 0.041,0.03 0.029,0.048 -0.01,0.017 -0.052,0.012 -0.059,-0.01 z m -1.1745,-0.013 c 0,-0.01 0,-0.027 0.012,-0.038 0.017,-0.017 0.021,-0.017 0.037,0 0.01,0.01 0.015,0.027 0.01,0.038 -0.01,0.025 -0.051,0.026 -0.06,0 z m 1.969,-0.3492 c -0.015,-0.088 -0.033,-0.1647 -0.04,-0.1703 -0.01,-0.01 -0.084,-0.022 -0.1711,-0.036 -0.1432,-0.023 -0.197,-0.036 -0.1522,-0.037 0.059,-4e-4 0.3101,-0.048 0.3222,-0.061 0.01,-0.01 0.026,-0.084 0.04,-0.1679 0.014,-0.084 0.027,-0.154 0.029,-0.1562 0,0 0.011,0.034 0.042,0.2286 0.01,0.046 0.021,0.09 0.029,0.098 0.013,0.011 0.2549,0.053 0.3343,0.059 0.034,0 -0.044,0.02 -0.1827,0.04 -0.077,0.011 -0.1468,0.027 -0.1549,0.034 -0.01,0.01 -0.025,0.08 -0.038,0.16 -0.013,0.08 -0.025,0.151 -0.027,0.1569 0,0.01 -0.016,-0.061 -0.031,-0.1495 z m -1.8946,0.1134 c -0.014,-0.014 -0.01,-0.027 0.01,-0.027 0.01,0 0.018,0.01 0.018,0.018 0,0.018 -0.014,0.023 -0.027,0.01 z m 0.6534,-0.011 c 0,-0.01 0,-0.027 0.012,-0.038 0.017,-0.017 0.021,-0.017 0.037,0 0.01,0.01 0.015,0.027 0.011,0.038 -0.01,0.025 -0.051,0.026 -0.06,0 z m -0.7758,-0.03 c -0.037,-0.037 0.01,-0.095 0.05,-0.064 0.027,0.02 0.02,0.071 -0.011,0.076 -0.013,0 -0.03,0 -0.038,-0.011 z m 0.9779,-0.091 c -0.01,-0.014 0.013,-0.028 0.029,-0.018 0.013,0.01 0,0.029 -0.012,0.029 -0.01,0 -0.013,0 -0.017,-0.011 z m -1.0512,-0.018 c 0,-0.01 0.01,-0.018 0.018,-0.018 0.01,0 0.018,0.01 0.018,0.018 0,0.01 -0.01,0.018 -0.018,0.018 -0.01,0 -0.018,-0.01 -0.018,-0.018 z m 1.3332,-0.1417 c -0.022,-0.022 -0.024,-0.065 0,-0.085 0.018,-0.018 0.071,-0.018 0.089,0 0.033,0.033 0,0.1033 -0.045,0.1033 -0.012,0 -0.03,-0.01 -0.04,-0.019 z m -0.579,-0.136 c -0.039,-0.039 0.01,-0.1129 0.061,-0.099 0.034,0.01 0.052,0.058 0.034,0.088 -0.015,0.024 -0.075,0.031 -0.094,0.011 z m 0.3492,-0.5089 c -0.013,-0.016 -0.013,-0.022 0,-0.037 0.025,-0.025 0.058,-0.011 0.054,0.023 0,0.032 -0.036,0.04 -0.057,0.015 z"/></svg>