<svg xmlns="http://www.w3.org/2000/svg" version="1.0" preserveAspectRatio="xMidYMid meet" viewBox="86.16 24 187.84 303">

<g transform="translate(0.000000,347.000000) scale(0.100000,-0.100000)" fill="#000000" stroke="none">
<path d="M862 2813 l3 -417 25 -13 c37 -20 573 -280 830 -403 124 -60 249 -120 277 -134 29 -14 59 -26 67 -26 8 0 73 42 144 93 465 332 462 330 451 344 -6 7 -16 13 -21 13 -5 0 -46 21 -91 47 -45 25 -134 74 -197 108 -63 34 -196 106 -295 160 -99 54 -205 112 -235 128 -30 16 -102 55 -160 87 -58 31 -159 86 -225 122 -162 87 -360 195 -474 257 -51 28 -95 51 -97 51 -2 0 -3 -188 -2 -417z"/>
<path d="M870 1225 l0 -1025 98 52 c53 28 143 78 200 110 57 32 105 58 107 58 2 0 30 15 62 34 32 18 92 51 133 73 146 78 325 175 355 193 33 20 514 284 610 335 33 17 115 62 183 99 l122 68 0 471 c0 390 -2 469 -13 457 -7 -8 -110 -114 -228 -235 -118 -121 -306 -317 -419 -435 -112 -118 -290 -303 -395 -410 -105 -107 -236 -242 -290 -300 -55 -58 -166 -175 -248 -260 -81 -85 -159 -167 -174 -183 -37 -39 -45 -34 -24 16 20 47 511 1512 511 1525 0 5 -52 42 -115 83 -64 41 -193 125 -288 186 -95 62 -175 113 -179 113 -5 0 -8 -461 -8 -1025z"/>
</g>
</svg>